<?xml version="1.0" encoding="utf-8" ?>
<svg baseProfile="full" height="200mm" version="1.1" viewBox="0,0,200,200" width="200mm" xmlns="http://www.w3.org/2000/svg" xmlns:ev="http://www.w3.org/2001/xml-events" xmlns:xlink="http://www.w3.org/1999/xlink"><defs /><rect fill="#1a1a1a" height="200" width="200" x="0" y="0" /><text alignment-baseline="middle" fill="#e1ed5e" style="dominant-baseline: central; font-size:9.0px; font-family:Arial;" text-anchor="middle" x="100.0" y="100.0">2020</text><line stroke="#e1ed5e" stroke-width="0.3" x1="100.0" x2="100.0" y1="15.0" y2="10.0" /><path d="M 100.0 14.0 a86.0,86.0 0 0,1 42.35913384403234,11.155469271406648" fill="none" id="id97" stroke="none" /><text fill="#e1ed5e" style="font-size:6.75px; font-family:Arial;" text-anchor="middle"><textPath startOffset="22.145653131862478" xlink:href="#id97">January</textPath></text><path d="M 100.0 79.0 l 0.0 -27.32211018175329 a48.32211018175329,48.32211018175329 0 0,0 0.8295132778232794,0.0071203738332239145 l -0.4690203529744247 27.3180842061145" fill="#b8ff1f" stroke="none" /><path d="M 100.36049292484886 79.00309439819443 l 0.2497887697509134 -14.548943564010521 a35.5510877001775,35.5510877001775 0 0,0 0.6101018417832094,0.015714059264113456 l -0.4995039256048642 14.542511787396363" fill="#ffa40f" stroke="none" /><path d="M 100.72087961077811 79.0123766808444 l 0.489178600334247 -14.241901208060428 a35.2502998467814,35.2502998467814 0 0,0 0.6045833302812833,0.025963409564239717 l -0.7335876912163666 14.231405230070356" fill="#ffa00e" stroke="none" /><path d="M 101.08105385017728 79.02784411241856 l 1.3458022009725845 -26.108203164919917 a47.14286625572791,47.14286625572791 0 0,0 0.8078393656565546,0.04859761019578996 l -1.7937859187616014 26.081253576899435" fill="#c6ff1e" stroke="none" /><path d="M 101.44090949804482 79.04949213459386 l 1.9503196182658296 -28.35721921326618 a49.424208487179115,49.424208487179115 0 0,0 0.8459329970945345,0.06548056402930211 l -2.4368216101355977 28.319560882241824" fill="#abff21" stroke="none" /><path d="M 101.80034050326958 79.07731436759882 l 0.99448552032727 -11.55742920297268 a32.600136690223366,32.600136690223366 0 0,0 0.5571525377061631,0.052762924590083006 l -1.192737621418446 11.538654522877412" fill="#ff7c0b" stroke="none" /><path d="M 102.51750503828377 79.15144685158666 l 0.6818976425948566 -5.647090681934973 a26.688111950812257,26.688111950812257 0 0,0 0.4543615197274662,0.05882619536324798 l -0.7787369842131145 5.634552890371328" fill="#ff2703" stroke="none" /><path d="M 103.58742460773223 79.30868818359171 l 0.5620232149618072 -3.241600552042327 a24.289961129429514,24.289961129429514 0 0,0 0.4102288350477937,0.07475735918719859 l -0.6175867835606546 3.231475018923762" fill="#ff0300" stroke="none" /><path d="M 103.94208987418118 79.37332000966035 l 2.7061687687734683 -14.159818516298092 a35.416095512294,35.416095512294 0 0,0 0.5961768682079635,0.11925207054857692 l -2.9488421225123886 14.111277049086656" fill="#ffa20f" stroke="none" /><path d="M 104.29559338865022 79.4440306129975 l 1.1880496996498244 -5.685247891656983 a26.80805524064882,26.80805524064882 0 0,0 0.4496573615765189,0.09800072909977757 l -1.2854694778454774 5.664015704423488" fill="#ff2903" stroke="none" /><path d="M 104.64783097203109 79.52079915486377 l 2.5306001352878655 -11.150291123139093 a32.43385014662486,32.43385014662486 0 0,0 0.5419045308033134,0.12788799374004328 l -2.721636819831064 11.10520698575282" fill="#ff790b" stroke="none" /><path d="M 104.9986988182912 79.60360301121754 l 2.8270556127019946 -11.535351634917495 a32.87672432863976,32.87672432863976 0 0,0 0.5469977836435538,0.13904469758399787 l -3.024658689570943 11.48512170549823" fill="#ff800b" stroke="none" /><path d="M 105.3480935250658 79.69241777938227 l 3.138127791821622 -11.915982368771129 a33.32227583892958,33.32227583892958 0 0,0 0.5519098714268676,0.15042548969157707 l -3.3422190641831824 11.86035638493541" fill="#ff860c" stroke="none" /><path d="M 105.69591212413111 79.78721728523813 l 3.768485874233029 -13.373026914656155 a34.893859602155615,34.893859602155615 0 0,0 0.575150482411818,0.16741792309713718 l -3.9974963690264516 13.306365297256502" fill="#ff9b0e" stroke="none" /><path d="M 106.04205211174951 79.88797359093562 l 2.4762580136595997 -8.242657568201379 a29.60658222158139,29.60658222158139 0 0,0 0.4854906626979911,0.15040624832292254 l -2.617389309229221 8.19893473207181" fill="#ff5107" stroke="none" /><path d="M 106.38641147887787 79.99465700312896 l 2.6130298489224737 -8.185278784752072 a29.592247306465996,29.592247306465996 0 0,0 0.4826034211604497,0.15864133025740243 l -2.753156007730666 8.139216533092648" fill="#ff5107" stroke="none" /><path d="M 106.72888874123014 80.10723608172694 l 3.4739349614188764 -10.270071435644983 a31.841706111559166,31.841706111559166 0 0,0 0.5162817685345124,0.1795895991211124 l -3.649722501998407 10.208923403955279" fill="#ff710a" stroke="none" /><path d="M 107.40779381753099 80.34994680014964 l 3.0180516387162495 -8.005740537799705 a29.555730082963542,29.555730082963542 0 0,0 0.4732122026736603,0.18304864575010413 l -3.1550361038834356 7.952752003911562" fill="#ff5107" stroke="none" /><path d="M 107.74402155503746 80.48000691201159 l 1.519631838208298 -3.8304649292740227 a25.120890983524628,25.120890983524628 0 0,0 0.39947664166044555,0.16246367245928411 l -1.5851629410591832 3.803814000235445" fill="#ff1001" stroke="none" /><path d="M 108.07796709384702 80.6158196554323 l 3.278953660147903 -7.868295123187703 a29.52417768767033,29.52417768767033 0 0,0 0.46615151217463247,0.19897236146502967 l -3.4135402474929655 7.810848112063272" fill="#ff5007" stroke="none" /><path d="M 108.4095320186766 80.7573450057729 l 2.3223811971052952 -5.314062666237399 a26.79937207336849,26.79937207336849 0 0,0 0.4199673410109835,0.1878460498652899 l -2.4132619409719105 5.273412865462256" fill="#ff2903" stroke="none" /><path d="M 108.73861861582097 80.90454125486305 l 2.380430675159485 -5.201670624561988 a26.720474410892102,26.720474410892102 0 0,0 0.4154541174220914,0.194453504461698 l -2.4693735064530813 5.160040888529756" fill="#ff2703" stroke="none" /><path d="M 109.06512990194946 81.05736502329252 l 3.7566608860383184 -7.849976411280679 a29.70256460305543,29.70256460305543 0 0,0 0.4580414817776581,0.22405104148881103 l -3.8908626170780436 7.784331619694647" fill="#ff5307" stroke="none" /><path d="M 110.34350942703115 81.72400993836675 l 7.0410909609986625 -12.44093306377955 a35.29523617917872,35.29523617917872 0 0,0 0.5247351706564669,0.3029559920317754 l -7.2536185995155265 12.318230174471603" fill="#ffa10e" stroke="none" /><line stroke="#e1ed5e" stroke-width="0.3" x1="143.13028292997686" x2="145.6673583964461" y1="26.7553504044142" y2="22.446841604673864" /><path d="M 143.63769802327073 25.89364864446614 a86.0,86.0 0 0,1 29.32050498858742,28.57503671076993" fill="none" id="id98" stroke="none" /><text fill="#e1ed5e" style="font-size:6.75px; font-family:Arial;" text-anchor="middle"><textPath startOffset="20.669276256404974" xlink:href="#id98">February</textPath></text><path d="M 110.65571695917076 81.90426304109057 l 5.851744354486508 -9.937541227428753 a32.532460172795346,32.532460172795346 0 0,0 0.47879608514337685,0.28750329219969367 l -6.021473196187319 9.835623934693137" fill="#ff7b0b" stroke="none" /><path d="M 110.96478420261332 82.08984904055464 l 7.503989471481548 -12.257202854962806 a35.37180850887648,35.37180850887648 0 0,0 0.5151413272188426,0.3214862878723883 l -7.713294927490103 12.126580770248871" fill="#ffa20f" stroke="none" /><path d="M 111.27062007382361 82.28071324371311 l 6.086446994995605 -9.568905608108219 a32.34058162352249,32.34058162352249 0 0,0 0.46588050487050253,0.3019781146484831 l -6.249813132123114 9.463013651755842" fill="#ff780b" stroke="none" /><path d="M 111.8722381534696 82.67804972795209 l 4.75393734078532 -6.936136653344456 a29.408918593611276,29.408918593611276 0 0,0 0.4139724142639406,0.28898489587412807 l -4.872304846223021 6.853506941665201" fill="#ff4f07" stroke="none" /><path d="M 112.16784306229584 82.88440491214696 l 5.025051051476661 -7.068363608285794 a29.672537239406104,29.672537239406104 0 0,0 0.4126163973472468,0.29870245161019837 l -5.145648459197876 6.981060385302521" fill="#ff5207" stroke="none" /><path d="M 112.45986205192187 83.09580414077388 l 6.862746685291946 -9.31063390726192 a32.56655505418709,32.56655505418709 0 0,0 0.4471651814927535,0.33556108863261974 l -7.021564855695466 9.191453791365285" fill="#ff7b0b" stroke="none" /><path d="M 112.7482090630111 83.31218511350987 l 6.372125434225996 -8.341316741376248 a31.496739852424348,31.496739852424348 0 0,0 0.4268409018291109,0.3319140669864303 l -6.514376280690333 8.230701622769027" fill="#ff6c0a" stroke="none" /><path d="M 113.31354834802062 83.75963576809568 l 9.182795119557625 -11.201516944259367 a35.48439532946754,35.48439532946754 0 0,0 0.4677614935210703,0.3902232744092889 l -9.373730947240588 11.042231485938208" fill="#ffa30f" stroke="none" /><path d="M 113.59037401385872 83.9905735841838 l 3.0333723581960093 -3.573305010648596 a25.687201357163353,25.687201357163353 0 0,0 0.3337140779855937,0.2882542723988453 l -3.094265915944463 3.5207066057850307" fill="#ff1802" stroke="none" /><path d="M 113.86319453409587 84.22622945171908 l 7.738071794696041 -8.804505244116891 a32.721649529547975,32.721649529547975 0 0,0 0.4187357908865705,0.3744361262637879 l -7.8880726124059874 8.670373587969717" fill="#ff7d0b" stroke="none" /><path d="M 115.8921839302757 86.27271002978787 l 2.7848697755499017 -2.405504184067786 a24.67993886448389,24.67993886448389 0 0,0 0.27418875759029526,0.3229936670035456 l -2.8257530966473094 2.3573437346146884" fill="#ff0901" stroke="none" /><path d="M 116.1254893667686 86.54754324733833 l 6.209931508158318 -5.180545727973234 a29.087107231614972,29.087107231614972 0 0,0 0.3165690893777486,0.3861628156269264 l -6.2979474167746945 5.073180630647813" fill="#ff4a06" stroke="none" /><path d="M 116.35404254752997 86.82634096563983 l 9.38328130215302 -7.558507209382352 a33.048941830286154,33.048941830286154 0 0,0 0.3521027485337809,0.4448703204831346 l -9.51165048132836 7.396316944984538" fill="#ff820c" stroke="none" /><path d="M 116.57777611688842 87.10902102172516 l 11.990311602078968 -9.32373882452797 a36.188801071281425,36.188801071281425 0 0,0 0.37713559792229934,0.4936826038956236 l -12.148599177355575 9.116535307391466" fill="#ffad10" stroke="none" /><path d="M 117.81537515405839 88.88188828441811 l 4.89409869247848 -3.0542795500808513 a26.768953595043183,26.768953595043183 0 0,0 0.2399416487901835,0.39192665098380697 l -4.945808305724066 2.9698157829724896" fill="#ff2803" stroke="none" /><line stroke="#e1ed5e" stroke-width="0.3" x1="172.87174338648825" x2="177.1583165268699" y1="56.24261187166439" y2="53.66864786411523" /><path d="M 173.72905801456457 55.72781907015455 a86.0,86.0 0 0,1 12.242430191666344,42.057860355516425" fill="none" id="id99" stroke="none" /><text fill="#e1ed5e" style="font-size:6.75px; font-family:Arial;" text-anchor="middle"><textPath startOffset="22.145653131862474" xlink:href="#id99">March</textPath></text><path d="M 118.53625476483649 90.13048839642627 l 7.287078881925073 -3.8799590582747876 a29.25564055208843,29.25564055208843 0 0,0 0.23222281985726376,0.44531787680283136 l -7.352609770757281 3.754294938367458" fill="#ff4c07" stroke="none" /><path d="M 119.4528033332814 92.08871423366111 l 5.386678791897553 -2.19071537012193 a26.81511326114697,26.81511326114697 0 0,0 0.16975412799382505,0.4278912941482564 l -5.423491594857502 2.097923058760108" fill="#ff2904" stroke="none" /><path d="M 119.71291397450082 92.76114493625339 l 3.7620837994275105 -1.381489281440164 a25.007715951592502,25.007715951592502 0 0,0 0.14452057883212543,0.40424978030099956 l -3.785244548303579 1.3167045447582477" fill="#ff0e01" stroke="none" /><path d="M 120.26092885502905 94.47779374421319 l 3.36648237381638 -0.9175497410658171 a24.48928375179582,24.48928375179582 0 0,0 0.10706542171298368,0.4065448452296418 l -3.381737276334094 0.8596243914633768" fill="#ff0601" stroke="none" /><path d="M 120.35273937422433 94.82641323984039 l 5.6018153292430535 -1.423959550965141 a26.779965033261647,26.779965033261647 0 0,0 0.10943119234816256,0.44651660826645 l -5.625434048107508 1.327587118090596" fill="#ff2803" stroke="none" /><path d="M 120.51834098615036 95.52812308129327 l 3.1095094710790017 -0.6777031165240944 a24.182503835799178,24.182503835799178 0 0,0 0.08491777099287437,0.406362274780054 l -3.1206849528962426 0.6242243904586361" fill="#ff0100" stroke="none" /><path d="M 120.7213421655516 96.59031103205396 l 8.099941119965521 -1.3328422289012356 a29.208868043405907,29.208868043405907 0 0,0 0.07716497216087949,0.4954544756888688 l -8.121627584264667 1.1935995712809255" fill="#ff4c07" stroke="none" /><path d="M 120.82617615685814 97.30363454192243 l 6.748196066872127 -0.8736890844485173 a27.804519290385834,27.804519290385834 0 0,0 0.057221586489686324,0.4738768221016204 l -6.762199739621477 0.757718585423484" fill="#ff3705" stroke="none" /><line stroke="#e1ed5e" stroke-width="0.3" x1="184.99686870605535" x2="189.99668451229388" y1="99.2704041080226" y2="99.22748670261217" /><path d="M 185.99683186730306 99.26182062694052 a86.0,86.0 0 0,1 -10.086455211305974,41.156179273409016" fill="none" id="id100" stroke="none" /><text fill="#e1ed5e" style="font-size:6.75px; font-family:Arial;" text-anchor="middle"><textPath startOffset="21.40746469413373" xlink:href="#id100">April</textPath></text><path d="M 120.99922638620191 99.81974689727618 l 4.178645116369497 -0.03586864266115501 a25.17879905811287,25.17879905811287 0 0,0 0.0,0.43224349076996327 l -4.178645116369497 -0.035868642661154505" fill="#ff1001" stroke="none" /><path d="M 120.93736805541906 101.62068470465957 l 3.9149757740751605 0.30304388495067597 a24.926687014240045,24.926687014240045 0 0,0 -0.03668540922654418,0.426340063531883 l -3.9091967421508755 -0.37020499585821626" fill="#ff0d01" stroke="none" /><path d="M 120.9064616781168 101.97986365728391 l 5.7242351261656355 0.5420910179127068 a26.749846124143684,26.749846124143684 0 0,0 -0.04721679987169449,0.4567797071307324 l -5.7140859338122745 -0.6402752473263705" fill="#ff2803" stroke="none" /><path d="M 120.86939407059847 102.33845913500097 l 5.820046900971776 0.65214839471002 a26.856470221749106,26.856470221749106 0 0,0 -0.05527050540064117,0.4577190718039139 l -5.8079943093114705 -0.7519611434373424" fill="#ff2904" stroke="none" /><path d="M 120.82617615685814 102.69636545807757 l 3.96997650129279 0.5139929397908459 a25.003111560145655,25.003111560145655 0 0,0 -0.05876384088928577,0.42518587950026787 l -3.960568143848294 -0.5820671274911988" fill="#ff0e01" stroke="none" /><path d="M 120.77682067341334 103.0534771498775 l 5.851612397847942 0.8599855111438031 a26.914468930852966,26.914468930852966 0 0,0 -0.07110355124641336,0.45653580524802967 l -5.835987354463262 -0.9603094983232833" fill="#ff2a04" stroke="none" /><path d="M 120.592083275326 104.11899336999214 l 6.065367293235769 1.2132433291652833 a27.185518553655648,27.185518553655648 0 0,0 -0.09546297002729902,0.4568248695647789 l -6.043646612384105 -1.3171846500154714" fill="#ff2e04" stroke="none" /><path d="M 120.51834098615036 104.47187691870673 l 8.473806937643355 1.8468267821263966 a29.67272582177207,29.67272582177207 0 0,0 -0.11274101088356418,0.49675769606553466 l -8.440855065202127 -1.9920188121309483" fill="#ff5207" stroke="none" /><path d="M 120.43855184770803 104.8234425847677 l 4.217985160145104 0.9954330128161031 a25.333853446323314,25.333853446323314 0 0,0 -0.10352193462393647,0.42240482021248243 l -4.200275699004871 -1.0676936576366851" fill="#ff1302" stroke="none" /><path d="M 120.16314734710363 105.8691983318838 l 5.498566192480701 1.6005524816687982 a26.72677906153781,26.72677906153781 0 0,0 -0.13200951803393518,0.4394167517660866 l -5.470280354443136 -1.6947068370256082" fill="#ff2703" stroke="none" /><path d="M 119.0197475246899 108.90220220490707 l 2.8162522812196786 1.3181482685247765 a24.109468084623142,24.109468084623142 0 0,0 -0.17866349112004157,0.3733379810942781 l -2.7932095321397252 -1.3662987516841583" fill="#ff0000" stroke="none" /><path d="M 118.8641267826498 109.22738970284198 l 5.165928186750844 2.526914344102493 a26.75083560303177,26.75083560303177 0 0,0 -0.20531914305501628,0.41077582395135426 l -5.121789130484095 -2.615222024217593" fill="#ff2803" stroke="none" /><line stroke="#e1ed5e" stroke-width="0.3" x1="174.33088141563837" x2="178.70328620479359" y1="141.23008692659167" y2="143.65538615756765" /><path d="M 175.20536237346943 141.71514677278685 a86.0,86.0 0 0,1 -30.301960400862466,31.631185727798858" fill="none" id="id101" stroke="none" /><text fill="#e1ed5e" style="font-size:6.75px; font-family:Arial;" text-anchor="middle"><textPath startOffset="22.145653131862474" xlink:href="#id101">May</textPath></text><path d="M 116.79662413953412 112.60449989151573 l 8.80306770663513 6.605986121468679 a32.006046233077484,32.006046233077484 0 0,0 -0.3335457109912248,0.4366220426486808 l -8.6883700182896 -6.756129077358237" fill="#ff730a" stroke="none" /><path d="M 116.35404254752997 113.17365903436017 l 5.079735483524213 4.091875329919311 a27.522818125486655,27.522818125486655 0 0,0 -0.2995441726712728,0.36539518545776395 l -5.008744491614312 -4.178472797075568" fill="#ff3304" stroke="none" /><path d="M 116.1254893667686 113.45245675266167 l 12.871213709748321 10.737624257250861 a37.7620021790929,37.7620021790929 0 0,0 -0.4195276381542173,0.49420250285842643 l -12.68499150808699 -10.956993542558843" fill="#ffc212" stroke="none" /><path d="M 115.89218393027572 113.72728997021213 l 4.500055971486234 3.887041169029839 a26.946393259467605,26.946393259467605 0 0,0 -0.3053782600940113,0.34746440247296934 l -4.432666647433638 -3.9637178493141016" fill="#ff2b04" stroke="none" /><path d="M 115.16444852881244 114.52719865689866 l 13.115726563147371 12.564569357757298 a39.16289311825468,39.16289311825468 0 0,0 -0.4692333720796715,0.4814747769576157 l -12.898106389916892 -12.787866826782652" fill="#ffd413" stroke="none" /><path d="M 114.91283532996324 114.78537596483092 l 8.637902046969081 8.564074267970556 a33.16374612692768,33.16374612692768 0 0,0 -0.4042946174881938,0.4008391287007639 l -8.489615509350923 -8.711093406899982" fill="#ff840c" stroke="none" /><path d="M 114.65682725009322 115.03919595460226 l 2.3778097780357697 2.4398423058729724 a24.406876842219287,24.406876842219287 0 0,0 -0.30256102743459184,0.2898466200750065 l -2.3355762647358658 -2.480301056253559" fill="#ff0500" stroke="none" /><path d="M 114.39649973595853 115.28858382429668 l 13.318100255521195 14.143360946852129 a40.42695172406252,40.42695172406252 0 0,0 -0.5093222791768774,0.47142109786599584 l -13.07334820503035 -14.369899790850505" fill="#ffe515" stroke="none" /><path d="M 114.13192950727249 115.5334660781643 l 11.594274854697215 12.744139083319856 a38.22905367050857,38.22905367050857 0 0,0 -0.4892135101291318,0.4374577373976725 l -11.373796317744706 -12.941292350600916" fill="#ffc812" stroke="none" /><path d="M 113.86319453409587 115.77377054828091 l 5.896985655763652 6.7096871815328765 a29.932767874422176,29.932767874422176 0 0,0 -0.38887015731607344,0.33589678005615176 l -5.780936018684724 -6.809928094053746" fill="#ff5608" stroke="none" /><path d="M 113.59037401385872 116.0094264158162 l 14.428714283169542 16.996989145087714 a43.295412888385144,43.295412888385144 0 0,0 -0.5707276905029948,0.47612133805131107 l -14.134812258504653 -17.242172667050895" fill="#f5ff19" stroke="none" /><path d="M 113.31354834802062 116.24036423190432 l 3.668377449171806 4.4748240181597865 a26.78628059318695,26.78628059318695 0 0,0 -0.3581060781707279,0.2884649075751367 l -3.5910206006458254 -4.537137219528327" fill="#ff2803" stroke="none" /><path d="M 113.03279911837588 116.46651593811092 l 10.966384072438156 13.855668032022272 a38.67034567397676,38.67034567397676 0 0,0 -0.5240569436348483,0.40750984910054605 l -10.726917184168078 -14.04187893274361" fill="#ffce13" stroke="none" /><path d="M 112.7482090630111 116.68781488649013 l 7.007952487492312 9.173634764424467 a32.5441315332946,32.5441315332946 0 0,0 -0.44685728838668465,0.33533003990581584 l -6.84944221019486 -9.292583831594296" fill="#ff7b0b" stroke="none" /><path d="M 112.45986205192187 116.90419585922612 l 7.031796334846022 9.539982223807273 a32.85147334829357,32.85147334829357 0 0,0 -0.45682162166167667,0.33070362500415135 l -6.866993702810377 -9.659286620184503" fill="#ff7f0b" stroke="none" /><path d="M 112.16784306229584 117.11559508785304 l 11.211571983225872 15.770480058032977 a40.349609494660896,40.349609494660896 0 0,0 -0.5679782207544612,0.39649290949819743 l -10.939198671297651 -15.960617783336296" fill="#ffe415" stroke="none" /><path d="M 111.8722381534696 117.32195027204791 l 6.460784078495453 9.426477053396294 a32.42804447607495,32.42804447607495 0 0,0 -0.4618737367880707,0.31076926288096457 l -6.2980140536103795 -9.53599599033438" fill="#ff790b" stroke="none" /><path d="M 111.5731344415666 117.5232005979908 l 4.819580906469228 7.297459771915894 a29.745357581982198,29.745357581982198 0 0,0 -0.42849514486678614,0.2777453759711818 l -4.693600129345432 -7.37911898959097" fill="#ff5307" stroke="none" /><path d="M 110.96478420261333 117.91015095944535 l 5.263857776010229 8.59811608284309 a31.081458171321664,31.081458171321664 0 0,0 -0.45744098091360597,0.2746801656916963 l -5.115484038539186 -8.68721024907071" fill="#ff6609" stroke="none" /><line stroke="#e1ed5e" stroke-width="0.3" x1="143.1302829299769" x2="145.66735839644613" y1="173.24464959558577" y2="177.55315839532614" /><path d="M 143.63769802327073 174.10635135553383 a86.0,86.0 0 0,1 -40.68552437913181,11.842963189579606" fill="none" id="id102" stroke="none" /><text fill="#e1ed5e" style="font-size:6.75px; font-family:Arial;" text-anchor="middle"><textPath startOffset="21.407464694133747" xlink:href="#id102">June</textPath></text><path d="M 110.65571695917076 118.09573695890943 l 4.49389061136437 7.631608716424722 a29.85643858599599,29.85643858599599 0 0,0 -0.4438764290195895,0.2562721757813908 l -4.362221714484383 -7.707627789482284" fill="#ff5507" stroke="none" /><path d="M 110.34350942703117 118.27599006163325 l 7.925051084706028 14.002805902947323 a37.08990391055262,37.08990391055262 0 0,0 -0.5568003699301769,0.3088477792239609 l -7.683506526619756 -14.136786597604427" fill="#ffb911" stroke="none" /><path d="M 110.02825361518725 118.45085714620011 l 5.617688164988282 10.33591349017377 a32.76390785391511,32.76390785391511 0 0,0 -0.49646866274545526,0.2643415992033191 l -5.439430686456273 -10.430825557099658" fill="#ff7e0b" stroke="none" /><path d="M 109.71004243097381 118.62028667847754 l 10.636373455132423 20.396648558625504 a44.00338480965628,44.00338480965628 0 0,0 -0.6727756673734615,0.3435240494773073 l -10.28467056604538 -20.576230559775645" fill="#ecff1a" stroke="none" /><path d="M 109.3889696526874 118.78422872680471 l 4.281883875273784 8.566636070842744 a30.577149006442035,30.577149006442035 0 0,0 -0.4715283958344167,0.23064816699185198 l -4.134195230177298 -8.638877987931819" fill="#ff5f08" stroke="none" /><path d="M 109.06512990194946 118.94263497670748 l 15.029233495007803 31.405317646293742 a55.81625821239373,55.81625821239373 0 0,0 -0.8678399169432752,0.406192900935722 l -14.487904864193021 -31.658686778799996" fill="#64ff29" stroke="none" /><path d="M 108.73861861582097 119.09545874513695 l 7.532069316903513 16.458930779522372 a39.10051023037053,39.10051023037053 0 0,0 -0.612735898015304,0.27406897349626513 l -7.248420016032583 -16.585803503928485" fill="#ffd313" stroke="none" /><path d="M 108.4095320186766 119.2426549942271 l 4.769280859943464 10.91304795018846 a32.90968746374713,32.90968746374713 0 0,0 -0.5196046690515201,0.22178833561458747 l -4.581241115721513 -10.993310935462452" fill="#ff800b" stroke="none" /><path d="M 108.07796709384702 119.3841803445677 l 5.605329725684349 13.450750793005053 a35.57197372455656,35.57197372455656 0 0,0 -0.5656715205698343,0.23005368287720912 l -5.3736037439240745 -13.544991732461554" fill="#ffa50f" stroke="none" /><path d="M 107.74402155503746 119.51999308798841 l 7.3347330265311195 18.488318629096977 a40.89010392887631,40.89010392887631 0 0,0 -0.6546851014481203,0.2532462614779428 l -7.01627566258947 -18.611504778712963" fill="#ffeb16" stroke="none" /><path d="M 107.407793817531 119.65005319985036 l 6.16387359308088 16.35040701788341 a38.473670115975374,38.473670115975374 0 0,0 -0.6199955877584041,0.227670967658608 l -5.882288853668349 -16.45380883455074" fill="#ffcb12" stroke="none" /><path d="M 107.06938296918513 119.77432235084164 l 13.891293105108554 38.856419142631864 a62.26486802014426,62.26486802014426 0 0,0 -1.0095632459636967,0.351178503057892 l -13.222224087099836 -39.08915607825835" fill="#31ff40" stroke="none" /><path d="M 106.72888874123015 119.89276391827305 l 1.4486222989753041 4.282594423606636 a25.520964671637586,25.520964671637586 0 0,0 -0.41620714825387295,0.1368155565554561 l -1.374892413073697 -4.306830901564111" fill="#ff1602" stroke="none" /><path d="M 106.38641147887787 120.00534299687104 l 9.56210594825014 29.953160691233112 a52.44241888850782,52.44241888850782 0 0,0 -0.8599541990060822,0.266416009080919 l -9.046511116372434 -30.112893288120674" fill="#89ff24" stroke="none" /><path d="M 106.0420521117495 120.11202640906438 l 5.030161656697962 16.74377218373233 a38.48303272413693,38.48303272413693 0 0,0 -0.6343103081262371,0.18463848615806353 l -4.741991336190119 -16.82765436419291" fill="#ffcb13" stroke="none" /><path d="M 105.69591212413111 120.21278271476187 l 2.4862433226528897 8.822800450854304 a30.166417711136177,30.166417711136177 0 0,0 -0.4996400546241041,0.13617911868843385 l -2.3344218670940906 -8.864180063686879" fill="#ff5908" stroke="none" /><path d="M 105.3480935250658 120.30758222061773 l 4.141048008839908 15.724233790022778 a37.260375361436495,37.260375361436495 0 0,0 -0.6199322820819397,0.15758436187889524 l -3.8705104335325706 -15.793003383736943" fill="#ffbb11" stroke="none" /><path d="M 104.9986988182912 120.39639698878246 l 7.988403840578959 32.59541371905697 a54.56002966978224,54.56002966978224 0 0,0 -0.9115885762916565,0.21513242187782583 l -7.427683110547424 -32.72774228458102" fill="#72ff27" stroke="none" /><path d="M 104.64783097203109 120.47920084513623 l 4.091790195294843 18.029182586427744 a39.487676212468145,39.487676212468145 0 0,0 -0.662335411543134,0.14435292021519136 l -3.7816923671325737 -18.096766964776656" fill="#ffd814" stroke="none" /><path d="M 104.29559338865022 120.5559693870025 l 5.487655953036018 26.260420289094533 a47.82767305635693,47.82767305635693 0 0,0 -0.8051071673475452,0.16104398181078106 l -5.036052300157515 -26.350753667568174" fill="#beff1f" stroke="none" /><path d="M 103.94208987418118 120.62667999033965 l 1.4183904568129821 7.421618224802665 a28.555941275757853,28.555941275757853 0 0,0 -0.4822762152984297,0.0878867918933798 l -1.2907795079634954 -7.444873190627408" fill="#ff4206" stroke="none" /><path d="M 103.58742460773223 120.69131181640829 l 6.350013766521744 36.62519195480573 a58.171593462769145,58.171593462769145 0 0,0 -0.9853783084741818,0.16214362567899818 l -5.7203579549944905 -36.728801578980395" fill="#4bff2c" stroke="none" /><path d="M 103.2317021107853 120.74984581791261 l 1.8852541541760914 12.1046840598892 a33.250614654603005,33.250614654603005 0 0,0 -0.5647456890671463,0.08299816820698767 l -1.6771833595012597 -12.13526330139507" fill="#ff850c" stroke="none" /><path d="M 102.875027216393 120.80226474461374 l 2.956763837138513 21.393670215276256 a42.59702705625495,42.59702705625495 0 0,0 -0.7252086616252307,0.09389278043060198 l -2.589077353622507 -21.441274591907252" fill="#feff18" stroke="none" /><path d="M 102.51750503828377 120.84855314841334 l 2.713831405432895 22.474417104075528 a43.6376744623885,43.6376744623885 0 0,0 -0.7444672427383544,0.08341910735890314 l -2.3276282610937415 -22.517691971941403" fill="#f1ff19" stroke="none" /><path d="M 102.15924093988457 120.88869738790638 l 1.6137700878422818 15.611761705664328 a36.6949468763313,36.6949468763313 0 0,0 -0.6271348788323321,0.05939032505509733 l -1.3455356456249343 -15.637163786224608" fill="#ffb410" stroke="none" /><path d="M 101.80034050326958 120.92268563240118 l 3.341300689482165 38.830978807842 a59.97446863618038,59.97446863618038 0 0,0 -1.0265087404630193,0.07945826860684084 l -2.67422295424391 -38.882614843443896" fill="#39ff2e" stroke="none" /><path d="M 101.44090949804482 120.95050786540614 l 0.9648280944425184 14.0283887425344 a35.06152850736688,35.06152850736688 0 0,0 -0.6008137645830739,0.03614346412512766 l -0.7238699777269794 -14.042884184484219" fill="#ff9e0e" stroke="none" /><path d="M 101.08105385017728 120.97215588758144 l 0.9233211663005557 17.912183958998217 a38.93596543699646,38.93596543699646 0 0,0 -0.6677967493591709,0.028678065770045474 l -0.6156986563405552 -17.925394593194095" fill="#ffd113" stroke="none" /><path d="M 100.72087961077811 120.9876233191556 l 0.837038595036559 24.36946540527119 a45.38383640341056,45.38383640341056 0 0,0 -0.7788443045800316,0.020060266535036637 l -0.4185809763857835 -24.38024338915627" fill="#dbff1b" stroke="none" /><line stroke="#e1ed5e" stroke-width="0.3" x1="101.45913802915013" x2="101.54496967792366" y1="184.9874750549273" y2="189.98673829345242" /><path d="M 101.47630435890484 185.9873277026323 a86.0,86.0 0 0,1 -42.54439059252881,-10.42667462771756" fill="none" id="id103" stroke="none" /><text fill="#e1ed5e" style="font-size:6.75px; font-family:Arial;" text-anchor="middle"><textPath startOffset="22.145653131862474" xlink:href="#id103">July</textPath></text><path d="M 100.36049292484886 120.99690560180557 l 0.10490865659982598 6.110403305036683 a27.11130381967979,27.11130381967979 0 0,0 -0.4654015814486775,0.003994912837542545 l -7.484188661387849e-16 -6.11130381967979" fill="#ff2d04" stroke="none" /><path d="M 100.0 121.0 l 2.195523568026612e-15 17.92781044751206 a38.92781044751206,38.92781044751206 0 0,0 -0.6682476307707298,-0.00573610220771837 l 0.3077547059218755 -17.925168743498777" fill="#ffd113" stroke="none" /><path d="M 99.63950707515114 120.99690560180557 l -0.35059126095742255 20.42018332045629 a41.423192724774964,41.423192724774964 0 0,0 -0.710874626032882,-0.018309608720705715 l 0.7010792010610484 -20.41115599438554" fill="#fff116" stroke="none" /><path d="M 99.27912038922189 120.98762331915562 l -1.7373762579105896 50.58181410528952 a71.61164287437839,71.61164287437839 0 0,0 -1.2282223335430287,-0.052745151717783205 l 2.605424352054457 -50.5445363851459" fill="#3dffae" stroke="none" /><path d="M 98.91894614982273 120.97215588758144 l -0.6490850974358686 12.592077485778221 a33.60879561542482,33.60879561542482 0 0,0 -0.5759197581065187,-0.03464590251276759 l 0.8651492076748337 -12.579079605440763" fill="#ff8a0c" stroke="none" /><path d="M 98.55909050195518 120.95050786540614 l -1.4140957286680718 20.560641543481665 a41.6092126829091,41.6092126829091 0 0,0 -0.7121733876775721,-0.05512672430553647 l 1.76683811112088 -20.533337052181075" fill="#fff417" stroke="none" /><path d="M 98.19965949673042 120.92268563240118 l -1.5321365455674951 17.80574909613177 a38.87154563177625,38.87154563177625 0 0,0 -0.6643340332925618,-0.06291312365829618 l 1.8375701422450723 -17.77682421696829" fill="#ffd013" stroke="none" /><path d="M 97.84075906011543 120.88869738790638 l -1.2044044839354708 11.651520834405137 a32.713604394698535,32.713604394698535 0 0,0 -0.5581004754216572,-0.06253632235718994 l 1.4042408609579273 -11.629128751540977" fill="#ff7d0b" stroke="none" /><path d="M 97.48249496171623 120.84855314841334 l -2.258609638981959 18.704527849499488 a39.84040019675814,39.84040019675814 0 0,0 -0.678277459766067,-0.08781659675453916 l 2.5793649206388203 -18.662999656544553" fill="#ffdd14" stroke="none" /><path d="M 97.12497278360702 120.80226474461374 l -3.4134102053336863 24.697735857402776 a45.93249938758477,45.93249938758477 0 0,0 -0.7801413984877084,-0.11465391993318735 l 3.8368767094290797 -24.635500864170705" fill="#d5ff1c" stroke="none" /><path d="M 96.76829788921471 120.74984581791261 l -4.453560113790757 28.59505069899779 a49.93978441808788,49.93978441808788 0 0,0 -0.8459383242949492,-0.13919882934544542 l 4.943775941138769 -28.51438587115668" fill="#a5ff21" stroke="none" /><path d="M 96.41257539226777 120.69131181640829 l -2.6583781798259714 15.332818904725757 a36.561565156246026,36.561565156246026 0 0,0 -0.6174817737109706,-0.11252574857026305 l 2.9211946870879992 -15.284924982224128" fill="#ffb210" stroke="none" /><path d="M 96.05791012581884 120.62667999033965 l -5.848773678289776 30.603255341321674 a52.15714028960278,52.15714028960278 0 0,0 -0.8779872570014021,-0.17562204086750421 l 6.373257420822136 -30.498343903791305" fill="#8cff24" stroke="none" /><path d="M 95.70440661134978 120.55596938700252 l -5.378432643121191 25.73774721186884 a47.29370968955605,47.29370968955605 0 0,0 -0.7932677147697788,-0.17288900630068735 l 5.819462774510106 -25.641626747434437" fill="#c4ff1e" stroke="none" /><path d="M 95.35216902796893 120.47920084513623 l -4.279212541943217 18.855000027504264 a40.334494718412216,40.334494718412216 0 0,0 -0.6739084424685315,-0.15904055746501913 l 4.602253138151636 -18.778763326393015" fill="#ffe315" stroke="none" /><path d="M 95.00130118170881 120.39639698878247 l -4.0541962487903245 16.54250419292678 a38.032056605022944,38.032056605022944 0 0,0 -0.6327713935975139,-0.1608480138192032 l 4.337572935613217 -16.470470947272318" fill="#ffc512" stroke="none" /><path d="M 94.6519064749342 120.30758222061772 l -8.749037887770982 33.22152191701296 a55.35426003342561,55.35426003342561 0 0,0 -0.9168210084344139,-0.2498836427707279 l 9.31804029714009 -33.066437780098084" fill="#69ff28" stroke="none" /><path d="M 94.30408787586889 120.21278271476187 l -6.3120253268015025 22.39915111755255 a44.27151981528364,44.27151981528364 0 0,0 -0.7297211105099871,-0.21241118020004482 l 6.695606449693096 -22.287496243049986" fill="#e9ff1a" stroke="none" /><path d="M 93.95794788825049 120.11202640906438 l -12.474885335585256 41.52483604559523 a64.35821459365647,64.35821459365647 0 0,0 -1.0553501927134825,-0.3269501874058662 l 13.185876161170372 -41.304569270382714" fill="#34ff5a" stroke="none" /><path d="M 93.61358852112213 120.00534299687104 l -4.647179885575186 14.557224802468653 a36.28100372483768,36.28100372483768 0 0,0 -0.5916866110035442,-0.1944991414262881 l 4.896389234226474 -14.475304739640343" fill="#ffae10" stroke="none" /><path d="M 93.27111125876986 119.89276391827306 l -6.013260954324945 17.77713752501238 a39.76661732673239,39.76661732673239 0 0,0 -0.6447763650022287,-0.22428668988682063 l 6.317543091372196 -17.67129240255697" fill="#ffdc14" stroke="none" /><path d="M 92.93061703081489 119.77432235084164 l -6.296082721549615 17.61126392871565 a39.702868090308414,39.702868090308414 0 0,0 -0.6398038701050421,-0.23494484330959173 l 6.597475743308776 -17.50058823639734" fill="#ffdb14" stroke="none" /><path d="M 92.59220618246901 119.65005319985036 l -5.181577788466635 13.74475069238203 a35.689006772878386,35.689006772878386 0 0,0 -0.5714111429094308,-0.22103410538679955 l 5.416761193869594 -13.65377669885719" fill="#ffa60f" stroke="none" /><path d="M 92.25597844496254 119.51999308798841 l -2.3599887278248812 5.94871325285837 a27.39974500743532,27.39974500743532 0 0,0 -0.4357153623691674,-0.17720164468988844 l 2.4617585513844893 -5.907324351589191" fill="#ff3104" stroke="none" /><path d="M 91.92203290615298 119.3841803445677 l -12.733287228404592 30.555253957716793 a54.10226801990491,54.10226801990491 0 0,0 -0.8542102109109028,-0.36461154455894623 l 13.255932514485927 -30.332167763498443" fill="#77ff27" stroke="none" /><path d="M 91.59046798132341 119.24265499422711 l -5.0693582855054125 11.599683824672377 a33.65903069982802,33.65903069982802 0 0,0 -0.5274636131516245,-0.2359277650964155 l 5.267735301512673 -11.510952308666106" fill="#ff8a0c" stroke="none" /><path d="M 91.26138138417905 119.09545874513695 l -12.837922549623134 28.053177647067006 a51.851143114770025,51.851143114770025 0 0,0 -0.8061896869350953,-0.3773374803892905 l 13.317600950429718 -27.828663935107187" fill="#90ff24" stroke="none" /><path d="M 90.93487009805054 118.94263497670748 l -5.313769992728862 11.103735568179568 a33.30971547614654,33.30971547614654 0 0,0 -0.5136671408069851,-0.2512603387573776 l 5.503597382797917 -11.010881479324969" fill="#ff860c" stroke="none" /><path d="M 90.6110303473126 118.78422872680471 l -3.3662881281494696 6.73483124331835 a28.52926607563427,28.52926607563427 0 0,0 -0.4361890819703018,-0.22272125322429268 l 3.481404431833354 -6.676052038421221" fill="#ff4206" stroke="none" /><path d="M 90.28995756902619 118.62028667847754 l -7.269934590712867 13.941058154498498 a36.722755846872154,36.722755846872154 0 0,0 -0.5564567440768642,-0.2962818736701758 l 7.508180150576293 -13.814205813105747" fill="#ffb410" stroke="none" /><path d="M 89.97174638481275 118.45085714620012 l -10.245935683986726 18.851367634748765 a42.45584441919837,42.45584441919837 0 0,0 -0.6373548428520277,-0.35352998744805036 l 10.568034714994857 -18.67270473186757" fill="#fffe18" stroke="none" /><line stroke="#e1ed5e" stroke-width="0.3" x1="58.13341422392154" x2="55.67067388415222" y1="173.97424548756322" y2="178.32567169271397" /><path d="M 57.64086615596768 174.84453072859336 a86.0,86.0 0 0,1 -31.369924170532247,-30.572349798747897" fill="none" id="id104" stroke="none" /><text fill="#e1ed5e" style="font-size:6.75px; font-family:Arial;" text-anchor="middle"><textPath startOffset="22.145653131862474" xlink:href="#id104">August</textPath></text><path d="M 89.65649057296885 118.27599006163327 l -15.316802028043117 27.063321555928354 a52.097070569522174,52.097070569522174 0 0,0 -0.7745284682958627,-0.4471742196656483 l 15.77912296419938 -26.796400438986534" fill="#8dff24" stroke="none" /><path d="M 89.34428304082925 118.09573695890944 l -8.18719350499442 13.903644462943808 a37.1351004595624,37.1351004595624 0 0,0 -0.5465353873333318,-0.3281787968565215 l 8.424661648885179 -13.761051665551367" fill="#ffba11" stroke="none" /><path d="M 89.03521579738668 117.91015095944536 l -1.7669254620355714 2.8861399526314804 a24.384055173097103,24.384055173097103 0 0,0 -0.35511994083351756,-0.22162110763737694 l 1.8162095316588016 -2.855383048152556" fill="#ff0500" stroke="none" /><path d="M 88.72937992617639 117.7192867562869 l -8.655682093083309 13.608169920909102 a37.127712828943174,37.127712828943174 0 0,0 -0.5348412653424313,-0.34667764642611865 l 8.88800899068275 -13.457578432779089" fill="#ffb911" stroke="none" /><path d="M 88.4268655584334 117.5232005979908 l -9.687066841182236 14.667453862326632 a38.57764110422706,38.57764110422706 0 0,0 -0.5494626500350401,-0.36970299268252843 l 9.937425779314282 -14.499001195586981" fill="#ffcd13" stroke="none" /><path d="M 88.1277618465304 117.32195027204791 l -3.741155704791345 5.458457979083365 a27.61747757963045,27.61747757963045 0 0,0 -0.38875533056843986,-0.27138141299725527 l 3.83430612653355 -5.39343175028098" fill="#ff3505" stroke="none" /><path d="M 87.83215693770417 117.11559508785305 l -8.991363503014744 12.647478786290648 a36.51783932424284,36.51783932424284 0 0,0 -0.5078048829900804,-0.3676115744889179 l 9.20714939637878 -12.491266440428666" fill="#ffb110" stroke="none" /><path d="M 87.54013794807813 116.9041958592261 l -16.992840426523028 23.054051608076485 a49.63993577697285,49.63993577697285 0 0,0 -0.6815965291405541,-0.5114827423796768 l 17.386089944574348 -22.75894983843279" fill="#a9ff21" stroke="none" /><path d="M 87.2517909369889 116.68781488649013 l -9.496737363801438 12.431534058580928 a36.64388249785455,36.64388249785455 0 0,0 -0.496594502325934,-0.3861548886336397 l 9.7087418107626 -12.266678118326494" fill="#ffb310" stroke="none" /><path d="M 86.96720088162412 116.46651593811092 l -15.617077865358874 19.731667713197883 a46.16409807238753,46.16409807238753 0 0,0 -0.6171683319555686,-0.497147121169465 l 15.953496967669706 -19.460672298235007" fill="#d2ff1c" stroke="none" /><path d="M 86.68645165197938 116.24036423190432 l -9.79414734488984 11.947267254683304 a36.448705999799486,36.448705999799486 0 0,0 -0.4804732051110433,-0.40082783632533364 l 9.997794884162776 -11.777377234446101" fill="#ffb010" stroke="none" /><path d="M 86.13680546590413 115.77377054828092 l -12.464147218599267 14.181911522819233 a39.88071980428683,39.88071980428683 0 0,0 -0.5103497222318896,-0.45635786859230704 l 12.705761967654528 -13.965858124343542" fill="#ffde14" stroke="none" /><path d="M 85.86807049272751 115.53346607816431 l -4.1242012861268345 4.5332196671802665 a27.12854932258852,27.12854932258852 0 0,0 -0.3417812618189316,-0.3163476334416403 l 4.201412319259734 -4.461754287606248" fill="#ff2d04" stroke="none" /><path d="M 85.60350026404147 115.28858382429668 l -10.450997006421265 11.098596652702742 a36.24474290001674,36.24474290001674 0 0,0 -0.4493097056958168,-0.430428534259859 l 10.639979197982395 -10.917555988137302" fill="#ffae10" stroke="none" /><path d="M 85.34317274990678 115.03919595460226 l -43.97048175027963 45.11758786380679 a84.0,84.0 0 0,0 -1.02403231948015,-1.0152799590853623 l 44.73850598988974 -44.35612789449277" fill="#4dd2ff" stroke="none" /><path d="M 85.08716467003676 114.78537596483092 l -6.6072858152837535 6.550813626284805 a30.304267032451754,30.304267032451754 0 0,0 -0.3630930269912025,-0.3725654324428006 l 6.718765643425765 -6.436425501774267" fill="#ff5b08" stroke="none" /><path d="M 84.83555147118756 114.52719865689866 l -4.633696818298948 4.438976733467778 a27.416826368554947,27.416826368554947 0 0,0 -0.3226623187835442,-0.34265620103077793 l 4.709214970818746 -4.35877907249251" fill="#ff3204" stroke="none" /><path d="M 84.58840730492382 114.26474011684316 l -6.832423698772126 6.323989373420359 a30.30993314662767,30.30993314662767 0 0,0 -0.3501552127952756,-0.38488191702688335 l 6.939976612409281 -6.205769880835801" fill="#ff5b08" stroke="none" /><path d="M 84.3458050057657 113.99807769240083 l -4.55900238233298 4.076688042485893 a27.1158718199342,27.1158718199342 0 0,0 -0.30729892782196777,-0.3496497697752732 l 4.62831237411354 -3.9978259948993196" fill="#ff2d04" stroke="none" /><path d="M 84.1078160697243 113.72728997021213 l -9.458503861479072 8.17003035961224 a33.498507565889625,33.498507565889625 0 0,0 -0.37216113950096114,-0.4384048865462568 l 9.597359564487144 -8.006458690616428" fill="#ff880c" stroke="none" /><path d="M 83.8745106332314 113.45245675266167 l -4.793644712572912 3.999028911110491 a27.24269668190565,27.24269668190565 0 0,0 -0.2964954751984171,-0.3616762702521557 l 4.86158700700996 -3.91615035915984" fill="#ff2f04" stroke="none" /><path d="M 83.64595745247003 113.17365903436017 l -12.030700637807975 9.691080825204224 a36.44845640823685,36.44845640823685 0 0,0 -0.38832110713429885,-0.49063103341446257 l 12.195288175583835 -9.483129847875082" fill="#ffb010" stroke="none" /><path d="M 83.4222238831116 112.89097897827486 l -6.385755671225946 4.965602233843174 a29.0891953269372,29.0891953269372 0 0,0 -0.3031482322692803,-0.396830767229472 l 6.470055880849521 -4.855250553372832" fill="#ff4a06" stroke="none" /><path d="M 83.20337586046588 112.60449989151573 l -5.444411364266188 4.085587787175642 a27.80688200794384,27.80688200794384 0 0,0 -0.28323028110332904,-0.3842562722671433 l 5.513743664953348 -3.9915252056396193" fill="#ff3705" stroke="none" /><path d="M 82.98947788004972 112.3143062007846 l -10.453102954279675 7.567240418585241 a33.90466926834782,33.90466926834782 0 0,0 -0.3372463571187193,-0.4743792358058575 l 10.581464409928355 -7.38668395606988" fill="#ff8e0d" stroke="none" /><path d="M 82.78059297857968 112.02048342749411 l -13.010007516586214 9.081995654679577 a36.86640919216596,36.86640919216596 0 0,0 -0.35779774095853645,-0.5220375969735398 l 13.163994994360074 -8.857323322635986" fill="#ffb610" stroke="none" /><path d="M 82.576782715395 111.72311816256416 l -12.766237680794015 8.589694450723842 a36.38699695454967,36.38699695454967 0 0,0 -0.3442479540921412,-0.5212352786068499 l 12.911810073806883 -8.369279293777932" fill="#ffb010" stroke="none" /><path d="M 82.37810715431573 111.42229804090323 l -14.48931113791975 9.391796424708735 a38.26690410393876,38.26690410393876 0 0,0 -0.35256994954098936,-0.5542985209905132 l 14.648398779086628 -9.141684229039551" fill="#ffc912" stroke="none" /><path d="M 82.18462484594161 111.11811171558189 l -8.01764874146286 5.003605797409892 a30.45086040090292,30.45086040090292 0 0,0 -0.27294416368315566,-0.44583377882619707 l 8.102360869601421 -4.865234902459138" fill="#ff5d08" stroke="none" /><path d="M 81.99639281039703 110.81064883170644 l -14.232951906920988 8.546478674181884 a37.60178357023641,37.60178357023641 0 0,0 -0.3275407029050817,-0.5562357207701141 l 14.37756631995584 -8.30089178511821" fill="#ffc011" stroke="none" /><line stroke="#e1ed5e" stroke-width="0.3" x1="26.387840678322732" x2="22.057713659400548" y1="142.50000000000003" y2="145.00000000000006" /><path d="M 25.521815274538298 143.00000000000003 a86.0,86.0 0 0,1 -11.493303480769221,-40.785679425670985" fill="none" id="id105" stroke="none" /><text fill="#e1ed5e" style="font-size:6.75px; font-family:Arial;" text-anchor="middle"><textPath startOffset="21.40746469413373" xlink:href="#id105">September</textPath></text><path d="M 81.81346652052679 110.50000000000001 l -26.821255872121572 15.48525929777324 a51.97051859554645,51.97051859554645 0 0,0 -0.439439528814527,-0.7764475411328766 l 27.08312876595748 -15.022554986541241" fill="#8eff24" stroke="none" /><path d="M 81.63589988554817 110.18625677009913 l -16.948820945669546 9.401225272517408 a40.38157805940958,40.38157805940958 0 0,0 -0.3310417358475682,-0.6090795079517453 l 17.107708031132443 -9.108890931091077" fill="#ffe415" stroke="none" /><path d="M 81.4637452351635 109.86951160357371 l -13.665908120575853 7.276326338870612 a36.48231151184355,36.48231151184355 0 0,0 -0.2895860454365067,-0.5553194254758397 l 13.78880223498731 -7.040660670290269" fill="#ffb110" stroke="none" /><path d="M 81.29705330413844 109.54985784667822 l -15.17107418168987 7.746458575354156 a38.0343509499486,38.0343509499486 0 0,0 -0.2919228565260938,-0.5840412644212539 l 15.3018169514277 -7.484885454769149" fill="#ffc512" stroke="none" /><path d="M 81.1358732173502 109.22738970284198 l -13.751915753823218 6.726751112481341 a36.308963630158644,36.308963630158644 0 0,0 -0.2690679934681836,-0.5622486207381144 l 13.865363005251313 -6.489689989678121" fill="#ffaf10" stroke="none" /><path d="M 80.9802524753101 108.90220220490708 l -12.08276416184088 5.655343722269826 a34.34076843392775,34.34076843392775 0 0,0 -0.24531660732877472,-0.5360610596121685 l 12.17806523402471 -5.447093680442969" fill="#ff940d" stroke="none" /><path d="M 80.83023694016515 108.57439118712176 l -17.395893231990456 7.780961775840292 a40.05676959759705,40.05676959759705 0 0,0 -0.2753733488450393,-0.6301081123969472 l 17.526900462852463 -7.4811915936674955" fill="#ffe015" stroke="none" /><path d="M 80.68587082218212 108.24405325689762 l -29.141106684922214 12.438605606477385 a52.68474409326212,52.68474409326212 0 0,0 -0.3479053520449765,-0.8348461944115767 l 29.350337881503673 -11.936526902624527" fill="#86ff25" stroke="none" /><path d="M 80.5471966667186 107.91128576633889 l -12.022877751581015 4.8895997145965495 a33.9791284298463,33.9791284298463 0 0,0 -0.21510620747428566,-0.5422081606100533 l 12.105042634021427 -4.6824905367729315" fill="#ff8f0d" stroke="none" /><path d="M 80.41425534168474 107.57618678355246 l -13.505985436823211 5.224405308575783 a35.48123107501415,35.48123107501415 0 0,0 -0.21486304253483499,-0.5699497475887367 l 13.593679163172482 -4.991787280792901" fill="#ffa30f" stroke="none" /><path d="M 80.28708602549918 107.23885506374661 l -5.675785954852909 2.084227220449241 a27.04636662068776,27.04636662068776 0 0,0 -0.15630202161980172,-0.4372045726013981 l 5.710728146516654 -1.9864876914669212" fill="#ff2c04" stroke="none" /><path d="M 80.16572619554312 106.89939002012753 l -4.141398576570656 1.4405934036335313 a25.384802335865768,25.384802335865768 0 0,0 -0.1396340352522057,-0.4128032138810738 l 4.165518033395228 -1.3692885152782959" fill="#ff1402" stroke="none" /><path d="M 80.05021161711548 106.5578916946017 l -29.764966542830877 9.78433570998635 a52.33187607822991,52.33187607822991 0 0,0 -0.2732104813212483,-0.8558279414423258 l 29.928541739929383 -9.271938734852633" fill="#8aff24" stroke="none" /><path d="M 79.94057633289273 106.21446072829308 l -14.55534339241124 4.509282589573224 a36.237836156870756,36.237836156870756 0 0,0 -0.1789867486331505,-0.5957886739146631 l 14.630606461048021 -4.258756312067837" fill="#ffae10" stroke="none" /><path d="M 79.73907114497094 105.5222062557868 l -30.305276043937987 8.259837747351895 a52.410741406593075,52.410741406593075 0 0,0 -0.2291360657118195,-0.870066963553045 l 30.44260159045454 -7.738390279426048" fill="#89ff24" stroke="none" /><path d="M 79.64726062577567 105.17358676015961 l -30.53896960313265 7.762886651404642 a52.51017412810688,52.51017412810688 0 0,0 -0.2145727583329991,-0.8755300771319565 l 30.66772988798194 -7.237500749664585" fill="#88ff25" stroke="none" /><path d="M 79.56144815229197 104.8234425847677 l -19.10739907606783 4.509294155201696 a40.6322803879288,40.6322803879288 0 0,0 -0.15438164976667465,-0.6802340341980204 l 19.18199158739217 -4.180625787064649" fill="#ffe715" stroke="none" /><path d="M 79.48165901384964 104.47187691870673 l -12.517762471016383 2.72818806870282 a33.8116114294416,33.8116114294416 0 0,0 -0.11873074416781079,-0.5681695918561988 l 12.56275092600856 -2.5129020255612122" fill="#ff8d0c" stroke="none" /><path d="M 79.407916724674 104.11899336999214 l -60.46463975844796 12.094621362688104 a82.6624077297155,82.6624077297155 0 0,0 -0.26638436285494954,-1.3938355497744082 l 60.663350413585064 -11.054883247880381" fill="#4bdfff" stroke="none" /><path d="M 79.34024301695615 103.76489593502545 l -4.217028800067559 0.7684831239927044 a25.286478532835645,25.286478532835645 0 0,0 -0.07415582835349438,-0.4277111117984329 l 4.229599445913288 -0.6959789792736788" fill="#ff1202" stroke="none" /><path d="M 79.2786578344484 103.40968896794605 l -7.836744137053455 1.2895332655212544 a28.942131622714875,28.942131622714875 0 0,0 -0.076460298893623,-0.4909299678145971 l 7.857725928085346 -1.1548151157752073" fill="#ff4806" stroke="none" /><path d="M 79.22317932658666 103.0534771498775 l -9.210336337146636 1.3536022662096427 a30.309271428981518,30.309271428981518 0 0,0 -0.07123470210650795,-0.5154188189155428 l 9.232215555808356 -1.1952951390940143" fill="#ff5b08" stroke="none" /><path d="M 79.17382384314188 102.69636545807758 l -7.68128937021878 0.9944966937454832 a28.745400574722183,28.745400574722183 0 0,0 -0.05915791630808691,-0.48991241071727726 l 7.697229372786528 -0.8624906061048068" fill="#ff4506" stroke="none" /><path d="M 79.13060592940153 102.33845913500099 l -8.0777672664106 0.9051306708114734 a29.12831997042059,29.12831997042059 0 0,0 -0.051415101539618986,-0.4973944673756477 l 8.092114760431885 -0.7663316811528943" fill="#ff4b06" stroke="none" /><path d="M 79.0935383218832 101.97986365728391 l -16.982937800837995 1.6083018668332152 a38.058921749102176,38.058921749102176 0 0,0 -0.05601254263309098,-0.6509506500882932 l 17.008043966168827 -1.31653016936926" fill="#ffc612" stroke="none" /><path d="M 79.06263194458094 101.62068470465958 l -3.173308101002095 0.24563411642063152 a24.182800719969013,24.182800719969013 0 0,0 -0.028485080845077206,-0.41416682387152076 l 3.177057143012238 -0.19112386839476744" fill="#ff0100" stroke="none" /><path d="M 79.03789590574601 101.26102812881392 l -4.798278346800212 0.28865251016726 a25.806952814933556,25.806952814933556 0 0,0 -0.022806477391161643,-0.4424395685891361 l 4.802526413647946 -0.20624114820139314" fill="#ff1a02" stroke="none" /><path d="M 79.01933749520258 100.90099992219065 l -12.518449756245817 0.5375960961073539 a33.52998778380094,33.52998778380094 0 0,0 -0.019759242562685478,-0.5752687879878604 l 12.52583368580535 -0.32262104355537363" fill="#ff890c" stroke="none" /><line stroke="#e1ed5e" stroke-width="0.3" x1="15.003131293944662" x2="10.003315487706104" y1="100.72959589197737" y2="100.7725132973878" /><path d="M 14.003168132696942 100.73817937305945 a86.0,86.0 0 0,1 10.791469493833604,-42.45332614584628" fill="none" id="id106" stroke="none" /><text fill="#e1ed5e" style="font-size:6.75px; font-family:Arial;" text-anchor="middle"><textPath startOffset="22.145653131862435" xlink:href="#id106">October</textPath></text><path d="M 79.00077361379809 100.18025310272382 l -13.148944447990935 0.11286787383038513 a34.14942885654334,34.14942885654334 0 0,0 0.0,-0.5862419531084005 l 13.148944447990935 0.1128678738303803" fill="#ff910d" stroke="none" /><path d="M 79.00077361379809 99.81974689727619 l -9.745369245287526 -0.08365227420027953 a30.745728265756995,30.745728265756995 0 0,0 0.009060573448641165,-0.5277329797223613 l 9.742497240240219 0.2509321698916932" fill="#ff6209" stroke="none" /><path d="M 79.00696218219943 99.45929381324524 l -4.140499429499253 -0.10664457794128637 a25.14187259481601,25.14187259481601 0 0,0 0.014816121087912167,-0.4313551996685131 l 4.1380586214144905 0.17770604217393804" fill="#ff1001" stroke="none" /><path d="M 79.03789590574601 98.7389718711861 l -9.287441581435774 -0.5587094227872291 a30.30423169034894,30.30423169034894 0 0,0 0.03569555485501796,-0.5190055334945186 l 9.276482065415692 0.7180583804360727" fill="#ff5b08" stroke="none" /><path d="M 79.06263194458094 98.37931529534042 l -15.806630726194621 -1.2235331863268968 a36.85391460719791,36.85391460719791 0 0,0 0.054239094757867354,-0.630340497558069 l 15.783298008739012 1.4946947312606464" fill="#ffb610" stroke="none" /><path d="M 79.0935383218832 98.0201363427161 l -15.432118982009095 -1.461437712309866 a36.50116435826183,36.50116435826183 0 0,0 0.06442908735211114,-0.6232929747752771 l 15.404757502175322 1.726135209368056" fill="#ffb110" stroke="none" /><path d="M 79.13060592940154 97.66154086499901 l -15.491716651283491 -1.7358791634050543 a36.58866771964808,36.58866771964808 0 0,0 0.07529932787530519,-0.6235864538004477 l 15.459635237148518 2.0015592941289384" fill="#ffb210" stroke="none" /><path d="M 79.17382384314186 97.30363454192245 l -9.264513580507758 -1.1994767650203213 a30.341839026296498,30.341839026296498 0 0,0 0.07131124446413926,-0.5159726412858083 l 9.242557819488411 1.3583377145061966" fill="#ff5c08" stroke="none" /><path d="M 79.22317932658666 96.9465228501225 l -8.19458748422376 -1.2043221640627728 a29.282611660065292,29.282611660065292 0 0,0 0.07735979053309483,-0.4967053493917704 l 8.172706201552398 1.344815695385993" fill="#ff4d07" stroke="none" /><path d="M 79.2786578344484 96.59031103205396 l -9.572146445181446 -1.575093054925684 a30.70087138867818,30.70087138867818 0 0,0 0.0900342270294851,-0.5192934958413014 l 9.543697400659727 1.739179583687578" fill="#ff6109" stroke="none" /><path d="M 79.34024301695615 96.23510406497455 l -12.735259261128423 -2.3207884711843043 a33.944994692008926,33.944994692008926 0 0,0 0.10938969758431753,-0.5723731214475293 l 12.693543271261946 2.539064157665148" fill="#ff8e0d" stroke="none" /><path d="M 79.48165901384962 95.52812308129327 l -13.070985840069 -2.8487605271011556 a34.377821473321205,34.377821473321205 0 0,0 0.1306179408038483,-0.5755267478092398 l 13.02015703770749 3.0727216088494034" fill="#ff940d" stroke="none" /><path d="M 79.56144815229197 95.17655741523228 l -4.519539039506495 -1.0665989072567494 a25.64369102746776,25.64369102746776 0 0,0 0.10478802649137234,-0.42757090708651957 l 4.500563486498824 1.1440256389513865" fill="#ff1702" stroke="none" /><path d="M 79.73907114497095 94.47779374421319 l -3.96069908040291 -1.0795061468102993 a25.105176089585644,25.105176089585644 0 0,0 0.116896284512992,-0.41482367486217886 l 3.941584303815336 1.1473377455754914" fill="#ff0f01" stroke="none" /><path d="M 79.94057633289273 93.78553927170692 l -6.362065058274558 -1.9709840178670681 a27.660379103655096,27.660379103655096 0 0,0 0.14440731070181156,-0.4523538440014622 l 6.327293031795489 2.079906895559922" fill="#ff3505" stroke="none" /><path d="M 80.05021161711548 93.44210830539832 l -8.719412205776528 -2.866243981571633 a30.178425996658703,30.178425996658703 0 0,0 0.16600229317207674,-0.49075628308877983 l 8.668924491032087 3.0155019391345745" fill="#ff5a08" stroke="none" /><path d="M 80.16572619554312 93.10060997987247 l -16.048305627049068 -5.582433759603461 a37.99151788921564,37.99151788921564 0 0,0 0.2195544833717952,-0.6141329655913138 l 15.95011097363333 5.857101681575696" fill="#ffc512" stroke="none" /><path d="M 80.28708602549916 92.7611449362534 l -8.640390390527893 -3.1728710332792947 a30.20453457240232,30.20453457240232 0 0,0 0.18290904796550625,-0.48518798063066104 l 8.58465065874795 3.320727294104101" fill="#ff5a08" stroke="none" /><path d="M 80.41425534168474 92.42381321644754 l -9.236599407224269 -3.5729150754689947 a30.903559498788773,30.903559498788773 0 0,0 0.19563619752533215,-0.49313101678683996 l 9.173904534732806 3.7309471094694175" fill="#ff6409" stroke="none" /><path d="M 80.5471966667186 92.08871423366112 l -14.188107418865393 -5.770179770548396 a36.31657163707692,36.31657163707692 0 0,0 0.23981761433819615,-0.5754749718746028 l 14.086963959990717 6.012887251864263" fill="#ffaf10" stroke="none" /><path d="M 80.68587082218212 91.75594674310238 l -8.355562381441601 -3.5664927281861174 a30.08489367523729,30.08489367523729 0 0,0 0.20682091951552378,-0.47324673846147625 l 8.2931075799091 3.7094015364234605" fill="#ff5808" stroke="none" /><path d="M 80.83023694016515 91.42560881287825 l -8.837279050024852 -3.95280251342457 a30.681020024674247,30.681020024674247 0 0,0 0.2191728398949778,-0.47893220957050064 l 8.768121745274827 4.103923705209742" fill="#ff6108" stroke="none" /><path d="M 80.9802524753101 91.09779779509293 l -11.115258110692036 -5.2025020380877605 a33.272529907220125,33.272529907220125 0 0,0 0.24656646636727855,-0.5152290833568318 l 11.024312386364853 5.392543623509679" fill="#ff850c" stroke="none" /><path d="M 81.1358732173502 90.77261029715801 l -7.4630650512901004 -3.650559095544887 a29.30806365345459,29.30806365345459 0 0,0 0.22494648777426393,-0.4500436612268367 l 7.399298650304093 3.778134612935494" fill="#ff4d07" stroke="none" /><path d="M 81.29705330413844 90.45014215332179 l -4.540956711849124 -2.3186448526677377 a26.098666669992284,26.098666669992284 0 0,0 0.20716367354287563,-0.39726365957270254 l 4.500484969331308 2.3962547553449265" fill="#ff1e03" stroke="none" /><path d="M 81.46374523516351 90.13048839642627 l -14.228638577740679 -7.575948611391841 a37.11983725533295,37.11983725533295 0 0,0 0.3043025050012823,-0.5598823348969264 l 14.096490723124045 7.819085779763387" fill="#ffb911" stroke="none" /><path d="M 81.63589988554816 89.8137432299009 l -29.875304395638622 -16.57132774065849 a55.163470488525924,55.163470488525924 0 0,0 0.4664377061138365,-0.824150733505372 l 29.586433324503414 17.081735244262966" fill="#6bff28" stroke="none" /><line stroke="#e1ed5e" stroke-width="0.3" x1="26.387840678322718" x2="22.05771365940052" y1="57.49999999999999" y2="54.99999999999999" /><path d="M 25.521815274538284 56.99999999999999 a86.0,86.0 0 0,1 29.574782752854787,-30.34633250058573" fill="none" id="id107" stroke="none" /><text fill="#e1ed5e" style="font-size:6.75px; font-family:Arial;" text-anchor="middle"><textPath startOffset="21.40746469413373" xlink:href="#id107">November</textPath></text><path d="M 81.81346652052679 89.5 l -3.057366209449375 -1.765171204036863 a24.530342408073725,24.530342408073725 0 0,0 0.2136783107597648,-0.3628724862107966 l 3.0266141885598308 1.8173948585412323" fill="#ff0701" stroke="none" /><path d="M 81.99639281039701 89.18935116829357 l -8.167773043641791 -4.9045130335259515 a30.527159313691957,30.527159313691957 0 0,0 0.27362806366717835,-0.44695087805301165 l 8.082377015519219 5.044001027703506" fill="#ff5f08" stroke="none" /><path d="M 82.37810715431573 88.57770195909679 l -4.9510680952907 -3.2092225222597186 a26.90018512265374,26.90018512265374 0 0,0 0.2544956843990233,-0.38533890291897516 l 4.895247971970948 3.2937413035177547" fill="#ff2a04" stroke="none" /><path d="M 82.576782715395 88.27688183743585 l -12.905208847427744 -8.683200453721119 a36.554497276197324,36.554497276197324 0 0,0 0.3547705576402708,-0.5176208460437196 l 12.754248552972161 8.903456034834873" fill="#ffb210" stroke="none" /><path d="M 82.78059297857968 87.97951657250589 l -5.132421229869423 -3.582828622368881 a27.259265821011283,27.259265821011283 0 0,0 0.2711451931032017,-0.38139967054247237 l 5.070160938236249 3.6704055196208736" fill="#ff2f04" stroke="none" /><path d="M 82.98947788004972 87.6856937992154 l -7.367533146409347 -5.3335258300454695 a30.095440750354136,30.095440750354136 0 0,0 0.30654066648740913,-0.41588128692978643 l 7.274890460338119 5.459213426244119" fill="#ff5808" stroke="none" /><path d="M 83.2033758604659 87.39550010848427 l -3.9133158441841425 -2.936625164897807 a25.892627949829592,25.892627949829592 0 0,0 0.269835734662896,-0.3532236385171779 l 3.8623281321669394 3.003369716655869" fill="#ff1b02" stroke="none" /><path d="M 83.42222388311158 87.10902102172516 l -12.382240028919481 -9.62850473979705 a36.68527881990212,36.68527881990212 0 0,0 0.39084420825172483,-0.4938188892531156 l 12.215129390026194 9.839643572964848" fill="#ffb410" stroke="none" /><path d="M 83.64595745247003 86.82634096563983 l -15.115943829410599 -12.176334347452926 a40.41017454828416,40.41017454828416 0 0,0 0.4398035203872622,-0.5364887838203457 l 14.904693489784707 12.434025412971764" fill="#ffe415" stroke="none" /><path d="M 83.8745106332314 86.54754324733833 l -7.923653094479689 -6.610193225902825 a31.318862962818585,31.318862962818585 0 0,0 0.3479457616191074,-0.40987923229013534 l 7.809012769353467 6.745239240642517" fill="#ff6a09" stroke="none" /><path d="M 84.10781606972428 86.27271002978789 l -9.692526402822208 -8.372173457041601 a33.807745955639405,33.807745955639405 0 0,0 0.3831366423781342,-0.435939167602944 l 9.547378696485481 8.537324902455845" fill="#ff8c0c" stroke="none" /><path d="M 84.58840730492382 85.73525988315684 l -15.620941995554142 -14.458510703961984 a42.28526158178589,42.28526158178589 0 0,0 0.497645510422578,-0.5284822866961894 l 15.370440651395294 14.724534450602684" fill="#fffc17" stroke="none" /><path d="M 84.83555147118756 85.47280134310135 l -11.420615878847006 -10.940691667152516 a36.81547347403399,36.81547347403399 0 0,0 0.44110757371187964,-0.4526152300846657 l 11.231121503984323 11.135129589304912" fill="#ffb510" stroke="none" /><path d="M 85.08716467003674 85.21462403516908 l -3.269033750287899 -3.2410934587746763 a25.603397491965403,25.603397491965403 0 0,0 0.3121274585746209,-0.30945971854866033 l 3.212914371583302 3.29673318755201" fill="#ff1702" stroke="none" /><path d="M 85.60350026404147 84.71141617570332 l -2.15906268987193 -2.292849756637091 a24.149398625977312,24.149398625977312 0 0,0 0.3042481865288248,-0.28160757928939417 l 2.119384732029152 2.329575082058851" fill="#ff0100" stroke="none" /><path d="M 85.86807049272753 84.46653392183569 l -4.567213676853219 -5.020167888936787 a27.786864254068085,27.786864254068085 0 0,0 0.3555858199990018,-0.3179670328940809 l 4.480362830030826 5.09783045171427" fill="#ff3705" stroke="none" /><path d="M 86.40962598614128 83.9905735841838 l -8.844333597144 -10.418602738675135 a34.66636454233163,34.66636454233163 0 0,0 0.456978068886521,-0.3812273580533639 l 8.66418119409557 10.56889228064038" fill="#ff980e" stroke="none" /><path d="M 86.68645165197937 83.75963576809568 l -10.834118279955879 -13.215862698555135 a38.08909435198762,38.08909435198762 0 0,0 0.5092135189136615,-0.41018636550315296 l 10.605653990686973 13.399897357851687" fill="#ffc612" stroke="none" /><path d="M 86.96720088162412 83.53348406188908 l -7.886102622088911 -9.963833044361989 a33.70702890144024,33.70702890144024 0 0,0 0.4567945343448708,-0.35520619280361254 l 7.713898143108795 10.097740288786406" fill="#ff8b0c" stroke="none" /><path d="M 87.25179093698888 83.31218511350988 l -2.1434935780780235 -2.805901900772365 a24.530955988966685,24.530955988966685 0 0,0 0.33682989707525823,-0.2527634342398378 l 2.095010692092013 2.842284362276204" fill="#ff0701" stroke="none" /><path d="M 87.54013794807813 83.09580414077388 l -3.7032704120698376 -5.024197547648584 a27.24153608839282,27.24153608839282 0 0,0 0.37881170687588395,-0.27423046265231726 l 3.6164776948199857 5.087028781673981" fill="#ff2f04" stroke="none" /><path d="M 87.83215693770416 82.88440491214696 l -1.9253418739384993 -2.708234462863121 a24.322871534889742,24.322871534889742 0 0,0 0.34237905821253806,-0.2390071731300197 l 1.878567724552196 2.740886451798268" fill="#ff0400" stroke="none" /><path d="M 88.12776184653039 82.6780497279521 l -5.580773786185211 -8.14251573748943 a30.871453722113834,30.871453722113834 0 0,0 0.4397031619107744,-0.2958519106622033 l 5.4401743361774475 8.237117322208745" fill="#ff6309" stroke="none" /><path d="M 88.4268655584334 82.4767994020092 l -11.5204378672693 -17.443411268064594 a41.90437957272244,41.90437957272244 0 0,0 0.6036512805763679,-0.39127946696173554 l 11.219300954435905 17.638604576730238" fill="#fff717" stroke="none" /><line stroke="#e1ed5e" stroke-width="0.3" x1="56.869717070023135" x2="54.33264160355391" y1="26.7553504044142" y2="22.446841604673864" /><path d="M 56.362301976729285 25.89364864446614 a86.0,86.0 0 0,1 42.16139366436587,-11.88097634709845" fill="none" id="id108" stroke="none" /><text fill="#e1ed5e" style="font-size:6.75px; font-family:Arial;" text-anchor="middle"><textPath startOffset="22.145653131862474" xlink:href="#id108">December</textPath></text><path d="M 89.65649057296885 81.72400993836675 l -3.6867701684780045 -6.5141696282061154 a28.48509720846846,28.48509720846846 0 0,0 0.4276234498051457,-0.23719551916420523 l 3.5744025305167564 6.576498062803466" fill="#ff4106" stroke="none" /><path d="M 89.97174638481275 81.54914285379989 l -1.4735238472615477 -2.711117912511463 a24.085681912315167,24.085681912315167 0 0,0 0.36496825542409506,-0.19432503909458965 l 1.4267667760508906 2.736013419328628" fill="#ff0000" stroke="none" /><path d="M 90.28995756902619 81.37971332152246 l -5.7693548503175425 -11.063498643435242 a33.47743794303045,33.47743794303045 0 0,0 0.5118425719180916,-0.2613504642440953 l 5.578585056685868 11.160907059352171" fill="#ff880c" stroke="none" /><path d="M 90.61103034731259 81.2157712731953 l -13.938213818507768 -27.88576447629902 a52.17514498567827,52.17514498567827 0 0,0 0.8045898069942043,-0.3935651931102589 l 13.45746376225151 28.120923419506493" fill="#8cff24" stroke="none" /><path d="M 90.93487009805054 81.0573650232925 l -6.680847579036243 -13.960401935055371 a36.47664519728394,36.47664519728394 0 0,0 0.5671445874770158,-0.26545230374824713 l 6.440214277687704 14.073030470374162" fill="#ffb110" stroke="none" /><path d="M 91.26138138417902 80.90454125486306 l -2.8241860530317573 -6.171356210307906 a27.786874415859266,27.786874415859266 0 0,0 0.43544228318063766,-0.19476779466445993 l 2.717830366995501 6.218927755882212" fill="#ff3705" stroke="none" /><path d="M 91.5904679813234 80.7573450057729 l -1.415475777648045 -3.238885586198529 a24.534678417846937,24.534678417846937 0 0,0 0.3873732764443364,-0.1653466170752214 l 1.3596674260332777 3.2627068529331544" fill="#ff0701" stroke="none" /><path d="M 91.92203290615298 80.6158196554323 l -3.029573760392476 -7.2698741473395225 a28.87587374757964,28.87587374757964 0 0,0 0.4591890103443946,-0.18674817296803867 l 2.9043302888576408 7.320809576886852" fill="#ff4706" stroke="none" /><path d="M 92.25597844496254 80.48000691201159 l -1.385624121844229 -3.4926779437171245 a24.75749297079378,24.75749297079378 0 0,0 0.39638837370963537,-0.1533315383430054 l 1.3254634856410643 3.5159493701981703" fill="#ff0a01" stroke="none" /><path d="M 92.93061703081487 80.22567764915836 l -2.641260471002235 -7.388075620432031 a28.846012888652496,28.846012888652496 0 0,0 0.4677095661000755,-0.16269366574660848 l 2.5140451328571554 7.432327718747225" fill="#ff4606" stroke="none" /><path d="M 93.27111125876988 80.10723608172694 l -4.964811847007642 -14.677584036426335 a36.49454193651896,36.49454193651896 0 0,0 0.5951690863437138,-0.19564390024134917 l 4.712120023016167 14.760648858069713" fill="#ffb110" stroke="none" /><path d="M 93.61358852112211 79.99465700312896 l -0.944864745847928 -2.9597753587998317 a24.10693410977847,24.10693410977847 0 0,0 0.39530707492614114,-0.12246714230245799 l 0.8939170380501708 2.975559088908932" fill="#ff0000" stroke="none" /><path d="M 93.95794788825049 79.88797359093562 l -1.9078806636545638 -6.3507142247492565 a27.631106980827525,27.631106980827525 0 0,0 0.45543957277265024,-0.1325718219866674 l 1.7985810785002894 6.382529741038445" fill="#ff3505" stroke="none" /><path d="M 94.30408787586887 79.78721728523814 l -2.5347625170086596 -8.994977954937179 a30.34530092760195,30.34530092760195 0 0,0 0.502602859850197,-0.13698664442781158 l 2.379978256223785 9.03716509350913" fill="#ff5c08" stroke="none" /><path d="M 94.6519064749342 79.69241777938228 l -1.9044180828431365 -7.231385655188648 a28.477950703790984,28.477950703790984 0 0,0 0.47381167789015183,-0.12044107569352404 l 1.7800011117276067 7.263011962717435" fill="#ff4106" stroke="none" /><path d="M 95.35216902796891 79.52079915486377 l -2.1302573325661656 -9.386306866142814 a30.625006643548442,30.625006643548442 0 0,0 0.513679920530807,-0.11195414784145392 l 1.96881499541624 9.421492472117981" fill="#ff6008" stroke="none" /><path d="M 95.70440661134978 79.44403061299748 l -6.401354714712676 -30.63279962639244 a52.29450039758237,52.29450039758237 0 0,0 0.8802995084736714,-0.17608455592033503 l 5.874558720708028 30.73817357897564" fill="#8bff24" stroke="none" /><path d="M 96.05791012581881 79.37332000966035 l -1.4699208434538524 -7.691246982376436 a28.830450014522455,28.830450014522455 0 0,0 0.48691234458305105,-0.08873164908662846 l 1.3376737653197628 7.715346805394425" fill="#ff4606" stroke="none" /><path d="M 96.76829788921471 79.25015418208739 l -1.1556312491832081 -7.419981613678629 a28.50943478108823,28.50943478108823 0 0,0 0.4842190304632971,-0.07116352248000428 l 1.0280871131122262 7.438726209457518" fill="#ff4206" stroke="none" /><path d="M 97.12497278360702 79.19773525538626 l -1.6942393461836802 -12.258671924598831 a33.375196334487164,33.375196334487164 0 0,0 0.5682082327775352,-0.07356593165818327 l 1.483553291515351 12.285949452457409" fill="#ff870c" stroke="none" /><path d="M 97.84075906011542 79.11130261209362 l -1.44051738626823 -13.935698980116314 a35.009953476173855,35.009953476173855 0 0,0 0.5983375042128137,-0.05666318373811147 l 1.2010803186704007 13.958373919359609" fill="#ff9d0e" stroke="none" /><path d="M 98.1996594967304 79.07731436759882 l -0.4275444081967583 -4.968714101774699 a25.987074698273034,25.987074698273034 0 0,0 0.4447885896024665,-0.03442944987487134 l 0.3421868238190746 4.975321318644625" fill="#ff1d02" stroke="none" /><path d="M 99.63950707515114 79.00309439819443 l -0.15755394812624993 -9.176727608137206 a30.178080019291496,30.178080019291496 0 0,0 0.5180468729750998,-0.0044468093487241836 l 2.2479812635887216e-15 9.178080019291496" fill="#ff5a08" stroke="none" /></svg>