<?xml version="1.0" encoding="utf-8" ?>
<svg baseProfile="full" height="200mm" version="1.1" viewBox="0,0,200,200" width="200mm" xmlns="http://www.w3.org/2000/svg" xmlns:ev="http://www.w3.org/2001/xml-events" xmlns:xlink="http://www.w3.org/1999/xlink"><defs /><rect fill="#1a1a1a" height="200" width="200" x="0" y="0" /><text alignment-baseline="middle" fill="#e1ed5e" style="dominant-baseline: central; font-size:9.0px; font-family:Arial;" text-anchor="middle" x="100.0" y="100.0">2019</text><line stroke="#e1ed5e" stroke-width="0.3" x1="100.0" x2="100.0" y1="15.0" y2="10.0" /><path d="M 100.0 14.0 a86.0,86.0 0 0,1 42.46469731375804,11.215312516191453" fill="none" id="id85" stroke="none" /><text fill="#e1ed5e" style="font-size:6.75px; font-family:Arial;" text-anchor="middle"><textPath startOffset="22.20632615414155" xlink:href="#id85">January</textPath></text><path d="M 100.72285384407766 79.0124445844662 l 0.09936024250067567 -2.8848550957692187 a23.886565672451507,23.886565672451507 0 0,0 0.4108024845400073,0.017690019130273685 l -0.1490035594300145 2.88271735011475" fill="#ff1402" stroke="none" /><path d="M 101.80526077348638 79.07773832637324 l 0.3065481887057762 -3.5527728258850186 a24.565973435731934,24.565973435731934 0 0,0 0.42098459848040315,0.03997756026765407 l -0.3676579142764236 3.5469697211021862" fill="#ff1e03" stroke="none" /><path d="M 102.16513564639614 79.11191278185805 l 0.2558651591256469 -2.4684521585500914 a23.481677464680896,23.481677464680896 0 0,0 0.4016857334647007,0.0451340724653678 l -0.29831759610007286 2.463682132614123" fill="#ff0e01" stroke="none" /><path d="M 102.88285421437855 79.19881850522331 l 0.3946848830979431 -2.8478415056915365 a23.875061286039912,23.875061286039912 0 0,0 0.40659345285975157,0.05992130575091493 l -0.4436473163863504 2.8406257157796526" fill="#ff1402" stroke="none" /><path d="M 103.95276090670814 79.375362276772 l 0.31674781476546604 -1.6527204866034797 a22.68279950825924,22.68279950825924 0 0,0 0.3828355272880784,0.07679320524433697 l -0.3451497515206698 1.6470233252819344" fill="#ff0200" stroke="none" /><path d="M 106.0581310904928 79.89281104454417 l 0.6979951843940693 -2.3166750360742276 a23.4195413822059,23.4195413822059 0 0,0 0.38498896426400575,0.11961794522707773 l -0.7377695213687933 2.3043169559646293" fill="#ff0d01" stroke="none" /><line stroke="#e1ed5e" stroke-width="0.3" x1="143.23703022742887" x2="145.7803849466894" y1="26.81831364943548" y2="22.513508569990506" /><path d="M 143.74570117128098 25.957352633546492 a86.0,86.0 0 0,1 28.547481713284135,27.462654790039103" fill="none" id="id86" stroke="none" /><text fill="#e1ed5e" style="font-size:6.75px; font-family:Arial;" text-anchor="middle"><textPath startOffset="19.985693538727396" xlink:href="#id86">February</textPath></text><line stroke="#e1ed5e" stroke-width="0.3" x1="172.23445277983987" x2="176.4835382374775" y1="55.19839476539836" y2="52.563006222186495" /><path d="M 173.08426987136738 54.67131705675599 a86.0,86.0 0 0,1 12.851231095245387,41.99856678651699" fill="none" id="id87" stroke="none" /><text fill="#e1ed5e" style="font-size:6.75px; font-family:Arial;" text-anchor="middle"><textPath startOffset="22.20632615414155" xlink:href="#id87">March</textPath></text><line stroke="#e1ed5e" stroke-width="0.3" x1="184.98032266829074" x2="189.97916517819016" y1="98.17113171792111" y2="98.06355123074" /><path d="M 185.9800911702706 98.14961562048488 a86.0,86.0 0 0,1 -9.607161424134198,41.387399972396054" fill="none" id="id88" stroke="none" /><text fill="#e1ed5e" style="font-size:6.75px; font-family:Arial;" text-anchor="middle"><textPath startOffset="21.466115282336823" xlink:href="#id88">April</textPath></text><line stroke="#e1ed5e" stroke-width="0.3" x1="174.80103733775053" x2="179.2010983576182" y1="140.37084112569926" y2="142.7455964860345" /><path d="M 175.68104954172406 140.8457921977663 a86.0,86.0 0 0,1 -30.038265399797805,32.042727171017184" fill="none" id="id89" stroke="none" /><text fill="#e1ed5e" style="font-size:6.75px; font-family:Arial;" text-anchor="middle"><textPath startOffset="22.206326154141568" xlink:href="#id89">May</textPath></text><path d="M 117.35343817320211 111.8261652097733 l 1.8081391964121627 1.2322257206677358 a23.188092223896685,23.188092223896685 0 0,0 -0.22761772836546604,0.327900314242826 l -1.7866605608845605 -1.2631672970975814" fill="#ff0a01" stroke="none" /><path d="M 117.14729908036423 112.12312394758627 l 2.29236624292666 1.6207007276199115 a23.80742120819399,23.80742120819399 0 0,0 -0.23945754526648627,0.33258558682638784 l -2.264128905284571 -1.6599199198974306" fill="#ff1302" stroke="none" /><path d="M 116.93607887273984 112.41649034213515 l 2.3083045469476215 1.6923067806453316 a23.8621970793915,23.8621970793915 0 0,0 -0.24571101287236627,0.32917005526238846 l -2.2788322673801633 -1.731789715417035" fill="#ff1402" stroke="none" /><path d="M 116.71984013943494 112.70617746262583 l 2.496542447912875 1.897237720074957 a24.13563951383223,24.13563951383223 0 0,0 -0.25422090107342393,0.328614783959731 l -2.463514729621383 -1.9399304981479406" fill="#ff1702" stroke="none" /><path d="M 116.498646956653 112.99209946851258 l 3.3544155980646257 2.6414833424392974 a25.2696063346547,25.2696063346547 0 0,0 -0.2720478743662202,0.339421552544801 l -3.3084498116435515 -2.6988327285623486" fill="#ff2803" stroke="none" /><path d="M 116.27256486870786 113.27417163493432 l 2.2184069658000936 1.8096418762350055 a23.86288895805159,23.86288895805159 0 0,0 -0.2623826911671575,0.3160568541155313 l -2.1869282747393926 -1.8475599874643074" fill="#ff1402" stroke="none" /><path d="M 116.0416608686014 113.55231037782055 l 3.2811053942678705 2.77194232253685 a25.295266795877144,25.295266795877144 0 0,0 -0.28385805204066744,0.330191043408044 l -3.2329048326564243 -2.8280104651064217" fill="#ff2803" stroke="none" /><path d="M 115.80600337817218 113.82643327865902 l 3.709996484406827 3.245350366465787 a25.929135108254858,25.929135108254858 0 0,0 -0.29675419807341097,0.3334064874051317 l -3.6535834366850777 -3.308731023611785" fill="#ff3104" stroke="none" /><path d="M 115.56566222782051 114.09645910891815 l 4.246767839129777 3.8459262646960166 a26.729414098574622,26.729414098574622 0 0,0 -0.3117840950293164,0.33838005704769397 l -4.179937336104739 -3.9184575765450456" fill="#ff3d05" stroke="none" /><path d="M 115.32070863581623 114.36230785411682 l 3.121093693937513 2.9258508558200935 a25.278063706496162,25.278063706496162 0 0,0 -0.3003195851712363,0.3148838843901623 l -3.070267557387312 -2.9791418567927628" fill="#ff2803" stroke="none" /><path d="M 115.07121518719521 114.62390073753431 l 3.8033901391136657 3.6905053222099338 a26.299585463370406,26.299585463370406 0 0,0 -0.31804887074171767,0.32218182689618874 l -3.739300643316412 -3.7554276430867874" fill="#ff3705" stroke="none" /><path d="M 114.81725581225074 114.88116024355365 l 5.081282158967481 5.103196908282262 a28.20153088334299,28.20153088334299 0 0,0 -0.34694604032319865,0.3395597229180563 l -4.992686166268488 -5.18990673412289" fill="#ff5107" stroke="none" /><path d="M 114.55890576462653 115.13401014063108 l 3.2258166339385825 3.353242505934666 a25.652969832204143,25.652969832204143 0 0,0 -0.3208626626844612,0.30339567480577617 l -3.167618136863314 -3.4082728174863637" fill="#ff2d04" stroke="none" /><path d="M 114.29624159901734 115.38237550388516 l 3.98589157972555 4.28871326582273 a26.854946042601153,26.854946042601153 0 0,0 -0.3413141522768241,0.3117823856244371 l -3.9114778779818615 -4.356688418033749" fill="#ff3f05" stroke="none" /><path d="M 114.0293411484842 115.62618273729858 l 2.913476588571546 3.245093058327913 a25.361074958007773,25.361074958007773 0 0,0 -0.3273482526608213,0.28884677284446575 l -2.857185983004137 -3.2947629729446675" fill="#ff2904" stroke="none" /><path d="M 113.75828350139079 115.86535959552629 l 4.038236627004637 4.656691091790429 a27.16377538364614,27.16377538364614 0 0,0 -0.35589011402607695,0.3032972760441588 l -3.957481036401513 -4.725512758057534" fill="#ff4306" stroke="none" /><path d="M 113.48314897796784 116.09983520530334 l 5.697886043593955 6.803679650084731 a29.874455597204815,29.874455597204815 0 0,0 -0.39708823574500535,0.32677658438868734 l -5.579927679304259 -6.900751353330596" fill="#ff6909" stroke="none" /><path d="M 113.20401910651253 116.32954008644616 l 1.394400628684281 1.7244689498695922 a23.21768939942893,23.21768939942893 0 0,0 -0.31293300099638777,0.24861290195686955 l -1.364510134970542 -1.7482157658315878" fill="#ff0a01" stroke="none" /><path d="M 112.92097659922987 116.55440617244103 l 5.440461561086986 6.970340806371755 a29.842187113753944,29.842187113753944 0 0,0 -0.40766029342179383,0.3125765294691453 l -5.319672539171698 -7.062956677668272" fill="#ff6809" stroke="none" /><path d="M 112.63410532772338 116.77436683061366 l 2.2819942787194556 3.029815578045331 a24.793056857611614,24.793056857611614 0 0,0 -0.34310642628995314,0.25382193165313055 l -2.229502882010938 -3.0686474584382304" fill="#ff2103" stroke="none" /><path d="M 112.34349029814194 116.9893568818739 l 3.434720704329861 4.7274874793076345 a26.843495887203368,26.843495887203368 0 0,0 -0.3761574887907053,0.26837838065140224 l -3.3528358876902713 -4.785910121803256" fill="#ff3e05" stroke="none" /><path d="M 112.04921762599082 117.19931262002967 l 3.3079524897016954 4.721842593319949 a26.76527077856835,26.76527077856835 0 0,0 -0.37961198250480493,0.26110058305366785 l -3.2261836225740073 -4.778083965738712" fill="#ff3d05" stroke="none" /><path d="M 111.7513745106137 117.40417183066458 l 3.186605889756136 4.719468042809166 a26.694544380696797,26.694544380696797 0 0,0 -0.38303531559585047,0.25385492089956074 l -3.1048958754203215 -4.773620984800045" fill="#ff3c05" stroke="none" /><path d="M 111.45004920935366 117.60387380957326 l 5.579558008464286 8.578289341670315 a31.233206516006234,31.233206516006234 0 0,0 -0.4532060193263566,0.28925752423473367 l -5.431070187090999 -8.673061294728857" fill="#ff7b0b" stroke="none" /><path d="M 111.1453310114006 117.79835938074945 l 3.254068577471219 5.196533143088644 a27.131306468780068,27.131306468780068 0 0,0 -0.39795270120930304,0.24445505209081042 l -3.164136676329607 -5.251776662007832" fill="#ff4206" stroke="none" /><line stroke="#e1ed5e" stroke-width="0.3" x1="143.8653032363475" x2="146.44561519142675" y1="172.8068346515853" y2="177.08958963109032" /><path d="M 144.38136562736335 173.6633856474863 a86.0,86.0 0 0,1 -40.68145358897372,12.25698825130547" fill="none" id="id90" stroke="none" /><text fill="#e1ed5e" style="font-size:6.75px; font-family:Arial;" text-anchor="middle"><textPath startOffset="21.466115282336833" xlink:href="#id90">June</textPath></text><path d="M 110.8373102113329 117.98757091392108 l 2.2006979103911135 3.6526784738414713 a25.2644028100151,25.2644028100151 0 0,0 -0.3744330416075012,0.22122164089768492 l -2.1374969977552305 -3.6900186870329055" fill="#ff2803" stroke="none" /><path d="M 110.5260780823613 118.17145234162733 l 5.847407670922257 10.094537488970792 a32.66584174357758,32.66584174357758 0 0,0 -0.48897845865002765,0.2776547303753463 l -5.67278044535103 -10.193695385140767" fill="#ff8f0d" stroke="none" /><path d="M 110.21172684928248 118.3499491758327 l 2.8413164754054763 5.1056999159559355 a26.843051509716737,26.843051509716737 0 0,0 -0.405684390905663,0.2212114761452613 l -2.7530092726311644 -5.153852043860967" fill="#ff3e05" stroke="none" /><path d="M 109.89434966115114 118.52300852407294 l 2.7132452755482817 5.079410682665758 a26.758655468810762,26.758655468810762 0 0,0 -0.40814479918186797,0.21352206881746436 l -2.625409573839918 -5.125362170427939" fill="#ff3d05" stroke="none" /><path d="M 109.57404056367764 118.69057910512821 l 1.94436177086563 3.7958108956864107 a25.264823918031716,25.264823918031716 0 0,0 -0.38877281534262276,0.1949387604040469 l -1.878735047840247 -3.8287174969997597" fill="#ff2803" stroke="none" /><path d="M 109.2508944713604 118.85261126421891 l 5.147658732526155 10.49053248911466 a32.68544660386256,32.68544660386256 0 0,0 -0.5072272851882678,0.2434999210417274 l -4.966318779337654 -10.577586686655948" fill="#ff8f0d" stroke="none" /><path d="M 108.92500713936063 119.00905698771935 l 2.480973327409998 5.2841373266539335 a26.83757963014272,26.83757963014272 0 0,0 -0.419857324982965,0.1927359051983044 l -2.389648006659613 -5.326060302186312" fill="#ff3e05" stroke="none" /><path d="M 108.59647513512805 119.15986991738527 l 2.3814124906250815 5.307704939849558 a26.817461403310602,26.817461403310602 0 0,0 -0.4227955727999905,0.1853411542989623 l -2.289696243167337 -5.347910647442975" fill="#ff3e05" stroke="none" /><path d="M 108.2653958097858 119.30500536409082 l 4.738996898561408 11.068600058913406 a33.0404318389646,33.0404318389646 0 0,0 -0.5247584289915943,0.21934906587765515 l -4.547767010072352 -11.148534167811032" fill="#ff940d" stroke="none" /><path d="M 107.93186726928326 119.44442032107085 l 2.757227311500595 6.75915077061019 a28.299891888728567,28.299891888728567 0 0,0 -0.4526351064627461,0.180112850185508 l -2.6404711289959826 -6.805610465201767" fill="#ff5307" stroke="none" /><path d="M 107.59598834532513 119.57807347666477 l 2.6304094497383876 6.779677263773796 a28.272075197232517,28.272075197232517 0 0,0 -0.45522050214710197,0.1721254422420522 l -2.513318726831011 -6.82395095612248" fill="#ff5207" stroke="none" /><path d="M 107.2578585660854 119.70592522655815 l 2.48744171344158 6.753691872634469 a28.1972022472804,28.1972022472804 0 0,0 -0.4569026842722288,0.16382904676115448 l -2.3708194685396164 -6.795508460435583" fill="#ff5107" stroke="none" /><path d="M 106.91757812671514 119.82793768551818 l 4.8046013615549565 13.771486878154702 a35.58554233063148,35.58554233063148 0 0,0 -0.5800956290294614,0.19679993313761646 l -4.566835999588268 -13.85214979819044" fill="#ffb510" stroke="none" /><path d="M 106.57524785965236 119.94407469862006 l 2.2182717399945977 6.728472937996472 a28.08470730445581,28.08470730445581 0 0,0 -0.4604269168710804,0.14741415897930998 l -2.102123478032577 -6.765659943635488" fill="#ff5007" stroke="none" /><path d="M 106.2309692047433 120.05430185196036 l 4.3439524346572265 13.980960343835138 a35.64025870298934,35.64025870298934 0 0,0 -0.5874278787870684,0.17698720113417596 l -4.102649581429913 -14.053662914075039" fill="#ffb610" stroke="none" /><path d="M 105.88484417918355 120.15858648285463 l 1.1982695072923037 4.104682937564334 a25.276011205555747,25.276011205555747 0 0,0 -0.41870173776436065,0.11832929339082379 l -1.1274366014233375 -4.124701024293677" fill="#ff2803" stroke="none" /><path d="M 105.53697534728816 120.25689768951611 l 1.896729996524005 6.939143318209081 a28.193698261003146,28.193698261003146 0 0,0 -0.46923652355759354,0.12392963069595674 l -1.777003030154914 -6.970764298208621" fill="#ff5107" stroke="none" /><path d="M 105.18746579009965 120.34920634021253 l 1.8856855662544503 7.397100286175603 a28.63366901945058,28.63366901945058 0 0,0 -0.4786550216680098,0.11764175870717809 l -1.7580772598432293 -7.4284633031968115" fill="#ff5808" stroke="none" /><path d="M 104.83641907484287 120.43548508189849 l 1.5970178917080846 6.747933708078406 a27.934340305685648,27.934340305685648 0 0,0 -0.4688710522741442,0.10671352498450706 l -1.4806266900410783 -6.774423966640597" fill="#ff4e07" stroke="none" /><path d="M 104.48393922423573 120.51570834832081 l 3.757587916746503 17.19237793779092 a38.59821940163036,38.59821940163036 0 0,0 -0.6503037903770983,0.1362774820588416 l -3.461092664940027 -17.254511400576302" fill="#ffdc14" stroke="none" /><path d="M 104.13013068566511 120.58985236759428 l 1.3698296200125593 6.828982371601241 a27.965014961900962,27.965014961900962 0 0,0 -0.47278504621246076,0.09061037934451183 l -1.252076959228394 -6.851549949294221" fill="#ff4e07" stroke="none" /><path d="M 103.7750983002368 120.6578951692458 l 1.3001844750552694 7.114801377407254 a28.232625962202864,28.232625962202864 0 0,0 -0.47881327497540266,0.08324782531734985 l -1.1775222286078166 -7.13612778124561" fill="#ff5207" stroke="none" /><path d="M 103.41894727170886 120.7198165907248 l 2.698430471929286 16.353274858565545 a37.57441177271846,37.57441177271846 0 0,0 -0.6390586824390931,0.09980782329138438 l -2.4165359258816754 -16.397300989204034" fill="#ffcf13" stroke="none" /><path d="M 103.06178313531738 120.77559828337769 l 1.064689886796735 7.224407610492299 a28.30243999479532,28.30243999479532 0 0,0 -0.4825854553231693,0.06688194677910765 l -0.9401758402867351 -7.24166412276401" fill="#ff5307" stroke="none" /><path d="M 102.70371172650421 120.8252237178851 l 0.9472020176112077 7.295782952530251 a28.35701301837898,28.35701301837898 0 0,0 -0.4845978255462486,0.05867804798295234 l -0.8214767690135788 -7.311006529238554" fill="#ff5407" stroke="none" /><path d="M 102.34483914955558 120.86867818915974 l 0.6847751397143312 6.094384779162227 a27.132735346356878,27.132735346356878 0 0,0 -0.46457367597509175,0.0481549610419756 l -0.5797688671336368 -6.105269108659961" fill="#ff4206" stroke="none" /><path d="M 101.98527174616119 120.90594882070398 l 1.6345683477178754 17.212858787422654 a38.29029558217888,38.29029558217888 0 0,0 -0.6566889299656031,0.056661884080342846 l -1.3380351000107307 -17.23844492378166" fill="#ffd814" stroke="none" /><path d="M 101.62511606390274 120.93702456842531 l 0.5572525889291399 7.1793094686474825 a28.200903755396237,28.200903755396237 0 0,0 -0.4842998130421521,0.03340015059683882 l -0.4335900151080574 -7.1878379637606065" fill="#ff5107" stroke="none" /><path d="M 101.26447882468166 120.96189622390904 l 0.43894041175230536 7.276534157816456 a28.28976117818265,28.28976117818265 0 0,0 -0.48633053938367027,0.025137733820764157 l -0.3136218039551555 -7.283011698399422" fill="#ff5307" stroke="none" /><path d="M 100.90346689309514 120.98055641714683 l 0.6385286019949721 14.828086629962018 a35.841828454783595,35.841828454783595 0 0,0 -0.6166153894991265,0.021237480773344752 l -0.3831928608211932 -14.836880909161456" fill="#ffb911" stroke="none" /><line stroke="#e1ed5e" stroke-width="0.3" x1="102.19456741930631" x2="102.32365962044197" y1="184.97166512339345" y2="189.96999836594603" /><path d="M 102.22038585953345 185.97133177190398 a86.0,86.0 0 0,1 -42.740103519485714,-10.115201625700543" fill="none" id="id91" stroke="none" /><text fill="#e1ed5e" style="font-size:6.75px; font-family:Arial;" text-anchor="middle"><textPath startOffset="22.20632615414155" xlink:href="#id91">July</textPath></text><path d="M 100.54218724476979 120.99299961872073 l 0.18523770289271901 7.172236277617785 a28.174627950531622,28.174627950531622 0 0,0 -0.4849260125523264,0.00834844107492411 l -0.06175200044772464 -7.174362195971868" fill="#ff5107" stroke="none" /><path d="M 100.18074693466247 120.99922214144158 l 0.06107848475810112 7.096112981906011 a28.09637583793836,28.09637583793836 0 0,0 -0.48365083884110827,0.0 l 0.061078484758096234 -7.096112981906011" fill="#ff5007" stroke="none" /><path d="M 99.81925306533755 120.99922214144158 l -0.06229408209050587 7.237341371009736 a28.237609458460202,28.237609458460202 0 0,0 -0.48601001520740894,-0.008367103163689748 l 0.18686378719058278 -7.235196790566887" fill="#ff5207" stroke="none" /><path d="M 99.45781275523022 120.99299961872073 l -0.30254936224738904 11.714437599874811 a32.71834392727731,32.71834392727731 0 0,0 -0.5628796089445155,-0.01938671184054771 l 0.5041493228665476 -11.707494089608169" fill="#ff8f0d" stroke="none" /><path d="M 99.09653310690486 120.98055641714683 l -0.3104573300932995 7.209525416946687 a28.216206793836285,28.216206793836285 0 0,0 -0.485066062699394,-0.02507237481955509 l 0.43451146120618245 -7.20311323536493" fill="#ff5207" stroke="none" /><path d="M 98.73552117531835 120.96189622390904 l -0.9087315057191284 15.06449546363639 a36.09187915812368,36.09187915812368 0 0,0 -0.6198131265660095,-0.04274594210384382 l 1.167907393064068 -15.046621177016263" fill="#ffbc11" stroke="none" /><path d="M 98.37488393609728 120.93702456842531 l -0.5539135434967912 7.136291201949546 a28.157756096200238,28.157756096200238 0 0,0 -0.4829131360806791,-0.041667777373545045 l 0.676670997319012 -7.125699172297337" fill="#ff5107" stroke="none" /><path d="M 98.01472825383883 120.90594882070398 l -0.6669411953521853 7.0232392736223135 a28.05483525339952,28.05483525339952 0 0,0 -0.48036210784393935,-0.04979149656018038 l 0.7877358998017181 -7.010718408606372" fill="#ff4f07" stroke="none" /><path d="M 97.65516085044442 120.86867818915974 l -0.7810439157918538 6.951160864637811 a27.99490292745137,27.99490292745137 0 0,0 -0.4784096645238418,-0.05792874786179001 l 0.900581003367085 -6.936686588050673" fill="#ff4f07" stroke="none" /><path d="M 97.2962882734958 120.8252237178851 l -0.930212526702961 7.164922126818416 a28.225053939466974,28.225053939466974 0 0,0 -0.4812659441872678,-0.06669907455908153 l 1.05340706207706 -7.14784848676673" fill="#ff5207" stroke="none" /><path d="M 96.93821686468263 120.77559828337769 l -3.1689678753691237 21.502895744696044 a42.73515315801544,42.73515315801544 0 0,0 -0.7268316224400161,-0.11351615137784665 l 3.538635361417657 -21.44516128597109" fill="#efff19" stroke="none" /><path d="M 96.58105272829116 120.7198165907248 l -1.1874564118914752 7.196331826309246 a28.293644115563463,28.293644115563463 0 0,0 -0.4798481167886528,-0.08342774583125993 l 1.311153500152178 -7.174825501956979" fill="#ff5307" stroke="none" /><path d="M 96.22490169976321 120.6578951692458 l -1.2968725152956997 7.096677844699893 a28.214202294944585,28.214202294944585 0 0,0 -0.4769978830348063,-0.09141777954814807 l 1.418838012902201 -7.073302866803276" fill="#ff5207" stroke="none" /><path d="M 95.86986931433489 120.58985236759428 l -3.711356261050115 18.502145165477437 a39.8707058961989,39.8707058961989 0 0,0 -0.6717426754720411,-0.14077020887686567 l 4.029290397951543 -18.43551897587403" fill="#ffec16" stroke="none" /><path d="M 95.51606077576429 120.51570834832081 l -1.4709248884070603 6.730034575343573 a27.888903063090325,27.888903063090325 0 0,0 -0.46810839929881015,-0.10653994765030302 l 1.586553437098733 -6.703717894115583" fill="#ff4d07" stroke="none" /><path d="M 95.16358092515715 120.4354850818985 l -1.6671202151171711 7.044139425999876 a28.238728483965826,28.238728483965826 0 0,0 -0.4720529941583115,-0.11601914097182534 l 1.7881264940186932 -7.01439902671402" fill="#ff5207" stroke="none" /><path d="M 94.81253420990036 120.34920634021253 l -1.7971577109171617 7.049826363222127 a28.275288832032082,28.275288832032082 0 0,0 -0.470594460907656,-0.12428827429220898 l 1.918242614636307 -7.017846739626337" fill="#ff5307" stroke="none" /><path d="M 94.46302465271185 120.25689768951611 l -3.8046606408994763 13.919263950448403 a35.429877044336244,35.429877044336244 0 0,0 -0.5869023781719239,-0.1658644744807866 l 4.043694187176014 -13.851710682629095" fill="#ffb310" stroke="none" /><path d="M 94.11515582081647 120.15858648285463 l -2.0370445642577124 6.977914413311661 a28.269170524638593,28.269170524638593 0 0,0 -0.46593654144731345,-0.14038285780234466 l 2.156856080145272 -6.9418161864035905" fill="#ff5207" stroke="none" /><path d="M 93.76903079525671 120.05430185196036 l -4.254104955752213 13.69178727887649 a35.33744914078371,35.33744914078371 0 0,0 -0.5793299741955391,-0.18548316309980886 l 4.489156275038693 -13.616531269116974" fill="#ffb210" stroke="none" /><path d="M 93.42475214034765 119.94407469862007 l -2.2704088477926425 6.886615474169898 a28.251222588309602,28.251222588309602 0 0,0 -0.46053564635742406,-0.156238695613455 l 2.3886142270872925 -6.84651379165832" fill="#ff5207" stroke="none" /><path d="M 93.08242187328487 119.8279376855182 l -2.3955218342896334 6.866313149562947 a28.272192319130415,28.272192319130415 0 0,0 -0.458117810681646,-0.1642647478594438 l 2.513359205601006 -6.824060860663545" fill="#ff5207" stroke="none" /><path d="M 92.7421414339146 119.70592522655815 l -2.516030980890357 6.831315039509099 a28.279922874991417,28.279922874991417 0 0,0 -0.4553468608874796,-0.1721732203055764 l 2.6332480625381196 -6.7869935690968894" fill="#ff5307" stroke="none" /><path d="M 92.40401165467489 119.57807347666478 l -2.603179013664425 6.709492917244925 a28.196793465408238,28.196793465408238 0 0,0 -0.4509861261062517,-0.17945668687058156 l 2.718286215812535 -6.6636893859682775" fill="#ff5107" stroke="none" /><path d="M 92.06813273071674 119.44442032107085 l -5.5330958870371765 13.563999302028297 a35.649137420359324,35.649137420359324 0 0,0 -0.5661907035231832,-0.23666775999211712 l 5.765758050057822 -13.466746499016207" fill="#ffb610" stroke="none" /><path d="M 91.7346041902142 119.30500536409082 l -2.7509391932232257 6.4252090406349645 a27.989347441690743,27.989347441690743 0 0,0 -0.4412711556078567,-0.19344030685459843 l 2.8611310234888254 -6.376904180485914" fill="#ff4f07" stroke="none" /><path d="M 91.40352486487194 119.15986991738527 l -3.6896774955837004 8.22357300419674 a30.013371898283694,30.013371898283694 0 0,0 -0.4695406296914739,-0.21554307357776797 l 3.8306861210425938 -8.158842860284897" fill="#ff6b09" stroke="none" /><path d="M 91.07499286063937 119.00905698771935 l -6.128594823130925 13.053077317300975 a35.420211578113005,35.420211578113005 0 0,0 -0.549666583336104,-0.26387336318459365 l 6.352374074467271 -12.945649677616817" fill="#ffb310" stroke="none" /><path d="M 90.7491055286396 118.85261126421891 l -3.1870418577507347 6.494946127964315 a28.234746782591213,28.234746782591213 0 0,0 -0.4344737185886239,-0.2178541420267805 l 3.298369484022119 -6.439124145028233" fill="#ff5207" stroke="none" /><path d="M 90.42595943632237 118.69057910512821 l -3.302719097820403 6.447615523379189 a28.24428736153032,28.24428736153032 0 0,0 -0.4308048663597182,-0.22537674498400131 l 3.4132148667066167 -6.389809359450471" fill="#ff5207" stroke="none" /><path d="M 90.10565033884886 118.52300852407294 l -3.45594882987298 6.46981073307343 a28.334986928174622,28.334986928174622 0 0,0 -0.42823230842870896,-0.23350639858025976 l 3.5668039501703293 -6.409363682733405" fill="#ff5307" stroke="none" /><line stroke="#e1ed5e" stroke-width="0.3" x1="58.666819895761336" x2="56.23545636021788" y1="174.27360380694188" y2="178.64263932499728" /><path d="M 58.180547188652646 175.14741091055294 a86.0,86.0 0 0,1 -31.652253787137756,-30.449443065178592" fill="none" id="id92" stroke="none" /><text fill="#e1ed5e" style="font-size:6.75px; font-family:Arial;" text-anchor="middle"><textPath startOffset="22.20632615414155" xlink:href="#id92">August</textPath></text><path d="M 89.7882731507175 118.34994917583269 l -7.020042438317556 12.61465605735105 a35.436431113022465,35.436431113022465 0 0,0 -0.5304517055376338,-0.30120432234338457 l 7.236142910776397 -12.491948569213033" fill="#ffb310" stroke="none" /><path d="M 89.4739219176387 118.17145234162733 l -3.699173849441045 6.385983533710679 a28.380018486508853,28.380018486508853 0 0,0 -0.4206082654195249,-0.2485027770299538 l 3.808549985888952 -6.321362184386976" fill="#ff5407" stroke="none" /><path d="M 89.1626897886671 117.98757091392108 l -11.509746776499592 19.10366892765152 a43.30301408681035,43.30301408681035 0 0,0 -0.63515376401723,-0.3901633183960822 l 11.836879740449131 -18.90271714242706" fill="#e8ff1a" stroke="none" /><path d="M 88.8546689885994 117.79835938074946 l -4.8438595122468096 7.7353245319177315 a30.1267858848815,30.1267858848815 0 0,0 -0.43715142404567964,-0.2790107219297206 l 4.976292738339413 -7.650799381164207" fill="#ff6c0a" stroke="none" /><path d="M 88.54995079064634 117.60387380957326 l -3.957487292314423 6.0844373349925025 a28.258242442374105,28.258242442374105 0 0,0 -0.40547254366797975,-0.26872509220111446 l 4.061634534722365 -6.01541422170007" fill="#ff5207" stroke="none" /><path d="M 88.24862548938628 117.40417183066458 l -5.83481883531861 8.641558442288114 a31.426967111891635,31.426967111891635 0 0,0 -0.44572884721237016,-0.306576365485288 l 5.982704567153871 -8.539841287437724" fill="#ff7e0b" stroke="none" /><path d="M 87.95078237400918 117.19931262002967 l -4.955442925850147 7.07350590701964 a29.636602364819165,29.636602364819165 0 0,0 -0.4152972462559682,-0.29630355837785544 l 5.076467499955002 -6.987158086797566" fill="#ff6509" stroke="none" /><path d="M 87.65650970185807 116.9893568818739 l -8.507053637243379 11.708954822780328 a35.473064106430485,35.473064106430485 0 0,0 -0.49090502736354574,-0.36315980336185866 l 8.707343635025488 -11.560785070678701" fill="#ffb410" stroke="none" /><path d="M 87.07902340077011 116.55440617244103 l -4.449394546364713 5.700581838864687 a28.23144142829173,28.23144142829173 0 0,0 -0.38050942695555906,-0.3022997017130174 l 4.5468614660376305 -5.623148223146539" fill="#ff5207" stroke="none" /><path d="M 86.51685102203217 116.09983520530335 l -4.852392784308995 5.794100792510299 a28.557600130132744,28.557600130132744 0 0,0 -0.3741515096146219,-0.31886003353723785 l 4.951409770500674 -5.70971636875011" fill="#ff5608" stroke="none" /><path d="M 86.24171649860922 115.8653595955263 l -4.812650961908361 5.549706699292339 a28.345805179102406,28.345805179102406 0 0,0 -0.3658736788959885,-0.32284098222249985 l 4.907466993710937 -5.46604257529755" fill="#ff5307" stroke="none" /><path d="M 85.97065885151581 115.62618273729859 l -1.9144495282324976 2.132355172839197 a23.8656684349875,23.8656684349875 0 0,0 -0.3033217932177538,-0.2770772664141135 l 1.950870870917106 -2.099085139838508" fill="#ff1402" stroke="none" /><path d="M 85.70375840098266 115.38237550388516 l -8.38689794386961 9.024078992497744 a33.319661471961126,33.319661471961126 0 0,0 -0.41675624185300536,-0.39406903928505904 l 8.540990020113432 -8.878375316466753" fill="#ff970e" stroke="none" /><path d="M 84.9287848128048 114.62390073753433 l -10.4907029136693 10.179338306230704 a35.6175844781402,35.6175844781402 0 0,0 -0.42315971347631015,-0.4436812678096706 l 10.664369178524568 -9.997249921838534" fill="#ffb610" stroke="none" /><path d="M 84.67929136418377 114.36230785411682 l -10.605389926915294 9.941960170642721 a35.53674198493468,35.53674198493468 0 0,0 -0.4145167903494637,-0.4498761078639655 l 10.774953125260486 -9.757932807977411" fill="#ffb510" stroke="none" /><path d="M 84.43433777217949 114.09645910891817 l -5.400611092508086 4.890861199123536 a28.286091094792425,28.286091094792425 0 0,0 -0.32372912727020503,-0.363713106316994 l 5.48399906942663 -4.797173923065677" fill="#ff5307" stroke="none" /><path d="M 84.19399662182784 113.82643327865904 l -10.779591939994186 9.429537952353387 a35.3218639983649,35.3218639983649 0 0,0 -0.39637437272080617,-0.4610729439168425 l 10.940308822285772 -9.242587909275015" fill="#ffb210" stroke="none" /><path d="M 83.95833913139862 113.55231037782056 l -5.7085770165003105 4.822718057500627 a28.47304897718851,28.47304897718851 0 0,0 -0.3130733763838133,-0.37711704993588196 l 5.790746392777661 -4.723739750450984" fill="#ff5507" stroke="none" /><path d="M 83.72743513129214 113.27417163493432 l -5.70993871516116 4.657821747311566 a28.368765402740465,28.368765402740465 0 0,0 -0.3054128435560661,-0.38104948170767233 l 5.789269470772087 -4.558844432025634" fill="#ff5407" stroke="none" /><path d="M 83.50135304334701 112.99209946851258 l -11.650382765411262 9.174263327904688 a35.82897589823143,35.82897589823143 0 0,0 -0.3773869149879488,-0.4878234598900121 l 11.806576497617279 -8.972361873901423" fill="#ffb811" stroke="none" /><path d="M 83.28015986056508 112.70617746262583 l -5.707528518616162 4.337414091626949 a28.1686151237921,28.1686151237921 0 0,0 -0.2900545549201178,-0.38857547635342343 l 5.781344340231366 -4.238525735764217" fill="#ff5107" stroke="none" /><path d="M 82.85270091963577 112.12312394758628 l -5.721084187105613 4.044801014422152 a28.00651265054309,28.00651265054309 0 0,0 -0.2749160529207226,-0.39603707844041625 l 5.78986114718847 -3.9457226737947226" fill="#ff4f07" stroke="none" /><path d="M 82.6465618267979 111.8261652097733 l -9.503195835428135 6.4763168456239635 a32.5001483021486,32.5001483021486 0 0,0 -0.31106804202012345,-0.46500451655390573 l 9.613266982858988 -6.311775414864237" fill="#ff8c0c" stroke="none" /><path d="M 82.44556493220864 111.52570212397912 l -6.1352091081063165 4.02818959284537 a28.33942110769633,28.33942110769633 0 0,0 -0.26422480131413517,-0.41008275930281424 l 6.203638772797497 -3.9219852336211076" fill="#ff5307" stroke="none" /><path d="M 82.24976979558568 111.22182372390057 l -5.805023794568219 3.66997796566562 a27.867826404618448,27.867826404618448 0 0,0 -0.2528479212226109,-0.4076713575416546 l 5.867336355458785 -3.5695102767587015" fill="#ff4d07" stroke="none" /><path d="M 82.05923443525364 110.91462005526583 l -19.940466356338924 12.131177636695641 a44.34068699420283,44.34068699420283 0 0,0 -0.3910830102859546,-0.6554776202919843 l 20.14633024232311 -11.786137922517547" fill="#dcff1b" stroke="none" /><line stroke="#e1ed5e" stroke-width="0.3" x1="26.63291911575756" x2="22.317208475507996" y1="142.92168965132927" y2="145.44649492493687" /><path d="M 25.769776987707644 143.4266507060508 a86.0,86.0 0 0,1 -11.730757126820373,-40.83630448921669" fill="none" id="id93" stroke="none" /><text fill="#e1ed5e" style="font-size:6.75px; font-family:Arial;" text-anchor="middle"><textPath startOffset="21.46611528233685" xlink:href="#id93">September</textPath></text><path d="M 81.87401531095188 110.60418214915194 l -6.05997878080051 3.545248432788945 a28.020835368668383,28.020835368668383 0 0,0 -0.23997577653323218,-0.41841799400409696 l 6.120106553486119 -3.440410592926541" fill="#ff4f07" stroke="none" /><path d="M 81.69416730710424 110.29060199501025 l -6.125174631302208 3.4432596068206403 a28.02664934260354,28.02664934260354 0 0,0 -0.23278613378000965,-0.422574450114027 l 6.183537174533734 -3.3373146383087904" fill="#ff4f07" stroke="none" /><path d="M 81.51974371655577 109.97397251340807 l -6.262488472331391 3.3799254150238935 a28.116365482267476,28.116365482267476 0 0,0 -0.22619949647911816,-0.4278842018325435 l 6.3197404770353955 -3.271626198105224" fill="#ff5007" stroke="none" /><path d="M 81.18737489456691 109.33194174019688 l -2.9553073311609146 1.4659706279271807 a24.298925780244026,24.298925780244026 0 0,0 -0.18264315724629374,-0.37629900104358177 l 2.980103745021927 -1.414882670918314" fill="#ff1a02" stroke="none" /><path d="M 81.02952815118164 109.00673069616217 l -6.155910405402104 2.9226804505978987 a27.814491465666755,27.814491465666755 0 0,0 -0.20162245813173774,-0.4342768376398311 l 6.205307480373669 -2.8162835456792403" fill="#ff4c07" stroke="none" /><path d="M 80.87730276802145 108.67885076344099 l -15.907232702179297 7.219509727460043 a38.46886867963042,38.46886867963042 0 0,0 -0.2684740793000703,-0.605338173734662 l 16.029147866210646 -6.944623217232685" fill="#ffda14" stroke="none" /><path d="M 80.73074385275274 108.34839909993369 l -8.749251724817485 3.7906105283152893 a30.53510010023998,30.53510010023998 0 0,0 -0.20480185182445246,-0.4840910802239865 l 8.813204557834245 -3.639444922425144" fill="#ff720a" stroke="none" /><path d="M 80.58989483394504 108.01547362559985 l -7.093185149012876 2.929156642738834 a28.674192739036325,28.674192739036325 0 0,0 -0.18446707034874288,-0.45783214057124383 l 7.142554833619006 -2.806625134324785" fill="#ff5808" stroke="none" /><path d="M 80.45479744820244 107.68017299344265 l -6.702095802016363 2.6335493347638637 a28.200949259510203,28.200949259510203 0 0,0 -0.17364495524513635,-0.4533321839497406 l 6.746435036855008 -2.517793583980965" fill="#ff5107" stroke="none" /><path d="M 80.32549172779594 107.34259656027581 l -8.208772116891565 3.063542990537154 a29.761805482999822,29.761805482999822 0 0,0 -0.17499337742057938,-0.4815066179964101 l 8.26028975531737 -2.921788575534627" fill="#ff6709" stroke="none" /><path d="M 80.20201598880116 107.00284435728193 l -6.706815426724566 2.372301368654632 a28.114013420838567,28.114013420838567 0 0,0 -0.15745075034646416,-0.45762558156935607 l 6.746657008014258 -2.256503083995979" fill="#ff5007" stroke="none" /><path d="M 80.0844068197444 106.66101706037122 l -16.815573162407073 5.6241769301534035 a38.73118346083912,38.73118346083912 0 0,0 -0.20602730094700059,-0.6340868323332379 l 16.909892714370322 -5.333891197842362" fill="#ffdd14" stroke="none" /><path d="M 79.97269907076064 106.31721596034903 l -6.459288812477273 2.037454898333878 a27.77300778279036,27.77300778279036 0 0,0 -0.13988765097133793,-0.4571609372196515 l 6.493403235954741 -1.9259669885621786" fill="#ff4b07" stroke="none" /><path d="M 79.86692584326677 105.97154293290107 l -20.82705979484673 6.177381594227697 a42.723868510438564,42.723868510438564 0 0,0 -0.20305507895484218,-0.7068613681655462 l 20.930307510687676 -5.817962750557554" fill="#efff19" stroke="none" /><path d="M 79.76711848015287 105.62410040840567 l -7.111155418940721 1.9766760387871294 a28.38077093227023,28.38077093227023 0 0,0 -0.1267835579076052,-0.47180878361541195 l 7.144127053190102 -1.8539763219961787" fill="#ff5407" stroke="none" /><path d="M 79.67330655649465 105.27499134158121 l -4.377640719234295 1.1360439392021462 a25.522646802315663,25.522646802315663 0 0,0 -0.10669521992793901,-0.42619436659358484 l 4.3965472534572925 -1.0605217332111696" fill="#ff2c04" stroke="none" /><path d="M 79.58551787078972 104.9243191809786 l -6.98178908969903 1.6841258923124123 a28.18203723982252,28.18203723982252 0 0,0 -0.10969446547176724,-0.472560886281485 l 7.009744121101352 -1.563696348682353" fill="#ff5107" stroke="none" /><path d="M 79.50377843672027 104.57218783832718 l -8.160454199601757 1.8203906184098988 a29.361030722787277,29.361030722787277 0 0,0 -0.10579193398480606,-0.4942246956287022 l 8.190580172311003 -1.6796521033650327" fill="#ff6209" stroke="none" /><path d="M 79.4281124754447 104.21870165774334 l -5.656793663369171 1.1600454638244688 a26.77451470065436,26.77451470065436 0 0,0 -0.08870022772707276,-0.45228055021306574 l 5.675923824071909 -1.0625011865434482" fill="#ff3d05" stroke="none" /><path d="M 79.35854240842038 103.8639653848113 l -7.3230247687098915 1.3708292688571402 a28.450225811845836,28.450225811845836 0 0,0 -0.08596514495309816,-0.48213818589723173 l 7.345536356002178 -1.2445723322266948" fill="#ff5507" stroke="none" /><path d="M 79.29508885075956 103.50808413554451 l -19.80148841116503 3.3550149940114493 a41.08370157385198,41.08370157385198 0 0,0 -0.11213550945511779,-0.6982679244187323 l 19.85630567498144 -3.013667839899503" fill="#fffb17" stroke="none" /><path d="M 79.23777060512086 103.15116336523772 l -5.080484568775647 0.7710846723777169 a26.138666658340792,26.138666658340792 0 0,0 -0.0636861754635614,-0.44542096286105637 l 5.0930047952558075 -0.68351823753626" fill="#ff3405" stroke="none" /><path d="M 79.18660465613746 102.79330883721812 l -11.417041119473742 1.5322498480918354 a32.519401786583,32.519401786583 0 0,0 -0.069682095266266,-0.5554348600972213 l 11.441724723986857 -1.3354972337072055" fill="#ff8d0d" stroke="none" /><path d="M 79.1416061653843 102.43462659150553 l -6.79252421608035 0.7928347796593025 a27.83863818416177,27.83863818416177 0 0,0 -0.05145866017400457,-0.47644328367173766 l 6.8051651777554065 -0.6757951741027827" fill="#ff4c07" stroke="none" /><path d="M 79.10278846688536 102.07522291339032 l -11.416886509719914 1.133767749204396 a32.47304348832343,32.47304348832343 0 0,0 -0.050449816853268645,-0.5567095250603916 l 11.43471092285026 -0.9370768355954382" fill="#ff8c0c" stroke="none" /><path d="M 79.07016306316243 101.71520430193888 l -3.9167079537032823 0.3209749962172978 a24.92983792831196,24.92983792831196 0 0,0 -0.031368195714589465,-0.4279941083780193 l 3.9216527080822075 -0.25350775134251785" fill="#ff2303" stroke="none" /><path d="M 79.04373962182676 101.35467743843564 l -28.928034163977568 1.8699975335796 a49.98841236369883,49.98841236369883 0 0,0 -0.048116582248056365,-0.8591538989307719 l 28.955937097113154 -1.3717719183133905" fill="#9bff22" stroke="none" /><path d="M 79.0235259727143 100.99374915477108 l -4.3445474876192405 0.20582059635325148 a25.349420075143566,25.349420075143566 0 0,0 -0.01689703878623626,-0.43603749076866744 l 4.347446659256677 -0.13100585857058727" fill="#ff2904" stroke="none" /><path d="M 79.0095281055655 100.63252640178507 l -12.63482680567651 0.38073758306935335 a33.640562072811605,33.640562072811605 0 0,0 -0.012459723002068778,-0.5789543683646879 l 12.639508591363587 -0.16319339891453652" fill="#ff9c0e" stroke="none" /><line stroke="#e1ed5e" stroke-width="0.3" x1="15.007084014347285" x2="10.007500721073583" y1="101.09737516637583" y2="101.16192664675087" /><path d="M 14.007167355692545 101.11028546245083 a86.0,86.0 0 0,1 10.666146001902534,-42.60595125391555" fill="none" id="id94" stroke="none" /><text fill="#e1ed5e" style="font-size:6.75px; font-family:Arial;" text-anchor="middle"><textPath startOffset="22.20632615414155" xlink:href="#id94">October</textPath></text><path d="M 79.00175016825051 100.2711162175752 l -7.213562870259595 0.09313699457316978 a28.21416410840133,28.21416410840133 0 0,0 -0.002090135789421274,-0.4856739478853872 l 7.214097303338519 0.03104643151589279" fill="#ff5207" stroke="none" /><path d="M 79.00019446554 99.90962569577889 l -2.6430692260211526 -0.01137465496611128 a23.643093701766105,23.643093701766105 0 0,0 0.005254388096253652,-0.40695814859367924 l 2.6424818308071836 0.05686906162026248" fill="#ff1001" stroke="none" /><path d="M 79.00486145842228 99.54816195383935 l -14.3591406981402 -0.3090242088541114 a35.36246558048597,35.36246558048597 0 0,0 0.018335110954384094,-0.6084530702326526 l 14.35169389273017 0.5561474265117584" fill="#ffb210" stroke="none" /><path d="M 79.01574976396665 99.18683210126434 l -8.757382803856386 -0.33936035326186464 a29.763955672106377,29.763955672106377 0 0,0 0.02424542315465843,-0.5117825626744145 l 8.750243772468227 0.49005402255928815" fill="#ff6709" stroke="none" /><path d="M 79.03285615573316 98.82574320788736 l -2.890858974567605 -0.1619014402314033 a23.895389039004442,23.895389039004442 0 0,0 0.026534588100438423,-0.4104783334270851 l 2.887643795462753 0.21163883791150023" fill="#ff1402" stroke="none" /><path d="M 79.05617556472873 98.46500227214037 l -26.07200121691868 -1.910847885132466 a47.141931586918446,47.141931586918446 0 0,0 0.06628046970712963,-0.8087896127004641 l 26.035246263392054 2.359351415040708" fill="#bbff1f" stroke="none" /><path d="M 79.12142395522702 97.74499172005258 l -4.274278581300479 -0.4616470764560375 a25.299136589335635,25.299136589335635 0 0,0 0.05048942303681162,-0.43256254320836 l 4.265698805260079 0.5351533579892592" fill="#ff2803" stroke="none" /><path d="M 79.16333360222342 97.38593545837743 l -7.3195887880165635 -0.918279207659335 a28.3769652790885,28.3769652790885 0 0,0 0.0649751440578813,-0.48414029368406775 l 7.3026976449008485 1.0441378434080621" fill="#ff5407" stroke="none" /><path d="M 79.21141760316559 97.0276538004421 l -2.836204146584934 -0.40551974422054876 a23.865048031719237,23.865048031719237 0 0,0 0.06164467659565472,-0.4061613975877053 l 2.828803576549977 0.4542802542003461" fill="#ff1402" stroke="none" /><path d="M 79.26566170972629 96.67025291283419 l -7.044391724555875 -1.131265560410861 a28.134649012892154,28.134649012892154 0 0,0 0.08090471812716438,-0.47750422614003935 l 7.023875144908487 1.2523555748667283" fill="#ff5107" stroke="none" /><path d="M 79.32604984820605 96.31383870115002 l -2.752811557573276 -0.49082576634117697 a23.79622627918654,23.79622627918654 0 0,0 0.07537089355415333,-0.40263432717410536 l 2.743954940109261 0.538138170977855" fill="#ff1302" stroke="none" /><path d="M 79.3925641242962 95.95851677861259 l -31.448471088212795 -6.167602267837134 a53.04755297242499,53.04755297242499 0 0,0 0.18344526889733928,-0.8945442804046261 l 31.33764652340046 6.708022204405163" fill="#7aff26" stroke="none" /><path d="M 79.54389044137918 95.25157060432595 l -3.5451062073453437 -0.8229173038746723 a24.639364080491927,24.639364080491927 0 0,0 0.09945761411702692,-0.4123160200193262 l 3.530415792967502 0.8838185555533953" fill="#ff1f03" stroke="none" /><path d="M 79.62865764111835 94.90015583598534 l -11.059721604812493 -2.7687353974166964 a32.401023536370076,32.401023536370076 0 0,0 0.1401015137266147,-0.5398682833929183 l 11.010423759215572 2.9587001063584784" fill="#ff8b0c" stroke="none" /><path d="M 79.71946130924805 94.55025226153421 l -4.373737907492815 -1.1753025219626099 a25.52889824367597,25.52889824367597 0 0,0 0.11769214680252531,-0.4234012711638262 l 4.352858990123929 1.2504150965453786" fill="#ff2c04" stroke="none" /><path d="M 79.81627453868168 94.20196356495316 l -7.064857483702492 -2.029471773059132 a28.350575959927962,28.350575959927962 0 0,0 0.1387748581984382,-0.46787983316766935 l 7.028876728392347 2.15078099297334" fill="#ff5407" stroke="none" /><path d="M 79.91906864156998 93.8553929516997 l -33.14583505397471 -10.142364816607571 a55.66286118453665,55.66286118453665 0 0,0 0.28823956721857436,-0.9137981966475526 l 32.966340002987934 10.71141317968154" fill="#5eff2a" stroke="none" /><path d="M 80.02781315780177 93.51064311812611 l -2.849543174306423 -0.9258727025981939 a23.996187004119204,23.996187004119204 0 0,0 0.13102227338337777,-0.3917399205865659 l 2.833183607151273 0.974785726107082" fill="#ff1502" stroke="none" /><path d="M 80.14247586403 93.16781622104843 l -6.4687528966859835 -2.225640432722812 a27.840923868466444,27.840923868466444 0 0,0 0.15981607617867946,-0.45182156842139914 l 6.429483739697495 2.3366596275708225" fill="#ff4c07" stroke="none" /><path d="M 80.2630227832202 92.82701384747504 l -4.458056468461261 -1.620186159421643 a25.743339611199133,25.743339611199133 0 0,0 0.15494476207142213,-0.4151749286623436 l 4.429507117888211 1.6966842251133278" fill="#ff2f04" stroke="none" /><path d="M 80.38941819471856 92.48833698450439 l -7.9942704158053415 -3.062135841482443 a29.560667929122815,29.560667929122815 0 0,0 0.18610052238264138,-0.4736055305094888 l 7.9403763435410095 3.1992903768876952" fill="#ff6409" stroke="none" /><path d="M 80.52162464483688 92.15188598940014 l -4.138358836837335 -1.6674035373111231 a25.46164189717948,25.46164189717948 0 0,0 0.16729306657526122,-0.4051134302790029 l 4.109044083375874 1.7383915380434372" fill="#ff2b04" stroke="none" /><path d="M 80.65960295795068 91.81776055985345 l -5.732872290233181 -2.425375945306797 a27.224811095302112,27.224811095302112 0 0,0 0.18630753700823696,-0.4300234823228549 l 5.690274043382263 2.5236985722162513" fill="#ff4406" stroke="none" /><path d="M 80.803312248108 91.48605970444005 l -26.529125020813936 -11.765956160764974 a50.02123702992378,50.02123702992378 0 0,0 0.3558598530903624,-0.7840900152735678 l 26.32266285076022 12.220868184880613" fill="#9bff22" stroke="none" /><path d="M 80.95270993114464 91.15688171328213 l -4.087386343802179 -1.8976579235730666 a25.506421276179157,25.506421276179157 0 0,0 0.1883124582519997,-0.3966340627430476 l 4.054115691708428 1.9677344019566463" fill="#ff2b04" stroke="none" /><path d="M 81.10775173730289 90.83032412892265 l -2.5435425275730847 -1.234551876400986 a23.8273179738222,23.8273179738222 0 0,0 0.18226762146046252,-0.3674404027432701 l 2.5219148931592095 1.2781518676432175" fill="#ff1302" stroke="none" /><path d="M 81.26839172434947 90.50648371742162 l -6.325632652471617 -3.205944503009484 a28.09166472772027,28.09166472772027 0 0,0 0.22231284212266014,-0.4294376502245425 l 6.269510377188842 3.3143548754943617" fill="#ff5007" stroke="none" /><path d="M 81.43458229118936 90.18545643968196 l -2.4797754738369884 -1.3109246874758629 a23.80496166406551,23.80496166406551 0 0,0 0.19462471981594368,-0.36061004744670017 l 2.4568426548025726 1.353415718255036" fill="#ff1302" stroke="none" /><path d="M 81.6062741919709 89.86733742301443 l -3.834880706781955 -2.1125438440455406 a25.378258960849983,25.378258960849983 0 0,0 0.21407450724840352,-0.3808146613194832 l 3.7979485582411203 2.1782420152998085" fill="#ff2904" stroke="none" /><line stroke="#e1ed5e" stroke-width="0.3" x1="26.266209847984243" x2="21.928928074336255" y1="57.711370442889674" y2="55.22380399835377" /><path d="M 25.398753493254645 57.213857153982495 a86.0,86.0 0 0,1 29.58750427330803,-30.492523968695096" fill="none" id="id95" stroke="none" /><text fill="#e1ed5e" style="font-size:6.75px; font-family:Arial;" text-anchor="middle"><textPath startOffset="21.46611528233685" xlink:href="#id95">November</textPath></text><path d="M 81.78341655067845 89.55222093294921 l -5.360167518869969 -3.0742233391531464 a27.179178340956227,27.179178340956227 0 0,0 0.23625219342796394,-0.4038315808420732 l 5.30645565097168 3.166034332349111" fill="#ff4306" stroke="none" /><path d="M 82.15384107792192 88.93136811851018 l -53.53847676623425 -33.20589564446946 a84.0,84.0 0 0,0 0.7726896150161493,-1.222209409143138 l 52.95895955497213 34.12255270132681" fill="#4dd2ff" stroke="none" /><path d="M 82.34701348167596 88.62581576622439 l -6.016323179055603 -3.876441426921211 a28.157020520523375,28.157020520523375 0 0,0 0.26602131474132956,-0.40516871302439583 l 5.948705228956354 3.9794282039232742" fill="#ff5107" stroke="none" /><path d="M 82.54541684631803 88.32363383020206 l -1.5433978964018549 -1.032466878493309 a22.85689658349715,22.85689658349715 0 0,0 0.22157642548284642,-0.3251360633012357 l 1.5253970052502681 1.0588809650649607" fill="#ff0500" stroke="none" /><path d="M 82.7489923806493 88.02491185347247 l -6.011552122300187 -4.173023869123933 a28.317983816011754,28.317983816011754 0 0,0 0.2814098026190318,-0.39803420888190616 l 5.938829699877276 4.275884578337625" fill="#ff5307" stroke="none" /><path d="M 82.95767976084542 87.72973835380427 l -2.7181439018073545 -1.9570302869066445 a24.34936916669429,24.34936916669429 0 0,0 0.24782716917287265,-0.3380359802380267 l 2.6840541201208485 2.003528710816172" fill="#ff1b02" stroke="none" /><path d="M 83.17141714833178 87.43820079747576 l -3.4441468253958156 -2.5709045869150358 a25.29787130448375,25.29787130448375 0 0,0 0.2634882435907002,-0.346719642820616 l 3.3993826415810067 2.6298090056166785" fill="#ff2803" stroke="none" /><path d="M 83.39014120810768 87.1503855733568 l -1.4639494636323998 -1.1325313708837588 a22.850885014825458,22.850885014825458 0 0,0 0.24335748516105188,-0.3090392928149883 l 1.4442378978773767 1.1575630576517948" fill="#ff0500" stroke="none" /><path d="M 83.6137871275137 86.86637796730984 l -5.104861558429617 -4.091569098934291 a27.542212868906546,27.542212868906546 0 0,0 0.29968748438562537,-0.36738142040974864 l 5.033675581967599 4.178834688952122" fill="#ff4806" stroke="none" /><path d="M 83.84228863543731 86.58626213691792 l -5.576971892833522 -4.629866034388728 a28.248329117102887,28.248329117102887 0 0,0 0.31381120808298757,-0.37145348921996285 l 5.496450071263411 4.725178473237807" fill="#ff5207" stroke="none" /><path d="M 84.07557802195018 86.31012108654704 l -11.028466236913411 -9.480932343576242 a35.543560280832516,35.543560280832516 0 0,0 0.40284078782140603,-0.46051665855130847 l 10.863633585514162 9.669364558330495" fill="#ffb510" stroke="none" /><path d="M 84.31358615837235 86.03803664274999 l -1.1442703422710883 -1.0184775660565601 a22.53187831395372,22.53187831395372 0 0,0 0.2603573124641093,-0.28749304722883023 l 1.1265693891909339 1.0380234005549465" fill="#ff0000" stroke="none" /><path d="M 84.5562425177563 85.77008943001954 l -1.9195118379162066 -1.7686422376789452 a23.610099818168347,23.610099818168347 0 0,0 0.27796134317098153,-0.2965097806006181 l 1.8887831727747693 1.8014214351576134" fill="#ff1001" stroke="none" /><path d="M 84.80347519578584 85.50635884689758 l -4.683320760130995 -4.466703498117547 a27.471857035068798,27.471857035068798 0 0,0 0.32931657896027194,-0.3393896823630985 l 4.605739917467604 4.546657376030769" fill="#ff4706" stroke="none" /><path d="M 85.05521093208273 85.24692304244772 l -5.286626647017084 -5.218809674384986 a28.428620041596247,28.428620041596247 0 0,0 0.3467807002525231,-0.3452915137190952 l 5.196010146597248 5.309037038754191" fill="#ff5507" stroke="none" /><path d="M 85.83668400450813 84.49514656593479 l -4.871412372343199 -5.332828475627764 a28.222860794164923,28.222860794164923 0 0,0 0.3615066405828001,-0.32456423129321377 l 4.778894744164428 5.415891715690257" fill="#ff5207" stroke="none" /><path d="M 86.10567301691215 84.25364557470407 l -4.242474739072635 -4.807970257437857 a27.412111189622063,27.412111189622063 0 0,0 0.35649607419380747,-0.3091498825702185 l 4.159084866232054 4.880285133427756" fill="#ff4606" stroke="none" /><path d="M 86.37877921826538 84.01681056812374 l -1.8729649399700912 -2.197743793636129 a23.887572587628455,23.887572587628455 0 0,0 0.315250509666828,-0.26401323572665997 l 1.834856893344153 2.229658186756601" fill="#ff1402" stroke="none" /><path d="M 86.65592168130627 83.78471172551755 l -4.582327770879054 -5.56829508928153 a28.21135479650573,28.21135479650573 0 0,0 0.3776245692947066,-0.3053461396744748 l 4.485799803019847 5.646347326220139" fill="#ff5207" stroke="none" /><path d="M 86.93701828274178 83.55741782278169 l -3.7180474079499026 -4.679965215234275 a26.977118950093413,26.977118950093413 0 0,0 0.3660762217318265,-0.2857282976665012 l 3.6369386310586505 4.743271902123999" fill="#ff4006" stroke="none" /><path d="M 87.22198572758235 83.33499621200491 l -5.435647241166042 -7.089136068643479 a29.93320273642874,29.93320273642874 0 0,0 0.4115870200225564,-0.30999881038720073 l 5.312814067385096 7.1816514685365345" fill="#ff6a09" stroke="none" /><path d="M 87.51073957382395 83.11751280151077 l -3.399638310574691 -4.5954963143757395 a26.716303614939303,26.716303614939303 0 0,0 0.37206229151920917,-0.27031907785583453 l 3.3200307027017 4.653334627048242" fill="#ff3d05" stroke="none" /><path d="M 88.09926311788651 82.69761687909137 l -2.997536975029967 -4.358094265491166 a26.28944359489529,26.28944359489529 0 0,0 0.37505685179498555,-0.25324006054968884 l 2.922075428828442 4.409046238339521" fill="#ff3605" stroke="none" /><path d="M 88.39885842347998 82.49532879139004 l -1.9145833259499763 -2.888866703434752 a24.465714953976978,24.465714953976978 0 0,0 0.3530437318484517,-0.2296294637445245 l 1.8645725683172376 2.9213950913388116" fill="#ff1c02" stroke="none" /><path d="M 88.70189139769569 82.29822771554957 l -1.638111606721624 -2.5665781467870823 a24.04478784476704,24.04478784476704 0 0,0 0.35080297528139676,-0.21967279093848482 l 1.593689479067985 2.594395279048497" fill="#ff1602" stroke="none" /><path d="M 89.00827224532344 82.1063720568725 l -3.7006772847940885 -6.024397979063416 a28.070246344812485,28.070246344812485 0 0,0 0.4138863370937773,-0.24936188709316998 l 3.5964288814826624 6.087206475615204" fill="#ff5007" stroke="none" /><line stroke="#e1ed5e" stroke-width="0.3" x1="56.762969772571076" x2="54.21961505331055" y1="26.818313649435495" y2="22.513508569990535" /><path d="M 56.25429882871897 25.957352633546506 a86.0,86.0 0 0,1 42.265352541879196,-11.944610805530505" fill="none" id="id96" stroke="none" /><text fill="#e1ed5e" style="font-size:6.75px; font-family:Arial;" text-anchor="middle"><textPath startOffset="22.20632615414155" xlink:href="#id96">December</textPath></text><path d="M 89.3179101791058 81.91981866633112 l -8.573646936986309 -14.511494839554809 a37.85499641882254,37.85499641882254 0 0,0 0.5638650748724425,-0.32662704633834744 l 8.322585129648546 14.656926043283203" fill="#ffd213" stroke="none" /><path d="M 89.63071344664047 81.73862282372117 l -2.840927117222287 -5.0031640413203196 a26.753478713763492,26.753478713763492 0 0,0 0.40241806948579434,-0.22394521998004666 l 2.7543849586644473 5.051324658860551" fill="#ff3d05" stroke="none" /><path d="M 89.94658935756843 81.56283822128135 l -3.3863839484012006 -6.21036093343423 a28.073625602865576,28.073625602865576 0 0,0 0.4262578373992133,-0.22769217449491222 l 3.278981064473682 6.267731834430891" fill="#ff5007" stroke="none" /><path d="M 90.26544431104013 81.39251694778311 l -1.2015374203345233 -2.2967239491818994 a23.592032613839926,23.592032613839926 0 0,0 0.36145186047461153,-0.18514968180152264 l 1.161825072271148 2.317066156295927" fill="#ff1001" stroke="none" /><path d="M 90.58718382345135 81.22770947309562 l -1.8836974466833307 -3.7567201006248983 a25.202530426431252,25.202530426431252 0 0,0 0.3894735841629011,-0.19111299628352993 l 1.8187525955100037 3.788588257043258" fill="#ff2703" stroke="none" /><path d="M 90.91171255644093 81.06846463323043 l -2.123231550723956 -4.422839115069888 a25.906079703366206,25.906079703366206 0 0,0 0.4036682732738285,-0.18952766690266734 l 2.046785066150519 4.458731764612563" fill="#ff3104" stroke="none" /><path d="M 91.23893434514133 80.91482961587045 l -1.8755174848038587 -4.085641195491435 a25.49555667455118,25.49555667455118 0 0,0 0.40042335671003626,-0.17965828809510423 l 1.804912009627048 4.117319814103069" fill="#ff2b04" stroke="none" /><path d="M 91.56875222667455 80.76684994638697 l -2.866028188062182 -6.537911312875948 a28.1385153855545,28.1385153855545 0 0,0 0.44528027115652696,-0.19064577388014753 l 2.753064159115347 6.586276614718881" fill="#ff5107" stroke="none" /><path d="M 91.90106846888425 80.62456947434976 l -1.1078680763948798 -2.650401582394605 a23.872629496237675,23.872629496237675 0 0,0 0.3805025794157602,-0.15521655599448064 l 1.0620816273907392 2.6690790245726626" fill="#ff1402" stroke="none" /><path d="M 92.23578459929587 80.48803036053334 l -1.567707783618352 -3.9397498779777194 a25.240204805884147,25.240204805884147 0 0,0 0.40506542563995396,-0.157159092079339 l 1.4996591929787217 3.9661516739476097" fill="#ff2703" stroke="none" /><path d="M 92.57280143429618 80.3572730644239 l -2.046368759763699 -5.412035561179697 a26.785996371966583,26.785996371966583 0 0,0 0.43268016148394745,-0.15935975501262903 l 1.9529062725071817 5.446458583998648" fill="#ff3e05" stroke="none" /><path d="M 92.91201910852362 80.23233633223022 l -1.1661535513514778 -3.252284612647947 a24.455035355390198,24.455035355390198 0 0,0 0.39747350752682314,-0.1386707021792052 l 1.1099980397613693 3.2718761679993618" fill="#ff1c02" stroke="none" /><path d="M 93.59665428221793 80.00007090966166 l -2.2515440898385664 -7.032374031514727 a28.384018913004603,28.384018913004603 0 0,0 0.46659897666783384,-0.14497457333812983 l 2.130159740460004 7.0700887397353815" fill="#ff5407" stroke="none" /><path d="M 94.28887869178378 79.79150937346287 l -0.6390473955112517 -2.2612342839790975 a23.349800429983826,23.349800429983826 0 0,0 0.38772022362572345,-0.10597858333320954 l 0.6000292826618057 2.271899408138603" fill="#ff0c01" stroke="none" /><path d="M 94.98787191387505 79.60689891045804 l -1.0200491056107408 -4.150325803644699 a25.273839544748526,25.273839544748526 0 0,0 0.4233684805405783,-0.10019764085695348 l 0.9484569381076284 4.167269356642524" fill="#ff2803" stroke="none" /><path d="M 95.33964822691252 79.52364482259891 l -1.1570230608838148 -5.083653830578772 a26.213658852722833,26.213658852722833 0 0,0 0.4408354452569779,-0.09634955375952153 l 1.069344891473316 5.102816882434162" fill="#ff3505" stroke="none" /><path d="M 96.40284397218896 79.31037775812273 l -0.7514846579655606 -4.322285042313033 a25.387126300684834,25.387126300684834 0 0,0 0.4311831662627445,-0.07114891695328501 l 0.6769722855639304 4.334580222205945" fill="#ff2a04" stroke="none" /><path d="M 96.75951476605007 79.25152402106235 l -1.0884024154112484 -6.968922781990683 a28.05340375699717,28.05340375699717 0 0,0 0.4777508280029368,-0.07040805314538798 l 0.9682826069796628 6.98662531929704" fill="#ff4f07" stroke="none" /><path d="M 97.47563105711357 79.15227682838746 l -0.8379637485653979 -6.920397395621155 a27.970945657314353,27.970945657314353 0 0,0 0.4784807149727416,-0.053762883427771316 l 0.7187163300829383 6.933796232519525" fill="#ff4e07" stroke="none" /><path d="M 97.83486435360386 79.11191278185805 l -0.4075543684001108 -3.931869676362383 a24.952935581956787,24.952935581956787 0 0,0 0.42761592958486755,-0.040607285060054746 l 0.3398133117250069 3.938302505937618" fill="#ff2303" stroke="none" /><path d="M 98.19473922651362 79.07773832637324 l -0.4893032124620513 -5.670831604625492 a26.691902030230757,26.691902030230757 0 0,0 0.45809635029879026,-0.03555709338033139 l 0.3916166728009269 5.678413960194285" fill="#ff3c05" stroke="none" /><path d="M 98.55514903715128 79.0497635885617 l -0.19692805008212466 -2.8554427490083345 a23.86222534922976,23.86222534922976 0 0,0 0.41001888119729896,-0.024733458626814663 l 0.1477471200452027 2.8584094770154556" fill="#ff1402" stroke="none" /><path d="M 98.91598698831166 79.02799685794201 l -0.45515106847620707 -8.805641201047182 a29.81739641031947,29.81739641031947 0 0,0 0.5128012413270732,-0.022082300157611964 l 0.30350899475980986 8.812171227728987" fill="#ff6809" stroke="none" /><path d="M 99.63851952072746 79.00311137660856 l -0.09485476524602393 -5.509716445205559 a26.51053289011675,26.51053289011675 0 0,0 0.45633524451855834,-0.003927821519749515 l 1.3496912930955381e-15 5.51053289011675" fill="#ff3a05" stroke="none" /></svg>