<?xml version="1.0" encoding="utf-8" ?>
<svg baseProfile="full" height="200mm" version="1.1" viewBox="0,0,200,200" width="200mm" xmlns="http://www.w3.org/2000/svg" xmlns:ev="http://www.w3.org/2001/xml-events" xmlns:xlink="http://www.w3.org/1999/xlink"><defs /><rect fill="#1a1a1a" height="200" width="200" x="0" y="0" /><text alignment-baseline="middle" fill="#e1ed5e" style="dominant-baseline: central; font-size:9.0px; font-family:Arial;" text-anchor="middle" x="100.0" y="100.0">2018</text><line stroke="#e1ed5e" stroke-width="0.3" x1="100.0" x2="100.0" y1="15.0" y2="10.0" /><path d="M 100.0 14.0 a86.0,86.0 0 0,1 42.46469731375804,11.215312516191453" fill="none" id="id73" stroke="none" /><text fill="#e1ed5e" style="font-size:6.75px; font-family:Arial;" text-anchor="middle"><textPath startOffset="22.20632615414155" xlink:href="#id73">January</textPath></text><path d="M 100.0 79.0 l 0.0 -27.21877601815835 a48.21877601815835,48.21877601815835 0 0,0 0.83000696499898,0.0071441319902970125 l -0.46852648572645156 27.21474326277661" fill="#ceff1d" stroke="none" /><path d="M 100.36148047927253 79.00311137660856 l 0.23437296048552544 -13.613744669014256 a34.61576199107934,34.61576199107934 0 0,0 0.5956768755242831,0.015384576276826196 l -0.46867647120467626 13.60769330059507" fill="#ff770b" stroke="none" /><path d="M 100.72285384407766 79.0124445844662 l 0.5607434982528737 -16.28079499044359 a37.290448698292074,37.290448698292074 0 0,0 0.6413232100811191,0.027616726485301127 l -0.8409075407233243 16.268730537434095" fill="#ff9e0e" stroke="none" /><path d="M 101.08401301168833 79.027996857942 l 0.8334688453507899 -16.124816819569556 a37.14634286087235,37.14634286087235 0 0,0 0.638276678619928,0.03850259231235586 l -1.11090757281033 16.108080957876894" fill="#ff9c0e" stroke="none" /><path d="M 101.44485096284872 79.0497635885617 l 1.1076160867838054 -16.06035464410909 a37.09850318167061,37.09850318167061 0 0,0 0.636698309840309,0.04942004284322143 l -1.3839045859864556 16.038909339077403" fill="#ff9b0e" stroke="none" /><path d="M 101.80526077348638 79.07773832637324 l 1.3414165184402855 -15.54648936282603 a36.60425357985467,36.60425357985467 0 0,0 0.6272833859526987,0.05956811592951771 l -1.6088250314832284 15.521095702381333" fill="#ff940d" stroke="none" /><path d="M 102.16513564639614 79.11191278185805 l 3.372398578419149 -32.53512349566152 a53.70943798125657,53.70943798125657 0 0,0 0.9187723075546078,0.10323477398777713 l -3.931937589483482 32.47225276820314" fill="#8bff24" stroke="none" /><path d="M 102.52436894288641 79.15227682838746 l 1.9751770043204084 -16.312173193639147 a37.431321264514175,37.431321264514175 0 0,0 0.6389798745628285,0.08295792656344746 l -2.255671607391083 16.275756943911563" fill="#ffa00e" stroke="none" /><path d="M 102.88285421437855 79.19881850522331 l 2.2256147702461515 -16.058882389002637 a37.21237381413829,37.21237381413829 0 0,0 0.6337285327533461,0.09339511226042904 l -2.5017122834281533 16.01819279258124" fill="#ff9d0e" stroke="none" /><path d="M 103.2404852339499 79.25152402106235 l 2.6898254056368565 -17.22266073972035 a38.43144296001665,38.43144296001665 0 0,0 0.6527320604656036,0.10770638280093489 l -2.9858866722413353 17.17380809397979" fill="#ffae10" stroke="none" /><path d="M 103.59715602781102 79.31037775812273 l 2.799238676967161 -16.100272088154572 a37.341802179785375,37.341802179785375 0 0,0 0.6323298591400958,0.1155542400071093 l -3.0759636572101576 16.049702366796723" fill="#ff9f0e" stroke="none" /><path d="M 103.95276090670814 79.375362276772 l 2.920861605456297 -15.240413947119245 a36.51778495139611,36.51778495139611 0 0,0 0.616339506601462,0.12363190680321517 l -3.1827675215248843 15.187878084238822" fill="#ff930d" stroke="none" /><path d="M 104.307194497241 79.44645832069477 l 8.67051472086862 -41.37491023694331 a63.273644539357086,63.273644539357086 0 0,0 1.0640737113522547,0.23256529927229982 l -9.381431156374402 41.219531439575135" fill="#31ff40" stroke="none" /><path d="M 104.66035177308747 79.52364482259891 l 3.544588251304776 -15.573984867514698 a36.97226065793019,36.97226065793019 0 0,0 0.6193316923289156,0.14657580176981075 l -3.812143630596215 15.510663153604018" fill="#ff990e" stroke="none" /><path d="M 105.01212808612495 79.60689891045804 l 3.9765406953959554 -16.179553873010406 a37.661057572428774,37.661057572428774 0 0,0 0.6282063671592061,0.1601437905871267 l -4.254455951240186 16.108707086254412" fill="#ffa30f" stroke="none" /><path d="M 105.36241919743992 79.69619591428918 l 5.565185547244989 -21.071541200254607 a42.79406200618168,42.79406200618168 0 0,0 0.7105895119165215,0.19423095628110748 l -5.927072948385222 20.972623703147207" fill="#ffea16" stroke="none" /><path d="M 105.71112130821622 79.79150937346287 l 5.458309663862658 -19.31393043958252 a41.070402422762946,41.070402422762946 0 0,0 0.6786586382254381,0.19811906654320072 l -5.789958519811524 19.217113044120616" fill="#ffd313" stroke="none" /><path d="M 106.0581310904928 79.89281104454417 l 6.617308167492443 -21.96312092174098 a43.93834013189661,43.93834013189661 0 0,0 0.7222932243972562,0.22442002076348397 l -6.994386764600417 21.845960766094976" fill="#fff917" stroke="none" /><path d="M 106.40334571778207 80.00007090966166 l 6.606343134035102 -20.63396231445556 a42.66573724568322,42.66573724568322 0 0,0 0.6975181189587873,0.22996075717013698 l -6.960544075236307 20.51718783302619" fill="#ffe815" stroke="none" /><path d="M 106.74666289553966 80.11325718540242 l 16.438877355592805 -48.45591534557274 a72.16847096298201,72.16847096298201 0 0,0 1.1729713275668023,0.40922666429229604 l -17.27053068722288 48.16576782810824" fill="#3dffae" stroke="none" /><path d="M 107.08798089147638 80.2323363322302 l 7.001523175300673 -19.5265418192473 a41.74384636929916,41.74384636929916 0 0,0 0.6742976418428829,0.24834951212262163 l -7.3366031429161325 19.403129039318355" fill="#ffdc14" stroke="none" /><path d="M 107.4271985657038 80.35727306442388 l 7.8556311365301426 -20.7758034144936 a43.211369792763925,43.211369792763925 0 0,0 0.6934742420755378,0.26905723215654825 l -8.212088543605347 20.637503478446504" fill="#fff016" stroke="none" /><path d="M 107.76421540070413 80.48803036053334 l 8.073311824752203 -20.288748712487568 a42.83601813834541,42.83601813834541 0 0,0 0.6827574396908868,0.27851390266827647 l -8.421353134031477 20.146773923635713" fill="#ffeb16" stroke="none" /><path d="M 108.09893153111575 80.62456947434976 l 8.367635481373702 -20.018262817809834 a42.69673177674582,42.69673177674582 0 0,0 0.6756579742230003,0.2892814834115002 l -8.710977213387018 19.871261806435545" fill="#ffe915" stroke="none" /><path d="M 108.43124777332544 80.76684994638697 l 8.901704973620618 -20.306345169015398 a43.171783995893904,43.171783995893904 0 0,0 0.67803934950169,0.30421649174876597 l -9.249926441589087 20.150108346750102" fill="#ffef16" stroke="none" /><path d="M 108.76106565485865 80.91482961587045 l 6.728821513870622 -14.658114678709062 a37.128774438862806,37.128774438862806 0 0,0 0.5785401897208787,0.2716323764509573 l -6.980139914891099 14.540117319618101" fill="#ff9c0e" stroke="none" /><path d="M 109.08828744355905 81.06846463323043 l 9.785216722209034 -20.383287566382258 a43.6103710344265,43.6103710344265 0 0,0 0.6739437360479712,0.33070126437322905 l -10.134631725267438 20.211831141874196" fill="#fff517" stroke="none" /><path d="M 109.41281617654863 81.2277094730956 l 24.076843265688215 -48.01724460319445 a74.71545551257591,74.71545551257591 0 0,0 1.1447102012476285,0.5863650258644689 l -24.899813954524596 47.595687052017475" fill="#41ffcb" stroke="none" /><path d="M 109.73455568895987 81.39251694778311 l 9.065211386358849 -17.328039679072333 a40.55604808234208,40.55604808234208 0 0,0 0.6157855630614647,0.32893132178288553 l -9.362141995948624 17.169429630787693" fill="#ffcc13" stroke="none" /><path d="M 110.05341064243156 81.56283822128135 l 7.762536682713031 -14.235879715125495 a37.21472315563812,37.21472315563812 0 0,0 0.5597730750818676,0.31151311022961015 l -8.006433846866933 14.100151207335704" fill="#ff9d0e" stroke="none" /><path d="M 110.36928655335952 81.73862282372117 l 9.859180700810763 -17.363028449460966 a40.96692768124406,40.96692768124406 0 0,0 0.6102185161690349,0.35347795144494865 l -10.156595949445126 17.190746340625967" fill="#ffd113" stroke="none" /><line stroke="#e1ed5e" stroke-width="0.3" x1="143.23703022742887" x2="145.7803849466894" y1="26.81831364943548" y2="22.513508569990506" /><path d="M 143.74570117128098 25.957352633546492 a86.0,86.0 0 0,1 28.547481713284135,27.462654790039103" fill="none" id="id74" stroke="none" /><text fill="#e1ed5e" style="font-size:6.75px; font-family:Arial;" text-anchor="middle"><textPath startOffset="19.985693538727396" xlink:href="#id74">February</textPath></text><path d="M 110.68208982089419 81.91981866633111 l 13.65770552267865 -23.11661824532479 a47.849785087487945,47.849785087487945 0 0,0 0.705528980305708,0.42507331641654755 l -14.053596569201996 22.878098319449627" fill="#d2ff1c" stroke="none" /><path d="M 110.99172775467656 82.1063720568725 l 14.897555866805593 -24.25199458103024 a49.4621926766529,49.4621926766529 0 0,0 0.7216318341809214,0.45188578836146126 l -15.312806853358778 23.991964451345833" fill="#beff1f" stroke="none" /><path d="M 111.2981086023043 82.29822771554956 l 33.894325806912875 -53.10531685335132 a84.0,84.0 0 0,0 1.2121318968628794,0.7884043033618879 l -34.803424729560035 52.514013625829904" fill="#4dd2ff" stroke="none" /><path d="M 111.60114157652 82.49532879139004 l 14.180583168241458 -21.396725854015113 a46.6692192375088,46.6692192375088 0 0,0 0.6658037618699783,0.44955367209856056 l -14.54679162451798 21.149460269617883" fill="#e1ff1b" stroke="none" /><path d="M 111.90073688211348 82.69761687909136 l 14.001848514130417 -20.357171979537586 a45.70761447038395,45.70761447038395 0 0,0 0.6444095870760191,0.45145009725048096 l -14.350189240790089 20.11313703952317" fill="#eeff19" stroke="none" /><path d="M 112.19680574252982 82.90503203632743 l 15.463392480188498 -21.67339585779842 a47.62428581211492,47.62428581211492 0 0,0 0.663235497193277,0.48186879479369304 l -15.834173293735564 21.40400782818805" fill="#d5ff1c" stroke="none" /><path d="M 112.48926042617603 83.11751280151076 l 9.658164380289291 -13.05552378180833 a37.239668728581,37.239668728581 0 0,0 0.5120522656257825,0.38566715051258293 l -9.881462799673457 12.8873400417899" fill="#ff9d0e" stroke="none" /><path d="M 112.77801427241765 83.33499621200491 l 16.6201883482759 -21.675942433331233 a48.3144126992556,48.3144126992556 0 0,0 0.6556207017085542,0.5117223569667785 l -16.990841605143885 21.38664168714123" fill="#ccff1d" stroke="none" /><path d="M 113.06298171725822 83.55741782278167 l 16.721455838984486 -21.047561552657317 a47.88134916048685,47.88134916048685 0 0,0 0.6409183105314195,0.5182447009021879 l -17.081277548080397 20.756610754491" fill="#d2ff1c" stroke="none" /><path d="M 113.34407831869373 83.78471172551755 l 17.203379711580475 -20.904985316810382 a48.07350521445046,48.07350521445046 0 0,0 0.6344385543876913,0.5313240438236259 l -17.560675802927282 20.60576011559294" fill="#cfff1d" stroke="none" /><path d="M 113.6212207817346 84.01681056812373 l 35.6106953249993 -41.785717910359914 a75.90143752957749,75.90143752957749 0 0,0 0.9871025371882305,0.8560055931797094 l -36.3246916608343 41.16654732376053" fill="#42ffd8" stroke="none" /><path d="M 113.89432698308785 84.25364557470407 l 17.146660750968465 -19.432204073194832 a46.915603987773316,46.915603987773316 0 0,0 0.6009419991908941,0.5395316603444933 l -17.47861373775535 19.13417340408104" fill="#deff1b" stroke="none" /><path d="M 114.16331599549186 84.49514656593476 l 17.113851264793958 -18.7348609349309 a46.37476934603918,46.37476934603918 0 0,0 0.5847463482696944,0.5434580027574565 l -17.433805496858497 18.437498346098803" fill="#e5ff1a" stroke="none" /><path d="M 114.42810811169701 84.74124197986012 l 17.43411233472526 -18.437822849126093 a46.37521594618607,46.37521594618607 0 0,0 0.5753105159559073,0.5534482605316584 l -17.748906094293584 18.134991501832133" fill="#e5ff1a" stroke="none" /><path d="M 114.68862486808459 84.99185889309783 l 8.929713237565622 -9.12395799587421 a33.76661223722377,33.76661223722377 0 0,0 0.4118951049908915,0.4101262965102273 l -9.085444142723837 8.968895848713865" fill="#ff6b09" stroke="none" /><path d="M 114.94478906791727 85.2469230424477 l 9.36134180560079 -9.241254289795549 a34.15429592376398,34.15429592376398 0 0,0 0.4094217539081251,0.4219451065905314 l -9.519027823212026 9.078744987654904" fill="#ff710a" stroke="none" /><path d="M 115.19652480421416 85.50635884689758 l 9.99794862824053 -9.535514306842483 a34.816114137807865,34.816114137807865 0 0,0 0.4098895779462984,0.4372416230287747 l -10.16060552815729 9.362003266935654" fill="#ff7a0b" stroke="none" /><path d="M 115.4437574822437 85.77008943001954 l 5.901037216711033 -5.437228081344163 a29.02406938165207,29.02406938165207 0 0,0 0.3353750005075848,0.3703294520432807 l -5.993755857834652 5.334845842031332" fill="#ff2303" stroke="none" /><path d="M 115.68641384162765 86.03803664274999 l 7.748608955557595 -6.896783127068694 a31.373358098897715,31.373358098897715 0 0,0 0.3555768806868318,0.40648584230401563 l -7.866177699822275 6.762381728561731" fill="#ff4706" stroke="none" /><path d="M 115.9244219780498 86.31012108654704 l 17.786768025081656 -15.290897268402135 a44.45593008283609,44.45593008283609 0 0,0 0.49386174551830675,0.5845765346804456 l -18.04734038408708 14.982461784092584" fill="#feff18" stroke="none" /><path d="M 116.15771136456269 86.58626213691792 l 15.54820033358699 -12.907736672090609 a41.2078252073148,41.2078252073148 0 0,0 0.4483833427677715,0.549664960790058 l -15.768082168431171 12.638187541692451" fill="#ffd513" stroke="none" /><path d="M 116.38621287248628 86.86637796730983 l 5.790424667105445 -4.641050960238731 a28.42080668397689,28.42080668397689 0 0,0 0.30267606862377255,0.38436786991617916 l -5.869454816323182 4.540690696369514" fill="#ff1a02" stroke="none" /><path d="M 116.60985879189232 87.15038557335679 l 21.217899002937855 -16.414457494623132 a47.82598838704104,47.82598838704104 0 0,0 0.4981283020384771,0.6554784555393954 l -21.497303245200445 16.046794263202706" fill="#d2ff1c" stroke="none" /><path d="M 116.82858285166822 87.43820079747576 l 8.719628183161156 -6.508820102263314 a31.88102268981208,31.88102268981208 0 0,0 0.32448411905305874,0.44259597372578463 l -8.830374914727841 6.357761684866036" fill="#ff4f07" stroke="none" /><path d="M 117.04232023915458 87.72973835380427 l 17.91284584897845 -12.897029413281356 a43.07268479583553,43.07268479583553 0 0,0 0.4280345594312401,0.6054245291091588 l -18.13219302821357 12.586778383840404" fill="#ffee16" stroke="none" /><path d="M 117.2510076193507 88.02491185347247 l 7.725549068624501 -5.36282477629467 a30.404466917000924,30.404466917000924 0 0,0 0.294743123746942,0.4324991647074308 l -7.816716658040177 5.229047588316833" fill="#ff3805" stroke="none" /><path d="M 117.45458315368197 88.32363383020206 l 5.699682657647728 -3.8128428033128468 a27.857415886517664,27.857415886517664 0 0,0 0.26319071629136664,0.4008575173889052 l -5.76447000929702 3.714167221946268" fill="#ff1101" stroke="none" /><line stroke="#e1ed5e" stroke-width="0.3" x1="172.23445277983987" x2="176.4835382374775" y1="55.19839476539836" y2="52.563006222186495" /><path d="M 173.08426987136738 54.67131705675599 a86.0,86.0 0 0,1 12.851231095245387,41.99856678651699" fill="none" id="id75" stroke="none" /><text fill="#e1ed5e" style="font-size:6.75px; font-family:Arial;" text-anchor="middle"><textPath startOffset="22.20632615414155" xlink:href="#id75">March</textPath></text><path d="M 117.84615892207809 88.93136811851018 l 37.630075055204784 -23.339109008135726 a65.28020503513943,65.28020503513943 0 0,0 0.5840532957494665,0.9600300517381145 l -38.026244149240476 22.68791118319053" fill="#34ff5a" stroke="none" /><path d="M 118.03404312379186 89.2402003453031 l 13.79336995389539 -8.229651900478792 a37.06188734514342,37.06188734514342 0 0,0 0.3221566181298351,0.5506700889859705 l -13.93298624649555 7.991002399138926" fill="#ff9b0e" stroke="none" /><path d="M 118.21658344932153 89.55222093294921 l 9.5126509868462 -5.4558021886498915 a31.96614363936671,31.96614363936671 0 0,0 0.26964562300296707,0.4796694754551167 l -9.6051542511416 5.291249203259981" fill="#ff5007" stroke="none" /><path d="M 118.89224826269711 90.83032412892265 l 22.60280905744914 -10.970660026837413 a46.124536985026275,46.124536985026275 0 0,0 0.34053483439862814,0.7172532084537492 l -22.788302085689523 10.579964402743125" fill="#e8ff1a" stroke="none" /><path d="M 119.04729006885535 91.15688171328212 l 5.244102991592764 -2.4346887612224397 a26.781723406602485,26.781723406602485 0 0,0 0.19052987736547186,0.41980732908251966 l -5.285235185921583 2.3440594232978573" fill="#ff0000" stroke="none" /><path d="M 119.196687751892 91.48605970444005 l 14.942180222061959 -6.627019824479553 a37.34582948469195,37.34582948469195 0 0,0 0.25556869740863636,0.5898877898188186 l -15.054039629313277 6.368832890074131" fill="#ff9f0e" stroke="none" /><path d="M 119.34039704204932 91.81776055985345 l 15.595888441464188 -6.598069999929657 a37.93417444112845,37.93417444112845 0 0,0 0.24924254279769661,0.6035605871257796 l -15.707152671148082 6.328634842350574" fill="#ffa70f" stroke="none" /><path d="M 119.47837535516314 92.15188598940014 l 9.98968223191274 -4.024984818096404 a31.770062854064484,31.770062854064484 0 0,0 0.20000986809386279,0.5090032981796891 l -10.057485649888303 3.8524325150209306" fill="#ff4d07" stroke="none" /><path d="M 119.7369772167798 92.82701384747503 l 10.15252162596392 -3.6897188579787548 a31.80220906188124,31.80220906188124 0 0,0 0.18255515837391142,0.516108015865055 l -10.214529865147643 3.5144132156870853" fill="#ff4e07" stroke="none" /><path d="M 120.53481517161879 95.60439243477599 l 10.57087493668182 -2.2627628958129367 a31.81034193953344,31.81034193953344 0 0,0 0.11000425851588673,0.536419831740704 l -10.608258491112704 2.080467407908821" fill="#ff4e07" stroke="none" /><path d="M 120.6074358757038 95.95851677861258 l 15.383984017380074 -3.017071782212233 a36.67704329221639,36.67704329221639 0 0,0 0.1161689039861202,0.6205789302656735 l -15.433638645276053 2.7518147744839965" fill="#ff950d" stroke="none" /><line stroke="#e1ed5e" stroke-width="0.3" x1="184.98032266829074" x2="189.97916517819016" y1="98.17113171792111" y2="98.06355123074" /><path d="M 185.9800911702706 98.14961562048488 a86.0,86.0 0 0,1 -9.607161424134198,41.387399972396054" fill="none" id="id76" stroke="none" /><text fill="#e1ed5e" style="font-size:6.75px; font-family:Arial;" text-anchor="middle"><textPath startOffset="21.466115282336823" xlink:href="#id76">April</textPath></text><line stroke="#e1ed5e" stroke-width="0.3" x1="174.80103733775053" x2="179.2010983576182" y1="140.37084112569926" y2="142.7455964860345" /><path d="M 175.68104954172406 140.8457921977663 a86.0,86.0 0 0,1 -30.038265399797805,32.042727171017184" fill="none" id="id77" stroke="none" /><text fill="#e1ed5e" style="font-size:6.75px; font-family:Arial;" text-anchor="middle"><textPath startOffset="22.206326154141568" xlink:href="#id77">May</textPath></text><path d="M 118.30583269289576 110.29060199501025 l 7.099298197720696 3.9908620067848246 a29.144139884441998,29.144139884441998 0 0,0 -0.2495959705748911,0.4351916132042928 l -7.029550230993426 -4.112473465847433" fill="#ff2503" stroke="none" /><line stroke="#e1ed5e" stroke-width="0.3" x1="143.8653032363475" x2="146.44561519142675" y1="172.8068346515853" y2="177.08958963109032" /><path d="M 144.38136562736335 173.6633856474863 a86.0,86.0 0 0,1 -40.68145358897372,12.25698825130547" fill="none" id="id78" stroke="none" /><text fill="#e1ed5e" style="font-size:6.75px; font-family:Arial;" text-anchor="middle"><textPath startOffset="21.466115282336833" xlink:href="#id78">June</textPath></text><path d="M 107.2578585660854 119.70592522655815 l 2.7510217271873127 7.46934208747326 a28.95984872740406,28.95984872740406 0 0,0 -0.4692604785265462,0.16826011211149292 l -2.6220416880310315 -7.515589740624713" fill="#ff2203" stroke="none" /><path d="M 104.83641907484287 120.43548508189849 l 1.6642391108852144 7.031965798851246 a28.22621856951571,28.22621856951571 0 0,0 -0.47377015736130096,0.10782854535222715 l -1.5429488041310513 -7.0595710777811576" fill="#ff1702" stroke="none" /><path d="M 104.48393922423573 120.51570834832081 l 2.5815660998011527 11.811635826634072 a33.09046005860274,33.09046005860274 0 0,0 -0.5575089197125606,0.11683141468346002 l -2.3778657186592143 -11.854323222044075" fill="#ff6108" stroke="none" /><path d="M 103.7750983002368 120.6578951692458 l 1.90703607971487 10.435582939985434 a31.608401288914806,31.608401288914806 0 0,0 -0.5360649823414853,0.09320176849943168 l -1.7271221259013347 -10.466863287005872" fill="#ff4b06" stroke="none" /><path d="M 102.70371172650421 120.8252237178851 l 0.7662503566737571 5.90201053803633 a26.95154332927137,26.95154332927137 0 0,0 -0.4605795146341904,0.05576976501948965 l -0.6645434189881864 -5.914325831781171" fill="#ff0300" stroke="none" /><line stroke="#e1ed5e" stroke-width="0.3" x1="102.19456741930631" x2="102.32365962044197" y1="184.97166512339345" y2="189.96999836594603" /><path d="M 102.22038585953345 185.97133177190398 a86.0,86.0 0 0,1 -42.740103519485714,-10.115201625700543" fill="none" id="id79" stroke="none" /><text fill="#e1ed5e" style="font-size:6.75px; font-family:Arial;" text-anchor="middle"><textPath startOffset="22.20632615414155" xlink:href="#id79">July</textPath></text><path d="M 91.40352486487194 119.15986991738527 l -3.2011571987503027 7.1347563447868465 a28.81998436766897,28.81998436766897 0 0,0 -0.450870820298187,-0.20697267978163505 l 3.323496014815909 -7.078596594671137" fill="#ff2003" stroke="none" /><line stroke="#e1ed5e" stroke-width="0.3" x1="58.666819895761336" x2="56.23545636021788" y1="174.27360380694188" y2="178.64263932499728" /><path d="M 58.180547188652646 175.14741091055294 a86.0,86.0 0 0,1 -31.652253787137756,-30.449443065178592" fill="none" id="id80" stroke="none" /><text fill="#e1ed5e" style="font-size:6.75px; font-family:Arial;" text-anchor="middle"><textPath startOffset="22.20632615414155" xlink:href="#id80">August</textPath></text><path d="M 83.72743513129214 113.27417163493432 l -5.972709674899184 4.872174361566403 a28.70787544464357,28.70787544464357 0 0,0 -0.30906363909495266,-0.3856044104779093 l 6.055691226048998 -4.768642117510234" fill="#ff1e03" stroke="none" /><path d="M 83.50135304334701 112.99209946851258 l -8.072067625153723 6.35646703502967 a31.274383140241255,31.274383140241255 0 0,0 -0.32941334982531156,-0.42581116001564057 l 8.180287792197104 -6.216577880900777" fill="#ff4606" stroke="none" /><path d="M 82.05923443525364 110.91462005526583 l -9.289648796492935 5.651541830512253 a31.87370681158051,31.87370681158051 0 0,0 -0.2811247649472497,-0.4711812763178596 l 9.385554437138417 -5.490798460308282" fill="#ff4f07" stroke="none" /><line stroke="#e1ed5e" stroke-width="0.3" x1="26.63291911575756" x2="22.317208475507996" y1="142.92168965132927" y2="145.44649492493687" /><path d="M 25.769776987707644 143.4266507060508 a86.0,86.0 0 0,1 -11.730757126820373,-40.83630448921669" fill="none" id="id81" stroke="none" /><text fill="#e1ed5e" style="font-size:6.75px; font-family:Arial;" text-anchor="middle"><textPath startOffset="21.46611528233685" xlink:href="#id81">September</textPath></text><path d="M 81.69416730710424 110.29060199501025 l -14.03544338909838 7.890007745824189 a37.10111466196521,37.10111466196521 0 0,0 -0.3081576015567122,-0.5593955572514757 l 14.169177400106609 -7.64724167017489" fill="#ff9b0e" stroke="none" /><line stroke="#e1ed5e" stroke-width="0.3" x1="15.007084014347285" x2="10.007500721073583" y1="101.09737516637583" y2="101.16192664675087" /><path d="M 14.007167355692545 101.11028546245083 a86.0,86.0 0 0,1 10.666146001902534,-42.60595125391555" fill="none" id="id82" stroke="none" /><text fill="#e1ed5e" style="font-size:6.75px; font-family:Arial;" text-anchor="middle"><textPath startOffset="22.20632615414155" xlink:href="#id82">October</textPath></text><path d="M 79.91906864156998 93.8553929516997 l -7.520023940849769 -2.3010681768470107 a28.86420210990611,28.86420210990611 0 0,0 0.14946779499326332,-0.4738537558868794 l 7.479300662088302 2.4301720991603046" fill="#ff2103" stroke="none" /><path d="M 80.02781315780177 93.51064311812611 l -10.277295054353702 -3.339295587156553 a31.806187517003686,31.806187517003686 0 0,0 0.1736658826429578,-0.5192388844916735 l 10.218291877938972 3.5157075745705484" fill="#ff4e07" stroke="none" /><path d="M 80.14247586403 93.16781622104843 l -10.047972237071846 -3.4571073644133627 a31.626068765354745,31.626068765354745 0 0,0 0.18154405503622023,-0.5132494905727674 l 9.986975101225816 3.6295544814127414" fill="#ff4b07" stroke="none" /><line stroke="#e1ed5e" stroke-width="0.3" x1="26.266209847984243" x2="21.928928074336255" y1="57.711370442889674" y2="55.22380399835377" /><path d="M 25.398753493254645 57.213857153982495 a86.0,86.0 0 0,1 29.58750427330803,-30.492523968695096" fill="none" id="id83" stroke="none" /><text fill="#e1ed5e" style="font-size:6.75px; font-family:Arial;" text-anchor="middle"><textPath startOffset="21.46611528233685" xlink:href="#id83">November</textPath></text><path d="M 82.95767976084542 87.72973835380427 l -8.793307754715574 -6.331073784072633 a31.83534754996409,31.83534754996409 0 0,0 0.32401923881189654,-0.4419618775992861 l 8.683025903390044 6.48149810534342" fill="#ff4e07" stroke="none" /><path d="M 83.17141714833178 87.43820079747576 l -8.690101743435731 -6.486779909677543 a31.84417732738915,31.84417732738915 0 0,0 0.3316708450128544,-0.4364399540174686 l 8.577154958198767 6.635404639576039" fill="#ff4e07" stroke="none" /><path d="M 83.39014120810768 87.1503855733568 l -12.823807542702998 -9.920673286256111 a37.213259954275756,37.213259954275756 0 0,0 0.39631398745569335,-0.5032785177531798 l 12.651139474653332 10.13994419796234" fill="#ff9d0e" stroke="none" /><path d="M 83.6137871275137 86.86637796730984 l -8.920471432991235 -7.149797275674006 a32.43216565966607,32.43216565966607 0 0,0 0.3528951789743779,-0.4326077626269334 l 8.796077761940465 7.302289207909022" fill="#ff5708" stroke="none" /><path d="M 83.84228863543731 86.58626213691792 l -8.36460659272161 -6.944092367478218 a31.871387319890275,31.871387319890275 0 0,0 0.35405982834149763,-0.4190951605377037 l 8.243836150892989 7.087046477645037" fill="#ff4f07" stroke="none" /><path d="M 84.07557802195018 86.31012108654704 l -8.1310562811685 -6.990092078764412 a31.722661214322436,31.722661214322436 0 0,0 0.3595357846653479,-0.411011553917209 l 8.009528632925308 7.1290191888845635" fill="#ff4c07" stroke="none" /><path d="M 84.31358615837235 86.03803664274999 l -8.088202866038827 -7.199044547834084 a31.82798540837114,31.82798540837114 0 0,0 0.36777443170099927,-0.40610571319039473 l 7.963084793721783 7.337203048294034" fill="#ff4e07" stroke="none" /><line stroke="#e1ed5e" stroke-width="0.3" x1="56.762969772571076" x2="54.21961505331055" y1="26.818313649435495" y2="22.513508569990535" /><path d="M 56.25429882871897 25.957352633546506 a86.0,86.0 0 0,1 42.265352541879196,-11.944610805530505" fill="none" id="id84" stroke="none" /><text fill="#e1ed5e" style="font-size:6.75px; font-family:Arial;" text-anchor="middle"><textPath startOffset="22.20632615414155" xlink:href="#id84">December</textPath></text><path d="M 92.23578459929587 80.48803036053334 l -4.21748434977365 -10.598807779115226 a32.407098692446695,32.407098692446695 0 0,0 0.5200827539462625,-0.20178402856077976 l 4.034418430827712 10.669834511566558" fill="#ff5708" stroke="none" /><path d="M 92.57280143429618 80.3572730644239 l -2.392345893603484 -6.327041980605374 a27.764227901171296,27.764227901171296 0 0,0 0.4484817531121744,-0.1651796145644224 l 2.28308181471874 6.367284862976119" fill="#ff0f01" stroke="none" /><path d="M 93.94186890950719 79.89281104454417 l -3.0893833980619037 -10.253791938930416 a31.709086744774034,31.709086744774034 0 0,0 0.5239696803568183,-0.15296111789083552 l 2.9124234999816636 10.30545138573995" fill="#ff4c07" stroke="none" /><path d="M 94.28887869178378 79.79150937346287 l -1.6868381215313106 -5.968784504438748 a27.202564897579016,27.202564897579016 0 0,0 0.4516948475387846,-0.1234652647040682 l 1.5838453847688034 5.996936309969112" fill="#ff0701" stroke="none" /><path d="M 94.63758080256005 79.69619591428918 l -2.7761669562333195 -10.51144043634173 a31.87186658378596,31.87186658378596 0 0,0 0.5316395983484674,-0.13552677106846744 l 2.594818469199853 10.55767020357906" fill="#ff4f07" stroke="none" /><path d="M 94.98787191387505 79.60689891045804 l -2.875929923552347 -11.701442710492534 a33.04967777295819,33.04967777295819 0 0,0 0.553623514002263,-0.1310247989059888 l 2.6740827225875496 11.749213421539393" fill="#ff6008" stroke="none" /><path d="M 95.33964822691252 79.52364482259891 l -2.8387978079553386 -12.472928015477082 a33.79190002594318,33.79190002594318 0 0,0 0.5682788266113646,-0.12420374074746163 l 2.623676257190453 12.519945254320412" fill="#ff6b09" stroke="none" /><path d="M 96.40284397218896 79.31037775812273 l -2.6154611198956315 -15.043245869956621 a36.26891886066766,36.26891886066766 0 0,0 0.6160030515485084,-0.10164578162332084 l 2.3561288622082377 15.086037914519569" fill="#ff8f0d" stroke="none" /></svg>