<?xml version="1.0" encoding="utf-8" ?>
<svg baseProfile="full" height="200mm" version="1.1" viewBox="0,0,200,200" width="200mm" xmlns="http://www.w3.org/2000/svg" xmlns:ev="http://www.w3.org/2001/xml-events" xmlns:xlink="http://www.w3.org/1999/xlink"><defs /><rect fill="#1a1a1a" height="200" width="200" x="0" y="0" /><text alignment-baseline="middle" fill="#e1ed5e" style="dominant-baseline: central; font-size:9.0px; font-family:Arial;" text-anchor="middle" x="100.0" y="100.0">2023</text><line stroke="#e1ed5e" stroke-width="0.3" x1="100.0" x2="100.0" y1="15.0" y2="10.0" /><path d="M 100.0 14.0 a86.0,86.0 0 0,1 42.46469731375804,11.215312516191453" fill="none" id="id133" stroke="none" /><text fill="#e1ed5e" style="font-size:6.75px; font-family:Arial;" text-anchor="middle"><textPath startOffset="22.20632615414155" xlink:href="#id133">January</textPath></text><path d="M 100.0 79.0 l 0.0 -12.30150581793292 a33.30150581793292,33.30150581793292 0 0,0 0.5732306801696802,0.004933977439604932 l -0.21175020089715182 12.299683217101874" fill="#ff0000" stroke="none" /><path d="M 100.72285384407766 79.0124445844662 l 0.6438148970609553 -18.692714910652537 a39.70379876796714,39.70379876796714 0 0,0 0.6828281387628808,0.029404016022274472 l -0.9654838682131677 18.678863168106066" fill="#ff6e0a" stroke="none" /><path d="M 101.08401301168833 79.027996857942 l 0.9648655628220608 -18.666901039916436 a39.69182067077344,39.69182067077344 0 0,0 0.6820150118413061,0.04114100801647636 l -1.286042623502979 18.647526762519654" fill="#ff6e0a" stroke="none" /><path d="M 101.44485096284872 79.0497635885617 l 1.7117017167675026 -24.819553403238277 a45.87850787132101,45.87850787132101 0 0,0 0.7873840159162451,0.06111615375641295 l -2.138675922046089 24.7864119872934" fill="#ffd113" stroke="none" /><path d="M 101.80526077348638 79.07773832637324 l 2.379521515770971 -27.57771760300256 a48.68018480492813,48.68018480492813 0 0,0 0.8342273961855684,0.07921994326709116 l -2.8538740390467834 27.53267211522029" fill="#fffc17" stroke="none" /><path d="M 102.16513564639614 79.11191278185805 l 3.1784220928186877 -30.66374063046538 a51.82802874743326,51.82802874743326 0 0,0 0.8865882675015797,0.09961852208992544 l -3.7057770638299927 30.604486154904855" fill="#d4ff1c" stroke="none" /><path d="M 102.52436894288641 79.15227682838746 l 2.971446604742571 -24.539953404778004 a45.71919917864476,45.71919917864476 0 0,0 0.7804599776171584,0.10132610444604528 l -3.3934213108675757 24.48516897716782" fill="#ffcf13" stroke="none" /><path d="M 102.88285421437855 79.19881850522331 l 5.542242830003957 -39.98995107697057 a61.37217659137577,61.37217659137577 0 0,0 1.045171147032681,0.15403105835297934 l -6.229782957465294 39.88862553445662" fill="#55ff2b" stroke="none" /><path d="M 103.2404852339499 79.25152402106235 l 5.675654807146914 -36.34060300509002 a57.78114305270362,57.78114305270362 0 0,0 0.9813736268005246,0.1619350571557977 l -6.300357640086314 36.2375216849946" fill="#83ff25" stroke="none" /><path d="M 103.59715602781102 79.31037775812273 l 4.205504625943569 -24.188637182965916 a45.55150581793292,45.55150581793292 0 0,0 0.7713494147603116,0.14095917520606688 l -4.621249161806782 24.11266252640911" fill="#ffcc13" stroke="none" /><path d="M 103.95276090670814 79.375362276772 l 7.0880046420881895 -36.983650510086825 a58.65674195756331,58.65674195756331 0 0,0 0.9899961743323563,0.1985839191706085 l -7.723567225887671 36.85616263483901" fill="#77ff27" stroke="none" /><path d="M 104.307194497241 79.44645832069477 l 2.5513469572124006 -12.174796391717125 a33.4392539356605,33.4392539356605 0 0,0 0.5623483726788706,0.12290757321797752 l -2.760538054044799 12.129075320403278" fill="#ff0200" stroke="none" /><path d="M 106.0581310904928 79.89281104454417 l 4.546362694365367 -15.089566797109985 a36.75958247775496,36.75958247775496 0 0,0 0.6042831221127519,0.18775370753994558 l -4.8054311891888375 15.009072954687518" fill="#ff3d05" stroke="none" /><path d="M 106.40334571778207 80.00007090966166 l 7.496136636536574 -23.41310430356515 a45.58384668035592,45.58384668035592 0 0,0 0.7452246473159114,0.24568884950892692 l -7.898044106094902 23.280601729796985" fill="#ffcd13" stroke="none" /><line stroke="#e1ed5e" stroke-width="0.3" x1="143.23703022742887" x2="145.7803849466894" y1="26.81831364943548" y2="22.513508569990506" /><path d="M 143.74570117128098 25.957352633546492 a86.0,86.0 0 0,1 28.547481713284135,27.462654790039103" fill="none" id="id134" stroke="none" /><text fill="#e1ed5e" style="font-size:6.75px; font-family:Arial;" text-anchor="middle"><textPath startOffset="19.985693538727396" xlink:href="#id134">February</textPath></text><path d="M 110.99172775467656 82.1063720568725 l 6.473909468103475 -10.538991680397817 a33.36858316221766,33.36858316221766 0 0,0 0.48683308539889864,0.30485483341463726 l -6.654361705874637 10.425992505660236" fill="#ff0100" stroke="none" /><path d="M 112.19680574252982 82.90503203632743 l 8.36356369134688 -11.722319464936783 a35.40006844626968,35.40006844626968 0 0,0 0.49299599135752503,0.3581825538574031 l -8.564104999058193 11.576617676262705" fill="#ff2503" stroke="none" /><path d="M 112.48926042617603 83.11751280151076 l 7.81682949215318 -10.56648026631431 a34.143566050650236,34.143566050650236 0 0,0 0.46948028673952164,0.3536028186251324 l -7.9975559326510846 10.43036085818333" fill="#ff0f01" stroke="none" /><path d="M 112.77801427241765 83.33499621200491 l 15.267730035284334 -19.912075025719904 a46.09171800136893,46.09171800136893 0 0,0 0.6254590051029616,0.48818067434920936 l -15.608221595546727 19.64631596214747" fill="#ffd513" stroke="none" /><path d="M 113.06298171725822 83.55741782278167 l 18.324833011307813 -23.065757818075934 a50.458932238193015,50.458932238193015 0 0,0 0.675420684010509,0.5461432207763675 l -18.719157093882814 22.74690850003544" fill="#e8ff1a" stroke="none" /><path d="M 113.34407831869373 83.78471172551755 l 18.397200378801394 -22.355677212098747 a49.95225872689938,49.95225872689938 0 0,0 0.6592329532394438,0.5520886398132301 l -18.779290868999954 22.035687414891697" fill="#efff19" stroke="none" /><path d="M 113.6212207817346 84.01681056812373 l 18.2152362096605 -21.37382364991667 a49.08264887063655,49.08264887063655 0 0,0 0.638322656448297,0.5535471175360558 l -18.58045266475556 21.057111538960942" fill="#fcff18" stroke="none" /><path d="M 113.89432698308785 84.25364557470407 l 12.547848455580072 -14.220398677601562 a39.96492128678987,39.96492128678987 0 0,0 0.5119107003684572,0.459598481200798 l -12.790770143544519 14.002301187631465" fill="#ff730a" stroke="none" /><path d="M 114.16331599549186 84.49514656593476 l 16.537602198477853 -18.104030039285277 a45.520362765229294,45.520362765229294 0 0,0 0.5739730089062535,0.5334453579400774 l -16.846783091178956 17.81668009527056" fill="#ffcc13" stroke="none" /><path d="M 114.42810811169701 84.74124197986012 l 31.650160270805113 -33.472312040643374 a67.06656399726215,67.06656399726215 0 0,0 0.8319982721250907,0.8003816785929702 l -32.22164178654262 32.922547275288096" fill="#33ff55" stroke="none" /><path d="M 114.68862486808459 84.99185889309783 l 32.55509334355252 -33.263252281023156 a67.54329226557152,67.54329226557152 0 0,0 0.8239130198702287,0.8203748755242104 l -33.12284216359008 32.697941554848825" fill="#34ff5c" stroke="none" /><path d="M 114.94478906791727 85.2469230424477 l 21.31414019245969 -21.040721894058727 a50.950034223134836,50.950034223134836 0 0,0 0.6107592561672686,0.6294411007346759 l -21.67316371233007 20.67071659777394" fill="#e1ff1b" stroke="none" /><path d="M 115.19652480421416 85.50635884689758 l 30.52653493924334 -29.114593550648003 a63.18446269678303,63.18446269678303 0 0,0 0.7438697105896692,0.7935083424413991 l -31.023171971803475 28.584815791328552" fill="#3fff2d" stroke="none" /><path d="M 115.4437574822437 85.77008943001954 l 46.331272446731084 -42.689731709941405 a84.0,84.0 0 0,0 0.9706254375358574,1.0717888509218039 l -47.05924152488298 41.88589007175005" fill="#4dd2ff" stroke="none" /><path d="M 115.68641384162765 86.03803664274999 l 27.706222394469656 -24.66040139861989 a58.09137577002053,58.09137577002053 0 0,0 0.6583914328200728,0.7526552221805519 l -28.126605690867578 24.17983062023639" fill="#7fff26" stroke="none" /><line stroke="#e1ed5e" stroke-width="0.3" x1="172.23445277983987" x2="176.4835382374775" y1="55.19839476539836" y2="52.563006222186495" /><path d="M 173.08426987136738 54.67131705675599 a86.0,86.0 0 0,1 12.851231095245387,41.99856678651699" fill="none" id="id135" stroke="none" /><text fill="#e1ed5e" style="font-size:6.75px; font-family:Arial;" text-anchor="middle"><textPath startOffset="22.20632615414155" xlink:href="#id135">March</textPath></text><line stroke="#e1ed5e" stroke-width="0.3" x1="184.98032266829074" x2="189.97916517819016" y1="98.17113171792111" y2="98.06355123074" /><path d="M 185.9800911702706 98.14961562048488 a86.0,86.0 0 0,1 -9.607161424134198,41.387399972396054" fill="none" id="id136" stroke="none" /><text fill="#e1ed5e" style="font-size:6.75px; font-family:Arial;" text-anchor="middle"><textPath startOffset="21.466115282336823" xlink:href="#id136">April</textPath></text><line stroke="#e1ed5e" stroke-width="0.3" x1="174.80103733775053" x2="179.2010983576182" y1="140.37084112569926" y2="142.7455964860345" /><path d="M 175.68104954172406 140.8457921977663 a86.0,86.0 0 0,1 -30.038265399797805,32.042727171017184" fill="none" id="id137" stroke="none" /><text fill="#e1ed5e" style="font-size:6.75px; font-family:Arial;" text-anchor="middle"><textPath startOffset="22.206326154141568" xlink:href="#id137">May</textPath></text><line stroke="#e1ed5e" stroke-width="0.3" x1="143.8653032363475" x2="146.44561519142675" y1="172.8068346515853" y2="177.08958963109032" /><path d="M 144.38136562736335 173.6633856474863 a86.0,86.0 0 0,1 -40.68145358897372,12.25698825130547" fill="none" id="id138" stroke="none" /><text fill="#e1ed5e" style="font-size:6.75px; font-family:Arial;" text-anchor="middle"><textPath startOffset="21.466115282336833" xlink:href="#id138">June</textPath></text><line stroke="#e1ed5e" stroke-width="0.3" x1="102.19456741930631" x2="102.32365962044197" y1="184.97166512339345" y2="189.96999836594603" /><path d="M 102.22038585953345 185.97133177190398 a86.0,86.0 0 0,1 -42.740103519485714,-10.115201625700543" fill="none" id="id139" stroke="none" /><text fill="#e1ed5e" style="font-size:6.75px; font-family:Arial;" text-anchor="middle"><textPath startOffset="22.20632615414155" xlink:href="#id139">July</textPath></text><line stroke="#e1ed5e" stroke-width="0.3" x1="58.666819895761336" x2="56.23545636021788" y1="174.27360380694188" y2="178.64263932499728" /><path d="M 58.180547188652646 175.14741091055294 a86.0,86.0 0 0,1 -31.652253787137756,-30.449443065178592" fill="none" id="id140" stroke="none" /><text fill="#e1ed5e" style="font-size:6.75px; font-family:Arial;" text-anchor="middle"><textPath startOffset="22.20632615414155" xlink:href="#id140">August</textPath></text><line stroke="#e1ed5e" stroke-width="0.3" x1="26.63291911575756" x2="22.317208475507996" y1="142.92168965132927" y2="145.44649492493687" /><path d="M 25.769776987707644 143.4266507060508 a86.0,86.0 0 0,1 -11.730757126820373,-40.83630448921669" fill="none" id="id141" stroke="none" /><text fill="#e1ed5e" style="font-size:6.75px; font-family:Arial;" text-anchor="middle"><textPath startOffset="21.46611528233685" xlink:href="#id141">September</textPath></text><line stroke="#e1ed5e" stroke-width="0.3" x1="15.007084014347285" x2="10.007500721073583" y1="101.09737516637583" y2="101.16192664675087" /><path d="M 14.007167355692545 101.11028546245083 a86.0,86.0 0 0,1 10.666146001902534,-42.60595125391555" fill="none" id="id142" stroke="none" /><text fill="#e1ed5e" style="font-size:6.75px; font-family:Arial;" text-anchor="middle"><textPath startOffset="22.20632615414155" xlink:href="#id142">October</textPath></text><line stroke="#e1ed5e" stroke-width="0.3" x1="26.266209847984243" x2="21.928928074336255" y1="57.711370442889674" y2="55.22380399835377" /><path d="M 25.398753493254645 57.213857153982495 a86.0,86.0 0 0,1 29.58750427330803,-30.492523968695096" fill="none" id="id143" stroke="none" /><text fill="#e1ed5e" style="font-size:6.75px; font-family:Arial;" text-anchor="middle"><textPath startOffset="21.46611528233685" xlink:href="#id143">November</textPath></text><line stroke="#e1ed5e" stroke-width="0.3" x1="56.762969772571076" x2="54.21961505331055" y1="26.818313649435495" y2="22.513508569990535" /><path d="M 56.25429882871897 25.957352633546506 a86.0,86.0 0 0,1 42.265352541879196,-11.944610805530505" fill="none" id="id144" stroke="none" /><text fill="#e1ed5e" style="font-size:6.75px; font-family:Arial;" text-anchor="middle"><textPath startOffset="22.20632615414155" xlink:href="#id144">December</textPath></text></svg>