<?xml version="1.0" encoding="utf-8" ?>
<svg baseProfile="full" height="200mm" version="1.1" viewBox="0,0,200,200" width="200mm" xmlns="http://www.w3.org/2000/svg" xmlns:ev="http://www.w3.org/2001/xml-events" xmlns:xlink="http://www.w3.org/1999/xlink"><defs /><rect fill="#1a1a1a" height="200" width="200" x="0" y="0" /><text alignment-baseline="middle" fill="#e1ed5e" style="dominant-baseline: central; font-size:9.0px; font-family:Arial;" text-anchor="middle" x="100.0" y="100.0">2021</text><line stroke="#e1ed5e" stroke-width="0.3" x1="100.0" x2="100.0" y1="15.0" y2="10.0" /><path d="M 100.0 14.0 a86.0,86.0 0 0,1 42.46469731375804,11.215312516191453" fill="none" id="id109" stroke="none" /><text fill="#e1ed5e" style="font-size:6.75px; font-family:Arial;" text-anchor="middle"><textPath startOffset="22.20632615414155" xlink:href="#id109">January</textPath></text><path d="M 100.0 79.0 l 0.0 -16.74680036822727 a37.74680036822727,37.74680036822727 0 0,0 0.6497491184814878,0.005592595795887792 l -0.28826863920895945 16.744319149039942" fill="#ffbf11" stroke="none" /><path d="M 100.36148047927253 79.00311137660856 l 0.3130494124559532 -18.183730585352563 a39.1864251004788,39.1864251004788 0 0,0 0.674330013964015,0.01741595479336305 l -0.626006061614836 18.175647838416843" fill="#ffd213" stroke="none" /><path d="M 100.72285384407766 79.0124445844662 l 1.161185997457491 -33.714222686989984 a54.7342135569905,54.7342135569905 0 0,0 0.9413220480032025,0.040535307510544884 l -1.741348877850025 33.689239652955244" fill="#71ff27" stroke="none" /><path d="M 101.08401301168833 79.027996857942 l 0.4303876520383422 -8.32655244312346 a29.337668086408353,29.337668086408353 0 0,0 0.504102097339195,0.030408815154614306 l -0.5736517982171491 8.317910358588541" fill="#ff4a06" stroke="none" /><path d="M 101.44485096284872 79.0497635885617 l 0.931545809775861 -13.50734812427325 a34.53943244549117,34.53943244549117 0 0,0 0.5927785860576992,0.04601102699151701 l -1.1639145851959014 13.48931183509327" fill="#ff940d" stroke="none" /><path d="M 101.80526077348638 79.07773832637324 l 0.8773337982035984 -10.16795333434473 a31.205733173216046,31.205733173216046 0 0,0 0.5347694885603274,0.05078280662853801 l -1.05222841385417 10.151344983201014" fill="#ff6509" stroke="none" /><path d="M 102.16513564639614 79.11191278185805 l 1.0129751560077491 -9.772650246519266 a30.825009491470325,30.825009491470325 0 0,0 0.5273033225697568,0.05924867225632759 l -1.1810451820872312 9.753765620792336" fill="#ff6008" stroke="none" /><path d="M 102.52436894288641 79.15227682838746 l 0.8358215443647692 -6.902705813621033 a27.953124851706743,27.953124851706743 0 0,0 0.4771801691199127,0.061951681114317834 l -0.9545164419925279 6.887295809342579" fill="#ff3605" stroke="none" /><path d="M 102.88285421437855 79.19881850522331 l 0.7313418143453889 -5.276983393416941 a26.327421006810724,26.327421006810724 0 0,0 0.44835725796903547,0.06607620499406197 l -0.8220680527430803 5.263612704261911" fill="#ff1e03" stroke="none" /><path d="M 103.2404852339499 79.25152402106235 l 5.759974013351325 -36.880489749879416 a58.327574590715685,58.327574590715685 0 0,0 0.9906543968221208,0.16346646373006715 l -6.3939576163123215 36.77587702320972" fill="#4bff2c" stroke="none" /><path d="M 103.59715602781102 79.31037775812273 l 0.890351142809525 -5.120997995342035 a26.197821238345867,26.197821238345867 0 0,0 0.443622526134754,0.08106918108730024 l -0.9783687900471798 5.104913332903996" fill="#ff1c02" stroke="none" /><path d="M 103.95276090670814 79.375362276772 l 2.5352611203067483 -13.228435358023763 a34.469188949953605,34.469188949953605 0 0,0 0.5817637334422926,0.11669633197947175 l -2.762591263216166 13.182835069967082" fill="#ff930d" stroke="none" /><path d="M 104.307194497241 79.44645832069477 l 3.769638049763567 -17.98837104322551 a39.37910944020355,39.37910944020355 0 0,0 0.6622390007220179,0.1447397955137711 l -4.078719774639112 17.920817749615868" fill="#ffd513" stroke="none" /><path d="M 104.66035177308747 79.52364482259891 l 1.4697623685531334 -6.457747773175951 a27.622892700472647,27.622892700472647 0 0,0 0.4627180642667662,0.10951041599088134 l -1.580704119782423 6.431491445044202" fill="#ff3104" stroke="none" /><path d="M 105.01212808612495 79.60689891045804 l 1.279095108565492 -5.204319483439562 a26.359200087929615,26.359200087929615 0 0,0 0.43968540438926906,0.11208559958273474 l -1.3684894016397862 5.181530887687959" fill="#ff1e03" stroke="none" /><path d="M 105.36241919743992 79.69619591428918 l 9.336923281549236 -35.35252543523509 a57.56472604867265,57.56472604867265 0 0,0 0.9558543561633803,0.2612711031469406 l -9.944075526936327 35.18656779126185" fill="#53ff2b" stroke="none" /><path d="M 105.71112130821622 79.79150937346287 l 3.040220820763851 -10.757655220984724 a32.17900212418738,32.17900212418738 0 0,0 0.5317346914757922,0.15522793756708436 l -3.2249457299630704 10.703728954498935" fill="#ff730a" stroke="none" /><path d="M 106.0581310904928 79.89281104454417 l 1.882811769163106 -6.249130539537259 a27.526608051528477,27.526608051528477 0 0,0 0.4525041780498355,0.1405952507975556 l -1.99010131992366 6.215795153857184" fill="#ff3004" stroke="none" /><path d="M 106.40334571778207 80.00007090966166 l 5.867897224971994 -18.327532758840672 a40.243977625979824,40.243977625979824 0 0,0 0.6579261342995566,0.21690790230853718 l -6.182506181513968 18.2238111322729" fill="#ffe015" stroke="none" /><path d="M 106.74666289553966 80.11325718540242 l 3.339934079058191 -9.844927940871608 a31.3960456815757,31.3960456815757 0 0,0 0.5102873996368252,0.1780292539775445 l -3.5089034827582903 9.785977833721855" fill="#ff6809" stroke="none" /><path d="M 107.08798089147638 80.2323363322302 l 5.609011581827702 -15.642967462219056 a37.61816602243224,37.61816602243224 0 0,0 0.607654608896693,0.22380432066484915 l -5.8774485164969725 15.544099873747884" fill="#ffbd11" stroke="none" /><path d="M 107.4271985657038 80.35727306442388 l 12.583258874144192 -33.2789699693531 a56.57848009843639,56.57848009843639 0 0,0 0.9079952519954456,0.3522880512216215 l -13.154237291139305 33.05743921424093" fill="#5dff2a" stroke="none" /><path d="M 107.76421540070413 80.48803036053334 l 6.303141214788591 -15.840196809206546 a38.0482088246233,38.0482088246233 0 0,0 0.6064452012795657,0.24738422453410397 l -6.5748702856565435 15.729351698488863" fill="#ffc312" stroke="none" /><path d="M 108.09893153111575 80.62456947434976 l 12.87886249658371 -30.810669851110983 a54.39404850987777,54.39404850987777 0 0,0 0.8607631333035183,0.3685338522857268 l -13.407309387677545 30.584416470862465" fill="#75ff27" stroke="none" /><path d="M 108.43124777332544 80.76684994638697 l 1.3635738902137697 -3.110550412554934 a24.396300579029834,24.396300579029834 0 0,0 0.38315886543920397,0.17191221410972343 l -1.416914874119754 3.0866178679286795" fill="#ff0100" stroke="none" /><path d="M 108.76106565485865 80.91482961587045 l 5.623076648856075 -12.249351865879822 a34.47833862659059,34.47833862659059 0 0,0 0.5372411255624351,0.2522419120685763 l -5.833095985718108 12.150744971171243" fill="#ff930d" stroke="none" /><path d="M 109.08828744355905 81.06846463323043 l 2.189148409157543 -4.560148519559096 a26.058391570228032,26.058391570228032 0 0,0 0.4026998476205785,0.1976030663211813 l -2.267319523788553 4.521790293103083" fill="#ff1a02" stroke="none" /><path d="M 109.41281617654863 81.2277094730956 l 6.772292270654472 -13.506206394912285 a36.10898917138853,36.10898917138853 0 0,0 0.5532232652221644,0.28338244375499083 l -7.0037760234653925 13.387631425844795" fill="#ffa90f" stroke="none" /><path d="M 109.73455568895987 81.39251694778311 l 15.452603120755304 -29.537460143988465 a54.33533403110405,54.33533403110405 0 0,0 0.8250043049693502,0.4406887280062009 l -15.958752472252964 29.26709268948051" fill="#76ff27" stroke="none" /><path d="M 110.05341064243156 81.56283822128135 l 4.259868442598352 -7.812262566969822 a29.898197882915575,29.898197882915575 0 0,0 0.4497200233985957,0.25026870611978025 l -4.393712555068983 7.737778463289862" fill="#ff5207" stroke="none" /><path d="M 110.36928655335952 81.73862282372117 l 4.956553734558082 -8.72899950980073 a31.03807040051339,31.03807040051339 0 0,0 0.46232427805960785,0.26780806281942793 l -5.106074745083018 8.642387289591253" fill="#ff6309" stroke="none" /><line stroke="#e1ed5e" stroke-width="0.3" x1="143.23703022742887" x2="145.7803849466894" y1="26.81831364943548" y2="22.513508569990506" /><path d="M 143.74570117128098 25.957352633546492 a86.0,86.0 0 0,1 28.547481713284135,27.462654790039103" fill="none" id="id110" stroke="none" /><text fill="#e1ed5e" style="font-size:6.75px; font-family:Arial;" text-anchor="middle"><textPath startOffset="19.985693538727396" xlink:href="#id110">February</textPath></text><path d="M 110.68208982089419 81.91981866633111 l 6.768449907295919 -11.45607308341474 a34.30614612275522,34.30614612275522 0 0,0 0.5058325810231301,0.30475847026705666 l -6.964644554536687 11.337868003689069" fill="#ff900d" stroke="none" /><path d="M 110.99172775467656 82.1063720568725 l 2.7368819245582805 -4.455418472449028 a26.22888864230382,26.22888864230382 0 0,0 0.38266805402678866,0.23962670032554031 l -2.813169130957333 4.4076474308005436" fill="#ff1c02" stroke="none" /><path d="M 111.2981086023043 82.29822771554956 l 8.987924219102215 -14.08219671423542 a37.7060182589014,37.7060182589014 0 0,0 0.5441031837536728,0.3538998459280927 l -9.228994428640167 13.9253979441478" fill="#ffbe11" stroke="none" /><path d="M 111.60114157652 82.49532879139004 l 5.529078656428057 -8.342687944021156 a31.00855398747912,31.00855398747912 0 0,0 0.4423817718042882,0.2986981470719333 l -5.671865122638887 8.246277884650553" fill="#ff6209" stroke="none" /><path d="M 112.19680574252982 82.90503203632743 l 3.1426836298685825 -4.404766059791192 a26.41095411539706,26.41095411539706 0 0,0 0.36780986812443095,0.26722951141244083 l -3.218038814346802 4.350017313562076" fill="#ff1f03" stroke="none" /><path d="M 112.48926042617603 83.11751280151076 l 12.719878193459314 -17.194227155143853 a42.387771008665865,42.387771008665865 0 0,0 0.5828396148743417,0.4389827143909439 l -13.013963962092038 16.972727851247065" fill="#fffb17" stroke="none" /><path d="M 112.77801427241765 83.33499621200491 l 24.86119368950203 -32.42380843977894 a61.85807515542571,61.85807515542571 0 0,0 0.8394065533236947,0.655170129315269 l -25.415632797985154 31.991059921240446" fill="#30ff3a" stroke="none" /><path d="M 113.06298171725822 83.55741782278167 l 6.890629535528532 -8.67334463470994 a32.077349978598214,32.077349978598214 0 0,0 0.42937305057339764,0.34718981266952265 l -7.038905984666421 8.553448724776286" fill="#ff710a" stroke="none" /><path d="M 113.34407831869373 83.78471172551755 l 2.453300978021665 -2.9811712455975194 a24.86083769204813,24.86083769204813 0 0,0 0.3280949424397062,0.27477007878783244 l -2.5042534574204884 2.9385000094158675" fill="#ff0801" stroke="none" /><path d="M 113.6212207817346 84.01681056812373 l 3.573503108220134 -4.193161393483231 a26.509312746274002,26.509312746274002 0 0,0 0.34475512879141945,0.29896825041446645 l -3.645152035658317 4.131028149649094" fill="#ff2103" stroke="none" /><path d="M 113.89432698308785 84.25364557470407 l 11.092315079438537 -12.570851747658889 a37.76501617903061,37.76501617903061 0 0,0 0.48373211454375725,0.43429946862282914 l -11.307058181578284 12.378053270266763" fill="#ffbf11" stroke="none" /><path d="M 114.16331599549186 84.49514656593476 l 42.48994798647556 -46.51456030219571 a84.0,84.0 0 0,0 1.0591684648206128,0.984381655701438 l -43.28432433509102 45.77627406041963" fill="#4dd2ff" stroke="none" /><path d="M 114.68862486808459 84.99185889309783 l 9.69699628996857 -9.907931473501712 a34.863579737256536,34.863579737256536 0 0,0 0.42527623841414613,0.42344996709405225 l -9.86610832855004 9.73954565575754" fill="#ff980e" stroke="none" /><path d="M 114.94478906791727 85.2469230424477 l 4.657428636223384 -4.597683030670381 a27.544488578340403,27.544488578340403 0 0,0 0.3301872434852297,0.34028697868963953 l -4.735880143411722 4.516831856430627" fill="#ff3004" stroke="none" /><path d="M 115.19652480421416 85.50635884689758 l 12.331856547489307 -11.761472169037079 a38.04132956934079,38.04132956934079 0 0,0 0.44785998977296854,0.4777458109550639 l -12.53248385923274 11.547456941203961" fill="#ffc312" stroke="none" /><path d="M 115.4437574822437 85.77008943001954 l 9.932506013169524 -9.151831894906293 a34.505950641634705,34.505950641634705 0 0,0 0.39871849332294507,0.4402749189066922 l -10.088568147108505 8.979504188730052" fill="#ff930d" stroke="none" /><path d="M 115.68641384162765 86.03803664274999 l 12.573493205751692 -11.191254622230572 a37.83261451512156,37.83261451512156 0 0,0 0.4287842893677016,0.49017456560643496 l -12.764269358697241 10.97316450042119" fill="#ffc011" stroke="none" /><path d="M 115.9244219780498 86.31012108654704 l 7.742722729210011 -6.65625017783572 a31.210554426247548,31.210554426247548 0 0,0 0.34671862356315375,0.41040548961533024 l -7.856151966260282 6.521985738591284" fill="#ff6509" stroke="none" /><path d="M 116.15771136456269 86.58626213691792 l 12.77820103178857 -10.608150816340302 a37.60768753773456,37.60768753773456 0 0,0 0.4092101577091235,0.501643267797695 l -12.958909681574102 10.386623378934507" fill="#ffbd11" stroke="none" /><path d="M 116.38621287248628 86.86637796730983 l 15.996334786473753 -12.821133023767617 a41.50034581693916,41.50034581693916 0 0,0 0.441970618852276,0.56125780312333 l -16.214659485919995 12.543882826691247" fill="#fff016" stroke="none" /><path d="M 116.60985879189232 87.15038557335679 l 7.8581520790123305 -6.079174157128968 a30.935135254720517,30.935135254720517 0 0,0 0.3222027796489821,0.42398108983275834 l -7.961630798885426 5.943008291415176" fill="#ff6109" stroke="none" /><path d="M 116.82858285166822 87.43820079747576 l 2.71341876059914 -2.0254481273584917 a24.386012623572363,24.386012623572363 0 0,0 0.24820012520819448,0.33854469185106634 l -2.747881498320961 1.9784409918359318" fill="#ff0100" stroke="none" /><path d="M 117.04232023915458 87.72973835380427 l 18.821556992450404 -13.551290296467748 a44.192422821240555,44.192422821240555 0 0,0 0.43916194967065664,0.6211634334744145 l -19.052031561924945 13.22530036266154" fill="#ecff1a" stroke="none" /><path d="M 117.2510076193507 88.02491185347247 l 5.532526419237246 -3.8404998134162316 a27.734856152614412,27.734856152614412 0 0,0 0.268863721946157,0.39452433591523367 l -5.597814606852136 3.7446974542305913" fill="#ff3304" stroke="none" /><path d="M 117.45458315368197 88.32363383020206 l 20.690428293187974 -13.84100753561955 a45.8931177749319,45.8931177749319 0 0,0 0.4335880466886434,0.6603843418728355 l -20.925612975234543 13.48280512976904" fill="#d7ff1c" stroke="none" /><path d="M 117.65298651832404 88.62581576622439 l 4.543784893110352 -2.927654560843691 a26.405288371815764,26.405288371815764 0 0,0 0.24289395364773173,0.38419990356157263 l -4.593506443004039 2.849007009567912" fill="#ff1f03" stroke="none" /><line stroke="#e1ed5e" stroke-width="0.3" x1="172.23445277983987" x2="176.4835382374775" y1="55.19839476539836" y2="52.563006222186495" /><path d="M 173.08426987136738 54.67131705675599 a86.0,86.0 0 0,1 12.851231095245387,41.99856678651699" fill="none" id="id111" stroke="none" /><text fill="#e1ed5e" style="font-size:6.75px; font-family:Arial;" text-anchor="middle"><textPath startOffset="22.20632615414155" xlink:href="#id111">March</textPath></text><path d="M 117.84615892207809 88.93136811851018 l 6.4820193648433735 -4.020309721067148 a28.627546479669036,28.627546479669036 0 0,0 0.2561268436836494,0.42100518699685546 l -6.550262006813247 3.9081367608632114" fill="#ff4006" stroke="none" /><path d="M 118.03404312379186 89.2402003453031 l 14.341750489265285 -8.556836695070482 a37.70045691957097,37.70045691957097 0 0,0 0.3277073180340898,0.5601580344081518 l -14.486917481769703 8.308699248308436" fill="#ffbe11" stroke="none" /><path d="M 118.21658344932153 89.55222093294921 l 17.33797480244352 -9.943869590582866 a40.98714368499624,40.98714368499624 0 0,0 0.3457409194783902,0.6150345169435377 l -17.506573363214343 9.643951563704535" fill="#ffe915" stroke="none" /><path d="M 118.3937258080291 89.86733742301442 l 7.104520612490433 -3.9137100818465487 a29.11118608700656,29.11118608700656 0 0,0 0.23800737491824464,0.4409915186678255 l -7.170836086627143 3.7908375798462646" fill="#ff4706" stroke="none" /><path d="M 118.56541770881063 90.18545643968196 l 17.745073465934606 -9.380871426868445 a41.07207963911197,41.07207963911197 0 0,0 0.32503772364366007,0.6278694246500207 l -17.903920622738383 9.07402927995808" fill="#ffeb16" stroke="none" /><path d="M 118.73160827565052 90.50648371742162 l 9.41325531580883 -4.7708072525126095 a31.553197500342257,31.553197500342257 0 0,0 0.24136691608254932,0.4865809744135592 l -9.493982244844785 4.608066689600101" fill="#ff6a09" stroke="none" /><path d="M 118.89224826269711 90.83032412892265 l 29.83049226036163 -14.478739708407085 a54.15859122519078,54.15859122519078 0 0,0 0.399849800120933,0.84218565346713 l -30.07530025432432 13.963111639299415" fill="#78ff26" stroke="none" /><path d="M 119.04729006885535 91.15688171328212 l 9.22182607935843 -4.281433135344019 a31.16723885479027,31.16723885479027 0 0,0 0.22172920340741015,0.48855090838854615 l -9.294157599729186 4.12206021811341" fill="#ff6409" stroke="none" /><path d="M 119.196687751892 91.48605970444005 l 13.442290967524885 -5.961802588666465 a35.70504255559403,35.70504255559403 0 0,0 0.2443403009857759,0.5639711027743947 l -13.542921978353343 5.729532341305467" fill="#ffa40f" stroke="none" /><path d="M 119.34039704204932 91.81776055985345 l 18.417651150472206 -7.7918582183505185 a40.99807311706222,40.99807311706222 0 0,0 0.26937356998136114,0.6523094662297761 l -18.549046407339763 7.473674181667439" fill="#ffea15" stroke="none" /><path d="M 119.47837535516314 92.15188598940014 l 7.959712552079251 -3.207081209869081 a29.581514656424197,29.581514656424197 0 0,0 0.18623176389753776,0.4739395258497076 l -8.01373786585849 3.069592679123589" fill="#ff4e07" stroke="none" /><path d="M 119.61058180528143 92.48833698450437 l 15.389412046531849 -5.8947806061023345 a37.47975853985791,37.47975853985791 0 0,0 0.2255842620716698,0.6044536689131969 l -15.488600897105144 5.629003800159804" fill="#ffbb11" stroke="none" /><path d="M 119.7369772167798 92.82701384747503 l 15.103160153908998 -5.488923529346381 a37.069652396540405,37.069652396540405 0 0,0 0.21279201865972408,0.6015916916324432 l -15.195405253378532 5.228134211287323" fill="#ffb610" stroke="none" /><path d="M 119.85752413597 93.16781622104841 l 12.764141325688692 -4.391633051556957 a34.4985089784643,34.4985089784643 0 0,0 0.18836630477664787,0.5631912755663623 l -12.83784492423711 4.171268673068281" fill="#ff930d" stroke="none" /><path d="M 119.97218684219823 93.5106431181261 l 19.405800496791716 -6.305326802573949 a41.40446615348069,41.40446615348069 0 0,0 0.21440517341409232,0.6797229912197824 l -19.511461153974015 5.970353644927747" fill="#ffef16" stroke="none" /><path d="M 120.08093135843002 93.85539295169968 l 10.148371456367903 -3.105321843221681 a31.61284443334644,31.61284443334644 0 0,0 0.15474352301300778,0.5217182324738773 l -10.200320876492613 2.9301742240012736" fill="#ff6b09" stroke="none" /><path d="M 120.18372546131832 94.20196356495316 l 13.066870112312303 -3.7536276020206496 a34.59532326598716,34.59532326598716 0 0,0 0.1594897604133739,0.5737695261005085 l -13.12954664329204 3.5281467725011892" fill="#ff940d" stroke="none" /><path d="M 120.28053869075195 94.5502522615342 l 9.91754593173493 -2.6650240576326194 a31.26937537223334,31.26937537223334 0 0,0 0.13520828494872414,0.5210126768380567 l -9.961950548553956 2.493914955245712" fill="#ff6609" stroke="none" /><path d="M 120.37134235888165 94.90015583598534 l 16.482761156646387 -4.126361032606254 a37.991417560594,37.991417560594 0 0,0 0.15335362289207066,0.6357497714755672 l -16.551347579799277 3.8420260294712802" fill="#ffc212" stroke="none" /><path d="M 120.45610955862082 95.25157060432595 l 5.088422611804112 -1.1811637710612757 a26.223714438059098,26.223714438059098 0 0,0 0.09828350094909327,0.4405856632969072 l -5.108000499755243 1.0933999382144046" fill="#ff1c02" stroke="none" /><path d="M 120.53481517161879 95.60439243477599 l 16.21805166404745 -3.471576928834913 a37.585446817934425,37.585446817934425 0 0,0 0.12997531482227795,0.6338057948669529 l -16.275406274784725 3.1918954778045485" fill="#ffbd11" stroke="none" /><path d="M 120.6074358757038 95.95851677861258 l 9.791554118604429 -1.9202972131192078 a30.97807964712012,30.97807964712012 0 0,0 0.09811831154242459,0.5241519436539321 l -9.823158154056713 1.751467192002713" fill="#ff6209" stroke="none" /><path d="M 120.67395015179393 96.31383870115 l 8.718180914459825 -1.5544499646801104 a29.855675759079347,29.855675759079347 0 0,0 0.08585374676888591,0.506713673331915 l -8.743646522748936 1.4041505030323576" fill="#ff5207" stroke="none" /><path d="M 120.73433829027371 96.67025291283417 l 20.785933210562188 -3.3380327644388634 a42.05225598767076,42.05225598767076 0 0,0 0.10862319309109772,0.7156911245670908 l -20.840312297092584 2.97974252747969" fill="#fff717" stroke="none" /><path d="M 120.78858239683441 97.02765380044208 l 6.620548290956638 -0.9466043030722072 a27.68787854102358,27.68787854102358 0 0,0 0.0633973322787188,0.47238376325667286 l -6.635861622293193 0.83250219775087" fill="#ff3204" stroke="none" /><path d="M 120.83666639777658 97.38593545837742 l 13.174102129304634 -1.6527573358665717 a34.27737073838829,34.27737073838829 0 0,0 0.06840726226718877,0.5860716474942278 l -13.200599744575412 1.4257419500474913" fill="#ff900d" stroke="none" /><path d="M 120.87857604477298 97.74499172005257 l 9.931200194673472 -1.0726276840326399 a30.988957275673755,30.988957275673755 0 0,0 0.05271498219036566,0.5308326766673658 l -9.948192302546067 0.9015194766608391" fill="#ff6209" stroke="none" /><path d="M 120.91429891909075 98.10471618934814 l 23.35760671312226 -2.116699872666758 a44.453319801594006,44.453319801594006 0 0,0 0.06250034347995896,0.7626624980203157 l -23.390581540421714 1.7143234574386734" fill="#e9ff1a" stroke="none" /><path d="M 120.94382443527127 98.46500227214037 l 3.3336003420021387 -0.24432352201863283 a24.34254173101973,24.34254173101973 0 0,0 0.02703112793417773,0.4181595848813141 l -3.337312060940732 0.18690487288428348" fill="#ff0000" stroke="none" /><path d="M 120.96714384426684 98.82574320788733 l 14.984267336206994 -0.8391881042579032 a36.00774814145173,36.00774814145173 0 0,0 0.02933155458748869,0.6191427585425971 l -14.996492499027978 0.5811342390923063" fill="#ffa80f" stroke="none" /><path d="M 120.98425023603335 99.18683210126433 l 33.14881561472953 -1.2845611559053312 a54.17369551350282,54.17369551350282 0 0,0 0.028088559486565187,0.9321225434922363 l -33.16601586867174 0.7137684649880958" fill="#77ff27" stroke="none" /><line stroke="#e1ed5e" stroke-width="0.3" x1="184.98032266829074" x2="189.97916517819016" y1="98.17113171792111" y2="98.06355123074" /><path d="M 185.9800911702706 98.14961562048488 a86.0,86.0 0 0,1 -9.607161424134198,41.387399972396054" fill="none" id="id112" stroke="none" /><text fill="#e1ed5e" style="font-size:6.75px; font-family:Arial;" text-anchor="middle"><textPath startOffset="21.466115282336823" xlink:href="#id112">April</textPath></text><path d="M 120.99513854157772 99.54816195383933 l 13.330503679079381 -0.28688682976607743 a34.33359037885303,34.33359037885303 0 0,0 0.00763022009149414,0.5909689548837863 l -13.33346690628859 0.057381616821828414" fill="#ff910d" stroke="none" /><path d="M 120.99980553446 99.90962569577887 l 9.866236531888934 -0.04246011994670056 a30.86632789668809,30.86632789668809 0 0,0 -0.00228661095104602,0.5313278560623781 l -9.865505623648383 -0.1273772143193623" fill="#ff6008" stroke="none" /><path d="M 120.99824983174949 100.27111621757518 l 4.554512067595094 0.05880500015767452 a25.554891678395094,25.554891678395094 0 0,0 -0.009464968836475317,0.4397999099501158 l -4.552825036073611 -0.13719472589790518" fill="#ff1202" stroke="none" /><path d="M 120.9904718944345 100.63252640178507 l 20.812930111062258 0.6271763617303384 a41.82237762592628,41.82237762592628 0 0,0 -0.02787733742164419,0.719390208688425 l -20.79905064078941 -0.9853438174327694" fill="#fff417" stroke="none" /><path d="M 120.9764740272857 100.99374915477107 l 13.459800585505528 0.6376508005031942 a34.47489630182575,34.47489630182575 0 0,0 -0.033183974144472356,0.5925221500824871 l -13.446830260473526 -0.8692446669211047" fill="#ff930d" stroke="none" /><path d="M 120.95626037817324 101.35467743843564 l 10.000779651933177 0.6464813051927295 a31.021653143293495,31.021653143293495 0 0,0 -0.03903327771271811,0.5325780623065101 l -9.988169815556121 -0.8185325039960099" fill="#ff6209" stroke="none" /><path d="M 120.92983693683757 101.71520430193887 l 16.551239917439364 1.3563774048735517 a37.6067246159226,37.6067246159226 0 0,0 -0.05842545587101542,0.6447200370219404 l -16.525439865291272 -1.6410788304440624" fill="#ffbd11" stroke="none" /><path d="M 120.89721153311464 102.0752229133903 l 34.00453801962199 3.3768618528719765 a55.17179834163399,55.17179834163399 0 0,0 -0.10198296350811019,0.9442355834387534 l -33.94137275461283 -3.9616937581955214" fill="#6cff28" stroke="none" /><path d="M 120.8583938346157 102.4346265915055 l 10.10417266108193 1.1793759213141388 a31.172769177010313,31.172769177010313 0 0,0 -0.06679655074103982,0.5324342311186064 l -10.082374601094042 -1.3531279067201403" fill="#ff6509" stroke="none" /><path d="M 120.81339534386255 102.79330883721812 l 13.199934081162379 1.7715270339339466 a34.31827946016267,34.31827946016267 0 0,0 -0.08361558743127148,0.5848072237457583 l -13.167484442714507 -1.9984797296601142" fill="#ff910d" stroke="none" /><path d="M 120.76222939487914 103.15116336523771 l 3.376911685524077 0.5125268673551575 a24.41558433091469,24.41558433091469 0 0,0 -0.06664087905200217,0.41497281747050413 l -3.3675890521107865 -0.5705789145188667" fill="#ff0100" stroke="none" /><path d="M 120.70491114924044 103.5080841355445 l 13.49945269873917 2.2872455481518723 a34.691848500587376,34.691848500587376 0 0,0 -0.1048248194853405,0.5879132563696648 l -13.45808143691464 -2.5192775552547553" fill="#ff960d" stroke="none" /><path d="M 120.64145759157962 103.86396538481128 l 14.599778596927381 2.7329968765117085 a35.853376956312715,35.853376956312715 0 0,0 -0.11877723037616453,0.6056425387385905 l -14.550571433575552 -2.983903142318244" fill="#ffa60f" stroke="none" /><path d="M 120.5718875245553 104.21870165774334 l 19.83852622341095 4.068310375797547 a41.25137704035915,41.25137704035915 0 0,0 -0.14863452846186728,0.6943710339914331 l -19.765557656224637 -4.4091952292051495" fill="#ffed16" stroke="none" /><path d="M 120.49622156327973 104.57218783832717 l 16.548720356119812 3.6916003136736566 a37.95547281266346,37.95547281266346 0 0,0 -0.14773613654978093,0.6364434096425345 l -16.48272365363948 -3.9759123806647563" fill="#ffc212" stroke="none" /><path d="M 120.41448212921028 104.9243191809786 l 16.02684414639306 3.865946514886732 a37.48651799952732,37.48651799952732 0 0,0 -0.15670914984919276,0.6259751552553644 l -15.957923682248806 -4.141249509539493" fill="#ffbc11" stroke="none" /><path d="M 120.32669344350535 105.2749913415812 l 18.65430354241898 4.840988522947803 a40.27221343105191,40.27221343105191 0 0,0 -0.1799054196162617,0.6694949928509374 l -18.56821004646094 -5.161374448974288" fill="#ffe015" stroke="none" /><path d="M 120.23288151984713 105.62410040840565 l 56.5486348640029 15.71872993579533 a79.69264498876151,79.69264498876151 0 0,0 -0.37875775028097575,1.318505417076782 l -56.26968447683582 -16.689792828376696" fill="#47fcff" stroke="none" /><path d="M 120.13307415673323 105.97154293290107 l 7.6996524315328045 2.2837448819477646 a29.031197809307876,29.031197809307876 0 0,0 -0.14622492810968496,0.4778715255801686 l -7.659200730916987 -2.41594338007999" fill="#ff4606" stroke="none" /><path d="M 120.02730092923936 106.31721596034902 l 19.043941609733267 6.007034712766509 a40.96888024089763,40.96888024089763 0 0,0 -0.21793054238550627,0.6707212425475512 l -18.937718816331515 -6.333954855291855" fill="#ffe915" stroke="none" /><path d="M 119.9155931802556 106.66101706037122 l 24.359371557132587 8.147293834202493 a46.68574272781058,46.68574272781058 0 0,0 -0.26146054328647184,0.7599267257578972 l -24.215520182902885 -8.56539326304969" fill="#ceff1d" stroke="none" /><path d="M 119.79798401119884 107.00284435728193 l 18.849220051351452 6.667252292006415 a40.9936327281846,40.9936327281846 0 0,0 -0.24103424262823414,0.6632227156248706 l -18.73166154771799 -6.990722804637417" fill="#ffe915" stroke="none" /><path d="M 119.67450827220406 107.3425965602758 l 9.55286116623876 3.5651618108857095 a31.196447185134165,31.196447185134165 0 0,0 -0.19208947987604244,0.5014850175350382 l -9.49007740676921 -3.7290703952538915" fill="#ff6509" stroke="none" /><path d="M 119.54520255179757 107.68017299344265 l 9.645947173039684 3.790318507993179 a31.363918721077848,31.363918721077848 0 0,0 -0.20177063932672593,0.500778179719239 l -9.579273919455565 -3.9557960555552314" fill="#ff6709" stroke="none" /><path d="M 119.41010516605496 108.01547362559984 l 12.373928608313905 5.1098588882686595 a34.38748546448016,34.38748546448016 0 0,0 -0.2306401708064652,0.5451652337814269 l -12.28413745631513 -5.32209864771625" fill="#ff920d" stroke="none" /><path d="M 119.26925614724726 108.34839909993367 l 12.611541082473488 5.463946164664947 a34.744296132042315,34.744296132042315 0 0,0 -0.2424803025184549,0.5467290692487647 l -12.51561969522376 -5.6802235704064" fill="#ff960d" stroke="none" /><path d="M 119.12269723197855 108.67885076344098 l 15.032439564141123 6.822484192734774 a37.50819583751269,37.50819583751269 0 0,0 -0.27189045157200054,0.585627844176005 l -14.912774495729291 -7.0802321041896095" fill="#ffbc11" stroke="none" /><path d="M 118.97047184881838 109.00673069616215 l 4.943321953242335 2.3469721750781454 a26.472176013616398,26.472176013616398 0 0,0 -0.1989784178129249,0.40995447615519914 l -4.902190278814696 -2.43171560719862" fill="#ff2003" stroke="none" /><path d="M 118.81262510543309 109.33194174019688 l 16.158779214857937 8.015510083290266 a39.037587078372006,39.037587078372006 0 0,0 -0.30378925755628133,0.599405025652875 l -16.018411287515388 -8.292469320645834" fill="#ffd013" stroke="none" /><path d="M 118.64920377521936 109.65438752849418 l 30.660008010611797 15.87218427815697 a55.52480738498845,55.52480738498845 0 0,0 -0.44670366376141585,0.8449949871655633 l -30.38225183862549 -16.39759428040867" fill="#69ff28" stroke="none" /><line stroke="#e1ed5e" stroke-width="0.3" x1="174.80103733775053" x2="179.2010983576182" y1="140.37084112569926" y2="142.7455964860345" /><path d="M 175.68104954172406 140.8457921977663 a86.0,86.0 0 0,1 -30.038265399797805,32.042727171017184" fill="none" id="id113" stroke="none" /><text fill="#e1ed5e" style="font-size:6.75px; font-family:Arial;" text-anchor="middle"><textPath startOffset="22.206326154141568" xlink:href="#id113">May</textPath></text><path d="M 118.48025628344425 109.97397251340804 l 11.61362381024754 6.267984755614099 a34.19711676475431,34.19711676475431 0 0,0 -0.2840373282149726,0.5156102549292327 l -11.504010072581059 -6.466965528941136" fill="#ff8f0d" stroke="none" /><path d="M 118.30583269289576 110.29060199501025 l 16.193145459234785 9.102957388710438 a39.57637728634445,39.57637728634445 0 0,0 -0.33893964068901694,0.5909698328486367 l -16.03405382239339 -9.38034706741739" fill="#ffd714" stroke="none" /><path d="M 118.12598468904814 110.60418214915192 l 26.693143328465972 15.616197345653678 a51.9255480192741,51.9255480192741 0 0,0 -0.4579811682390287,0.7676027809961907 l -26.420381284528716 -16.073362220535973" fill="#90ff24" stroke="none" /><path d="M 117.94076556474637 110.91462005526583 l 5.958097535949911 3.624726638471525 a27.974064055594663,27.974064055594663 0 0,0 -0.253811827370677,0.40922548116673885 l -5.894821068911271 -3.7267484510035374" fill="#ff3605" stroke="none" /><path d="M 117.75023020441432 111.22182372390056 l 6.675456455666244 4.220271780105188 a28.897620704329142,28.897620704329142 0 0,0 -0.26942921875630016,0.4181601307480112 l -6.601822373532893 -4.3345535107746525" fill="#ff4406" stroke="none" /><path d="M 117.55443506779139 111.5257021239791 l 17.124032262216268 11.243112880222377 a41.485118211883616,41.485118211883616 0 0,0 -0.39706571105989275,0.5935593634514015 l -16.927963445745654 -11.536209157879584" fill="#fff016" stroke="none" /><path d="M 117.35343817320211 111.8261652097733 l 9.010458347542071 6.140522008968025 a31.90386950469471,31.90386950469471 0 0,0 -0.31317308179596925,0.45114918187924663 l -8.903424358583965 -6.2947124530342915" fill="#ff6f0a" stroke="none" /><path d="M 117.14729908036423 112.12312394758627 l 8.039576036810283 5.683972520891328 a30.8459294365693,30.8459294365693 0 0,0 -0.3102516009504606,0.43091233834834075 l -7.940544643484219 -5.8215184646908" fill="#ff6008" stroke="none" /><path d="M 116.93607887273984 112.41649034213515 l 3.911264645089094 2.867498436692559 a25.849797769841356,25.849797769841356 0 0,0 -0.26617750123516803,0.3565882610100892 l -3.861325877158834 -2.934399577211963" fill="#ff1702" stroke="none" /><path d="M 116.498646956653 112.99209946851258 l 13.156423003862187 10.360216614434433 a37.745911577294244,37.745911577294244 0 0,0 -0.40636545241845445,0.5070033834367234 l -12.97613963938888 -10.585147831449406" fill="#ffbf11" stroke="none" /><path d="M 116.27256486870786 113.27417163493432 l 5.606452469842976 4.573403943892627 a28.235214781236355,28.235214781236355 0 0,0 -0.3104582874691631,0.3739670068750365 l -5.526898182480269 -4.669232207881434" fill="#ff3a05" stroke="none" /><path d="M 116.0416608686014 113.55231037782055 l 13.29507198329266 11.231938107214045 a38.40446415966951,38.40446415966951 0 0,0 -0.4309666497688899,0.5013115771712255 l -13.099762823952991 -11.459126783546798" fill="#ffc812" stroke="none" /><path d="M 115.80600337817218 113.82643327865902 l 7.61145479848133 6.658183565243624 a31.11264814664313,31.11264814664313 0 0,0 -0.35607855457384313,0.40005803082655256 l -7.495717394259149 -6.788215765811042" fill="#ff6409" stroke="none" /><path d="M 115.56566222782051 114.09645910891815 l 6.32516542443437 5.72814920802547 a29.53342902916892,29.53342902916892 0 0,0 -0.34449140594754024,0.3738773832770662 l -6.225627610491108 -5.836177846103872" fill="#ff4d07" stroke="none" /><path d="M 115.32070863581623 114.36230785411682 l 5.157152562879983 4.83454222121128 a28.06887692957616,28.06887692957616 0 0,0 -0.3334762335275894,0.34964849763326533 l -5.073169777973429 -4.9225978354270525" fill="#ff3805" stroke="none" /><path d="M 115.07121518719521 114.62390073753431 l 9.903084292107932 9.60916023588231 a34.79880570685219,34.79880570685219 0 0,0 -0.4208325212440973,0.426301122200363 l -9.7362111458083 -9.778201852063336" fill="#ff970d" stroke="none" /><path d="M 114.81725581225074 114.88116024355365 l 13.283815934688487 13.341106887452966 a39.82670706122366,39.82670706122366 0 0,0 -0.4899634126658297,0.4795323229220608 l -13.052202569646864 -13.567789313297599" fill="#ffda14" stroke="none" /><path d="M 114.55890576462653 115.13401014063108 l 8.347044891056957 8.676768987164285 a33.03991189626967,33.03991189626967 0 0,0 -0.41325718523975724,0.3907604628571318 l -8.196451871426392 -8.819164086767337" fill="#ff7f0b" stroke="none" /><path d="M 114.29624159901734 115.38237550388516 l 2.283045875322175 2.4564966046192014 a24.353606124357967,24.353606124357967 0 0,0 -0.30952325936655634,0.28274215870570313 l -2.2404230664887548 -2.4954315299114875" fill="#ff0000" stroke="none" /><path d="M 114.0293411484842 115.62618273729858 l 5.050517887563069 5.625375746000918 a28.559932752101034,28.559932752101034 0 0,0 -0.36863753204431376,0.32527976127820163 l -4.952938002612168 -5.711478649051409" fill="#ff3f05" stroke="none" /><path d="M 113.75828350139079 115.86535959552629 l 13.711650993561257 15.811585336151419 a41.92882232261596,41.92882232261596 0 0,0 -0.5493365022580288,0.468156484825195 l -13.437449014726182 -16.04526621119956" fill="#fff517" stroke="none" /><path d="M 113.48314897796784 116.09983520530334 l 5.202043418193171 6.211608423269527 a29.10218087485091,29.10218087485091 0 0,0 -0.3868232384126801,0.31832919042164404 l -5.0943500512358 -6.300232732548349" fill="#ff4706" stroke="none" /><path d="M 113.20401910651253 116.32954008644616 l 3.049469996038011 3.771309488499358 a25.849952836346077,25.849952836346077 0 0,0 -0.34841121256845786,0.2767989389267254 l -2.984101290752202 -3.8232423414312096" fill="#ff1702" stroke="none" /><path d="M 112.92097659922987 116.55440617244103 l 2.4592678741450626 3.150823698408329 a24.99695990163193,24.99695990163193 0 0,0 -0.3414718890846811,0.26182608344179825 l -2.4046672565668876 -3.1926891236774986" fill="#ff0a01" stroke="none" /><path d="M 112.63410532772338 116.77436683061366 l 8.483429411721525 11.263493001089037 a35.10088114868158,35.10088114868158 0 0,0 -0.48575445777897885,0.3593495351159204 l -8.288289983523983 -11.407852484944726" fill="#ff9b0e" stroke="none" /><path d="M 112.34349029814194 116.9893568818739 l 4.044717576152283 5.567076145227987 a27.881284551419284,27.881284551419284 0 0,0 -0.3907000051405603,0.27875407993926676 l -3.948290243162838 -5.635874487011473" fill="#ff3505" stroke="none" /><path d="M 112.04921762599082 117.19931262002967 l 12.824421862056347 18.30585583422993 a43.35106605778791,43.35106605778791 0 0,0 -0.6148484080747968,0.42289834156095674 l -12.507416569358668 -18.523894965155982" fill="#f7ff19" stroke="none" /><path d="M 111.7513745106137 117.40417183066458 l 18.842327502883364 27.906106239202227 a54.67171024999408,54.67171024999408 0 0,0 -0.7844747410228979,0.5199070822498032 l -18.359178063120503 -28.226311342543347" fill="#72ff27" stroke="none" /><path d="M 111.45004920935366 117.60387380957326 l 9.283422231358282 14.272793984877831 a38.02629074286123,38.02629074286123 0 0,0 -0.5517763233335315,0.3521697559446322 l -9.03636410597782 -14.430478169646273" fill="#ffc312" stroke="none" /><path d="M 111.1453310114006 117.79835938074945 l 1.7735950849000728 2.8323145077245573 a24.34180265662841,24.34180265662841 0 0,0 -0.3570372156849779,0.21932141908674857 l -1.7245786692827862 -2.862424393639684" fill="#ff0000" stroke="none" /><line stroke="#e1ed5e" stroke-width="0.3" x1="143.8653032363475" x2="146.44561519142675" y1="172.8068346515853" y2="177.08958963109032" /><path d="M 144.38136562736335 173.6633856474863 a86.0,86.0 0 0,1 -40.68145358897372,12.25698825130547" fill="none" id="id114" stroke="none" /><text fill="#e1ed5e" style="font-size:6.75px; font-family:Arial;" text-anchor="middle"><textPath startOffset="21.466115282336833" xlink:href="#id114">June</textPath></text><path d="M 110.8373102113329 117.98757091392108 l 5.193669963477552 8.620359198896105 a31.06403499633828,31.06403499633828 0 0,0 -0.4603869403028194,0.27200471930683867 l -5.04451515214635 -8.708482490496694" fill="#ff6309" stroke="none" /><path d="M 110.5260780823613 118.17145234162733 l 6.966368713900808 12.026230100931832 a34.89821943626502,34.89821943626502 0 0,0 -0.5223951577164041,0.2966296042275082 l -6.758324789263205 -12.144362870953968" fill="#ff990e" stroke="none" /><path d="M 110.21172684928248 118.3499491758327 l 6.466891467213671 11.620672144920812 a34.2988986893073,34.2988986893073 0 0,0 -0.518366096286402,0.2826545263109135 l -6.26590255905862 -11.730267322991494" fill="#ff900d" stroke="none" /><path d="M 109.89434966115114 118.52300852407294 l 5.15956488303111 9.65911531145278 a31.950781633388065,31.950781633388065 0 0,0 -0.48733933469350244,0.2549529068322528 l -4.992534645811112 -9.74649763722975" fill="#ff700a" stroke="none" /><path d="M 109.57404056367764 118.69057910512821 l 6.3930030827459 12.480512176928984 a35.02261290253964,35.02261290253964 0 0,0 -0.5389247858188104,0.2702280755045825 l -6.177224389244329 -12.588708093342868" fill="#ff9a0e" stroke="none" /><path d="M 109.2508944713604 118.85261126421891 l 2.1897938740731586 4.462631455204379 a25.970943242072664,25.970943242072664 0 0,0 -0.4030286382226879,0.19347823835690092 l -2.1126525678502377 -4.4996639700608405" fill="#ff1902" stroke="none" /><path d="M 108.92500713936063 119.00905698771935 l 7.501930489748938 15.978096372454312 a38.65158703234535,38.65158703234535 0 0,0 -0.6046801597384017,0.27757900364692867 l -7.225782334243117 -16.104862446435316" fill="#ffcb12" stroke="none" /><path d="M 108.59647513512805 119.15986991738527 l 4.3963025576776795 9.798502734960547 a31.739559210026854,31.739559210026854 0 0,0 -0.5003958023769509,0.21935881448496938 l -4.226986080642975 -9.872726102739971" fill="#ff6d0a" stroke="none" /><path d="M 108.2653958097858 119.30500536409082 l 4.048223880413242 9.45520160497232 a31.285375733371104,31.285375733371104 0 0,0 -0.4968840813059434,0.20769758628437654 l -3.884868339609838 -9.523484234276669" fill="#ff6609" stroke="none" /><path d="M 107.93186726928326 119.44442032107085 l 2.742967357786604 6.724193486989519 a28.26213797557958,28.26213797557958 0 0,0 -0.45203126152352274,0.17987256782225175 l -2.626815020221215 -6.770412899217839" fill="#ff3a05" stroke="none" /><path d="M 107.2578585660854 119.70592522655815 l 1.2441282685647674 3.377952106582297 a24.599779935357958,24.599779935357958 0 0,0 -0.39861066308644955,0.14292760189470835 l -1.1857980448485832 -3.3988672495169654" fill="#ff0400" stroke="none" /><path d="M 106.91757812671514 119.82793768551818 l 6.222427417381014 17.835418816307243 a39.889700032495526,39.889700032495526 0 0,0 -0.650259603103719,0.22060336263351785 l -5.914498081340068 -17.939885165838884" fill="#ffdb14" stroke="none" /><path d="M 106.57524785965236 119.94407469862006 l 2.1959259911290974 6.660693700759671 a28.013339542176457,28.013339542176457 0 0,0 -0.45925689795672775,0.1470395558709138 l -2.0809477480814293 -6.697506103290292" fill="#ff3705" stroke="none" /><path d="M 106.2309692047433 120.05430185196036 l 3.9220192958162072 12.622973448117284 a34.21823339287927,34.21823339287927 0 0,0 -0.56398985274857,0.16992551615383572 l -3.7041544686273915 -12.688614333376846" fill="#ff8f0d" stroke="none" /><path d="M 105.88484417918355 120.15858648285463 l 3.968978385206272 13.595771033288703 a35.16325454872032,35.16325454872032 0 0,0 -0.5824857278811307,0.16461628499188113 l -3.734361489220536 -13.662076111619102" fill="#ff9c0e" stroke="none" /><path d="M 105.53697534728816 120.25689768951611 l 3.6202547077401577 13.244619060946109 a34.73048353913626,34.73048353913626 0 0,0 -0.5780302820336234,0.15266305112055978 l -3.391733982895037 -13.304973461370253" fill="#ff960d" stroke="none" /><path d="M 105.18746579009965 120.34920634021253 l 1.2638661912394533 4.957849353153241 a26.116407720062988,26.116407720062988 0 0,0 -0.436575197354055,0.10729956168784707 l -1.1783377091421872 -4.978870173155118" fill="#ff1b02" stroke="none" /><path d="M 104.48393922423573 120.51570834832081 l 4.325577446890956 19.79114365753136 a41.25833131139126,41.25833131139126 0 0,0 -0.6951214240545655,0.1456694529496449 l -3.984264561407013 -19.862669091207547" fill="#ffed16" stroke="none" /><path d="M 103.7750983002368 120.6578951692458 l 0.941733250676797 5.153303363955847 a26.238644583896576,26.238644583896576 0 0,0 -0.44499620265400436,0.07736829382461802 l -0.8528880765507427 -5.168750236301471" fill="#ff1d02" stroke="none" /><path d="M 103.41894727170886 120.7198165907248 l 2.215109931325997 13.424211565107749 a34.605740264779115,34.605740264779115 0 0,0 -0.5885680636122761,0.09192222702265691 l -1.983706004105204 -13.460352099477511" fill="#ff950d" stroke="none" /><path d="M 103.06178313531738 120.77559828337769 l 2.707178053634396 18.369440694582202 a39.56785298428045,39.56785298428045 0 0,0 -0.6746722315139845,0.09350342366046377 l -2.390577230933581 -18.41331868373527" fill="#ffd714" stroke="none" /><path d="M 102.70371172650421 120.8252237178851 l 0.638829964674838 4.920560428697547 a25.961856371987267,25.961856371987267 0 0,0 -0.44366658564690536,0.05372184485490884 l -0.5540359559765523 -4.930827802277807" fill="#ff1802" stroke="none" /><path d="M 102.34483914955558 120.86867818915974 l 0.9289679352544387 8.26766001947183 a29.319686509857437,29.319686509857437 0 0,0 -0.5020192165089132,0.05203634442388416 l -0.7865161221399227 -8.282425732351472" fill="#ff4a06" stroke="none" /><path d="M 101.98527174616119 120.90594882070398 l 3.396271917733575 35.7645178956611 a56.92541444782856,56.92541444782856 0 0,0 -0.9762862608715807,0.0842380865863452 l -2.7801413391204526 -35.817680234526115" fill="#5aff2a" stroke="none" /><path d="M 101.26447882468166 120.96189622390904 l 0.5897216825690169 9.776110496838772 a30.793881156584106,30.793881156584106 0 0,0 -0.5293789770182944,0.027362846329697585 l -0.42135463713724297 -9.78481314993067" fill="#ff5f08" stroke="none" /><path d="M 100.90346689309514 120.98055641714683 l 0.16560789156340497 3.8457919583167883 a24.849356018920847,24.849356018920847 0 0,0 -0.4275031716012898,0.014724073615485323 l -0.09938436828746286 -3.8480728303583676" fill="#ff0801" stroke="none" /><line stroke="#e1ed5e" stroke-width="0.3" x1="102.19456741930631" x2="102.32365962044197" y1="184.97166512339345" y2="189.96999836594603" /><path d="M 102.22038585953345 185.97133177190398 a86.0,86.0 0 0,1 -42.740103519485714,-10.115201625700543" fill="none" id="id115" stroke="none" /><text fill="#e1ed5e" style="font-size:6.75px; font-family:Arial;" text-anchor="middle"><textPath startOffset="22.20632615414155" xlink:href="#id115">July</textPath></text><path d="M 100.54218724476979 120.99299961872073 l 0.3637533151163958 14.084199285782088 a35.08889584019567,35.08889584019567 0 0,0 -0.6039305425621045,0.010397211981657982 l -0.12126308266162325 -14.088373975042906" fill="#ff9b0e" stroke="none" /><path d="M 100.18074693466247 120.99922214144158 l 0.049645037617546295 5.767772355851659 a26.767986007150732,26.767986007150732 0 0,0 -0.4607839445599995,0.0 l 0.049645037617542326 -5.767772355851659" fill="#ff2403" stroke="none" /><path d="M 99.81925306533755 120.99922214144158 l -0.14320227364660637 16.637274436108886 a37.63789071828457,37.63789071828457 0 0,0 -0.6478024234763166,-0.011152506198049117 l 0.42956438701559085 -16.632344452631674" fill="#ffbe11" stroke="none" /><path d="M 99.45781275523022 120.99299961872073 l -0.2661860531491352 10.306483168266581 a31.309919995453576,31.309919995453576 0 0,0 -0.538649375478692,-0.018552173607919314 l 0.44355578030247017 -10.30037419623257" fill="#ff6609" stroke="none" /><path d="M 98.73552117531835 120.96189622390904 l -0.4983534530300766 8.261453779483606 a29.2764711510819,29.2764711510819 0 0,0 -0.5027707490505465,-0.03467401448802978 l 0.6404869628595532 -8.251651420479291" fill="#ff4906" stroke="none" /><path d="M 98.01472825383883 120.90594882070398 l -0.7494497298894462 7.89209725422001 a28.927602031364742,28.927602031364742 0 0,0 -0.4953058451830754,-0.051340476036637266 l 0.885188171678115 -7.878027409727612" fill="#ff4406" stroke="none" /><path d="M 97.65516085044442 120.86867818915974 l -1.6195774364294373 14.413969644645372 a35.50467345338562,35.50467345338562 0 0,0 -0.6067454121874012,-0.07346841965219161 l 1.8674502716682277 -14.383955696267831" fill="#ffa10e" stroke="none" /><path d="M 96.93821686468263 120.77559828337769 l -2.5034752056921157 16.987223747466565 a38.170706413890116,38.170706413890116 0 0,0 -0.6492003519890428,-0.10139174350111796 l 2.795511421289676 -16.94161369661834" fill="#ffc512" stroke="none" /><path d="M 96.58105272829116 120.7198165907248 l -0.5604182289687915 3.396297747677292 a24.44222413306257,24.44222413306257 0 0,0 -0.4145296792619484,-0.07207129821082865 l 0.6187968797027898 -3.3861478709454573" fill="#ff0200" stroke="none" /><path d="M 96.22490169976321 120.6578951692458 l -1.5572479121140816 8.521490452039819 a29.66261049476366,29.66261049476366 0 0,0 -0.501485112475553,-0.09611081535056434 l 1.7037006391613299 -8.493422438340787" fill="#ff4f07" stroke="none" /><path d="M 95.86986931433489 120.58985236759428 l -1.9892138794194922 9.916785501963156 a31.114326796679144,31.114326796679144 0 0,0 -0.5242149758353104,-0.10985434503303212 l 2.1596203166841894 -9.881075176203584" fill="#ff6409" stroke="none" /><path d="M 95.16358092515715 120.4354850818985 l -2.2872264288103916 9.6642951823602 a30.93126407404613,30.93126407404613 0 0,0 -0.5170627929492492,-0.12708145443167387 l 2.4532425065028516 -9.623492469614497" fill="#ff6109" stroke="none" /><path d="M 94.46302465271185 120.25689768951611 l -4.470050795837039 16.353578616267345 a37.953491902136264,37.953491902136264 0 0,0 -0.6287065187784351,-0.17767874218646068 l 4.750888482720088 -16.27421108074236" fill="#ffc212" stroke="none" /><path d="M 93.76903079525671 120.05430185196036 l -1.965427692810562 6.325706150147615 a27.62400666618641,27.62400666618641 0 0,0 -0.4528740884873121,-0.14499598184128654 l 2.0740231263888145 -6.290937321646622" fill="#ff3104" stroke="none" /><path d="M 93.42475214034765 119.94407469862007 l -1.349043592050936 4.091925771598389 a25.308569963865594,25.308569963865594 0 0,0 -0.4125661673670007,-0.13996484388015373 l 1.4192794923551624 -4.068097940820112" fill="#ff0f01" stroke="none" /><path d="M 92.40401165467489 119.57807347666478 l -3.0925882938478813 7.970907549810851 a29.54982277727887,29.54982277727887 0 0,0 -0.4726267941707723,-0.18806795530594336 l 3.229336164060512 -7.916492750098841" fill="#ff4d07" stroke="none" /><path d="M 92.06813273071674 119.44442032107085 l -1.2873651504640085 3.155886028156237 a24.408361138926004,24.408361138926004 0 0,0 -0.3876611936535643,-0.16204241038744416 l 1.3414978036150351 -3.1332585747488197" fill="#ff0100" stroke="none" /><path d="M 91.7346041902142 119.30500536409082 l -2.2283848970334583 5.2047092940857915 a26.661686858637612,26.661686858637612 0 0,0 -0.42033968084020246,-0.18426456343580014 l 2.317645252531404 -5.1655801773555385" fill="#ff2303" stroke="none" /><path d="M 91.40352486487194 119.15986991738527 l -1.9233603957305732 4.286795972440105 a25.69850347676721,25.69850347676721 0 0,0 -0.40203718347620343,-0.18455555225529707 l 1.996865574974196 -4.253053349850734" fill="#ff1402" stroke="none" /><path d="M 91.07499286063937 119.00905698771935 l -2.5028476896450034 5.330726756981829 a26.889048676582945,26.889048676582945 0 0,0 -0.41727620634396373,-0.20031793687840493 l 2.594236563989209 -5.286854543603861" fill="#ff2603" stroke="none" /><path d="M 90.42595943632237 118.69057910512821 l -4.6494722453824275 9.076766305869647 a31.198297835028747,31.198297835028747 0 0,0 -0.4758618391546497,-0.24894842362626435 l 4.805024987063573 -8.995388463298665" fill="#ff6509" stroke="none" /><path d="M 90.10565033884886 118.52300852407294 l -3.2068158408431344 6.003413987712128 a27.806221223626228,27.806221223626228 0 0,0 -0.4202409668815724,-0.22914888199926292 l 3.3096796195933478 -5.9473244539531" fill="#ff3404" stroke="none" /><line stroke="#e1ed5e" stroke-width="0.3" x1="58.666819895761336" x2="56.23545636021788" y1="174.27360380694188" y2="178.64263932499728" /><path d="M 58.180547188652646 175.14741091055294 a86.0,86.0 0 0,1 -31.652253787137756,-30.449443065178592" fill="none" id="id116" stroke="none" /><text fill="#e1ed5e" style="font-size:6.75px; font-family:Arial;" text-anchor="middle"><textPath startOffset="22.20632615414155" xlink:href="#id116">August</textPath></text><path d="M 89.7882731507175 118.34994917583269 l -10.351315038620308 18.60078198968488 a42.28705742127249,42.28705742127249 0 0,0 -0.632999459221463,-0.3594336132170336 l 10.669963264762979 -18.419845210673213" fill="#fffa17" stroke="none" /><path d="M 89.4739219176387 118.17145234162733 l -1.7363042215817113 2.9974287827020007 a24.46400514682829,24.46400514682829 0 0,0 -0.36257068595333264,-0.21421315208627836 l 1.7876427785634261 -2.967097058321973" fill="#ff0200" stroke="none" /><path d="M 88.8546689885994 117.79835938074946 l -3.9957749691402826 6.3809893876292 a28.528827476376684,28.528827476376684 0 0,0 -0.41396442372931996,-0.2642116812728699 l 4.105021194916526 -6.311263277532526" fill="#ff3e05" stroke="none" /><path d="M 87.95078237400918 117.19931262002967 l -3.9793933541695763 5.680271737211893 a27.93549266280177,27.93549266280177 0 0,0 -0.39145962255907096,-0.27929604679828296 l 4.076580304577535 -5.6109314285693905" fill="#ff3605" stroke="none" /><path d="M 87.65650970185807 116.9893568818739 l -5.8853336839947525 8.100466878590387 a31.012727711423253,31.012727711423253 0 0,0 -0.42917927529791805,-0.31749656763802586 l 6.023897929711235 -7.997960362212595" fill="#ff6209" stroke="none" /><path d="M 87.07902340077011 116.55440617244103 l -2.3988890041563584 3.073466052076425 a24.8988282890541,24.8988282890541 0 0,0 -0.3355917517778022,-0.26661438396275833 l 2.4514382486515185 -3.031717754108536" fill="#ff0801" stroke="none" /><path d="M 86.51685102203217 116.09983520530335 l -4.260749692884562 5.087637021483626 a27.63611621415619,27.63611621415619 0 0,0 -0.3620785554210925,-0.3085712000563643 l 4.347693724882711 -5.0135414312043105" fill="#ff3104" stroke="none" /><path d="M 85.97065885151581 115.62618273729859 l -6.7273281378255145 7.493043165950106 a31.069887772997795,31.069887772997795 0 0,0 -0.394884144982256,-0.3607173038285792 l 6.855311832274625 -7.376133095534951" fill="#ff6309" stroke="none" /><path d="M 85.70375840098266 115.38237550388516 l -8.672580669195938 9.331466002258752 a33.73930583725118,33.73930583725118 0 0,0 -0.4220050769511724,-0.39903214048614416 l 8.831921580537928 -9.180799225026677" fill="#ff890c" stroke="none" /><path d="M 85.44109423537348 115.13401014063109 l -6.897823445631362 7.170300547456417 a30.949531558216975,30.949531558216975 0 0,0 -0.38075299771486737,-0.37264694614713545 l 7.020226395722023 -7.050503498386712" fill="#ff6109" stroke="none" /><path d="M 85.18274418774928 114.88116024355367 l -2.712622008609586 2.724321109239049 a24.84450824785675,24.84450824785675 0 0,0 -0.3004521802584928,-0.3043564723398538 l 2.759114813923612 -2.6772241429185306" fill="#ff0801" stroke="none" /><line stroke="#e1ed5e" stroke-width="0.3" x1="26.63291911575756" x2="22.317208475507996" y1="142.92168965132927" y2="145.44649492493687" /><path d="M 25.769776987707644 143.4266507060508 a86.0,86.0 0 0,1 -11.730757126820373,-40.83630448921669" fill="none" id="id117" stroke="none" /><text fill="#e1ed5e" style="font-size:6.75px; font-family:Arial;" text-anchor="middle"><textPath startOffset="21.46611528233685" xlink:href="#id117">September</textPath></text><line stroke="#e1ed5e" stroke-width="0.3" x1="15.007084014347285" x2="10.007500721073583" y1="101.09737516637583" y2="101.16192664675087" /><path d="M 14.007167355692545 101.11028546245083 a86.0,86.0 0 0,1 10.666146001902534,-42.60595125391555" fill="none" id="id118" stroke="none" /><text fill="#e1ed5e" style="font-size:6.75px; font-family:Arial;" text-anchor="middle"><textPath startOffset="22.20632615414155" xlink:href="#id118">October</textPath></text><line stroke="#e1ed5e" stroke-width="0.3" x1="26.266209847984243" x2="21.928928074336255" y1="57.711370442889674" y2="55.22380399835377" /><path d="M 25.398753493254645 57.213857153982495 a86.0,86.0 0 0,1 29.58750427330803,-30.492523968695096" fill="none" id="id119" stroke="none" /><text fill="#e1ed5e" style="font-size:6.75px; font-family:Arial;" text-anchor="middle"><textPath startOffset="21.46611528233685" xlink:href="#id119">November</textPath></text><line stroke="#e1ed5e" stroke-width="0.3" x1="56.762969772571076" x2="54.21961505331055" y1="26.818313649435495" y2="22.513508569990535" /><path d="M 56.25429882871897 25.957352633546506 a86.0,86.0 0 0,1 42.265352541879196,-11.944610805530505" fill="none" id="id120" stroke="none" /><text fill="#e1ed5e" style="font-size:6.75px; font-family:Arial;" text-anchor="middle"><textPath startOffset="22.20632615414155" xlink:href="#id120">December</textPath></text></svg>