<?xml version="1.0" encoding="utf-8" ?>
<svg baseProfile="full" height="200mm" version="1.1" viewBox="0,0,200,200" width="200mm" xmlns="http://www.w3.org/2000/svg" xmlns:ev="http://www.w3.org/2001/xml-events" xmlns:xlink="http://www.w3.org/1999/xlink"><defs /><rect fill="#1a1a1a" height="200" width="200" x="0" y="0" /><text alignment-baseline="middle" fill="#e1ed5e" style="dominant-baseline: central; font-size:9.0px; font-family:Arial;" text-anchor="middle" x="100.0" y="100.0">2023</text><line stroke="#e1ed5e" stroke-width="0.3" x1="100.0" x2="100.0" y1="15.0" y2="10.0" /><path d="M 100.0 14.0 a86.0,86.0 0 0,1 42.46469731375804,11.215312516191453" fill="none" id="id133" stroke="none" /><text fill="#e1ed5e" style="font-size:6.75px; font-family:Arial;" text-anchor="middle"><textPath startOffset="22.20632615414155" xlink:href="#id133">January</textPath></text><path d="M 100.0 79.0 l 0.0 -11.642314751502504 a32.642314751502504,32.642314751502504 0 0,0 0.561883789568469,0.004836311169859095 l -0.20040331029594058 11.640589816941203" fill="#ff0000" stroke="none" /><path d="M 100.72285384407766 79.0124445844662 l 0.6093152971860585 -17.69104317559796 a38.701533091013786,38.701533091013786 0 0,0 0.6655911179241562,0.028661753645922487 l -0.9137472474995463 17.677933695427843" fill="#ff6709" stroke="none" /><path d="M 101.08401301168833 79.027996857942 l 0.913162074750587 -17.66661257234399 a38.690196854644256,38.690196854644256 0 0,0 0.6648043506200917,0.04010281393133561 l -1.2171284742102906 17.64827648903235" fill="#ff6709" stroke="none" /><path d="M 101.44485096284872 79.0497635885617 l 1.619978110179285 -23.48956761789183 a44.54536293950409,44.54536293950409 0 0,0 0.764504086752974,0.05934023090249124 l -2.0240723862946 23.458202124800874" fill="#ffc512" stroke="none" /><path d="M 101.80526077348638 79.07773832637324 l 2.252011977606255 -26.0999322533473 a47.19690862633606,47.19690862633606 0 0,0 0.8088086425540975,0.07680612632723444 l -2.7009457472505964 26.05730058250489" fill="#ffed16" stroke="none" /><path d="M 102.16513564639614 79.11191278185805 l 3.008102501059699 -29.02058700471367 a50.17607154424731,50.17607154424731 0 0,0 0.8583293136081824,0.09644329935592669 l -3.507198518177607 28.96450775188714" fill="#e6ff1a" stroke="none" /><path d="M 102.52436894288641 79.15227682838746 l 2.8122180448238443 -23.224950323491278 a44.3945909957894,44.3945909957894 0 0,0 0.7578479526623187,0.09839041463744556 l -3.2115807259940095 23.173101585689697" fill="#ffc212" stroke="none" /><path d="M 102.88285421437855 79.19881850522331 l 5.245255045288951 -37.8470411855246 a59.208784683485085,59.208784683485085 0 0,0 1.0083284778064268,0.1486014066164382 l -5.895952503524033 37.75114529474719" fill="#6cff28" stroke="none" /><path d="M 103.2404852339499 79.25152402106235 l 5.371517980291128 -34.39324784351882 a55.81018101990139,55.81018101990139 0 0,0 0.9478981699953005,0.15641131995415364 l -5.962745356425304 34.295690260625044" fill="#98ff23" stroke="none" /><path d="M 103.59715602781102 79.31037775812273 l 3.980147574515566 -22.89245980629927 a44.23588368661605,44.23588368661605 0 0,0 0.7490712410135839,0.13688798135235533 l -4.373613936632051 22.820556343596177" fill="#ffc011" stroke="none" /><path d="M 103.95276090670814 79.375362276772 l 6.70818534126157 -35.001836870272555 a56.6388598985137,56.6388598985137 0 0,0 0.9559387846437457,0.19175232719436067 l -7.309690535372441 34.88118058700099" fill="#8dff24" stroke="none" /><path d="M 104.307194497241 79.44645832069477 l 2.414629944966054 -11.522395203130136 a32.772681469752044,32.772681469752044 0 0,0 0.5511386147638946,0.12045755431754497 l -2.612611283883476 11.479124150716721" fill="#ff0200" stroke="none" /><path d="M 106.0581310904928 79.89281104454417 l 4.302740351114566 -14.280974111289396 a35.91508619138446,35.91508619138446 0 0,0 0.5904006235057723,0.18344034764621645 l -4.547926347331056 14.204793628760658" fill="#ff3905" stroke="none" /><path d="M 106.40334571778207 80.00007090966166 l 7.094447089201384 -22.15848479415397 a44.266491524813766,44.266491524813766 0 0,0 0.7236879495013814,0.23858853884779782 l -7.4748178609451825 22.033082531046936" fill="#ffc011" stroke="none" /><line stroke="#e1ed5e" stroke-width="0.3" x1="143.23703022742887" x2="145.7803849466894" y1="26.81831364943548" y2="22.513508569990506" /><path d="M 143.74570117128098 25.957352633546492 a86.0,86.0 0 0,1 28.547481713284135,27.462654790039103" fill="none" id="id134" stroke="none" /><text fill="#e1ed5e" style="font-size:6.75px; font-family:Arial;" text-anchor="middle"><textPath startOffset="19.985693538727396" xlink:href="#id134">February</textPath></text><path d="M 110.99172775467656 82.1063720568725 l 6.126997199848317 -9.974247065573895 a32.705797675171844,32.705797675171844 0 0,0 0.47716333400287675,0.29879963597755305 l -6.297779686223457 9.867303088273397" fill="#ff0100" stroke="none" /><path d="M 112.19680574252982 82.90503203632743 l 7.915392016232061 -11.094164799687176 a34.62842336344334,34.62842336344334 0 0,0 0.48224974285347116,0.35037494730269403 l -8.105187075439321 10.956270617567807" fill="#ff2303" stroke="none" /><path d="M 112.48926042617603 83.11751280151076 l 7.397955230310736 -10.000262642369952 a33.439252168280134,33.439252168280134 0 0,0 0.4597958418587724,0.3463086955205501 l -7.568997225927892 9.871437357343554" fill="#ff0e01" stroke="none" /><path d="M 112.77801427241765 83.33499621200491 l 14.449590256879382 -18.845062404231548 a44.74714794688164,44.74714794688164 0 0,0 0.6072133530631335,0.47393965352438644 l -14.771836165101947 18.593544361483936" fill="#ffc812" stroke="none" /><path d="M 113.06298171725822 83.55741782278167 l 17.342874672738077 -21.829751290163063 a48.88033972721057,48.88033972721057 0 0,0 0.6542903511586656,0.5290572944596619 l -17.716068422461234 21.527987898439275" fill="#f8ff18" stroke="none" /><path d="M 113.34407831869373 83.78471172551755 l 17.411364147324978 -21.15772121221337 a48.40081692877965,48.40081692877965 0 0,0 0.6387581722301352,0.5349415995411139 l -17.77297985651423 20.85487845527844" fill="#ffff18" stroke="none" /><path d="M 113.6212207817346 84.01681056812373 l 17.23915074825105 -20.2284814605934 a47.57780616835211,47.57780616835211 0 0,0 0.6187520910171046,0.5365757160456799 l -17.58479663791492 19.928740751128046" fill="#fff216" stroke="none" /><path d="M 113.89432698308785 84.25364557470407 l 11.87545682098984 -13.458381416618053 a38.94866304386943,38.94866304386943 0 0,0 0.498893447934619,0.4479114634383381 l -12.10536125652045 13.251970944410417" fill="#ff6c09" stroke="none" /><path d="M 114.16331599549186 84.49514656593476 l 15.651414784452104 -17.133903695005728 a44.20640947205528,44.20640947205528 0 0,0 0.557405176854145,0.5180473636752084 l -15.944027845101097 16.86195174525588" fill="#ffbf11" stroke="none" /><path d="M 114.42810811169701 84.74124197986012 l 29.954148155671103 -31.67865771925143 a64.59803145355743,64.59803145355743 0 0,0 0.8013747439668459,0.7709218687677283 l -30.495006143250368 31.1583527637214" fill="#30ff35" stroke="none" /><path d="M 114.68862486808459 84.99185889309783 l 30.810589295308755 -31.480800679682837 a65.04921366106453,65.04921366106453 0 0,0 0.7934895127253079,0.7900820165875286 l -31.347914608201386 30.94578281244519" fill="#31ff3b" stroke="none" /><path d="M 114.94478906791727 85.2469230424477 l 20.17199621338414 -19.9132293651692 a49.34512541836111,49.34512541836111 0 0,0 0.5915205466596934,0.6096139194568102 l -20.51178102374694 19.563051250162275" fill="#f2ff19" stroke="none" /><path d="M 115.19652480421416 85.50635884689758 l 28.89073364638937 -27.554452844673456 a60.92395724619427,60.92395724619427 0 0,0 0.7172568145777919,0.7651195605064416 l -29.360757782937625 27.05306386728896" fill="#57ff2a" stroke="none" /><path d="M 115.4437574822437 85.77008943001954 l 43.84855518062887 -40.40215080822109 a80.62406880915537,80.62406880915537 0 0,0 0.9316163340929465,1.0287140245905368 l -44.53751515533785 39.641383996361" fill="#48f8ff" stroke="none" /><path d="M 115.68641384162765 86.03803664274999 l 26.2215509601527 -23.33894396591593 a56.103789541872096,56.103789541872096 0 0,0 0.6358646854800756,0.7269032558289116 l -26.619407509210625 22.88412515388407" fill="#94ff23" stroke="none" /><path d="M 115.9244219780498 86.31012108654704 l 26.693335980624177 -22.947679851398572 a56.20128117465001,56.20128117465001 0 0,0 0.6243410669748634,0.7390228959884654 l -27.084387661086158 22.484798005781" fill="#93ff23" stroke="none" /><path d="M 116.15771136456269 86.58626213691792 l 40.895227356617475 -33.95022025309314 a74.15107784215641,74.15107784215641 0 0,0 0.806839671480587,0.9890900354385712 l -41.473565520174475 33.24124604804647" fill="#3effb7" stroke="none" /><path d="M 116.38621287248628 86.86637796730983 l 43.8096932883522 -35.11366277826211 a77.14497786734805,77.14497786734805 0 0,0 0.8215790239381594,1.0433219277453027 l -44.40762639288432 34.35434845656377" fill="#43ffdd" stroke="none" /><path d="M 116.60985879189232 87.15038557335679 l 27.87099276750896 -21.56138202240855 a56.2375571310325,56.2375571310325 0 0,0 0.5857384194084659,0.7707631004557761 l -28.23800712714154 21.078434146071743" fill="#92ff23" stroke="none" /><path d="M 116.82858285166822 87.43820079747576 l 14.04269444638251 -10.48225566304134 a38.52355418001224,38.52355418001224 0 0,0 0.392091610815504,0.5348125165109325 l -14.22104866971164 10.238980702858914" fill="#ff6509" stroke="none" /><path d="M 117.04232023915458 87.72973835380427 l 51.126960717463746 -36.81078493858721 a84.0,84.0 0 0,0 0.8347495207844684,1.1806939986728273 l -51.75302285805209 35.92526443958259" fill="#4dd2ff" stroke="none" /><path d="M 117.2510076193507 88.02491185347247 l 51.552805131876525 -35.78627980909873 a83.75627091805521,83.75627091805521 0 0,0 0.8119394097970198,1.1914208958162296 l -52.16116900734228 34.893580890012096" fill="#4dd5ff" stroke="none" /><path d="M 117.45458315368197 88.32363383020206 l 22.296098958087047 -14.91513222060291 a47.82493612120777,47.82493612120777 0 0,0 0.4518394400114254,0.688182466059554 l -22.549535033456397 14.52913169056568" fill="#fff617" stroke="none" /><path d="M 117.65298651832404 88.62581576622439 l 29.59846841647954 -19.07090522372353 a56.21035016374564,56.21035016374564 0 0,0 0.5170613550946326,0.8178668912066969 l -29.92235736782013 18.558590684802628" fill="#93ff23" stroke="none" /><line stroke="#e1ed5e" stroke-width="0.3" x1="172.23445277983987" x2="176.4835382374775" y1="55.19839476539836" y2="52.563006222186495" /><path d="M 173.08426987136738 54.67131705675599 a86.0,86.0 0 0,1 12.851231095245387,41.99856678651699" fill="none" id="id135" stroke="none" /><text fill="#e1ed5e" style="font-size:6.75px; font-family:Arial;" text-anchor="middle"><textPath startOffset="22.20632615414155" xlink:href="#id135">March</textPath></text><path d="M 117.84615892207809 88.93136811851018 l 29.618894954076946 -18.37037574385888 a55.85325871810559,55.85325871810559 0 0,0 0.4997116632078225,0.8213945839787401 l -29.930722415570994 17.857813386673058" fill="#97ff23" stroke="none" /><path d="M 118.03404312379186 89.2402003453031 l 19.72633691028509 -11.769486832140387 a43.970615755569156,43.970615755569156 0 0,0 0.3822100244648452,0.6533208270101789 l -19.926006609220263 11.428186592776314" fill="#ffbc11" stroke="none" /><path d="M 118.21658344932153 89.55222093294921 l 25.657081302924826 -14.715136771066808 a50.577374311728505,50.577374311728505 0 0,0 0.4266378753721474,0.7589411747536193 l -25.906576819589407 14.271312086378394" fill="#e0ff1b" stroke="none" /><path d="M 118.3937258080291 89.86733742301442 l 51.65627045580158 -28.456200988147234 a79.9756360888185,79.9756360888185 0 0,0 0.6538651893476948,1.2115128909493367 l -52.13844374436775 27.56280711386544" fill="#47ffff" stroke="none" /><path d="M 118.56541770881063 90.18545643968196 l 31.667510099848773 -16.740919175455954 a56.820239680426106,56.820239680426106 0 0,0 0.44966608764133636,0.8686117554819965 l -31.950985620650226 16.19333469771361" fill="#8bff24" stroke="none" /><path d="M 118.73160827565052 90.50648371742162 l 31.009585291109566 -15.716216063509815 a55.764836074423286,55.764836074423286 0 0,0 0.4265744068881274,0.8599479743633258 l -31.2755197109511 15.180108500647538" fill="#99ff23" stroke="none" /><path d="M 118.89224826269711 90.83032412892265 l 31.32549200905123 -15.204363410372382 a55.82038363263396,55.82038363263396 0 0,0 0.41211871899284,0.8680271255757745 l -31.58256892188583 14.662893869156067" fill="#98ff23" stroke="none" /><line stroke="#e1ed5e" stroke-width="0.3" x1="184.98032266829074" x2="189.97916517819016" y1="98.17113171792111" y2="98.06355123074" /><path d="M 185.9800911702706 98.14961562048488 a86.0,86.0 0 0,1 -9.607161424134198,41.387399972396054" fill="none" id="id136" stroke="none" /><text fill="#e1ed5e" style="font-size:6.75px; font-family:Arial;" text-anchor="middle"><textPath startOffset="21.466115282336823" xlink:href="#id136">April</textPath></text><line stroke="#e1ed5e" stroke-width="0.3" x1="174.80103733775053" x2="179.2010983576182" y1="140.37084112569926" y2="142.7455964860345" /><path d="M 175.68104954172406 140.8457921977663 a86.0,86.0 0 0,1 -30.038265399797805,32.042727171017184" fill="none" id="id137" stroke="none" /><text fill="#e1ed5e" style="font-size:6.75px; font-family:Arial;" text-anchor="middle"><textPath startOffset="22.206326154141568" xlink:href="#id137">May</textPath></text><line stroke="#e1ed5e" stroke-width="0.3" x1="143.8653032363475" x2="146.44561519142675" y1="172.8068346515853" y2="177.08958963109032" /><path d="M 144.38136562736335 173.6633856474863 a86.0,86.0 0 0,1 -40.68145358897372,12.25698825130547" fill="none" id="id138" stroke="none" /><text fill="#e1ed5e" style="font-size:6.75px; font-family:Arial;" text-anchor="middle"><textPath startOffset="21.466115282336833" xlink:href="#id138">June</textPath></text><line stroke="#e1ed5e" stroke-width="0.3" x1="102.19456741930631" x2="102.32365962044197" y1="184.97166512339345" y2="189.96999836594603" /><path d="M 102.22038585953345 185.97133177190398 a86.0,86.0 0 0,1 -42.740103519485714,-10.115201625700543" fill="none" id="id139" stroke="none" /><text fill="#e1ed5e" style="font-size:6.75px; font-family:Arial;" text-anchor="middle"><textPath startOffset="22.20632615414155" xlink:href="#id139">July</textPath></text><line stroke="#e1ed5e" stroke-width="0.3" x1="58.666819895761336" x2="56.23545636021788" y1="174.27360380694188" y2="178.64263932499728" /><path d="M 58.180547188652646 175.14741091055294 a86.0,86.0 0 0,1 -31.652253787137756,-30.449443065178592" fill="none" id="id140" stroke="none" /><text fill="#e1ed5e" style="font-size:6.75px; font-family:Arial;" text-anchor="middle"><textPath startOffset="22.20632615414155" xlink:href="#id140">August</textPath></text><line stroke="#e1ed5e" stroke-width="0.3" x1="26.63291911575756" x2="22.317208475507996" y1="142.92168965132927" y2="145.44649492493687" /><path d="M 25.769776987707644 143.4266507060508 a86.0,86.0 0 0,1 -11.730757126820373,-40.83630448921669" fill="none" id="id141" stroke="none" /><text fill="#e1ed5e" style="font-size:6.75px; font-family:Arial;" text-anchor="middle"><textPath startOffset="21.46611528233685" xlink:href="#id141">September</textPath></text><line stroke="#e1ed5e" stroke-width="0.3" x1="15.007084014347285" x2="10.007500721073583" y1="101.09737516637583" y2="101.16192664675087" /><path d="M 14.007167355692545 101.11028546245083 a86.0,86.0 0 0,1 10.666146001902534,-42.60595125391555" fill="none" id="id142" stroke="none" /><text fill="#e1ed5e" style="font-size:6.75px; font-family:Arial;" text-anchor="middle"><textPath startOffset="22.20632615414155" xlink:href="#id142">October</textPath></text><line stroke="#e1ed5e" stroke-width="0.3" x1="26.266209847984243" x2="21.928928074336255" y1="57.711370442889674" y2="55.22380399835377" /><path d="M 25.398753493254645 57.213857153982495 a86.0,86.0 0 0,1 29.58750427330803,-30.492523968695096" fill="none" id="id143" stroke="none" /><text fill="#e1ed5e" style="font-size:6.75px; font-family:Arial;" text-anchor="middle"><textPath startOffset="21.46611528233685" xlink:href="#id143">November</textPath></text><line stroke="#e1ed5e" stroke-width="0.3" x1="56.762969772571076" x2="54.21961505331055" y1="26.818313649435495" y2="22.513508569990535" /><path d="M 56.25429882871897 25.957352633546506 a86.0,86.0 0 0,1 42.265352541879196,-11.944610805530505" fill="none" id="id144" stroke="none" /><text fill="#e1ed5e" style="font-size:6.75px; font-family:Arial;" text-anchor="middle"><textPath startOffset="22.20632615414155" xlink:href="#id144">December</textPath></text></svg>