<?xml version="1.0" encoding="utf-8" ?>
<svg baseProfile="full" height="200mm" version="1.1" viewBox="0,0,200,200" width="200mm" xmlns="http://www.w3.org/2000/svg" xmlns:ev="http://www.w3.org/2001/xml-events" xmlns:xlink="http://www.w3.org/1999/xlink"><defs /><rect fill="#1a1a1a" height="200" width="200" x="0" y="0" /><text alignment-baseline="middle" fill="#e1ed5e" style="dominant-baseline: central; font-size:9.0px; font-family:Arial;" text-anchor="middle" x="100.0" y="100.0">2023</text><line stroke="#e1ed5e" stroke-width="0.3" x1="100.0" x2="100.0" y1="15.0" y2="10.0" /><path d="M 100.0 14.0 a86.0,86.0 0 0,1 42.46469731375804,11.215312516191453" fill="none" id="id133" stroke="none" /><text fill="#e1ed5e" style="font-size:6.75px; font-family:Arial;" text-anchor="middle"><textPath startOffset="22.20632615414155" xlink:href="#id133">January</textPath></text><path d="M 100.0 79.0 l 0.0 -16.651053864168617 a37.65105386416862,37.65105386416862 0 0,0 0.6481009998064502,0.005578409918122107 l -0.2866205205339218 16.648586830859053" fill="#ff0000" stroke="none" /><path d="M 100.72285384407766 79.0124445844662 l 0.8714540063776928 -25.302057118168694 a46.31705998919114,46.31705998919114 0 0,0 0.7965633729461746,0.03430169445462748 l -1.306858211713199 25.28330769718987" fill="#ffa10e" stroke="none" /><path d="M 101.08401301168833 79.027996857942 l 1.3060212868257748 -25.267116017588727 a46.30084669428932,46.30084669428932 0 0,0 0.7955763170551707,0.047991336069449234 l -1.7407596527205573 25.24089141213897" fill="#ffa00e" stroke="none" /><path d="M 101.44485096284872 79.0497635885617 l 2.3169226521631514 -33.59521401026123 a54.67501351107909,54.67501351107909 0 0,0 0.938352917435212,0.07283424608640938 l -2.8948657589607043 33.550354501986355" fill="#d3ff1c" stroke="none" /><path d="M 101.80526077348638 79.07773832637324 l 3.220869177844147 -37.32860578653841 a58.46730318861467,58.46730318861467 0 0,0 1.0019482525894698,0.09514705953032815 l -3.8629425575238607 37.2676331824929" fill="#99ff23" stroke="none" /><path d="M 102.16513564639614 79.11191278185805 l 4.302243827209813 -41.5057802249262 a62.72815708881282,62.72815708881282 0 0,0 1.0730496501797155,0.12056963102077627 l -5.016060180899254 41.425574640434824" fill="#5dff2a" stroke="none" /><path d="M 102.52436894288641 79.15227682838746 l 4.022086255321829 -33.21675346212277 a54.45937668888489,54.45937668888489 0 0,0 0.929661163695637,0.12069670050174416 l -4.593262147525312 33.142598438456886" fill="#d6ff1c" stroke="none" /><path d="M 102.88285421437855 79.19881850522331 l 7.501860768635976 -54.1295382259141 a75.6469104665826,75.6469104665826 0 0,0 1.2882705579802916,0.18985759227477297 l -8.432500307044924 53.99238614947835" fill="#3fffbf" stroke="none" /><path d="M 103.2404852339499 79.25152402106235 l 7.682444353313408 -49.18985911562176 a70.7861646550171,70.7861646550171 0 0,0 1.202255121042345,0.19838239629137194 l -8.528028680494629 49.05033045639076" fill="#37ff78" stroke="none" /><path d="M 103.59715602781102 79.31037775812273 l 5.69248066773369 -32.74121937553788 a54.23239056025941,54.23239056025941 0 0,0 0.9183477465467252,0.1678221807503433 l -6.255223535383316 32.6383817134368" fill="#daff1c" stroke="none" /><path d="M 103.95276090670814 79.375362276772 l 9.5941707325648 -50.0602743965959 a71.97135651234012,71.97135651234012 0 0,0 1.214717443056681,0.24366089160877294 l -10.454454585088607 49.88770954890992" fill="#39ff8a" stroke="none" /><path d="M 104.307194497241 79.44645832069477 l 3.453448402129435 -16.47954270836025 a37.83750675553954,37.83750675553954 0 0,0 0.6363138481242299,0.13907356129685544 l -3.736604974407193 16.41765564896752" fill="#ff0400" stroke="none" /><path d="M 106.0581310904928 79.89281104454417 l 6.1538588226790765 -20.42491327845168 a42.33183210232391,42.33183210232391 0 0,0 0.6958841734131525,0.2162146000700499 l -6.504528368802948 20.31595854349911" fill="#ff5908" stroke="none" /><path d="M 106.40334571778207 80.00007090966166 l 10.146609427780778 -31.69147473943724 a54.27616645649433,54.27616645649433 0 0,0 0.8873304898735429,0.2925389115569696 l -10.690622739896739 31.51212210362103" fill="#d9ff1c" stroke="none" /><line stroke="#e1ed5e" stroke-width="0.3" x1="143.23703022742887" x2="145.7803849466894" y1="26.81831364943548" y2="22.513508569990506" /><path d="M 143.74570117128098 25.957352633546492 a86.0,86.0 0 0,1 28.547481713284135,27.462654790039103" fill="none" id="id134" stroke="none" /><text fill="#e1ed5e" style="font-size:6.75px; font-family:Arial;" text-anchor="middle"><textPath startOffset="19.985693538727396" xlink:href="#id134">February</textPath></text><path d="M 110.99172775467656 82.1063720568725 l 8.762944704541534 -14.265352611426607 a37.74184831561881,37.74184831561881 0 0,0 0.5506371179988934,0.34480891277536074 l -9.00720097491269 14.112399357328302" fill="#ff0200" stroke="none" /><path d="M 112.19680574252982 82.90503203632743 l 11.320740044524296 -15.867079665898427 a40.4916231309674,40.4916231309674 0 0,0 0.5639030872899372,0.4096995745896562 l -11.592188448168022 15.669860856492095" fill="#ff3705" stroke="none" /><path d="M 112.48926042617603 83.11751280151076 l 10.580692384108106 -14.302560570478098 a38.790848495766525,38.790848495766525 0 0,0 0.5333812715299252,0.40173171556291787 l -10.825319809396413 14.118312265409333" fill="#ff1602" stroke="none" /><path d="M 112.77801427241765 83.33499621200491 l 20.66607120816879 -26.95255676075775 a54.96361016033148,54.96361016033148 0 0,0 0.7458495022191827,0.5821473669508426 l -21.126953265547407 26.592831004583683" fill="#ceff1d" stroke="none" /><path d="M 113.06298171725822 83.55741782278167 l 24.804100086541574 -31.22131400261271 a60.87497748153486,60.87497748153486 0 0,0 0.8148452039296468,0.6588814862255373 l -25.33784868903571 30.789726419123046" fill="#77ff27" stroke="none" /><path d="M 113.34407831869373 83.78471172551755 l 24.90205499970245 -30.260164156974184 a60.189155107187894,60.189155107187894 0 0,0 0.794331937845513,0.6652301541820094 l -25.41924447450708 29.827032845398353" fill="#80ff25" stroke="none" /><path d="M 113.6212207817346 84.01681056812373 l 24.65575221152698 -28.931148279358094 a59.012069897315804,59.012069897315804 0 0,0 0.767455344935598,0.6655297124976004 l -25.150101355109342 28.502453573440825" fill="#91ff23" stroke="none" /><path d="M 113.89432698308785 84.25364557470407 l 16.9844979635507 -19.24842599395558 a46.6705098180508,46.6705098180508 0 0,0 0.5978025878261494,0.5367130658238812 l -17.31331153897284 18.953213919362398" fill="#ffa70f" stroke="none" /><path d="M 114.16331599549186 84.49514656593476 l 22.384942873385523 -24.50522592959437 a54.19023599351468,54.19023599351468 0 0,0 0.6832927269704483,0.635046121787472 l -22.80344348415082 24.11627522173226" fill="#daff1b" stroke="none" /><path d="M 114.42810811169701 84.74124197986012 l 42.8409766477923 -45.307402117756865 a83.35471086290758,83.35471086290758 0 0,0 1.0340618525537815,0.9947666828706057 l -43.614521743958505 44.56325234812396" fill="#4cdaff" stroke="none" /><path d="M 114.68862486808459 84.99185889309783 l 44.06587460425377 -45.02442332070654 a84.0,84.0 0 0,0 1.0246567993307099,1.0202565973995252 l -44.8343672037518 44.25923087265689" fill="#4dd2ff" stroke="none" /><path d="M 114.94478906791727 85.2469230424477 l 28.850362034192298 -28.480268902383433 a61.53972257250946,61.53972257250946 0 0,0 0.737702255871289,0.7602670205343705 l -29.336328553766695 27.97943768629895" fill="#6dff28" stroke="none" /><path d="M 115.19652480421416 85.50635884689758 l 41.32006155041416 -39.40888803535741 a78.0999819852279,78.0999819852279 0 0,0 0.9194698904888807,0.9808263709894081 l -41.9922987628735 38.69179224748994" fill="#43ffe1" stroke="none" /><line stroke="#e1ed5e" stroke-width="0.3" x1="172.23445277983987" x2="176.4835382374775" y1="55.19839476539836" y2="52.563006222186495" /><path d="M 173.08426987136738 54.67131705675599 a86.0,86.0 0 0,1 12.851231095245387,41.99856678651699" fill="none" id="id135" stroke="none" /><text fill="#e1ed5e" style="font-size:6.75px; font-family:Arial;" text-anchor="middle"><textPath startOffset="22.20632615414155" xlink:href="#id135">March</textPath></text><line stroke="#e1ed5e" stroke-width="0.3" x1="184.98032266829074" x2="189.97916517819016" y1="98.17113171792111" y2="98.06355123074" /><path d="M 185.9800911702706 98.14961562048488 a86.0,86.0 0 0,1 -9.607161424134198,41.387399972396054" fill="none" id="id136" stroke="none" /><text fill="#e1ed5e" style="font-size:6.75px; font-family:Arial;" text-anchor="middle"><textPath startOffset="21.466115282336823" xlink:href="#id136">April</textPath></text><line stroke="#e1ed5e" stroke-width="0.3" x1="174.80103733775053" x2="179.2010983576182" y1="140.37084112569926" y2="142.7455964860345" /><path d="M 175.68104954172406 140.8457921977663 a86.0,86.0 0 0,1 -30.038265399797805,32.042727171017184" fill="none" id="id137" stroke="none" /><text fill="#e1ed5e" style="font-size:6.75px; font-family:Arial;" text-anchor="middle"><textPath startOffset="22.206326154141568" xlink:href="#id137">May</textPath></text><line stroke="#e1ed5e" stroke-width="0.3" x1="143.8653032363475" x2="146.44561519142675" y1="172.8068346515853" y2="177.08958963109032" /><path d="M 144.38136562736335 173.6633856474863 a86.0,86.0 0 0,1 -40.68145358897372,12.25698825130547" fill="none" id="id138" stroke="none" /><text fill="#e1ed5e" style="font-size:6.75px; font-family:Arial;" text-anchor="middle"><textPath startOffset="21.466115282336833" xlink:href="#id138">June</textPath></text><line stroke="#e1ed5e" stroke-width="0.3" x1="102.19456741930631" x2="102.32365962044197" y1="184.97166512339345" y2="189.96999836594603" /><path d="M 102.22038585953345 185.97133177190398 a86.0,86.0 0 0,1 -42.740103519485714,-10.115201625700543" fill="none" id="id139" stroke="none" /><text fill="#e1ed5e" style="font-size:6.75px; font-family:Arial;" text-anchor="middle"><textPath startOffset="22.20632615414155" xlink:href="#id139">July</textPath></text><line stroke="#e1ed5e" stroke-width="0.3" x1="58.666819895761336" x2="56.23545636021788" y1="174.27360380694188" y2="178.64263932499728" /><path d="M 58.180547188652646 175.14741091055294 a86.0,86.0 0 0,1 -31.652253787137756,-30.449443065178592" fill="none" id="id140" stroke="none" /><text fill="#e1ed5e" style="font-size:6.75px; font-family:Arial;" text-anchor="middle"><textPath startOffset="22.20632615414155" xlink:href="#id140">August</textPath></text><line stroke="#e1ed5e" stroke-width="0.3" x1="26.63291911575756" x2="22.317208475507996" y1="142.92168965132927" y2="145.44649492493687" /><path d="M 25.769776987707644 143.4266507060508 a86.0,86.0 0 0,1 -11.730757126820373,-40.83630448921669" fill="none" id="id141" stroke="none" /><text fill="#e1ed5e" style="font-size:6.75px; font-family:Arial;" text-anchor="middle"><textPath startOffset="21.46611528233685" xlink:href="#id141">September</textPath></text><line stroke="#e1ed5e" stroke-width="0.3" x1="15.007084014347285" x2="10.007500721073583" y1="101.09737516637583" y2="101.16192664675087" /><path d="M 14.007167355692545 101.11028546245083 a86.0,86.0 0 0,1 10.666146001902534,-42.60595125391555" fill="none" id="id142" stroke="none" /><text fill="#e1ed5e" style="font-size:6.75px; font-family:Arial;" text-anchor="middle"><textPath startOffset="22.20632615414155" xlink:href="#id142">October</textPath></text><line stroke="#e1ed5e" stroke-width="0.3" x1="26.266209847984243" x2="21.928928074336255" y1="57.711370442889674" y2="55.22380399835377" /><path d="M 25.398753493254645 57.213857153982495 a86.0,86.0 0 0,1 29.58750427330803,-30.492523968695096" fill="none" id="id143" stroke="none" /><text fill="#e1ed5e" style="font-size:6.75px; font-family:Arial;" text-anchor="middle"><textPath startOffset="21.46611528233685" xlink:href="#id143">November</textPath></text><line stroke="#e1ed5e" stroke-width="0.3" x1="56.762969772571076" x2="54.21961505331055" y1="26.818313649435495" y2="22.513508569990535" /><path d="M 56.25429882871897 25.957352633546506 a86.0,86.0 0 0,1 42.265352541879196,-11.944610805530505" fill="none" id="id144" stroke="none" /><text fill="#e1ed5e" style="font-size:6.75px; font-family:Arial;" text-anchor="middle"><textPath startOffset="22.20632615414155" xlink:href="#id144">December</textPath></text></svg>