<?xml version="1.0" encoding="utf-8" ?>
<svg baseProfile="full" height="200mm" version="1.1" viewBox="0,0,200,200" width="200mm" xmlns="http://www.w3.org/2000/svg" xmlns:ev="http://www.w3.org/2001/xml-events" xmlns:xlink="http://www.w3.org/1999/xlink"><defs /><rect fill="#1a1a1a" height="200" width="200" x="0" y="0" /><text alignment-baseline="middle" fill="#e1ed5e" style="dominant-baseline: central; font-size:9.0px; font-family:Arial;" text-anchor="middle" x="100.0" y="100.0">2024</text><line stroke="#e1ed5e" stroke-width="0.3" x1="100.0" x2="100.0" y1="15.0" y2="10.0" /><path d="M 100.0 14.0 a86.0,86.0 0 0,1 42.35913384403234,11.155469271406648" fill="none" id="id145" stroke="none" /><text fill="#e1ed5e" style="font-size:6.75px; font-family:Arial;" text-anchor="middle"><textPath startOffset="22.145653131862478" xlink:href="#id145">January</textPath></text><path d="M 100.0 79.0 l 0.0 -26.186896658150573 a47.18689665815057,47.18689665815057 0 0,0 0.8100258281351119,0.0069530975152365644 l -0.44953290328625717 26.18303795882977" fill="#fff216" stroke="none" /><path d="M 100.36049292484886 79.00309439819443 l 0.7058975756702399 -41.114994884034864 a62.121054165737895,62.121054165737895 0 0,0 1.0660762303439164,0.027458342060930348 l -1.4115871200848977 41.09681882462389" fill="#46ff2d" stroke="none" /><path d="M 100.72087961077811 79.0123766808444 l 1.2308140827976441 -35.83380908469057 a56.854940758903304,56.854940758903304 0 0,0 0.9751278592344053,0.0418761859924654 l -1.8457677026328858 35.80740033027227" fill="#87ff25" stroke="none" /><path d="M 101.08105385017728 79.02784411241856 l 2.629184652340409 -51.00547986307765 a72.07319833336192,72.07319833336192 0 0,0 1.235045118101785,0.07429724741742899 l -3.5043741225746565 50.95283063783553" fill="#3bff9e" stroke="none" /><path d="M 101.44090949804482 79.04949213459386 l 2.1705180161902757 -31.558855592182226 a52.63340820630648,52.63340820630648 0 0,0 0.900860896190391,0.06973233080763401 l -2.7119479071559 31.516945494379538" fill="#bfff1e" stroke="none" /><path d="M 101.80034050326958 79.07731436759882 l 2.8386363628651354 -32.98925738607162 a54.11116064539359,54.11116064539359 0 0,0 0.9247866276845459,0.08757825513875805 l -3.4045225539346946 32.93566737542768" fill="#abff21" stroke="none" /><path d="M 102.15924093988457 79.11130261209362 l 3.0749773882840277 -29.747616837032343 a50.906123008864725,50.906123008864725 0 0,0 0.8684683934652315,0.09731369493949842 l -3.585181683350056 29.690447381585873" fill="#d7ff1c" stroke="none" /><path d="M 102.51750503828377 79.15144685158666 l 4.2883616197990655 -35.513785986679295 a56.7717631727851,56.7717631727851 0 0,0 0.9665316392682984,0.1251368713408241 l -4.897371080958155 35.434937519138074" fill="#88ff25" stroke="none" /><path d="M 102.87502721639298 79.19773525538626 l 5.446781727666884 -39.41019927011491 a60.78481164589084,60.78481164589084 0 0,0 1.0324007749740503,0.15172736124796146 l -6.122507608248616 39.31089083556807" fill="#56ff2b" stroke="none" /><path d="M 103.23170211078529 79.25015418208739 l 6.563866763825594 -42.14473322406748 a63.6528180243823,63.6528180243823 0 0,0 1.0782256840638949,0.177421625999721 l -7.28636995094256 42.025845599572094" fill="#34ff2f" stroke="none" /><path d="M 103.58742460773223 79.30868818359171 l 4.5301531195565135 -26.128719352257704 a47.51852677423227,47.51852677423227 0 0,0 0.8025319504592608,0.14624805511951952 l -4.978019803566828 26.047103123206817" fill="#fff717" stroke="none" /><path d="M 103.94208987418118 79.37332000966035 l 6.598426184694469 -34.525754027828 a56.150631847876404,56.150631847876404 0 0,0 0.945211699899128,0.18906881217738175 l -7.190134370124555 34.40739581898776" fill="#90ff24" stroke="none" /><path d="M 104.29559338865022 79.4440306129975 l 11.73423742241747 -56.152573908031506 a78.36552871178478,78.36552871178478 0 0,0 1.3144421168477585,0.2864765415135197 l -12.696441955884364 55.94286590838427" fill="#45ffec" stroke="none" /><path d="M 104.64783097203109 79.52079915486377 l 7.6568355160371455 -33.73743006462507 a55.59539445482759,55.59539445482759 0 0,0 0.9288874435403285,0.21921490744613645 l -8.234855113317359 33.60101901353271" fill="#97ff23" stroke="none" /><path d="M 104.9986988182912 79.60360301121754 l 4.379186206048459 -17.868574121634783 a39.39736972959997,39.39736972959997 0 0,0 0.655487259255443,0.16662229803974593 l -4.6852787585292965 17.79076659175977" fill="#ff7a0b" stroke="none" /><path d="M 105.3480935250658 79.69241777938227 l 10.409896554679618 -39.528072798554966 a61.875842320947854,61.875842320947854 0 0,0 1.0248366091456156,0.2793237750686114 l -11.086914564759926 39.343548529342215" fill="#49ff2c" stroke="none" /><path d="M 105.69591212413111 79.78721728523813 l 9.237239838350586 -32.77970545678044 a55.056360487645954,55.056360487645954 0 0,0 0.9074860922622711,0.2641559756135304 l -9.79858594299446 32.616305786864395" fill="#9fff22" stroke="none" /><path d="M 106.04205211174951 79.88797359093562 l 7.728659138022749 -25.726192660321527 a47.862039402616546,47.862039402616546 0 0,0 0.7848448380075302,0.2431469370478028 l -8.16914460890191 25.589729135467078" fill="#fffc17" stroke="none" /><path d="M 106.38641147887787 79.99465700312896 l 15.363589734367462 -48.12622602157032 a71.51904116870423,71.51904116870423 0 0,0 1.1663640678817253,0.38340703604683857 l -16.18747653989693 47.85539806412146" fill="#3aff97" stroke="none" /><path d="M 106.72888874123014 80.10723608172694 l 11.498795264436803 -33.99414499728824 a56.88626738224653,56.88626738224653 0 0,0 0.9223545568361281,0.3208427940035974 l -12.08065559331795 33.791743770716046" fill="#87ff25" stroke="none" /><path d="M 107.06938296918511 80.22567764915836 l 5.4586773760963165 -15.268892138774227 a37.21530837948595,37.21530837948595 0 0,0 0.5997173371502477,0.22022451315225317 l -5.719983864900689 15.172936776613252" fill="#ff5608" stroke="none" /><path d="M 107.40779381753099 80.34994680014964 l 5.576708004984451 -14.792880535989273 a36.80914250441522,36.80914250441522 0 0,0 0.5893454620863295,0.2279714853174826 l -5.829825729564306 14.694969162533752" fill="#ff4f07" stroke="none" /><path d="M 107.74402155503746 80.48000691201159 l 12.638791304927661 -31.85801035796863 a55.27348639426622,55.27348639426622 0 0,0 0.8789682950388635,0.35746875360154207 l -13.183814061156966 31.636354347787798" fill="#9cff22" stroke="none" /><path d="M 108.07796709384702 80.6158196554323 l 13.663746778020185 -32.78801815488862 a56.521150186039335,56.521150186039335 0 0,0 0.8924014720340462,0.380913122939657 l -14.22458332522466 32.54863038228956" fill="#8bff24" stroke="none" /><path d="M 108.4095320186766 80.7573450057729 l 5.973952976351079 -13.66957350544107 a35.91795408172013,35.91795408172013 0 0,0 0.562862727863855,0.25176133884863583 l -6.207729107070565 13.56500841568258" fill="#ff4006" stroke="none" /><path d="M 108.73861861582097 80.90454125486305 l 13.278966368716263 -29.016937987522027 a52.91102690283088,52.91102690283088 0 0,0 0.8226689259248908,0.3850505963220712 l -13.775124008512659 28.78471115962942" fill="#bbff1f" stroke="none" /><path d="M 109.06512990194946 81.05736502329252 l 5.16293195972554 -10.788542092665008 a32.9602887467636,32.9602887467636 0 0,0 0.5082786520001057,0.24862455886131357 l -5.347370860987713 10.698323783706472" fill="#ff0e01" stroke="none" /><path d="M 109.3889696526874 81.21577127319529 l 15.810773110201835 -31.632137437427627 a56.363436840932074,56.363436840932074 0 0,0 0.8617507266804422,0.44001606126005993 l -16.351451058595856 31.356063424494735" fill="#8dff24" stroke="none" /><path d="M 109.71004243097381 81.37971332152246 l 10.87416198786359 -20.852639423730785 a44.5176523036299,44.5176523036299 0 0,0 0.6745721360923936,0.3591716670425299 l -11.230522939742542 20.662897288965684" fill="#ffca12" stroke="none" /><line stroke="#e1ed5e" stroke-width="0.3" x1="143.13028292997686" x2="145.6673583964461" y1="26.7553504044142" y2="22.446841604673864" /><path d="M 143.63769802327073 25.89364864446614 a86.0,86.0 0 0,1 29.32050498858742,28.57503671076993" fill="none" id="id146" stroke="none" /><text fill="#e1ed5e" style="font-size:6.75px; font-family:Arial;" text-anchor="middle"><textPath startOffset="20.669276256404974" xlink:href="#id146">February</textPath></text><path d="M 110.65571695917076 81.90426304109057 l 8.29531148951957 -14.087252437516613 a37.34817647159686,37.34817647159686 0 0,0 0.5496713309372825,0.33006184088771906 l -8.535915577014286 13.942776596092973" fill="#ff5808" stroke="none" /><path d="M 110.96478420261332 82.08984904055464 l 12.01819010935776 -19.630810341585104 a44.01750655852952,44.01750655852952 0 0,0 0.6410539269920198,0.40006506258646607 l -12.353408165139493 19.42160948215709" fill="#ffc212" stroke="none" /><path d="M 111.27062007382361 82.28071324371311 l 7.779725181528387 -12.23102016336897 a35.495584780782224,35.495584780782224 0 0,0 0.5113297327441013,0.3314377550541567 l -7.988540546529495 12.09566856661092" fill="#ff3905" stroke="none" /><path d="M 111.5731344415666 82.4767994020092 l 6.709802556072279 -10.159496267551354 a33.175254196601564,33.175254196601564 0 0,0 0.4725162701680511,0.3179300343001905 l -6.8832151143373315 10.042816559194046" fill="#ff1202" stroke="none" /><path d="M 111.8722381534696 82.67804972795209 l 16.37962138067976 -23.898357105327257 a49.972805678914966,49.972805678914966 0 0,0 0.7034384126908109,0.4910546438384337 l -16.78745488454433 23.613657645683695" fill="#e4ff1a" stroke="none" /><path d="M 112.16784306229584 82.88440491214696 l 9.982592668192742 -14.041766742142697 a38.22856261038048,38.22856261038048 0 0,0 0.531593629920896,0.3848327927309786 l -10.222167308487608 13.868333178038645" fill="#ff6709" stroke="none" /><path d="M 112.45986205192187 83.09580414077388 l 17.35698243658868 -23.54808018022851 a50.25366506061281,50.25366506061281 0 0,0 0.6900235293574837,0.5178065204458947 l -17.75865895485693 23.2466546325186" fill="#e0ff1b" stroke="none" /><path d="M 114.13192950727249 84.46653392183569 l 13.558859544742706 -14.903561802262677 a41.148419951646915,41.148419951646915 0 0,0 0.5184117560322016,0.4798341819452785 l -13.812701072088872 14.668609874185025" fill="#ff960d" stroke="none" /><path d="M 117.81537515405839 88.88188828441811 l 15.136394339238816 -9.446229550570093 a38.84213233655116,38.84213233655116 0 0,0 0.34815874450484113,0.5686911440032242 l -15.29632104819906 9.185001290442314" fill="#ff710a" stroke="none" /><line stroke="#e1ed5e" stroke-width="0.3" x1="172.87174338648825" x2="177.1583165268699" y1="56.24261187166439" y2="53.66864786411523" /><path d="M 173.72905801456457 55.72781907015455 a86.0,86.0 0 0,1 12.242430191666344,42.057860355516425" fill="none" id="id147" stroke="none" /><text fill="#e1ed5e" style="font-size:6.75px; font-family:Arial;" text-anchor="middle"><textPath startOffset="22.145653131862474" xlink:href="#id147">March</textPath></text><path d="M 118.00360718960297 89.18935116829356 l 13.567300560399357 -8.146774166312277 a36.8253459302824,36.8253459302824 0 0,0 0.3207773287721151,0.5447500328775173 l -13.70515159930124 7.912672965141203" fill="#ff5007" stroke="none" /><path d="M 118.18653347947321 89.5 l 10.840634589262987 -6.258843298297355 a33.51768659659471,33.51768659659471 0 0,0 0.2834106105345453,0.5007593929343391 l -10.946478564818907 6.071827135263898" fill="#ff1802" stroke="none" /><path d="M 118.36410011445183 89.81374322990088 l 19.87993108358767 -11.02706265633662 a43.733406491658236,43.733406491658236 0 0,0 0.3585194907000756,0.6596354819963406 l -20.066295923903088 10.684172340865675" fill="#ffbe11" stroke="none" /><path d="M 118.53625476483649 90.13048839642627 l 10.091787885891675 -5.373308627024106 a32.43313729188457,32.43313729188457 0 0,0 0.25744487068499883,0.4936844849170716 l -10.182540825551618 5.199277899002536" fill="#ff0500" stroke="none" /><path d="M 118.70294669586156 90.45014215332178 l 20.561343775858763 -10.498768637328249 a44.08664117556283,44.08664117556283 0 0,0 0.33837565004191555,0.6769779689456437 l -20.738539339112418 10.144258812218855" fill="#ffc312" stroke="none" /><path d="M 118.8641267826498 90.77261029715802 l 11.480332159883913 -5.615605746180108 a33.78018209564308,33.78018209564308 0 0,0 0.250328428760632,0.5230901378793981 l -11.575039846604456 5.4177031062356065" fill="#ff1c02" stroke="none" /><path d="M 119.0197475246899 91.09779779509293 l 21.29020726075223 -9.964892003617027 a44.506850019718456,44.506850019718456 0 0,0 0.3179389963487633,0.694754085875348 l -21.458130721956046 9.597948935526995" fill="#ffca12" stroke="none" /><path d="M 119.16976305983485 91.42560881287824 l 13.605959638874568 -6.085772685648705 a35.90499134102639,35.90499134102639 0 0,0 0.24683162933896544,0.5647990725862242 l -13.708425150230504 5.851311543286632" fill="#ff4006" stroke="none" /><path d="M 119.4528033332814 92.08871423366111 l 10.338627460406892 -4.20462978367038 a32.16091973731589,32.16091973731589 0 0,0 0.20359596591366172,0.513194832830987 l -10.409282101286678 4.026533933625828" fill="#ff0000" stroke="none" /><path d="M 119.58574465831526 92.42381321644754 l 21.53185995632005 -8.328985988138903 a44.08664117556283,44.08664117556283 0 0,0 0.26697466720068813,0.7081820232483652 l -21.671665307335182 7.958135684696381" fill="#ffc312" stroke="none" /><path d="M 119.83427380445688 93.10060997987247 l 28.651055896337073 -9.966324508078797 a51.33497368014951,51.33497368014951 0 0,0 0.28237799253601,0.834800359651621 l -28.817919310445447 9.473022473953014" fill="#d1ff1c" stroke="none" /><path d="M 119.94978838288452 93.4421083053983 l 25.30111105330933 -8.316977747144492 a47.63303098369369,47.63303098369369 0 0,0 0.24867909001371302,0.7789837075684775 l -25.440154859100303 7.881425005884627" fill="#fff817" stroke="none" /><path d="M 120.05942366710727 93.78553927170692 l 13.612108006540305 -4.217065855916853 a35.25037293599218,35.25037293599218 0 0,0 0.17410944772217374,0.5795537254381603 l -13.682493774266106 3.9827745268879693" fill="#ff3505" stroke="none" /><path d="M 120.16314734710363 94.1308016681162 l 10.913220094968763 -3.176679318671558 a32.36616313163354,32.36616313163354 0 0,0 0.15070534460815216,0.5348001019209179 l -10.966143931651496 2.988871292847627" fill="#ff0400" stroke="none" /><path d="M 120.26092885502905 94.47779374421319 l 21.22983766277714 -5.786286659884641 a43.00425232763499,43.00425232763499 0 0,0 0.18801155875259784,0.7139105122040482 l -21.32603870233447 5.420995643307794" fill="#ffb310" stroke="none" /><path d="M 120.35273937422433 94.82641323984039 l 12.0931307339551 -3.0740265427515125 a33.47771814612232,33.47771814612232 0 0,0 0.13680027622424754,0.5581918102036484 l -12.14411853669564 2.8659789079397693" fill="#ff1702" stroke="none" /><path d="M 120.43855184770803 95.1765574152323 l 25.910466742001912 -6.1147996005692695 a47.62222869978224,47.62222869978224 0 0,0 0.18093983803139987,0.7972543120069983 l -26.011617441590978 5.669110954623244" fill="#fff817" stroke="none" /><path d="M 120.51834098615036 95.52812308129327 l 21.89113237395165 -4.771070412247543 a43.405017060749984,43.405017060749984 0 0,0 0.15241834856033892,0.7293769739245247 l -21.969808433336354 4.394576987037614" fill="#ffb911" stroke="none" /><path d="M 120.592083275326 95.88100663000786 l 28.13673503759287 -5.628135022741438 a49.69410675399942,49.69410675399942 0 0,0 0.16014211694140235,0.8379312254548493 l -28.22920344681643 5.144301232253274" fill="#e8ff1a" stroke="none" /><path d="M 120.65975698304385 96.23510406497455 l 11.02047358142854 -2.008297397826542 a32.20196841617942,32.20196841617942 0 0,0 0.09443638581046265,0.5446839778618074 l -11.053324784731236 1.818820387044142" fill="#ff0100" stroke="none" /><path d="M 120.7213421655516 96.59031103205396 l 21.705873280257176 -3.571693188212817 a42.99777095728811,42.99777095728811 0 0,0 0.1135929606709991,0.7293482935995749 l -21.76398773306644 3.1985567126818006" fill="#ffb310" stroke="none" /><path d="M 120.77682067341334 96.94652285012252 l 27.833408590269567 -4.090552566704584 a49.13238799060373,49.13238799060373 0 0,0 0.1154739410511008,0.8355119141663949 l -27.89952704787588 3.612152344338104" fill="#f0ff19" stroke="none" /><path d="M 120.82617615685814 97.30363454192243 l 12.29516076982189 -1.5918547193475567 a33.397781245177555,33.397781245177555 0 0,0 0.06873249661774793,0.5692036706846523 l -12.320675352699302 1.3805573717394917" fill="#ff1502" stroke="none" /><path d="M 120.86939407059847 97.66154086499901 l 22.126116554368323 -2.479277510579651 a43.264587369901065,43.264587369901065 0 0,0 0.07636736876524572,0.7387850179115012 l -22.165416315615236 2.0990879703852183" fill="#ffb710" stroke="none" /><path d="M 120.9064616781168 98.02013634271609 l 24.759321713376824 -2.344733508426515 a45.87009824934415,45.87009824934415 0 0,0 0.0675085030183776,0.7845511355226149 l -24.795923839092943 1.9193613255282378" fill="#ffde14" stroke="none" /><path d="M 120.93736805541906 98.37931529534042 l 22.106638262660013 -1.7111936136816484 a43.172767956653686,43.172767956653686 0 0,0 0.05085348879939886,0.7393985663366451 l -22.132755712624476 1.331451623190669" fill="#ffb510" stroke="none" /><path d="M 120.96210409425399 98.7389718711861 l 22.40016891620681 -1.347538537472618 a43.440664597657786,43.440664597657786 0 0,0 0.03838998513726964,0.74475545569608 l -22.42000049080065 0.9628112883998075" fill="#ffb911" stroke="none" /><path d="M 120.98066250479742 99.09900007780936 l 22.047664870827308 -0.9468215948165817 a43.06798580271257,43.06798580271257 0 0,0 0.025379990701136612,0.7389107372647029 l -22.060669548525293 0.5682045929877588" fill="#ffb410" stroke="none" /><path d="M 120.99303781780057 99.45929381324524 l 37.73822598816943 -0.9720028347517357 a58.750741585363755,58.750741585363755 0 0,0 0.017313475377624756,1.0084231425499424 l -37.749350895145724 0.32403277623272686" fill="#6fff27" stroke="none" /><line stroke="#e1ed5e" stroke-width="0.3" x1="184.99686870605535" x2="189.99668451229388" y1="99.2704041080226" y2="99.22748670261217" /><path d="M 185.99683186730306 99.26182062694052 a86.0,86.0 0 0,1 -10.086455211305974,41.156179273409016" fill="none" id="id148" stroke="none" /><text fill="#e1ed5e" style="font-size:6.75px; font-family:Arial;" text-anchor="middle"><textPath startOffset="21.40746469413373" xlink:href="#id148">April</textPath></text><path d="M 120.99922638620191 99.81974689727618 l 27.864545045101988 -0.2391836064812265 a48.86557157799077,48.86557157799077 0 0,0 0.0,0.8388734184101033 l -27.864545045101988 -0.2391836064812231" fill="#f4ff19" stroke="none" /><path d="M 120.99922638620191 100.18025310272382 l 33.225521051414646 0.2852011378413685 a54.22674508324617,54.22674508324617 0 0,0 -0.01598028195853539,0.9307713096292903 l -33.21572933785744 -0.8555193634397299" fill="#aaff21" stroke="none" /><path d="M 120.99303781780057 100.54070618675476 l 22.52393389021199 0.5801366391178481 a43.53140378251402,43.53140378251402 0 0,0 -0.02565308320358579,0.7468615275033322 l -22.510656120011557 -0.966704431185291" fill="#ffbb11" stroke="none" /><path d="M 120.98066250479742 100.90099992219065 l 33.91707689536883 1.4565452180870713 a54.9483376485314,54.9483376485314 0 0,0 -0.04855970517906238,0.9420453076443158 l -33.8870756007332 -2.038562319108118" fill="#a0ff22" stroke="none" /><path d="M 120.96210409425399 101.26102812881392 l 21.951604832778386 1.3205540360964476 a42.991289586941235,42.991289586941235 0 0,0 -0.05063972422792707,0.7362904763823006 l -21.925701147385393 -1.6971879366330918" fill="#ffb210" stroke="none" /><path d="M 120.93736805541906 101.62068470465957 l 23.24503427959618 1.7993126651120948 a44.314569366094545,44.314569366094545 0 0,0 -0.06521918099122169,0.7579457433767914 l -23.210721475907217 -2.1980794558645433" fill="#ffc712" stroke="none" /><path d="M 120.9064616781168 101.97986365728391 l 44.02756508472601 4.169456188810379 a65.22455033349908,65.22455033349908 0 0,0 -0.11512943011056956,1.1137727993200994 l -43.949503262133774 -4.92463351041341" fill="#31ff40" stroke="none" /><path d="M 120.86939407059847 102.33845913500097 l 32.99433274943042 3.697083804166003 a54.200819601858676,54.200819601858676 0 0,0 -0.11154506410517426,0.9237531453066133 l -32.92600559906558 -4.262930626396025" fill="#aaff21" stroke="none" /><path d="M 120.82617615685814 102.69636545807757 l 22.770204945766675 2.948058905614039 a43.9602544537988,43.9602544537988 0 0,0 -0.1033180767106292,0.747558135235754 l -22.71624235250084 -3.338505349049878" fill="#ffc112" stroke="none" /><path d="M 120.77682067341334 103.0534771498775 l 32.57865046489218 4.78793971089567 a53.92860204729,53.92860204729 0 0,0 -0.14247039869775335,0.9147621610076413 l -32.49165857405616 -5.346490053834762" fill="#aeff20" stroke="none" /><path d="M 120.7213421655516 103.40968896794604 l 32.63662021057722 5.3703434359599305 a54.075513108485794,54.075513108485794 0 0,0 -0.1585833497136749,0.9146666192632488 l -32.53962204337131 -5.9298030881437676" fill="#acff21" stroke="none" /><path d="M 120.65975698304385 103.76489593502545 l 38.55996754373704 7.026910586570705 a60.195006944325364,60.195006944325364 0 0,0 -0.19398187171541284,1.0149951217517825 l -38.43365937973947 -7.6878082733558015" fill="#5dff2a" stroke="none" /><path d="M 120.592083275326 104.11899336999214 l 61.776249825978006 12.356980109976403 a84.0,84.0 0 0,0 -0.2949691567025421,1.4115341948583637 l -61.555022958451104 -13.415630756120176" fill="#4dd2ff" stroke="none" /><path d="M 120.51834098615036 104.47187691870673 l 15.36527192999316 3.3487895020249567 a36.72596491829701,36.72596491829701 0 0,0 -0.13953967139497012,0.6148375389634946 l -15.305521397040525 -3.612061374927468" fill="#ff4e07" stroke="none" /><path d="M 120.43855184770803 104.8234425847677 l 32.99970501513313 7.787840530033204 a54.90620874127673,54.90620874127673 0 0,0 -0.22436369436673967,0.9154804373147568 l -32.86115379425009 -8.353176791956061" fill="#a0ff22" stroke="none" /><path d="M 120.35273937422433 105.17358676015961 l 32.47692914016286 8.255508387385909 a54.5097649217263,54.5097649217263 0 0,0 -0.2383128485083711,0.9049127025604422 l -32.33042681084976 -8.811801594319153" fill="#a6ff21" stroke="none" /><path d="M 120.26092885502905 105.52220625578681 l 11.037014278292089 3.0081873209709493 a32.43961866223144,32.43961866223144 0 0,0 -0.15104737282469502,0.5360138394001142 l -10.983748413392814 -3.197209084274072" fill="#ff0500" stroke="none" /><line stroke="#e1ed5e" stroke-width="0.3" x1="174.33088141563837" x2="178.70328620479359" y1="141.23008692659167" y2="143.65538615756765" /><path d="M 175.20536237346943 141.71514677278685 a86.0,86.0 0 0,1 -30.301960400862466,31.631185727798858" fill="none" id="id149" stroke="none" /><text fill="#e1ed5e" style="font-size:6.75px; font-family:Arial;" text-anchor="middle"><textPath startOffset="22.145653131862474" xlink:href="#id149">May</textPath></text><line stroke="#e1ed5e" stroke-width="0.3" x1="143.1302829299769" x2="145.66735839644613" y1="173.24464959558577" y2="177.55315839532614" /><path d="M 143.63769802327073 174.10635135553383 a86.0,86.0 0 0,1 -40.68552437913181,11.842963189579606" fill="none" id="id150" stroke="none" /><text fill="#e1ed5e" style="font-size:6.75px; font-family:Arial;" text-anchor="middle"><textPath startOffset="21.407464694133747" xlink:href="#id150">June</textPath></text><line stroke="#e1ed5e" stroke-width="0.3" x1="101.45913802915013" x2="101.54496967792366" y1="184.9874750549273" y2="189.98673829345242" /><path d="M 101.47630435890484 185.9873277026323 a86.0,86.0 0 0,1 -42.54439059252881,-10.42667462771756" fill="none" id="id151" stroke="none" /><text fill="#e1ed5e" style="font-size:6.75px; font-family:Arial;" text-anchor="middle"><textPath startOffset="22.145653131862474" xlink:href="#id151">July</textPath></text><line stroke="#e1ed5e" stroke-width="0.3" x1="58.13341422392154" x2="55.67067388415222" y1="173.97424548756322" y2="178.32567169271397" /><path d="M 57.64086615596768 174.84453072859336 a86.0,86.0 0 0,1 -31.369924170532247,-30.572349798747897" fill="none" id="id152" stroke="none" /><text fill="#e1ed5e" style="font-size:6.75px; font-family:Arial;" text-anchor="middle"><textPath startOffset="22.145653131862474" xlink:href="#id152">August</textPath></text><line stroke="#e1ed5e" stroke-width="0.3" x1="26.387840678322732" x2="22.057713659400548" y1="142.50000000000003" y2="145.00000000000006" /><path d="M 25.521815274538298 143.00000000000003 a86.0,86.0 0 0,1 -11.493303480769221,-40.785679425670985" fill="none" id="id153" stroke="none" /><text fill="#e1ed5e" style="font-size:6.75px; font-family:Arial;" text-anchor="middle"><textPath startOffset="21.40746469413373" xlink:href="#id153">September</textPath></text><line stroke="#e1ed5e" stroke-width="0.3" x1="15.003131293944662" x2="10.003315487706104" y1="100.72959589197737" y2="100.7725132973878" /><path d="M 14.003168132696942 100.73817937305945 a86.0,86.0 0 0,1 10.791469493833604,-42.45332614584628" fill="none" id="id154" stroke="none" /><text fill="#e1ed5e" style="font-size:6.75px; font-family:Arial;" text-anchor="middle"><textPath startOffset="22.145653131862435" xlink:href="#id154">October</textPath></text><line stroke="#e1ed5e" stroke-width="0.3" x1="26.387840678322718" x2="22.05771365940052" y1="57.49999999999999" y2="54.99999999999999" /><path d="M 25.521815274538284 56.99999999999999 a86.0,86.0 0 0,1 29.574782752854787,-30.34633250058573" fill="none" id="id155" stroke="none" /><text fill="#e1ed5e" style="font-size:6.75px; font-family:Arial;" text-anchor="middle"><textPath startOffset="21.40746469413373" xlink:href="#id155">November</textPath></text><line stroke="#e1ed5e" stroke-width="0.3" x1="56.869717070023135" x2="54.33264160355391" y1="26.7553504044142" y2="22.446841604673864" /><path d="M 56.362301976729285 25.89364864446614 a86.0,86.0 0 0,1 42.16139366436587,-11.88097634709845" fill="none" id="id156" stroke="none" /><text fill="#e1ed5e" style="font-size:6.75px; font-family:Arial;" text-anchor="middle"><textPath startOffset="22.145653131862474" xlink:href="#id156">December</textPath></text></svg>