<?xml version="1.0" encoding="utf-8" ?>
<svg baseProfile="full" height="200mm" version="1.1" viewBox="0,0,200,200" width="200mm" xmlns="http://www.w3.org/2000/svg" xmlns:ev="http://www.w3.org/2001/xml-events" xmlns:xlink="http://www.w3.org/1999/xlink"><defs /><rect fill="#1a1a1a" height="200" width="200" x="0" y="0" /><text alignment-baseline="middle" fill="#e1ed5e" style="dominant-baseline: central; font-size:9.0px; font-family:Arial;" text-anchor="middle" x="100.0" y="100.0">2024</text><line stroke="#e1ed5e" stroke-width="0.3" x1="100.0" x2="100.0" y1="15.0" y2="10.0" /><path d="M 100.0 14.0 a86.0,86.0 0 0,1 42.35913384403234,11.155469271406648" fill="none" id="id145" stroke="none" /><text fill="#e1ed5e" style="font-size:6.75px; font-family:Arial;" text-anchor="middle"><textPath startOffset="22.145653131862478" xlink:href="#id145">January</textPath></text><path d="M 100.0 79.0 l 0.0 -11.050584276979848 a32.05058427697985,32.05058427697985 0 0,0 0.5501908985296754,0.004722727148441447 l -0.1896979736808206 11.04895594802584" fill="#ff6008" stroke="none" /><path d="M 100.36049292484886 79.00309439819443 l 0.2978810644380744 -17.350078626907834 a38.352635577584024,38.352635577584024 0 0,0 0.658179963450385,0.016952381133421485 l -0.5956743419592007 17.342408528424368" fill="#ffb911" stroke="none" /><path d="M 100.72087961077811 79.0123766808444 l 0.5193900953137832 -15.121475920757128 a36.130393256394484,36.130393256394484 0 0,0 0.619677948110217,0.026611637401957218 l -0.7788938040248365 15.11033171492934" fill="#ff9a0e" stroke="none" /><path d="M 101.08105385017728 79.02784411241856 l 1.1094871973455736 -21.52375522661663 a42.55233168119822,42.55233168119822 0 0,0 0.7291760421624729,0.043865419992650055 l -1.4788075916405088 21.50153782879929" fill="#fff116" stroke="none" /><path d="M 101.44090949804482 79.04949213459386 l 0.9159348881895236 -13.317492254199632 a34.34895264281322,34.34895264281322 0 0,0 0.5879085036582978,0.04550783637639129 l -1.144412386623055 13.299806650828188" fill="#ff810b" stroke="none" /><path d="M 101.80034050326958 79.07731436759882 l 1.197873530759796 -13.921106182938994 a34.9725480264824,34.9725480264824 0 0,0 0.5976982264877685,0.05660264347289472 l -1.4366713206325776 13.898491783960916" fill="#ff8a0c" stroke="none" /><path d="M 102.15924093988457 79.11130261209362 l 1.2976068612721163 -12.553169288756294 a33.620057161463045,33.620057161463045 0 0,0 0.5735647365276779,0.06426912506948106 l -1.5129074994005909 12.529044403179842" fill="#ff760a" stroke="none" /><path d="M 102.51750503828377 79.15144685158666 l 1.8096417497796848 -14.986429669904298 a36.09529322383416,36.09529322383416 0 0,0 0.6145175168036066,0.07956159561951946 l -2.0666370884740832 14.953156478084383" fill="#ff9a0e" stroke="none" /><path d="M 102.87502721639298 79.19773525538626 l 2.2984823786350734 -16.630673504087202 a37.78875583372526,37.78875583372526 0 0,0 0.641823833152907,0.09432600105592734 l -2.5836313173956627 16.58876642973239" fill="#ffb110" stroke="none" /><path d="M 103.23170211078529 79.25015418208739 l 2.769880058847889 -17.784616955687852 a38.99902319018849,38.99902319018849 0 0,0 0.6606109479859551,0.10870328009914082 l -3.0747685098869146 17.73444767709304" fill="#ffc212" stroke="none" /><path d="M 103.58742460773223 79.30868818359171 l 1.9116751209120904 -11.026034089526586 a32.190528562642456,32.190528562642456 0 0,0 0.5436601138000954,0.09907298300562398 l -2.1006699682632397 10.991592932589596" fill="#ff6209" stroke="none" /><path d="M 103.94208987418118 79.37332000966035 l 2.784463756865281 -14.569490978307275 a35.83318259107847,35.83318259107847 0 0,0 0.6031979038360558,0.12065647430976623 l -3.0341581462322935 14.519545107334649" fill="#ff960d" stroke="none" /><path d="M 104.29559338865022 79.4440306129975 l 4.95171998634499 -23.695772677474086 a45.20762635215803,45.20762635215803 0 0,0 0.7582773836509188,0.16526302649004013 l -5.357759786615043 23.607278192850327" fill="#ebff1a" stroke="none" /><path d="M 104.64783097203109 79.52079915486377 l 3.2311009307246654 -14.23682687890452 a35.59887847762382,35.59887847762382 0 0,0 0.5947858009866396,0.14036782951507462 l -3.47501888545119 14.179262905743217" fill="#ff930d" stroke="none" /><path d="M 104.9986988182912 79.60360301121754 l 1.847968732845788 -7.540343050887176 a28.763489019934156,28.763489019934156 0 0,0 0.47856241961592766,0.12164869566258457 l -1.9771364456871103 7.507509123389324" fill="#ff2f04" stroke="none" /><path d="M 105.3480935250658 79.69241777938227 l 4.392862609641258 -16.680414845226473 a38.24915885821787,38.24915885821787 0 0,0 0.6335128023567488,0.1726667313886317 l -4.6785568129327 16.602547619693702" fill="#ffb711" stroke="none" /><path d="M 105.69591212413111 79.78721728523813 l 3.8980142875615527 -13.832677558300292 a35.37141203284975,35.37141203284975 0 0,0 0.5830219106236085,0.16970918113016548 l -4.134896210566765 13.76372468286761" fill="#ff8f0d" stroke="none" /><path d="M 106.04205211174951 79.88797359093562 l 3.26140971447216 -10.8561722234551 a32.335487138670814,32.335487138670814 0 0,0 0.5302394231838202,0.16426952870893777 l -3.44728977052761 10.798586106939515" fill="#ff6409" stroke="none" /><path d="M 106.38641147887787 79.99465700312896 l 6.48326700841536 -20.308741563648223 a42.31848341232227,42.31848341232227 0 0,0 0.6901484926643598,0.2268655176296703 l -6.8309382387274615 20.19445512461653" fill="#ffee16" stroke="none" /><path d="M 106.72888874123014 80.10723608172694 l 4.852365968070755 -14.345157775672712 a36.143612749176945,36.143612749176945 0 0,0 0.5860329294540398,0.20385267364982834 l -5.097904669569814 14.259746669454293" fill="#ff9a0e" stroke="none" /><path d="M 107.06938296918511 80.22567764915836 l 2.303502212302834 -6.443305657721872 a27.84268297094895,27.84268297094895 0 0,0 0.4486793316392424,0.1647612654342449 l -2.413770695596201 6.4028135432789055" fill="#ff2103" stroke="none" /><path d="M 107.40779381753099 80.34994680014964 l 2.353309848114744 -6.242433962153544 a27.67128540935567,27.67128540935567 0 0,0 0.44304065176588403,0.17137764170024136 l -2.460122762374154 6.201116432315264" fill="#ff1e03" stroke="none" /><path d="M 107.74402155503746 80.48000691201159 l 5.333431841790716 -13.443732296856757 a35.463036793169564,35.463036793169564 0 0,0 0.5639391871294415,0.22934915794808608 l -5.563425490110597 13.350195882329377" fill="#ff910d" stroke="none" /><path d="M 108.07796709384702 80.6158196554323 l 5.765951852978655 -13.836185426079075 a35.98953728157447,35.98953728157447 0 0,0 0.5682318201626784,0.24254437487480265 l -6.002618748311764 13.735166401544872" fill="#ff980e" stroke="none" /><path d="M 108.4095320186766 80.7573450057729 l 2.520942885812896 -5.768410668288619 a27.29521363192359,27.29521363192359 0 0,0 0.4277375701170624,0.19132157451111484 l -2.6195938587855903 5.724285342867653" fill="#ff1802" stroke="none" /><path d="M 108.73861861582097 80.90454125486305 l 5.603578724285671 -12.244830797512913 a34.46610469954054,34.46610469954054 0 0,0 0.5358843892041116,0.25082095253658704 l -5.812951827361288 12.146833613405793" fill="#ff830c" stroke="none" /><path d="M 109.06512990194946 81.05736502329252 l 2.1787008778492334 -4.5526468896661925 a26.04711117542781,26.04711117542781 0 0,0 0.4016709519282747,0.19647739057620386 l -2.2565320790395753 4.514575748992767" fill="#ff0500" stroke="none" /><path d="M 109.3889696526874 81.21577127319529 l 6.671973507181949 -13.348416392230504 a35.92298397308346,35.92298397308346 0 0,0 0.549232965170309,0.28044226545577433 l -6.900133694065837 13.231916175101896" fill="#ff970d" stroke="none" /><path d="M 109.71004243097381 81.37971332152246 l 4.588777549974259 -8.799586005075096 a30.924192322998444,30.924192322998444 0 0,0 0.46859161237835806,0.24949864006394384 l -4.739157978139177 8.719516897288578" fill="#ff4f07" stroke="none" /><line stroke="#e1ed5e" stroke-width="0.3" x1="143.13028292997686" x2="145.6673583964461" y1="26.7553504044142" y2="22.446841604673864" /><path d="M 143.63769802327073 25.89364864446614 a86.0,86.0 0 0,1 29.32050498858742,28.57503671076993" fill="none" id="id146" stroke="none" /><text fill="#e1ed5e" style="font-size:6.75px; font-family:Arial;" text-anchor="middle"><textPath startOffset="20.669276256404974" xlink:href="#id146">February</textPath></text><path d="M 110.65571695917076 81.90426304109057 l 3.500530815674329 -5.944666614148591 a27.898751854129735,27.898751854129735 0 0,0 0.4105995395735261,0.2465532260309044 l -3.6020631118052893 5.883699387581766" fill="#ff2203" stroke="none" /><path d="M 110.96478420261332 82.08984904055464 l 5.071544917823914 -8.283987481868131 a30.71313628305778,30.71313628305778 0 0,0 0.4472942282252031,0.27914468015061167 l -5.21300327483883 8.195707004875974" fill="#ff4c07" stroke="none" /><path d="M 111.27062007382361 82.28071324371311 l 3.2829590268942304 -5.161356875278332 a27.116978401649725,27.116978401649725 0 0,0 0.3906321702988312,0.25320305330371223 l -3.371076829450069 5.104239980270725" fill="#ff1602" stroke="none" /><path d="M 111.5731344415666 82.4767994020092 l 2.831463368710911 -4.287196424296246 a26.13782424659021,26.13782424659021 0 0,0 0.37228191682015904,0.25048788805066774 l -2.904641573628071 4.237958862188459" fill="#ff0701" stroke="none" /><path d="M 111.8722381534696 82.67804972795209 l 6.91202126220198 -10.084845589810726 a33.226207445461455,33.226207445461455 0 0,0 0.46770619155034976,0.32649524559548904 l -7.084122544926091 9.96470552841011" fill="#ff710a" stroke="none" /><path d="M 112.16784306229584 82.88440491214696 l 4.212545038180015 -5.92547214766835 a28.270265185774754,28.270265185774754 0 0,0 0.39311687028618736,0.28458629777863825 l -4.31364291884017 5.852285078516637" fill="#ff2703" stroke="none" /><path d="M 112.45986205192187 83.09580414077388 l 7.3244569493454525 -9.937032554474198 a33.34472703592489,33.34472703592489 0 0,0 0.4578501131616811,0.34357926055473 l -7.493960051417901 9.809834266655454" fill="#ff720a" stroke="none" /><path d="M 114.13192950727249 84.46653392183569 l 5.721690586512353 -6.289140247239696 a29.50241308201585,29.50241308201585 0 0,0 0.37168857980470504,0.3440294004789404 l -5.828808937631023 6.189993100628381" fill="#ff3a05" stroke="none" /><path d="M 117.81537515405839 88.88188828441811 l 6.3873930339622085 -3.986205662738674 a28.529184906479507,28.529184906479507 0 0,0 0.25571935939880236,0.41769835552200074 l -6.454880357816414 3.8759701910921187" fill="#ff2b04" stroke="none" /><line stroke="#e1ed5e" stroke-width="0.3" x1="172.87174338648825" x2="177.1583165268699" y1="56.24261187166439" y2="53.66864786411523" /><path d="M 173.72905801456457 55.72781907015455 a86.0,86.0 0 0,1 12.242430191666344,42.057860355516425" fill="none" id="id147" stroke="none" /><text fill="#e1ed5e" style="font-size:6.75px; font-family:Arial;" text-anchor="middle"><textPath startOffset="22.145653131862474" xlink:href="#id147">March</textPath></text><path d="M 118.00360718960297 89.18935116829356 l 5.72525260289462 -3.4378496881697354 a27.67812307803625,27.67812307803625 0 0,0 0.24109792215413453,0.409436980858053 l -5.783424235178522 3.339061539018126" fill="#ff1e03" stroke="none" /><path d="M 118.18653347947321 89.5 l 4.574629354078411 -2.641163489019935 a26.28232697803987,26.28232697803987 0 0,0 0.22223163623325942,0.3926620074000626 l -4.6192943553330466 2.5622447115207545" fill="#ff0901" stroke="none" /><path d="M 118.36410011445183 89.81374322990088 l 8.38911371315015 -4.653299961507963 a30.593249158858217,30.593249158858217 0 0,0 0.2507985768130472,0.46144113330359515 l -8.467757639578538 4.508603994729764" fill="#ff4a06" stroke="none" /><path d="M 118.53625476483649 90.13048839642627 l 4.258624227004003 -2.2674775329161236 a25.8246590210195,25.8246590210195 0 0,0 0.2049886800132075,0.393092822695914 l -4.296920975992156 2.1940384671157114" fill="#ff0200" stroke="none" /><path d="M 118.70294669586156 90.45014215332178 l 8.67666242431069 -4.430365657520501 a30.74231033609493,30.74231033609493 0 0,0 0.2359546784782617,0.4720674167294515 l -8.75143701600069 4.2807663846273" fill="#ff4c07" stroke="none" /><path d="M 118.8641267826498 90.77261029715802 l 4.8445747396736 -2.3697242699104244 a26.393097210665317,26.393097210665317 0 0,0 0.1955863510790435,0.40870024974708336 l -4.884540348712556 2.2862115180982374" fill="#ff0b01" stroke="none" /><path d="M 119.0197475246899 91.09779779509293 l 8.984234851520066 -4.20507555112296 a30.91963387721139,30.91963387721139 0 0,0 0.22087740107503562,0.48265698337323787 l -9.055096717450153 4.050229585535037" fill="#ff4f07" stroke="none" /><path d="M 119.16976305983485 91.42560881287824 l 5.741566311629851 -2.568129581416867 a27.289743496979124,27.289743496979124 0 0,0 0.1876054442576907,0.4292779706257171 l -5.784805637904512 2.4691895410153" fill="#ff1802" stroke="none" /><path d="M 119.4528033332814 92.08871423366111 l 4.362787830529938 -1.7743078297705595 a25.709786187185703,25.709786187185703 0 0,0 0.1627568115267666,0.41025348566584086 l -4.39260331702283 1.6991533268911532" fill="#ff0000" stroke="none" /><path d="M 119.58574465831526 92.42381321644754 l 9.086209648800997 -3.5147410861708988 a30.74231033609493,30.74231033609493 0 0,0 0.18616564682883077,0.4938264960228487 l -9.145205979444269 3.358246309953892" fill="#ff4c07" stroke="none" /><path d="M 119.83427380445688 93.10060997987247 l 12.090432552586917 -4.205680052354571 a33.801027459209145,33.801027459209145 0 0,0 0.1859291160653076,0.5496663942082288 l -12.160847090224589 3.9975119836721813" fill="#ff790b" stroke="none" /><path d="M 119.94978838288452 93.4421083053983 l 10.676792429651993 -3.5096737396708795 a32.23884808798524,32.23884808798524 0 0,0 0.1683102511019091,0.527229464358731 l -10.73546739653116 3.3258752416207615" fill="#ff6209" stroke="none" /><path d="M 120.05942366710727 93.78553927170692 l 5.744160855608966 -1.7795557163845503 a27.013501682283565,27.013501682283565 0 0,0 0.13342570495593595,0.4441307774395832 l -5.7738628805685295 1.6806873353542437" fill="#ff1402" stroke="none" /><path d="M 120.16314734710363 94.1308016681162 l 4.605259644431629 -1.3405239647208422 a25.796396657139756,25.796396657139756 0 0,0 0.12011478877034934,0.42624501104201407 l -4.627592925276561 1.261271029775815" fill="#ff0100" stroke="none" /><path d="M 120.26092885502905 94.47779374421319 l 8.95875954076065 -2.4417497506684427 a30.285554068231974,30.285554068231974 0 0,0 0.13240630681527574,0.5027683135265414 l -8.999355328380656 2.2876009327691027" fill="#ff4606" stroke="none" /><path d="M 120.35273937422433 94.82641323984039 l 5.103169042617816 -1.2972056148461413 a26.26546072862776,26.26546072862776 0 0,0 0.10732876915775069,0.43793800419589685 l -5.124685338291858 1.2094117860421494" fill="#ff0901" stroke="none" /><path d="M 120.43855184770803 95.1765574152323 l 10.933933872582712 -2.580378622371118 a32.234289642198185,32.234289642198185 0 0,0 0.12247362851674433,0.5396414051457977 l -10.976618362657122 2.3923028832862943" fill="#ff6209" stroke="none" /><path d="M 120.51834098615036 95.52812308129327 l 9.237818683703443 -2.0133395862138777 a30.45467240693173,30.45467240693173 0 0,0 0.10694272663719698,0.5117596606618354 l -9.271019121165006 1.854463474266638" fill="#ff4806" stroke="none" /><path d="M 120.592083275326 95.88100663000786 l 11.873394769562998 -2.3750114877269524 a33.108599544155425,33.108599544155425 0 0,0 0.10669436611896606,0.5582700082821241 l -11.91241542796412 2.170838914411514" fill="#ff6f0a" stroke="none" /><path d="M 120.65975698304385 96.23510406497455 l 4.650519443887659 -0.8474795596298381 a25.727108281176513,25.727108281176513 0 0,0 0.07544803137587168,0.4351641954419149 l -4.664382292755765 0.7675223312673305" fill="#ff0000" stroke="none" /><path d="M 120.7213421655516 96.59031103205396 l 9.15964137026793 -1.507215501825258 a30.282819000759744,30.282819000759744 0 0,0 0.08000217200043531,0.5136713339286535 l -9.18416503440663 1.349755985965163" fill="#ff4606" stroke="none" /><path d="M 120.77682067341334 96.94652285012252 l 11.745394322876244 -1.7261684905956953 a32.87156036322854,32.87156036322854 0 0,0 0.07725675015769799,0.5589913587340739 l -11.773295589589155 1.5242888236615357" fill="#ff6c09" stroke="none" /><path d="M 120.82617615685814 97.30363454192243 l 5.188423510414113 -0.6717452992805533 a26.231728229803554,26.231728229803554 0 0,0 0.05398478894740932,0.447071495174919 l -5.199190385621186 0.5825801271822213" fill="#ff0801" stroke="none" /><path d="M 120.86939407059847 97.66154086499901 l 9.33697944044944 -1.046228021377778 a30.39541261170001,30.39541261170001 0 0,0 0.053651677383253014,0.5190313098047608 l -9.353563510314359 0.8857921892900859" fill="#ff4706" stroke="none" /><path d="M 120.9064616781168 98.02013634271609 l 10.4481632476817 -0.9894519224698292 a31.49490973553779,31.49490973553779 0 0,0 0.04635207444700607,0.5386813662765966 l -10.463608944826447 0.8099495088175706" fill="#ff5708" stroke="none" /><path d="M 120.93736805541906 98.37931529534042 l 9.328759814164428 -0.7221050088168114 a30.35666582251004,30.35666582251004 0 0,0 0.03575731736593902,0.5199035468483387 l -9.339781092695434 0.5618580378141386" fill="#ff4706" stroke="none" /><path d="M 120.96210409425399 98.7389718711861 l 9.452626542904362 -0.5686465398787349 a30.469715278029014,30.469715278029014 0 0,0 0.026927118346238208,0.5223789022795436 l -9.460995250707173 0.4062958442224607" fill="#ff4806" stroke="none" /><path d="M 120.98066250479742 99.09900007780936 l 9.303873687142431 -0.39954836823051176 a30.312448898375603,30.312448898375603 0 0,0 0.017863144905211622,0.5200659735145226 l -9.309361519044492 0.23977613015186927" fill="#ff4606" stroke="none" /><path d="M 120.99303781780057 99.45929381324524 l 15.92511904674961 -0.4101745763579898 a36.93040049202272,36.93040049202272 0 0,0 0.010883157596835256,0.6338893691355761 l -15.929813635945113 0.13673829125334733" fill="#ffa50f" stroke="none" /><line stroke="#e1ed5e" stroke-width="0.3" x1="184.99686870605535" x2="189.99668451229388" y1="99.2704041080226" y2="99.22748670261217" /><path d="M 185.99683186730306 99.26182062694052 a86.0,86.0 0 0,1 -10.086455211305974,41.156179273409016" fill="none" id="id148" stroke="none" /><text fill="#e1ed5e" style="font-size:6.75px; font-family:Arial;" text-anchor="middle"><textPath startOffset="21.40746469413373" xlink:href="#id148">April</textPath></text><path d="M 120.99922638620191 99.81974689727618 l 11.758533566624891 -0.10093286866315698 a32.758966752288266,32.758966752288266 0 0,0 0.0,0.5623719427739663 l -11.758533566624891 -0.10093286866315555" fill="#ff6a09" stroke="none" /><path d="M 120.99922638620191 100.18025310272382 l 14.020806868344513 0.12035176411885573 a35.02132339640389,35.02132339640389 0 0,0 -0.01032056454018103,0.6011211440513482 l -14.016674872205664 -0.3610198241392749" fill="#ff8a0c" stroke="none" /><path d="M 120.99303781780057 100.54070618675476 l 9.504854009703365 0.2448113232516336 a30.508006222640283,30.508006222640283 0 0,0 -0.017978386957492834,0.5234211201264963 l -9.499250935749027 -0.40793870794224063" fill="#ff4906" stroke="none" /><path d="M 120.98066250479742 100.90099992219065 l 14.312635878693284 0.6146461681129921 a35.32582757497919,35.32582757497919 0 0,0 -0.031218629091561416,0.6056330642525045 l -14.299975660145149 -0.8602510257422272" fill="#ff8f0d" stroke="none" /><path d="M 120.96210409425399 101.26102812881392 l 9.263337400618418 0.5572593751252193 a30.280083933287507,30.280083933287507 0 0,0 -0.03566711105232658,0.518591966845965 l -9.252406328401024 -0.7161947661255277" fill="#ff4606" stroke="none" /><path d="M 120.93736805541906 101.62068470465957 l 9.809150495425845 0.7592902857494482 a30.838493542201803,30.838493542201803 0 0,0 -0.045386005564217756,0.5274541814762189 l -9.794670867163887 -0.9275655146013246" fill="#ff4e07" stroke="none" /><path d="M 120.9064616781168 101.97986365728391 l 18.579151429443982 1.759464957039254 a39.662277052205056,39.662277052205056 0 0,0 -0.07000884376450284,0.6772720565182 l -18.546210193197812 -2.0781415358403854" fill="#ffcb12" stroke="none" /><path d="M 120.86939407059847 102.33845913500097 l 13.923247930824006 1.5601289717648816 a35.01038312651496,35.01038312651496 0 0,0 -0.07205122466561194,0.5966874997292242 l -13.894414619898729 -1.7989101484175143" fill="#ff8a0c" stroke="none" /><path d="M 120.82617615685814 102.69636545807757 l 9.608777704439483 1.2440486482711655 a30.688976520386383,30.688976520386383 0 0,0 -0.07212710821854633,0.5218758249906214 l -9.586006079665728 -1.4088127814618718" fill="#ff4c07" stroke="none" /><path d="M 120.77682067341334 103.0534771498775 l 13.747834548409806 2.0204582459328275 a34.895510292681166,34.895510292681166 0 0,0 -0.09218813533865136,0.5919139601802732 l -13.711124920932887 -2.256160388044551" fill="#ff890c" stroke="none" /><path d="M 120.7213421655516 103.40968896794604 l 13.772297147723128 2.2662262546841228 a34.95750515538512,34.95750515538512 0 0,0 -0.10251734928621678,0.5912928277574885 l -13.731364980944676 -2.502312115362199" fill="#ff8a0c" stroke="none" /><path d="M 120.65975698304385 103.76489593502545 l 16.27188500501638 2.965279492922761 a37.53986469375204,37.53986469375204 0 0,0 -0.12097437290725072,0.632989037954954 l -16.21858433982697 -3.2441710959110295" fill="#ffae10" stroke="none" /><path d="M 120.592083275326 104.11899336999214 l 26.068902471696852 5.214510596533655 a47.58531167468615,47.58531167468615 0 0,0 -0.1670976101917834,0.7996225547834811 l -25.975547150680704 -5.6612496026025445" fill="#cdff1d" stroke="none" /><path d="M 120.51834098615036 104.47187691870673 l 6.483976876590073 1.4131525816547699 a27.63618537679534,27.63618537679534 0 0,0 -0.10500321052605634,0.46266351997037397 l -6.458762804506352 -1.5242504355641608" fill="#ff1e03" stroke="none" /><path d="M 120.43855184770803 104.8234425847677 l 13.925514968254257 3.2863836152965997 a35.308049636409685,35.308049636409685 0 0,0 -0.1442795749136055,0.5887099011731884 l -13.867047866824354 -3.524949341077888" fill="#ff8e0d" stroke="none" /><path d="M 120.35273937422433 105.17358676015961 l 13.70490926076074 3.483734341454604 a35.14075467602474,35.14075467602474 0 0,0 -0.15363290151044923,0.5833691510054667 l -13.64308687844556 -3.7184839968328736" fill="#ff8c0c" stroke="none" /><path d="M 120.26092885502905 105.52220625578681 l 15.640226155548852 4.262813187691262 a37.210744907926625,37.210744907926625 0 0,0 -0.17326298800596285,0.6148492204150959 l -15.56474467546831 -4.530670332009366" fill="#ffa90f" stroke="none" /><path d="M 120.16314734710363 105.8691983318838 l 16.01818023825402 4.662658815895587 a37.68299989146558,37.68299989146558 0 0,0 -0.1861247343831254,0.6195487069722816 l -15.935779183867265 -4.936945126458593" fill="#ffb010" stroke="none" /><path d="M 120.05942366710727 106.21446072829308 l 14.077374201170246 4.361206512334179 a35.73745522955031,35.73745522955031 0 0,0 -0.18657552673758943,0.5844451801378753 l -14.000433958655401 -4.602220726163438" fill="#ff950d" stroke="none" /><path d="M 119.94978838288452 106.5578916946017 l 29.215133825757125 9.603594774818747 a51.75309865779096,51.75309865779096 0 0,0 -0.2846779701799298,0.8415998348766278 l -29.04597043400483 -10.103696284169535" fill="#9bff22" stroke="none" /><path d="M 119.83427380445688 106.89939002012753 l 14.383059621261705 5.003174756392324 a36.22839984081618,36.22839984081618 0 0,0 -0.20936535448864219,0.5856321586767659 l -14.29505409672912 -5.249341871450012" fill="#ff9b0e" stroke="none" /><path d="M 119.71291397450082 107.23885506374661 l 11.395563374442279 4.1846087160949885 a33.1395969755074,33.1395969755074 0 0,0 -0.20068285171620515,0.532335106734303 l -11.322049838911633 -4.379612103023451" fill="#ff6f0a" stroke="none" /><path d="M 119.58574465831526 107.57618678355244 l 10.944945779465325 4.233740151711753 a32.73526283419558,32.73526283419558 0 0,0 -0.20723186745286387,0.5223596798564552 l -10.870655237046336 -4.421000848781772" fill="#ff6a09" stroke="none" /><path d="M 119.4528033332814 107.91128576633889 l 17.425393476817554 7.08675582763663 a39.81133822944177,39.81133822944177 0 0,0 -0.26289541461143645,0.6308532913521838 l -17.301172217669635 -7.384841628430091" fill="#ffcd13" stroke="none" /><path d="M 119.31412917781788 108.2440532568976 l 12.068518270236215 5.151332811107871 a34.121942042617846,34.121942042617846 0 0,0 -0.2345739195588013,0.5367510337898554 l -11.978310468660448 -5.357745914673571" fill="#ff7e0b" stroke="none" /><path d="M 119.16976305983485 108.57439118712176 l 15.535268638816417 6.948728061502925 a38.01850150139286,38.01850150139286 0 0,0 -0.27158884991144305,0.5934706510401893 l -15.413695324049918 -7.214387694757804" fill="#ffb410" stroke="none" /><path d="M 119.0197475246899 108.90220220490707 l 25.7285762362496 12.042272790537224 a49.407322455772224,49.407322455772224 0 0,0 -0.3661335325133894,0.7650782651931045 l -25.5180634457763 -12.482163557795433" fill="#b7ff1f" stroke="none" /><path d="M 118.8641267826498 109.22738970284198 l 24.952979079218146 12.205752477373121 a48.778256937158574,48.778256937158574 0 0,0 -0.37438493745293516,0.7490206654330198 l -24.73977422855348 -12.632304998969886" fill="#beff1e" stroke="none" /><path d="M 118.70294669586154 109.54985784667822 l 19.11122997201953 9.75833019661801 a42.458427697984874,42.458427697984874 0 0,0 -0.33702272863164756,0.6462855202636523 l -18.94089917441293 -10.084961959986165" fill="#fff016" stroke="none" /><path d="M 118.5362547648365 109.86951160357373 l 23.345984022980566 12.430421524457605 a47.449014145653194,47.449014145653194 0 0,0 -0.388979449587703,0.7156783755728964 l -23.129159223777524 -12.829354733505104" fill="#cfff1d" stroke="none" /><line stroke="#e1ed5e" stroke-width="0.3" x1="174.33088141563837" x2="178.70328620479359" y1="141.23008692659167" y2="143.65538615756765" /><path d="M 175.20536237346943 141.71514677278685 a86.0,86.0 0 0,1 -30.301960400862466,31.631185727798858" fill="none" id="id149" stroke="none" /><text fill="#e1ed5e" style="font-size:6.75px; font-family:Arial;" text-anchor="middle"><textPath startOffset="22.145653131862474" xlink:href="#id149">May</textPath></text><path d="M 118.36410011445183 110.18625677009912 l 13.000834147810837 7.211343546905235 a35.86691508990268,35.86691508990268 0 0,0 -0.3032746390275223,0.5358572279469801 l -12.875126143761936 -7.433457544951338" fill="#ff960d" stroke="none" /><path d="M 118.18653347947321 110.5 l 4.1234038318388855 2.380648312289714 a25.76129662457943,25.76129662457943 0 0,0 -0.22440087684671017,0.38108174760328223 l -4.08192924486241 -2.4510812281865455" fill="#ff0100" stroke="none" /><path d="M 118.00360718960297 110.81064883170644 l 20.298267590057787 12.188526471231132 a44.67656741796607,44.67656741796607 0 0,0 -0.40045529648709993,0.6541136314277857 l -20.086044329115282 -12.535177218783476" fill="#f2ff19" stroke="none" /><path d="M 117.81537515405839 111.11811171558189 l 23.6643302008385 14.768292251617583 a48.89449730472849,48.89449730472849 0 0,0 -0.45048667644336055,0.7082398792170923 l -23.407325832769246 -15.172345805513347" fill="#bdff1f" stroke="none" /><path d="M 117.62189284568427 111.42229804090321 l 9.224765410799648 5.979381488826495 a31.993147860062948,31.993147860062948 0 0,0 -0.30267888579953134,0.458294411027645 l -9.120762086079392 -6.136855778193201" fill="#ff5f08" stroke="none" /><path d="M 117.423217284605 111.72311816256416 l 15.883801878054506 10.687330775110224 a40.14456061647553,40.14456061647553 0 0,0 -0.3896130221274859,0.5684570430102344 l -15.6979991191117 -10.958422553190504" fill="#ffd113" stroke="none" /><path d="M 117.21940702142032 112.02048342749411 l 14.782986455566155 10.319672650571079 a39.028653087804344,39.028653087804344 0 0,0 -0.38821411213115986,0.5460717660976835 l -14.603657244905033 -10.571921643378266" fill="#ffc212" stroke="none" /><path d="M 117.01052211995028 112.31430620078461 l 19.459973302679778 14.087519960791946 a45.023920986939686,45.023920986939686 0 0,0 -0.45859646521541414,0.6221741810660227 l -19.215274817880534 -14.419500451126845" fill="#edff1a" stroke="none" /><path d="M 116.79662413953412 112.60449989151573 l 12.307882661515567 9.236064603405737 a36.38794544336312,36.38794544336312 0 0,0 -0.3792109480199747,0.49639930379311653 l -12.147519736141287 -9.44598482043973" fill="#ff9e0e" stroke="none" /><path d="M 116.57777611688842 112.89097897827486 l 15.151203334730354 11.781667354320414 a40.19288014181831,40.19288014181831 0 0,0 -0.4282141208059479,0.5410345529866489 l -14.946722783282844 -12.040021851221745" fill="#ffd213" stroke="none" /><path d="M 116.35404254752997 113.17365903436017 l 14.634681900551856 11.788663804308772 a39.792192757136135,39.792192757136135 0 0,0 -0.43307772495776714,0.5282844069953958 l -14.430157356355462 -12.03815049300266" fill="#ffcc13" stroke="none" /><path d="M 116.1254893667686 113.45245675266167 l 24.454435012421147 20.400759439481988 a52.846669802105566,52.846669802105566 0 0,0 -0.5871150173988395,0.6916200142161201 l -24.10062543151519 -20.817546236147663" fill="#8eff24" stroke="none" /><path d="M 115.89218393027572 113.72728997021213 l 15.4425732854555 13.33892700372372 a41.40588256575377,41.40588256575377 0 0,0 -0.46924485417521394,0.5339145059615977 l -15.2113173673217 -13.60205378749661" fill="#ffe215" stroke="none" /><path d="M 115.6541949942343 113.99807769240083 l 10.51454916334269 9.402174697788624 a35.105198798885716,35.105198798885716 0 0,0 -0.40555247338155015,0.44577321058289404 l -10.351598989119259 -9.58128548392919" fill="#ff8c0c" stroke="none" /><path d="M 115.41159269507618 114.26474011684316 l 14.017797267300363 12.974663877051379 a40.100799536919794,40.100799536919794 0 0,0 -0.47193707943149593,0.5011808238818264 l -13.793004354132608 -13.213386160877702" fill="#ffd113" stroke="none" /><path d="M 115.16444852881244 114.52719865689866 l 19.188477944142335 18.38212780955668 a47.5725480264824,47.5725480264824 0 0,0 -0.5699943326833378,0.5848643990931192 l -18.87009681030819 -18.708814900717535" fill="#cdff1d" stroke="none" /><path d="M 114.91283532996324 114.78537596483092 l 14.306740065331702 14.184460970478657 a41.14650700047032,41.14650700047032 0 0,0 -0.5016113452642555,0.4973240945707464 l -14.061136799937481 -14.427965075278065" fill="#ffde14" stroke="none" /><path d="M 114.65682725009322 115.03919595460226 l 17.15327610119986 17.60077240097784 a45.576860460909515,45.576860460909515 0 0,0 -0.5649957517072438,0.5412531494145741 l -16.848607863627304 -17.89263768069799" fill="#e6ff1a" stroke="none" /><path d="M 114.39649973595853 115.28858382429668 l 25.635571712453654 27.224088785323165 a58.39429832495206,58.39429832495206 0 0,0 -0.7356853743710946,0.6809393993729749 l -25.16445656676859 -27.66014593082852" fill="#50ff2b" stroke="none" /><path d="M 114.13192950727249 115.5334660781643 l 17.439008586352166 19.16852530105775 a46.914308454831584,46.914308454831584 0 0,0 -0.6003578773432829,0.5368437159107449 l -17.107385682185505 -19.46506454685188" fill="#d5ff1c" stroke="none" /><path d="M 113.86319453409587 115.77377054828091 l 18.565375860204277 21.12398972987177 a49.12287543865996,49.12287543865996 0 0,0 -0.6381775444152217,0.5512425632059537 l -18.2000188360262 -21.43957642554244" fill="#baff1f" stroke="none" /><path d="M 113.59037401385872 116.0094264158162 l 20.186875367627916 23.780088423889577 a52.19298867624181,52.19298867624181 0 0,0 -0.6880170877324434,0.5739683247620844 l -19.775683945733576 -24.123118932563532" fill="#96ff23" stroke="none" /><path d="M 113.31354834802062 116.24036423190432 l 16.604534580164387 20.25483232824344 a47.19100611410586,47.19100611410586 0 0,0 -0.6308970767950375,0.508206026205284 l -16.254386733014094 -20.53688664824213" fill="#d2ff1c" stroke="none" /><path d="M 113.03279911837588 116.46651593811092 l 14.803385104748479 18.70359349141197 a44.852979269925115,44.852979269925115 0 0,0 -0.6078434216048971,0.4726627211480377 l -14.48013173850835 -18.9549572641808" fill="#efff19" stroke="none" /><path d="M 112.7482090630111 116.68781488649013 l 33.195246107898114 43.45364273695415 a75.6822039723599,75.6822039723599 0 0,0 -1.039177967051224,0.7798185197305939 l -32.44441515193612 -44.01708028394876" fill="#42ffd7" stroke="none" /><path d="M 112.45986205192187 116.90419585922612 l 13.910815489667472 18.872692861204225 a44.445454216562354,44.445454216562354 0 0,0 -0.6180436492281242,0.4474159398740239 l -13.58479083006538 -19.10870957245133" fill="#f5ff19" stroke="none" /><path d="M 112.16784306229584 117.11559508785304 l 13.663764494020224 19.21979592094671 a44.58175174559531,44.58175174559531 0 0,0 -0.6275516504795637,0.43807979015203063 l -13.331817752366902 -19.451520526903863" fill="#f3ff19" stroke="none" /><path d="M 111.8722381534696 117.32195027204791 l 15.961998916455986 23.289033449226228 a49.23410151586411,49.23410151586411 0 0,0 -0.7012429769335196,0.47182757036059225 l -15.559859651425462 -23.55961069364394" fill="#b9ff1f" stroke="none" /><path d="M 111.5731344415666 117.5232005979908 l 14.569061006567345 22.059415263120968 a47.436250497449436,47.436250497449436 0 0,0 -0.683340348920668,0.44293295828650353 l -14.188235025389668 -22.30626206311137" fill="#cfff1d" stroke="none" /><path d="M 111.27062007382361 117.71928675628689 l 9.08874937395638 14.289023617004993 a37.93462609891104,37.93462609891104 0 0,0 -0.5524652105712798,0.34477915154678496 l -8.842120034595386 -14.442938565393325" fill="#ffb310" stroke="none" /><path d="M 110.96478420261333 117.91015095944535 l 15.024939742231568 24.5421099008771 a49.776100719945006,49.776100719945006 0 0,0 -0.7325791542301333,0.4398927334064542 l -14.601427831444 -24.79641663481948" fill="#b2ff20" stroke="none" /><line stroke="#e1ed5e" stroke-width="0.3" x1="143.1302829299769" x2="145.66735839644613" y1="173.24464959558577" y2="177.55315839532614" /><path d="M 143.63769802327073 174.10635135553383 a86.0,86.0 0 0,1 -40.68552437913181,11.842963189579606" fill="none" id="id150" stroke="none" /><text fill="#e1ed5e" style="font-size:6.75px; font-family:Arial;" text-anchor="middle"><textPath startOffset="21.407464694133747" xlink:href="#id150">June</textPath></text><path d="M 110.65571695917076 118.09573695890943 l 12.978378754294088 22.04012446939853 a46.57743931116819,46.57743931116819 0 0,0 -0.6924679705105656,0.3997965691794705 l -12.598118315923124 -22.25966793585417" fill="#daff1c" stroke="none" /><path d="M 110.34350942703117 118.27599006163325 l 17.2294030513098 30.442704302150094 a55.98014543612749,55.98014543612749 0 0,0 -0.8403841046002989,0.4661468964782962 l -16.704274758553407 -30.733984114061535" fill="#6bff28" stroke="none" /><path d="M 110.02825361518725 118.45085714620011 l 9.295898318793599 17.103405887731906 a40.46638688904164,40.46638688904164 0 0,0 -0.6131836615619722,0.32648576207466246 l -9.000925841445072 -17.260462117529137" fill="#ffd513" stroke="none" /><path d="M 109.71004243097381 118.62028667847754 l 13.168364623223177 25.252075478989106 a49.4793458992077,49.4793458992077 0 0,0 -0.7564986216977754,0.3862735865049695 l -12.73293877981182 -25.47440701716691" fill="#b6ff1f" stroke="none" /><path d="M 109.3889696526874 118.78422872680471 l 16.99511863611191 34.00162185086323 a59.012423573676784,59.012423573676784 0 0,0 -0.9100270733590795,0.44513984361811165 l -16.40893131349076 -34.28835544457857" fill="#4aff2c" stroke="none" /><path d="M 109.06512990194946 118.94263497670748 l 9.276598219332227 19.384522427703505 a42.48988097391556,42.48988097391556 0 0,0 -0.6606393182971327,0.30921255859777447 l -8.942470187163588 -19.540911217871813" fill="#fff016" stroke="none" /><path d="M 108.73861861582097 119.09545874513695 l 10.65592357792465 23.285116105788074 a46.607525053362764,46.607525053362764 0 0,0 -0.7303767533872507,0.32668823177286566 l -10.254633421681772 -23.46460808847079" fill="#d9ff1c" stroke="none" /><path d="M 108.4095320186766 119.2426549942271 l 5.6948483134471335 13.030927416263584 a35.22098332187692,35.22098332187692 0 0,0 -0.5560972708353152,0.2373648573318535 l -5.470315967441387 -13.126766923254841" fill="#ff8d0d" stroke="none" /><path d="M 108.07796709384702 119.3841803445677 l 6.3943972941207505 15.344225707290262 a37.62328425165515,37.62328425165515 0 0,0 -0.5982918062478181,0.24332006908163958 l -6.130051026682492 -15.451733032951191" fill="#ffaf10" stroke="none" /><path d="M 107.74402155503746 119.51999308798841 l 16.818431328889403 42.3934335612965 a66.60770594406858,66.60770594406858 0 0,0 -1.066445631908118,0.41252408028352666 l -16.088213434487756 -42.675897529718064" fill="#36ff6f" stroke="none" /><path d="M 107.407793817531 119.65005319985036 l 10.133623958195507 26.88064149606534 a49.72732535002352,49.72732535002352 0 0,0 -0.8013460170320331,0.2942653572530707 l -9.670688789509347 -27.050637702327133" fill="#b3ff20" stroke="none" /><path d="M 107.06938296918513 119.77432235084164 l 7.22877081573178 20.220158524968646 a42.47347056908216,42.47347056908216 0 0,0 -0.6886653128565771,0.23955354421209207 l -6.880599730830181 -20.341270501749328" fill="#fff016" stroke="none" /><path d="M 106.72888874123015 119.89276391827305 l 9.10835584127283 26.927235595953597 a49.426012083499145,49.426012083499145 0 0,0 -0.8060612051117522,0.26496832853014274 l -8.644771898513344 -27.07962484588576" fill="#b7ff1f" stroke="none" /><path d="M 106.38641147887787 120.00534299687104 l 14.383877910902156 45.057292688455796 a68.29752179733005,68.29752179733005 0 0,0 -1.1199472086935722,0.34696250808044066 l -13.60829006933696 -45.29757178434288" fill="#38ff83" stroke="none" /><path d="M 106.0420521117495 120.11202640906438 l 9.199281730115883 30.621416975323296 a52.97339459498571,52.97339459498571 0 0,0 -0.8731528642482196,0.25416207331646223 l -8.672268853486058 -30.774822742942277" fill="#8dff24" stroke="none" /><path d="M 105.69591212413111 120.21278271476187 l 12.932178907206543 45.89174070512321 a68.6790637097066,68.6790637097066 0 0,0 -1.137516939267951,0.3100353001106272 l -12.142480567003897 -46.10697649937798" fill="#39ff88" stroke="none" /><path d="M 105.3480935250658 120.30758222061773 l 6.016967998353763 22.847407543025582 a44.626424514308454,44.626424514308454 0 0,0 -0.742487452741702,0.18873740701233946 l -5.623875252386664 -22.94733018187319" fill="#f2ff19" stroke="none" /><path d="M 104.9986988182912 120.39639698878246 l 3.4067684989230966 13.90077803820707 a35.31215223761803,35.31215223761803 0 0,0 -0.5899951810677403,0.13923725625839775 l -3.167641164115477 -13.957211438111694" fill="#ff8f0d" stroke="none" /><path d="M 104.64783097203109 120.47920084513623 l 7.302614986814233 32.17666905479507 a53.99494229586484,53.99494229586484 0 0,0 -0.9056689518611732,0.19738633277178758 l -6.749183618333924 -32.297286845700576" fill="#81ff25" stroke="none" /><path d="M 104.29559338865022 120.5559693870025 l 6.215268758305464 29.74231096110936 a51.384776238196885,51.384776238196885 0 0,0 -0.8649856662098993,0.1730213585784172 l -5.703786606564607 -29.844621716350638" fill="#9fff22" stroke="none" /><path d="M 103.94208987418118 120.62667999033965 l 2.646695267358426 13.848628025785002 a35.09927281936254,35.09927281936254 0 0,0 -0.5927853784115882,0.10802524266650743 l -2.4085751553957806 -13.892021442382873" fill="#ff8c0c" stroke="none" /><path d="M 103.58742460773223 120.69131181640829 l 7.866532609858597 45.3720696439727 a67.04896349625557,67.04896349625557 0 0,0 -1.1357535577424496,0.18688781572159732 l -7.086501549063075 -45.50042345818997" fill="#37ff74" stroke="none" /><path d="M 103.2317021107853 120.74984581791261 l 4.413989947140111 28.340981843378273 a49.68265258131038,49.68265258131038 0 0,0 -0.8438359458366158,0.12401482495127615 l -3.9268288956958095 -28.412577741628432" fill="#b4ff20" stroke="none" /><path d="M 102.875027216393 120.80226474461374 l 4.563264499750127 33.01750873252392 a54.33135559494953,54.33135559494953 0 0,0 -0.9249840281872935,0.1197577012742366 l -3.9958026496720582 -33.09097802999855" fill="#7dff26" stroke="none" /><path d="M 102.51750503828377 120.84855314841334 l 4.528940650905657 37.506125481594104 a58.778575304800846,58.778575304800846 0 0,0 -1.002773966036381,0.11236291448071303 l -3.8844307832684764 -37.578344156581785" fill="#4cff2c" stroke="none" /><path d="M 102.15924093988457 120.88869738790638 l 3.401853205386673 32.90984384966342 a54.085199522448534,54.085199522448534 0 0,0 -0.9243429391912068,0.08753623737713821 l -2.836410702810451 -32.96339184254574" fill="#80ff25" stroke="none" /><path d="M 101.80034050326958 120.92268563240118 l 1.2194455713763754 14.171805994141602 a35.22417423392786,35.22417423392786 0 0,0 -0.6028885882434728,0.04666738966396041 l -0.9759879883576669 -14.190651150800615" fill="#ff8d0d" stroke="none" /><path d="M 101.44090949804482 120.95050786540614 l 1.5978190740049805 23.231938662948643 a44.286820303172824,44.286820303172824 0 0,0 -0.7588982101043502,0.04565343180937987 l -1.1987765117681652 -23.255944072582714" fill="#f7ff19" stroke="none" /><path d="M 101.08105385017728 120.97215588758144 l 2.0076837279208597 38.94852796464493 a60.000238775731695,60.000238775731695 0 0,0 -1.0290733507056085,0.04419283750940172 l -1.3387846166144217 -38.97725337058016" fill="#3fff2d" stroke="none" /><path d="M 100.72087961077811 120.9876233191556 l 1.3089281360812 38.108014516133174 a59.13048731956152,59.13048731956152 0 0,0 -1.0147543029751753,0.026136471263321144 l -0.654560519035281 -38.12486870474654" fill="#49ff2c" stroke="none" /><line stroke="#e1ed5e" stroke-width="0.3" x1="101.45913802915013" x2="101.54496967792366" y1="184.9874750549273" y2="189.98673829345242" /><path d="M 101.47630435890484 185.9873277026323 a86.0,86.0 0 0,1 -42.54439059252881,-10.42667462771756" fill="none" id="id151" stroke="none" /><text fill="#e1ed5e" style="font-size:6.75px; font-family:Arial;" text-anchor="middle"><textPath startOffset="22.145653131862474" xlink:href="#id151">July</textPath></text><path d="M 100.36049292484886 120.99690560180557 l 0.483572546801158 28.16567654154579 a49.169827430266636,49.169827430266636 0 0,0 -0.8440654716500068,0.00724528691528063 l -3.4498088995009348e-15 -28.169827430266636" fill="#baff1f" stroke="none" /><path d="M 100.0 121.0 l 1.721861994857466e-15 14.060070185593865 a35.060070185593865,35.060070185593865 0 0,0 -0.6018527260290844,-0.0051661818037649 l 0.24135980118023048 -14.057998401984536" fill="#ff8b0c" stroke="none" /><path d="M 99.63950707515114 120.99690560180557 l -0.5799787441341959 33.78085421994189 a54.78583263991896,54.78583263991896 0 0,0 -0.9401945076654886,-0.024216075417939274 l 1.1597865658704285 -33.7659204271739" fill="#78ff26" stroke="none" /><path d="M 99.27912038922189 120.98762331915562 l -0.8877139101937398 25.844821914453846 a46.86006294996563,46.86006294996563 0 0,0 -0.8037041681524137,-0.03451451510666467 l 1.3312438389469923 -25.82577483092135" fill="#d6ff1c" stroke="none" /><path d="M 98.91894614982273 120.97215588758144 l -1.4750688607856333 28.615941831427556 a49.65393437285192,49.65393437285192 0 0,0 -0.8508689868055057,-0.0511861653521333 l 1.9660821997235853 -28.58640368825073" fill="#b4ff20" stroke="none" /><path d="M 98.55909050195518 120.95050786540614 l -2.0602592229560224 29.955716937034886 a51.02648239933433,51.02648239933433 0 0,0 -0.8733571362798314,-0.06760336584462255 l 2.5741853540110897 -29.91593580419521" fill="#a4ff21" stroke="none" /><path d="M 98.19965949673042 120.92268563240118 l -3.9785955417611505 46.23731101286931 a67.40816902427554,67.40816902427554 0 0,0 -1.1520391092490085,-0.1090993014164276 l 4.771734214395175 -46.1621999559477" fill="#37ff78" stroke="none" /><path d="M 97.84075906011543 120.88869738790638 l -2.924243889281826 28.289406968593283 a49.44014326543902,49.44014326543902 0 0,0 -0.8434584929390393,-0.09451128341987886 l 3.4094382838216646 -28.235039924666435" fill="#b6ff1f" stroke="none" /><path d="M 97.48249496171623 120.84855314841334 l -2.2306983610450453 18.473382428672608 a39.60757570276039,39.60757570276039 0 0,0 -0.6743136540417219,-0.08730340274536745 l 2.547489836977561 -18.432367429726845" fill="#ffca12" stroke="none" /><path d="M 97.12497278360702 120.80226474461374 l -4.526069400709472 32.74838352458378 a54.05967222604103,54.05967222604103 0 0,0 -0.9181775181955406,-0.1349404759953946 l 5.087572024512698 -32.6658619752895" fill="#80ff25" stroke="none" /><path d="M 96.76829788921471 120.74984581791261 l -5.703841400654995 36.62275345194436 a58.06426684996924,58.06426684996924 0 0,0 -0.9835602851078232,-0.16184447062590537 l 6.331679188815881 -36.519442982822795" fill="#54ff2b" stroke="none" /><path d="M 96.41257539226777 120.69131181640829 l -5.802228736777865 33.46571347144998 a54.96497955935024,54.96497955935024 0 0,0 -0.9282937676560785,-0.16916604755933096 l 6.3758572379850005 -33.361179249959285" fill="#76ff27" stroke="none" /><path d="M 96.05791012581884 120.62667999033965 l -4.501949069220627 23.5560998727635 a44.98243913027749,44.98243913027749 0 0,0 -0.7572119200925165,-0.15146359097514428 l 4.9056574748441015 -23.475346885125493" fill="#eeff19" stroke="none" /><path d="M 95.70440661134978 120.55596938700252 l -6.78359063603397 32.461936880875946 a54.16314894540719,54.16314894540719 0 0,0 -0.9084903187060951,-0.19800123654405324 l 7.339843371359201 -32.340704186198174" fill="#7fff26" stroke="none" /><path d="M 95.35216902796893 120.47920084513623 l -10.107657738857494 44.53620498541964 a66.66878911761513,66.66878911761513 0 0,0 -1.1139016404984392,-0.2628777541607122 l 10.87069153309582 -44.356131087612695" fill="#36ff6f" stroke="none" /><path d="M 95.00130118170881 120.39639698878247 l -10.033891881419072 40.94170295019023 a63.153315726637956,63.153315726637956 0 0,0 -1.0507349633406546,-0.2670927188140852 l 10.735232137985104 -40.76342499954088" fill="#31ff44" stroke="none" /><path d="M 94.6519064749342 120.30758222061772 l -11.821606564544911 44.8885656475755 a67.41910929416447,67.41910929416447 0 0,0 -1.1166485783298554,-0.3043475355394626 l 12.590436543809462 -44.67901761789189" fill="#37ff79" stroke="none" /><path d="M 94.30408787586889 120.21278271476187 l -7.641725221461907 27.11778694986228 a49.17393003147498,49.17393003147498 0 0,0 -0.8105268348686897,-0.23593254888561835 l 8.106112068712203 -26.982610706674144" fill="#baff1f" stroke="none" /><path d="M 93.95794788825049 120.11202640906438 l -9.473131550513118 31.532973962598565 a53.92519807532289,53.92519807532289 0 0,0 -0.8842689086423804,-0.27394876827989373 l 10.013041092027132 -31.365708606512023" fill="#82ff25" stroke="none" /><path d="M 93.61358852112213 120.00534299687104 l -4.333822849810354 13.57563835103322 a35.25061321949278,35.25061321949278 0 0,0 -0.5748825481738166,-0.18897531220305788 l 4.566228135631914 -13.49924211742814" fill="#ff8e0d" stroke="none" /><path d="M 93.27111125876986 119.89276391827306 l -12.931998606757183 38.23115601531367 a61.359111464852944,61.359111464852944 0 0,0 -0.9948772993442169,-0.3460699684807502 l 13.586381678146422 -38.00352761426433" fill="#31ff2f" stroke="none" /><path d="M 92.93061703081489 119.77432235084164 l -12.976400911115325 36.29730284646442 a59.547129264498395,59.547129264498395 0 0,0 -0.9595902157600356,-0.3523748189365355 l 13.597580278529481 -36.06919717851916" fill="#44ff2d" stroke="none" /><path d="M 92.59220618246901 119.65005319985036 l -11.518756245975505 30.554869453017208 a53.65397055099309,53.65397055099309 0 0,0 -0.8590453869809177,-0.33229721008097324 l 12.04157389544995 -30.352632354798192" fill="#85ff25" stroke="none" /><path d="M 92.25597844496254 119.51999308798841 l -11.322952453075539 28.541236881744023 a51.705234977026876,51.705234977026876 0 0,0 -0.8222253596989573,-0.3343918957829716 l 11.811232273964936 -28.34265772938176" fill="#9cff22" stroke="none" /><path d="M 91.92203290615298 119.3841803445677 l -14.52666366389978 34.85870454713746 a58.764444122860965,58.764444122860965 0 0,0 -0.9278204046784664,-0.3960313591456325 l 15.122919143748678 -34.604198538332426" fill="#4dff2c" stroke="none" /><path d="M 91.59046798132341 119.24265499422711 l -12.344223082355203 28.245998162323055 a51.82557794580514,51.82557794580514 0 0,0 -0.8121477662488124,-0.3632633657405458 l 12.827284251459652 -28.029931045672654" fill="#9aff22" stroke="none" /><path d="M 91.26138138417905 119.09545874513695 l -2.354978838292764 5.146053767682978 a26.659310444629355,26.659310444629355 0 0,0 -0.41450313050357873,-0.19400839456568947 l 2.442970682667833 -5.104869141546762" fill="#ff0f01" stroke="none" /><path d="M 90.93487009805054 118.94263497670748 l -22.023926756900078 46.02153635106563 a72.01994862703954,72.01994862703954 0 0,0 -1.1106153434066215,-0.5432576181047676 l 22.810702349568768 -45.636684982863635" fill="#3dffae" stroke="none" /><path d="M 90.6110303473126 118.78422872680471 l -12.870303539681105 25.749228553910143 a49.78658514525524,49.78658514525524 0 0,0 -0.76119605780859,-0.3886721308537089 l 13.310426819203277 -25.5244984713836" fill="#b2ff20" stroke="none" /><path d="M 90.28995756902619 118.62028667847754 l -13.18311885722705 25.280368668110192 a49.51125501971709,49.51125501971709 0 0,0 -0.7502397662722718,-0.39946041811709854 l 13.615147439285884 -25.05033778227052" fill="#b6ff1f" stroke="none" /><path d="M 89.97174638481275 118.45085714620012 l -15.58691230842302 28.678163056977237 a53.64029521363192,53.64029521363192 0 0,0 -0.8052578483390407,-0.44666295425300284 l 16.076914344918166 -28.406367187291085" fill="#85ff25" stroke="none" /><line stroke="#e1ed5e" stroke-width="0.3" x1="58.13341422392154" x2="55.67067388415222" y1="173.97424548756322" y2="178.32567169271397" /><path d="M 57.64086615596768 174.84453072859336 a86.0,86.0 0 0,1 -31.369924170532247,-30.572349798747897" fill="none" id="id152" stroke="none" /><text fill="#e1ed5e" style="font-size:6.75px; font-family:Arial;" text-anchor="middle"><textPath startOffset="22.145653131862474" xlink:href="#id152">August</textPath></text><path d="M 89.65649057296885 118.27599006163327 l -15.190039147129955 26.839343691539447 a51.83970912774501,51.83970912774501 0 0,0 -0.7707022692194276,-0.44496516259889535 l 15.648533884209781 -26.57463163166438" fill="#9aff23" stroke="none" /><path d="M 89.34428304082925 118.09573695890944 l -17.012524251596567 28.89098547226398 a54.527824608371624,54.527824608371624 0 0,0 -0.8025125925061668,-0.48188575374032255 l 17.50596960066016 -28.59468571798774" fill="#7bff26" stroke="none" /><path d="M 89.03521579738668 117.91015095944536 l -7.518777170736693 12.281357450357342 a35.400130241308204,35.400130241308204 0 0,0 -0.5155537939670541,-0.3217436976291772 l 7.72849509349346 -12.150477955886616" fill="#ff900d" stroke="none" /><path d="M 88.72937992617639 117.7192867562869 l -14.827260957146713 23.310916967219512 a48.626916537028336,48.626916537028336 0 0,0 -0.7004924243566804,-0.4540507263586305 l 15.225239013760403 -23.052952399156986" fill="#c0ff1e" stroke="none" /><path d="M 88.4268655584334 117.5232005979908 l -25.749711231733507 38.98834473341898 a67.72406931731848,67.72406931731848 0 0,0 -0.9645962151421736,-0.6490233821089745 l 26.41520373497269 -38.540571677252885" fill="#37ff7c" stroke="none" /><path d="M 88.1277618465304 117.32195027204791 l -20.45619148166758 29.846194712441974 a57.18357512391014,57.18357512391014 0 0,0 -0.8049402624219806,-0.5619108179817008 l 20.965526835263326 -29.490639078655143" fill="#5eff2a" stroke="none" /><path d="M 87.83215693770417 117.11559508785305 l -21.70349478539656 30.528683418775866 a58.457204876813435,58.457204876813435 0 0,0 -0.8128863764042779,-0.5884670485069067 l 22.224362172174793 -30.151615598895894" fill="#50ff2b" stroke="none" /><path d="M 87.54013794807813 116.9041958592261 l -35.757879281267805 48.51243074459878 a81.26675590608154,81.26675590608154 0 0,0 -1.1158583888779494,-0.8373609378121804 l 36.58539065905652 -47.891450779522586" fill="#49edff" stroke="none" /><path d="M 87.2517909369889 116.68781488649013 l -22.829445378011364 29.884476834858706 a58.606721898628855,58.606721898628855 0 0,0 -0.7942328680894554,-0.6176002821009141 l 23.33908819073605 -29.488175501136997" fill="#4eff2b" stroke="none" /><path d="M 86.96720088162412 116.46651593811092 l -17.717836025862223 22.385907022639163 a49.54909011974964,49.54909011974964 0 0,0 -0.6624223276532104,-0.5336005367412117 l 18.099509123870693 -22.07845819210454" fill="#b5ff1f" stroke="none" /><path d="M 86.68645165197938 116.24036423190432 l -31.134080329126096 37.978515670884214 a70.1090481531059,70.1090481531059 0 0,0 -0.9241897112504509,-0.7709919270712289 l 31.78144437453844 -37.438461559901114" fill="#3bff98" stroke="none" /><path d="M 86.40962598614128 116.0094264158162 l -21.8678120442525 25.760227602298194 a54.79039108570601,54.79039108570601 0 0,0 -0.7118068095237396,-0.6148417687571045 l 22.306798333539103 -25.381041701076366" fill="#78ff26" stroke="none" /><path d="M 86.13680546590413 115.77377054828092 l -22.143696026730815 25.195461216206034 a54.54332332404761,54.54332332404761 0 0,0 -0.6979856443072449,-0.6241430671326008 l 22.57294669786143 -24.811622619190054" fill="#7bff26" stroke="none" /><path d="M 85.86807049272751 115.53346607816431 l -9.604047227242587 10.556530284182948 a35.27158207011324,35.27158207011324 0 0,0 -0.4443719302099063,-0.4113040245145791 l 9.78384892876646 -10.390108513535992" fill="#ff8e0d" stroke="none" /><path d="M 85.60350026404147 115.28858382429668 l -26.363391571757894 27.997008254085962 a59.45596034875729,59.45596034875729 0 0,0 -0.7370486837182104,-0.7060759662863018 l 26.840112741341418 -27.54032015749408" fill="#45ff2d" stroke="none" /><path d="M 85.34317274990678 115.03919595460226 l -16.271989357245047 16.696494564555543 a44.31417097789516,44.31417097789516 0 0,0 -0.5402278963373086,-0.5356105916349898 l 16.55620917371232 -16.414703962691892" fill="#f6ff19" stroke="none" /><path d="M 85.08716467003676 114.78537596483092 l -20.866423762586688 20.688079331999596 a50.383741543359505,50.383741543359505 0 0,0 -0.6036768752245494,-0.6194256550104507 l 21.218487438962047 -20.326830984921408" fill="#abff21" stroke="none" /><path d="M 84.83555147118756 114.52719865689866 l -40.990918171139114 39.26837235586889 a77.76495785246556,77.76495785246556 0 0,0 -0.9151978891896679,-0.9719084431160174 l 41.65897189406503 -38.55892245280838" fill="#45ffed" stroke="none" /><path d="M 84.58840730492382 114.26474011684316 l -20.792519534974932 19.24524566728018 a49.33210810028581,49.33210810028581 0 0,0 -0.5699087070212505,-0.6264295023272913 l 21.119825942838062 -18.885478589395213" fill="#b8ff1f" stroke="none" /><path d="M 84.3458050057657 113.99807769240083 l -17.421061516538575 15.57802063168494 a44.370239861075945,44.370239861075945 0 0,0 -0.5028393417352148,-0.5721388659498575 l 17.685911922232382 -15.276669487923781" fill="#f5ff19" stroke="none" /><path d="M 84.1078160697243 113.72728997021213 l -23.306504942224034 20.131603871296296 a51.7973155819254,51.7973155819254 0 0,0 -0.575456920047665,-0.6778868048503044 l 23.64865642577881 -19.728550283996437" fill="#9aff22" stroke="none" /><path d="M 83.8745106332314 113.45245675266167 l -25.41562875652186 21.202621446850948 a54.098419015230995,54.098419015230995 0 0,0 -0.5887793209567824,-0.7182150373888162 l 25.77585489671727 -20.76320412776364" fill="#80ff26" stroke="none" /><path d="M 83.64595745247003 113.17365903436017 l -26.586664198375498 21.416334707000537 a55.13956803299446,55.13956803299446 0 0,0 -0.5874558270906808,-0.7422312468612934 l 26.95038645610774 -20.956783516224565" fill="#74ff27" stroke="none" /><path d="M 83.4222238831116 112.89097897827486 l -13.156904244832111 10.230888319605338 a37.666589486632176,37.666589486632176 0 0,0 -0.3925361251884261,-0.5138423884505439 l 13.330592347374832 -10.003525017913924" fill="#ffaf10" stroke="none" /><path d="M 83.20337586046588 112.60449989151573 l -21.409451962087694 16.06605188588988 a47.76719366158967,47.76719366158967 0 0,0 -0.4865383930648613,-0.6600827725964231 l 21.68209237473639 -15.696162804024576" fill="#cbff1d" stroke="none" /><path d="M 82.98947788004972 112.3143062007846 l -22.12297143290115 16.0153252425124 a48.31147208856409,48.31147208856409 0 0,0 -0.4805493850996317,-0.675952890990871 l 22.394635916530742 -15.633195124812026" fill="#c4ff1e" stroke="none" /><path d="M 82.78059297857968 112.02048342749411 l -36.27083286157342 25.319858272215328 a65.23424622842877,65.23424622842877 0 0,0 -0.6331147091652362,-0.9237332815343927 l 36.70013730755398 -24.693490255610886" fill="#34ff5e" stroke="none" /><path d="M 82.576782715395 111.72311816256416 l -26.031765399935498 17.5153335218543 a52.375782352302735,52.375782352302735 0 0,0 -0.4955137117052213,-0.7502709152050747 l 26.328603550561446 -17.06588272831016" fill="#94ff23" stroke="none" /><path d="M 82.37810715431573 111.42229804090323 l -18.89745752155147 12.249103652865134 a43.5200897217901,43.5200897217901 0 0,0 -0.40096987714382526,-0.630391246196468 l 19.104945090321184 -11.922898731989996" fill="#fffe18" stroke="none" /><path d="M 81.99639281039703 110.81064883170644 l -15.09317274924185 9.063016573843237 a38.6051734741869,38.6051734741869 0 0,0 -0.3362810073061726,-0.5710786684562216 l 15.246527466677792 -8.802586737093456" fill="#ffbc11" stroke="none" /><line stroke="#e1ed5e" stroke-width="0.3" x1="26.387840678322732" x2="22.057713659400548" y1="142.50000000000003" y2="145.00000000000006" /><path d="M 25.521815274538298 143.00000000000003 a86.0,86.0 0 0,1 -11.493303480769221,-40.785679425670985" fill="none" id="id153" stroke="none" /><text fill="#e1ed5e" style="font-size:6.75px; font-family:Arial;" text-anchor="middle"><textPath startOffset="21.40746469413373" xlink:href="#id153">September</textPath></text><path d="M 81.81346652052679 110.50000000000001 l -28.017828315296242 16.176100719945023 a53.35220143989002,53.35220143989002 0 0,0 -0.4511224227801355,-0.7970900953368282 l 28.291384103097755 -15.692753854509073" fill="#88ff25" stroke="none" /><path d="M 81.63589988554817 110.18625677009913 l -31.686493701334854 17.575963917334608 a57.23462971672515,57.23462971672515 0 0,0 -0.46920036517994684,-0.8632758247925933 l 31.98353941613013 -17.029433259067424" fill="#5dff2a" stroke="none" /><path d="M 81.4637452351635 109.86951160357371 l -31.74010898743234 16.899820267059276 a56.958843746608295,56.958843746608295 0 0,0 -0.4521228406226797,-0.8670051615250921 l 32.025539897029965 -16.35246886242968" fill="#60ff29" stroke="none" /><path d="M 81.29705330413844 109.54985784667822 l -28.76509277324001 14.687661329416999 a53.29795593502406,53.29795593502406 0 0,0 -0.40907472205924744,-0.8184234724111098 l 29.012987408510995 -14.191706000842135" fill="#89ff24" stroke="none" /><path d="M 81.1358732173502 109.22738970284198 l -40.87115999630643 19.99213243413907 a66.49875908975798,66.49875908975798 0 0,0 -0.4927898206806279,-1.0297411944844654 l 41.208329074946974 -19.2875787375895" fill="#36ff6d" stroke="none" /><path d="M 80.9802524753101 108.90220220490708 l -28.173529997138427 13.186634603585812 a52.10683405086647,52.10683405086647 0 0,0 -0.37223021880235807,-0.8133902049421354 l 28.395744680795843 -12.701055416428987" fill="#97ff23" stroke="none" /><path d="M 80.83023694016515 108.57439118712176 l -20.96017079889167 9.375217795734828 a43.96134727397707,43.96134727397707 0 0,0 -0.3022156689165722,-0.6915285937309853 l 21.118020349825212 -9.014027132227993" fill="#fbff18" stroke="none" /><path d="M 80.68587082218212 108.24405325689762 l -12.346480738559933 5.269978460165215 a34.424166998299626,34.424166998299626 0 0,0 -0.22732106123924697,-0.5454877936475441 l 12.435127644335667 -5.05725815707639" fill="#ff820c" stroke="none" /><path d="M 80.5471966667186 107.91128576633889 l -28.318428481093658 11.51685833292034 a51.57076082630874,51.57076082630874 0 0,0 -0.32647072748831274,-0.8229194997342177 l 28.511957883548096 -11.029037815972556" fill="#9dff22" stroke="none" /><path d="M 80.41425534168474 107.57618678355246 l -29.765711966194278 11.514016828845381 a52.9150464889114,52.9150464889114 0 0,0 -0.32043667990105684,-0.849996363605298 l 29.95897932990977 -11.001352185045938" fill="#8dff24" stroke="none" /><path d="M 80.28708602549918 107.23885506374661 l -42.102522306264305 15.460629371560142 a65.8514597879961,65.8514597879961 0 0,0 -0.3805581886775865,-1.0644889842529568 l 42.36172066498584 -14.735605430926263" fill="#35ff66" stroke="none" /><path d="M 80.16572619554312 106.89939002012753 l -25.749323398353596 8.956951317255536 a48.262696718642594,48.262696718642594 0 0,0 -0.26547833643974716,-0.7848395292751342 l 25.899287156365713 -8.51361011350624" fill="#c5ff1e" stroke="none" /><path d="M 80.05021161711548 106.5578916946017 l -34.56197447182945 11.361207496932577 a57.38141167106834,57.38141167106834 0 0,0 -0.2995727322695202,-0.9384073170641455 l 34.75191191987623 -10.76623114617704" fill="#5bff2a" stroke="none" /><path d="M 79.94057633289273 106.21446072829308 l -35.7938901587689 11.08903866810762 a58.47224774791071,58.47224774791071 0 0,0 -0.2888074625748941,-0.9613461133752654 l 35.97897394134743 -10.47295495114163" fill="#50ff2b" stroke="none" /><path d="M 79.83685265289637 105.86919833188381 l -44.15919659430572 12.854098545575441 a66.99198292391736,66.99198292391736 0 0,0 -0.3119322432959504,-1.1069374874583404 l 44.37334732967624 -12.094153134214107" fill="#37ff73" stroke="none" /><path d="M 79.73907114497094 105.5222062557868 l -38.69286926249585 10.545913577040148 a61.10429434535653,61.10429434535653 0 0,0 -0.2671436661384583,-1.014388013111143 l 38.86820240943904 -9.880145059556202" fill="#34ff2f" stroke="none" /><path d="M 79.64726062577567 105.17358676015961 l -36.459096635965324 9.26775979267403 a58.618573857675194,58.618573857675194 0 0,0 -0.2395335626102115,-0.9773786764783281 l 36.61281772509183 -8.6405252915876" fill="#4eff2b" stroke="none" /><path d="M 79.56144815229197 104.8234425847677 l -39.5959693322838 9.344540948184207 a61.68367280489128,61.68367280489128 0 0,0 -0.2343660528124323,-1.0326600721304178 l 39.7505462466539 -8.663446542114762" fill="#30ff31" stroke="none" /><path d="M 79.48165901384964 104.47187691870673 l -59.08444872198693 12.877180600162019 a81.47143012192032,81.47143012192032 0 0,0 -0.28608998855252576,-1.3690441609655266 l 59.29679642136383 -11.861019987911083" fill="#4aebff" stroke="none" /><path d="M 79.407916724674 104.11899336999214 l -8.923707908728517 1.7849915047615441 a30.100481169277522,30.100481169277522 0 0,0 -0.0970005316579108,-0.5075477701573423 l 8.953034732668586 -1.6315411695708872" fill="#ff4306" stroke="none" /><path d="M 79.34024301695615 103.76489593502545 l -22.36375155523528 4.075420509124475 a43.73205745088818,43.73205745088818 0 0,0 -0.12824984474062107,-0.7397110233939231 l 22.430416217468135 -3.69091645280996" fill="#feff18" stroke="none" /><path d="M 79.2786578344484 103.40968896794605 l -41.62320237290578 6.849082110975534 a63.18294562425382,63.18294562425382 0 0,0 -0.16691883550202766,-1.0717386634162758 l 41.734642700546075 -6.133555265627808" fill="#32ff44" stroke="none" /><path d="M 79.22317932658666 103.0534771498775 l -44.79377604509432 6.5831425202340625 a66.27493940161355,66.27493940161355 0 0,0 -0.15576341306860142,-1.1270264635070009 l 44.90018397471813 -5.813227748526977" fill="#36ff6b" stroke="none" /><path d="M 79.17382384314188 102.69636545807758 l -36.08569572813327 4.672015772804026 a57.3868818060128,57.3868818060128 0 0,0 -0.11810196703425106,-0.9780537076200724 l 36.16057978142718 -4.051868388260555" fill="#5bff2a" stroke="none" /><path d="M 79.13060592940153 102.33845913500099 l -62.6081822117954 7.015377405002945 a84.0,84.0 0 0,0 -0.14827043007333573,-1.4343819108682743 l 62.7193850343504 -5.9395909718517395" fill="#4dd2ff" stroke="none" /><line stroke="#e1ed5e" stroke-width="0.3" x1="15.003131293944662" x2="10.003315487706104" y1="100.72959589197737" y2="100.7725132973878" /><path d="M 14.003168132696942 100.73817937305945 a86.0,86.0 0 0,1 10.791469493833604,-42.45332614584628" fill="none" id="id154" stroke="none" /><text fill="#e1ed5e" style="font-size:6.75px; font-family:Arial;" text-anchor="middle"><textPath startOffset="22.145653131862435" xlink:href="#id154">October</textPath></text><line stroke="#e1ed5e" stroke-width="0.3" x1="26.387840678322718" x2="22.05771365940052" y1="57.49999999999999" y2="54.99999999999999" /><path d="M 25.521815274538284 56.99999999999999 a86.0,86.0 0 0,1 29.574782752854787,-30.34633250058573" fill="none" id="id155" stroke="none" /><text fill="#e1ed5e" style="font-size:6.75px; font-family:Arial;" text-anchor="middle"><textPath startOffset="21.40746469413373" xlink:href="#id155">November</textPath></text><line stroke="#e1ed5e" stroke-width="0.3" x1="56.869717070023135" x2="54.33264160355391" y1="26.7553504044142" y2="22.446841604673864" /><path d="M 56.362301976729285 25.89364864446614 a86.0,86.0 0 0,1 42.16139366436587,-11.88097634709845" fill="none" id="id156" stroke="none" /><text fill="#e1ed5e" style="font-size:6.75px; font-family:Arial;" text-anchor="middle"><textPath startOffset="22.145653131862474" xlink:href="#id156">December</textPath></text></svg>