<?xml version="1.0" encoding="utf-8" ?>
<svg baseProfile="full" height="200mm" version="1.1" viewBox="0,0,200,200" width="200mm" xmlns="http://www.w3.org/2000/svg" xmlns:ev="http://www.w3.org/2001/xml-events" xmlns:xlink="http://www.w3.org/1999/xlink"><defs /><rect fill="#1a1a1a" height="200" width="200" x="0" y="0" /><text alignment-baseline="middle" fill="#e1ed5e" style="dominant-baseline: central; font-size:9.0px; font-family:Arial;" text-anchor="middle" x="100.0" y="100.0">2023</text><line stroke="#e1ed5e" stroke-width="0.3" x1="100.0" x2="100.0" y1="15.0" y2="10.0" /><path d="M 100.0 14.0 a86.0,86.0 0 0,1 42.46469731375804,11.215312516191453" fill="none" id="id133" stroke="none" /><text fill="#e1ed5e" style="font-size:6.75px; font-family:Arial;" text-anchor="middle"><textPath startOffset="22.20632615414155" xlink:href="#id133">January</textPath></text><path d="M 100.0 79.0 l 0.0 -10.482987686325341 a31.48298768632534,31.48298768632534 0 0,0 0.5419278798944759,0.004664544354989504 l -0.1804474006219475 10.48143451857891" fill="#ff0000" stroke="none" /><path d="M 100.72285384407766 79.0124445844662 l 0.5486404459789048 -15.929391338961128 a36.93883668178872,36.93883668178872 0 0,0 0.6352761670714877,0.02735632809301353 l -0.8227574454397241 15.91758728434392" fill="#ff5b08" stroke="none" /><path d="M 101.08401301168833 79.027996857942 l 0.8222305434573739 -15.907393504462814 a36.928629293583924,36.928629293583924 0 0,0 0.6345357587361101,0.0382769298089549 l -1.095928351033096 15.890883305273555" fill="#ff5b08" stroke="none" /><path d="M 101.44485096284872 79.0497635885617 l 1.4586627267515158 -21.15050600772392 a42.20074530136098,42.20074530136098 0 0,0 0.7242648868015039,0.056216894536045774 l -1.8225178029153608 21.12226385099941" fill="#ffaf10" stroke="none" /><path d="M 101.80526077348638 79.07773832637324 l 2.0277594563105965 -23.500933814768683 a44.58825340246274,44.58825340246274 0 0,0 0.7641043822132983,0.07256091814516269 l -2.431988965614139 23.46254735210834" fill="#ffd313" stroke="none" /><path d="M 102.16513564639614 79.11191278185805 l 2.7085594360643497 -26.130753438106886 a47.270755022683076,47.270755022683076 0 0,0 0.8086299597325073,0.09085899786740045 l -3.1579560993065825 26.080258486768884" fill="#fffa17" stroke="none" /><path d="M 102.52436894288641 79.15227682838746 l 2.5321809076966995 -20.912238970798835 a42.0649870382372,42.0649870382372 0 0,0 0.718079918986495,0.09322738251611495 l -2.8917755551910407 20.86555326511858" fill="#ffac10" stroke="none" /><path d="M 102.88285421437855 79.19881850522331 l 4.722939142690994 -34.078280409014 a55.40400194426442,55.40400194426442 0 0,0 0.9435328430314297,0.1390522143818636 l -5.308840966151079 33.991933710471166" fill="#95ff23" stroke="none" /><path d="M 103.2404852339499 79.25152402106235 l 4.836628973374904 -30.968411465581895 a52.343826960466615,52.343826960466615 0 0,0 0.8890244912247132,0.14669665850786132 l -5.368982670738492 30.88056854413441" fill="#bdff1f" stroke="none" /><path d="M 103.59715602781102 79.31037775812273 l 3.583809483248995 -20.612857441271473 a41.922083603370055,41.922083603370055 0 0,0 0.7098903553757369,0.12972792493995713 l -3.938094959727633 20.548114034980777" fill="#ffaa0f" stroke="none" /><path d="M 103.95276090670814 79.375362276772 l 6.040192679119742 -31.516397962225 a53.089987038237204,53.089987038237204 0 0,0 0.896041653681247,0.17973752620623584 l -6.581800742268115 31.407756479941554" fill="#b3ff20" stroke="none" /><path d="M 104.307194497241 79.44645832069477 l 2.1741841309388112 -10.375009575806125 a31.60037265068049,31.60037265068049 0 0,0 0.5314238819546515,0.11614867732252143 l -2.3524507370469907 10.336047400387733" fill="#ff0200" stroke="none" /><path d="M 106.0581310904928 79.89281104454417 l 3.874278876747259 -12.858892664627296 a34.4298606610499,34.4298606610499 0 0,0 0.5659853102726784,0.1758543909770392 l -4.095049559730656 12.790298138767737" fill="#ff3204" stroke="none" /><path d="M 106.40334571778207 80.00007090966166 l 6.387990967843125 -19.951970738015437 a41.94964355152301,41.94964355152301 0 0,0 0.6858111062878787,0.2261011391547351 l -6.730484896373421 19.839055874601467" fill="#ffab0f" stroke="none" /><line stroke="#e1ed5e" stroke-width="0.3" x1="143.23703022742887" x2="145.7803849466894" y1="26.81831364943548" y2="22.513508569990506" /><path d="M 143.74570117128098 25.957352633546492 a86.0,86.0 0 0,1 28.547481713284135,27.462654790039103" fill="none" id="id134" stroke="none" /><text fill="#e1ed5e" style="font-size:6.75px; font-family:Arial;" text-anchor="middle"><textPath startOffset="19.985693538727396" xlink:href="#id134">February</textPath></text><path d="M 110.99172775467656 82.1063720568725 l 5.516878522105805 -8.981024083315027 a31.540149060272196,31.540149060272196 0 0,0 0.4601570287329219,0.2881502891776688 l -5.670654703210991 8.884729452814414" fill="#ff0100" stroke="none" /><path d="M 112.19680574252982 82.90503203632743 l 7.127187231206747 -9.989421817527786 a33.27132209980557,33.27132209980557 0 0,0 0.4633501894852304,0.33664361802036025 l -7.298082737045767 9.865258964690751" fill="#ff1f03" stroke="none" /><path d="M 112.48926042617603 83.11751280151076 l 6.661276149858857 -9.00444906168288 a32.200567077122486,32.200567077122486 0 0,0 0.4427636949847763,0.3334804356084918 l -6.8152859986020164 8.888452036568541" fill="#ff0c01" stroke="none" /><path d="M 112.77801427241765 83.33499621200491 l 13.010718226438993 -16.968494783745363 a42.38243681140635,42.38243681140635 0 0,0 0.5751245106792081,0.4488938030589487 l -13.300875292277631 16.74202259146319" fill="#ffb110" stroke="none" /><path d="M 113.06298171725822 83.55741782278167 l 15.61589301786691 -19.65597210303827 a46.104050550874916,46.104050550874916 0 0,0 0.6171281867743733,0.4990080753162006 l -15.951924603205775 19.384257930457938" fill="#ffe915" stroke="none" /><path d="M 113.34407831869373 83.78471172551755 l 15.677562396685644 -19.050861935313442 a45.67227802981205,45.67227802981205 0 0,0 0.6027489345652429,0.5047848985670033 l -16.003168868210004 18.778175879352617" fill="#ffe315" stroke="none" /><path d="M 113.6212207817346 84.01681056812373 l 15.522497791369146 -18.214154709835018 a44.931221646143875,44.931221646143875 0 0,0 0.5843331079018399,0.506727913058414 l -15.83372469791775 17.944261803356934" fill="#ffd814" stroke="none" /><path d="M 113.89432698308785 84.25364557470407 l 10.692913761660556 -12.118212716252946 a37.16135774465327,37.16135774465327 0 0,0 0.4759998533012567,0.4273573681339291 l -10.899924602557803 11.93235633934972" fill="#ff5f08" stroke="none" /><path d="M 114.16331599549186 84.49514656593476 l 14.092866578599176 -15.427731107359822 a41.895544394037586,41.895544394037586 0 0,0 0.5282671361744836,0.49096673044185496 l -14.356341598568505 15.182859790843327" fill="#ffaa0f" stroke="none" /><path d="M 114.42810811169701 84.74124197986012 l 26.971351743410008 -28.524136812859343 a60.25659429682437,60.25659429682437 0 0,0 0.7475167855795782,0.7191105554707812 l -27.458351772602004 28.05564317062626" fill="#59ff2a" stroke="none" /><path d="M 114.68862486808459 84.99185889309783 l 27.74250955115827 -28.34598212852712 a60.66284834737524,60.66284834737524 0 0,0 0.7399833336417352,0.7368056100411485 l -28.226328684967328 27.86424066783585" fill="#54ff2b" stroke="none" /><path d="M 114.94478906791727 85.2469230424477 l 18.163294192524468 -17.930295021709544 a46.52255346727155,46.52255346727155 0 0,0 0.5576852024521467,0.5747436230402101 l -18.469243658679723 17.61498720311922" fill="#ffef16" stroke="none" /><path d="M 115.19652480421416 85.50635884689758 l 26.013830713941072 -24.81061507436621 a56.94837977965004,56.94837977965004 0 0,0 0.6704524020174294,0.715191876530338 l -26.437050437928963 24.35915378095782" fill="#81ff25" stroke="none" /><path d="M 115.4437574822437 85.77008943001954 l 39.48217118613527 -36.378955427998676 a74.68677900194427,74.68677900194427 0 0,0 0.8630105660345958,0.9529578219707686 l -40.1025253927859 35.69394481875836" fill="#3fffc1" stroke="none" /><path d="M 115.68641384162765 86.03803664274999 l 23.610441883660503 -21.014881269634024 a52.608198314970835,52.608198314970835 0 0,0 0.5962466305463426,0.6816129703663742 l -23.968680377784693 20.605352743064703" fill="#baff1f" stroke="none" /><path d="M 115.9244219780498 86.31012108654704 l 24.035247144964483 -20.662578743707456 a52.695981853532075,52.695981853532075 0 0,0 0.5854006323002143,0.6929297037790422 l -24.387358390751817 20.245790090299305" fill="#b9ff1f" stroke="none" /><path d="M 116.15771136456269 86.58626213691792 l 36.822932033646474 -30.56950000559622 a68.85836033700585,68.85836033700585 0 0,0 0.7492494842929446,0.918491275486905 l -37.343680010015824 29.93112456050121" fill="#37ff76" stroke="none" /><path d="M 116.38621287248628 86.86637796730983 l 39.447179112230785 -31.61708838689465 a71.5541315618924,71.5541315618924 0 0,0 0.7620375971647563,0.9677103622696381 l -39.98557078998951 30.933385630671975" fill="#3bff99" stroke="none" /><path d="M 116.60985879189232 87.15038557335679 l 25.09563434966855 -19.41432670954849 a52.72864549578743,52.72864549578743 0 0,0 0.5491915909201018,0.7226717581361709 l -25.426101880812766 18.979470175531286" fill="#b8ff1f" stroke="none" /><path d="M 116.82858285166822 87.43820079747576 l 12.644340589164962 -9.438445823361297 a36.77858068697343,36.77858068697343 0 0,0 0.37433132149954745,0.5105875018433824 l -12.804934523178135 9.21939587784642" fill="#ff5908" stroke="none" /><path d="M 117.04232023915458 87.72973835380427 l 46.03580225068583 -33.145213256270985 a77.72653920933246,77.72653920933246 0 0,0 0.7724070399669698,1.0925149807388932 l -46.59952191045669 32.3478717752003" fill="#44ffe6" stroke="none" /><path d="M 117.2510076193507 88.02491185347247 l 46.41924161372173 -32.22272705947589 a77.50708036292934,77.50708036292934 0 0,0 0.7513592999685602,1.1025270598358912 l -46.96702537935902 31.418921976369596" fill="#43ffe3" stroke="none" /><path d="M 117.45458315368197 88.32363383020206 l 20.0758814565251 -13.429902106736646 a45.15374270900843,45.15374270900843 0 0,0 0.4266025942690399,0.6497450185934359 l -20.304080686152062 13.082339024165536" fill="#ffdb14" stroke="none" /><path d="M 117.65298651832404 88.62581576622439 l 26.651090145454216 -17.17184845922248 a52.70414776409592,52.70414776409592 0 0,0 0.48480890054279757,0.7668512535494081 l -26.94272664224297 16.710549557958867" fill="#b9ff1f" stroke="none" /><line stroke="#e1ed5e" stroke-width="0.3" x1="172.23445277983987" x2="176.4835382374775" y1="55.19839476539836" y2="52.563006222186495" /><path d="M 173.08426987136738 54.67131705675599 a86.0,86.0 0 0,1 12.851231095245387,41.99856678651699" fill="none" id="id135" stroke="none" /><text fill="#e1ed5e" style="font-size:6.75px; font-family:Arial;" text-anchor="middle"><textPath startOffset="22.20632615414155" xlink:href="#id135">March</textPath></text><path d="M 117.84615892207809 88.93136811851018 l 26.669482634119767 -16.541076824193343 a52.38261503564485,52.38261503564485 0 0,0 0.46866027665010357,0.7703542688902102 l -26.950258709056094 16.079554782096054" fill="#bdff1f" stroke="none" /><path d="M 118.03404312379186 89.2402003453031 l 17.762013082504588 -10.597496131065613 a41.68323071937783,41.68323071937783 0 0,0 0.3623271668877944,0.6193345782880206 l -17.94179992386271 10.290182140423697" fill="#ffa70f" stroke="none" /><path d="M 118.21658344932153 89.55222093294921 l 23.102181405196763 -13.249821952612876 a47.632096565132855,47.632096565132855 0 0,0 0.40179342551115405,0.714745670669125 l -23.32683247200035 12.850192772008956" fill="#ffff18" stroke="none" /><path d="M 118.3937258080291 89.86733742301442 l 46.51240399077637 -25.62256827147269 a74.10291639662994,74.10291639662994 0 0,0 0.6058509795044087,1.1225498522044255 l -46.94656306949924 24.818137435935807" fill="#3effba" stroke="none" /><path d="M 118.56541770881063 90.18545643968196 l 28.514099259381002 -15.073879492170917 a53.253305249513936,53.253305249513936 0 0,0 0.4214379516911463,0.8140839816614451 l -28.769346644232265 14.580822788249126" fill="#b1ff20" stroke="none" /><path d="M 118.73160827565052 90.50648371742162 l 27.92168977589312 -14.151215027762387 a52.30299740764744,52.30299740764744 0 0,0 0.40009299171725776,0.8065630572967097 l -28.161142780563786 13.668492381966727" fill="#beff1f" stroke="none" /><path d="M 118.89224826269711 90.83032412892265 l 28.206138900048817 -13.690332018276647 a52.35301360985093,52.35301360985093 0 0,0 0.38651932323325755,0.8141082694462303 l -28.43761641712383 13.202781333189877" fill="#bdff1f" stroke="none" /><path d="M 119.04729006885535 91.15688171328212 l 40.011344859318946 -18.57613624418762 a65.11326960466623,65.11326960466623 0 0,0 0.46322721970847897,1.020659775532819 l -40.32517439599077 17.884654459812737" fill="#31ff42" stroke="none" /><path d="M 119.196687751892 91.48605970444005 l 23.512832209652952 -10.428197416128405 a46.72159753726507,46.72159753726507 0 0,0 0.3197298865283961,0.7379806604472046 l -23.688852806024027 10.021917611094597" fill="#fff216" stroke="none" /><path d="M 119.34039704204932 91.81776055985345 l 41.93563374832039 -17.74148667460291 a66.5341380427738,66.5341380427738 0 0,0 0.4371556253153719,1.0586070215743344 l -42.23481106052196 17.017005082575274" fill="#33ff56" stroke="none" /><path d="M 119.47837535516314 92.15188598940014 l 58.435126065489385 -23.54434203179955 a84.0,84.0 0 0,0 0.5288258004731983,1.3458039804168624 l -58.83174541584429 22.534989046486903" fill="#4dd2ff" stroke="none" /><path d="M 119.61058180528143 92.48833698450437 l 54.200127610018185 -20.76088807796973 a79.0402300712897,79.0402300712897 0 0,0 0.47572963832318454,1.274718912810674 l -54.549461836842994 19.824846028129727" fill="#46fff5" stroke="none" /><line stroke="#e1ed5e" stroke-width="0.3" x1="184.98032266829074" x2="189.97916517819016" y1="98.17113171792111" y2="98.06355123074" /><path d="M 185.9800911702706 98.14961562048488 a86.0,86.0 0 0,1 -9.607161424134198,41.387399972396054" fill="none" id="id136" stroke="none" /><text fill="#e1ed5e" style="font-size:6.75px; font-family:Arial;" text-anchor="middle"><textPath startOffset="21.466115282336823" xlink:href="#id136">April</textPath></text><line stroke="#e1ed5e" stroke-width="0.3" x1="174.80103733775053" x2="179.2010983576182" y1="140.37084112569926" y2="142.7455964860345" /><path d="M 175.68104954172406 140.8457921977663 a86.0,86.0 0 0,1 -30.038265399797805,32.042727171017184" fill="none" id="id137" stroke="none" /><text fill="#e1ed5e" style="font-size:6.75px; font-family:Arial;" text-anchor="middle"><textPath startOffset="22.206326154141568" xlink:href="#id137">May</textPath></text><line stroke="#e1ed5e" stroke-width="0.3" x1="143.8653032363475" x2="146.44561519142675" y1="172.8068346515853" y2="177.08958963109032" /><path d="M 144.38136562736335 173.6633856474863 a86.0,86.0 0 0,1 -40.68145358897372,12.25698825130547" fill="none" id="id138" stroke="none" /><text fill="#e1ed5e" style="font-size:6.75px; font-family:Arial;" text-anchor="middle"><textPath startOffset="21.466115282336833" xlink:href="#id138">June</textPath></text><line stroke="#e1ed5e" stroke-width="0.3" x1="102.19456741930631" x2="102.32365962044197" y1="184.97166512339345" y2="189.96999836594603" /><path d="M 102.22038585953345 185.97133177190398 a86.0,86.0 0 0,1 -42.740103519485714,-10.115201625700543" fill="none" id="id139" stroke="none" /><text fill="#e1ed5e" style="font-size:6.75px; font-family:Arial;" text-anchor="middle"><textPath startOffset="22.20632615414155" xlink:href="#id139">July</textPath></text><line stroke="#e1ed5e" stroke-width="0.3" x1="58.666819895761336" x2="56.23545636021788" y1="174.27360380694188" y2="178.64263932499728" /><path d="M 58.180547188652646 175.14741091055294 a86.0,86.0 0 0,1 -31.652253787137756,-30.449443065178592" fill="none" id="id140" stroke="none" /><text fill="#e1ed5e" style="font-size:6.75px; font-family:Arial;" text-anchor="middle"><textPath startOffset="22.20632615414155" xlink:href="#id140">August</textPath></text><line stroke="#e1ed5e" stroke-width="0.3" x1="26.63291911575756" x2="22.317208475507996" y1="142.92168965132927" y2="145.44649492493687" /><path d="M 25.769776987707644 143.4266507060508 a86.0,86.0 0 0,1 -11.730757126820373,-40.83630448921669" fill="none" id="id141" stroke="none" /><text fill="#e1ed5e" style="font-size:6.75px; font-family:Arial;" text-anchor="middle"><textPath startOffset="21.46611528233685" xlink:href="#id141">September</textPath></text><line stroke="#e1ed5e" stroke-width="0.3" x1="15.007084014347285" x2="10.007500721073583" y1="101.09737516637583" y2="101.16192664675087" /><path d="M 14.007167355692545 101.11028546245083 a86.0,86.0 0 0,1 10.666146001902534,-42.60595125391555" fill="none" id="id142" stroke="none" /><text fill="#e1ed5e" style="font-size:6.75px; font-family:Arial;" text-anchor="middle"><textPath startOffset="22.20632615414155" xlink:href="#id142">October</textPath></text><line stroke="#e1ed5e" stroke-width="0.3" x1="26.266209847984243" x2="21.928928074336255" y1="57.711370442889674" y2="55.22380399835377" /><path d="M 25.398753493254645 57.213857153982495 a86.0,86.0 0 0,1 29.58750427330803,-30.492523968695096" fill="none" id="id143" stroke="none" /><text fill="#e1ed5e" style="font-size:6.75px; font-family:Arial;" text-anchor="middle"><textPath startOffset="21.46611528233685" xlink:href="#id143">November</textPath></text><line stroke="#e1ed5e" stroke-width="0.3" x1="56.762969772571076" x2="54.21961505331055" y1="26.818313649435495" y2="22.513508569990535" /><path d="M 56.25429882871897 25.957352633546506 a86.0,86.0 0 0,1 42.265352541879196,-11.944610805530505" fill="none" id="id144" stroke="none" /><text fill="#e1ed5e" style="font-size:6.75px; font-family:Arial;" text-anchor="middle"><textPath startOffset="22.20632615414155" xlink:href="#id144">December</textPath></text></svg>