<?xml version="1.0" encoding="utf-8" ?>
<svg baseProfile="full" height="200mm" version="1.1" viewBox="0,0,200,200" width="200mm" xmlns="http://www.w3.org/2000/svg" xmlns:ev="http://www.w3.org/2001/xml-events" xmlns:xlink="http://www.w3.org/1999/xlink"><defs /><rect fill="#1a1a1a" height="200" width="200" x="0" y="0" /><text alignment-baseline="middle" fill="#e1ed5e" style="dominant-baseline: central; font-size:9.0px; font-family:Arial;" text-anchor="middle" x="100.0" y="100.0">2023</text><line stroke="#e1ed5e" stroke-width="0.3" x1="100.0" x2="100.0" y1="15.0" y2="10.0" /><path d="M 100.0 14.0 a86.0,86.0 0 0,1 42.46469731375804,11.215312516191453" fill="none" id="id133" stroke="none" /><text fill="#e1ed5e" style="font-size:6.75px; font-family:Arial;" text-anchor="middle"><textPath startOffset="22.20632615414155" xlink:href="#id133">January</textPath></text><path d="M 100.0 79.0 l 0.0 -8.373474485239875 a29.373474485239875,29.373474485239875 0 0,0 0.5056160778487568,0.004351997210736958 l -0.14413559857622846 8.372233864637696" fill="#ff0000" stroke="none" /><path d="M 100.72285384407766 79.0124445844662 l 0.43823639914866264 -12.723887114375506 a33.73143175141389,33.73143175141389 0 0,0 0.5801150387455578,0.024980973872783276 l -0.657192270283552 12.714458413978528" fill="#ff4706" stroke="none" /><path d="M 101.08401301168833 79.027996857942 l 0.6567713978722272 -12.70631594941626 a33.723278416958934,33.723278416958934 0 0,0 0.5794589852565142,0.034954548424521455 l -0.8753924319683531 12.693128131611433" fill="#ff4706" stroke="none" /><path d="M 101.44485096284872 79.0497635885617 l 1.1651330222353538 -16.894346125829507 a37.93447566294374,37.93447566294374 0 0,0 0.6510455804914491,0.05053366717566307 l -1.455768792089144 16.87178719646538" fill="#ff880c" stroke="none" /><path d="M 101.80526077348638 79.07773832637324 l 1.6197092448910946 -18.77179250472405 a39.841540591957965,39.841540591957965 0 0,0 0.6827604455742738,0.0648363312098375 l -1.9425948175556127 18.741130628999034" fill="#ffa50f" stroke="none" /><path d="M 102.16513564639614 79.11191278185805 l 2.1635104426599505 -20.872408109331783 a41.98423688672042,41.98423688672042 0 0,0 0.718196943687865,0.0806977948189 l -2.522474089857541 20.83207436104228" fill="#ffc412" stroke="none" /><path d="M 102.52436894288641 79.15227682838746 l 2.0226249287947344 -16.70402605543885 a37.82603631469283,37.82603631469283 0 0,0 0.6457179475116539,0.08383272181619349 l -2.3098576048142343 16.666735010458517" fill="#ff860c" stroke="none" /><path d="M 102.88285421437855 79.19881850522331 l 3.772532372450636 -27.22063786051773 a48.480813780429415,48.480813780429415 0 0,0 0.8256306124734974,0.12167649040921606 l -4.2405319653527895 27.151666885947545" fill="#e0ff1b" stroke="none" /><path d="M 103.2404852339499 79.25152402106235 l 3.863344164369917 -24.736574249125976 a46.03644411083358,46.03644411083358 0 0,0 0.7818978603597294,0.1290198465187459 l -4.288571230868522 24.666408139667602" fill="#fffd17" stroke="none" /><path d="M 103.59715602781102 79.31037775812273 l 2.8626321203345197 -16.464889687653205 a37.71188963232344,37.71188963232344 0 0,0 0.638596759318245,0.11669947595764824 l -3.1456240007556655 16.413174730344817" fill="#ff850c" stroke="none" /><path d="M 103.95276090670814 79.375362276772 l 4.824712266954023 -25.174288294510433 a46.63245285949087,46.63245285949087 0 0,0 0.7870527477306841,0.15787537698694643 l -5.2573314241518325 25.08750896144628" fill="#f9ff18" stroke="none" /><path d="M 104.307194497241 79.44645832069477 l 1.7366685806926896 -8.287225032273668 a29.46723783147187,29.46723783147187 0 0,0 0.495550925680129,0.10830823852325425 l -1.8790622305263465 8.256103295654544" fill="#ff0200" stroke="none" /><path d="M 106.0581310904928 79.89281104454417 l 3.0946497595781093 -10.271271211751117 a31.727342142385695,31.727342142385695 0 0,0 0.521559171074438,0.16205097327278145 l -3.2709943033632656 10.216480103595815" fill="#ff2703" stroke="none" /><path d="M 106.40334571778207 80.00007090966166 l 5.1025223897718055 -15.936994576742453 a37.73390363535182,37.73390363535182 0 0,0 0.6168903477078843,0.20337904864982573 l -5.376095559722107 15.84680180383339" fill="#ff850c" stroke="none" /><line stroke="#e1ed5e" stroke-width="0.3" x1="143.23703022742887" x2="145.7803849466894" y1="26.81831364943548" y2="22.513508569990506" /><path d="M 143.74570117128098 25.957352633546492 a86.0,86.0 0 0,1 28.547481713284135,27.462654790039103" fill="none" id="id134" stroke="none" /><text fill="#e1ed5e" style="font-size:6.75px; font-family:Arial;" text-anchor="middle"><textPath startOffset="19.985693538727396" xlink:href="#id134">February</textPath></text><path d="M 110.99172775467656 82.1063720568725 l 4.406705695484222 -7.173754111250354 a29.41913315818763,29.41913315818763 0 0,0 0.42921233111803725,0.2687727223701 l -4.529537178974523 7.096837047557309" fill="#ff0100" stroke="none" /><path d="M 112.19680574252982 82.90503203632743 l 5.692968666736731 -7.979229892684195 a30.80193868174818,30.80193868174818 0 0,0 0.4289605348981268,0.311658071439415 l -5.829474517988647 7.880052586428105" fill="#ff1802" stroke="none" /><path d="M 112.48926042617603 83.11751280151076 l 5.320813831799154 -7.192465232979172 a29.94665389742329,29.94665389742329 0 0,0 0.4117719759498803,0.31013811535712504 l -5.443831961507417 7.099810528116199" fill="#ff0901" stroke="none" /><path d="M 112.77801427241765 83.33499621200491 l 10.392544603085517 -13.553889633006303 a38.07960501624196,38.07960501624196 0 0,0 0.5167356067626958,0.4033203374026635 l -10.624312765007643 13.372990906380414" fill="#ff8a0c" stroke="none" /><path d="M 113.06298171725822 83.55741782278167 l 12.473474706062532 -15.700560356669843 a41.05231075851894,41.05231075851894 0 0,0 0.5495078588235263,0.4443304727918823 l -12.741885963450551 15.483523786613832" fill="#ffb610" stroke="none" /><path d="M 113.34407831869373 83.78471172551755 l 12.52273422877788 -15.217217754177558 a40.707424711074296,40.707424711074296 0 0,0 0.5372264737370677,0.4499117219485039 l -12.782818239474064 14.999404874835234" fill="#ffb110" stroke="none" /><path d="M 113.6212207817346 84.01681056812373 l 12.398873593333729 -14.548882846821074 a40.11549262964449,40.11549262964449 0 0,0 0.5217042765474256,0.4524168076626182 l -12.647471668527919 14.333301045738784" fill="#ffa90f" stroke="none" /><path d="M 113.89432698308785 84.25364557470407 l 8.541156704107593 -9.679639814765713 a33.909174442531935,33.909174442531935 0 0,0 0.43434263546342666,0.38995710665172706 l -8.70651032716701 9.53118369934469" fill="#ff4a06" stroke="none" /><path d="M 114.16331599549186 84.49514656593476 l 11.256930013733077 -12.323177004312834 a37.690690962740554,37.690690962740554 0 0,0 0.4752475152980245,0.44169077112421157 l -11.46738541282595 12.127581647113981" fill="#ff840c" stroke="none" /><path d="M 114.42810811169701 84.74124197986012 l 21.543851086506436 -22.78416601858027 a52.356908980315524,52.356908980315524 0 0,0 0.649516766763412,0.6248346150149424 l -21.932851096882267 22.409948316803025" fill="#adff20" stroke="none" /><path d="M 114.68862486808459 84.99185889309783 l 22.159827220456958 -22.641861768273095 a52.68141169162277,52.68141169162277 0 0,0 0.642623412954305,0.6398637837940311 l -22.546286433578583 22.257062133828946" fill="#a9ff21" stroke="none" /><path d="M 114.94478906791727 85.2469230424477 l 14.508257096152532 -14.322144828325886 a41.38659747117214,41.38659747117214 0 0,0 0.49611836129659825,0.5112935813512928 l -14.752639721152239 14.07028705142448" fill="#ffbb11" stroke="none" /><path d="M 115.19652480421416 85.50635884689758 l 20.77901398574387 -19.817923907257537 a49.71441328346427,49.71441328346427 0 0,0 0.5852870253684792,0.6243433907054005 l -21.117068333082813 19.457311099674083" fill="#cfff1d" stroke="none" /><path d="M 115.4437574822437 85.77008943001954 l 31.537092567630857 -29.05834330735584 a63.88327789928692,63.88327789928692 0 0,0 0.7381754114550015,0.8151117263427975 l -32.032611619701896 28.511178793743493" fill="#31ff3c" stroke="none" /><path d="M 115.68641384162765 86.03803664274999 l 18.85926403938871 -16.786013433094926 a46.24761547321694,46.24761547321694 0 0,0 0.5241575606070779,0.5992027015700084 l -19.145413463573632 16.45889517532197" fill="#feff18" stroke="none" /><path d="M 115.9244219780498 86.31012108654704 l 19.198584863104326 -16.504605470002513 a46.317734149529564,46.317734149529564 0 0,0 0.5145445611624072,0.6090584647071854 l -19.47984003775385 16.171688055666223" fill="#fdff18" stroke="none" /><path d="M 116.15771136456269 86.58626213691792 l 29.412977586310937 -24.417936563762936 a59.227723925507,59.227723925507 0 0,0 0.644458296564786,0.7900296699816927 l -29.82893437495213 23.90802272417314" fill="#59ff2a" stroke="none" /><path d="M 116.38621287248628 86.86637796730983 l 31.509142020821862 -25.254716577659064 a61.38101955506089,61.38101955506089 0 0,0 0.6536959310700697,0.8301274485978372 l -31.9391920324859 24.708596735108188" fill="#41ff2d" stroke="none" /><path d="M 116.60985879189232 87.15038557335679 l 20.045588166813893 -15.507541763363479 a46.343824819785425,46.343824819785425 0 0,0 0.4826909290536171,0.635164682239841 l -20.309555036091623 15.160192305242605" fill="#fdff18" stroke="none" /><path d="M 116.82858285166822 87.43820079747576 l 10.099893892288778 -7.539127932519631 a33.603424400471084,33.603424400471084 0 0,0 0.3420146734263119,0.4665076301896687 l -10.228171178228717 7.364157858658469" fill="#ff4506" stroke="none" /><path d="M 117.04232023915458 87.72973835380427 l 36.77192295632569 -26.47533373250651 a66.31134089997282,66.31134089997282 0 0,0 0.6589685718908075,0.9320643124350704 l -37.22220414802038 25.83844291973965" fill="#34ff5d" stroke="none" /><path d="M 117.2510076193507 88.02491185347247 l 37.078202026671825 -25.738481332887083 a66.13604420919125,66.13604420919125 0 0,0 0.6411276446877324,0.9407757075831144 l -37.51575413702829 25.096427602033565" fill="#34ff5a" stroke="none" /><path d="M 117.45458315368197 88.32363383020206 l 16.035970486181125 -10.727375247871539 a40.293235320762534,40.293235320762534 0 0,0 0.3806815933311518,0.5798041837062472 l -16.2182487148702 10.449753000187616" fill="#ffab0f" stroke="none" /><path d="M 117.65298651832404 88.62581576622439 l 21.288036389463223 -13.71632202957475 a46.32425681709353,46.32425681709353 0 0,0 0.426122287689411,0.6740231256359117 l -21.52098627339859 13.347851256224631" fill="#fdff18" stroke="none" /><line stroke="#e1ed5e" stroke-width="0.3" x1="172.23445277983987" x2="176.4835382374775" y1="55.19839476539836" y2="52.563006222186495" /><path d="M 173.08426987136738 54.67131705675599 a86.0,86.0 0 0,1 12.851231095245387,41.99856678651699" fill="none" id="id135" stroke="none" /><text fill="#e1ed5e" style="font-size:6.75px; font-family:Arial;" text-anchor="middle"><textPath startOffset="22.20632615414155" xlink:href="#id135">March</textPath></text><path d="M 117.84615892207809 88.93136811851018 l 21.302727719756593 -13.212481869691768 a46.067426781762414,46.067426781762414 0 0,0 0.4121591288523457,0.6774812378872105 l -21.527002646895163 12.843832858597477" fill="#fffe18" stroke="none" /><path d="M 118.03404312379186 89.2402003453031 l 14.187726610311808 -8.46494015982308 a37.521101606077465,37.521101606077465 0 0,0 0.3261482905431098,0.5574931510598806 l -14.331334575325245 8.219467596409304" fill="#ff820b" stroke="none" /><path d="M 118.21658344932153 89.55222093294921 l 18.45328186373247 -10.58353299402434 a42.27286492642586,42.27286492642586 0 0,0 0.35658642868540275,0.6343274676483749 l -18.632725933710304 10.26432201644117" fill="#ffc812" stroke="none" /><path d="M 118.3937258080291 89.86733742301442 l 37.15261714673048 -20.46648609035052 a63.41690716846342,63.41690716846342 0 0,0 0.5184842539733165,0.9606725785013491 l -37.499409499922265 19.823932528516714" fill="#30ff36" stroke="none" /><path d="M 118.56541770881063 90.18545643968196 l 22.77614834266 -12.04053167838058 a46.76290621077017,46.76290621077017 0 0,0 0.37007399477372427,0.7148651657161124 l -22.98003177059384 11.646693790404122" fill="#f7ff19" stroke="none" /><path d="M 118.73160827565052 90.50648371742162 l 22.30295063955951 -11.303536884306704 a46.00383077301376,46.00383077301376 0 0,0 0.35190737045097786,0.7094237851503548 l -22.494218022963892 10.9179535106574" fill="#fffd17" stroke="none" /><path d="M 118.89224826269711 90.83032412892265 l 22.530159480658654 -10.935398311975499 a46.04378211184304,46.04378211184304 0 0,0 0.3399386257607992,0.715997441010322 l -22.71505630026121 10.545958455324637" fill="#fffd17" stroke="none" /><path d="M 119.04729006885535 91.15688171328212 l 31.959779532764312 -14.838022091540724 a56.23626551398362,56.23626551398362 0 0,0 0.4000746557344374,0.8815114720055957 l -32.2104565054621 14.285688610693065" fill="#7dff26" stroke="none" /><path d="M 119.196687751892 91.48605970444005 l 18.78129656110187 -8.329709773951327 a41.54558749304378,41.54558749304378 0 0,0 0.28430889941876775,0.656224138575941 l -18.921896170363315 8.005186490788784" fill="#ffbe11" stroke="none" /><path d="M 119.34039704204932 91.81776055985345 l 33.49683980569614 -14.171330773744863 a57.371209670113494,57.371209670113494 0 0,0 0.37695155864669233,0.9128180987923944 l -33.73581305122903 13.592638104499166" fill="#6fff27" stroke="none" /><path d="M 119.47837535516314 92.15188598940014 l 46.67610530435239 -18.806465596845673 a71.32238025598882,71.32238025598882 0 0,0 0.4490132717919895,1.1426898004918429 l -46.992912126026084 18.000226791458047" fill="#3bff9d" stroke="none" /><path d="M 119.61058180528143 92.48833698450437 l 43.29332430975323 -16.583131814470125 a67.36067504432567,67.36067504432567 0 0,0 0.4054323924302784,1.0863572434094617 l -43.57236129068514 15.835451434031329" fill="#36ff6a" stroke="none" /><path d="M 119.7369772167798 92.82701384747503 l 16.531305290514595 -6.007952617547315 a38.58918841967672,38.58918841967672 0 0,0 0.22151465609722867,0.6262517622712582 l -16.632273027421633 5.722503228849442" fill="#ff920d" stroke="none" /><path d="M 119.85752413597 93.16781622104841 l 21.127836186133706 -7.269247600398187 a43.343397740361596,43.343397740361596 0 0,0 0.2366605372398289,0.7075848836253406 l -21.249834017145304 6.904489613850533" fill="#ffd714" stroke="none" /><path d="M 119.97218684219823 93.5106431181261 l 59.91656052659467 -19.46807064562169 a84.0,84.0 0 0,0 0.4349780649271753,1.3789993342943234 l -60.24279407529006 18.433821144900946" fill="#4dd2ff" stroke="none" /><path d="M 120.08093135843002 93.85539295169968 l 20.01518085520514 -6.12448791147675 a41.9312402127632,41.9312402127632 0 0,0 0.20525162955546222,0.6920064588102813 l -20.117638381872304 5.779052065919939" fill="#ffc312" stroke="none" /><path d="M 120.18372546131832 94.20196356495316 l 46.370404174607735 -13.320498905292947 a69.2457259703115,69.2457259703115 0 0,0 0.31923344550773886,1.148452554381344 l -46.59282439068184 12.520335047492651" fill="#38ff83" stroke="none" /><path d="M 120.28053869075195 94.5502522615342 l 39.50622375329425 -10.616037218627566 a61.907724960851056,61.907724960851056 0 0,0 0.2676880243814142,1.0315111547590685 l -39.68310810954597 9.934429638319648" fill="#3bff2e" stroke="none" /><path d="M 120.37134235888165 94.90015583598534 l 54.164164183085056 -13.559675731796105 a76.8356650144301,76.8356650144301 0 0,0 0.3101497220652841,1.285770829587687 l -54.38954670541116 12.625319670549013" fill="#43ffde" stroke="none" /><path d="M 120.45610955862082 95.25157060432595 l 21.011796495989568 -4.877419719109323 a42.57046163403176,42.57046163403176 0 0,0 0.1595492513577481,0.715228009372482 l -21.092640134349356 4.515013540186877" fill="#ffcc13" stroke="none" /><path d="M 120.53481517161879 95.60439243477599 l 24.43480627598802 -5.230425422575122 a45.98833943754934,45.98833943754934 0 0,0 0.1590335995073785,0.7755043108312596 l -24.521219171410397 4.809045455580451" fill="#fffd17" stroke="none" /><path d="M 120.6074358757038 95.95851677861258 l 24.977271603141798 -4.898485416089485 a46.45307950148184,46.45307950148184 0 0,0 0.14713299786661044,0.7859903579167116 l -25.057890324918265 4.46781698071021" fill="#fbff18" stroke="none" /><path d="M 120.67395015179393 96.31383870115 l 16.86258440469867 -3.0065955260029504 a38.1285250229717,38.1285250229717 0 0,0 0.10964336424365984,0.6471213423210623 l -16.911839630462552 2.71588839536605" fill="#ff8b0c" stroke="none" /><path d="M 120.73433829027371 96.67025291283417 l 25.470801880609052 -4.090380275579865 a46.79715021548098,46.79715021548098 0 0,0 0.12087950490598288,0.7964449059301889 l -25.537437278954336 3.6513362572575945" fill="#f6ff19" stroke="none" /><path d="M 120.78858239683441 97.02765380044208 l 49.82221644612179 -7.1235677777495825 a71.32890292355279,71.32890292355279 0 0,0 0.16332281120855346,1.2169446475313859 l -49.937455256388176 6.264904788153533" fill="#3bff9d" stroke="none" /><path d="M 120.83666639777658 97.38593545837742 l 36.3787501291029 -4.563897072863012 a57.663914377046424,57.663914377046424 0 0,0 0.11507972837968046,0.9859328347513365 l -36.451920210486165 3.9370204997868234" fill="#6cff28" stroke="none" /><path d="M 120.87857604477298 97.74499172005257 l 25.08460840850147 -2.709284365902491 a46.23049347086153,46.23049347086153 0 0,0 0.07864219561467306,0.7919161775751309 l -25.127527729798373 2.277092657622925" fill="#feff18" stroke="none" /><line stroke="#e1ed5e" stroke-width="0.3" x1="184.98032266829074" x2="189.97916517819016" y1="98.17113171792111" y2="98.06355123074" /><path d="M 185.9800911702706 98.14961562048488 a86.0,86.0 0 0,1 -9.607161424134198,41.387399972396054" fill="none" id="id136" stroke="none" /><text fill="#e1ed5e" style="font-size:6.75px; font-family:Arial;" text-anchor="middle"><textPath startOffset="21.466115282336823" xlink:href="#id136">April</textPath></text><line stroke="#e1ed5e" stroke-width="0.3" x1="174.80103733775053" x2="179.2010983576182" y1="140.37084112569926" y2="142.7455964860345" /><path d="M 175.68104954172406 140.8457921977663 a86.0,86.0 0 0,1 -30.038265399797805,32.042727171017184" fill="none" id="id137" stroke="none" /><text fill="#e1ed5e" style="font-size:6.75px; font-family:Arial;" text-anchor="middle"><textPath startOffset="22.206326154141568" xlink:href="#id137">May</textPath></text><line stroke="#e1ed5e" stroke-width="0.3" x1="143.8653032363475" x2="146.44561519142675" y1="172.8068346515853" y2="177.08958963109032" /><path d="M 144.38136562736335 173.6633856474863 a86.0,86.0 0 0,1 -40.68145358897372,12.25698825130547" fill="none" id="id138" stroke="none" /><text fill="#e1ed5e" style="font-size:6.75px; font-family:Arial;" text-anchor="middle"><textPath startOffset="21.466115282336833" xlink:href="#id138">June</textPath></text><line stroke="#e1ed5e" stroke-width="0.3" x1="102.19456741930631" x2="102.32365962044197" y1="184.97166512339345" y2="189.96999836594603" /><path d="M 102.22038585953345 185.97133177190398 a86.0,86.0 0 0,1 -42.740103519485714,-10.115201625700543" fill="none" id="id139" stroke="none" /><text fill="#e1ed5e" style="font-size:6.75px; font-family:Arial;" text-anchor="middle"><textPath startOffset="22.20632615414155" xlink:href="#id139">July</textPath></text><line stroke="#e1ed5e" stroke-width="0.3" x1="58.666819895761336" x2="56.23545636021788" y1="174.27360380694188" y2="178.64263932499728" /><path d="M 58.180547188652646 175.14741091055294 a86.0,86.0 0 0,1 -31.652253787137756,-30.449443065178592" fill="none" id="id140" stroke="none" /><text fill="#e1ed5e" style="font-size:6.75px; font-family:Arial;" text-anchor="middle"><textPath startOffset="22.20632615414155" xlink:href="#id140">August</textPath></text><line stroke="#e1ed5e" stroke-width="0.3" x1="26.63291911575756" x2="22.317208475507996" y1="142.92168965132927" y2="145.44649492493687" /><path d="M 25.769776987707644 143.4266507060508 a86.0,86.0 0 0,1 -11.730757126820373,-40.83630448921669" fill="none" id="id141" stroke="none" /><text fill="#e1ed5e" style="font-size:6.75px; font-family:Arial;" text-anchor="middle"><textPath startOffset="21.46611528233685" xlink:href="#id141">September</textPath></text><line stroke="#e1ed5e" stroke-width="0.3" x1="15.007084014347285" x2="10.007500721073583" y1="101.09737516637583" y2="101.16192664675087" /><path d="M 14.007167355692545 101.11028546245083 a86.0,86.0 0 0,1 10.666146001902534,-42.60595125391555" fill="none" id="id142" stroke="none" /><text fill="#e1ed5e" style="font-size:6.75px; font-family:Arial;" text-anchor="middle"><textPath startOffset="22.20632615414155" xlink:href="#id142">October</textPath></text><line stroke="#e1ed5e" stroke-width="0.3" x1="26.266209847984243" x2="21.928928074336255" y1="57.711370442889674" y2="55.22380399835377" /><path d="M 25.398753493254645 57.213857153982495 a86.0,86.0 0 0,1 29.58750427330803,-30.492523968695096" fill="none" id="id143" stroke="none" /><text fill="#e1ed5e" style="font-size:6.75px; font-family:Arial;" text-anchor="middle"><textPath startOffset="21.46611528233685" xlink:href="#id143">November</textPath></text><line stroke="#e1ed5e" stroke-width="0.3" x1="56.762969772571076" x2="54.21961505331055" y1="26.818313649435495" y2="22.513508569990535" /><path d="M 56.25429882871897 25.957352633546506 a86.0,86.0 0 0,1 42.265352541879196,-11.944610805530505" fill="none" id="id144" stroke="none" /><text fill="#e1ed5e" style="font-size:6.75px; font-family:Arial;" text-anchor="middle"><textPath startOffset="22.20632615414155" xlink:href="#id144">December</textPath></text></svg>