<?xml version="1.0" encoding="utf-8" ?>
<svg baseProfile="full" height="200mm" version="1.1" viewBox="0,0,200,200" width="200mm" xmlns="http://www.w3.org/2000/svg" xmlns:ev="http://www.w3.org/2001/xml-events" xmlns:xlink="http://www.w3.org/1999/xlink"><defs /><rect fill="#1a1a1a" height="200" width="200" x="0" y="0" /><text alignment-baseline="middle" fill="#e1ed5e" style="dominant-baseline: central; font-size:9.0px; font-family:Arial;" text-anchor="middle" x="100.0" y="100.0">2024</text><line stroke="#e1ed5e" stroke-width="0.3" x1="100.0" x2="100.0" y1="15.0" y2="10.0" /><path d="M 100.0 14.0 a86.0,86.0 0 0,1 42.35913384403234,11.155469271406648" fill="none" id="id145" stroke="none" /><text fill="#e1ed5e" style="font-size:6.75px; font-family:Arial;" text-anchor="middle"><textPath startOffset="22.145653131862478" xlink:href="#id145">January</textPath></text><path d="M 100.0 79.0 l 0.0 -22.637940234791884 a43.637940234791884,43.637940234791884 0 0,0 0.7491032718866498,0.006430150641495169 l -0.38861034703779507 22.634604482344823" fill="#ffce13" stroke="none" /><path d="M 100.36049292484886 79.00309439819443 l 0.6102314198782175 -35.54292091532962 a56.54815901814301,56.54815901814301 0 0,0 0.9704382678071085,0.02499504739719045 l -1.2202830017560675 35.52720815058238" fill="#81ff25" stroke="none" /><path d="M 100.72087961077811 79.0123766808444 l 1.0640090733256466 -30.977463234143233 a51.9957310565635,51.9957310565635 0 0,0 0.8917868040619635,0.03829716248887114 l -1.5956216379884465 30.95463350322853" fill="#bbff1f" stroke="none" /><path d="M 101.08105385017728 79.02784411241856 l 2.2728666860717563 -44.093006508575705 a65.15154749199573,65.15154749199573 0 0,0 1.1164358253478461,0.06716200689820821 l -3.029446863552065 44.0474925238528" fill="#32ff47" stroke="none" /><path d="M 101.44090949804482 79.04949213459386 l 1.876360447382798 -27.28186910043371 a48.34631803628602,48.34631803628602 0 0,0 0.8274840805094544,0.0640525012065138 l -2.344413522667486 27.245638832232142" fill="#edff1a" stroke="none" /><path d="M 101.80034050326958 79.07731436759882 l 2.4539326354597653 -28.518416933669563 a49.623799359658484,49.623799359658484 0 0,0 0.848095393175045,0.08031551549513244 l -2.9431275920198234 28.472089662669248" fill="#dbff1b" stroke="none" /><path d="M 102.15924093988457 79.11130261209362 l 2.6582437486972728 -25.716096904312867 a46.85312166488794,46.85312166488794 0 0,0 0.7993233995456789,0.08956585414815685 l -3.099303049843748 25.66667528965774" fill="#fffc17" stroke="none" /><path d="M 102.51750503828377 79.15144685158666 l 3.70718513619562 -30.70081098851422 a51.923826040554964,51.923826040554964 0 0,0 0.8839961610372781,0.11445100126597849 l -4.23365911912369 30.632648391047844" fill="#bcff1f" stroke="none" /><path d="M 102.87502721639298 79.19773525538626 l 4.708611365161573 -34.069166246181254 a55.393009605122735,55.393009605122735 0 0,0 0.9408236119514194,0.13826867191643957 l -5.292760082720675 33.983316500965934" fill="#8fff24" stroke="none" /><path d="M 103.23170211078529 79.25015418208739 l 5.674304422107679 -36.43310486127178 a57.87233191035219,57.87233191035219 0 0,0 0.9803090672043784,0.1613094839571302 l -6.298890992365128 36.33032937881898" fill="#71ff27" stroke="none" /><path d="M 103.58742460773223 79.30868818359171 l 3.9162080529712937 -22.58764735774667 a43.92462646744931,43.92462646744931 0 0,0 0.7418352071308738,0.13518708657018585 l -4.303377993653221 22.51709209724512" fill="#ffd213" stroke="none" /><path d="M 103.94208987418118 79.37332000966035 l 5.7041802074820085 -29.84668120267042 a51.386872998932766,51.386872998932766 0 0,0 0.8650209620331956,0.1730284187315985 l -6.215697655046161 29.744363387275964" fill="#c3ff1e" stroke="none" /><path d="M 104.29559338865022 79.4440306129975 l 10.143965088236829 -48.542545103911806 a70.5911152614728,70.5911152614728 0 0,0 1.1840401832314922,0.2580560470160885 l -10.975767688087455 48.361257598762" fill="#3aff90" stroke="none" /><path d="M 104.64783097203109 79.52079915486377 l 6.619149533540886 -29.165194159833376 a50.906883671291354,50.906883671291354 0 0,0 0.8505518396933436,0.2007279182350389 l -7.1188335269741145 29.047270097952108" fill="#caff1d" stroke="none" /><path d="M 104.9986988182912 79.60360301121754 l 3.7857007992848355 -15.446951134647547 a36.90408217716115,36.90408217716115 0 0,0 0.6140043319559604,0.15607750013794275 l -4.05031042446619 15.379688402674336" fill="#ff6709" stroke="none" /><path d="M 105.3480935250658 79.69241777938227 l 8.999104366261562 -34.17106506706576 a56.33617929562433,56.33617929562433 0 0,0 0.9330843313950486,0.2543162837634382 l -9.584370098591304 34.01154828915818" fill="#84ff25" stroke="none" /><path d="M 105.69591212413111 79.78721728523813 l 7.985370932830021 -28.33726434757637 a50.44090181430096,50.44090181430096 0 0,0 0.8314101490220399,0.2420113772789755 l -8.470641094233665 28.19600927599488" fill="#d0ff1d" stroke="none" /><path d="M 106.04205211174951 79.88797359093562 l 6.681239321543711 -22.23967274609588 a44.2215848452508,44.2215848452508 0 0,0 0.725148427177337,0.22465283637567798 l -7.062028381592679 22.121703321913554" fill="#ffd614" stroke="none" /><path d="M 106.38641147887787 79.99465700312896 l 13.28145258060662 -41.60396104298594 a64.67249199573106,64.67249199573106 0 0,0 1.0547075241998223,0.3467033123578352 l -13.993682842454184 41.36983680922608" fill="#31ff40" stroke="none" /><path d="M 106.72888874123014 80.10723608172694 l 9.940431024208744 -29.387118024232883 a52.02281216648879,52.02281216648879 0 0,0 0.8434984411750299,0.29341254358041596 l -10.443435237428792 29.212147048083875" fill="#bbff1f" stroke="none" /><path d="M 107.06938296918511 80.22567764915836 l 4.718894866170301 -13.19958879440074 a35.01774279615795,35.01774279615795 0 0,0 0.5643040022288321,0.20722024604330921 l -4.944788020053258 13.11663769934871" fill="#ff4906" stroke="none" /><path d="M 107.40779381753099 80.34994680014964 l 4.8209294966011225 -12.788088250614111 a34.66662219850587,34.66662219850587 0 0,0 0.5550419023235876,0.21470213147685904 l -5.039743661418236 12.703446230999212" fill="#ff4306" stroke="none" /><path d="M 107.74402155503746 80.48000691201159 l 10.925930091525647 -27.540481176436156 a50.628601921024554,50.628601921024554 0 0,0 0.8051045594138707,0.3274290153547233 l -11.397089112129956 27.34886490450214" fill="#ceff1d" stroke="none" /><path d="M 108.07796709384702 80.6158196554323 l 11.81197936441532 -28.344450474493936 a51.707177161152615,51.707177161152615 0 0,0 0.8163945861231822,0.3484703029931197 l -12.296809025708932 28.137505521841415" fill="#bfff1e" stroke="none" /><path d="M 108.4095320186766 80.7573450057729 l 5.164338188274802 -11.817016429663651 a33.8962113127001,33.8962113127001 0 0,0 0.5311804208087105,0.2375902458855465 l -5.366432011939144 11.726622432868252" fill="#ff3605" stroke="none" /><path d="M 108.73861861582097 80.90454125486305 l 11.47934598585766 -25.084442671206453 a48.586312700106724,48.586312700106724 0 0,0 0.7554275927596702,0.3535782571867978 l -11.908262292488837 24.883688182449124" fill="#eaff1a" stroke="none" /><path d="M 109.06512990194946 81.05736502329252 l 4.463230090465333 -9.326434296607315 a31.33938100320171,31.33938100320171 0 0,0 0.4832827301122834,0.23639780090436047 l -4.622673069839684 9.248442745605734" fill="#ff0c01" stroke="none" /><path d="M 109.3889696526874 81.21577127319529 l 13.66803181785962 -27.345219487255676 a51.57083778014941,51.57083778014941 0 0,0 0.7884758173633764,0.4026013704583665 l -14.135434856936573 27.106560165124478" fill="#c1ff1e" stroke="none" /><path d="M 109.71004243097381 81.37971332152246 l 9.40045062987953 -18.02660357867016 a41.330442902881536,41.330442902881536 0 0,0 0.6262766276281867,0.33345702904067215 l -9.708516073294277 17.862576081906912" fill="#ffab0f" stroke="none" /><line stroke="#e1ed5e" stroke-width="0.3" x1="143.13028292997686" x2="145.6673583964461" y1="26.7553504044142" y2="22.446841604673864" /><path d="M 143.63769802327073 25.89364864446614 a86.0,86.0 0 0,1 29.32050498858742,28.57503671076993" fill="none" id="id146" stroke="none" /><text fill="#e1ed5e" style="font-size:6.75px; font-family:Arial;" text-anchor="middle"><textPath startOffset="20.669276256404974" xlink:href="#id146">February</textPath></text><path d="M 110.65571695917076 81.90426304109057 l 7.171096605304617 -12.178089787270338 a35.132604055496266,35.132604055496266 0 0,0 0.517063670971016,0.31048187797214416 l -7.379093032833067 12.053193908762273" fill="#ff4a06" stroke="none" /><path d="M 110.96478420261332 82.08984904055464 l 10.389435333924078 -16.970361821587588 a40.89807897545358,40.89807897545358 0 0,0 0.5956237911564278,0.37171329782673784 l -10.67922325387022 16.789512726919305" fill="#ffa50f" stroke="none" /><path d="M 111.27062007382361 82.28071324371311 l 6.725384683859791 -10.573421779732028 a33.53108324439701,33.53108324439701 0 0,0 0.48303021178173416,0.3130943474714627 l -6.905900527898533 10.456413590556672" fill="#ff3004" stroke="none" /><path d="M 111.5731344415666 82.4767994020092 l 5.800462392871626 -8.78263936054581 a31.525213447171822,31.525213447171822 0 0,0 0.44901468383730625,0.3021171181743919 l -5.950373364805933 8.6817725683143" fill="#ff0f01" stroke="none" /><path d="M 111.8722381534696 82.67804972795209 l 14.15978742058912 -20.659553017013387 a46.04629135538954,46.04629135538954 0 0,0 0.6481671313283988,0.45247099686343867 l -14.51234964309128 20.413437204344824" fill="#fff116" stroke="none" /><path d="M 112.16784306229584 82.88440491214696 l 8.629710467829794 -12.138768501252587 a35.89367662753469,35.89367662753469 0 0,0 0.49912548489220016,0.36132835960214904 l -8.836816963095961 11.988839370277363" fill="#ff5708" stroke="none" /><path d="M 112.45986205192187 83.09580414077388 l 15.004692468342947 -20.356747067934116 a46.28908751334045,46.28908751334045 0 0,0 0.635586668119985,0.4769560849141785 l -15.351932125373699 20.09617195575592" fill="#fff417" stroke="none" /><path d="M 114.13192950727249 84.46653392183569 l 11.721306882321528 -12.883769534414826 a38.417822838847385,38.417822838847385 0 0,0 0.4840101035282588,0.4479925259744795 l -11.940746757163751 12.680659262307971" fill="#ff7f0b" stroke="none" /><path d="M 117.81537515405839 88.88188828441811 l 13.085047644058266 -8.166037495831826 a36.424092849519745,36.424092849519745 0 0,0 0.3264848161871679,0.5332884109552537 l -13.223300424700836 7.940211968752018" fill="#ff5f08" stroke="none" /><line stroke="#e1ed5e" stroke-width="0.3" x1="172.87174338648825" x2="177.1583165268699" y1="56.24261187166439" y2="53.66864786411523" /><path d="M 173.72905801456457 55.72781907015455 a86.0,86.0 0 0,1 12.242430191666344,42.057860355516425" fill="none" id="id147" stroke="none" /><text fill="#e1ed5e" style="font-size:6.75px; font-family:Arial;" text-anchor="middle"><textPath startOffset="22.145653131862474" xlink:href="#id147">March</textPath></text><path d="M 118.00360718960297 89.18935116829356 l 11.728603936663273 -7.042689673803783 a34.680629669156886,34.680629669156886 0 0,0 0.3020951864639224,0.5130236709317815 l -11.847772833256963 6.840314834578445" fill="#ff4306" stroke="none" /><path d="M 118.18653347947321 89.5 l 9.371467002851988 -5.410618996798292 a31.821237993596583,31.821237993596583 0 0,0 0.26906619768461365,0.47541418988360246 l -9.462966565557979 5.248948036815572" fill="#ff1402" stroke="none" /><path d="M 118.36410011445183 89.81374322990088 l 17.185720691419377 -9.532629568069016 a40.65248132337247,40.65248132337247 0 0,0 0.33326255759495504,0.6131655698305806 l -17.346828598629674 9.236209164763833" fill="#ffa10e" stroke="none" /><path d="M 118.53625476483649 90.13048839642627 l 8.724107098498287 -4.645095642663835 a30.88367129135539,30.88367129135539 0 0,0 0.24514565736662366,0.470099121667024 l -8.802560824839855 4.494650277892312" fill="#ff0400" stroke="none" /><path d="M 118.70294669586156 90.45014215332178 l 17.774785520453257 -9.07593213710454 a40.95784418356456,40.95784418356456 0 0,0 0.31436137524605184,0.6289333328289711 l -17.927966808911048 8.769466948111818" fill="#ffa60f" stroke="none" /><path d="M 118.8641267826498 90.77261029715802 l 9.924470115863125 -4.854555655208261 a32.04815901814301,32.04815901814301 0 0,0 0.23749325178200734,0.4962695545014102 l -10.006342625605043 4.683473598641748" fill="#ff1802" stroke="none" /><path d="M 119.0197475246899 91.09779779509293 l 18.404870414655676 -8.614408670445698 a41.32110458911419,41.32110458911419 0 0,0 0.2951813151293503,0.6450244453033812 l -18.55003619464008 8.297195242927632" fill="#ffab0f" stroke="none" /><path d="M 119.16976305983485 91.42560881287824 l 11.762023777107848 -5.261003628597744 a33.8850053361793,33.8850053361793 0 0,0 0.2329450799151643,0.5330239299232271 l -11.850602739039982 5.058317628898667" fill="#ff3605" stroke="none" /><path d="M 119.4528033332814 92.08871423366111 l 8.937493954085 -3.6348009844278466 a30.64834578441836,30.64834578441836 0 0,0 0.19402055707985577,0.489058547449786 l -8.99857318613098 3.4808414197644955" fill="#ff0000" stroke="none" /><path d="M 119.58574465831526 92.42381321644754 l 18.613773338558957 -7.2002073967486195 a40.95784418356456,40.95784418356456 0 0,0 0.2480276684408855,0.6579228579991212 l -18.734631690814282 6.87961625855534" fill="#ffa60f" stroke="none" /><path d="M 119.83427380445688 93.10060997987247 l 24.768146432619982 -8.615647035984578 a47.223852721451436,47.223852721451436 0 0,0 0.2597639732784375,0.7679460299644986 l -24.912395827470785 8.189199331545918" fill="#fdff18" stroke="none" /><path d="M 119.94978838288452 93.4421083053983 l 21.872199954643268 -7.189826562184481 a44.023612593383135,44.023612593383135 0 0,0 0.22983529900892763,0.719955800635314 l -21.992399969429453 6.81330172785778" fill="#ffd413" stroke="none" /><path d="M 120.05942366710727 93.78553927170692 l 11.767338892586222 -3.6455516687852296 a33.31910352187833,33.31910352187833 0 0,0 0.1645704776890153,0.5478015965796419 l -11.828185690278865 3.443012468614864" fill="#ff2d04" stroke="none" /><path d="M 120.16314734710363 94.1308016681162 l 9.434215420945595 -2.746162613308491 a30.825773745997868,30.825773745997868 0 0,0 0.14353288761197291,0.5093475823533234 l -9.479966800632148 2.5838071070521544" fill="#ff0300" stroke="none" /><path d="M 120.26092885502905 94.47779374421319 l 18.352682354008447 -5.002105186338375 a40.022145144076845,40.022145144076845 0 0,0 0.17497399642791134,0.6644047644784151 l -18.43584583124109 4.686319917487162" fill="#ff980e" stroke="none" /><path d="M 120.35273937422433 94.82641323984039 l 10.454219695467145 -2.6574217656796364 a31.786686232657416,31.786686232657416 0 0,0 0.12989019854642314,0.5299963352083358 l -10.498297420529859 2.4775696058632057" fill="#ff1302" stroke="none" /><path d="M 120.43855184770803 95.1765574152323 l 22.39897324291909 -5.286096696086807 a44.0142742796158,44.0142742796158 0 0,0 0.1672314773302432,0.7368527453954054 l -22.486415581807 4.900809616752376" fill="#ffd313" stroke="none" /><path d="M 120.51834098615036 95.52812308129327 l 18.924355673859157 -4.124475238833882 a40.36859658484525,40.36859658484525 0 0,0 0.14175584395114937,0.6783530294994331 l -18.992369228634676 3.799005758049044" fill="#ff9d0e" stroke="none" /><path d="M 120.592083275326 95.88100663000786 l 24.323528461512122 -4.865386912446689 a45.805362860192105,45.805362860192105 0 0,0 0.14761041610049455,0.7723600712624906 l -24.403465169894773 4.447124276150883" fill="#ffed16" stroke="none" /><path d="M 120.65975698304385 96.23510406497455 l 9.52693347181451 -1.7361246374161303 a30.68383137673426,30.68383137673426 0 0,0 0.0899842550177946,0.5190052705574159 l -9.55533254432454 1.572326333938122" fill="#ff0100" stroke="none" /><path d="M 120.7213421655516 96.59031103205396 l 18.76420365791947 -3.087642571293723 a40.01654215581644,40.01654215581644 0 0,0 0.10571704993290021,0.6787792968638332 l -18.814442199990633 2.765075092498449" fill="#ff970e" stroke="none" /><path d="M 120.77682067341334 96.94652285012252 l 24.061310067489497 -3.5361839832025685 a45.31977054429029,45.31977054429029 0 0,0 0.10651329451525171,0.7706771395740682 l -24.11846787855996 3.1226185354284146" fill="#ffe615" stroke="none" /><path d="M 120.82617615685814 97.30363454192243 l 10.62886978620868 -1.3761199912111475 a31.717582710779084,31.717582710779084 0 0,0 0.06527465493554446,0.5405677811853558 l -10.650926527403888 1.1934585331023788" fill="#ff1202" stroke="none" /><path d="M 120.86939407059847 97.66154086499901 l 19.127493827334803 -2.1432755794870717 a40.2471985058698,40.2471985058698 0 0,0 0.07104130275847893,0.6872601607136224 l -19.161467522574945 1.814610896490518" fill="#ff9b0e" stroke="none" /><path d="M 120.9064616781168 98.02013634271609 l 21.403836144400714 -2.0269655363592847 a42.499599786552835,42.499599786552835 0 0,0 0.0625480317237246,0.7269029399184564 l -21.43547779882218 1.6592415490651662" fill="#ffbd11" stroke="none" /><path d="M 120.93736805541906 98.37931529534042 l 19.1106553141912 -1.4792855855497367 a40.167822838847385,40.167822838847385 0 0,0 0.04731394407887973,0.6879343629235801 l -19.133233219435144 1.1510077984718223" fill="#ff9a0e" stroke="none" /><path d="M 120.96210409425399 98.7389718711861 l 19.36440548088014 -1.1649145476689877 a40.399413020277485,40.399413020277485 0 0,0 0.03570232821637109,0.6926156294439648 l -19.381549398553084 0.8323271248482923" fill="#ff9d0e" stroke="none" /><path d="M 120.98066250479742 99.09900007780936 l 19.059674240061664 -0.818504420599103 a40.07724119530417,40.07724119530417 0 0,0 0.023617543052128636,0.6875989969628987 l -19.07091647011064 0.49119915907208433" fill="#ff980e" stroke="none" /><path d="M 120.99303781780057 99.45929381324524 l 32.623785690976376 -0.8402729948647573 a53.634605122732125,53.634605122732125 0 0,0 0.015805782022884057,0.9206075632033384 l -32.63340290459792 0.28011851569235247" fill="#a6ff21" stroke="none" /><line stroke="#e1ed5e" stroke-width="0.3" x1="184.99686870605535" x2="189.99668451229388" y1="99.2704041080226" y2="99.22748670261217" /><path d="M 185.99683186730306 99.26182062694052 a86.0,86.0 0 0,1 -10.086455211305974,41.156179273409016" fill="none" id="id148" stroke="none" /><text fill="#e1ed5e" style="font-size:6.75px; font-family:Arial;" text-anchor="middle"><textPath startOffset="21.40746469413373" xlink:href="#id148">April</textPath></text><path d="M 120.99922638620191 99.81974689727618 l 24.088226781326238 -0.20676845597046742 a45.08911419423693,45.08911419423693 0 0,0 0.0,0.7740431173885857 l -24.088226781326238 -0.20676845597046448" fill="#ffe315" stroke="none" /><path d="M 120.99922638620191 100.18025310272382 l 28.722661170988285 0.24654950136437886 a49.72371931696905,49.72371931696905 0 0,0 -0.014653268483889446,0.8534794274899892 l -28.714196470905726 -0.7395758448234391" fill="#daff1c" stroke="none" /><path d="M 120.99303781780057 100.54070618675476 l 19.471397314286932 0.5015141250147045 a40.47785485592316,40.47785485592316 0 0,0 -0.023853624930394963,0.6944722632605861 l -19.45991900235969 -0.8356926528394012" fill="#ff9f0e" stroke="none" /><path d="M 120.98066250479742 100.90099992219065 l 29.320494509883872 1.259148192577613 a50.34751867662753,50.34751867662753 0 0,0 -0.0444938057830347,0.8631679455751319 l -29.29455911464426 -1.7622879315294755" fill="#d1ff1c" stroke="none" /><path d="M 120.96210409425399 101.26102812881392 l 18.97663265523047 1.1415870974027769 a40.01093916755603,40.01093916755603 0 0,0 -0.04712914976527831,0.6852474941605745 l -18.95423954430013 -1.467178015717695" fill="#ff970e" stroke="none" /><path d="M 120.93736805541906 101.62068470465957 l 20.094771199755858 1.5554623790762854 a41.1548826040555,41.1548826040555 0 0,0 -0.06056896807576776,0.7039032204334492 l -20.06510860898235 -1.9001866468853919" fill="#ffa90f" stroke="none" /><path d="M 120.9064616781168 101.97986365728391 l 38.0607675694638 3.604394260459062 a59.23105656350054,59.23105656350054 0 0,0 -0.10455016940914642,1.011428048765485 l -37.993285007572986 -4.257226831507478" fill="#60ff29" stroke="none" /><path d="M 120.86939407059847 102.33845913500097 l 28.522804462817675 3.196039732935572 a49.70130736392743,49.70130736392743 0 0,0 -0.10228508640172186,0.8470672462248944 l -28.46373729015629 -3.6852006560838753" fill="#daff1b" stroke="none" /><path d="M 120.82617615685814 102.69636545807757 l 19.684292698951424 2.548525783148293 a40.84858591248666,40.84858591248666 0 0,0 -0.09600484313080043,0.6946432201353469 l -19.637643339265413 -2.8860573114837247" fill="#ffa40f" stroke="none" /><path d="M 120.77682067341334 103.0534771498775 l 28.163457158825103 4.139058340435586 a49.465981856990396,49.465981856990396 0 0,0 -0.13068089825435036,0.8390651109440205 l -28.088254768432485 -4.621911633311057" fill="#ddff1b" stroke="none" /><path d="M 120.7213421655516 103.40968896794604 l 28.213570605079365 4.642532306543032 a49.592982924226256,49.592982924226256 0 0,0 -0.1454377573568086,0.8388463358540703 l -28.129718030230322 -5.126171675317691" fill="#dcff1b" stroke="none" /><path d="M 120.65975698304385 103.76489593502545 l 33.33416143599977 6.074594632980407 a54.88313767342583,54.88313767342583 0 0,0 -0.176864067502354,0.9254275368135023 l -33.224971076215255 -6.645924734827224" fill="#96ff23" stroke="none" /><path d="M 120.592083275326 104.11899336999214 l 53.40407722786767 10.68231111398574 a75.46197972251869,75.46197972251869 0 0,0 -0.26498757764113895,1.268061485595757 l -53.212831939402164 -11.597489050866907" fill="#41ffcc" stroke="none" /><path d="M 120.51834098615036 104.47187691870673 l 13.282906798131318 2.8949477135597883 a34.594717182497334,34.594717182497334 0 0,0 -0.1314420323165589,0.5791578470693338 l -13.231253904257095 -3.122539894568139" fill="#ff4206" stroke="none" /><path d="M 120.43855184770803 104.8234425847677 l 28.527448656877436 6.732400206807579 a50.3110992529349,50.3110992529349 0 0,0 -0.20558666050373728,0.838863731475188 l -28.4076744698574 -7.221119762890867" fill="#d2ff1c" stroke="none" /><path d="M 120.35273937422433 105.17358676015961 l 28.07552152827343 7.136687784014195 a49.96838313767343,49.96838313767343 0 0,0 -0.21845824758180754,0.8295215488934398 l -27.948873799886893 -7.6175898372804385" fill="#d7ff1c" stroke="none" /><path d="M 120.26092885502905 105.52220625578681 l 32.040161505805024 8.732688494676733 a54.20891141942369,54.20891141942369 0 0,0 -0.2524109095993707,0.8957172722087494 l -31.885532104131073 -9.281413690788492" fill="#9fff22" stroke="none" /><path d="M 120.16314734710363 105.8691983318838 l 32.81442843335552 9.551801874345571 a55.176360725720386,55.176360725720386 0 0,0 -0.2725283420609008,0.9071582156811862 l -32.64562377129099 -10.113697693617482" fill="#92ff23" stroke="none" /><path d="M 120.05942366710727 106.21446072829308 l 28.838543541336623 8.934254506657554 a51.190768409818574,51.190768409818574 0 0,0 -0.26725306877100874,0.8371664314792663 l -28.680925756788362 -9.427989971828204" fill="#c6ff1e" stroke="none" /><path d="M 119.94978838288452 106.5578916946017 l 59.84936514865356 19.67367508380507 a84.0,84.0 0 0,0 -0.46205831371054007,1.3659933021033581 l -59.50282141337066 -20.698170060382587" fill="#4dd2ff" stroke="none" /><path d="M 119.83427380445688 106.89939002012753 l 29.46476276171697 10.249373995126305 a52.196504802561364,52.196504802561364 0 0,0 -0.30164566414949273,0.8437566085507112 l -29.28447692752353 -10.753665560057938" fill="#b9ff1f" stroke="none" /><path d="M 119.71291397450082 107.23885506374661 l 23.344655463132852 8.572480843233542 a45.86886339381003,45.86886339381003 0 0,0 -0.2777672377142694,0.7368105987701489 l -23.194057541604142 -8.97195972219785" fill="#ffee16" stroke="none" /><path d="M 119.58574465831526 107.57618678355244 l 22.4215319496473 8.673130227489075 a45.04055496264675,45.04055496264675 0 0,0 -0.2851310027140647,0.7187163881961658 l -22.26934227196711 -9.056747632898805" fill="#ffe215" stroke="none" /><path d="M 119.4528033332814 107.91128576633889 l 35.69720896275896 14.517744117729759 a59.53641942369264,59.53641942369264 0 0,0 -0.3931506039477217,0.9434183280225602 l -35.44273251427475 -15.128394955193597" fill="#5dff2a" stroke="none" /><path d="M 119.31412917781788 108.2440532568976 l 24.723253402377512 10.552886741953687 a47.88127001067236,47.88127001067236 0 0,0 -0.3291634797875357,0.7531904586585441 l -24.538456040573013 -10.975739270388077" fill="#f3ff19" stroke="none" /><path d="M 119.16976305983485 108.57439118712176 l 31.82514826022208 14.234984017253819 a55.863660618996796,55.863660618996796 0 0,0 -0.39906747347211113,0.872034449748883 l -31.576096321894912 -14.77920744921739" fill="#8aff24" stroke="none" /><path d="M 119.0197475246899 108.90220220490707 l 52.70689373192927 24.669487593623224 a79.19450373532551,79.19450373532551 0 0,0 -0.5868717827041847,1.226336310470777 l -52.275642691265176 -25.570636406159103" fill="#46fff8" stroke="none" /><path d="M 118.8641267826498 109.22738970284198 l 51.11802551943767 25.00438783848203 a77.90581643543223,77.90581643543223 0 0,0 -0.5979460121130389,1.1962925723800846 l -50.6812595941129 -25.878212267025862" fill="#44ffe9" stroke="none" /><path d="M 118.70294669586154 109.54985784667822 l 39.15076986663938 19.99066205418582 a64.95917822838847,64.95917822838847 0 0,0 -0.515627183651929,0.9887831126451694 l -38.8018346140125 -20.65979140993549" fill="#32ff44" stroke="none" /><path d="M 118.5362547648365 109.86951160357373 l 47.825977141824225 25.464639019145967 a75.18276414087514,75.18276414087514 0 0,0 -0.6163363083630853,1.1339893879829104 l -47.3817954838458 -26.28188324060348" fill="#40ffc9" stroke="none" /><line stroke="#e1ed5e" stroke-width="0.3" x1="174.33088141563837" x2="178.70328620479359" y1="141.23008692659167" y2="143.65538615756765" /><path d="M 175.20536237346943 141.71514677278685 a86.0,86.0 0 0,1 -30.301960400862466,31.631185727798858" fill="none" id="id149" stroke="none" /><text fill="#e1ed5e" style="font-size:6.75px; font-family:Arial;" text-anchor="middle"><textPath startOffset="22.145653131862474" xlink:href="#id149">May</textPath></text><path d="M 118.36410011445183 110.18625677009912 l 26.63317151959855 14.772971286909138 a51.455976520811106,51.455976520811106 0 0,0 -0.43508879049235205,0.7687602033972849 l -26.375649364084822 -15.227988260405546" fill="#c3ff1e" stroke="none" /><line stroke="#e1ed5e" stroke-width="0.3" x1="143.1302829299769" x2="145.66735839644613" y1="173.24464959558577" y2="177.55315839532614" /><path d="M 143.63769802327073 174.10635135553383 a86.0,86.0 0 0,1 -40.68552437913181,11.842963189579606" fill="none" id="id150" stroke="none" /><text fill="#e1ed5e" style="font-size:6.75px; font-family:Arial;" text-anchor="middle"><textPath startOffset="21.407464694133747" xlink:href="#id150">June</textPath></text><line stroke="#e1ed5e" stroke-width="0.3" x1="101.45913802915013" x2="101.54496967792366" y1="184.9874750549273" y2="189.98673829345242" /><path d="M 101.47630435890484 185.9873277026323 a86.0,86.0 0 0,1 -42.54439059252881,-10.42667462771756" fill="none" id="id151" stroke="none" /><text fill="#e1ed5e" style="font-size:6.75px; font-family:Arial;" text-anchor="middle"><textPath startOffset="22.145653131862474" xlink:href="#id151">July</textPath></text><line stroke="#e1ed5e" stroke-width="0.3" x1="58.13341422392154" x2="55.67067388415222" y1="173.97424548756322" y2="178.32567169271397" /><path d="M 57.64086615596768 174.84453072859336 a86.0,86.0 0 0,1 -31.369924170532247,-30.572349798747897" fill="none" id="id152" stroke="none" /><text fill="#e1ed5e" style="font-size:6.75px; font-family:Arial;" text-anchor="middle"><textPath startOffset="22.145653131862474" xlink:href="#id152">August</textPath></text><line stroke="#e1ed5e" stroke-width="0.3" x1="26.387840678322732" x2="22.057713659400548" y1="142.50000000000003" y2="145.00000000000006" /><path d="M 25.521815274538298 143.00000000000003 a86.0,86.0 0 0,1 -11.493303480769221,-40.785679425670985" fill="none" id="id153" stroke="none" /><text fill="#e1ed5e" style="font-size:6.75px; font-family:Arial;" text-anchor="middle"><textPath startOffset="21.40746469413373" xlink:href="#id153">September</textPath></text><line stroke="#e1ed5e" stroke-width="0.3" x1="15.003131293944662" x2="10.003315487706104" y1="100.72959589197737" y2="100.7725132973878" /><path d="M 14.003168132696942 100.73817937305945 a86.0,86.0 0 0,1 10.791469493833604,-42.45332614584628" fill="none" id="id154" stroke="none" /><text fill="#e1ed5e" style="font-size:6.75px; font-family:Arial;" text-anchor="middle"><textPath startOffset="22.145653131862435" xlink:href="#id154">October</textPath></text><line stroke="#e1ed5e" stroke-width="0.3" x1="26.387840678322718" x2="22.05771365940052" y1="57.49999999999999" y2="54.99999999999999" /><path d="M 25.521815274538284 56.99999999999999 a86.0,86.0 0 0,1 29.574782752854787,-30.34633250058573" fill="none" id="id155" stroke="none" /><text fill="#e1ed5e" style="font-size:6.75px; font-family:Arial;" text-anchor="middle"><textPath startOffset="21.40746469413373" xlink:href="#id155">November</textPath></text><line stroke="#e1ed5e" stroke-width="0.3" x1="56.869717070023135" x2="54.33264160355391" y1="26.7553504044142" y2="22.446841604673864" /><path d="M 56.362301976729285 25.89364864446614 a86.0,86.0 0 0,1 42.16139366436587,-11.88097634709845" fill="none" id="id156" stroke="none" /><text fill="#e1ed5e" style="font-size:6.75px; font-family:Arial;" text-anchor="middle"><textPath startOffset="22.145653131862474" xlink:href="#id156">December</textPath></text></svg>