<?xml version="1.0" encoding="utf-8" ?>
<svg baseProfile="full" height="200mm" version="1.1" viewBox="0,0,200,200" width="200mm" xmlns="http://www.w3.org/2000/svg" xmlns:ev="http://www.w3.org/2001/xml-events" xmlns:xlink="http://www.w3.org/1999/xlink"><defs /><rect fill="#1a1a1a" height="200" width="200" x="0" y="0" /><text alignment-baseline="middle" fill="#e1ed5e" style="dominant-baseline: central; font-size:9.0px; font-family:Arial;" text-anchor="middle" x="100.0" y="100.0">2024</text><line stroke="#e1ed5e" stroke-width="0.3" x1="100.0" x2="100.0" y1="15.0" y2="10.0" /><path d="M 100.0 14.0 a86.0,86.0 0 0,1 42.35913384403234,11.155469271406648" fill="none" id="id145" stroke="none" /><text fill="#e1ed5e" style="font-size:6.75px; font-family:Arial;" text-anchor="middle"><textPath startOffset="22.145653131862478" xlink:href="#id145">January</textPath></text><path d="M 100.0 79.0 l 0.0 -10.04555619869501 a31.04555619869501,31.04555619869501 0 0,0 0.532938255125098,0.004574633954593781 l -0.17244533027624323 10.044075962934851" fill="#ff5708" stroke="none" /><path d="M 100.36049292484886 79.00309439819443 l 0.27078938980388384 -15.772124399019926 a36.77444880025258,36.77444880025258 0 0,0 0.6310962728570585,0.016254801336201868 l -0.5414989767316837 15.76515188033368" fill="#ffa80f" stroke="none" /><path d="M 100.72087961077811 79.0123766808444 l 0.47215262657099416 -13.746208558910217 a34.75431488107766,34.75431488107766 0 0,0 0.5960766156252945,0.025598094634771182 l -0.708055002797125 13.736077895849615" fill="#ff8c0c" stroke="none" /><path d="M 101.08105385017728 79.02784411241856 l 1.0085816019597518 -19.566213633278203 a40.59219111765944,40.59219111765944 0 0,0 0.6955871063337259,0.04184479302187821 l -1.3443130604259401 19.54601686243163" fill="#ffdb14" stroke="none" /><path d="M 101.44090949804482 79.04949213459386 l 0.832632480150449 -12.106293523676985 a33.13489265417807,33.13489265417807 0 0,0 0.5671289416526645,0.04389936685802035 l -1.040330416578347 12.090216389823912" fill="#ff750a" stroke="none" /><path d="M 101.80034050326958 79.07731436759882 l 1.0889293788061567 -12.655009997981237 a33.70177331088192,33.70177331088192 0 0,0 0.5759800550464209,0.054545910057101396 l -1.3060089972375906 12.63445233241895" fill="#ff7d0b" stroke="none" /><path d="M 102.15924093988457 79.11130261209362 l 1.1795921665314724 -11.411484171441298 a32.472288728688696,32.472288728688696 0 0,0 0.5539835830639176,0.06207501598148904 l -1.3753116511961865 11.389553394952838" fill="#ff6b09" stroke="none" /><path d="M 102.51750503828377 79.15144685158666 l 1.6450585273383325 -13.623444488851845 a34.72240712481583,34.72240712481583 0 0,0 0.5911443154504213,0.0765354667565565 l -1.8786806646795455 13.593197425894893" fill="#ff8b0c" stroke="none" /><path d="M 102.87502721639298 79.19773525538626 l 2.089440099053228 -15.118147703328061 a36.26185276783835,36.26185276783835 0 0,0 0.6158901193542156,0.09051463820400173 l -2.3486553240151253 15.080051991825176" fill="#ffa10e" stroke="none" /><path d="M 103.23170211078529 79.25015418208739 l 2.5179651226917525 -16.167142353983632 a37.36204877920438,37.36204877920438 0 0,0 0.6328819658472171,0.10414048664032671 l -2.79512459159204 16.121535868847637" fill="#ffb010" stroke="none" /><path d="M 103.58742460773223 79.30868818359171 l 1.7378121716852728 -10.023238800667105 a31.172772837297412,31.172772837297412 0 0,0 0.5264714182996458,0.09594063009986886 l -1.9096183235359723 9.991929996635871" fill="#ff5808" stroke="none" /><path d="M 103.94208987418118 79.37332000966035 l 2.531222463149641 -13.244425520002086 a34.48413491896443,34.48413491896443 0 0,0 0.5804887089180274,0.11611399931806389 l -2.7582076575986254 13.199022124021162" fill="#ff880c" stroke="none" /><path d="M 104.29559338865022 79.4440306129975 l 4.501371163391978 -21.540690531534842 a43.00599215954536,43.00599215954536 0 0,0 0.721348892817844,0.15721463379052478 l -4.870482472828956 21.460244439610598" fill="#fffb17" stroke="none" /><path d="M 104.64783097203109 79.52079915486377 l 2.9372388979346606 -12.942016541247886 a34.27114028625552,34.27114028625552 0 0,0 0.5726019610055589,0.13513250368300422 l -3.1589730126801046 12.889687893918655" fill="#ff850c" stroke="none" /><path d="M 104.9986988182912 79.60360301121754 l 1.6798997495458332 -6.854564245342178 a28.057415544095978,28.057415544095978 0 0,0 0.46681487985155595,0.11866251699287816 l -1.7973199226227834 6.824716496514032" fill="#ff2a04" stroke="none" /><path d="M 105.3480935250658 79.69241777938227 l 3.993340724094072 -15.163365171046387 a36.680383077246894,36.680383077246894 0 0,0 0.6075294978622294,0.1655848662060276 l -4.253051622890994 15.092579810696217" fill="#ffa70f" stroke="none" /><path d="M 105.69591212413111 79.78721728523813 l 3.543497846587852 -12.574623776210874 a34.064361450221,34.064361450221 0 0,0 0.5614779833622879,0.16343805788895516 l -3.7588358423317443 12.511942024019403" fill="#ff820c" stroke="none" /><path d="M 106.04205211174951 79.88797359093562 l 2.96479115968102 -9.868825524512024 a31.304547726794357,31.304547726794357 0 0,0 0.5133340115923216,0.15903218898400495 l -3.133765804144972 9.816476747721373" fill="#ff5a08" stroke="none" /><path d="M 106.38641147887787 79.99465700312896 l 5.8936271107269835 -18.461702982293215 a40.37961087139549,40.37961087139549 0 0,0 0.6585285040992851,0.21647139933555323 l -6.209678352474011 18.357810661555643" fill="#ffd914" stroke="none" /><path d="M 106.72888874123014 80.10723608172694 l 4.411053190231127 -13.040494964131545 a34.766332087981475,34.766332087981475 0 0,0 0.5637016858630362,0.19608470792102073 l -4.634260648139181 12.962851823641934" fill="#ff8c0c" stroke="none" /><path d="M 107.06938296918511 80.22567764915836 l 2.094003389097777 -5.857300163290962 a27.220354925278887,27.220354925278887 0 0,0 0.43865063821616446,0.1610785902974125 l -2.194243178968066 5.820490723984827" fill="#ff1e03" stroke="none" /><path d="M 107.40779381753099 80.34994680014964 l 2.1392811221236196 -5.674697338319764 a27.06454562197432,27.06454562197432 0 0,0 0.43332623529129405,0.1676198967184356 l -2.2363796199084396 5.63713755346329" fill="#ff1b02" stroke="none" /><path d="M 107.74402155503746 80.48000691201159 l 4.848367104916636 -12.221052292195644 a34.147653125657754,34.147653125657754 0 0,0 0.5430217343871306,0.2208422120178209 l -5.057443300494206 12.136022823598529" fill="#ff830c" stroke="none" /><path d="M 108.07796709384702 80.6158196554323 l 5.241550304152516 -12.57781261057711 a34.62626946958535,34.62626946958535 0 0,0 0.5467074492291192,0.23335690084147784 l -5.456692828552065 12.48598106007623" fill="#ff8a0c" stroke="none" /><path d="M 108.4095320186766 80.7573450057729 l 2.2916682772953805 -5.24378549523014 a26.722676804883182,26.722676804883182 0 0,0 0.4187654655384642,0.1873084662536709 l -2.3813471456894764 5.203673278066617" fill="#ff1602" stroke="none" /><path d="M 108.73861861582097 80.90454125486305 l 5.093944680000928 -11.131188436449378 a33.241389970532516,33.241389970532516 0 0,0 0.516842332951306,0.24190830872048807 l -5.284275726823739 11.042103896158356" fill="#ff760a" stroke="none" /><path d="M 109.06512990194946 81.05736502329252 l 1.9805524812089115 -4.138592950078378 a25.58808671858556,25.58808671858556 0 0,0 0.39459236308606477,0.1930148980608686 l -2.051305093557043 4.1039843019202875" fill="#ff0500" stroke="none" /><path d="M 109.3889696526874 81.21577127319529 l 6.065171138708175 -12.134405174491008 a34.56576904862134,34.56576904862134 0 0,0 0.5284822620022686,0.26984680856355914 l -6.272580622424022 12.028500414254614" fill="#ff890c" stroke="none" /><path d="M 109.71004243097381 81.37971332152246 l 4.17143760059851 -7.999281623812116 a30.02160729320143,30.02160729320143 0 0,0 0.4549148194647852,0.2422165181858907 l -4.308141235849854 7.926494637903652" fill="#ff4806" stroke="none" /><line stroke="#e1ed5e" stroke-width="0.3" x1="143.13028292997686" x2="145.6673583964461" y1="26.7553504044142" y2="22.446841604673864" /><path d="M 143.63769802327073 25.89364864446614 a86.0,86.0 0 0,1 29.32050498858742,28.57503671076993" fill="none" id="id146" stroke="none" /><text fill="#e1ed5e" style="font-size:6.75px; font-family:Arial;" text-anchor="middle"><textPath startOffset="20.669276256404974" xlink:href="#id146">February</textPath></text><path d="M 110.65571695917076 81.90426304109057 l 3.1821646849365313 -5.404011322671583 a27.27132445800884,27.27132445800884 0 0,0 0.4013653845364103,0.24100838124994056 l -3.274462826030376 5.348588940885722" fill="#ff1e03" stroke="none" /><path d="M 110.96478420261332 82.08984904055464 l 4.6102982619965145 -7.530575733605984 a29.829746369185436,29.829746369185436 0 0,0 0.43442887946674935,0.27111575100825636 l -4.738891270252976 7.450324185756182" fill="#ff4506" stroke="none" /><path d="M 111.27062007382361 82.28071324371311 l 2.9843806061350047 -4.691942005287319 a26.56065170490423,26.56065170490423 0 0,0 0.38261803606433065,0.24800838831693192 l -3.0644842744563427 4.6400197752664925" fill="#ff1402" stroke="none" /><path d="M 111.5731344415666 82.4767994020092 l 2.5739475562558627 -3.897284662570133 a25.67054962113239,25.67054962113239 0 0,0 0.3656265084890868,0.24600983230408563 l -2.6404703528419504 3.8525251562089284" fill="#ff0601" stroke="none" /><path d="M 111.8722381534696 82.67804972795209 l 6.28338704050874 -9.167649473398965 a32.11425884024416,32.11425884024416 0 0,0 0.45205393126155347,0.3155687522981154 l -6.439836062944053 9.058435905295724" fill="#ff6609" stroke="none" /><path d="M 112.16784306229584 82.88440491214696 l 3.8294226676072736 -5.386562553728848 a27.60904941065039,27.60904941065039 0 0,0 0.38392222444920593,0.27793008326353136 l -3.921325902430447 5.320031699092242" fill="#ff2403" stroke="none" /><path d="M 112.45986205192187 83.09580414077388 l 6.658312543966327 -9.033279731840054 a32.22199931593349,32.22199931593349 0 0,0 0.44243415209851206,0.332010835975235 l -6.812399684975605 8.917649868600805" fill="#ff6809" stroke="none" /><path d="M 114.13192950727249 84.46653392183569 l 5.20131450950418 -5.717155782136404 a28.729135971374447,28.729135971374447 0 0,0 0.3619463844713683,0.3350121699209351 l -5.298690665289513 5.627025866083094" fill="#ff3405" stroke="none" /><path d="M 117.81537515405839 88.88188828441811 l 5.806472678506806 -3.6236683962507774 a27.844420911387076,27.844420911387076 0 0,0 0.24958152508147383,0.4076726644408012 l -5.867822168043682 3.5234586156854215" fill="#ff2703" stroke="none" /><line stroke="#e1ed5e" stroke-width="0.3" x1="172.87174338648825" x2="177.1583165268699" y1="56.24261187166439" y2="53.66864786411523" /><path d="M 173.72905801456457 55.72781907015455 a86.0,86.0 0 0,1 12.242430191666344,42.057860355516425" fill="none" id="id147" stroke="none" /><text fill="#e1ed5e" style="font-size:6.75px; font-family:Arial;" text-anchor="middle"><textPath startOffset="22.145653131862474" xlink:href="#id147">March</textPath></text><path d="M 118.00360718960297 89.18935116829356 l 5.204552567768961 -3.125184278003961 a27.070761418648704,27.070761418648704 0 0,0 0.23580733096550638,0.4004524003860517 l -5.257433608864235 3.035380709324353" fill="#ff1b02" stroke="none" /><path d="M 118.18653347947321 89.5 l 4.158576154233362 -2.400955062092191 a25.80191012418438,25.80191012418438 0 0,0 0.21816944556058626,0.3854845057130416 l -4.199178964815324 2.3292137862800315" fill="#ff0801" stroke="none" /><path d="M 118.36410011445183 89.81374322990088 l 7.626140948786547 -4.230091830537043 a29.720762734161227,29.720762734161227 0 0,0 0.24364607226975807,0.44828133054731917 l -7.697632370671646 4.098555666515121" fill="#ff4306" stroke="none" /><path d="M 118.53625476483649 90.13048839642627 l 3.8713110482864668 -2.061255080750584 a25.38586613344559,25.38586613344559 0 0,0 0.2015056688822668,0.38641368960010325 l -3.9061247861436783 1.9944951480459825" fill="#ff0200" stroke="none" /><path d="M 118.70294669586156 90.45014215332178 l 7.887537691748176 -4.02743294633775 a29.856267101662805,29.856267101662805 0 0,0 0.22915408202950346,0.4584616682929756 l -7.955511686989416 3.891439421881023" fill="#ff4506" stroke="none" /><path d="M 118.8641267826498 90.77261029715802 l 4.403970558149531 -2.1542026857699037 a25.902606030309407,25.902606030309407 0 0,0 0.19195156053375279,0.4011049354756989 l -4.4403013766431965 2.0782852482291014" fill="#ff0a01" stroke="none" /><path d="M 119.0197475246899 91.09779779509293 l 8.167137034665927 -3.8226325151477876 a30.01746342875184,30.01746342875184 0 0,0 0.21443265904562525,0.46857405894822074 l -8.231554158566604 3.6818694739848827" fill="#ff4706" stroke="none" /><path d="M 119.16976305983485 91.42560881287824 l 5.219382578002022 -2.334563439274087 a26.717704167543673,26.717704167543673 0 0,0 0.18367291581368064,0.42027957595464477 l -5.258689375832673 2.2446217935435926" fill="#ff1602" stroke="none" /><path d="M 119.4528033332814 92.08871423366111 l 3.96600118473999 -1.6129381552136404 a25.281440749315934,25.281440749315934 0 0,0 0.16004515390378457,0.40341833707006136 l -3.993105013609899 1.5446188009300137" fill="#ff0000" stroke="none" /><path d="M 119.58574465831526 92.42381321644754 l 8.259837432333597 -3.1950825603441966 a29.856267101662805,29.856267101662805 0 0,0 0.18080005100818436,0.47959361563745256 l -8.313468167156223 3.0528206645125864" fill="#ff4506" stroke="none" /><path d="M 119.83427380445688 93.10060997987247 l 10.990832396668294 -3.8231820382265798 a32.6368001473374,32.6368001473374 0 0,0 0.17952505763079313,0.5307339333731979 l -11.05484287587145 3.63394643037922" fill="#ff6e0a" stroke="none" /><path d="M 119.94978838288452 93.4421083053983 l 9.705759956719989 -3.190476078662478 a31.21669780046306,31.21669780046306 0 0,0 0.16297388265948753,0.5105133662179515 l -9.759098555156735 3.0233936787531395" fill="#ff5908" stroke="none" /><path d="M 120.05942366710727 93.78553927170692 l 5.221741153503453 -1.6177087572545696 a26.466585981898547,26.466585981898547 0 0,0 0.13072436642775845,0.43513890004202177 l -5.248741839934839 1.5278322536218243" fill="#ff1202" stroke="none" /><path d="M 120.16314734710363 94.1308016681162 l 4.186420682216068 -1.2186060470443325 a25.360174173858134,25.360174173858134 0 0,0 0.11808362247481376,0.4190371184175344 l -4.2067227967654635 1.1465610047237849" fill="#ff0100" stroke="none" /><path d="M 120.26092885502905 94.47779374421319 l 8.143978651407766 -2.2196775961056363 a29.441051883813934,29.441051883813934 0 0,0 0.12871420281465862,0.4887487932604515 l -8.180882335027155 2.0795482984723863" fill="#ff3f05" stroke="none" /><path d="M 120.35273937422433 94.82641323984039 l 4.639046237206611 -1.1792274126487252 a25.7865778257209,25.7865778257209 0 0,0 0.10537190599548896,0.42995333471267755 l -4.6586056697183915 1.0994182533279528" fill="#ff0801" stroke="none" /><path d="M 120.43855184770803 95.1765574152323 l 9.939514910415527 -2.3456984549621156 a31.21255393601347,31.21255393601347 0 0,0 0.11859156129235159,0.5225363006656497 l -9.978317333265545 2.1747278203574396" fill="#ff5908" stroke="none" /><path d="M 120.51834098615036 95.52812308129327 l 8.397657935048109 -1.8302304614337044 a29.594789254893705,29.594789254893705 0 0,0 0.10392321463458541,0.49731020265368914 l -8.42783886050706 1.6858038074946107" fill="#ff4106" stroke="none" /><path d="M 120.592083275326 95.88100663000786 l 10.793533756889698 -2.159009041920803 a32.007347137444754,32.007347137444754 0 0,0 0.10314551690490371,0.5397009295932128 l -10.829005566076757 1.9734055472942758" fill="#ff6509" stroke="none" /><path d="M 120.65975698304385 96.23510406497455 l 4.227564195317393 -0.7704030239597043 a25.297187434224373,25.297187434224373 0 0,0 0.07418723357475546,0.42789224876905396 l -4.2401662463843826 0.6977177422700577" fill="#ff0000" stroke="none" /><path d="M 120.7213421655516 96.59031103205396 l 8.326590688656855 -1.3701373291791183 a29.43856556514418,29.43856556514418 0 0,0 0.07777179481638319,0.4993507124424037 l -8.348883975611503 1.2269984348052734" fill="#ff3f05" stroke="none" /><path d="M 120.77682067341334 96.94652285012252 l 10.677174689493736 -1.569176990651824 a31.791866186066095,31.791866186066095 0 0,0 0.07471918691548969,0.5406308151991692 l -10.702538392964438 1.385657867252569" fill="#ff6109" stroke="none" /><path d="M 120.82617615685814 97.30363454192243 l 4.716546985218783 -0.6106514357968639 a25.755913228793936,25.755913228793936 0 0,0 0.05300556362979067,0.43896210481891734 l -4.726334635108238 0.5295956540545335" fill="#ff0701" stroke="none" /><path d="M 120.86939407059847 97.66154086499901 l 8.487800223422141 -0.9510757188915216 a29.540919017049042,29.540919017049042 0 0,0 0.05214339008832671,0.5044399984342828 l -8.502876005992134 0.8052311981743074" fill="#ff4006" stroke="none" /><path d="M 120.9064616781168 98.02013634271609 l 9.497924132063314 -0.8994632902608843 a30.540419122290047,30.540419122290047 0 0,0 0.04494731982679181,0.5223559882405925 l -9.511965074587847 0.7362862546446298" fill="#ff4f07" stroke="none" /><path d="M 120.93736805541906 98.37931529534042 l 8.48032815536594 -0.6564310325689817 a29.50569616922753,29.50569616922753 0 0,0 0.03475495458541777,0.5053294120079501 l -8.490347071116425 0.5107581964066974" fill="#ff4006" stroke="none" /><path d="M 120.96210409425399 98.7389718711861 l 8.592929458022638 -0.5169292980684368 a29.608464007577354,29.608464007577354 0 0,0 0.026166001457757722,0.5076134379770331 l -8.600537048936967 0.3693440667146732" fill="#ff4106" stroke="none" /><path d="M 120.98066250479742 99.09900007780936 l 8.4577053707872 -0.36321025988803585 a29.465500684066512,29.465500684066512 0 0,0 0.017364037798090884,0.5055350146643239 l -8.462694095582139 0.21796898065959197" fill="#ff3f05" stroke="none" /><path d="M 120.99303781780057 99.45929381324524 l 14.476761983372116 -0.3728700360815879 a35.48156309198063,35.48156309198063 0 0,0 0.010456194294331858,0.6090208972734557 l -14.481029609265114 0.12430222283906588" fill="#ff960d" stroke="none" /><line stroke="#e1ed5e" stroke-width="0.3" x1="184.99686870605535" x2="189.99668451229388" y1="99.2704041080226" y2="99.22748670261217" /><path d="M 185.99683186730306 99.26182062694052 a86.0,86.0 0 0,1 -10.086455211305974,41.156179273409016" fill="none" id="id148" stroke="none" /><text fill="#e1ed5e" style="font-size:6.75px; font-family:Arial;" text-anchor="middle"><textPath startOffset="21.40746469413373" xlink:href="#id148">April</textPath></text><path d="M 120.99922638620191 99.81974689727618 l 10.689118945849511 -0.09175323033040156 a31.689512734161227,31.689512734161227 0 0,0 0.0,0.5440126661084556 l -10.689118945849511 -0.09175323033040025" fill="#ff6008" stroke="none" /><path d="M 120.99922638620191 100.18025310272382 l 12.745643109605567 0.10940601689148637 a33.74611266049253,33.74611266049253 0 0,0 -0.009944767927547699,0.5792328753585576 l -12.741886910079351 -0.328185808219115" fill="#ff7d0b" stroke="none" /><path d="M 120.99303781780057 100.54070618675476 l 8.640406943347806 0.22254623322716285 a29.643272468953906,29.643272468953906 0 0,0 -0.017468798821004196,0.50858501754206 l -8.635313457529955 -0.37083751533333353" fill="#ff4206" stroke="none" /><path d="M 120.98066250479742 100.90099992219065 l 13.01093086728324 0.5587453540310993 a34.02292280572511,34.02292280572511 0 0,0 -0.030067208062665857,0.5832958038965306 l -12.999422069764002 -0.7820129513043605" fill="#ff810b" stroke="none" /><path d="M 120.96210409425399 101.26102812881392 l 8.420855776760607 0.5065777727003589 a29.436079246474428,29.436079246474428 0 0,0 -0.03467295235185637,0.5041371175289707 l -8.410918863243685 -0.651058314383673" fill="#ff3f05" stroke="none" /><path d="M 120.93736805541906 101.62068470465957 l 8.917028284968486 0.6902343844848616 a29.943702641549148,29.943702641549148 0 0,0 -0.04406911293649398,0.5121498929755421 l -8.90386554933425 -0.8432053248360611" fill="#ff4606" stroke="none" /><path d="M 120.9064616781168 101.97986365728391 l 16.889415539533164 1.599445211452919 a37.96498105661966,37.96498105661966 0 0,0 -0.06701290558322669,0.6482890723103804 l -16.859470241468273 -1.8891388060462309" fill="#ffb811" stroke="none" /><path d="M 120.86939407059847 102.33845913500097 l 12.656956958268866 1.4182384270598658 a33.736167385813516,33.736167385813516 0 0,0 -0.0694288939052208,0.5749708392263304 l -12.630745978103981 -1.6353029432096047" fill="#ff7d0b" stroke="none" /><path d="M 120.82617615685814 102.69636545807757 l 8.734878990226129 1.1309049636544704 a29.80778388760261,29.80778388760261 0 0,0 -0.07005607543764013,0.5068908634718102 l -8.714178398233278 -1.2806841353263656" fill="#ff4406" stroke="none" /><path d="M 120.77682067341334 103.0534771498775 l 12.49749706484804 1.8367016935852087 a33.63174200168386,33.63174200168386 0 0,0 -0.0888494696687703,0.5704773315824859 l -12.464126103041004 -2.0509672070991454" fill="#ff7c0b" stroke="none" /><path d="M 120.7213421655516 103.40968896794604 l 12.5197348406985 2.06011760371908 a33.68809855819828,33.68809855819828 0 0,0 -0.09879465228791613,0.5698213007395201 l -12.482525370918351 -2.274731937379188" fill="#ff7d0b" stroke="none" /><path d="M 120.65975698304385 103.76489593502545 l 14.791990285718063 2.6955933771797396 a36.03559776889076,36.03559776889076 0 0,0 -0.11612678623093275,0.6076244160693063 l -14.743537207204971 -2.9491203582823604" fill="#ff9e0e" stroke="none" /><path d="M 120.592083275326 104.11899336999214 l 23.697989016133864 4.740261504117119 a45.16743185645127,45.16743185645127 0 0,0 -0.15860713434663057,0.7589925542775708 l -23.613124170962866 -5.146370509680098" fill="#e8ff1a" stroke="none" /><path d="M 120.51834098615036 104.47187691870673 l 5.894272417840527 1.284629239552183 a27.03263786571248,27.03263786571248 0 0,0 -0.1027100421489936,0.4525593969830743 l -5.8713515141338695 -1.3856229704742742" fill="#ff1b02" stroke="none" /><path d="M 120.43855184770803 104.8234425847677 l 12.659017813273387 2.9874937352140774 a34.006761734371715,34.006761734371715 0 0,0 -0.13896211140940082,0.5670128354871627 l -12.60586817534769 -3.2043623953093396" fill="#ff810b" stroke="none" /><path d="M 120.35273937422433 105.17358676015961 l 12.458475744471151 3.166895815754141 a33.85468190907177,33.85468190907177 0 0,0 -0.14801028206012307,0.5620191491314183 l -12.402275981606298 -3.3802954692583627" fill="#ff7f0b" stroke="none" /><path d="M 120.26092885502905 105.52220625578681 l 14.217779518967252 3.8751190315517188 a35.73641075563039,35.73641075563039 0 0,0 -0.1663981015013213,0.5904881600167164 l -14.14916292539135 -4.118615115471443" fill="#ff990e" stroke="none" /><path d="M 120.16314734710363 105.8691983318838 l 14.561359449509949 4.238599516225857 a36.16571511260787,36.16571511260787 0 0,0 -0.17863052672285873,0.5946029270301991 l -14.48645260278346 -4.48794004684678" fill="#ff9f0e" stroke="none" /><path d="M 120.05942366710727 106.21446072829308 l 12.79706575900293 3.9645636842055954 a34.397113765523045,34.397113765523045 0 0,0 -0.17957796876786758,0.5625254294629044 l -12.727123074457808 -4.183658147359883" fill="#ff870c" stroke="none" /><path d="M 119.94978838288452 106.5578916946017 l 26.558077052125633 8.73016743747254 a48.95616712271101,48.95616712271101 0 0,0 -0.26929290507680037,0.7961166236461412 l -26.404298725476465 -9.184785735592842" fill="#b9ff1f" stroke="none" /><path d="M 119.83427380445688 106.89939002012753 l 13.07494971424748 4.548146227157447 a34.84340796674384,34.84340796674384 0 0,0 -0.20136143171112122,0.5632437621556212 l -12.994948112492416 -4.771924945693989" fill="#ff8d0d" stroke="none" /><path d="M 119.71291397450082 107.23885506374661 l 10.359160151578578 3.8040270969789756 a32.035525415701954,32.035525415701954 0 0,0 -0.19399694575047263,0.5145999468267844 l -10.292332522013664 -3.9812953239999187" fill="#ff6509" stroke="none" /><path d="M 119.58574465831526 107.57618678355244 l 9.949525306849907 3.848690128836842 a31.667964639023364,31.667964639023364 0 0,0 -0.2004752942970325,0.5053287017835023 l -9.881991337586749 -4.018919847833908" fill="#ff6008" stroke="none" /><path d="M 119.4528033332814 107.91128576633889 l 15.840589517098834 6.442229853968377 a38.10048542412124,38.10048542412124 0 0,0 -0.2515977447114265,0.603742996364476 l -15.727665927850923 -6.713205359774131" fill="#ffba11" stroke="none" /><path d="M 119.31412917781788 108.2440532568976 l 10.970911173555539 4.6828296092872765 a32.9285282045885,32.9285282045885 0 0,0 -0.22636970418053798,0.5179781834491184 l -10.888907587358036 -4.87046986251224" fill="#ff720a" stroke="none" /><path d="M 119.16976305983485 108.57439118712176 l 14.12236767409244 6.316755431356631 a36.47070353609766,36.47070353609766 0 0,0 -0.2605320051466804,0.5693094497864056 l -14.011851204090704 -6.558253863357725" fill="#ffa40f" stroke="none" /><path d="M 119.0197475246899 108.90220220490707 l 23.388614756964827 10.947052666650425 a46.823734476952225,46.823734476952225 0 0,0 -0.3469878240186361,0.7250710980251449 l -23.19724767498628 -11.346936266740673" fill="#d3ff1c" stroke="none" /><path d="M 118.8641267826498 109.22738970284198 l 22.68355657784771 11.095664209741054 a46.25188118290886,46.25188118290886 0 0,0 -0.3549943915800902,0.7102265844755997 l -22.48974227305589 -11.4834226503804" fill="#daff1b" stroke="none" /><path d="M 118.70294669586154 109.54985784667822 l 17.37310262499315 8.870829988578667 a40.50682750999789,40.50682750999789 0 0,0 -0.32153149034953316,0.6165790282613667 l -17.21826306566867 -9.167755259944537" fill="#ffda14" stroke="none" /><path d="M 118.5362547648365 109.86951160357373 l 21.222714441012606 11.299900065694478 a45.04353030940854,45.04353030940854 0 0,0 -0.36925967678605287,0.67939621470216 l -21.025609414611214 -11.662551113871242" fill="#e9ff1a" stroke="none" /><line stroke="#e1ed5e" stroke-width="0.3" x1="174.33088141563837" x2="178.70328620479359" y1="141.23008692659167" y2="143.65538615756765" /><path d="M 175.20536237346943 141.71514677278685 a86.0,86.0 0 0,1 -30.301960400862466,31.631185727798858" fill="none" id="id149" stroke="none" /><text fill="#e1ed5e" style="font-size:6.75px; font-family:Arial;" text-anchor="middle"><textPath startOffset="22.145653131862474" xlink:href="#id149">May</textPath></text><path d="M 118.36410011445183 110.18625677009912 l 11.818434825551176 6.555486574537189 a34.51479951589139,34.51479951589139 0 0,0 -0.2918417527142188,0.515656413309381 l -11.704159707815577 -6.757399757945692" fill="#ff880c" stroke="none" /><path d="M 118.18653347947321 110.5 l 3.7483886719854587 2.1641332087981473 a25.328266417596296,25.328266417596296 0 0,0 -0.2206288478388452,0.37467601770361975 l -3.710686114016848 -2.2281603947953164" fill="#ff0100" stroke="none" /><path d="M 118.00360718960297 110.81064883170644 l 18.452181595216373 11.080004873687763 a42.52323195116817,42.52323195116817 0 0,0 -0.38115402419539807,0.6225864536862165 l -18.25925960656557 -11.395128443498537" fill="#fff517" stroke="none" /><path d="M 117.81537515405839 111.11811171558189 l 21.51210768395393 13.425146223392492 a46.35754972637339,46.35754972637339 0 0,0 -0.42711265388696756,0.6714920334364886 l -21.27847733844107 -13.792451931507653" fill="#d9ff1c" stroke="none" /><path d="M 117.62189284568427 111.42229804090321 l 8.385791830664372 5.435568950374039 a30.993343506630183,30.993343506630183 0 0,0 -0.2932199957572573,0.4439724459211316 l -8.291247395986387 -5.578721274634232" fill="#ff5607" stroke="none" /><path d="M 117.423217284605 111.72311816256416 l 14.439202526813586 9.715339861174678 a38.40340191538624,38.40340191538624 0 0,0 -0.3727146405505667,0.5438017992752575 l -14.270298149447699 -9.96177639551998" fill="#ffbe11" stroke="none" /><path d="M 117.21940702142032 112.02048342749411 l 13.438504019492745 9.381119492423808 a37.38898389812671,37.38898389812671 0 0,0 -0.3719044865535755,0.5231302352124424 l -13.27548443440921 -9.610426954345755" fill="#ffb010" stroke="none" /><path d="M 117.01052211995028 112.31430620078461 l 17.690128461750543 12.806288782501387 a42.8389944222269,42.8389944222269 0 0,0 -0.4363416376178089,0.5919812332664762 l -17.467684804548906 -13.108076325036741" fill="#fff917" stroke="none" /><path d="M 116.79662413953412 112.60449989151573 l 11.18850586215243 8.396063384772214 a34.988443222479475,34.988443222479475 0 0,0 -0.3646262673662296,0.4773074886428255 l -11.042727617431897 -8.586891786655917" fill="#ff8f0d" stroke="none" /><path d="M 116.57777611688842 112.89097897827486 l 13.773232325276313 10.710148762785812 a38.44732687855188,38.44732687855188 0 0,0 -0.40961703213471606,0.5175377389695031 l -13.587348862500034 -10.945006445669998" fill="#ffbf11" stroke="none" /><path d="M 116.35404254752997 113.17365903436017 l 13.303687460967227 10.716508899932212 a38.08308119343296,38.08308119343296 0 0,0 -0.41447663523584316,0.5055941020295308 l -13.117764006492756 -10.943305283660235" fill="#ffba11" stroke="none" /><path d="M 116.1254893667686 113.45245675266167 l 22.230354076060724 18.54535202019054 a49.95028020416754,49.95028020416754 0 0,0 -0.5549367583797736,0.6537141060027419 l -21.908722754173837 -18.92423290864284" fill="#adff20" stroke="none" /><path d="M 115.89218393027572 113.72728997021213 l 14.03810277386588 12.125778826494665 a39.55000920858767,39.55000920858767 0 0,0 -0.4482126005704726,0.5099836621969445 l -13.827879109336823 -12.364974766502902" fill="#ffcd13" stroke="none" /><path d="M 115.6541949942343 113.99807769240083 l 9.558272384233424 8.54706610521388 a33.822359766364976,33.822359766364976 0 0,0 -0.39073248772729724,0.429483450269502 l -9.410142195664248 -8.709887131041052" fill="#ff7f0b" stroke="none" /><path d="M 115.41159269507618 114.26474011684316 l 12.742907225631749 11.794644687486091 a38.36362081667017,38.36362081667017 0 0,0 -0.45149262293305764,0.4794695195612453 l -12.538558768962432 -12.011655666991834" fill="#ffbe11" stroke="none" /><path d="M 115.16444852881244 114.52719865689866 l 17.443325051766678 16.710310815616324 a45.155829035992426,45.155829035992426 0 0,0 -0.5410382185920628,0.5551528751410488 l -17.153900032023806 -17.00728638282511" fill="#e8ff1a" stroke="none" /><path d="M 114.91283532996324 114.78537596483092 l 13.00557126610955 12.894413205279164 a39.31422332140602,39.31422332140602 0 0,0 -0.4792742297188053,0.47517789339558963 l -12.78230511626078 -13.115771108903417" fill="#ffca12" stroke="none" /><path d="M 114.65682725009322 115.03919595460226 l 15.593220661218211 16.000018086173586 a43.341645179962114,43.341645179962114 0 0,0 -0.5372867975336769,0.5147085981181987 l -15.316261377819222 -16.265338814597364" fill="#ffff18" stroke="none" /><path d="M 114.39649973595853 115.28858382429668 l 23.304068804723066 24.748113493051385 a54.993363239318036,54.993363239318036 0 0,0 -0.692838413735259,0.6412808922764259 l -22.87580061967384 -25.144512131460193" fill="#73ff27" stroke="none" /><path d="M 114.13192950727249 115.5334660781643 l 15.852966360218907 17.42518706083381 a44.55745500947168,44.55745500947168 0 0,0 -0.5701974512756628,0.5098740769426627 l -15.551503882119867 -17.69475666765986" fill="#efff19" stroke="none" /><path d="M 113.86319453409587 115.77377054828091 l 16.876892830190563 19.202805992270886 a46.565157335297826,46.565157335297826 0 0,0 -0.6049490690066873,0.5225405975603107 l -16.544764281421017 -19.489690722295915" fill="#d6ff1c" stroke="none" /><path d="M 113.59037401385872 116.0094264158162 l 18.35092026798974 21.617337932959238 a49.3560500420964,49.3560500420964 0 0,0 -0.6506200674305793,0.5427704003551519 l -17.977125866397266 -21.92917051722626" fill="#b4ff20" stroke="none" /><path d="M 113.31354834802062 116.24036423190432 l 15.094386061168827 18.41269668178334 a44.80898758156178,44.80898758156178 0 0,0 -0.5990518449849774,0.4825537616647803 l -14.776083445828595 -18.669098737241526" fill="#ecff1a" stroke="none" /><path d="M 113.03279911837588 116.46651593811092 l 13.457047453179346 17.00253985003545 a42.68359950536728,42.68359950536728 0 0,0 -0.578444187923815,0.449801699217953 l -13.163193320620302 -17.231042600874197" fill="#fff717" stroke="none" /><path d="M 112.7482090630111 116.68781488649013 l 30.176206248303373 39.50162264826319 a70.70896916438645,70.70896916438645 0 0,0 -0.970891424559601,0.7285750251880341 l -29.493661834833006 -40.01381670071523" fill="#3cffa1" stroke="none" /><path d="M 112.45986205192187 116.90419585922612 l 12.645655222252504 17.15625997739114 a42.313138023573984,42.313138023573984 0 0,0 -0.5883923720738532,0.42595070185562206 l -12.349281839804684 -17.37081145061984" fill="#fff216" stroke="none" /><path d="M 112.16784306229584 117.11559508785304 l 12.421073010261422 17.47179472252183 a42.437039570616705,42.437039570616705 0 0,0 -0.5973617720537027,0.4170049103466636 l -12.11931614703396 -17.682444448673614" fill="#fff316" stroke="none" /><path d="M 111.8722381534696 117.32195027204791 l 14.510287704225421 21.170943405666637 a46.66626762786781,46.66626762786781 0 0,0 -0.664669231816853,0.44721912241171485 l -14.144722184311565 -21.416912202135475" fill="#d5ff1c" stroke="none" /><path d="M 111.5731344415666 117.5232005979908 l 13.24403465331404 20.05315648310641 a45.03192748894969,45.03192748894969 0 0,0 -0.6487050034556097,0.42048274580842504 l -12.89784401760142 -20.27755307061873" fill="#e9ff1a" stroke="none" /><path d="M 111.27062007382361 117.71928675628689 l 8.262146174671397 12.989466092586923 a36.39445643022522,36.39445643022522 0 0,0 -0.5300347756934616,0.33078090123523557 l -8.03794727018822 -13.129382790663707" fill="#ffa30f" stroke="none" /><path d="M 110.96478420261333 117.91015095944535 l 13.658452148726017 22.310055112415274 a47.15897311092401,47.15897311092401 0 0,0 -0.6940616106178692,0.41676405516620696 l -13.27345778155071 -22.541233168117405" fill="#cfff1d" stroke="none" /><line stroke="#e1ed5e" stroke-width="0.3" x1="143.1302829299769" x2="145.66735839644613" y1="173.24464959558577" y2="177.55315839532614" /><path d="M 143.63769802327073 174.10635135553383 a86.0,86.0 0 0,1 -40.68552437913181,11.842963189579606" fill="none" id="id150" stroke="none" /><text fill="#e1ed5e" style="font-size:6.75px; font-family:Arial;" text-anchor="middle"><textPath startOffset="21.407464694133747" xlink:href="#id150">June</textPath></text><path d="M 110.65571695917076 118.09573695890943 l 11.79802170422815 20.03562014768748 a44.251223426647016,44.251223426647016 0 0,0 -0.657884060009123,0.37982953914183254 l -11.452345176358628 -20.235196584105484" fill="#f3ff19" stroke="none" /><path d="M 110.34350942703117 118.27599006163325 l 15.66242402064217 27.674002499991143 a52.798772626815406,52.798772626815406 0 0,0 -0.7926247585156414,0.4396555922837879 l -15.185055073970435 -27.938791007708073" fill="#8cff24" stroke="none" /><path d="M 110.02825361518725 118.45085714620011 l 8.45045534590658 15.547886041846372 a38.69595874552725,38.69595874552725 0 0,0 -0.5863565169851852,0.31220181863245083 l -8.18231001313484 -15.690658328201392" fill="#ffc212" stroke="none" /><path d="M 109.71004243097381 118.62028667847754 l 11.970728746267621 22.955450770717277 a46.889207535255736,46.889207535255736 0 0,0 -0.7168975302377614,0.3660529870365384 l -11.574903994316278 -23.157561709426652" fill="#d2ff1c" stroke="none" /><path d="M 109.3889696526874 118.78422872680471 l 15.449447294673792 30.909243763803357 a55.555271258682374,55.555271258682374 0 0,0 -0.8567145331709438,0.41906200868663707 l -14.91657251224078 -31.16989952258722" fill="#6dff28" stroke="none" /><path d="M 109.06512990194946 118.94263497670748 l 8.432910551086682 17.621539689807165 a40.535420174700064,40.535420174700064 0 0,0 -0.6302510559523911,0.2949893174271183 l -8.129170781262784 -17.763705238804818" fill="#ffdb14" stroke="none" /><path d="M 108.73861861582097 119.09545874513695 l 9.686789084449826 21.16738233661624 a44.27857293201431,44.27857293201431 0 0,0 -0.6938802329812159,0.31036380241224476 l -9.321995448612983 -21.330549889938332" fill="#f3ff19" stroke="none" /><path d="M 108.4095320186766 119.2426549942271 l 5.176913486371033 11.845791172678831 a33.92761392338455,33.92761392338455 0 0,0 -0.5356765123882682,0.22864844984416594 l -4.972801898812334 -11.932914272182401" fill="#ff800b" stroke="none" /><path d="M 108.07796709384702 119.3841803445677 l 5.812839915504357 13.948699707140934 a36.11143048831825,36.11143048831825 0 0,0 -0.5742500529335894,0.233542497307844 l -5.5725354013803265 -14.046429461028069" fill="#ff9f0e" stroke="none" /><path d="M 107.74402155503746 119.51999308798841 l 15.288829337305042 38.53783733252857 a62.4597782045885,62.4597782045885 0 0,0 -1.0000338052802265,0.38683455905533126 l -14.625023269531287 -38.79461177972194" fill="#31ff3d" stroke="none" /><path d="M 107.407793817531 119.65005319985036 l 9.211991548768745 24.43590203354366 a47.11463376131341,47.11463376131341 0 0,0 -0.7592430086033894,0.2788045493706393 l -8.791159388511229 -24.59043743192302" fill="#d0ff1d" stroke="none" /><path d="M 107.06938296918513 119.77432235084164 l 6.571328868844787 18.381176390123734 a40.52050226268154,40.52050226268154 0 0,0 -0.6569998635371285,0.22853865719523708 l -6.254823233262636 -18.49127347988756" fill="#ffda14" stroke="none" /><path d="M 106.72888874123015 119.89276391827305 l 8.279969473815457 24.47825849517712 a46.84072432119554,46.84072432119554 0 0,0 -0.7638991920057258,0.25110883737820106 l -7.858547544161998 -24.61678825395734" fill="#d3ff1c" stroke="none" /><path d="M 106.38641147887787 120.00534299687104 l 13.07569358211582 40.95942391080847 a63.99590875605135,63.99590875605135 0 0,0 -1.0494090780018628,0.32510961488143825 l -12.370643871242333 -41.17785011349655" fill="#33ff50" stroke="none" /><path d="M 106.0420521117495 120.11202640906438 l 8.36262583870939 27.836461620412525 a50.06547963586614,50.06547963586614 0 0,0 -0.825222119107982,0.24021013195630359 l -7.8835437072198005 -27.975915446671344" fill="#acff21" stroke="none" /><path d="M 105.69591212413111 120.21278271476187 l 11.756023638908124 41.71798058403199 a64.342750210482,64.342750210482 0 0,0 -1.0656954875342237,0.29046004406479015 l -11.038146750439205 -41.913641122240925" fill="#33ff55" stroke="none" /><path d="M 105.3480935250658 120.30758222061773 l 5.469737043599253 20.769482473978172 a42.477649442222685,42.477649442222685 0 0,0 -0.706736470063798,0.17964964701874667 l -5.112395280310058 -20.86031735283219" fill="#fff417" stroke="none" /><path d="M 104.9986988182912 120.39639698878246 l 3.096929859461603 12.636530656509207 a34.01049121237634,34.01049121237634 0 0,0 -0.568247038187393,0.13410475375575867 l -2.879550667534331 -12.687831553911192" fill="#ff810b" stroke="none" /><path d="M 104.64783097203109 120.47920084513623 l 6.63845706333312 29.250266698576297 a50.99411965901915,50.99411965901915 0 0,0 -0.85533549882512,0.18641639095131268 l -6.135359147888864 -29.35991454766133" fill="#a1ff22" stroke="none" /><path d="M 104.29559338865022 120.5559693870025 l 5.650002754299138 27.03730850334218 a48.62134287518417,48.62134287518417 0 0,0 -0.8184674087896137,0.16371640427457876 l -5.185038859978565 -27.13031430427962" fill="#bdff1f" stroke="none" /><path d="M 103.94208987418118 120.62667999033965 l 2.4059837364848935 12.58912358124353 a33.81697274258051,33.81697274258051 0 0,0 -0.5711288403925693,0.10407870002220385 l -2.189520162541267 -12.6285704551971" fill="#ff7e0b" stroke="none" /><path d="M 103.58742460773223 120.69131181640829 l 7.151087529898358 41.245572544893484 a62.86090428330877,62.86090428330877 0 0,0 -1.0648113253333533,0.17521429837536648 l -6.441998701511932 -41.362252841764516" fill="#31ff42" stroke="none" /><path d="M 103.2317021107853 120.74984581791261 l 4.01254657338257 25.7634274078095 a47.07402388970743,47.07402388970743 0 0,0 -0.799529642832509,0.11750332418101105 l -3.569691824942376 -25.82851180528939" fill="#d0ff1d" stroke="none" /><path d="M 102.875027216393 120.80226474461374 l 4.1482449102028935 30.014633724337436 a51.29993685539886,51.29993685539886 0 0,0 -0.8733745314956137,0.1130758186693789 l -3.6323925568165047 -30.081421139207208" fill="#9eff22" stroke="none" /><path d="M 102.51750503828377 120.84855314841334 l 4.117042745332668 34.095019944378244 a55.34269101241844,55.34269101241844 0 0,0 -0.9441571094547448,0.10579477343767797 l -3.531149734277124 -34.16067047832289" fill="#70ff27" stroke="none" /><path d="M 102.15924093988457 120.88869738790638 l 3.0924616018368845 29.916760742756345 a51.076168175121026,51.076168175121026 0 0,0 -0.8729170980319678,0.0826661567521128 l -2.5784449404199012 -29.965438655013642" fill="#a0ff22" stroke="none" /><path d="M 101.80034050326958 120.92268563240118 l 1.108539486371764 12.882909173202618 a33.93051462849927,33.93051462849927 0 0,0 -0.5807466181292884,0.044953461141516535 l -0.8872238734672396 -12.900040401339188" fill="#ff800b" stroke="none" /><path d="M 101.44090949804482 120.95050786540614 l 1.4525006914521832 21.119041273631975 a42.168931540728266,42.168931540728266 0 0,0 -0.7226061037843093,0.04347018881441625 l -1.0897502355354087 -21.140863440271083" fill="#fff016" stroke="none" /><path d="M 101.08105385017728 120.97215588758144 l 1.8250889919050095 35.40623886651332 a56.453246684908436,56.453246684908436 0 0,0 -0.9682383422071731,0.04158032048754803 l -1.217024889097007 -35.432351755426694" fill="#63ff29" stroke="none" /><path d="M 100.72087961077811 120.9876233191556 l 1.1898837945110385 34.64216840008803 a55.66259734792674,55.66259734792674 0 0,0 -0.9552409042111392,0.024603617219718377 l -0.5950295762291556 -34.657489734657794" fill="#6cff28" stroke="none" /><line stroke="#e1ed5e" stroke-width="0.3" x1="101.45913802915013" x2="101.54496967792366" y1="184.9874750549273" y2="189.98673829345242" /><path d="M 101.47630435890484 185.9873277026323 a86.0,86.0 0 0,1 -42.54439059252881,-10.42667462771756" fill="none" id="id151" stroke="none" /><text fill="#e1ed5e" style="font-size:6.75px; font-family:Arial;" text-anchor="middle"><textPath startOffset="22.145653131862474" xlink:href="#id151">July</textPath></text><path d="M 100.36049292484886 120.99690560180557 l 0.4395926109677833 25.60406576526215 a46.6078391391286,46.6078391391286 0 0,0 -0.8000855358166324,0.006867772060887253 l -3.1360558234814154e-15 -25.6078391391286" fill="#d6ff1c" stroke="none" /><path d="M 100.0 121.0 l 1.5652621619085203e-15 12.781335508314044 a33.781335508314044,33.781335508314044 0 0,0 -0.5799015448901198,-0.004977757314406044 l 0.21940862004126607 -12.779452149194073" fill="#ff7e0b" stroke="none" /><path d="M 99.63950707515114 120.99690560180557 l -0.5272308614835466 30.70855449817847 a51.71308014102294,51.71308014102294 0 0,0 -0.887462170057966,-0.022857877455648757 l 1.0543063456122566 -30.694978903372775" fill="#99ff23" stroke="none" /><path d="M 99.27912038922189 120.98762331915562 l -0.8069781424853044 23.494288128072338 a44.50814302252157,44.50814302252157 0 0,0 -0.7633660266764664,-0.032782221747347004 l 1.2101699297626096 -23.47697333789916" fill="#f0ff19" stroke="none" /><path d="M 98.91894614982273 120.97215588758144 l -1.3409143595090405 26.013380346324755 a47.04791754367501,47.04791754367501 0 0,0 -0.8062123261189722,-0.04849973153750243 l 1.787271037760459 -25.98652863696256" fill="#d0ff1d" stroke="none" /><path d="M 98.55909050195518 120.95050786540614 l -1.8728828530088204 27.23130564146302 a48.29563512944643,48.29563512944643 0 0,0 -0.826616603930731,-0.06398535303301575 l 2.3400684517147874 -27.19514252143495" fill="#c1ff1e" stroke="none" /><path d="M 98.19965949673042 120.92268563240118 l -3.6167504002387645 42.032121977831004 a63.18744080193644,63.18744080193644 0 0,0 -1.07990476630469,-0.102268104141807 l 4.33775472992847 -41.96384211818402" fill="#32ff46" stroke="none" /><path d="M 97.84075906011543 120.88869738790638 l -2.6582898779085635 25.71654316258705 a46.85357030098926,46.85357030098926 0 0,0 -0.7993310533651183,-0.08956671177459002 l 3.099356832874481 -25.66712069030549" fill="#d3ff1c" stroke="none" /><path d="M 97.48249496171623 120.84855314841334 l -2.0278208994700484 16.79326601343597 a37.91525468322458,37.91525468322458 0 0,0 -0.6455021160910345,-0.08357317233056605 l 2.315800837451877 -16.75598124490501" fill="#ffb711" stroke="none" /><path d="M 97.12497278360702 120.80226474461374 l -4.114432629479666 29.769984904593112 a51.052962534203324,51.052962534203324 0 0,0 -0.8671100009667518,-0.1274353095693003 l 4.624867736054102 -29.69496852172493" fill="#a0ff22" stroke="none" /><path d="M 96.76829788921471 120.74984581791261 l -5.185088670658305 33.29198879726617 a54.693347453167746,54.693347453167746 0 0,0 -0.9264597201155809,-0.1524485943857454 l 5.75582589382695 -33.19807420438476" fill="#77ff27" stroke="none" /><path d="M 96.41257539226777 120.69131181640829 l -5.274527879435808 30.42207515734677 a51.87593401389181,51.87593401389181 0 0,0 -0.8761234266345103,-0.1596588735397044 l 5.795986039621375 -30.3270481098757" fill="#97ff23" stroke="none" /><path d="M 96.05791012581884 120.62667999033965 l -4.092505992893843 21.41372068324615 a42.801285255735635,42.801285255735635 0 0,0 -0.7204954648425967,-0.14411927162085894 l 4.459497943267397 -21.340312014962432" fill="#fff817" stroke="none" /><path d="M 95.70440661134978 120.55596938700252 l -6.166636917577056 29.509589998299447 a51.147028257209016,51.147028257209016 0 0,0 -0.8579002681158117,-0.18697537048092475 l 6.6722996023120045 -29.3993831696848" fill="#9fff22" stroke="none" /><path d="M 95.35216902796893 120.47920084513623 l -9.188386904064934 40.48572807047149 a62.51530598821301,62.51530598821301 0 0,0 -1.0445052747798185,-0.246500400807625 l 9.88202433258464 -40.32203152601763" fill="#31ff3e" stroke="none" /><path d="M 95.00130118170881 120.39639698878247 l -9.121329900754596 37.21813865653968 a59.31955772468953,59.31955772468953 0 0,0 -0.9869494989151486,-0.25087870318823974 l 9.758884692895123 -37.056074721516175" fill="#45ff2d" stroke="none" /><path d="M 94.6519064749342 120.30758222061772 l -10.746455583383296 40.806042249810375 a63.19738607661545,63.19738607661545 0 0,0 -1.046725061417028,-0.28528957006880357 l 11.44536204573502 -40.61555218559743" fill="#32ff46" stroke="none" /><path d="M 94.30408787586889 120.21278271476187 l -6.946725914492626 24.65147959249182 a46.61156861713324,46.61156861713324 0 0,0 -0.7682917992384944,-0.2236385455536729 l 7.368877726112728 -24.528597352635632" fill="#d6ff1c" stroke="none" /><path d="M 93.95794788825049 120.11202640906438 l -8.611569577053945 28.66511436079861 a50.93071853294043,50.93071853294043 0 0,0 -0.8351652381617298,-0.2587363256453916 l 9.102375448087308 -28.51306144734657" fill="#a2ff22" stroke="none" /><path d="M 93.61358852112213 120.00534299687104 l -3.939670509879763 12.34096176005411 a33.95454904230688,33.95454904230688 0 0,0 -0.5537457619245091,-0.18202723073298951 l 4.150939009452015 -12.271513607919099" fill="#ff800b" stroke="none" /><path d="M 93.27111125876986 119.89276391827306 l -11.755859736416518 34.75411043133304 a57.68853267733109,57.68853267733109 0 0,0 -0.9353624950392085,-0.3253676301486278 l 12.350728003500748 -34.547184368615824" fill="#56ff2a" stroke="none" /><path d="M 92.93061703081489 119.77432235084164 l -11.796223741848385 32.996137259890126 a56.041346558619246,56.041346558619246 0 0,0 -0.9030952205403746,-0.3316290741546538 l 12.360908114042878 -32.78877733672675" fill="#68ff28" stroke="none" /><path d="M 92.59220618246901 119.65005319985036 l -10.471148882965721 27.77596645939173 a50.68415859818985,50.68415859818985 0 0,0 -0.8114961891851696,-0.31390415890046974 l 10.94641733464442 -27.592122412353216" fill="#a5ff21" stroke="none" /><path d="M 92.25597844496254 119.51999308798841 l -10.293153045262214 25.945469659291682 a48.912656545990316,48.912656545990316 0 0,0 -0.7778173068979831,-0.31633152730980146 l 10.737024813350638 -25.76495087540259" fill="#baff1f" stroke="none" /><path d="M 91.92203290615298 119.3841803445677 l -13.205493262400477 31.68837653873614 a55.32984503262471,55.32984503262471 0 0,0 -0.8735921861463765,-0.3728845572634811 l 13.747520523717284 -31.457017331813255" fill="#70ff27" stroke="none" /><path d="M 91.59046798132341 119.24265499422711 l -11.22154119591205 25.677082298620405 a49.02205456745948,49.02205456745948 0 0,0 -0.7682143391728862,-0.3436125026201166 l 11.66066893794057 -25.480666045090434" fill="#b8ff1f" stroke="none" /><path d="M 91.26138138417905 119.09545874513695 l -2.1407983210524852 4.678030684083785 a26.14460771416544,26.14460771416544 0 0,0 -0.4065004519084535,-0.19026273690424017 l 2.2207874868324287 -4.640591715609018" fill="#ff0d01" stroke="none" /><path d="M 90.93487009805054 118.94263497670748 l -20.020895584070296 41.83597158097653 a67.37978846558619,67.37978846558619 0 0,0 -1.039059709593806,-0.508256171908382 l 20.73611554292617 -41.48612165897093" fill="#37ff7a" stroke="none" /><path d="M 90.6110303473126 118.78422872680471 l -11.699775709729707 23.407388788499468 a47.16850399915807,47.16850399915807 0 0,0 -0.7211677441249373,-0.368233388673809 l 12.099870675568226 -23.20309744815282" fill="#cfff1d" stroke="none" /><path d="M 90.28995756902619 118.62028667847754 l -11.984141112812202 22.981170752053316 a46.91821458640287,46.91821458640287 0 0,0 -0.7109476487961649,-0.3785395786983897 l 12.376877577394929 -22.772060705632352" fill="#d2ff1c" stroke="none" /><path d="M 89.97174638481275 118.45085714620012 l -14.16931445738794 26.069942678446235 a50.67172700484108,50.67172700484108 0 0,0 -0.7606931635449292,-0.4219436748239983 l 14.614751809088972 -25.82286608818909" fill="#a5ff21" stroke="none" /><line stroke="#e1ed5e" stroke-width="0.3" x1="58.13341422392154" x2="55.67067388415222" y1="173.97424548756322" y2="178.32567169271397" /><path d="M 57.64086615596768 174.84453072859336 a86.0,86.0 0 0,1 -31.369924170532247,-30.572349798747897" fill="none" id="id152" stroke="none" /><text fill="#e1ed5e" style="font-size:6.75px; font-family:Arial;" text-anchor="middle"><textPath startOffset="22.145653131862474" xlink:href="#id152">August</textPath></text><path d="M 89.65649057296885 118.27599006163327 l -13.808536099828293 24.39836018002269 a49.0349005472532,49.0349005472532 0 0,0 -0.7290031089794599,-0.42089014120936846 l 14.225331676668153 -24.157723141537147" fill="#b8ff1f" stroke="none" /><path d="M 89.34428304082925 118.09573695890944 l -15.465269904966735 26.26340932957695 a51.47853741317617,51.47853741317617 0 0,0 -0.7576347454640814,-0.4549378960368286 l 15.913837406988245 -25.994057433004205" fill="#9bff22" stroke="none" /><path d="M 89.03521579738668 117.91015095944536 l -6.834959737960854 11.164393064793176 a34.09046779625342,34.09046779625342 0 0,0 -0.49648037706825776,-0.30984047482051374 l 7.025604243818823 -11.045416793131114" fill="#ff820c" stroke="none" /><path d="M 88.72937992617639 117.7192867562869 l -13.478751845548707 21.190836662377475 a46.11430488318249,46.11430488318249 0 0,0 -0.6642971326496878,-0.43058937557326593 l 13.840534610455405 -20.956333445100313" fill="#dcff1b" stroke="none" /><path d="M 88.4268655584334 117.5232005979908 l -23.40782756776027 35.44243438146028 a63.47461060829299,63.47461060829299 0 0,0 -0.9040710306922674,-0.608299336857918 l 24.012794886549543 -35.03538537054524" fill="#32ff4a" stroke="none" /><path d="M 88.1277618465304 117.32195027204791 l -18.59574263131359 27.131744239588 a53.892752841507054,53.892752841507054 0 0,0 -0.758617251909928,-0.5295737590179926 l 19.058754974397285 -26.80852566476488" fill="#80ff26" stroke="none" /><path d="M 87.83215693770417 117.11559508785305 l -19.729606246156937 27.75216199150125 a55.05054856872238,55.05054856872238 0 0,0 -0.765514551018947,-0.5541735001389291 l 20.20310180754984 -27.409387719989255" fill="#73ff27" stroke="none" /><path d="M 87.54013794807813 116.9041958592261 l -32.50577316662029 44.10032421501574 a75.7856175015786,75.7856175015786 0 0,0 -1.0405979185777192,-0.7808840778280417 l 33.258024074108775 -43.53582110992368" fill="#42ffd9" stroke="none" /><path d="M 87.2517909369889 116.68781488649013 l -20.753153931199094 27.1665446811306 a55.18646732266892,55.18646732266892 0 0,0 -0.7478818947973576,-0.5815574849176235 l 21.21644577063168 -26.806286144592182" fill="#71ff27" stroke="none" /><path d="M 86.96720088162412 116.46651593811092 l -16.106435013380658 20.34995448368663 a46.95260866133445,46.95260866133445 0 0,0 -0.6277099386419289,-0.505638693314813 l 16.45339572237785 -20.070467496578406" fill="#d2ff1c" stroke="none" /><path d="M 86.68645165197938 116.24036423190432 l -28.302499288879137 34.524447210419865 a65.64268048831826,65.64268048831826 0 0,0 -0.8653132730274684,-0.721875108292529 l 28.890986896068497 -34.03350991821547" fill="#35ff65" stroke="none" /><path d="M 86.40962598614128 116.0094264158162 l -19.878979185802443 23.417387495893117 a51.71722400547253,51.71722400547253 0 0,0 -0.6718819027806471,-0.5803555852155199 l 20.27804056834595 -23.072687778212874" fill="#99ff23" stroke="none" /><path d="M 86.13680546590413 115.77377054828092 l -20.1297720833399 22.903985459546377 a51.49262655230478,51.49262655230478 0 0,0 -0.6589461721584668,-0.5892337304078323 l 20.51998328232174 -22.555056199255162" fill="#9bff22" stroke="none" /><path d="M 85.86807049272751 115.53346607816431 l -8.730578740272188 9.596435407845085 a33.97361081877499,33.97361081877499 0 0,0 -0.42801933255302743,-0.39616830425347965 l 8.894027844139183 -9.44514935745923" fill="#ff810b" stroke="none" /><path d="M 85.60350026404147 115.28858382429668 l -23.96569493379551 25.450737514180897 a55.95846926962745,55.95846926962745 0 0,0 -0.6936918666544909,-0.6645411163101389 l 24.399059286315318 -25.035584267565177" fill="#69ff28" stroke="none" /><path d="M 85.34317274990678 115.03919595460226 l -14.792085147324586 15.177982472732046 a42.193794727425804,42.193794727425804 0 0,0 -0.5143786843142282,-0.5099823117204411 l 15.050455751768776 -14.921820150782944" fill="#fff016" stroke="none" /><path d="M 85.08716467003676 114.78537596483092 l -18.96866512384427 18.806540755097636 a47.7113502420543,47.7113502420543 0 0,0 -0.5716574026579706,-0.5865708553955661 l 19.288709327653052 -18.478147207634333" fill="#c8ff1d" stroke="none" /><path d="M 84.83555147118756 114.52719865689866 l -37.26287785362475 35.69699406337388 a72.60230083140391,72.60230083140391 0 0,0 -0.8544397670384317,-0.9073854228991046 l 37.870173454399435 -35.05206718053029" fill="#3effb6" stroke="none" /><path d="M 84.58840730492382 114.26474011684316 l -18.901482334845362 17.494929866386396 a46.75536071353399,46.75536071353399 0 0,0 -0.540140857479552,-0.5937094211212596 l 19.199020893166793 -17.167882869707462" fill="#d4ff1c" stroke="none" /><path d="M 84.3458050057657 113.99807769240083 l -15.836651539762771 14.161231460495271 a42.24476426015576,42.24476426015576 0 0,0 -0.47875173807593074,-0.5447315946860083 l 16.077414341797294 -13.887287587997962" fill="#fff116" stroke="none" /><path d="M 84.1078160697243 113.72728997021213 l -21.186825902047413 18.300675601403025 a48.99636260787203,48.99636260787203 0 0,0 -0.5443389411806376,-0.6412299039899911 l 21.497859406735163 -17.93427891496348" fill="#b9ff1f" stroke="none" /><path d="M 83.8745106332314 113.45245675266167 l -23.104129211581135 19.274286315131256 a51.08818538202483,51.08818538202483 0 0,0 -0.5560174889708718,-0.6782509293653721 l 23.43159351979064 -18.87483310406739" fill="#a0ff22" stroke="none" /><path d="M 83.64595745247003 113.17365903436017 l -24.16866137087248 19.468562790603354 a52.034644022311085,52.034644022311085 0 0,0 -0.5543760303527328,-0.7004360043145966 l 24.499303831866776 -19.050806842374076" fill="#95ff23" stroke="none" /><path d="M 83.4222238831116 112.89097897827486 l -11.960310665892848 9.300409915090608 a36.150797200589345,36.150797200589345 0 0,0 -0.3767395468768982,-0.49316416036377797 l 12.118202190124041 -9.09372484148596" fill="#ff9f0e" stroke="none" /><path d="M 83.20337586046588 112.60449989151573 l -19.462306017287997 14.60487726853169 a45.33277204798989,45.33277204798989 0 0,0 -0.4617423041776963,-0.6264421157942265 l 19.710150341049523 -14.268628843468584" fill="#e6ff1a" stroke="none" /><path d="M 82.98947788004972 112.3143062007846 l -20.11093234900615 14.558764109802055 a45.827549463270884,45.827549463270884 0 0,0 -0.4558420549642235,-0.6411989369716968 l 20.357889502500335 -14.211387946120855" fill="#dfff1b" stroke="none" /><path d="M 82.78059297857968 112.02048342749411 l -32.972074666081845 23.01706885729004 a61.211231845927166,61.211231845927166 0 0,0 -0.5940703463036464,-0.8667663892644124 l 33.36233474920081 -22.447667732955576" fill="#31ff2f" stroke="none" /><path d="M 82.576782715395 111.72311816256416 l -23.66422948522736 15.922349698667869 a49.52221900652494,49.52221900652494 0 0,0 -0.46851688795295215,-0.7093942831648808 l 23.934070812101037 -15.513775537163928" fill="#b2ff20" stroke="none" /><path d="M 82.37810715431573 111.42229804090323 l -17.1787723424412 11.1350726843311 a41.471933540307305,41.471933540307305 0 0,0 -0.3820993063864922,-0.6007235746474483 l 17.36738934045358 -10.838535435004978" fill="#ffe715" stroke="none" /><path d="M 81.99639281039703 110.81064883170644 l -13.720479503058364 8.238753720190514 a37.00401889075984,37.00401889075984 0 0,0 -0.3223337088559333,-0.5473931065170297 l 13.859886922044067 -8.002009445379926" fill="#ffab0f" stroke="none" /><line stroke="#e1ed5e" stroke-width="0.3" x1="26.387840678322732" x2="22.057713659400548" y1="142.50000000000003" y2="145.00000000000006" /><path d="M 25.521815274538298 143.00000000000003 a86.0,86.0 0 0,1 -11.493303480769221,-40.785679425670985" fill="none" id="id153" stroke="none" /><text fill="#e1ed5e" style="font-size:6.75px; font-family:Arial;" text-anchor="middle"><textPath startOffset="21.40746469413373" xlink:href="#id153">September</textPath></text><path d="M 81.81346652052679 110.50000000000001 l -25.469664033331906 14.704917385813522 a50.40983477162702,50.40983477162702 0 0,0 -0.42624308239172026,-0.753130684762851 l 25.718340480745002 -14.26552993095155" fill="#a8ff21" stroke="none" /><path d="M 81.63589988554817 110.18625677009913 l -28.804671792734315 15.97746588346683 a53.93916412334245,53.93916412334245 0 0,0 -0.44218466389025596,-0.8135699772614137 l 29.0747018062399 -15.48064107273083" fill="#7fff26" stroke="none" /><path d="M 81.4637452351635 109.86951160357371 l -28.85341087802625 15.362816117718161 a53.688460324142284,53.688460324142284 0 0,0 -0.42616348215205235,-0.8172246687879486 l 29.11288242915325 -14.865245205825708" fill="#82ff25" stroke="none" /><path d="M 81.29705330413844 109.54985784667822 l -26.148966314497176 13.35184851894388 a50.36052278467691,50.36052278467691 0 0,0 -0.3865292111017391,-0.7733173478570381 l 26.374315438810655 -12.900999314923089" fill="#a9ff21" stroke="none" /><path d="M 81.1358732173502 109.22738970284198 l -37.15401144028579 18.173888806699836 a62.36073984424332,62.36073984424332 0 0,0 -0.4621249813680966,-0.965663474253258 l 37.4605156796138 -17.533412830381472" fill="#31ff3c" stroke="none" /><path d="M 80.9802524753101 108.90220220490708 l -25.611204965102846 11.987337109217645 a49.27773100399916,49.27773100399916 0 0,0 -0.35202024701397755,-0.7692277692653212 l 25.813209676971884 -11.545920357737636" fill="#b5ff1f" stroke="none" /><path d="M 80.83023694016515 108.57439118712176 l -19.053886058598337 8.522560878364631 a41.87305961902757,41.87305961902757 0 0,0 -0.2878595745367175,-0.6586790403191443 l 19.197379515152022 -8.194219768269637" fill="#ffec16" stroke="none" /><path d="M 80.68587082218212 108.24405325689762 l -11.223593522894364 4.7906846787987645 a33.203266417596296,33.203266417596296 0 0,0 -0.21925880614715418,-0.5261413163874332 l 11.304178173578004 -4.59731085297005" fill="#ff760a" stroke="none" /><path d="M 80.5471966667186 107.91128576633889 l -25.74292522777802 10.469423581227998 a48.79041254472742,48.79041254472742 0 0,0 -0.3088696234593089,-0.7785532196889838 l 25.918853526203456 -10.02596934432545" fill="#bbff1f" stroke="none" /><path d="M 80.41425534168474 107.57618678355246 l -27.058581234791887 10.46684050614723 a50.01243817091139,50.01243817091139 0 0,0 -0.302859407760362,-0.8033705609465491 l 27.234271326366684 -10.000801665006536" fill="#adff20" stroke="none" /><path d="M 80.28708602549918 107.23885506374661 l -38.273383862195175 14.054516695803969 a61.7723110924016,61.7723110924016 0 0,0 -0.3569846271507856,-0.9985495371158761 l 38.509008659389906 -13.39543220230717" fill="#30ff34" stroke="none" /><path d="M 80.16572619554312 106.89939002012753 l -23.407475007034428 8.142334882138636 a45.783210113660274,45.783210113660274 0 0,0 -0.25183943882586646,-0.7445185519529816 l 23.54379986743266 -7.7393146557114925" fill="#e0ff1b" stroke="none" /><path d="M 80.05021161711548 106.5578916946017 l -31.418633457950886 10.327928870984836 a54.07259655861924,54.07259655861924 0 0,0 -0.2822983091602882,-0.8842954327115302 l 31.59129648288843 -9.787064404581916" fill="#7eff26" stroke="none" /><path d="M 79.94057633289273 106.21446072829308 l -32.5385089283352 10.080513241461098 a55.06422332140602,55.06422332140602 0 0,0 -0.27197447043039,-0.9053145571602007 l 32.70675971876921 -9.520461080710174" fill="#73ff27" stroke="none" /><path d="M 79.83685265289637 105.86919833188381 l -40.143007822800605 11.685044526752618 a62.8091059776889,62.8091059776889 0 0,0 -0.2924556711402973,-1.0378220038569066 l 40.337681986015475 -10.994214598992716" fill="#31ff41" stroke="none" /><path d="M 79.73907114497094 105.5222062557868 l -35.1738318013526 9.586784268541052 a57.45689065459902,57.45689065459902 0 0,0 -0.25119747439735446,-0.9538377257292067 l 35.333218756554686 -8.981566038439043" fill="#58ff2a" stroke="none" /><path d="M 79.64726062577567 105.17358676015961 l -33.143216234566324 8.424875961287848 a55.19724137023784,55.19724137023784 0 0,0 -0.22555294340272763,-0.9203329792137914 l 33.28295670448534 -7.854687157465956" fill="#71ff27" stroke="none" /><path d="M 79.56144815229197 104.8234425847677 l -35.99479676363057 8.494674027466575 a57.98357582614186,57.98357582614186 0 0,0 -0.22030759804636096,-0.9707159264721208 l 36.13531522323459 -7.8755237670554274" fill="#53ff2b" stroke="none" /><path d="M 79.48165901384964 104.47187691870673 l -53.710838741989875 11.70602731560061 a75.97167701536517,75.97167701536517 0 0,0 -0.26677739883927926,-1.2766264279514659 l 53.90387385165352 -10.782284436363735" fill="#42ffdb" stroke="none" /><path d="M 79.407916724674 104.11899336999214 l -8.1121148937449 1.6226501717767916 a29.272810987160597,29.272810987160597 0 0,0 -0.09433331689641772,-0.49359177546753213 l 8.138774502923475 -1.483155831275945" fill="#ff3c05" stroke="none" /><path d="M 79.34024301695615 103.76489593502545 l -20.329814010808853 3.704769334505552 a41.66462323721322,41.66462323721322 0 0,0 -0.12218682981814624,-0.704741164504605 l 20.390415658119235 -3.355235137080354" fill="#ffe915" stroke="none" /><path d="M 79.2786578344484 103.40968896794605 l -37.83765709815988 6.226172076585019 a59.34649284361186,59.34649284361186 0 0,0 -0.15678356522812242,-1.0066629577054844 l 37.93896215552627 -5.575720936948085" fill="#44ff2d" stroke="none" /><path d="M 79.22317932658666 103.0534771498775 l -40.71987356814526 5.984419148659155 a62.157276099768474,62.157276099768474 0 0,0 -0.14608582911977172,-1.0570042869363192 l 40.816603913820245 -5.28452655352275" fill="#30ff39" stroke="none" /><path d="M 79.17382384314188 102.69636545807758 l -32.80377537693814 4.247105477007344 a54.077569195958745,54.077569195958745 0 0,0 -0.11129141527610195,-0.9216525691355258 l 32.871848878473905 -3.683359230948419" fill="#7eff26" stroke="none" /><path d="M 79.13060592940153 102.33845913500099 l -56.914095865220375 6.377343153141655 a78.27027862555252,78.27027862555252 0 0,0 -0.13815676040202965,-1.3365413311799081 l 57.01518501810408 -5.3993972996788155" fill="#45fff3" stroke="none" /><path d="M 79.0935383218832 101.97986365728391 l -28.8943493988496 2.736324929412859 a50.023626604925276,50.023626604925276 0 0,0 -0.073621384660912,-0.8555920862108586 l 28.93706440620825 -2.2399117958263384" fill="#adff20" stroke="none" /><path d="M 79.06263194458094 101.62068470465958 l -35.89245388762624 2.7783029306455336 a56.999822405809304,56.999822405809304 0 0,0 -0.06714046764830645,-0.976207664299234 l 35.934858316439616 -2.1617518421919564" fill="#5dff2a" stroke="none" /><path d="M 79.03789590574601 101.26102812881392 l -62.886312282761985 3.783084386441755 a84.0,84.0 0 0,0 -0.07423364217370931,-1.440112826493077 l 62.94198751439227 -2.7029997665719474" fill="#4dd2ff" stroke="none" /><path d="M 79.01933749520258 100.90099992219065 l -34.16906345720201 1.467366605283641 a55.20055646179751,55.20055646179751 0 0,0 -0.03252972210299531,-0.9470673659885827 l 34.18921786630185 -0.8805929747309384" fill="#71ff27" stroke="none" /><path d="M 79.00696218219943 100.54070618675478 l -46.14196031252669 1.1884532208492975 a67.15726294464324,67.15726294464324 0 0,0 -0.019790824541871237,-1.152716311593997 l 46.15556256866723 -0.3961899932862482" fill="#37ff77" stroke="none" /><line stroke="#e1ed5e" stroke-width="0.3" x1="15.003131293944662" x2="10.003315487706104" y1="100.72959589197737" y2="100.7725132973878" /><path d="M 14.003168132696942 100.73817937305945 a86.0,86.0 0 0,1 10.791469493833604,-42.45332614584628" fill="none" id="id154" stroke="none" /><text fill="#e1ed5e" style="font-size:6.75px; font-family:Arial;" text-anchor="middle"><textPath startOffset="22.145653131862435" xlink:href="#id154">October</textPath></text><path d="M 79.00077361379809 100.18025310272382 l -6.306729351675823 0.05413568637109084 a27.30696169227531,27.30696169227531 0 0,0 0.0,-0.46877757818981447 l 6.306729351675823 0.05413568637108852" fill="#ff1f03" stroke="none" /><path d="M 79.00077361379809 99.81974689727619 l -36.89933916145733 -0.3167364478093997 a57.90069853715007,57.90069853715007 0 0,0 0.017062973018198622,-0.9938326359648534 l 36.88846475684046 0.9501159997433054" fill="#54ff2b" stroke="none" /><path d="M 79.00696218219943 99.45929381324524 l -25.673085641671307 -0.6612476174251408 a46.6815999263313,46.6815999263313 0 0,0 0.02750949574172153,-0.8009089530276352 l 25.657951458932736 1.1018628350169146" fill="#d5ff1c" stroke="none" /><path d="M 79.01933749520258 99.09900007780938 l -34.97968498130997 -1.5021781814185418 a56.011925121027154,56.011925121027154 0 0,0 0.049499633415422045,-0.9602796643257762 l 34.94874375843798 2.1024296391210298" fill="#68ff28" stroke="none" /><line stroke="#e1ed5e" stroke-width="0.3" x1="26.387840678322718" x2="22.05771365940052" y1="57.49999999999999" y2="54.99999999999999" /><path d="M 25.521815274538284 56.99999999999999 a86.0,86.0 0 0,1 29.574782752854787,-30.34633250058573" fill="none" id="id155" stroke="none" /><text fill="#e1ed5e" style="font-size:6.75px; font-family:Arial;" text-anchor="middle"><textPath startOffset="21.40746469413373" xlink:href="#id155">November</textPath></text><line stroke="#e1ed5e" stroke-width="0.3" x1="56.869717070023135" x2="54.33264160355391" y1="26.7553504044142" y2="22.446841604673864" /><path d="M 56.362301976729285 25.89364864446614 a86.0,86.0 0 0,1 42.16139366436587,-11.88097634709845" fill="none" id="id156" stroke="none" /><text fill="#e1ed5e" style="font-size:6.75px; font-family:Arial;" text-anchor="middle"><textPath startOffset="22.145653131862474" xlink:href="#id156">December</textPath></text></svg>