<?xml version="1.0" encoding="utf-8" ?>
<svg baseProfile="full" height="200mm" version="1.1" viewBox="0,0,200,200" width="200mm" xmlns="http://www.w3.org/2000/svg" xmlns:ev="http://www.w3.org/2001/xml-events" xmlns:xlink="http://www.w3.org/1999/xlink"><defs /><rect fill="#1a1a1a" height="200" width="200" x="0" y="0" /><text alignment-baseline="middle" fill="#e1ed5e" style="dominant-baseline: central; font-size:9.0px; font-family:Arial;" text-anchor="middle" x="100.0" y="100.0">2024</text><line stroke="#e1ed5e" stroke-width="0.3" x1="100.0" x2="100.0" y1="15.0" y2="10.0" /><path d="M 100.0 14.0 a86.0,86.0 0 0,1 42.35913384403234,11.155469271406648" fill="none" id="id145" stroke="none" /><text fill="#e1ed5e" style="font-size:6.75px; font-family:Arial;" text-anchor="middle"><textPath startOffset="22.145653131862478" xlink:href="#id145">January</textPath></text><path d="M 100.0 79.0 l 0.0 -18.617458827545008 a39.61745882754501,39.61745882754501 0 0,0 0.68008636227718,0.0058377234792407 l -0.31959343742832524 18.614715502260204" fill="#ffa60f" stroke="none" /><path d="M 100.36049292484886 79.00309439819443 l 0.5018547719901023 -29.230524503941062 a50.234832323577095,50.234832323577095 0 0,0 0.862093559014569,0.022204472023834913 l -1.0035616450754126 29.21760231456718" fill="#c5ff1e" stroke="none" /><path d="M 100.72087961077811 79.0123766808444 l 0.8750418505094466 -25.4758887231753 a46.4909121938732,46.4909121938732 0 0,0 0.7973728065905518,0.03424261919902079 l -1.3122404177008347 25.457113535550448" fill="#f6ff19" stroke="none" /><path d="M 101.08105385017728 79.02784411241856 l 1.8692072471949703 -36.262121232852046 a57.31026538100521,57.31026538100521 0 0,0 0.9820677465781973,0.05907875694480009 l -2.49141934590563 36.22469049808255" fill="#6dff28" stroke="none" /><path d="M 101.44090949804482 79.04949213459386 l 1.5431202226205685 -22.43662936856704 a43.489632221179285,43.489632221179285 0 0,0 0.7443582012435174,0.057618032426527264 l -1.9280474186393193 22.40683356914546" fill="#ffde14" stroke="none" /><path d="M 101.80034050326958 79.07731436759882 l 2.018116018171438 -23.45356722310635 a44.54023380834542,44.54023380834542 0 0,0 0.7612147314642276,0.07208782650163462 l -2.420430313020679 23.415467641099532" fill="#ffed16" stroke="none" /><path d="M 102.15924093988457 79.11130261209362 l 2.1861416291262397 -21.148937153981493 a42.2616264186364,42.2616264186364 0 0,0 0.720991594559844,0.08078861201498416 l -2.5488691252868807 21.108292781459536" fill="#ffcd13" stroke="none" /><path d="M 102.51750503828377 79.15144685158666 l 3.048791803643672 -25.248369711325 a46.43177745541429,46.43177745541429 0 0,0 0.7904947718734168,0.10234537447569136 l -3.481764397407881 25.192312740648916" fill="#f7ff18" stroke="none" /><path d="M 102.87502721639298 79.19773525538626 l 3.8723654765674844 -28.018507571737867 a49.28483659015275,49.28483659015275 0 0,0 0.8370792326635896,0.1230218207950369 l -4.352769814838756 27.947904677643947" fill="#d1ff1c" stroke="none" /><path d="M 103.23170211078529 79.25015418208739 l 4.666552162337992 -29.96261244085721 a51.323833091560715,51.323833091560715 0 0,0 0.8693829552484488,0.14305663444711814 l -5.180212620639511 29.878089807914424" fill="#b7ff1f" stroke="none" /><path d="M 103.58742460773223 79.30868818359171 l 3.2206924053204853 -18.576097928187696 a39.853229797764314,39.853229797764314 0 0,0 0.6730741126226271,0.12265652459820985 l -3.539101251494166 18.51807322965812" fill="#ffaa0f" stroke="none" /><path d="M 103.94208987418118 79.37332000966035 l 4.69112203037273 -24.54593274239583 a45.99018687601331,45.99018687601331 0 0,0 0.7741758424647032,0.15485685055194087 l -5.111794358368391 24.46178649518103" fill="#fdff18" stroke="none" /><path d="M 104.29559338865022 79.4440306129975 l 8.34240440691928 -39.92142507149934 a61.78376994624115,61.78376994624115 0 0,0 1.0363126580011122,0.225859520465462 l -9.026479481539527 39.77233409290017" fill="#3aff2e" stroke="none" /><path d="M 104.64783097203109 79.52079915486377 l 5.4435934822669205 -23.985477293272204 a45.595443297209655,45.595443297209655 0 0,0 0.7618083328079595,0.17978469224612992 l -5.854533968814765 23.888496457379844" fill="#fffb17" stroke="none" /><path d="M 104.9986988182912 79.60360301121754 l 3.113363143161316 -12.70358406187586 a34.07952897004864,34.07952897004864 0 0,0 0.567009858643182,0.14413168879229282 l -3.3309782950298925 12.6482671412483" fill="#ff5307" stroke="none" /><path d="M 105.3480935250658 79.69241777938227 l 7.400870100635964 -28.102309237557137 a50.06050004266576,50.06050004266576 0 0,0 0.8291415711118455,0.22598622223532713 l -7.882193072682503 27.97112252117767" fill="#c7ff1e" stroke="none" /><path d="M 105.69591212413111 79.78721728523813 l 6.567174973637981 -23.30458720203933 a45.21221947265125,45.21221947265125 0 0,0 0.7452265280220802,0.21692458125943767 l -6.966261514041666 23.188418926477375" fill="#fff617" stroke="none" /><path d="M 106.04205211174951 79.88797359093562 l 5.49465616993923 -18.289923349659432 a40.09744858776346,40.09744858776346 0 0,0 0.6575205723402177,0.203701554075722 l -5.807817375151078 18.192905207777063" fill="#ffad10" stroke="none" /><path d="M 106.38641147887787 79.99465700312896 l 10.922676446040555 -34.21512839715727 a56.9162897858179,56.9162897858179 0 0,0 0.928215957575937,0.3051230219668053 l -11.508415141264235 34.02258445378845" fill="#72ff27" stroke="none" /><path d="M 106.72888874123014 80.10723608172694 l 8.175017841810233 -24.167987643836597 a46.513183718747335,46.513183718747335 0 0,0 0.754165265716338,0.2623378278987406 l -8.58868887957159 24.024091383369267" fill="#f6ff19" stroke="none" /><path d="M 107.06938296918511 80.22567764915836 l 3.8808226354188347 -10.855351607590258 a32.52820206502261,32.52820206502261 0 0,0 0.5241855455233503,0.19248819304252854 l -4.066597332596309 10.787132565539007" fill="#ff3a05" stroke="none" /><path d="M 107.40779381753099 80.34994680014964 l 3.964735991109653 -10.516933255390276 a32.239440225275196,32.239440225275196 0 0,0 0.5161806688294995,0.1996697715269677 l -4.144688922432679 10.447323595725269" fill="#ff3505" stroke="none" /><path d="M 107.74402155503746 80.48000691201159 l 8.985493005189207 -22.649312131545706 a45.36658417953751,45.36658417953751 0 0,0 0.721427066561187,0.2933981074785431 l -9.372974532940834 22.49172676748787" fill="#fff817" stroke="none" /><path d="M 108.07796709384702 80.6158196554323 l 9.714180583922511 -23.310497078142447 a46.2536052564212,46.2536052564212 0 0,0 0.730289197616281,0.31171703278241697 l -10.112904856709223 23.14030539570063" fill="#faff18" stroke="none" /><path d="M 108.4095320186766 80.7573450057729 l 4.247155553664641 -9.718323070116039 a31.605853741786845,31.605853741786845 0 0,0 0.49528870751082077,0.22153633905156303 l -4.413357664031093 9.643982980154624" fill="#ff2b04" stroke="none" /><path d="M 108.73861861582097 80.90454125486305 l 9.440622646860424 -20.629464244514672 a43.687004010581106,43.687004010581106 0 0,0 0.6792523745997883,0.3179244087757247 l -9.793363735331717 20.464363604168412" fill="#ffe115" stroke="none" /><path d="M 109.06512990194946 81.05736502329252 l 3.670563734389249 -7.670066477957846 a29.503114600221863,29.503114600221863 0 0,0 0.454965775148977,0.22254655925109848 l -3.801689758800293 7.6059261686095265" fill="#ff0901" stroke="none" /><path d="M 109.3889696526874 81.21577127319529 l 11.240599497276481 -22.488728773642528 a46.14147964843417,46.14147964843417 0 0,0 0.7054653840461486,0.36021565173383546 l -11.624992103036208 22.292455170235858" fill="#fbff18" stroke="none" /><path d="M 109.71004243097381 81.37971332152246 l 7.730937565299243 -14.825092143788524 a37.71977131154536,37.71977131154536 0 0,0 0.5715644332050955,0.30432586718698257 l -7.9842908142908975 14.690195808878968" fill="#ff8a0c" stroke="none" /><line stroke="#e1ed5e" stroke-width="0.3" x1="143.13028292997686" x2="145.6673583964461" y1="26.7553504044142" y2="22.446841604673864" /><path d="M 143.63769802327073 25.89364864446614 a86.0,86.0 0 0,1 29.32050498858742,28.57503671076993" fill="none" id="id146" stroke="none" /><text fill="#e1ed5e" style="font-size:6.75px; font-family:Arial;" text-anchor="middle"><textPath startOffset="20.669276256404974" xlink:href="#id146">February</textPath></text><path d="M 110.65571695917076 81.90426304109057 l 5.897515163169341 -10.015270067026757 a32.6226640498336,32.6226640498336 0 0,0 0.48012365960166475,0.2883004625175832 l -6.068571579328441 9.912555603973253" fill="#ff3c05" stroke="none" /><path d="M 110.96478420261332 82.08984904055464 l 8.544279318906465 -13.95643813991424 a37.36419489717553,37.36419489717553 0 0,0 0.5441576713546978,0.33959463265269546 l -8.782601119050875 13.80770771042" fill="#ff850c" stroke="none" /><path d="M 111.27062007382361 82.28071324371311 l 5.530961348626979 -8.695589908303264 a31.30557214779418,31.30557214779418 0 0,0 0.4509707316725046,0.29231377979631024 l -5.679417712556491 8.599362286803059" fill="#ff2703" stroke="none" /><path d="M 111.5731344415666 82.4767994020092 l 4.770304570998151 -7.222849119499013 a29.655943339875414,29.655943339875414 0 0,0 0.4223906063305599,0.2842032506330259 l -4.893591465425713 7.139896194808868" fill="#ff0c01" stroke="none" /><path d="M 111.8722381534696 82.67804972795209 l 11.645019669433331 -16.99043171333233 a41.59808857411042,41.59808857411042 0 0,0 0.5855523419188445,0.4087610109459624 l -11.934967102525937 16.788025886581245" fill="#ffc312" stroke="none" /><path d="M 112.16784306229584 82.88440491214696 l 7.097080284783797 -9.982932212262194 a33.24857069715846,33.24857069715846 0 0,0 0.4623435248330435,0.3347010570631948 l -7.267404819990808 9.859630383825923" fill="#ff4506" stroke="none" /><path d="M 112.45986205192187 83.09580414077388 l 12.339870206920247 -16.741403876380325 a41.797764314361295,41.797764314361295 0 0,0 0.573917162393253,0.4306781381205211 l -12.625440358224267 16.52710671099579" fill="#ffc612" stroke="none" /><path d="M 114.13192950727249 84.46653392183569 l 9.639611467445292 -10.595621614103615 a35.32443041215121,35.32443041215121 0 0,0 0.44503774439746563,0.4119202921865556 l -9.820078983156721 10.428583575784685" fill="#ff6609" stroke="none" /><path d="M 117.81537515405839 88.88188828441811 l 10.761152880654697 -6.7157552889544245 a33.684785391244986,33.684785391244986 0 0,0 0.30193122481318907,0.49318196471988823 l -10.87485206992329 6.530036208109981" fill="#ff4c07" stroke="none" /><line stroke="#e1ed5e" stroke-width="0.3" x1="172.87174338648825" x2="177.1583165268699" y1="56.24261187166439" y2="53.66864786411523" /><path d="M 173.72905801456457 55.72781907015455 a86.0,86.0 0 0,1 12.242430191666344,42.057860355516425" fill="none" id="id147" stroke="none" /><text fill="#e1ed5e" style="font-size:6.75px; font-family:Arial;" text-anchor="middle"><textPath startOffset="22.145653131862474" xlink:href="#id147">March</textPath></text><path d="M 118.00360718960297 89.18935116829356 l 9.645612570344264 -5.791913207532314 a32.25095997952044,32.25095997952044 0 0,0 0.28093087875271505,0.4770820494785376 l -9.743617159226746 5.62547998976022" fill="#ff3605" stroke="none" /><path d="M 118.18653347947321 89.5 l 7.707101408950138 -4.449697073129108 a29.899394146258214,29.899394146258214 0 0,0 0.25281594316431616,0.44670154721555116 l -7.782350717135831 4.3167387558144386" fill="#ff1001" stroke="none" /><path d="M 118.36410011445183 89.81374322990088 l 14.133549434080386 -7.839641622032692 a37.1622152060756,37.1622152060756 0 0,0 0.3046499126819711,0.5605215259000498 l -14.2660446963777 7.595865262658039" fill="#ff820c" stroke="none" /><path d="M 118.53625476483649 90.13048839642627 l 7.174712143809058 -3.8201300993097043 a29.1283385954433,29.1283385954433 0 0,0 0.2312123337155283,0.44338013638846163 l -7.239232546499531 3.696403719816744" fill="#ff0300" stroke="none" /><path d="M 118.70294669586156 90.45014215332178 l 14.617996786072178 -7.464053316319296 a37.413345848621894,37.413345848621894 0 0,0 0.28715649194857984,0.5745053424051788 l -14.743973191232493 7.212016117750367" fill="#ff860c" stroke="none" /><path d="M 118.8641267826498 90.77261029715802 l 8.161891578957123 -3.9923901688706995 a30.086014165031145,30.086014165031145 0 0,0 0.22295275473289267,0.4658855080552539 l -8.229223591649928 3.851692158750342" fill="#ff1302" stroke="none" /><path d="M 119.0197475246899 91.09779779509293 l 15.1361790700612 -7.0844960752739565 a37.712091475381854,37.712091475381854 0 0,0 0.2693999801959363,0.5886875756837074 l -15.255563515112188 6.8236195173755645" fill="#ff8a0c" stroke="none" /><path d="M 119.16976305983485 91.42560881287824 l 9.673097071895503 -4.3266532834312805 a31.59663793839065,31.59663793839065 0 0,0 0.217213521927656,0.49702704660046865 l -9.74594447584013 4.159964167054962" fill="#ff2b04" stroke="none" /><path d="M 119.4528033332814 92.08871423366111 l 7.350201651998467 -2.989263023581244 a28.93480672412322,28.93480672412322 0 0,0 0.1831729307382873,0.46171544287503724 l -7.400433257702878 2.8626465634926417" fill="#ff0000" stroke="none" /><path d="M 119.58574465831526 92.42381321644754 l 15.307980989510828 -5.921455899628795 a37.413345848621894,37.413345848621894 0 0,0 0.22656331465633728,0.6009861094669711 l -15.407374987981605 5.657801509967666" fill="#ff860c" stroke="none" /><path d="M 119.83427380445688 93.10060997987247 l 20.36934198347341 -7.085514508010965 a42.566515914327155,42.566515914327155 0 0,0 0.234145387665558,0.6922092337243654 l -20.487972792711336 6.734803599812438" fill="#ffd113" stroke="none" /><path d="M 119.94978838288452 93.4421083053983 l 17.987713453610787 -5.912918693589336 a39.934636061097365,39.934636061097365 0 0,0 0.20848786547096212,0.6530852691259738 l -18.086566034859008 5.603264390771974" fill="#ffab0f" stroke="none" /><path d="M 120.05942366710727 93.78553927170692 l 9.677468226804303 -2.9981043943647907 a31.131239866882844,31.131239866882844 0 0,0 0.1537641315163274,0.5118307847443799 l -9.727508678324257 2.8315360060296872" fill="#ff2403" stroke="none" /><path d="M 120.16314734710363 94.1308016681162 l 7.758705754497258 -2.2584461685449035 a29.08072361122963,29.08072361122963 0 0,0 0.13540747648896853,0.4805133647744397 l -7.796331723060809 2.1249248798674505" fill="#ff0200" stroke="none" /><path d="M 120.26092885502905 94.47779374421319 l 15.093259570304944 -4.113735012630674 a36.64382626503968,36.64382626503968 0 0,0 0.1602042245092645,0.6083215347794728 l -15.161653275618939 3.8540329734784025" fill="#ff7a0b" stroke="none" /><path d="M 120.35273937422433 94.82641323984039 l 8.597558025855395 -2.1854656296833106 a29.870978752453283,29.870978752453283 0 0,0 0.12206202724415839,0.4980547249250891 l -8.633807579615846 2.0375550801501268" fill="#ff0f01" stroke="none" /><path d="M 120.43855184770803 95.1765574152323 l 18.420932196314823 -4.347289840732394 a39.926956224933875,39.926956224933875 0 0,0 0.15170178275296392,0.6684260456669628 l -18.492844840625455 4.030429461126404" fill="#ffab0f" stroke="none" /><path d="M 120.51834098615036 95.52812308129327 l 15.56340413225451 -3.3919714933342555 a36.92874818670535,36.92874818670535 0 0,0 0.1296766870322936,0.6205498909386795 l -15.61933853011117 3.1243051511101716" fill="#ff7e0b" stroke="none" /><path d="M 120.592083275326 95.88100663000786 l 20.003687834498972 -4.001297802851334 a41.39994880109225,41.39994880109225 0 0,0 0.1334137159380374,0.6980769370580415 l -20.06942784271917 3.657318300759978" fill="#ffc011" stroke="none" /><path d="M 120.65975698304385 96.23510406497455 l 7.834957148251239 -1.4277901885660866 a28.9639901015445,28.9639901015445 0 0,0 0.08494060078841603,0.48991481326131414 l -7.85831256653189 1.2930823423841797" fill="#ff0000" stroke="none" /><path d="M 120.7213421655516 96.59031103205396 l 15.431694995646618 -2.539279539084999 a36.639218363341584,36.639218363341584 0 0,0 0.09679472209611735,0.6214915517055632 l -15.473011209881001 2.2739998054479944" fill="#ff7a0b" stroke="none" /><path d="M 120.77682067341334 96.94652285012252 l 19.788039232907632 -2.9081603286820927 a41.0005973205905,41.0005973205905 0 0,0 0.09636210963251436,0.6972282225696719 l -19.83504585909536 2.568043797912335" fill="#ffbb11" stroke="none" /><path d="M 120.82617615685814 97.30363454192243 l 8.74119038992579 -1.1317221007042146 a29.814147964843418,29.814147964843418 0 0,0 0.0613573940469632,0.5081272416075437 l -8.759329870232417 0.9815011821732581" fill="#ff0e01" stroke="none" /><path d="M 120.86939407059847 97.66154086499901 l 15.730465100231799 -1.7626314250913149 a36.828910316579915,36.828910316579915 0 0,0 0.0650075996639478,0.6288895566082405 l -15.758405092377414 1.492337346200143" fill="#ff7d0b" stroke="none" /><path d="M 120.9064616781168 98.02013634271609 l 17.60253070893238 -1.6669779594180731 a38.68128679921496,38.68128679921496 0 0,0 0.05692849735016361,0.6615954323192219 l -17.628552828980286 1.3645614797231893" fill="#ff990e" stroke="none" /><path d="M 120.93736805541906 98.37931529534042 l 15.716617094542382 -1.2165655619510132 a36.76363170919021,36.76363170919021 0 0,0 0.043304124841511284,0.6296324712465949 l -15.735185180548958 0.946589666550084" fill="#ff7c0b" stroke="none" /><path d="M 120.96210409425399 98.7389718711861 l 15.925301419698142 -0.9580265873970303 a36.95409164604489,36.95409164604489 0 0,0 0.032657581144130435,0.6335483496532134 l -15.939400590298845 0.6845064443670863" fill="#ff7f0b" stroke="none" /><path d="M 120.98066250479742 99.09900007780936 l 15.674690221392853 -0.6731386421476464 a36.689137298404304,36.689137298404304 0 0,0 0.02162093132777938,0.6294698251029505 l -15.683935839717481 0.40396255248057605" fill="#ff7b0b" stroke="none" /><path d="M 120.99303781780057 99.45929381324524 l 26.82982553187168 -0.6910411337578288 a47.838723440566596,47.838723440566596 0 0,0 0.014097772011640248,0.8211245428692927 l -26.837734735481988 0.23036967491946977" fill="#e4ff1a" stroke="none" /><line stroke="#e1ed5e" stroke-width="0.3" x1="184.99686870605535" x2="189.99668451229388" y1="99.2704041080226" y2="99.22748670261217" /><path d="M 185.99683186730306 99.26182062694052 a86.0,86.0 0 0,1 -10.086455211305974,41.156179273409016" fill="none" id="id148" stroke="none" /><text fill="#e1ed5e" style="font-size:6.75px; font-family:Arial;" text-anchor="middle"><textPath startOffset="21.40746469413373" xlink:href="#id148">April</textPath></text><path d="M 120.99922638620191 99.81974689727618 l 19.810175558316693 -0.17004653143968418 a40.81090536735216,40.81090536735216 0 0,0 0.0,0.7005992683270197 l -19.810175558316693 -0.17004653143968176" fill="#ffb811" stroke="none" /><path d="M 120.99922638620191 100.18025310272382 l 23.62153783525598 0.20276249265596114 a44.62240805529483,44.62240805529483 0 0,0 -0.01314994402296781,0.7659183143055994 l -23.614576459634346 -0.6082277229306317" fill="#ffee16" stroke="none" /><path d="M 120.99303781780057 100.54070618675476 l 16.013291582790504 0.41244558811688004 a37.018602269818246,37.018602269818246 0 0,0 -0.02181508523944168,0.6351224044003955 l -16.003851810554217 -0.6872742570813862" fill="#ff800b" stroke="none" /><path d="M 120.98066250479742 100.90099992219065 l 24.113196416256944 1.0355244068125766 a45.1354211110163,45.1354211110163 0 0,0 -0.0398876988108913,0.7738107008469166 l -24.09186712798948 -1.449306901036224" fill="#fff517" stroke="none" /><path d="M 120.96210409425399 101.26102812881392 l 15.606396760480159 0.9388420750086058 a36.63461046164349,36.63461046164349 0 0,0 -0.04315214986104236,0.627422788384484 l -15.587980649454051 -1.2066082875474333" fill="#ff7a0b" stroke="none" /><path d="M 120.93736805541906 101.62068470465957 l 16.52595472822314 1.2792134134068303 a37.57539039167165,37.57539039167165 0 0,0 -0.05530091393927091,0.6426804459681624 l -16.50156019158613 -1.5627149067506498" fill="#ff880c" stroke="none" /><path d="M 120.9064616781168 101.97986365728391 l 31.30120345844119 2.9642565112529127 a52.44124925334927,52.44124925334927 0 0,0 -0.09256531643306062,0.8954854680040308 l -31.245705749526465 -3.501146501539875" fill="#a9ff21" stroke="none" /><path d="M 120.86939407059847 102.33845913500097 l 23.45717553032965 2.628425445159454 a44.603976448502436,44.603976448502436 0 0,0 -0.09179480031558915,0.7601926288227804 l -23.408598643754395 -3.030711750905643" fill="#ffee16" stroke="none" /><path d="M 120.82617615685814 102.69636545807757 l 16.18837690492922 2.095909492939627 a37.323491765509004,37.323491765509004 0 0,0 -0.08771995142544418,0.6346978708695769 l -16.15001243694857 -2.3734956720092892" fill="#ff840c" stroke="none" /><path d="M 120.77682067341334 103.0534771498775 l 23.161648041190464 3.4039646468999845 a44.41044457718236,44.41044457718236 0 0,0 -0.1173250094580117,0.7533107240033657 l -23.099801539594182 -3.8010635528348007" fill="#ffeb16" stroke="none" /><path d="M 120.7213421655516 103.40968896794604 l 23.202861376532308 3.8180220097841016 a44.514890349005896,44.514890349005896 0 0,0 -0.13054560221222405,0.752952342416332 l -23.133900956827848 -4.215767385121022" fill="#ffec16" stroke="none" /><path d="M 120.65975698304385 103.76489593502545 l 27.414039071084673 4.995751128440874 a48.86551753562591,48.86551753562591 0 0,0 -0.15747194053271288,0.8239597341754631 l -27.324240838269798 -5.465613427649652" fill="#d7ff1c" stroke="none" /><path d="M 120.592083275326 104.11899336999214 l 43.919552693438796 8.785140577498495 a65.78957248912025,65.78957248912025 0 0,0 -0.2310225561540067,1.1055265623036463 l -43.76227242646042 -9.53778359108755" fill="#34ff58" stroke="none" /><path d="M 120.51834098615036 104.47187691870673 l 10.923872395610681 2.380807145265899 a32.18030548681628,32.18030548681628 0 0,0 -0.12226851664782126,0.5387376444056415 l -10.881393017405196 -2.5679791236105576" fill="#ff3505" stroke="none" /><path d="M 120.43855184770803 104.8234425847677 l 23.460994918966502 5.5367309198989005 a45.10546974997867,45.10546974997867 0 0,0 -0.18431485366143158,0.7520675005366947 l -23.362492538788775 -5.938654245043694" fill="#fff517" stroke="none" /><path d="M 120.35273937422433 105.17358676015961 l 23.089329713449935 5.86921732303748 a44.82361976277839,44.82361976277839 0 0,0 -0.19596570488723986,0.744113700661193 l -22.985174527757962 -6.2647115280714765" fill="#fff116" stroke="none" /><path d="M 120.26092885502905 105.52220625578681 l 26.34985256942486 7.181769490386443 a48.31103336462155,48.31103336462155 0 0,0 -0.22494884246799934,0.7982640840752884 l -26.222685234882285 -7.633041498364739" fill="#deff1b" stroke="none" /><path d="M 120.16314734710363 105.8691983318838 l 26.98661026450205 7.855408940924379 a49.106664391159654,49.106664391159654 0 0,0 -0.24254875919037133,0.807365934636089 l -26.847785185308048 -8.31751247915119" fill="#d4ff1c" stroke="none" /><path d="M 120.05942366710727 106.21446072829308 l 23.716839582518425 7.347537528033173 a45.828910316579915,45.828910316579915 0 0,0 -0.2392602670560446,0.7494793788044743 l -23.587214599685126 -7.753585940529031" fill="#ffff18" stroke="none" /><path d="M 119.94978838288452 106.5578916946017 l 49.22016225651584 16.179644970363455 a72.81124669340387,72.81124669340387 0 0,0 -0.4005124031704325,1.1840437535831545 l -48.935164431773046 -17.02219039842077" fill="#3dffb0" stroke="none" /><path d="M 119.83427380445688 106.89939002012753 l 24.231842733491074 8.429092770070595 a46.65602867138834,46.65602867138834 0 0,0 -0.2696270336183142,0.754194800382182 l -24.083575529828817 -8.843822526833698" fill="#f4ff19" stroke="none" /><path d="M 119.71291397450082 107.23885506374661 l 19.198661955125313 7.050014599099238 a41.45217168700401,41.45217168700401 0 0,0 -0.25102115846870027,0.6658634459459074 l -19.074810112842172 -7.378546325239304" fill="#ffc112" stroke="none" /><path d="M 119.58574465831526 107.57618678355244 l 18.439484493447818 7.132788727308799 a40.77097021930199,40.77097021930199 0 0,0 -0.25810222875574695,0.6505862213192459 l -18.314323589725948 -7.448275965841609" fill="#ffb711" stroke="none" /><path d="M 119.4528033332814 107.91128576633889 l 29.35741110849988 11.939403522466819 a52.69237989589556,52.69237989589556 0 0,0 -0.3479557753059993,0.8349671918820967 l -29.148129488657396 -12.441603223790194" fill="#a6ff21" stroke="none" /><path d="M 119.31412917781788 108.2440532568976 l 20.332421922128855 8.6787018780145 a43.10717638023722,43.10717638023722 0 0,0 -0.29634360529641895,0.6780921630121504 l -20.18044443481547 -9.026456110802496" fill="#ffd914" stroke="none" /><path d="M 119.16976305983485 108.57439118712176 l 26.173025516897134 11.706861406263476 a49.6719003327929,49.6719003327929 0 0,0 -0.35483603381382123,0.7753807715915894 l -25.968205018228257 -12.154431160069754" fill="#ccff1d" stroke="none" /><path d="M 119.0197475246899 108.90220220490707 l 43.346188469650954 20.288204881159988 a68.85920300366926,68.85920300366926 0 0,0 -0.5102819175104795,1.0662929492644913 l -42.991527294180564 -21.029310332489583" fill="#38ff7f" stroke="none" /><path d="M 118.8641267826498 109.22738970284198 l 42.039502074084126 20.56362709074826 a67.79938561310692,67.79938561310692 0 0,0 -0.5203767074910381,1.041102001518906 l -41.68030545338136 -21.28226094843091" fill="#36ff72" stroke="none" /><path d="M 118.70294669586154 109.54985784667822 l 32.19762215551009 16.440335289744276 a57.1520607560372,57.1520607560372 0 0,0 -0.4536565414040411,0.8699462349993808 l -31.910657545131098 -16.990627767848157" fill="#6fff27" stroke="none" /><path d="M 118.5362547648365 109.86951160357373 l 39.33211904838333 20.94213800284841 a65.55994538783173,65.55994538783173 0 0,0 -0.5374499751180782,0.9888474199649845 l -38.96682372364992 -21.614240256288" fill="#33ff55" stroke="none" /><line stroke="#e1ed5e" stroke-width="0.3" x1="174.33088141563837" x2="178.70328620479359" y1="141.23008692659167" y2="143.65538615756765" /><path d="M 175.20536237346943 141.71514677278685 a86.0,86.0 0 0,1 -30.301960400862466,31.631185727798858" fill="none" id="id149" stroke="none" /><text fill="#e1ed5e" style="font-size:6.75px; font-family:Arial;" text-anchor="middle"><textPath startOffset="22.145653131862474" xlink:href="#id149">May</textPath></text><path d="M 118.36410011445183 110.18625677009912 l 21.90313999729617 12.14930253556542 a46.04701766362318,46.04701766362318 0 0,0 -0.3893530465395582,0.6879495261470421 l -21.691353585735232 -12.523508831811585" fill="#fcff18" stroke="none" /><path d="M 118.18653347947321 110.5 l 6.946899742534018 4.010794436385355 a29.021588872770714,29.021588872770714 0 0,0 -0.2528005513635824,0.4293106036948165 l -6.87702548104067 -4.129456208373721" fill="#ff0100" stroke="none" /><path d="M 118.00360718960297 110.81064883170644 l 34.19748238250383 20.534605597216956 a60.88906903319396,60.88906903319396 0 0,0 -0.5457749241206421,0.8914823219731783 l -33.83993949392778 -21.118625035314693" fill="#44ff2d" stroke="none" /><path d="M 117.81537515405839 111.11811171558189 l 39.8684523960709 24.880862953138465 a67.99522143527605,67.99522143527605 0 0,0 -0.6264701143669514,0.9849150737050771 l -39.435464590078055 -25.561591701522214" fill="#37ff74" stroke="none" /><path d="M 117.62189284568427 111.42229804090321 l 15.541412646124925 10.07375591119752 a39.52069289188498,39.52069289188498 0 0,0 -0.3738950397398522,0.566124744945783 l -15.366193167464347 -10.339060534482364" fill="#ffa50f" stroke="none" /><path d="M 117.423217284605 111.72311816256416 l 26.760216480642214 18.00546791869258 a53.25377591944706,53.25377591944706 0 0,0 -0.5168412421771648,0.7540868183241373 l -26.447185501649727 -18.462189472086763" fill="#9fff22" stroke="none" /><path d="M 117.21940702142032 112.02048342749411 l 24.90561899591044 17.38605632699251 a51.373752026623436,51.373752026623436 0 0,0 -0.5110095776298795,0.7187989664190827 l -24.6034943197506 -17.811032520121096" fill="#b6ff1f" stroke="none" /><path d="M 117.01052211995028 112.31430620078461 l 32.785167070530875 23.733932639075142 a61.47427254885229,61.47427254885229 0 0,0 -0.6261534640834677,0.8494974302839231 l -32.37291158686357 -24.29323637862794" fill="#3eff2e" stroke="none" /><path d="M 116.79662413953412 112.60449989151573 l 20.73569079802956 15.560448947541715 a46.924822937110676,46.924822937110676 0 0,0 -0.48901927203743106,0.6401419248265239 l -20.465519548637822 -15.914111785609117" fill="#f1ff19" stroke="none" /><path d="M 116.57777611688842 112.89097897827486 l 25.525971948806077 19.849150179852657 a53.335182182780095,53.335182182780095 0 0,0 -0.5682319372445703,0.717942490035661 l -25.181473580919945 -20.284412613803" fill="#9eff22" stroke="none" /><path d="M 116.35404254752997 113.17365903436017 l 24.655763071760994 19.860937440718907 a52.66012458400888,52.66012458400888 0 0,0 -0.5731256653793034,0.6991201228330846 l -24.311190587143063 -20.281259845250485" fill="#a6ff21" stroke="none" /><path d="M 116.1254893667686 113.45245675266167 l 41.19958054553246 34.37015540494201 a74.65363938902637,74.65363938902637 0 0,0 -0.829385710639965,0.9770142816731727 l -40.603500271385386 -35.072336469064744" fill="#40ffc6" stroke="none" /><path d="M 115.89218393027572 113.72728997021213 l 26.016857129647548 22.472741537547535 a55.37878658588617,55.37878658588617 0 0,0 -0.6275970713733146,0.7140902608174585 l -25.62724899431565 -22.916044076176284" fill="#84ff25" stroke="none" /><path d="M 115.6541949942343 113.99807769240083 l 17.714374302046448 15.840302733142474 a44.763717040703135,44.763717040703135 0 0,0 -0.5171324129970525,0.5684191101487743 l -17.439844188207516 -16.14205941884892" fill="#fff016" stroke="none" /><path d="M 115.41159269507618 114.26474011684316 l 23.616467413446376 21.859049664499477 a53.1800494922775,53.1800494922775 0 0,0 -0.6258637616015883,0.6646456261820256 l -23.237747818108527 -22.261236750626" fill="#9fff22" stroke="none" /><path d="M 115.16444852881244 114.52719865689866 l 32.32776558543746 30.969268147206375 a65.76806894786245,65.76806894786245 0 0,0 -0.7880054385764733,0.8085629994696459 l -31.791373345710177 -31.519653838743757" fill="#34ff57" stroke="none" /><path d="M 114.91283532996324 114.78537596483092 l 24.103263451649553 23.89725389081227 a54.9418039081833,54.9418039081833 0 0,0 -0.6697878915776191,0.6640632431425694 l -23.689483639941972 -24.3074971441835" fill="#8aff24" stroke="none" /><path d="M 114.65682725009322 115.03919595460226 l 28.89896168086413 29.652880544136416 a62.40583667548426,62.40583667548426 0 0,0 -0.773616968058293,0.7411075554760436 l -28.385672226940525 -30.14460022991804" fill="#34ff2f" stroke="none" /><path d="M 114.39649973595853 115.28858382429668 l 43.18949920787558 45.86575147289004 a84.0,84.0 0 0,0 -1.058280914744131,0.9795290154704817 l -42.39578852181748 -46.6003982344929" fill="#4dd2ff" stroke="none" /><path d="M 114.13192950727249 115.5334660781643 l 13.082625170861581 14.380096801384244 a40.440737264271704,40.440737264271704 0 0,0 -0.5175162116169942,0.4627661875912371 l -12.83384393242121 -14.602558518858869" fill="#ffb210" stroke="none" /><line stroke="#e1ed5e" stroke-width="0.3" x1="143.1302829299769" x2="145.66735839644613" y1="173.24464959558577" y2="177.55315839532614" /><path d="M 143.63769802327073 174.10635135553383 a86.0,86.0 0 0,1 -40.68552437913181,11.842963189579606" fill="none" id="id150" stroke="none" /><text fill="#e1ed5e" style="font-size:6.75px; font-family:Arial;" text-anchor="middle"><textPath startOffset="21.407464694133747" xlink:href="#id150">June</textPath></text><line stroke="#e1ed5e" stroke-width="0.3" x1="101.45913802915013" x2="101.54496967792366" y1="184.9874750549273" y2="189.98673829345242" /><path d="M 101.47630435890484 185.9873277026323 a86.0,86.0 0 0,1 -42.54439059252881,-10.42667462771756" fill="none" id="id151" stroke="none" /><text fill="#e1ed5e" style="font-size:6.75px; font-family:Arial;" text-anchor="middle"><textPath startOffset="22.145653131862474" xlink:href="#id151">July</textPath></text><line stroke="#e1ed5e" stroke-width="0.3" x1="58.13341422392154" x2="55.67067388415222" y1="173.97424548756322" y2="178.32567169271397" /><path d="M 57.64086615596768 174.84453072859336 a86.0,86.0 0 0,1 -31.369924170532247,-30.572349798747897" fill="none" id="id152" stroke="none" /><text fill="#e1ed5e" style="font-size:6.75px; font-family:Arial;" text-anchor="middle"><textPath startOffset="22.145653131862474" xlink:href="#id152">August</textPath></text><line stroke="#e1ed5e" stroke-width="0.3" x1="26.387840678322732" x2="22.057713659400548" y1="142.50000000000003" y2="145.00000000000006" /><path d="M 25.521815274538298 143.00000000000003 a86.0,86.0 0 0,1 -11.493303480769221,-40.785679425670985" fill="none" id="id153" stroke="none" /><text fill="#e1ed5e" style="font-size:6.75px; font-family:Arial;" text-anchor="middle"><textPath startOffset="21.40746469413373" xlink:href="#id153">September</textPath></text><line stroke="#e1ed5e" stroke-width="0.3" x1="15.003131293944662" x2="10.003315487706104" y1="100.72959589197737" y2="100.7725132973878" /><path d="M 14.003168132696942 100.73817937305945 a86.0,86.0 0 0,1 10.791469493833604,-42.45332614584628" fill="none" id="id154" stroke="none" /><text fill="#e1ed5e" style="font-size:6.75px; font-family:Arial;" text-anchor="middle"><textPath startOffset="22.145653131862435" xlink:href="#id154">October</textPath></text><line stroke="#e1ed5e" stroke-width="0.3" x1="26.387840678322718" x2="22.05771365940052" y1="57.49999999999999" y2="54.99999999999999" /><path d="M 25.521815274538284 56.99999999999999 a86.0,86.0 0 0,1 29.574782752854787,-30.34633250058573" fill="none" id="id155" stroke="none" /><text fill="#e1ed5e" style="font-size:6.75px; font-family:Arial;" text-anchor="middle"><textPath startOffset="21.40746469413373" xlink:href="#id155">November</textPath></text><line stroke="#e1ed5e" stroke-width="0.3" x1="56.869717070023135" x2="54.33264160355391" y1="26.7553504044142" y2="22.446841604673864" /><path d="M 56.362301976729285 25.89364864446614 a86.0,86.0 0 0,1 42.16139366436587,-11.88097634709845" fill="none" id="id156" stroke="none" /><text fill="#e1ed5e" style="font-size:6.75px; font-family:Arial;" text-anchor="middle"><textPath startOffset="22.145653131862474" xlink:href="#id156">December</textPath></text></svg>