<?xml version="1.0" encoding="utf-8" ?>
<svg baseProfile="full" height="200mm" version="1.1" viewBox="0,0,200,200" width="200mm" xmlns="http://www.w3.org/2000/svg" xmlns:ev="http://www.w3.org/2001/xml-events" xmlns:xlink="http://www.w3.org/1999/xlink"><defs /><rect fill="#1a1a1a" height="200" width="200" x="0" y="0" /><text alignment-baseline="middle" fill="#e1ed5e" style="dominant-baseline: central; font-size:9.0px; font-family:Arial;" text-anchor="middle" x="100.0" y="100.0">2024</text><line stroke="#e1ed5e" stroke-width="0.3" x1="100.0" x2="100.0" y1="15.0" y2="10.0" /><path d="M 100.0 14.0 a86.0,86.0 0 0,1 42.35913384403234,11.155469271406648" fill="none" id="id145" stroke="none" /><text fill="#e1ed5e" style="font-size:6.75px; font-family:Arial;" text-anchor="middle"><textPath startOffset="22.145653131862478" xlink:href="#id145">January</textPath></text><path d="M 100.0 79.0 l 0.0 -11.551755175517549 a32.55175517551755,32.55175517551755 0 0,0 0.5587941634374366,0.004796575830514703 l -0.19830123858858176 11.550052997881469" fill="#ff6409" stroke="none" /><path d="M 100.36049292484886 79.00309439819443 l 0.31139069587292895 -18.136946929723372 a39.139619844337375,39.139619844337375 0 0,0 0.6716856135348472,0.01730023877175825 l -0.6226896234785175 18.128928973601568" fill="#ffc112" stroke="none" /><path d="M 100.72087961077811 79.0123766808444 l 0.5429457005411237 -15.807271665531385 a36.816593424048285,36.816593424048285 0 0,0 0.6314470730368974,0.02711705426573667 l -0.8142185341788573 15.795622042839817" fill="#ffa10e" stroke="none" /><path d="M 101.08105385017728 79.02784411241856 l 1.1598051426842724 -22.49990992364023 a43.5297823900037,43.5297823900037 0 0,0 0.7459256211184625,0.04487303306976872 l -1.5458751159351973 22.47668491274577" fill="#fffc17" stroke="none" /><path d="M 101.44090949804482 79.04949213459386 l 0.9574747651236533 -13.921472948072065 a34.954360141896544,34.954360141896544 0 0,0 0.5982705144185898,0.04630992154317406 l -1.1963142743174766 13.902985259533837" fill="#ff870c" stroke="none" /><path d="M 101.80034050326958 79.07731436759882 l 1.2522000114867942 -14.552462237919379 a35.60623709429766,35.60623709429766 0 0,0 0.6085282875885799,0.05762826151911364 l -1.5018278624603871 14.52882222089508" fill="#ff900d" stroke="none" /><path d="M 102.15924093988457 79.11130261209362 l 1.3564564913289778 -13.122486075475676 a34.19240747604172,34.19240747604172 0 0,0 0.5833291445953461,0.06536324736006947 l -1.5815215375251206 13.097267067608636" fill="#ff7c0b" stroke="none" /><path d="M 102.51750503828377 79.15144685158666 l 1.8917134085296865 -15.666100738445367 a36.77990151956372,36.77990151956372 0 0,0 0.6261728810436478,0.08107061586891412 l -2.160364111464126 15.631318526376056" fill="#ffa10e" stroke="none" /><path d="M 102.87502721639298 79.19773525538626 l 2.4027241499388117 -17.38491503326076 a38.55016678138402,38.55016678138402 0 0,0 0.6547560316931615,0.09622658889662986 l -2.7008052872396555 17.34110737106525" fill="#ffb911" stroke="none" /><path d="M 103.23170211078529 79.25015418208739 l 2.895500862521254 -18.591192629555017 a39.81532270874146,39.81532270874146 0 0,0 0.6744383814619666,0.11097857901566296 l -3.214216747036291 18.538748052043687" fill="#ffca12" stroke="none" /><path d="M 103.58742460773223 79.30868818359171 l 1.998374241433302 -11.52609157729823 a32.69804627521576,32.69804627521576 0 0,0 0.552231490217113,0.10063497331637582 l -2.1959404652014687 11.490088430050488" fill="#ff6609" stroke="none" /><path d="M 103.94208987418118 79.37332000966035 l 2.9107459667463353 -15.230252862187577 a36.505903531529626,36.505903531529626 0 0,0 0.6145221522506463,0.12292164114675813 l -3.1717646045279384 15.17804182437796" fill="#ff9d0e" stroke="none" /><path d="M 104.29559338865022 79.4440306129975 l 5.176292542208241 -24.770433653460092 a46.30550113834913,46.30550113834913 0 0,0 0.7766922770577158,0.16927646679897565 l -5.60074723588509 24.6779257285274" fill="#dfff1b" stroke="none" /><path d="M 104.64783097203109 79.52079915486377 l 3.377639223735165 -14.882501636038386 a36.260973156139144,36.260973156139144 0 0,0 0.6058480740281137,0.14297849583185462 l -3.6326194515031633 14.822326996560305" fill="#ff990e" stroke="none" /><path d="M 104.9986988182912 79.60360301121754 l 1.9317786135811643 -7.882315964479439 a29.11558214644994,29.11558214644994 0 0,0 0.4844204898395627,0.12313779420562719 l -2.0668043966461216 7.847992938438544" fill="#ff3104" stroke="none" /><path d="M 105.3480935250658 79.69241777938227 l 4.592089622986863 -17.43691226531117 a39.03145020384392,39.03145020384392 0 0,0 0.646469729970871,0.17619819962675853 l -4.890740753892427 17.35551357154027" fill="#ffc011" stroke="none" /><path d="M 105.69591212413111 79.78721728523813 l 4.074798724840552 -14.460023159882404 a36.023190554349554,36.023190554349554 0 0,0 0.5937650824979837,0.17283636189013163 l -4.322423819720141 14.387943103689755" fill="#ff960d" stroke="none" /><path d="M 106.04205211174951 79.88797359093562 l 3.4093225846094057 -11.348526062088151 a32.849579075554615,32.849579075554615 0 0,0 0.5386695362329204,0.16688119928074033 l -3.6036327537139563 11.288328275000763" fill="#ff6909" stroke="none" /><path d="M 106.38641147887787 79.99465700312896 l 6.7772989501323275 -21.229792433223174 a43.285328532853285,43.285328532853285 0 0,0 0.705916229330936,0.23204868585901947 l -7.1407379171110055 21.110322825962132" fill="#fff917" stroke="none" /><path d="M 106.72888874123014 80.10723608172694 l 5.07243257733754 -14.995745602696088 a36.830412453010005,36.830412453010005 0 0,0 0.5971687073071993,0.20772627524189574 l -5.329107056689757 14.906460894885603" fill="#ffa10e" stroke="none" /><path d="M 107.06938296918511 80.22567764915836 l 2.4079716452837046 -6.735525254902857 a28.153015301530154,28.153015301530154 0 0,0 0.4536802757945347,0.16659768139836256 l -2.523241072732364 6.693196724495773" fill="#ff2203" stroke="none" /><path d="M 107.40779381753099 80.34994680014964 l 2.4600381786315473 -6.525543538937822 a27.973844443267858,27.973844443267858 0 0,0 0.4478848774532383,0.17325149226193023 l -2.5716953185783114 6.482352158537854" fill="#ff2003" stroke="none" /><path d="M 107.74402155503746 80.48000691201159 l 5.575315959538958 -14.05343828398285 a36.118970720601475,36.118970720601475 0 0,0 0.5743699589779996,0.23359126205224068 l -5.815740379707398 13.955659765351315" fill="#ff970e" stroke="none" /><path d="M 108.07796709384702 80.6158196554323 l 6.027451806162327 -14.463690118004514 a36.66934928786996,36.66934928786996 0 0,0 0.5789652400086596,0.24712583355845572 l -6.274852121341417 14.358089634786657" fill="#ff9f0e" stroke="none" /><path d="M 108.4095320186766 80.7573450057729 l 2.6352737826756982 -6.030022134732347 a27.580716895218934,27.580716895218934 0 0,0 0.43221163189760897,0.1933227654377849 l -2.738398817428939 5.983895618384709" fill="#ff1a02" stroke="none" /><path d="M 108.73861861582097 80.90454125486305 l 5.857714660801468 -12.80016368303423 a35.076825329591784,35.076825329591784 0 0,0 0.5453799691271229,0.25526536340049416 l -6.076583343800096 12.697722088063202" fill="#ff890c" stroke="none" /><path d="M 109.06512990194946 81.05736502329252 l 2.2775102664958764 -4.759120509090275 a26.276009953936573,26.276009953936573 0 0,0 0.40520078637477447,0.19820400948624672 l -2.358871302132718 4.719322749506807" fill="#ff0500" stroke="none" /><path d="M 109.3889696526874 81.21577127319529 l 6.974563748005665 -13.953799571044456 a36.5997776248213,36.5997776248213 0 0,0 0.5595805850793604,0.28572583391104694 l -7.213071554798605 13.832015785460575" fill="#ff9e0e" stroke="none" /><path d="M 109.71004243097381 81.37971332152246 l 4.796889782799905 -9.198668652144738 a31.37427860433102,31.37427860433102 0 0,0 0.4754117308822182,0.2531299690225469 l -4.954090329468682 9.114968215399617" fill="#ff5307" stroke="none" /><line stroke="#e1ed5e" stroke-width="0.3" x1="143.13028292997686" x2="145.6673583964461" y1="26.7553504044142" y2="22.446841604673864" /><path d="M 143.63769802327073 25.89364864446614 a86.0,86.0 0 0,1 29.32050498858742,28.57503671076993" fill="none" id="id146" stroke="none" /><text fill="#e1ed5e" style="font-size:6.75px; font-family:Arial;" text-anchor="middle"><textPath startOffset="20.669276256404974" xlink:href="#id146">February</textPath></text><path d="M 110.65571695917076 81.90426304109057 l 3.659288409868244 -6.214271716815089 a28.211627045057448,28.211627045057448 0 0,0 0.415204276373602,0.24931823817451554 l -3.7654254427992804 6.150539478104652" fill="#ff2303" stroke="none" /><path d="M 110.96478420261332 82.08984904055464 l 5.30155182603192 -8.659686480735692 a31.15365065918357,31.15365065918357 0 0,0 0.453709709082493,0.2831484146924732 l -5.449425663904126 8.567402269201674" fill="#ff5007" stroke="none" /><path d="M 111.27062007382361 82.28071324371311 l 3.4318492108095286 -5.395436974395401 a27.394398263355747,27.394398263355747 0 0,0 0.3946285271589905,0.2557934435378537 l -3.5239633702255264 5.335729689153653" fill="#ff1702" stroke="none" /><path d="M 111.5731344415666 82.4767994020092 l 2.9598771254051646 -4.481631218902364 a26.37083708370837,26.37083708370837 0 0,0 0.3756007265584015,0.2527209313563299 l -3.036374140060567 4.430160613488915" fill="#ff0701" stroke="none" /><path d="M 111.8722381534696 82.67804972795209 l 7.2254982530888565 -10.542217887888052 a33.78069571663049,33.78069571663049 0 0,0 0.4755114036857851,0.33194388984934536 l -7.405404747948403 10.41662918223358" fill="#ff760a" stroke="none" /><path d="M 112.16784306229584 82.88440491214696 l 4.403594210694197 -6.194206734552901 a28.599989410705778,28.599989410705778 0 0,0 0.39770190528711996,0.2879055095314968 l -4.509277126355285 6.11770045364833" fill="#ff2904" stroke="none" /><path d="M 112.45986205192187 83.09580414077388 l 7.656638902679006 -10.387701171562504 a33.904590459045906,33.904590459045906 0 0,0 0.46553749147954454,0.3493480125592168 l -7.833829383069317 10.254734131739273" fill="#ff780b" stroke="none" /><path d="M 114.13192950727249 84.46653392183569 l 5.9811831835120115 -6.574368067754555 a29.888018213586065,29.888018213586065 0 0,0 0.37654665779718316,0.348525964941885 l -6.09315961262316 6.470724356680295" fill="#ff3d05" stroke="none" /><path d="M 117.81537515405839 88.88188828441811 l 6.677076857541824 -4.166989793575312 a28.87065177105946,28.87065177105946 0 0,0 0.25878007382694124,0.4226978025187464 l -6.747624895824167 4.05175487493201" fill="#ff2d04" stroke="none" /><line stroke="#e1ed5e" stroke-width="0.3" x1="172.87174338648825" x2="177.1583165268699" y1="56.24261187166439" y2="53.66864786411523" /><path d="M 173.72905801456457 55.72781907015455 a86.0,86.0 0 0,1 12.242430191666344,42.057860355516425" fill="none" id="id147" stroke="none" /><text fill="#e1ed5e" style="font-size:6.75px; font-family:Arial;" text-anchor="middle"><textPath startOffset="22.145653131862474" xlink:href="#id147">March</textPath></text><path d="M 118.00360718960297 89.18935116829356 l 5.984906746008599 -3.5937645406401857 a27.980992216868746,27.980992216868746 0 0,0 0.24373614729141171,0.4139172639122555 l -6.045716603429779 3.4904961084343737" fill="#ff2003" stroke="none" /><path d="M 118.18653347947321 89.5 l 4.782099931777767 -2.7609466829035854 a26.52189336580717,26.52189336580717 0 0,0 0.22425730277277484,0.39624116607976734 l -4.828790599571918 2.6784487467247002" fill="#ff0901" stroke="none" /><path d="M 118.36410011445183 89.81374322990088 l 8.769580442525974 -4.86433844277022 a31.02832636204797,31.02832636204797 0 0,0 0.2543652703275932,0.46800344764529717 l -8.85179106246891 4.7130801616503195" fill="#ff4e07" stroke="none" /><path d="M 118.53625476483649 90.13048839642627 l 4.451763202906673 -2.370313158988215 a26.043469052787632,26.043469052787632 0 0,0 0.2067255308095448,0.3964234631102525 l -4.491796802691162 2.293543452773464" fill="#ff0200" stroke="none" /><path d="M 118.70294669586156 90.45014215332178 l 9.07017018774712 -4.631293525384965 a31.18414782654736,31.18414782654736 0 0,0 0.23934588824290126,0.47885210794009253 l -9.148335989201758 4.474909561281122" fill="#ff5007" stroke="none" /><path d="M 118.8641267826498 90.77261029715802 l 5.0642879977655815 -2.47719703441498 a26.63768729814158,26.63768729814158 0 0,0 0.19739888874136285,0.41248775634546825 l -5.1060661444668565 2.3898967760044085" fill="#ff0b01" stroke="none" /><path d="M 119.0197475246899 91.09779779509293 l 9.391691773285713 -4.395785964215361 a31.369513421930428,31.369513421930428 0 0,0 0.22409115920131145,0.48967962487014943 l -9.465767397342075 4.233917357130527" fill="#ff5307" stroke="none" /><path d="M 119.16976305983485 91.42560881287824 l 6.0019603211491175 -2.684600509796747 a27.57499867633822,27.57499867633822 0 0,0 0.1895664529661967,0.4337651423178696 l -6.047160656132284 2.581173297703028" fill="#ff1a02" stroke="none" /><path d="M 119.4528033332814 92.08871423366111 l 4.56065087942871 -1.8547770092311433 a25.92338645629269,25.92338645629269 0 0,0 0.1641090164221321,0.41366192532777707 l -4.591818570816966 1.776214066689801" fill="#ff0000" stroke="none" /><path d="M 119.58574465831526 92.42381321644754 l 9.498291375871096 -3.6741431507253592 a31.18414782654736,31.18414782654736 0 0,0 0.18884127404435358,0.500923915095659 l -9.55996333372989 3.5105509554355425" fill="#ff5007" stroke="none" /><path d="M 119.83427380445688 93.10060997987247 l 12.638763101833268 -4.396417881049426 a34.38158521734526,34.38158521734526 0 0,0 0.18912258676454505,0.5591073228879678 l -12.712371110170178 4.178808883687296" fill="#ff7f0b" stroke="none" /><path d="M 119.94978838288452 93.4421083053983 l 11.161010957953343 -3.6688459877256 a32.74855720866204,32.74855720866204 0 0,0 0.17097130368840077,0.5355651736849381 l -11.222346977419 3.4767117803492753" fill="#ff6709" stroke="none" /><path d="M 120.05942366710727 93.78553927170692 l 6.004672534013849 -1.8602629002785493 a27.286228622862286,27.286228622862286 0 0,0 0.1347727640945539,0.44861469920480124 l -6.035721618112031 1.7569105974830248" fill="#ff1502" stroke="none" /><path d="M 120.16314734710363 94.1308016681162 l 4.81411938036498 -1.401319989896634 a26.013924921903957,26.013924921903957 0 0,0 0.1211276574248752,0.42983932457536195 l -4.837465529864438 1.3184727414182589" fill="#ff0100" stroke="none" /><path d="M 120.26092885502905 94.47779374421319 l 9.36506109516618 -2.5524890460644287 a30.70667655000794,30.70667655000794 0 0,0 0.1342474246103544,0.5097593376786372 l -9.407498000581265 2.391349204012993" fill="#ff4906" stroke="none" /><path d="M 120.35273937422433 94.82641323984039 l 5.334610181871096 -1.35603704740079 a26.504262190924976,26.504262190924976 0 0,0 0.10830458554590548,0.44191966805772726 l -5.357102293933292 1.2642615547349678" fill="#ff0901" stroke="none" /><path d="M 120.43855184770803 95.1765574152323 l 11.429814391306898 -2.697405074577377 a32.74379202626145,32.74379202626145 0 0,0 0.124409474052874,0.5481710977654575 l -11.474434726917439 2.500799642872893" fill="#ff6709" stroke="none" /><path d="M 120.51834098615036 95.52812308129327 l 9.656776249583872 -2.1046494377288156 a30.883464817069942,30.883464817069942 0 0,0 0.10844844729932691,0.5189650791071428 l -9.691482407707568 1.9385679073362685" fill="#ff4c07" stroke="none" /><path d="M 120.592083275326 95.88100663000786 l 12.41188212699176 -2.482724040430707 a33.657754010695186,33.657754010695186 0 0,0 0.1084640479694689,0.5675297315203255 l -12.452672467243385 2.269291743877067" fill="#ff740a" stroke="none" /><path d="M 120.65975698304385 96.23510406497455 l 4.861431821906937 -0.8859148207659223 a25.941494149414943,25.941494149414943 0 0,0 0.07607674531980262,0.4387904503962796 l -4.875923384718973 0.80233133744905" fill="#ff0000" stroke="none" /><path d="M 120.7213421655516 96.59031103205396 l 9.575053404668964 -1.5755713940031293 a30.703817440567587,30.703817440567587 0 0,0 0.08111437986960948,0.5208125062928429 l -9.600689276676839 1.410970705778845" fill="#ff4906" stroke="none" /><path d="M 120.77682067341334 96.94652285012252 l 12.278076548443082 -1.804454433834142 a33.40996452586435,33.40996452586435 0 0,0 0.07852214052605878,0.5681470930860258 l -12.307243205524353 1.5934190325480304" fill="#ff710a" stroke="none" /><path d="M 120.82617615685814 97.30363454192243 l 5.423731147325693 -0.7022105839017682 a26.46899984116059,26.46899984116059 0 0,0 0.05447309294896451,0.45111535279355014 l -5.434986326534322 0.6090015541848051" fill="#ff0801" stroke="none" /><path d="M 120.86939407059847 97.66154086499901 l 9.760434188045558 -1.0936770090880035 a30.821517445862234,30.821517445862234 0 0,0 0.05440380532393826,0.5263074653554253 l -9.777770385851163 0.9259650214496467" fill="#ff4b06" stroke="none" /><path d="M 120.9064616781168 98.02013634271609 l 10.922012886005113 -1.0343259758786678 a31.97087944088527,31.97087944088527 0 0,0 0.047052574413573425,0.5468222377169596 l -10.938159083116426 0.8466826907860462" fill="#ff5c08" stroke="none" /><path d="M 120.93736805541906 98.37931529534042 l 9.751841781698637 -0.754854228861329 a30.781013395457194,30.781013395457194 0 0,0 0.036257159177554774,0.5271711370890336 l -9.763362902041258 0.5873396676179612" fill="#ff4a06" stroke="none" /><path d="M 120.96210409425399 98.7389718711861 l 9.881326168128476 -0.5944360447771376 a30.8991899189919,30.8991899189919 0 0,0 0.02730665961790394,0.5297419015545932 l -9.890074417202953 0.42472234984581375" fill="#ff4c07" stroke="none" /><path d="M 120.98066250479742 99.09900007780936 l 9.725827008233328 -0.41766885939155346 a30.734791126171444,30.734791126171444 0 0,0 0.018112031441565053,0.5273120334614213 l -9.731563726671741 0.25065056136601216" fill="#ff4906" stroke="none" /><path d="M 120.99303781780057 99.45929381324524 l 16.647361963678946 -0.4287769919260866 a37.65288293535236,37.65288293535236 0 0,0 0.011096068645373748,0.6462903703192129 l -16.652269463922988 0.1429397056378073" fill="#ffad10" stroke="none" /><line stroke="#e1ed5e" stroke-width="0.3" x1="184.99686870605535" x2="189.99668451229388" y1="99.2704041080226" y2="99.22748670261217" /><path d="M 185.99683186730306 99.26182062694052 a86.0,86.0 0 0,1 -10.086455211305974,41.156179273409016" fill="none" id="id148" stroke="none" /><text fill="#e1ed5e" style="font-size:6.75px; font-family:Arial;" text-anchor="middle"><textPath startOffset="21.40746469413373" xlink:href="#id148">April</textPath></text><path d="M 120.99922638620191 99.81974689727618 l 12.291811688881944 -0.10551041996831993 a33.2922645205697,33.2922645205697 0 0,0 0.0,0.5715270453842921 l -12.291811688881944 -0.10551041996831845" fill="#ff6f0a" stroke="none" /><path d="M 120.99922638620191 100.18025310272382 l 14.656684592119698 0.12581000960635397 a35.65722454598401,35.65722454598401 0 0,0 -0.010507960624022074,0.6120360264563465 l -14.652365199897007 -0.37739295203177153" fill="#ff910d" stroke="none" /><path d="M 120.99303781780057 100.54070618675476 l 9.935922277689517 0.25591411273054043 a30.939217451156882,30.939217451156882 0 0,0 -0.018232500001462718,0.530819344140027 l -9.93006509069121 -0.4264397214346781" fill="#ff4c07" stroke="none" /><path d="M 120.98066250479742 100.90099992219065 l 14.96174875851724 0.6425218681334561 a35.97553873034362,35.97553873034362 0 0,0 -0.031792800822794634,0.6167718424472183 l -14.948514368237872 -0.899265503957405" fill="#ff950d" stroke="none" /><path d="M 120.96210409425399 101.26102812881392 l 9.683452302433789 0.5825324443811007 a30.700958331127232,30.700958331127232 0 0,0 -0.036162861788021486,0.5258000737406382 l -9.6720254794807 -0.7486759422760825" fill="#ff4906" stroke="none" /><path d="M 120.93736805541906 101.62068470465957 l 10.254019349819826 0.7937259486268146 a31.284693175199877,31.284693175199877 0 0,0 -0.04604269195514957,0.5350858727543911 l -10.238883035166936 -0.9696328687568629" fill="#ff5207" stroke="none" /><path d="M 120.9064616781168 101.97986365728391 l 19.421761175913183 1.8392609760879377 a40.50865674802775,40.50865674802775 0 0,0 -0.07150280902051438,0.691724815154084 l -19.387325974411002 -2.172390313524953" fill="#ffd413" stroke="none" /><path d="M 120.86939407059847 102.33845913500097 l 14.55470111928486 1.630884618617231 a35.64578810822259,35.64578810822259 0 0,0 -0.0733588855079748,0.6075168073800588 l -14.52456014751722 -1.8804951029206984" fill="#ff910d" stroke="none" /><path d="M 120.82617615685814 102.69636545807757 l 10.044559164974086 1.300469282986154 a31.128395192460424,31.128395192460424 0 0,0 -0.07315985683735023,0.5293482795331372 l -10.020754791581526 -1.4727058707193763" fill="#ff4f07" stroke="none" /><path d="M 120.77682067341334 103.0534771498775 l 14.371332312951287 2.1120909459957065 a35.525705511727644,35.525705511727644 0 0,0 -0.0938530063107607,0.6026036261190663 l -14.332957814502258 -2.358482754046223" fill="#ff8f0d" stroke="none" /><path d="M 120.7213421655516 103.40968896794604 l 14.396904350695296 2.3690051322422767 a35.59051199237571,35.59051199237571 0 0,0 -0.1043737226950134,0.6019998962673913 l -14.354115810508048 -2.615798061430256" fill="#ff900d" stroke="none" /><path d="M 120.65975698304385 103.76489593502545 l 17.009854602321237 3.0997621366124104 a38.289987822311645,38.289987822311645 0 0,0 -0.12339168782889524,0.645637451085056 l -16.954136622210186 -3.391302152730781" fill="#ffb610" stroke="none" /><path d="M 120.592083275326 104.11899336999214 l 27.25119066100541 5.45100134630724 a48.79102027849844,48.79102027849844 0 0,0 -0.171331501264349,0.8198832562515285 l -27.153601448916696 -5.918001053844178" fill="#c0ff1e" stroke="none" /><path d="M 120.51834098615036 104.47187691870673 l 6.77804101255687 1.4772424914158457 a27.93715253878329,27.93715253878329 0 0,0 -0.10614673007626842,0.46770207810212533 l -6.751683420922938 -1.5933789034569878" fill="#ff1f03" stroke="none" /><path d="M 120.43855184770803 104.8234425847677 l 14.557070972381451 3.435429112632775 a35.95695451898131,35.95695451898131 0 0,0 -0.14693120029594472,0.5995294376025133 l -14.495952245569212 -3.684814374843388" fill="#ff950d" stroke="none" /><path d="M 120.35273937422433 105.17358676015961 l 14.326460259009894 3.641730174653267 a35.78207232487955,35.78207232487955 0 0,0 -0.15643669704904206,0.5940156193521612 l -14.26183408115612 -3.8871262983782313" fill="#ff930d" stroke="none" /><path d="M 120.26092885502905 105.52220625578681 l 16.349548486318103 4.456142143158719 a37.94594165298883,37.94594165298883 0 0,0 -0.1766862568799649,0.6269971939821857 l -16.270643737363557 -4.7361472610439135" fill="#ffb110" stroke="none" /><path d="M 120.16314734710363 105.8691983318838 l 16.74464370676653 4.874121743987547 a38.43961454969026,38.43961454969026 0 0,0 -0.18986182279694733,0.6319882588797596 l -16.658505563965956 -5.16084760645803" fill="#ffb811" stroke="none" /><path d="M 120.05942366710727 106.21446072829308 l 14.715817391196772 4.558997844603206 a36.40583470111717,36.40583470111717 0 0,0 -0.19006495403920284,0.5953757614607824 l -14.635387721380313 -4.810942639755372" fill="#ff9b0e" stroke="none" /><path d="M 119.94978838288452 106.5578916946017 l 30.54011126616769 10.03914117687771 a53.147826547360616,53.147826547360616 0 0,0 -0.2923499418077824,0.864280655774353 l -30.36327590278754 -10.561923507126224" fill="#8cff24" stroke="none" /><path d="M 119.83427380445688 106.89939002012753 l 15.035366389250909 5.230080911338873 a36.919044845661034,36.919044845661034 0 0,0 -0.213356619267117,0.5967964366146209 l -14.943369599939848 -5.487412304334415" fill="#ffa30f" stroke="none" /><path d="M 119.71291397450082 107.23885506374661 l 11.912379914868081 4.374390908394342 a33.690157251019215,33.690157251019215 0 0,0 -0.20401686951409898,0.541178985048359 l -11.835532361539542 -4.57823817363686" fill="#ff750a" stroke="none" /><path d="M 119.58574465831526 107.57618678355244 l 11.441325714974056 4.425750574222048 a33.26748557208662,33.26748557208662 0 0,0 -0.21060112440469206,0.5308524083366027 l -11.363665915603239 -4.621503999772215" fill="#ff6f0a" stroke="none" /><path d="M 119.4528033332814 107.91128576633889 l 18.215677491423207 7.408157456440338 a40.66447821252714,40.66447821252714 0 0,0 -0.26852915111841363,0.6443722080791662 l -18.08582249576831 -7.719762173960782" fill="#ffd614" stroke="none" /><path d="M 119.31412917781788 108.2440532568976 l 12.61585495342977 5.3849582945122005 a34.71705405834701,34.71705405834701 0 0,0 -0.23866506296241455,0.5461123705292601 l -12.52155600845039 -5.6007327348173055" fill="#ff840c" stroke="none" /><path d="M 119.16976305983485 108.57439118712176 l 16.239830890692936 7.263869795097244 a38.790331974373906,38.790331974373906 0 0,0 -0.2771024956945586,0.6055189621309337 l -16.11274393014332 -7.541577739442866" fill="#ffbd11" stroke="none" /><path d="M 119.0197475246899 108.90220220490707 l 26.895429802289378 12.588419177334352 a50.695663684015464,50.695663684015464 0 0,0 -0.37568080003434423,0.7850283823597136 l -26.67536974429512 -13.04826006175917" fill="#a9ff21" stroke="none" /><path d="M 118.8641267826498 109.22738970284198 l 26.084657426070414 12.759313065943712 a50.03806851273363,50.03806851273363 0 0,0 -0.38405429645712813,0.7683658606882158 l -25.861783216401555 -13.205210782795673" fill="#b1ff20" stroke="none" /><path d="M 118.70294669586154 109.54985784667822 l 19.977970775688185 10.200894226743959 a43.43161963255149,43.43161963255149 0 0,0 -0.34474764495692917,0.6610990658857768 l -19.799915061756305 -10.54233953573424" fill="#fffb17" stroke="none" /><path d="M 118.5362547648365 109.86951160357373 l 24.404781231958715 12.994171401248504 a48.64854132472071,48.64854132472071 0 0,0 -0.3988129820705252,0.7337709677674431 l -24.17812290027285 -13.411197202490552" fill="#c2ff1e" stroke="none" /><line stroke="#e1ed5e" stroke-width="0.3" x1="174.33088141563837" x2="178.70328620479359" y1="141.23008692659167" y2="143.65538615756765" /><path d="M 175.20536237346943 141.71514677278685 a86.0,86.0 0 0,1 -30.301960400862466,31.631185727798858" fill="none" id="id149" stroke="none" /><text fill="#e1ed5e" style="font-size:6.75px; font-family:Arial;" text-anchor="middle"><textPath startOffset="22.145653131862474" xlink:href="#id149">May</textPath></text><path d="M 118.36410011445183 110.18625677009912 l 13.590453625685063 7.538395532074503 a36.54116588129401,36.54116588129401 0 0,0 -0.3089758030350952,0.5459306384733772 l -13.45904445762859 -7.770582940647003" fill="#ff9d0e" stroke="none" /><path d="M 118.18653347947321 110.5 l 4.3104102336398675 2.4886165087096943 a25.97723301741939,25.97723301741939 0 0,0 -0.22628185033195664,0.3842760518013127 l -4.267054673178146 -2.5622437288045563" fill="#ff0100" stroke="none" /><path d="M 118.00360718960297 110.81064883170644 l 21.218843439432536 12.741305818488138 a45.750357388680044,45.750357388680044 0 0,0 -0.4100801380078077,0.6698350867169403 l -20.996995336969324 -13.103678021329635" fill="#e6ff1a" stroke="none" /><path d="M 117.81537515405839 111.11811171558189 l 24.737565183965422 15.43807025720494 a50.15958066394875,50.15958066394875 0 0,0 -0.4621424501875324,0.726564691515491 l -24.468905042152 -15.860448623399103" fill="#afff20" stroke="none" /><path d="M 117.62189284568427 111.42229804090321 l 9.643130978976966 6.250560995569635 a32.49171387727008,32.49171387727008 0 0,0 -0.30739568976161163,0.465436253406324 l -9.534410850294629 -6.415177127315021" fill="#ff6309" stroke="none" /><path d="M 117.423217284605 111.72311816256416 l 16.60417096080087 11.172027243032685 a41.012813046010486,41.012813046010486 0 0,0 -0.39803962956435524,0.5807517150928411 l -16.4099415944212 -11.455413693195572" fill="#ffdb14" stroke="none" /><path d="M 117.21940702142032 112.02048342749411 l 15.4534308790742 10.787694927517615 a39.846296394345316,39.846296394345316 0 0,0 -0.39634712839422886,0.5575118719972205 l -15.26596865215001 -11.051384026224339" fill="#ffcb12" stroke="none" /><path d="M 117.01052211995028 112.31430620078461 l 20.34253046537572 14.726423285716182 a46.113464287605225,46.113464287605225 0 0,0 -0.46969413719581077,0.6372303044770466 l -20.086734308596082 -15.073459899462106" fill="#e1ff1b" stroke="none" /><path d="M 116.79662413953412 112.60449989151573 l 12.866075102563048 9.654942617474521 a37.085826229681786,37.085826229681786 0 0,0 -0.38648379707370145,0.505919696666036 l -12.698439328135043 -9.874383227381434" fill="#ffa50f" stroke="none" /><path d="M 116.57777611688842 112.89097897827486 l 15.83834729009681 12.315994650166427 a41.06332397945677,41.06332397945677 0 0,0 -0.4374878116021817,0.5527515583601136 l -15.624593047853066 -12.586066152441225" fill="#ffdb14" stroke="none" /><path d="M 116.35404254752997 113.17365903436017 l 15.298400351456932 12.323308406193936 a40.644464446444644,40.644464446444644 0 0,0 -0.44235341093225894,0.5395992356788332 l -15.084600121286046 -12.584109923571262" fill="#ffd614" stroke="none" /><path d="M 116.1254893667686 113.45245675266167 l 25.56350317218695 21.325983543734605 a54.29099380526288,54.29099380526288 0 0,0 -0.6031611432080666,0.7105223100719802 l -25.19364746547177 -21.76167263625614" fill="#7fff26" stroke="none" /><path d="M 115.89218393027572 113.72728997021213 l 16.14293157739925 13.943879815667895 a42.33133901625457,42.33133901625457 0 0,0 -0.47973287303270673,0.5458479461623575 l -15.901187640407958 -14.218940039641547" fill="#ffec16" stroke="none" /><path d="M 115.6541949942343 113.99807769240083 l 10.991409564551402 9.828586209016608 a35.744903902154924,35.744903902154924 0 0,0 -0.41294266046899264,0.4538963207622224 l -10.82106920324053 -10.015820105336502" fill="#ff920d" stroke="none" /><path d="M 115.41159269507618 114.26474011684316 l 14.653538498341616 13.563096469437678 a40.96706729496479,40.96706729496479 0 0,0 -0.4821319852802193,0.5120074605996189 l -14.418550679325136 -13.812645389981794" fill="#ffda14" stroke="none" /><path d="M 115.16444852881244 114.52719865689866 l 20.05872213139946 19.215802055229073 a48.77767776777678,48.77767776777678 0 0,0 -0.5844336921707368,0.5996804539653328 l -19.725901638077918 -19.557305201262146" fill="#c0ff1e" stroke="none" /><path d="M 114.91283532996324 114.78537596483092 l 14.955585555666918 14.82776080618568 a42.06020013766083,42.06020013766083 0 0,0 -0.512750051247235,0.5083675985105481 l -14.698843584289719 -15.08230841492489" fill="#ffe915" stroke="none" /><path d="M 114.65682725009322 115.03919595460226 l 17.931218930377863 18.399010276737155 a46.69148091279716,46.69148091279716 0 0,0 -0.5788131979664626,0.5544899503676262 l -17.61273324654609 -18.70411235741036" fill="#daff1c" stroke="none" /><path d="M 114.39649973595853 115.28858382429668 l 26.79820729692878 28.458767486143817 a60.090220786784556,60.090220786784556 0 0,0 -0.7570515931120851,0.7007156524605113 l -26.305725932502725 -28.91460088473671" fill="#3fff2d" stroke="none" /><path d="M 114.13192950727249 115.5334660781643 l 18.22991007931988 20.037864587378216 a48.08958542913115,48.08958542913115 0 0,0 -0.6153977833510683,0.5502924926035694 l -17.883247269145432 -20.347852609865175" fill="#c9ff1d" stroke="none" /><path d="M 113.86319453409587 115.77377054828091 l 19.407360851073165 22.082014088427623 a50.398316302218454,50.398316302218454 0 0,0 -0.6547473748879712,0.5655551881198501 l -19.025433996422336 -22.41191340901219" fill="#acff20" stroke="none" /><path d="M 113.59037401385872 116.0094264158162 l 21.102399308541905 24.858573324234047 a53.607666649017844,53.607666649017844 0 0,0 -0.7066656197210256,0.5895255934049835 l -20.672559354658983 -25.217161101550904" fill="#87ff25" stroke="none" /><path d="M 113.31354834802062 116.24036423190432 l 17.357590645505365 21.173438282755978 a48.37883200084715,48.37883200084715 0 0,0 -0.6467771340643093,0.5209978762511366 l -16.991562741085804 -21.468284452800518" fill="#c5ff1e" stroke="none" /><path d="M 113.03279911837588 116.46651593811092 l 15.47475465665547 19.55184698833355 a45.93476994758299,45.93476994758299 0 0,0 -0.622503748692885,0.48406268016385284 l -15.136840963327355 -19.814610720118196" fill="#e3ff1b" stroke="none" /><path d="M 112.7482090630111 116.68781488649013 l 34.70073132950145 45.424371218757784 a78.1621750410335,78.1621750410335 0 0,0 -1.07322997872931,0.8053717841209127 l -33.91584836186138 -46.01336203014271" fill="#45fff1" stroke="none" /><path d="M 112.45986205192187 116.90419585922612 l 14.541704836656299 19.72861542620192 a45.50876264096998,45.50876264096998 0 0,0 -0.6328296612165224,0.4581198722888944 l -14.200894165065808 -19.975336069863893" fill="#e9ff1a" stroke="none" /><path d="M 112.16784306229584 117.11559508785304 l 14.28344947693474 20.09146045469249 a45.65124159474771,45.65124159474771 0 0,0 -0.6426062433057201,0.44858906514328756 l -13.936448142455262 -20.333694335640903" fill="#e7ff1a" stroke="none" /><path d="M 111.8722381534696 117.32195027204791 l 16.685914425256975 24.345247811043958 a50.51458675279292,50.51458675279292 0 0,0 -0.7194809715717289,0.4840989070890193 l -16.265537165588245 -24.6280963921901" fill="#abff21" stroke="none" /><path d="M 111.5731344415666 117.5232005979908 l 15.229803390182513 23.059863446812496 a48.63519881399904,48.63519881399904 0 0,0 -0.7006117342510263,0.45412806159068425 l -14.831706023674476 -23.317905350107075" fill="#c2ff1e" stroke="none" /><path d="M 111.27062007382361 117.71928675628689 l 9.500946283744991 14.937065623279617 a38.702652618203,38.702652618203 0 0,0 -0.5636504515065303,0.35175956914722395 l -9.243131703448745 -15.097960989268389" fill="#ffbb11" stroke="none" /><path d="M 110.96478420261333 117.91015095944535 l 15.70635733630172 25.655154330270403 a51.08116694022343,51.08116694022343 0 0,0 -0.7517864503830599,0.45142616287584353 l -15.263638129361224 -25.92099449368217" fill="#a4ff21" stroke="none" /><line stroke="#e1ed5e" stroke-width="0.3" x1="143.1302829299769" x2="145.66735839644613" y1="173.24464959558577" y2="177.55315839532614" /><path d="M 143.63769802327073 174.10635135553383 a86.0,86.0 0 0,1 -40.68552437913181,11.842963189579606" fill="none" id="id150" stroke="none" /><text fill="#e1ed5e" style="font-size:6.75px; font-family:Arial;" text-anchor="middle"><textPath startOffset="21.407464694133747" xlink:href="#id150">June</textPath></text><path d="M 110.65571695917076 118.09573695890943 l 13.566979825406849 23.039697768633175 a47.73743844972732,47.73743844972732 0 0,0 -0.7097137070978804,0.40975339984053005 l -13.16947365044857 -23.269198065749876" fill="#cdff1d" stroke="none" /><path d="M 110.34350942703117 118.27599006163325 l 18.01079842299897 31.823355052066454 a57.56658018743051,57.56658018743051 0 0,0 -0.8641999510507473,0.47935714504095833 l -17.46185428379213 -32.127845112540555" fill="#5aff2a" stroke="none" /><path d="M 110.02825361518725 118.45085714620011 l 9.717489937514612 17.879086981324935 a41.34923492349235,41.34923492349235 0 0,0 -0.6265613814916424,0.33360864443414023 l -9.409139740236418 -18.043266093481645" fill="#ffdf14" stroke="none" /><path d="M 109.71004243097381 118.62028667847754 l 13.765582015994067 26.397318575692196 a50.770953565944836,50.770953565944836 0 0,0 -0.7762462436985054,0.39635686300591977 l -13.310408550581979 -26.629733390370955" fill="#a8ff21" stroke="none" /><path d="M 109.3889696526874 118.78422872680471 l 17.76588863922915 35.543678175453664 a60.73637952030497,60.73637952030497 0 0,0 -0.9366120954561864,0.45814391011825273 l -17.153116294510895 -35.84341583566914" fill="#39ff2e" stroke="none" /><path d="M 109.06512990194946 118.94263497670748 l 9.697314531558444 20.263657709541427 a43.46449939111558,43.46449939111558 0 0,0 -0.6757928379582993,0.31630517094526345 l -9.348032979728638 -20.427139112057223" fill="#fffb17" stroke="none" /><path d="M 108.73861861582097 119.09545874513695 l 11.139195652996966 24.341152806544486 a47.76888865357124,47.76888865357124 0 0,0 -0.7485762388748672,0.3348286301433666 l -10.71970601126647 -24.528785187597702" fill="#ccff1d" stroke="none" /><path d="M 108.4095320186766 119.2426549942271 l 5.953123548018373 13.621911697121288 a35.86593953512998,35.86593953512998 0 0,0 -0.5662803593289158,0.24171141228590035 l -5.7184081135190254 -13.722097759066592" fill="#ff940d" stroke="none" /><path d="M 108.07796709384702 119.3841803445677 l 6.684398777949747 16.040123697146562 a38.37719066024249,38.37719066024249 0 0,0 -0.6102805530015171,0.24819578801653008 l -6.40806376375779 -16.152506741742386" fill="#ffb711" stroke="none" /><path d="M 107.74402155503746 119.51999308798841 l 17.581188132495978 44.31607897600757 a68.67612643617304,68.67612643617304 0 0,0 -1.0995627910639416,0.4253345088826064 l -16.81785307893851 -44.611353373028216" fill="#39ff87" stroke="none" /><path d="M 107.407793817531 119.65005319985036 l 10.593208474025293 28.099744026228997 a51.03017948853709,51.03017948853709 0 0,0 -0.822341253902762,0.3019750990463352 l -10.109278068468404 -28.277449974284053" fill="#a5ff21" stroke="none" /><path d="M 107.06938296918513 119.77432235084164 l 7.55661316996733 21.137191938092652 a43.44734473447345,43.44734473447345 0 0,0 -0.7044557191456344,0.24504626719446826 l -7.192651678776673 -21.263796637855712" fill="#fffb17" stroke="none" /><path d="M 106.72888874123015 119.89276391827305 l 9.521441952084288 28.148451281976023 a50.71520093185789,50.71520093185789 0 0,0 -0.8270858654660843,0.27187955199142944 l -9.03683334897047 -28.30775175536947" fill="#a9ff21" stroke="none" /><path d="M 106.38641147887787 120.00534299687104 l 15.036221790318608 47.10075059949046 a70.44257955207286,70.44257955207286 0 0,0 -1.155122005402003,0.35785975001509684 l -14.22545915204498 -47.3519269373122" fill="#3bff9c" stroke="none" /><path d="M 106.0420521117495 120.11202640906438 l 9.61649155133664 32.01017278002675 a54.42346587599937,54.42346587599937 0 0,0 -0.8970541811651651,0.2611193983294599 l -9.065577357789868 -32.170535872658725" fill="#7dff26" stroke="none" /><path d="M 105.69591212413111 120.21278271476187 l 13.518684702784837 47.97304286509659 a70.8414253190025,70.8414253190025 0 0,0 -1.1733316814402317,0.3197967673507667 l -12.69317162040991 -48.19804012659149" fill="#3cffa0" stroke="none" /><path d="M 105.3480935250658 120.30758222061773 l 6.28985214480468 23.883593094901638 a45.69794038227352,45.69794038227352 0 0,0 -0.760315165717511,0.19326914193606073 l -5.8789316858617715 -23.988047468672967" fill="#e6ff1a" stroke="none" /><path d="M 104.9986988182912 120.39639698878246 l 3.5612737437970687 14.531212162336972 a35.961243183141846,35.961243183141846 0 0,0 -0.600840187833592,0.1417966483257163 l -3.311301402223598 -14.590204954308915" fill="#ff950d" stroke="none" /><path d="M 104.64783097203109 120.47920084513623 l 7.633806353974851 33.63595932741305 a55.49134325197225,55.49134325197225 0 0,0 -0.9307684116967966,0.2028566432216769 l -7.055275525658918 -33.76204742876845" fill="#71ff27" stroke="none" /><path d="M 104.29559338865022 120.5559693870025 l 6.497146326964175 31.091197167969796 a52.7627998093927,52.7627998093927 0 0,0 -0.888182626945085,0.1776614003942293 l -5.9624672144881306 -31.198147965026887" fill="#91ff24" stroke="none" /><path d="M 103.94208987418118 120.62667999033965 l 2.7667293408563056 14.47669701989741 a35.73870916503415,35.73870916503415 0 0,0 -0.603584705169434,0.10999323974628895 l -2.5178099021358147 -14.522058433575062" fill="#ff920d" stroke="none" /><path d="M 103.58742460773223 120.69131181640829 l 8.223299014027088 47.42980345623405 a69.13739609255043,69.13739609255043 0 0,0 -1.171129865259562,0.19270897366127418 l -7.407891645714454 -47.56397842839099" fill="#39ff8c" stroke="none" /><path d="M 103.2317021107853 120.74984581791261 l 4.614175136673744 29.62631436334965 a50.98348070101128,50.98348070101128 0 0,0 -0.8659298854659906,0.12726187323019778 l -4.104920145600067 -29.70115730987873" fill="#a5ff21" stroke="none" /><path d="M 102.875027216393 120.80226474461374 l 4.770219653639059 34.51493313146963 a55.84301371313602,55.84301371313602 0 0,0 -0.9507198045192232,0.12308971276859697 l -4.177022027229061 -34.59173444043863" fill="#6dff28" stroke="none" /><path d="M 102.51750503828377 120.84855314841334 l 4.734339134691407 39.20711957721269 a60.491925663154554,60.491925663154554 0 0,0 -1.0320040575305494,0.11563820720077106 l -4.060599175560058 -39.28261354492043" fill="#3bff2e" stroke="none" /><path d="M 102.15924093988457 120.88869738790638 l 3.556135529732962 34.402385384071685 a55.585693863504,55.585693863504 0 0,0 -0.949987133198022,0.08996476921175162 l -2.965048833149925 -34.45836190878862" fill="#70ff27" stroke="none" /><path d="M 101.80034050326958 120.92268563240118 l 1.2747503966603781 14.814531895864423 a35.869275162810396,35.869275162810396 0 0,0 -0.613929982307267,0.04752206339515456 l -1.0202514195778754 -14.834231726254632" fill="#ff940d" stroke="none" /><path d="M 101.44090949804482 120.95050786540614 l 1.67028405874682 24.28556363721696 a45.342934293429344,45.342934293429344 0 0,0 -0.7769957617322419,0.04674213557512875 l -1.253143944882113 -24.31065775061678" fill="#ebff1a" stroke="none" /><path d="M 101.08105385017728 120.97215588758144 l 2.09873707249357 40.714938524258955 a61.76899454651347,61.76899454651347 0 0,0 -1.0594095537734283,0.0454956045977819 l -1.3995017581193123 -40.74496669728257" fill="#30ff31" stroke="none" /><path d="M 100.72087961077811 120.9876233191556 l 1.3682912135112 39.83630574470864 a60.859797744480325,60.859797744480325 0 0,0 -1.044431467402766,0.02690084974682638 l -0.6842464320376903 -39.853924311805514" fill="#37ff2e" stroke="none" /><line stroke="#e1ed5e" stroke-width="0.3" x1="101.45913802915013" x2="101.54496967792366" y1="184.9874750549273" y2="189.98673829345242" /><path d="M 101.47630435890484 185.9873277026323 a86.0,86.0 0 0,1 -42.54439059252881,-10.42667462771756" fill="none" id="id151" stroke="none" /><text fill="#e1ed5e" style="font-size:6.75px; font-family:Arial;" text-anchor="middle"><textPath startOffset="22.145653131862474" xlink:href="#id151">July</textPath></text><path d="M 100.36049292484886 120.99690560180557 l 0.5055037390090996 29.443058539315295 a50.44739768094457,50.44739768094457 0 0,0 -0.8659966638579483,0.007433539823707371 l -3.6062661313187956e-15 -29.44739768094457" fill="#acff21" stroke="none" /><path d="M 100.0 121.0 l 1.799952628030438e-15 14.697728596389055 a35.697728596389055,35.697728596389055 0 0,0 -0.6127989805796572,-0.005260142234004466 l 0.2523060557308032 -14.695562852349486" fill="#ff910d" stroke="none" /><path d="M 99.63950707515114 120.99690560180557 l -0.6062821920827368 35.31289819503263 a56.31810239847514,56.31810239847514 0 0,0 -0.9664902038671879,-0.024893359274838944 l 1.2123857100206685 -35.297287118407745" fill="#68ff28" stroke="none" /><path d="M 99.27912038922189 120.98762331915562 l -0.9279738970745245 27.016947504989023 a48.03287975856409,48.03287975856409 0 0,0 -0.823819330152009,-0.03537834671314252 l 1.3916189878273724 -26.99703658985005" fill="#c9ff1d" stroke="none" /><path d="M 98.91894614982273 120.97215588758144 l -1.5419668245344753 29.913744456220417 a50.95346005188754,50.95346005188754 0 0,0 -0.8731376370507383,-0.05252579205294976 l 2.05524881371766 -29.882866686342776" fill="#a6ff21" stroke="none" /><path d="M 98.55909050195518 120.95050786540614 l -2.1536969942185253 31.314281624419717 a52.3882564727061,52.3882564727061 0 0,0 -0.8966649374265474,-0.06940753706221514 l 2.6909309264203087 -31.272696320362446" fill="#95ff23" stroke="none" /><path d="M 98.19965949673042 120.92268563240118 l -4.159034535085356 48.33428562755639 a69.51289246571716,69.51289246571716 0 0,0 -1.1880098788722082,-0.11250577069841279 l 4.988143977342578 -48.25576810135279" fill="#3aff91" stroke="none" /><path d="M 97.84075906011543 120.88869738790638 l -3.0568654684491583 29.57240044243913 a50.729972997299726,50.729972997299726 0 0,0 -0.8654632398901612,-0.09697696121326198 l 3.5640646099401185 -29.515567720718895" fill="#a9ff21" stroke="none" /><path d="M 97.48249496171623 120.84855314841334 l -2.3318659621374525 19.31119529347244 a40.45147455922063,40.45147455922063 0 0,0 -0.6886809186734139,-0.08916353279459863 l 2.6630247027016605 -19.268320164477444" fill="#ffd313" stroke="none" /><path d="M 97.12497278360702 120.80226474461374 l -4.731337666309045 34.233602440190154 a55.55900884206068,55.55900884206068 0 0,0 -0.9436430291087473,-0.13868302914660582 l 5.318305801025478 -34.14733833774467" fill="#71ff27" stroke="none" /><path d="M 96.76829788921471 120.74984581791261 l -5.962524493623912 38.283684475534734 a59.74522158098163,59.74522158098163 0 0,0 -1.01203425721118,-0.1665298518998955 l 6.618836253888155 -38.17568862513917" fill="#43ff2d" stroke="none" /><path d="M 96.41257539226777 120.69131181640829 l -6.065373934954389 34.983465046416995 a56.50537406681845,56.50537406681845 0 0,0 -0.9543092166288262,-0.17390692898236737 l 6.665017885134272 -34.87418994350327" fill="#66ff29" stroke="none" /><path d="M 96.05791012581884 120.62667999033965 l -4.706123419068572 24.62442634703598 a46.07010112775984,46.07010112775984 0 0,0 -0.7755210790765369,-0.15512593554985163 l 5.128140983676067 -24.540011014823264" fill="#e2ff1b" stroke="none" /><path d="M 95.70440661134978 120.55596938700252 l -7.0912429853722125 33.93416474386358 a55.66717848255414,55.66717848255414 0 0,0 -0.9337177343964799,-0.20349943437693846 l 7.672723136387829 -33.807433851352926" fill="#6fff27" stroke="none" /><path d="M 95.35216902796893 120.47920084513623 l -10.566064623428055 46.55603030058408 a68.73997988034097,68.73997988034097 0 0,0 -1.1485070805989845,-0.2710445437987127 l 11.363703857766927 -46.36778961313914" fill="#39ff88" stroke="none" /><path d="M 95.00130118170881 120.39639698878247 l -10.48895330477897 42.798508847590114 a65.06507121300365,65.06507121300365 0 0,0 -1.0825424513208222,-0.2751780578764296 l 11.222101049325172 -42.61214555787842" fill="#34ff5b" stroke="none" /><path d="M 94.6519064749342 120.30758222061772 l -12.357745200802741 46.9243713765566 a69.52432890347859,69.52432890347859 0 0,0 -1.1515168895315908,-0.3138510488099881 l 13.161443491269026 -46.705319833602466" fill="#3aff91" stroke="none" /><path d="M 94.30408787586889 120.21278271476187 l -7.988296063294806 28.347644603663266 a50.4516863451051,50.4516863451051 0 0,0 -0.8315879088962732,-0.2420631205876663 l 8.473743984572685 -28.206337788773084" fill="#acff21" stroke="none" /><path d="M 93.95794788825049 120.11202640906438 l -9.902761127749741 32.96307109577211 a55.41843596124318,55.41843596124318 0 0,0 -0.9087551207075049,-0.28153465936972055 l 10.46715688132888 -32.78821984859574" fill="#72ff27" stroke="none" /><path d="M 93.61358852112213 120.00534299687104 l -4.530372266321054 14.191326598828724 a35.896913220733836,35.896913220733836 0 0,0 -0.5854226936539736,-0.19244006737627647 l 4.773317697622771 -14.111465610050425" fill="#ff940d" stroke="none" /><path d="M 93.27111125876986 119.89276391827306 l -13.518496225271173 39.965032010653026 a63.18949542013026,63.18949542013026 0 0,0 -1.024555164663899,-0.35639347060762394 l 14.202557161980094 -39.72708010747681" fill="#31ff43" stroke="none" /><path d="M 92.93061703081489 119.77432235084164 l -13.564912282225066 37.943473892818304 a61.29533541589454,61.29533541589454 0 0,0 -0.9877622122732479,-0.362719966278999 l 14.214263646152434 -37.70502307753059" fill="#33ff2f" stroke="none" /><path d="M 92.59220618246901 119.65005319985036 l -12.041159883026456 31.940607165580584 a55.1349076084079,55.1349076084079 0 0,0 -0.8827564401334926,-0.3414691548118252 l 12.587688585653476 -31.72919812263072" fill="#75ff27" stroke="none" /><path d="M 92.25597844496254 119.51999308798841 l -11.836475911453116 29.83565145520678 a53.09779213215439,53.09779213215439 0 0,0 -0.8443700382462032,-0.3433979437643052 l 12.34690041088976 -29.62806625486318" fill="#8dff24" stroke="none" /><path d="M 91.92203290615298 119.3841803445677 l -15.185483224812753 36.43963165848871 a60.477153597712714,60.477153597712714 0 0,0 -0.954862042215805,-0.40757382621515875 l 15.80878034219899 -36.173583182614145" fill="#3bff2e" stroke="none" /><path d="M 91.59046798132341 119.24265499422711 l -12.904063649955 29.52702294113001 a53.223592947530044,53.223592947530044 0 0,0 -0.8340557662333086,-0.373062535475101 l 13.409032819043945 -29.301156654745053" fill="#8bff24" stroke="none" /><path d="M 91.26138138417905 119.09545874513695 l -2.4617828615771344 5.379439833616666 a26.91597395033621,26.91597395033621 0 0,0 -0.41849377485360717,-0.19587621762094856 l 2.5537653503022315 -5.3363873844251914" fill="#ff0f01" stroke="none" /><path d="M 90.93487009805054 118.94263497670748 l -23.02276545044116 48.1087250595574 a74.33382750039709,74.33382750039709 0 0,0 -1.1462975318630917,-0.5607115645360932 l 23.84522323156632 -47.706419744924084" fill="#40ffc8" stroke="none" /><path d="M 90.6110303473126 118.78422872680471 l -13.45400313671253 26.917018752831886 a51.092126859744795,51.092126859744795 0 0,0 -0.7811567199723983,-0.3988641871798982 l 13.91408707839851 -26.68209661397915" fill="#a4ff21" stroke="none" /><path d="M 90.28995756902619 118.62028667847754 l -13.781005390427765 26.426894929816953 a50.804309842748985,50.804309842748985 0 0,0 -0.7698333142003613,-0.4098928787778302 l 14.232627520414688 -26.186431583316548" fill="#a8ff21" stroke="none" /><path d="M 89.97174638481275 118.45085714620012 l -16.29381672643771 29.97878756582032 a55.12061206120612,55.12061206120612 0 0,0 -0.8274806335565741,-0.45898955860397866 l 16.80604154815039 -29.694665091783193" fill="#76ff27" stroke="none" /><line stroke="#e1ed5e" stroke-width="0.3" x1="58.13341422392154" x2="55.67067388415222" y1="173.97424548756322" y2="178.32567169271397" /><path d="M 57.64086615596768 174.84453072859336 a86.0,86.0 0 0,1 -31.369924170532247,-30.572349798747897" fill="none" id="id152" stroke="none" /><text fill="#e1ed5e" style="font-size:6.75px; font-family:Arial;" text-anchor="middle"><textPath startOffset="22.145653131862474" xlink:href="#id152">August</textPath></text><path d="M 89.65649057296885 118.27599006163327 l -15.878944401130752 28.056573265732364 a53.23836501297188,53.23836501297188 0 0,0 -0.7914961217070091,-0.45697049893008995 l 16.358232990698163 -27.779855869526102" fill="#8bff24" stroke="none" /><path d="M 89.34428304082925 118.09573695890944 l -17.784083641748317 30.20126199573587 a56.04839307460158,56.04839307460158 0 0,0 -0.8248915403310902,-0.4953236689097917 l 18.29990793863683 -29.891524326290156" fill="#6bff28" stroke="none" /><path d="M 89.03521579738668 117.91015095944536 l -7.859772019164085 12.838346908505747 a36.05321120347329,36.05321120347329 0 0,0 -0.5250650123020356,-0.3276794013168721 l 8.079001160255833 -12.701531710347327" fill="#ff960d" stroke="none" /><path d="M 88.72937992617639 117.7192867562869 l -15.499713337083417 24.368123799851542 a49.879864457033946,49.879864457033946 0 0,0 -0.7185416980631276,-0.4657500475100112 l 15.915740667403554 -24.098459910637636" fill="#b3ff20" stroke="none" /><path d="M 88.4268655584334 117.5232005979908 l -26.917523321269577 40.75656108042698 a69.84311960607826,69.84311960607826 0 0,0 -0.9947779202410861,-0.6693309802662248 l 27.613197529607667 -40.28848042610363" fill="#3aff95" stroke="none" /><path d="M 88.1277618465304 117.32195027204791 l -21.38392956397725 31.199792300320276 a58.82458834118707,58.82458834118707 0 0,0 -0.8280398606351136,-0.5780361315396723 l 21.916364515786128 -30.828111352975473" fill="#4dff2c" stroke="none" /><path d="M 87.83215693770417 117.11559508785305 l -22.68780110896937 31.91323353093903 a60.15598030391275,60.15598030391275 0 0,0 -0.8365089803958539,-0.6055679920735346 l 23.23229109973918 -31.51906476749243" fill="#3fff2d" stroke="none" /><path d="M 87.54013794807813 116.9041958592261 l -37.37958615576562 50.712587577678335 a84.0,84.0 0 0,0 -1.1533880443569346,-0.8655238909439404 l 38.244627189033324 -50.06344465947038" fill="#4dd2ff" stroke="none" /><path d="M 87.2517909369889 116.68781488649013 l -23.864816301976873 31.239810610182722 a60.3122782866522,60.3122782866522 0 0,0 -0.817346410322565,-0.6355735123423906 l 24.397572656934667 -30.825536046219536" fill="#3dff2e" stroke="none" /><path d="M 86.96720088162412 116.46651593811092 l -18.521383021990097 23.401162402437397 a50.8438608566739,50.8438608566739 0 0,0 -0.6797321317940692,-0.5475440896603442 l 18.920365924139425 -23.07977001898364" fill="#a7ff21" stroke="none" /><path d="M 86.68645165197938 116.24036423190432 l -32.54608666495376 39.700933811575254 a72.33626303806852,72.33626303806852 0 0,0 -0.9535492466549423,-0.7954846957137167 l 33.2228102457706 -39.136386931949666" fill="#3effb2" stroke="none" /><path d="M 86.40962598614128 116.0094264158162 l -22.859570555528876 26.928516634840463 a56.32286758087574,56.32286758087574 0 0,0 -0.7317159064124724,-0.6320387724688494 l 23.31846594170421 -26.53213372990689" fill="#68ff28" stroke="none" /><path d="M 86.13680546590413 115.77377054828092 l -23.147966548225398 26.338136718269972 a56.06459469476359,56.06459469476359 0 0,0 -0.7174532072121845,-0.6415510819251476 l 23.596684782260954 -25.936890106461444" fill="#6bff28" stroke="none" /><path d="M 85.86807049272751 115.53346607816431 l -10.03961414912042 11.035294631420737 a35.91883305977657,35.91883305977657 0 0,0 -0.45252637508383425,-0.4188516569510936 l 10.227570295518221 -10.861325228337266" fill="#ff950d" stroke="none" /><path d="M 85.60350026404147 115.28858382429668 l -27.559035558659392 29.266740734412565 a61.20003176788268,61.20003176788268 0 0,0 -0.7586691492903183,-0.7267878832296637 l 28.057377193815025 -28.789340720877316" fill="#34ff2f" stroke="none" /><path d="M 85.34317274990678 115.03919595460226 l -17.009963687177514 17.453721239056332 a45.371525387832904,45.371525387832904 0 0,0 -0.5531179569197028,-0.5483904814214222 l 17.307073564227178 -17.15915074740625" fill="#ebff1a" stroke="none" /><path d="M 85.08716467003676 114.78537596483092 l -21.81276687750677 21.62633409283032 a51.71636575422248,51.71636575422248 0 0,0 -0.6196438200130785,-0.6358091469745438 l 22.180797498670657 -21.24870225378804" fill="#9dff22" stroke="none" /><path d="M 84.83555147118756 114.52719865689866 l -42.8499560986187 41.049288637255096 a80.33938687986446,80.33938687986446 0 0,0 -0.9454957518364152,-1.0040837233068576 l 43.54830768419137 -40.30766345400375" fill="#48f6ff" stroke="none" /><path d="M 84.58840730492382 114.26474011684316 l -21.735510913260146 20.11806440897713 a50.61703817440568,50.61703817440568 0 0,0 -0.5847528494135787,-0.6427458151274658 l 22.077661463515604 -19.74198101829199" fill="#aaff21" stroke="none" /><path d="M 84.3458050057657 113.99807769240083 l -18.21114906619983 16.284521790513633 a45.4301371313602,45.4301371313602 0 0,0 -0.5148509523860787,-0.5858058739295858 l 18.4880110825445 -15.969503638772746" fill="#eaff1a" stroke="none" /><path d="M 84.1078160697243 113.72728997021213 l -24.36351167878187 21.044621115298536 a53.19404881664637,53.19404881664637 0 0,0 -0.5909743227615079,-0.696166266229257 l 24.721180565050492 -20.623288066619725" fill="#8cff24" stroke="none" /><path d="M 83.8745106332314 113.45245675266167 l -26.568289392515666 22.16421194519311 a55.59951289246572,55.59951289246572 0 0,0 -0.6051164533502783,-0.7381436825283115 l 26.944852665104577 -21.704865980966304" fill="#70ff27" stroke="none" /><path d="M 83.64595745247003 113.17365903436017 l -27.792434142429684 22.387617621954707 a56.68788055276116,56.68788055276116 0 0,0 -0.6039515169254313,-0.7630730120958292 l 28.172652089996678 -21.907224665944195" fill="#64ff29" stroke="none" /><path d="M 83.4222238831116 112.89097897827486 l -13.753601881543782 10.694884011005724 a38.42245989304813,38.42245989304813 0 0,0 -0.40041330346559456,-0.5241538676761769 l 13.935167162363673 -10.457209230088676" fill="#ffb711" stroke="none" /><path d="M 83.20337586046588 112.60449989151573 l -22.380422727804685 16.794686450161567 a48.9811510562821,48.9811510562821 0 0,0 -0.49890329949514634,-0.6768581429181436 l 22.66542804688366 -16.408021997974544" fill="#beff1f" stroke="none" /><path d="M 82.98947788004972 112.3143062007846 l -23.126302043613546 16.741659230017824 a49.5501138349129,49.5501138349129 0 0,0 -0.49287003077309594,-0.6932834220873277 l 23.410287172916604 -16.34219858122099" fill="#b7ff1f" stroke="none" /><path d="M 82.78059297857968 112.02048342749411 l -37.915803429673886 26.468175483601872 a67.24037697887435,67.24037697887435 0 0,0 -0.6525847108905306,-0.9521405959196483 l 38.364577877379745 -25.81340015261217" fill="#37ff76" stroke="none" /><path d="M 82.576782715395 111.72311816256416 l -27.21236933263307 18.309696536452687 a53.79875046328162,53.79875046328162 0 0,0 -0.5089760444598234,-0.7706546028367083 l 27.52266981601362 -17.839862055276917" fill="#85ff25" stroke="none" /><path d="M 82.37810715431573 111.42229804090323 l -19.754503224183075 12.804630322778523 a44.5414306136496,44.5414306136496 0 0,0 -0.4103799434959133,-0.6451854334724275 l 19.97140085930488 -12.463631214627423" fill="#f5ff19" stroke="none" /><path d="M 81.99639281039703 110.81064883170644 l -15.77768487628656 9.47404643850271 a39.40361094933023,39.40361094933023 0 0,0 -0.3432360170690928,-0.5828897955440271 l 15.937994603485423 -9.201805474665123" fill="#ffc512" stroke="none" /><line stroke="#e1ed5e" stroke-width="0.3" x1="26.387840678322732" x2="22.057713659400548" y1="142.50000000000003" y2="145.00000000000006" /><path d="M 25.521815274538298 143.00000000000003 a86.0,86.0 0 0,1 -11.493303480769221,-40.785679425670985" fill="none" id="id153" stroke="none" /><text fill="#e1ed5e" style="font-size:6.75px; font-family:Arial;" text-anchor="middle"><textPath startOffset="21.40746469413373" xlink:href="#id153">September</textPath></text><path d="M 81.81346652052679 110.50000000000001 l -29.28850503608315 16.909726266744336 a54.819452533488644,54.819452533488644 0 0,0 -0.46352884370199315,-0.8190110523454581 l 29.57446724480652 -16.404458444299756" fill="#79ff26" stroke="none" /><path d="M 81.63589988554817 110.18625677009913 l -33.12355332838902 18.37307666796685 a58.8779583840737,58.8779583840737 0 0,0 -0.48267211147492284,-0.888062320620941 l 33.43407078947927 -17.80175951387132" fill="#4cff2c" stroke="none" /><path d="M 81.4637452351635 109.86951160357371 l -33.179600198232244 17.666268257145333 a58.58966484883782,58.58966484883782 0 0,0 -0.4650678272268245,-0.8918288801990027 l 33.47797609443401 -17.094093133841827" fill="#4fff2b" stroke="none" /><path d="M 81.29705330413844 109.54985784667822 l -30.06965975633758 15.353782526394392 a54.76274686292159,54.76274686292159 0 0,0 -0.4203173472442562,-0.8409162539171712 l 30.328797016793573 -14.835334416313467" fill="#7aff26" stroke="none" /><path d="M 81.1358732173502 109.22738970284198 l -42.72476659901769 20.89882430893653 a68.56223857679886,68.56223857679886 0 0,0 -0.508081259202428,-1.0616944197906943 l 43.077227116180026 -20.16231738708073" fill="#39ff86" stroke="none" /><path d="M 80.9802524753101 108.90220220490708 l -29.451268168237533 13.78468058444264 a53.51760470164663,53.51760470164663 0 0,0 -0.38230819566633745,-0.8354124031751778 l 29.683560828758925 -13.277079199052773" fill="#88ff25" stroke="none" /><path d="M 80.83023694016515 108.57439118712176 l -21.910765570126262 9.800406745830706 a45.002700270027006,45.002700270027006 0 0,0 -0.309374530320845,-0.7079094696046927 l 22.075773982464074 -9.422835206450163" fill="#efff19" stroke="none" /><path d="M 80.68587082218212 108.24405325689762 l -12.906423696364666 5.508984812585632 a35.03298565150633,35.03298565150633 0 0,0 -0.23134141421847906,-0.5551351772395886 l 12.99909095511963 -5.286617125904763" fill="#ff880c" stroke="none" /><path d="M 80.5471966667186 107.91128576633889 l -29.602738151181455 12.039175894993951 a52.957219251336895,52.957219251336895 0 0,0 -0.33524775701819953,-0.8450433477295805 l 29.805044583165778 -11.529231530050806" fill="#8eff24" stroke="none" /><path d="M 80.41425534168474 107.57618678355246 l -31.115659465602796 12.036205521791828 a54.36247154127177,54.36247154127177 0 0,0 -0.3292018253362246,-0.8732469532340029 l 31.317691974753455 -11.50029028836368" fill="#7eff26" stroke="none" /><path d="M 80.28708602549918 107.23885506374661 l -44.01197418736439 16.161806550964528 a67.88558267591466,67.88558267591466 0 0,0 -0.392313465238897,-1.097370584961235 l 44.28292782264723 -15.403901009622372" fill="#38ff7d" stroke="none" /><path d="M 80.16572619554312 106.89939002012753 l -26.91711789870174 9.363170864323164 a49.49912638322655,49.49912638322655 0 0,0 -0.2722795579378346,-0.8049461321363675 l 27.073882878211943 -8.899723057712636" fill="#b7ff1f" stroke="none" /><path d="M 80.05021161711548 106.5578916946017 l -36.12944415190486 11.876465914677269 a59.0313972573728,59.0313972573728 0 0,0 -0.3081868579227546,-0.9653909429831844 l 36.32799572560487 -11.254505938002692" fill="#4bff2c" stroke="none" /><path d="M 79.94057633289273 106.21446072829308 l -37.417230214226386 11.591953566896457 a60.1717054058347,60.1717054058347 0 0,0 -0.297201462683365,-0.9892870097357861 l 37.61070799691338 -10.947928953569948" fill="#3fff2d" stroke="none" /><path d="M 79.83685265289637 105.86919833188381 l -46.16192366114276 13.437063206674694 a69.07783131254303,69.07783131254303 0 0,0 -0.3216445004742187,-1.1414028618770455 l 46.385786653691554 -12.642652420894652" fill="#39ff8c" stroke="none" /><path d="M 79.73907114497094 105.5222062557868 l -40.44768507759108 11.024196430763666 a62.92312172393709,62.92312172393709 0 0,0 -0.2750954511838892,-1.0445822361279855 l 40.6309700095797 -10.328233690262879" fill="#31ff40" stroke="none" /><line stroke="#e1ed5e" stroke-width="0.3" x1="15.003131293944662" x2="10.003315487706104" y1="100.72959589197737" y2="100.7725132973878" /><path d="M 14.003168132696942 100.73817937305945 a86.0,86.0 0 0,1 10.791469493833604,-42.45332614584628" fill="none" id="id154" stroke="none" /><text fill="#e1ed5e" style="font-size:6.75px; font-family:Arial;" text-anchor="middle"><textPath startOffset="22.145653131862435" xlink:href="#id154">October</textPath></text><line stroke="#e1ed5e" stroke-width="0.3" x1="26.387840678322718" x2="22.05771365940052" y1="57.49999999999999" y2="54.99999999999999" /><path d="M 25.521815274538284 56.99999999999999 a86.0,86.0 0 0,1 29.574782752854787,-30.34633250058573" fill="none" id="id155" stroke="none" /><text fill="#e1ed5e" style="font-size:6.75px; font-family:Arial;" text-anchor="middle"><textPath startOffset="21.40746469413373" xlink:href="#id155">November</textPath></text><line stroke="#e1ed5e" stroke-width="0.3" x1="56.869717070023135" x2="54.33264160355391" y1="26.7553504044142" y2="22.446841604673864" /><path d="M 56.362301976729285 25.89364864446614 a86.0,86.0 0 0,1 42.16139366436587,-11.88097634709845" fill="none" id="id156" stroke="none" /><text fill="#e1ed5e" style="font-size:6.75px; font-family:Arial;" text-anchor="middle"><textPath startOffset="22.145653131862474" xlink:href="#id156">December</textPath></text></svg>