<?xml version="1.0" encoding="utf-8" ?>
<svg baseProfile="full" height="200mm" version="1.1" viewBox="0,0,200,200" width="200mm" xmlns="http://www.w3.org/2000/svg" xmlns:ev="http://www.w3.org/2001/xml-events" xmlns:xlink="http://www.w3.org/1999/xlink"><defs /><rect fill="#1a1a1a" height="200" width="200" x="0" y="0" /><text alignment-baseline="middle" fill="#e1ed5e" style="dominant-baseline: central; font-size:9.0px; font-family:Arial;" text-anchor="middle" x="100.0" y="100.0">2025</text><line stroke="#e1ed5e" stroke-width="0.3" x1="100.0" x2="100.0" y1="15.0" y2="10.0" /><path d="M 100.0 14.0 a86.0,86.0 0 0,1 42.46469731375804,11.215312516191453" fill="none" id="id157" stroke="none" /><text fill="#e1ed5e" style="font-size:6.75px; font-family:Arial;" text-anchor="middle"><textPath startOffset="22.20632615414155" xlink:href="#id157">January</textPath></text><path d="M 100.0 79.0 l 0.0 -31.41721748825357 a52.41721748825357,52.41721748825357 0 0,0 0.9022762333231551,0.007766176398985478 l -0.5407957540506267 31.412562688463144" fill="#bdff1f" stroke="none" /><path d="M 100.36148047927253 79.00311137660856 l 0.44587366315779764 -25.898935578121865 a46.902773353508,46.902773353508 0 0,0 0.8071149059737943,0.02084539680038503 l -0.8916152043264598 25.88742338917912" fill="#fff417" stroke="none" /><path d="M 100.72285384407766 79.0124445844662 l 1.0812153868700838 -31.39233198243289 a52.410946085848536,52.410946085848536 0 0,0 0.9013663648596514,0.03881473174537144 l -1.6214225841190668 31.369069524163322" fill="#bdff1f" stroke="none" /><path d="M 101.08401301168833 79.027996857942 l 1.2151119413590457 -23.508326170775668 a44.53970892729155,44.53970892729155 0 0,0 0.7653151102192347,0.04616589743333431 l -1.6195891004178922 23.48392700396203" fill="#ffd113" stroke="none" /><path d="M 101.44485096284872 79.0497635885617 l 1.3002881987769597 -18.854086592897183 a39.89887114756709,39.89887114756709 0 0,0 0.6847592664262383,0.05315049806330605 l -1.6246376545655392 18.828910832645413" fill="#ff8a0c" stroke="none" /><path d="M 101.80526077348638 79.07773832637324 l 5.411199801771951 -62.713675433331765 a83.94669307955722,83.94669307955722 0 0,0 1.438585976342854,0.1366110726545393 l -6.48991090520505 62.61123881616205" fill="#4dd3ff" stroke="none" /><path d="M 102.16513564639614 79.11191278185805 l 1.9454667116578448 -18.76883714918337 a39.86939555626344,39.86939555626344 0 0,0 0.6820197330833917,0.07663286368247801 l -2.268253148250962 18.73256833203029" fill="#ff890c" stroke="none" /><path d="M 102.52436894288641 79.15227682838746 l 3.057332040259165 -25.249245835731468 a46.433672453611536,46.433672453611536 0 0,0 0.7926565559957466,0.10290957036372932 l -3.491503324762758 25.1928779422036" fill="#ffed16" stroke="none" /><path d="M 102.88285421437855 79.19881850522331 l 4.312917040002839 -31.119773477811165 a52.41721748825357,52.41721748825357 0 0,0 0.8926677587341437,0.1315560231697659 l -4.847953779165638 31.04092297048043" fill="#bdff1f" stroke="none" /><path d="M 103.2404852339499 79.25152402106235 l 3.2023243074570846 -20.504135699779777 a41.75269769849486,41.75269769849486 0 0,0 0.7091413254269392,0.11701439485278833 l -3.554794839022899 20.445975041987364" fill="#ffa70f" stroke="none" /><path d="M 103.59715602781102 79.31037775812273 l 9.20523313758642 -52.94538096001624 a74.7396472087282,74.7396472087282 0 0,0 1.2656087235462716,0.23128190466070575 l -10.115236982235592 52.77908357400479" fill="#3fffc1" stroke="none" /><path d="M 103.95276090670814 79.375362276772 l 4.815273042121067 -25.125036493765936 a46.58230469061081,46.58230469061081 0 0,0 0.7862063574661695,0.157705599062311 l -5.247045809054361 25.03842693862642" fill="#ffef16" stroke="none" /><path d="M 104.307194497241 79.44645832069477 l 6.445742119472523 -30.75849706612837 a52.42662459186111,52.42662459186111 0 0,0 0.8816592344136824,0.19269655994698895 l -6.974244078039733 30.642987008085512" fill="#bdff1f" stroke="none" /><path d="M 104.66035177308747 79.52364482259891 l 5.615887186306026 -24.67472548468916 a46.305735844548856,46.305735844548856 0 0,0 0.7756790965658436,0.18357818097065706 l -6.039789969834393 24.574401391577634" fill="#ffeb16" stroke="none" /><path d="M 105.01212808612495 79.60689891045804 l 7.501128461457726 -30.5202238194226 a52.428506012582616,52.428506012582616 0 0,0 0.8745352207491148,0.2229385001079107 l -8.025372570891866 30.38658232314582" fill="#bdff1f" stroke="none" /><path d="M 105.36241919743992 79.69619591428918 l 9.623432851151474 -36.437340694113466 a58.686738472565104,58.686738472565104 0 0,0 0.9744852180933099,0.266363621497277 l -10.249215958468495 36.26629053178989" fill="#6cff28" stroke="none" /><path d="M 105.71112130821622 79.79150937346287 l 6.840826766482169 -24.205891650268104 a46.15396790634706,46.15396790634706 0 0,0 0.7626608740181632,0.22264162266407073 l -7.256477858223759 24.08455169868533" fill="#ffe915" stroke="none" /><path d="M 106.0581310904928 79.89281104454417 l 3.0445039616592133 -10.104835223652463 a31.553515967189615,31.553515967189615 0 0,0 0.5187016787752269,0.16116313650585673 l -3.2179910131451583 10.050931952264085" fill="#ff0000" stroke="none" /><path d="M 106.40334571778207 80.00007090966166 l 9.58914662194937 -29.950319868450357 a52.44794736003823,52.44794736003823 0 0,0 0.8574419650869798,0.28268513485382624 l -10.103271409278767 29.780821009337295" fill="#bdff1f" stroke="none" /><path d="M 106.74666289553966 80.11325718540242 l 10.101659560215564 -29.776069856319552 a52.4429302381142,52.4429302381142 0 0,0 0.8523674214248899,0.2973742566620991 l -10.612708985703728 29.597774746485246" fill="#bdff1f" stroke="none" /><path d="M 107.08798089147638 80.2323363322302 l 10.875396658505418 -30.330384165883853 a53.2212112765788,53.2212112765788 0 0,0 0.8596940718479709,0.3166325819183303 l -11.395873056125964 30.1386883161592" fill="#b2ff20" stroke="none" /><path d="M 107.4271985657038 80.35727306442388 l 7.805744960706624 -20.643869345289318 a43.070319343792306,43.070319343792306 0 0,0 0.6912106051285001,0.26817897618880765 l -8.159938730834792 20.50644766520996" fill="#ffbb11" stroke="none" /><path d="M 107.76421540070413 80.48803036053334 l 12.913024206038886 -32.45125531152558 a55.92606713386956,55.92606713386956 0 0,0 0.8913979419137562,0.36362360217600953 l -13.469706017541029 32.22417082316599" fill="#8fff24" stroke="none" /><path d="M 108.09893153111575 80.62456947434976 l 9.700964943304182 -23.20804560066016 a46.15396790634706,46.15396790634706 0 0,0 0.7303672941763641,0.3127051590526316 l -10.099015995270861 23.037620913644737" fill="#ffe915" stroke="none" /><path d="M 108.43124777332544 80.76684994638697 l 7.84248052069863 -17.890069026834183 a40.533537070956434,40.533537070956434 0 0,0 0.6366040632281468,0.2856256866074315 l -8.149266702393557 17.75242300971022" fill="#ff940d" stroke="none" /><path d="M 108.76106565485865 80.91482961587045 l 5.356009845721851 -11.667571561684204 a33.83818786334315,33.83818786334315 0 0,0 0.5272663028106372,0.24755859903883654 l -5.556054359832086 11.573647980005365" fill="#ff2703" stroke="none" /><path d="M 109.08828744355905 81.06846463323043 l 8.220224629780391 -17.123300101139293 a39.99419646412359,39.99419646412359 0 0,0 0.6180602812113284,0.3032794957840681 l -8.513756178002152 16.979265445220392" fill="#ff8b0c" stroke="none" /><path d="M 109.41281617654863 81.2277094730956 l 6.626995143011879 -13.216435529140254 a35.78483116986541,35.78483116986541 0 0,0 0.5482568634433904,0.2808384598678112 l -6.8535124940440255 13.100404543959943" fill="#ff4806" stroke="none" /><path d="M 109.73455568895987 81.39251694778311 l 11.693560405532425 -22.352096389236262 a46.22608903400494,46.22608903400494 0 0,0 0.7018770222912282,0.37491839776738195 l -12.076582474351966 22.147499264967127" fill="#ffea16" stroke="none" /><path d="M 110.05341064243156 81.56283822128135 l 15.05039287134023 -27.60123286230948 a52.43791311619017,52.43791311619017 0 0,0 0.7887558844160976,0.43894179570968167 l -15.523272844828362 27.33807566903962" fill="#bdff1f" stroke="none" /><path d="M 110.36928655335952 81.73862282372117 l 12.418866009076517 -21.87089681883072 a46.15083220514454,46.15083220514454 0 0,0 0.6874348149149319,0.39820661564579063 l -12.793497556456778 21.653886045794877" fill="#ffe915" stroke="none" /><line stroke="#e1ed5e" stroke-width="0.3" x1="143.23703022742887" x2="145.7803849466894" y1="26.81831364943548" y2="22.513508569990506" /><path d="M 143.74570117128098 25.957352633546492 a86.0,86.0 0 0,1 28.547481713284135,27.462654790039103" fill="none" id="id158" stroke="none" /><text fill="#e1ed5e" style="font-size:6.75px; font-family:Arial;" text-anchor="middle"><textPath startOffset="19.985693538727396" xlink:href="#id158">February</textPath></text><path d="M 110.68208982089419 81.91981866633111 l 12.79190251636646 -21.65118632930204 a46.14769650394203,46.14769650394203 0 0,0 0.6804322568712459,0.40995282135643923 l -13.162696839455343 21.427786898486985" fill="#ffe915" stroke="none" /><path d="M 110.99172775467656 82.1063720568725 l 9.923148344266313 -16.154068628675564 a39.958449470414905,39.958449470414905 0 0,0 0.5829763627921813,0.36505974489810966 l -10.199743859430757 15.980864542454508" fill="#ff8b0c" stroke="none" /><path d="M 111.2981086023043 82.29822771554956 l 13.637560273051001 -21.367203570673794 a46.34838138090308,46.34838138090308 0 0,0 0.6688137076161691,0.43501503969716654 l -14.00334100645145 21.1292896068171" fill="#ffec16" stroke="none" /><path d="M 111.60114157652 82.49532879139004 l 17.363255924696986 -26.198980856153113 a52.43038743330413,52.43038743330413 0 0,0 0.7479951402601981,0.5050496576820444 l -17.811655759363724 25.8962192861724" fill="#bdff1f" stroke="none" /><path d="M 111.90073688211348 82.69761687909136 l 14.286783923033347 -20.771437218605346 a46.21041052799235,46.21041052799235 0 0,0 0.6514982659235407,0.4564161697907914 l -14.642213328540539 20.52243620605062" fill="#ffea16" stroke="none" /><path d="M 112.19680574252982 82.90503203632743 l 14.689929190776885 -20.589314465285742 a46.292565899498285,46.292565899498285 0 0,0 0.6446894150147219,0.46839427736309047 l -15.042163922145395 20.333400953105976" fill="#ffeb16" stroke="none" /><path d="M 112.48926042617603 83.11751280151076 l 14.997033700608585 -20.272395708490905 a46.216681930397385,46.216681930397385 0 0,0 0.6354878413298899,0.478636267045062 l -15.343767695696856 20.011242851939997" fill="#ffea16" stroke="none" /><path d="M 112.77801427241765 83.33499621200491 l 19.131914178205324 -24.951719058540725 a52.442303097873705,52.442303097873705 0 0,0 0.7116356721597982,0.5554429298987131 l -19.558582405524554 24.61869773941879" fill="#bdff1f" stroke="none" /><path d="M 113.06298171725822 83.55741782278167 l 15.668790137184724 -19.722554545710768 a46.18908775981524,46.18908775981524 0 0,0 0.6182664567947869,0.49992847717800115 l -16.005959992544 19.44991997126864" fill="#ffe915" stroke="none" /><path d="M 113.34407831869373 83.78471172551755 l 22.010635833889783 -26.746605994599303 a55.638836903719046,55.638836903719046 0 0,0 0.7342802047726977,0.6149385547289162 l -22.4677735756216 26.36376628247657" fill="#93ff23" stroke="none" /><path d="M 113.6212207817346 84.01681056812373 l 21.291360902388245 -24.983359422647798 a53.82514732818348,53.82514732818348 0 0,0 0.6999991201942125,0.6070323391265476 l -21.718253821229222 24.61316209010158" fill="#aaff21" stroke="none" /><path d="M 113.89432698308785 84.25364557470407 l 17.362652851407407 -19.676986578365145 a47.24205622362028,47.24205622362028 0 0,0 0.6051235260726825,0.5432858764657561 l -17.698787365076083 19.375201693130094" fill="#fff917" stroke="none" /><path d="M 114.16331599549186 84.49514656593476 l 21.403165047499762 -23.43045492963792 a52.73455044994823,52.73455044994823 0 0,0 0.6649377719413907,0.6179871914832268 l -21.803310703236 23.058563152080055" fill="#b9ff1f" stroke="none" /><path d="M 114.42810811169701 84.74124197986012 l 25.969905195554333 -27.465035340543242 a58.79899657561519,58.79899657561519 0 0,0 0.7294344698439903,0.7017153820597457 l -26.43882290901074 27.013936871721196" fill="#6bff28" stroke="none" /><path d="M 114.68862486808459 84.99185889309783 l 29.245359758158784 -29.88152328175027 a62.81143983435534,62.81143983435534 0 0,0 0.7661924869288571,0.7629022128948141 l -29.755388045254964 29.373685218205335" fill="#3bff2e" stroke="none" /><path d="M 114.94478906791727 85.2469230424477 l 17.954544857845537 -17.724223528471313 a46.22922473520745,46.22922473520745 0 0,0 0.5541689489119949,0.5711198146796713 l -18.25697807046064 17.412539518241527" fill="#ffea16" stroke="none" /><path d="M 115.19652480421416 85.50635884689758 l 22.82201678409418 -21.76643185993512 a52.5376284144302,52.5376284144302 0 0,0 0.6185246938200134,0.6597990179800836 l -23.193308799884658 21.370363425076984" fill="#bbff1f" stroke="none" /><path d="M 115.4437574822437 85.77008943001954 l 28.449714709689882 -26.213626866764905 a59.68514573544636,59.68514573544636 0 0,0 0.6896657225459409,0.7615461162487436 l -28.89672407285186 25.72002796324661" fill="#60ff29" stroke="none" /><path d="M 115.68641384162765 86.03803664274999 l 33.13765854689787 -29.494744882291304 a65.36264633272279,65.36264633272279 0 0,0 0.7408019831081688,0.8468647272639197 l -33.640452393583885 28.91996459882444" fill="#32ff46" stroke="none" /><path d="M 115.9244219780498 86.31012108654704 l 23.81624948218328 -20.474311220406676 a52.40718324440551,52.40718324440551 0 0,0 0.5821923632359806,0.689132125147144 l -24.165152458906377 20.06132014563043" fill="#bdff1f" stroke="none" /><path d="M 116.15771136456269 86.58626213691792 l 28.99046245469439 -24.067174807297846 a58.67858564943856,58.67858564943856 0 0,0 0.638483109700967,0.782704797400698 l -29.40044405647177 23.56458584028905" fill="#6cff28" stroke="none" /><path d="M 116.38621287248628 86.86637796730983 l 20.816669269611392 -16.68465241444833 a47.677918690770085,47.677918690770085 0 0,0 0.5077605695696905,0.6448043594603475 l -21.100783919775047 16.323855661034944" fill="#ffff18" stroke="none" /><path d="M 116.60985879189232 87.15038557335679 l 49.829576375676965 -38.54884327992963 a84.0,84.0 0 0,0 0.874896239103546,1.1512608964758657 l -50.48574855500462 37.68539760757273" fill="#4dd2ff" stroke="none" /><path d="M 116.82858285166822 87.43820079747576 l 25.224279343436304 -18.828818500852943 a52.47679581110138,52.47679581110138 0 0,0 0.5341072971581278,0.728521753081833 l -25.54464925310806 18.391834304099618" fill="#bcff1f" stroke="none" /><path d="M 117.04232023915458 87.72973835380427 l 30.6845231908088 -22.092480528265337 a58.81028509994425,58.81028509994425 0 0,0 0.5844268726711479,0.8266303652112164 l -31.06026268328383 21.56102366272233" fill="#6bff28" stroke="none" /><line stroke="#e1ed5e" stroke-width="0.3" x1="172.23445277983987" x2="176.4835382374775" y1="55.19839476539836" y2="52.563006222186495" /><path d="M 173.08426987136738 54.67131705675599 a86.0,86.0 0 0,1 12.851231095245387,41.99856678651699" fill="none" id="id159" stroke="none" /><text fill="#e1ed5e" style="font-size:6.75px; font-family:Arial;" text-anchor="middle"><textPath startOffset="22.20632615414155" xlink:href="#id159">March</textPath></text><line stroke="#e1ed5e" stroke-width="0.3" x1="184.98032266829074" x2="189.97916517819016" y1="98.17113171792111" y2="98.06355123074" /><path d="M 185.9800911702706 98.14961562048488 a86.0,86.0 0 0,1 -9.607161424134198,41.387399972396054" fill="none" id="id160" stroke="none" /><text fill="#e1ed5e" style="font-size:6.75px; font-family:Arial;" text-anchor="middle"><textPath startOffset="21.466115282336823" xlink:href="#id160">April</textPath></text><line stroke="#e1ed5e" stroke-width="0.3" x1="174.80103733775053" x2="179.2010983576182" y1="140.37084112569926" y2="142.7455964860345" /><path d="M 175.68104954172406 140.8457921977663 a86.0,86.0 0 0,1 -30.038265399797805,32.042727171017184" fill="none" id="id161" stroke="none" /><text fill="#e1ed5e" style="font-size:6.75px; font-family:Arial;" text-anchor="middle"><textPath startOffset="22.206326154141568" xlink:href="#id161">May</textPath></text><line stroke="#e1ed5e" stroke-width="0.3" x1="143.8653032363475" x2="146.44561519142675" y1="172.8068346515853" y2="177.08958963109032" /><path d="M 144.38136562736335 173.6633856474863 a86.0,86.0 0 0,1 -40.68145358897372,12.25698825130547" fill="none" id="id162" stroke="none" /><text fill="#e1ed5e" style="font-size:6.75px; font-family:Arial;" text-anchor="middle"><textPath startOffset="21.466115282336833" xlink:href="#id162">June</textPath></text><line stroke="#e1ed5e" stroke-width="0.3" x1="102.19456741930631" x2="102.32365962044197" y1="184.97166512339345" y2="189.96999836594603" /><path d="M 102.22038585953345 185.97133177190398 a86.0,86.0 0 0,1 -42.740103519485714,-10.115201625700543" fill="none" id="id163" stroke="none" /><text fill="#e1ed5e" style="font-size:6.75px; font-family:Arial;" text-anchor="middle"><textPath startOffset="22.20632615414155" xlink:href="#id163">July</textPath></text><line stroke="#e1ed5e" stroke-width="0.3" x1="58.666819895761336" x2="56.23545636021788" y1="174.27360380694188" y2="178.64263932499728" /><path d="M 58.180547188652646 175.14741091055294 a86.0,86.0 0 0,1 -31.652253787137756,-30.449443065178592" fill="none" id="id164" stroke="none" /><text fill="#e1ed5e" style="font-size:6.75px; font-family:Arial;" text-anchor="middle"><textPath startOffset="22.20632615414155" xlink:href="#id164">August</textPath></text><line stroke="#e1ed5e" stroke-width="0.3" x1="26.63291911575756" x2="22.317208475507996" y1="142.92168965132927" y2="145.44649492493687" /><path d="M 25.769776987707644 143.4266507060508 a86.0,86.0 0 0,1 -11.730757126820373,-40.83630448921669" fill="none" id="id165" stroke="none" /><text fill="#e1ed5e" style="font-size:6.75px; font-family:Arial;" text-anchor="middle"><textPath startOffset="21.46611528233685" xlink:href="#id165">September</textPath></text><line stroke="#e1ed5e" stroke-width="0.3" x1="15.007084014347285" x2="10.007500721073583" y1="101.09737516637583" y2="101.16192664675087" /><path d="M 14.007167355692545 101.11028546245083 a86.0,86.0 0 0,1 10.666146001902534,-42.60595125391555" fill="none" id="id166" stroke="none" /><text fill="#e1ed5e" style="font-size:6.75px; font-family:Arial;" text-anchor="middle"><textPath startOffset="22.20632615414155" xlink:href="#id166">October</textPath></text><line stroke="#e1ed5e" stroke-width="0.3" x1="26.266209847984243" x2="21.928928074336255" y1="57.711370442889674" y2="55.22380399835377" /><path d="M 25.398753493254645 57.213857153982495 a86.0,86.0 0 0,1 29.58750427330803,-30.492523968695096" fill="none" id="id167" stroke="none" /><text fill="#e1ed5e" style="font-size:6.75px; font-family:Arial;" text-anchor="middle"><textPath startOffset="21.46611528233685" xlink:href="#id167">November</textPath></text><line stroke="#e1ed5e" stroke-width="0.3" x1="56.762969772571076" x2="54.21961505331055" y1="26.818313649435495" y2="22.513508569990535" /><path d="M 56.25429882871897 25.957352633546506 a86.0,86.0 0 0,1 42.265352541879196,-11.944610805530505" fill="none" id="id168" stroke="none" /><text fill="#e1ed5e" style="font-size:6.75px; font-family:Arial;" text-anchor="middle"><textPath startOffset="22.20632615414155" xlink:href="#id168">December</textPath></text></svg>