<?xml version="1.0" encoding="utf-8" ?>
<svg baseProfile="full" height="200mm" version="1.1" viewBox="0,0,200,200" width="200mm" xmlns="http://www.w3.org/2000/svg" xmlns:ev="http://www.w3.org/2001/xml-events" xmlns:xlink="http://www.w3.org/1999/xlink"><defs /><rect fill="#1a1a1a" height="200" width="200" x="0" y="0" /><text alignment-baseline="middle" fill="#e1ed5e" style="dominant-baseline: central; font-size:9.0px; font-family:Arial;" text-anchor="middle" x="100.0" y="100.0">2024</text><line stroke="#e1ed5e" stroke-width="0.3" x1="100.0" x2="100.0" y1="15.0" y2="10.0" /><path d="M 100.0 14.0 a86.0,86.0 0 0,1 42.35913384403234,11.155469271406648" fill="none" id="id145" stroke="none" /><text fill="#e1ed5e" style="font-size:6.75px; font-family:Arial;" text-anchor="middle"><textPath startOffset="22.145653131862478" xlink:href="#id145">January</textPath></text><path d="M 100.0 79.0 l 0.0 -28.758986912720076 a49.758986912720076,49.758986912720076 0 0,0 0.8541791776039213,0.007332100917125303 l -0.4936862527550665 28.754749209997385" fill="#f2ff19" stroke="none" /><path d="M 100.36049292484886 79.00309439819443 l 0.7752311931204982 -45.153330508083926 a66.15998493550512,66.15998493550512 0 0,0 1.1353894148588746,0.02924360382324365 l -1.5502339220501142 45.133369186910635" fill="#32ff48" stroke="none" /><path d="M 100.72087961077811 79.0123766808444 l 1.3517052654710746 -39.353423964376965 a60.37663120233499,60.37663120233499 0 0,0 1.0355289152754676,0.04447006722861705 l -2.0270599413473787 39.324421328722515" fill="#61ff29" stroke="none" /><path d="M 101.08105385017728 79.02784411241856 l 2.8874245006900474 -56.01526393173056 a77.0896337444685,77.0896337444685 0 0,0 1.3210066711898525,0.07946848098984027 l -3.8485755240123627 55.957443472916026" fill="#43ffdb" stroke="none" /><path d="M 101.44090949804482 79.04949213459386 l 2.383707395202581 -34.658582374383954 a55.74045758403164,55.74045758403164 0 0,0 0.9540404143389024,0.07384876184310749 l -2.978316804316717 34.61255584554579" fill="#9eff22" stroke="none" /><path d="M 101.80034050326958 79.07731436759882 l 3.1174486643189456 -36.229478957030096 a57.36335561623199,57.36335561623199 0 0,0 0.9803682560174491,0.09284189312988508 l -3.738916483721408 36.17062530839503" fill="#88ff25" stroke="none" /><path d="M 102.15924093988457 79.11130261209362 l 3.377003224971525 -32.669442831231784 a53.843517559551834,53.843517559551834 0 0,0 0.9185809177673577,0.1029289078122747 l -3.9373200443396796 32.60665816291254" fill="#b7ff1f" stroke="none" /><path d="M 102.51750503828377 79.15144685158666 l 4.7095666703380346 -39.00196803557336 a60.28528387157518,60.28528387157518 0 0,0 1.0263488570332135,0.1328814077629126 l -5.37839334926204 38.915375031610054" fill="#62ff29" stroke="none" /><path d="M 102.87502721639298 79.19773525538626 l 5.981767387990967 -43.28108900541138 a64.69249599849354,64.69249599849354 0 0,0 1.0987709132494352,0.16148148599320836 l -6.723863406848084 43.17202644611929" fill="#30ff33" stroke="none" /><path d="M 103.23170211078529 79.25015418208739 l 7.208573082253507 -46.28421026948196 a67.84219941625082,67.84219941625082 0 0,0 1.1491903130819172,0.1890988286994282 l -8.002040898388493 46.15364544228686" fill="#34ff60" stroke="none" /><path d="M 103.58742460773223 79.30868818359171 l 4.975107053679604 -28.69509540237306 a50.12318990678844,50.12318990678844 0 0,0 0.8465216430267742,0.15426444247907925 l -5.466963430257432 28.605462785962615" fill="#ecff1a" stroke="none" /><path d="M 103.94208987418118 79.37332000966035 l 7.246526946945979 -37.91689107724239 a59.603144713303834,59.603144713303834 0 0,0 1.003329577598089,0.20069401540326817 l -7.896353010075025 37.786907665176265" fill="#6bff28" stroke="none" /><path d="M 104.29559338865022 79.4440306129975 l 12.88678016595065 -61.66790816100754 a84.0,84.0 0 0,0 1.4089503335234634,0.30707416746512495 l -13.943492916093248 61.4376025354087" fill="#4dd2ff" stroke="none" /><path d="M 104.64783097203109 79.52079915486377 l 8.408893778943646 -37.05113753505318 a58.99337162225779,58.99337162225779 0 0,0 0.9856608211773419,0.23261326998257878 l -9.043686753860873 36.90132812142437" fill="#73ff27" stroke="none" /><path d="M 104.9986988182912 79.60360301121754 l 4.809312093455458 -19.623634523074323 a41.2043687035119,41.2043687035119 0 0,0 0.6855518248093465,0.17426459303697914 l -5.145469211490199 19.538184698202077" fill="#ff880c" stroke="none" /><path d="M 105.3480935250658 79.69241777938227 l 11.432361867347142 -43.410540131522914 a65.89068825910931,65.89068825910931 0 0,0 1.0913336610348707,0.29744784226028304 l -12.175876929316706 43.20789179511849" fill="#32ff44" stroke="none" /><path d="M 105.69591212413111 79.78721728523813 l 10.144526214338471 -35.99934473109674 a58.40139346577535,58.40139346577535 0 0,0 0.9626217910066917,0.28020517396174804 l -10.761008017726768 35.819895862832475" fill="#7aff26" stroke="none" /><path d="M 106.04205211174951 79.88797359093562 l 8.487771953462477 -28.253032334857583 a50.50044251953676,50.50044251953676 0 0,0 0.8281095440823951,0.25655045358373746 l -8.971522130416503 28.1031652934672" fill="#e7ff1a" stroke="none" /><path d="M 106.38641147887787 79.99465700312896 l 16.872609300405703 -52.85320831944266 a76.48104698239337,76.48104698239337 0 0,0 1.2472866472554511,0.410007895213645 l -17.777418685308895 52.555779502826994" fill="#42ffd4" stroke="none" /><path d="M 106.72888874123014 80.10723608172694 l 12.628212759951394 -37.33306713843983 a60.41103474249129,60.41103474249129 0 0,0 0.9795051730764832,0.34072274500257177 l -13.267223705072896 37.11078596086867" fill="#61ff29" stroke="none" /><path d="M 107.06938296918511 80.22567764915836 l 5.994831433034804 -16.768610459004833 a38.807984182280386,38.807984182280386 0 0,0 0.6253829928437531,0.22964929742928256 l -6.281803577532681 16.663230312566828" fill="#ff6008" stroke="none" /><path d="M 107.40779381753099 80.34994680014964 l 6.124455090079997 -16.245844755473694 a38.361924489219476,38.361924489219476 0 0,0 0.6142068132097365,0.2375883900146674 l -6.4024341657832595 16.13831647732099" fill="#ff5908" stroke="none" /><path d="M 107.74402155503746 80.48000691201159 l 13.880179788997008 -34.98712027280084 a58.6398455889276,58.6398455889276 0 0,0 0.9325007062335164,0.37923991919994593 l -14.478734956420963 34.7436930970216" fill="#77ff27" stroke="none" /><path d="M 108.07796709384702 80.6158196554323 l 15.005806907841357 -36.00847390662384 a60.010055550324836,60.010055550324836 0 0,0 0.9474871217886559,0.4044259112246903 l -15.621729104800444 35.74557334573975" fill="#66ff29" stroke="none" /><path d="M 108.4095320186766 80.7573450057729 l 6.5607176637561695 -15.012205939381015 a37.38320308822145,37.38320308822145 0 0,0 0.5858243378409352,0.2620317749314958 l -6.817455404452736 14.897370413539667" fill="#ff4806" stroke="none" /><path d="M 108.73861861582097 80.90454125486305 l 14.583233171827535 -31.86699633500183 a56.04534412955466,56.04534412955466 0 0,0 0.8714017806311898,0.40786003299070556 l -15.12812366633023 31.611960070440592" fill="#99ff23" stroke="none" /><path d="M 109.06512990194946 81.05736502329252 l 5.670037752060131 -11.848198161873949 a34.13503436587892,34.13503436587892 0 0,0 0.5263943343084287,0.2574858468667315 l -5.872592335630627 11.749118564909995" fill="#ff1001" stroke="none" /><path d="M 109.3889696526874 81.21577127319529 l 17.363715253932423 -34.73906199958981 a59.836851520572445,59.836851520572445 0 0,0 0.914856388648679,0.46713219065386424 l -17.957498864294678 34.43587185726311" fill="#68ff28" stroke="none" /><path d="M 109.71004243097381 81.37971332152246 l 11.942227686549147 -22.900796230701506 a46.82756802560964,46.82756802560964 0 0,0 0.7095740892983182,0.37780823563182997 l -12.333590591634026 22.6924175273471" fill="#ffe115" stroke="none" /><line stroke="#e1ed5e" stroke-width="0.3" x1="143.13028292997686" x2="145.6673583964461" y1="26.7553504044142" y2="22.446841604673864" /><path d="M 143.63769802327073 25.89364864446614 a86.0,86.0 0 0,1 29.32050498858742,28.57503671076993" fill="none" id="id146" stroke="none" /><text fill="#e1ed5e" style="font-size:6.75px; font-family:Arial;" text-anchor="middle"><textPath startOffset="20.669276256404974" xlink:href="#id146">February</textPath></text><path d="M 110.65571695917076 81.90426304109057 l 9.110081185957457 -15.47090950773762 a38.953902645701916,38.953902645701916 0 0,0 0.5733035862874838,0.34425233121566756 l -9.374317528802376 15.31224317598603" fill="#ff6309" stroke="none" /><path d="M 110.96478420261332 82.08984904055464 l 13.198622829636646 -21.558958477197724 a46.27829771207985,46.27829771207985 0 0,0 0.6739792142334758,0.42061287696885025 l -13.566766172659834 21.329209803387325" fill="#ffd814" stroke="none" /><path d="M 111.27062007382361 82.28071324371311 l 8.543853729628418 -13.432357159360548 a36.919348460596936,36.919348460596936 0 0,0 0.5318396836686053,0.344732057449223 l -8.77317904555403 13.283711260207431" fill="#ff4006" stroke="none" /><path d="M 111.5731344415666 82.4767994020092 l 7.368842761937508 -11.157367137178467 a34.371113831089346,34.371113831089346 0 0,0 0.48954893948187295,0.3293903743584096 l -7.559287989516381 11.029227088762937" fill="#ff1402" stroke="none" /><path d="M 111.8722381534696 82.67804972795209 l 17.988436089683162 -26.245665845773296 a52.81852932868844,52.81852932868844 0 0,0 0.7434960260258566,0.5190179689773249 l -18.43632720688278 25.933003060990846" fill="#c6ff1e" stroke="none" /><path d="M 112.16784306229584 82.88440491214696 l 10.963087976681464 -15.420956184323597 a39.92076075699087,39.92076075699087 0 0,0 0.555124772445668,0.40186752524894764 l -11.2261937595011 15.230487887701575" fill="#ff730a" stroke="none" /><path d="M 112.45986205192187 83.09580414077388 l 19.061794043579482 -25.860984543660802 a53.12697486112418,53.12697486112418 0 0,0 0.7294764004484768,0.5474126904271561 l -19.502923432938726 25.52995282596963" fill="#c1ff1e" stroke="none" /><path d="M 114.13192950727249 84.46653392183569 l 14.890617597381407 -16.36739719178537 a43.127407965351665,43.127407965351665 0 0,0 0.5433441994299534,0.5029112793344706 l -15.169391568125326 16.10936816631852" fill="#ffa70f" stroke="none" /><path d="M 117.81537515405839 88.88188828441811 l 16.62309865848313 -10.374043001954584 a40.59459561246587,40.59459561246587 0 0,0 0.3638668268687735,0.5943491160364883 l -16.798733449807308 10.087156769793541" fill="#ff7e0b" stroke="none" /><line stroke="#e1ed5e" stroke-width="0.3" x1="172.87174338648825" x2="177.1583165268699" y1="56.24261187166439" y2="53.66864786411523" /><path d="M 173.72905801456457 55.72781907015455 a86.0,86.0 0 0,1 12.242430191666344,42.057860355516425" fill="none" id="id147" stroke="none" /><text fill="#e1ed5e" style="font-size:6.75px; font-family:Arial;" text-anchor="middle"><textPath startOffset="22.145653131862474" xlink:href="#id147">March</textPath></text><path d="M 118.00360718960297 89.18935116829356 l 14.899887693871593 -8.946954451624109 a38.37971942378307,38.37971942378307 0 0,0 0.3343171276406251,0.5677435714390148 l -15.051278531641985 8.689859711891538" fill="#ff5908" stroke="none" /><path d="M 118.18653347947321 89.5 l 11.905407209874902 -6.873590057433388 a34.74718011486677,34.74718011486677 0 0,0 0.2938066594282405,0.5191282151993333 l -12.021647234324519 6.668205072134937" fill="#ff1a02" stroke="none" /><path d="M 118.36410011445183 89.81374322990088 l 21.83254798467031 -12.110146336130459 a45.966293192731385,45.966293192731385 0 0,0 0.37682433971778045,0.6933143424708053 l -22.03721767400343 11.733577160185051" fill="#ffd313" stroke="none" /><path d="M 118.53625476483649 90.13048839642627 l 11.083008403974926 -5.9010777221857245 a33.556105828076454,33.556105828076454 0 0,0 0.26635867038872285,0.5107778711775086 l -11.182675143338592 5.709953607903718" fill="#ff0500" stroke="none" /><path d="M 118.70294669586156 90.45014215332178 l 22.580889376741528 -11.529963010971109 a46.354222766217866,46.354222766217866 0 0,0 0.3557798880219749,0.7117981035425855 l -22.77548917797524 11.140633051264773" fill="#ffd914" stroke="none" /><path d="M 118.8641267826498 90.77261029715802 l 12.60793619991695 -6.167173387119293 a35.0354580547971,35.0354580547971 0 0,0 0.25963066572390014,0.5425282354210706 l -12.711946123600761 5.949832649633119" fill="#ff1f03" stroke="none" /><path d="M 119.0197475246899 91.09779779509293 l 23.381342202322386 -10.943648743864955 a46.81570473590057,46.81570473590057 0 0,0 0.3344325237687632,0.7307954198958283 l -23.565759190946203 10.540664341754443" fill="#ffe015" stroke="none" /><path d="M 119.16976305983485 91.42560881287824 l 14.942343886617149 -6.683520361542569 a37.36896714057057,37.36896714057057 0 0,0 0.25689584376759855,0.5878279647538276 l -15.05487361240172 6.426030327012892" fill="#ff4806" stroke="none" /><path d="M 119.4528033332814 92.08871423366111 l 11.354092686534036 -4.617610650850958 a33.25715092740796,33.25715092740796 0 0,0 0.21053570053053325,0.5306874974356829 l -11.431687062030694 4.42202213620171" fill="#ff0000" stroke="none" /><path d="M 119.58574465831526 92.42381321644754 l 23.646730148056523 -9.147063210888787 a46.354222766217866,46.354222766217866 0 0,0 0.28070641959490544,0.7446071279043524 l -23.80026725146587 8.739787802790275" fill="#ffd914" stroke="none" /><path d="M 119.83427380445688 93.10060997987247 l 31.465177119485446 -10.94522194964059 a54.314490161001785,54.314490161001785 0 0,0 0.29876740159333576,0.8832527353224635 l -31.64842994265115 10.403467539843966" fill="#b1ff20" stroke="none" /><path d="M 119.94978838288452 93.4421083053983 l 27.786198997082263 -9.133875514381206 a50.24894077770455,50.24894077770455 0 0,0 0.2623360430502576,0.8217639184414923 l -27.938899755909777 8.655542562248327" fill="#ebff1a" stroke="none" /><line stroke="#e1ed5e" stroke-width="0.3" x1="184.99686870605535" x2="189.99668451229388" y1="99.2704041080226" y2="99.22748670261217" /><path d="M 185.99683186730306 99.26182062694052 a86.0,86.0 0 0,1 -10.086455211305974,41.156179273409016" fill="none" id="id148" stroke="none" /><text fill="#e1ed5e" style="font-size:6.75px; font-family:Arial;" text-anchor="middle"><textPath startOffset="21.40746469413373" xlink:href="#id148">April</textPath></text><line stroke="#e1ed5e" stroke-width="0.3" x1="174.33088141563837" x2="178.70328620479359" y1="141.23008692659167" y2="143.65538615756765" /><path d="M 175.20536237346943 141.71514677278685 a86.0,86.0 0 0,1 -30.301960400862466,31.631185727798858" fill="none" id="id149" stroke="none" /><text fill="#e1ed5e" style="font-size:6.75px; font-family:Arial;" text-anchor="middle"><textPath startOffset="22.145653131862474" xlink:href="#id149">May</textPath></text><line stroke="#e1ed5e" stroke-width="0.3" x1="143.1302829299769" x2="145.66735839644613" y1="173.24464959558577" y2="177.55315839532614" /><path d="M 143.63769802327073 174.10635135553383 a86.0,86.0 0 0,1 -40.68552437913181,11.842963189579606" fill="none" id="id150" stroke="none" /><text fill="#e1ed5e" style="font-size:6.75px; font-family:Arial;" text-anchor="middle"><textPath startOffset="21.407464694133747" xlink:href="#id150">June</textPath></text><line stroke="#e1ed5e" stroke-width="0.3" x1="101.45913802915013" x2="101.54496967792366" y1="184.9874750549273" y2="189.98673829345242" /><path d="M 101.47630435890484 185.9873277026323 a86.0,86.0 0 0,1 -42.54439059252881,-10.42667462771756" fill="none" id="id151" stroke="none" /><text fill="#e1ed5e" style="font-size:6.75px; font-family:Arial;" text-anchor="middle"><textPath startOffset="22.145653131862474" xlink:href="#id151">July</textPath></text><line stroke="#e1ed5e" stroke-width="0.3" x1="58.13341422392154" x2="55.67067388415222" y1="173.97424548756322" y2="178.32567169271397" /><path d="M 57.64086615596768 174.84453072859336 a86.0,86.0 0 0,1 -31.369924170532247,-30.572349798747897" fill="none" id="id152" stroke="none" /><text fill="#e1ed5e" style="font-size:6.75px; font-family:Arial;" text-anchor="middle"><textPath startOffset="22.145653131862474" xlink:href="#id152">August</textPath></text><line stroke="#e1ed5e" stroke-width="0.3" x1="26.387840678322732" x2="22.057713659400548" y1="142.50000000000003" y2="145.00000000000006" /><path d="M 25.521815274538298 143.00000000000003 a86.0,86.0 0 0,1 -11.493303480769221,-40.785679425670985" fill="none" id="id153" stroke="none" /><text fill="#e1ed5e" style="font-size:6.75px; font-family:Arial;" text-anchor="middle"><textPath startOffset="21.40746469413373" xlink:href="#id153">September</textPath></text><line stroke="#e1ed5e" stroke-width="0.3" x1="15.003131293944662" x2="10.003315487706104" y1="100.72959589197737" y2="100.7725132973878" /><path d="M 14.003168132696942 100.73817937305945 a86.0,86.0 0 0,1 10.791469493833604,-42.45332614584628" fill="none" id="id154" stroke="none" /><text fill="#e1ed5e" style="font-size:6.75px; font-family:Arial;" text-anchor="middle"><textPath startOffset="22.145653131862435" xlink:href="#id154">October</textPath></text><line stroke="#e1ed5e" stroke-width="0.3" x1="26.387840678322718" x2="22.05771365940052" y1="57.49999999999999" y2="54.99999999999999" /><path d="M 25.521815274538284 56.99999999999999 a86.0,86.0 0 0,1 29.574782752854787,-30.34633250058573" fill="none" id="id155" stroke="none" /><text fill="#e1ed5e" style="font-size:6.75px; font-family:Arial;" text-anchor="middle"><textPath startOffset="21.40746469413373" xlink:href="#id155">November</textPath></text><line stroke="#e1ed5e" stroke-width="0.3" x1="56.869717070023135" x2="54.33264160355391" y1="26.7553504044142" y2="22.446841604673864" /><path d="M 56.362301976729285 25.89364864446614 a86.0,86.0 0 0,1 42.16139366436587,-11.88097634709845" fill="none" id="id156" stroke="none" /><text fill="#e1ed5e" style="font-size:6.75px; font-family:Arial;" text-anchor="middle"><textPath startOffset="22.145653131862474" xlink:href="#id156">December</textPath></text></svg>