<?xml version="1.0" encoding="utf-8" ?>
<svg baseProfile="full" height="200mm" version="1.1" viewBox="0,0,200,200" width="200mm" xmlns="http://www.w3.org/2000/svg" xmlns:ev="http://www.w3.org/2001/xml-events" xmlns:xlink="http://www.w3.org/1999/xlink"><defs /><rect fill="#1a1a1a" height="200" width="200" x="0" y="0" /><text alignment-baseline="middle" fill="#e1ed5e" style="dominant-baseline: central; font-size:9.0px; font-family:Arial;" text-anchor="middle" x="100.0" y="100.0">2025</text><line stroke="#e1ed5e" stroke-width="0.3" x1="100.0" x2="100.0" y1="15.0" y2="10.0" /><path d="M 100.0 14.0 a86.0,86.0 0 0,1 42.46469731375804,11.215312516191453" fill="none" id="id157" stroke="none" /><text fill="#e1ed5e" style="font-size:6.75px; font-family:Arial;" text-anchor="middle"><textPath startOffset="22.20632615414155" xlink:href="#id157">January</textPath></text><path d="M 100.0 79.0 l 0.0 -14.710698654336468 a35.71069865433647,35.71069865433647 0 0,0 0.61470097451078,0.00529092535563796 l -0.2532204952382517 14.708519105589389" fill="#ffa80f" stroke="none" /><path d="M 100.36148047927253 79.00311137660856 l 0.2087744753039266 -12.126835767689206 a33.1286327555106,33.1286327555106 0 0,0 0.570085975726304,0.014723638835553013 l -0.41748708622509845 12.121445336711293" fill="#ff850c" stroke="none" /><path d="M 100.72285384407766 79.0124445844662 l 0.5062648766595715 -14.699046343716484 a35.707762152688765,35.707762152688765 0 0,0 0.6141040788716574,0.02644461343845826 l -0.7592097879205605 14.688154003753832" fill="#ffa80f" stroke="none" /><path d="M 101.08401301168833 79.027996857942 l 0.5689601762887482 -11.007464371898337 a32.02215893465585,32.02215893465585 0 0,0 0.5502290581768349,0.033191319399606796 l -0.758351283305195 10.996039783118427" fill="#ff750a" stroke="none" /><path d="M 101.44485096284872 79.0497635885617 l 0.6088428379486359 -8.828177936972793 a29.84914771535511,29.84914771535511 0 0,0 0.5122821750374591,0.03976295624927868 l -0.7607152023484363 8.81638971853505" fill="#ff5708" stroke="none" /><path d="M 101.80526077348638 79.07773832637324 l 2.533723098553671 -29.364853241714993 a50.473960688166834,50.473960688166834 0 0,0 0.86496715180505,0.08213905346097154 l -3.0388153774489655 29.316888643738846" fill="#9fff22" stroke="none" /><path d="M 102.16513564639614 79.11191278185805 l 0.910939186385355 -8.788261006792942 a29.8353461576109,29.8353461576109 0 0,0 0.5103737977203341,0.05734644288221606 l -1.0620796876154144 8.771278610440124" fill="#ff5608" stroke="none" /><path d="M 102.52436894288641 79.15227682838746 l 1.4315554949229965 -11.822627095400131 a32.90898243226236,32.90898243226236 0 0,0 0.561780261988576,0.07293520120759321 l -1.6348504854194186 11.796233571028402" fill="#ff820b" stroke="none" /><path d="M 102.88285421437855 79.19881850522331 l 2.019466648195567 -14.571424410658093 a35.71069865433647,35.71069865433647 0 0,0 0.6081549318740658,0.08962622826423788 l -2.2699905604982886 14.534503698232886" fill="#ffa80f" stroke="none" /><path d="M 103.2404852339499 79.25152402106235 l 1.4994462160142297 -9.60079171746695 a30.71717760241632,30.71717760241632 0 0,0 0.5217104819346187,0.08608669970711717 l -1.6644859040877236 9.573558754820208" fill="#ff6309" stroke="none" /><path d="M 103.59715602781102 79.31037775812273 l 4.310229280507602 -24.79097790035187 a46.162882619173025,46.162882619173025 0 0,0 0.7817022039681917,0.14285108126044369 l -4.736326605578694 24.71311133774069" fill="#d1ff1c" stroke="none" /><path d="M 103.95276090670814 79.375362276772 l 2.254688235438979 -11.764467705556287 a32.97857752131294,32.97857752131294 0 0,0 0.5566055067402712,0.11164982837935501 l -2.4568601516463753 11.723913921099722" fill="#ff830c" stroke="none" /><path d="M 104.307194497241 79.44645832069477 l 3.018133924768375 -14.402261485100714 a35.715103406808026,35.715103406808026 0 0,0 0.6006213631296846,0.1312725665293223 l -3.2655980120515875 14.348175420475522" fill="#ffa80f" stroke="none" /><path d="M 104.66035177308747 79.52364482259891 l 2.6295652727802996 -11.553615501419005 a32.84907779864921,32.84907779864921 0 0,0 0.5502632130804783,0.1302295242447706 l -2.8280521728233015 11.506640065033366" fill="#ff810b" stroke="none" /><path d="M 105.01212808612495 79.60689891045804 l 3.512304691057641 -14.290693172884982 a35.71598435730233,35.71598435730233 0 0,0 0.5957615167727474,0.15187287580888964 l -3.7577750965154135 14.228117300907225" fill="#ffa80f" stroke="none" /><path d="M 105.36241919743992 79.69619591428918 l 4.50604579308977 -17.06130528322261 a38.646319351545856,38.646319351545856 0 0,0 0.6417168157913614,0.1754054467489326 l -4.799060498104843 16.981213295647382" fill="#ffcf13" stroke="none" /><path d="M 105.71112130821622 79.79150937346287 l 3.203127111618443 -11.334090228065179 a32.77801445877478,32.77801445877478 0 0,0 0.5416329362284663,0.15811750663813257 l -3.3977502655703367 11.277274392508343" fill="#ff800b" stroke="none" /><path d="M 106.0581310904928 79.89281104454417 l 1.4255489159295327 -4.731456119003974 a25.94154497275579,25.94154497275579 0 0,0 0.4264476561465729,0.1324993626055625 l -1.5067819447868238 4.706216621515891" fill="#ff1e03" stroke="none" /><path d="M 106.40334571778207 80.00007090966166 l 4.489991717455151 -14.023843147487186 a35.72508751241021,35.72508751241021 0 0,0 0.5840493438049205,0.19255188600202758 l -4.730723883502489 13.944477537225922" fill="#ffa80f" stroke="none" /><path d="M 106.74666289553966 80.11325718540242 l 4.729969156389756 -13.942252872348114 a35.72273831109205,35.72273831109205 0 0,0 0.5806101642720979,0.2025634857351114 l -4.969261324725128 13.858768533440795" fill="#ffa80f" stroke="none" /><path d="M 107.08798089147638 80.2323363322302 l 5.0922613706788935 -14.201803253308361 a36.087158165572085,36.087158165572085 0 0,0 0.5829238982096447,0.21469579120775628 l -5.335967594661114 14.112044194294281" fill="#ffad10" stroke="none" /><path d="M 107.4271985657038 80.35727306442388 l 3.654937358233366 -9.666220158153376 a31.334136598598867,31.334136598598867 0 0,0 0.502863406853709,0.1951031894074784 l -3.820783930086742 9.60187426485535" fill="#ff6c09" stroke="none" /><path d="M 107.76421540070413 80.48803036053334 l 6.046353655673471 -15.194873257673887 a37.35367132622669,37.35367132622669 0 0,0 0.5953750629991335,0.24286843717489695 l -6.307012588260991 15.08854393431541" fill="#ffbe11" stroke="none" /><path d="M 108.09893153111575 80.62456947434976 l 4.542349174957534 -10.8668619464807 a32.77801445877478,32.77801445877478 0 0,0 0.5186984091445118,0.2220795890303306 l -4.728731341892361 10.787062829487578" fill="#ff800b" stroke="none" /><path d="M 108.43124777332544 80.76684994638697 l 3.672138300778415 -8.376789397642668 a30.146321682102723,30.146321682102723 0 0,0 0.4734664739623853,0.2124306056504709 l -3.8157868932075805 8.312338461475665" fill="#ff5b08" stroke="none" /><path d="M 108.76106565485865 80.91482961587045 l 2.507881127904849 -5.4631868444751746 a27.011312523014247,27.011312523014247 0 0,0 0.420889999948871,0.19761349849474286 l -2.601549339153318 5.419208363340429" fill="#ff2d04" stroke="none" /><path d="M 109.08828744355905 81.06846463323043 l 3.849012008936377 -8.017759938473528 a29.893782540400203,29.893782540400203 0 0,0 0.46197101771913107,0.22668717207667552 l -3.9864542936659397 7.950317606262021" fill="#ff5708" stroke="none" /><path d="M 109.41281617654863 81.2277094730956 l 3.1030032678434494 -6.188422014977621 a27.92280263446148,27.92280263446148 0 0,0 0.4278032811793832,0.2191374565896692 l -3.2090670366115885 6.134092033075451" fill="#ff3b05" stroke="none" /><path d="M 109.73455568895987 81.39251694778311 l 5.47535577860719 -10.466074992085977 a32.81178422772337,32.81178422772337 0 0,0 0.4981999968216109,0.2661211845435954 l -5.654700821957112 10.370275081040626" fill="#ff800b" stroke="none" /><path d="M 110.05341064243156 81.56283822128135 l 7.047148406520686 -12.923914069647116 a35.72038910977389,35.72038910977389 0 0,0 0.5372957356548184,0.2990044951741563 l -7.2685682312475395 12.80069417691278" fill="#ffa80f" stroke="none" /><path d="M 110.36928655335952 81.73862282372117 l 5.814970582815364 -10.240759625584197 a32.77654620795093,32.77654620795093 0 0,0 0.48821955963562874,0.28280828133303076 l -5.990386874916321 10.139147186861116" fill="#ff800b" stroke="none" /><line stroke="#e1ed5e" stroke-width="0.3" x1="143.23703022742887" x2="145.7803849466894" y1="26.81831364943548" y2="22.513508569990506" /><path d="M 143.74570117128098 25.957352633546492 a86.0,86.0 0 0,1 28.547481713284135,27.462654790039103" fill="none" id="id158" stroke="none" /><text fill="#e1ed5e" style="font-size:6.75px; font-family:Arial;" text-anchor="middle"><textPath startOffset="19.985693538727396" xlink:href="#id158">February</textPath></text><path d="M 110.68208982089419 81.91981866633111 l 5.989640018383942 -10.137883080140236 a32.77507795712708,32.77507795712708 0 0,0 0.48325749610479446,0.2911572341981086 l -6.163259580706374 10.033279236483512" fill="#ff800b" stroke="none" /><path d="M 110.99172775467656 82.1063720568725 l 4.6463836286379605 -7.563930056083603 a29.87704448100829,29.87704448100829 0 0,0 0.43589305774775783,0.27295619277273997 l -4.7758958387579815 7.482829521987919" fill="#ff5708" stroke="none" /><path d="M 111.2981086023043 82.29822771554956 l 6.3856081345272555 -10.004911890480642 a32.8690460098536,32.8690460098536 0 0,0 0.4743049891428226,0.3085011585901008 l -6.556880149454359 9.893511807731015" fill="#ff810b" stroke="none" /><path d="M 111.60114157652 82.49532879139004 l 8.130116095158316 -12.267328020684705 a35.716865307796645,35.716865307796645 0 0,0 0.50955262746332,0.34405220865715025 l -8.340073417028178 12.125563899728885" fill="#ffa80f" stroke="none" /><path d="M 111.90073688211348 82.69761687909136 l 6.689598565179793 -9.72595213610554 a32.80444297360411,32.80444297360411 0 0,0 0.46249400227562276,0.32400660463864783 l -6.856023707039067 9.609360688702957" fill="#ff800b" stroke="none" /><path d="M 112.19680574252982 82.90503203632743 l 6.878366031614858 -9.640675553506068 a32.842911145189035,32.842911145189035 0 0,0 0.45738396138032794,0.3323088995703678 l -7.0432953093489745 9.520847419119026" fill="#ff810b" stroke="none" /><path d="M 112.48926042617603 83.11751280151076 l 7.022163677005032 -9.492282516125885 a32.80737947525182,32.80737947525182 0 0,0 0.4511074765993927,0.3397647989358872 l -7.184517307362808 9.37000112768415" fill="#ff800b" stroke="none" /><path d="M 112.77801427241765 83.33499621200491 l 8.958267047724185 -11.68331409728102 a35.72244466092729,35.72244466092729 0 0,0 0.48474922754681427,0.3783544610651279 l -9.15804883043043 11.527381246992668" fill="#ffa80f" stroke="none" /><path d="M 113.06298171725822 83.55741782278167 l 7.336704788460152 -9.234826627283 a32.794458868001925,32.794458868001925 0 0,0 0.43897194922437743,0.3549514544866253 l -7.494580136249021 9.107169075532246" fill="#ff800b" stroke="none" /><path d="M 113.34407831869373 83.78471172551755 l 10.306190580491526 -12.52374628529497 a37.219179550761865,37.219179550761865 0 0,0 0.4911911949075712,0.41135849983254547 l -10.520239312358214 12.344486628068607" fill="#ffbc11" stroke="none" /><path d="M 113.6212207817346 84.01681056812373 l 9.969399559106717 -11.698129281403128 a36.369943274245955,36.369943274245955 0 0,0 0.47299319290771336,0.41017503593724874 l -10.169286550661196 11.524789252046208" fill="#ffb110" stroke="none" /><path d="M 113.89432698308785 84.25364557470407 l 8.12983371402661 -9.213490026224589 a33.28749749465137,33.28749749465137 0 0,0 0.42637957507082036,0.3828077924070397 l -8.28722427669342 9.072183225048251" fill="#ff870c" stroke="none" /><path d="M 114.16331599549186 84.49514656593476 l 10.021750378769728 -10.971002187981352 a35.85928563771027,35.85928563771027 0 0,0 0.45215505379115994,0.4202288448609528 l -10.209113316355735 10.796868757045758" fill="#ffaa0f" stroke="none" /><path d="M 114.42810811169701 84.74124197986012 l 12.16006635712804 -12.86014137236991 a38.69888273103976,38.69888273103976 0 0,0 0.480081304995899,0.4618378350381354 l -12.379630905736358 12.648920450569474" fill="#ffcf13" stroke="none" /><path d="M 114.68862486808459 84.99185889309783 l 13.693754852758207 -13.99163005109282 a40.57765648524058,40.57765648524058 0 0,0 0.49497823355366233,0.49285263971521825 l -13.932568886479192 13.753841560727484" fill="#ffe815" stroke="none" /><path d="M 114.94478906791727 85.2469230424477 l 8.406979357044722 -8.299134425476318 a32.81325247854723,32.81325247854723 0 0,0 0.39334610823727945,0.4053777406375764 l -8.54858972898511 8.153192489288626" fill="#ff800b" stroke="none" /><path d="M 115.19652480421416 85.50635884689758 l 10.686109033065778 -10.191845283286844 a35.76707948597238,35.76707948597238 0 0,0 0.4210852784101081,0.44918441568592665 l -10.85996163344635 10.006391450722862" fill="#ffa90f" stroke="none" /><path d="M 115.4437574822437 85.77008943001954 l 13.321204529095175 -12.274185822419659 a39.11381041386029,39.11381041386029 0 0,0 0.45196261126961573,0.4990684037933882 l -13.530510780980826 12.043064631356723" fill="#ffd513" stroke="none" /><path d="M 115.68641384162765 86.03803664274999 l 15.516272539920907 -13.810526155352377 a41.772225355526444,41.772225355526444 0 0,0 0.47343473862261937,0.5412177477154064 l -15.751699142121375 13.541392851434022" fill="#fff717" stroke="none" /><path d="M 115.9244219780498 86.31012108654704 l 11.151645410351422 -9.58682679747542 a35.70600025170015,35.70600025170015 0 0,0 0.3966586139784745,0.4695186863832316 l -11.315014637817015 9.393449161463082" fill="#ffa80f" stroke="none" /><path d="M 116.15771136456269 86.58626213691792 l 13.574402544729349 -11.269137891787173 a38.64250189940384,38.64250189940384 0 0,0 0.4204699978073339,0.5154465003796213 l -13.766371034613092 11.033807221799451" fill="#ffcf13" stroke="none" /><path d="M 116.38621287248628 86.86637796730983 l 9.747131448758429 -7.8123689315600355 a33.49158435916678,33.49158435916678 0 0,0 0.3566788655414604,0.45294593793175336 l -9.880164394893853 7.643430599675244" fill="#ff8a0c" stroke="none" /><path d="M 116.60985879189232 87.15038557335679 l 23.332043406132186 -18.049988582735285 a50.49892095217231,50.49892095217231 0 0,0 0.5259680478552716,0.6921122976959735 l -23.63928739421157 17.64569150915828" fill="#9eff22" stroke="none" /><path d="M 116.82858285166822 87.43820079747576 l 11.810936863929216 -8.816346485388264 a35.73859541998966,35.73859541998966 0 0,0 0.36374638178576507,0.4961496559693777 l -11.960945858228607 8.611734385747393" fill="#ffa80f" stroke="none" /><path d="M 117.04232023915458 87.72973835380427 l 14.367624191440747 -10.344513281598498 a38.704168434005624,38.704168434005624 0 0,0 0.38462245300770886,0.5440211832577705 l -14.54355926425234 10.095665598008933" fill="#ffd013" stroke="none" /><path d="M 117.2510076193507 88.02491185347247 l 13.30003549568009 -9.232451861771812 a37.19040183461436,37.19040183461436 0 0,0 0.36052647264172083,0.5290281119716145 l -13.456986433990545 9.00214572652979" fill="#ffbc11" stroke="none" /><path d="M 117.45458315368197 88.32363383020206 l 7.346609080676801 -4.914565817875156 a29.838869959588145,29.838869959588145 0 0,0 0.28191105700474417,0.42936988062413195 l -7.43011677303947 4.78737787327335" fill="#ff5608" stroke="none" /><path d="M 117.65298651832404 88.62581576622439 l 14.864183109812119 -9.577300532127179 a38.68243832181262,38.68243832181262 0 0,0 0.35582759969962396,0.5628338105419038 l -15.0268383057577 9.32001907387107" fill="#ffcf13" stroke="none" /><line stroke="#e1ed5e" stroke-width="0.3" x1="172.23445277983987" x2="176.4835382374775" y1="55.19839476539836" y2="52.563006222186495" /><path d="M 173.08426987136738 54.67131705675599 a86.0,86.0 0 0,1 12.851231095245387,41.99856678651699" fill="none" id="id159" stroke="none" /><text fill="#e1ed5e" style="font-size:6.75px; font-family:Arial;" text-anchor="middle"><textPath startOffset="22.20632615414155" xlink:href="#id159">March</textPath></text><path d="M 117.84615892207809 88.93136811851018 l 32.476547162707796 -20.142762758945373 a59.21592609338076,59.21592609338076 0 0,0 0.5297970001331812,0.8708469674773176 l -32.8184599611272 19.580748018260977" fill="#40ff2d" stroke="none" /><path d="M 118.03404312379186 89.2402003453031 l 6.340717815773525 -3.7831146846201733 a28.38353974298619,28.38353974298619 0 0,0 0.24672098020805247,0.421726130956339 l -6.404898470451905 3.6734091413099392" fill="#ff4106" stroke="none" /><path d="M 118.21658344932153 89.55222093294921 l 12.76547414684325 -7.321397777108107 a35.71598435730233,35.71598435730233 0 0,0 0.301276843457862,0.5359378871379484 l -12.889608631593545 7.100576380035364" fill="#ffa80f" stroke="none" /><path d="M 118.3937258080291 89.86733742301442 l 7.7323762679410315 -4.259580710240716 a29.828004903491642,29.828004903491642 0 0,0 0.2438679456381634,0.45185026614539814 l -7.80455231279766 4.125849460762859" fill="#ff5608" stroke="none" /><path d="M 118.56541770881063 90.18545643968196 l 10.442155063621733 -5.520208989796907 a32.8114905775586,32.8114905775586 0 0,0 0.2596647722831412,0.5015896904139993 l -10.53562926906499 5.339646577122563" fill="#ff800b" stroke="none" /><path d="M 118.73160827565052 90.50648371742162 l 12.734273628872357 -6.453959118911262 a35.27639006064109,35.27639006064109 0 0,0 0.2698475639234242,0.5439962225480746 l -12.843481205749189 6.233803307864238" fill="#ffa20f" stroke="none" /><path d="M 118.89224826269711 90.83032412892265 l 14.26211036992783 -6.922359240217754 a36.85329144545798,36.85329144545798 0 0,0 0.27208575564666476,0.5730819919106617 l -14.379154319416251 6.675834832666552" fill="#ffb711" stroke="none" /><path d="M 119.04729006885535 91.15688171328212 l 9.9122864236093 -4.601994352946421 a31.9284845320941,31.9284845320941 0 0,0 0.22714483866507013,0.5004835428091432 l -9.990033579237718 4.430688801295215" fill="#ff740a" stroke="none" /><path d="M 119.196687751892 91.48605970444005 l 16.130457540035838 -7.154033769309727 a38.64573205121632,38.64573205121632 0 0,0 0.26446432003286946,0.6104201133078759 l -16.251212569911388 6.875314511415248" fill="#ffcf13" stroke="none" /><path d="M 119.34039704204932 91.81776055985345 l 7.133755224062215 -3.018040075587216 a28.745904046312827,28.745904046312827 0 0,0 0.18887196901149886,0.4573684541515431 l -7.184648879959911 2.89479705098237" fill="#ff4706" stroke="none" /><path d="M 119.47837535516314 92.15188598940014 l 5.473875522805153 -2.2055021735382776 a26.90148736139013,26.90148736139013 0 0,0 0.16935953080722335,0.4310015329772947 l -5.511028603494077 2.1109516356651987" fill="#ff2c04" stroke="none" /><path d="M 119.61058180528143 92.48833698450437 l 12.26866794647584 -4.699406686553265 a34.13790837182636,34.13790837182636 0 0,0 0.20547023696908598,0.5505580817023912 l -12.347742771946551 4.48752546782154" fill="#ff920d" stroke="none" /><path d="M 119.7369772167798 92.82701384747503 l 12.507816325986091 -4.545700809156733 a34.30822546739318,34.30822546739318 0 0,0 0.19694051823698475,0.5567773653513556 l -12.584209925032885 4.329725817378763" fill="#ff950d" stroke="none" /><path d="M 119.85752413597 93.16781622104841 l 2.7970155907955947 -0.9623417510692036 a23.95793810973194,23.95793810973194 0 0,0 0.13081342949096705,0.39111550393041156 l -2.8131663140583316 0.914053144216478" fill="#ff0000" stroke="none" /><path d="M 119.97218684219823 93.5106431181261 l 9.821645282716508 -3.1912460017676056 a31.327088994644384,31.327088994644384 0 0,0 0.162221387508236,0.5142861293927813 l -9.87512215399295 3.021709705948405" fill="#ff6b09" stroke="none" /><path d="M 120.08093135843002 93.85539295169968 l 3.077551717691159 -0.9417066190057582 a24.218405805883258,24.218405805883258 0 0,0 0.11854806181907192,0.39968513105554104 l -3.093305676621933 0.8885921012036873" fill="#ff0400" stroke="none" /><path d="M 120.18372546131832 94.20196356495316 l 8.95421677887842 -2.572214690035419 a30.316345127504768,30.316345127504768 0 0,0 0.13976301316278283,0.5028019204552306 l -8.997166562607566 2.417701466161236" fill="#ff5d08" stroke="none" /><path d="M 120.28053869075195 94.5502522615342 l 4.249024352504228 -1.1417897329475444 a25.399760418754457,25.399760418754457 0 0,0 0.10982816264944768,0.4232127124154768 l -4.268048847023978 1.0684805949832172" fill="#ff1602" stroke="none" /><path d="M 120.37134235888165 94.90015583598534 l 8.577117452038442 -2.1472302419371734 a29.841806461235848,29.841806461235848 0 0,0 0.12045744613702611,0.4993738811638111 l -8.612807698436288 1.9992711291139562" fill="#ff5608" stroke="none" /><path d="M 120.45610955862082 95.25157060432595 l 12.988720424131357 -3.0150416283894574 a34.33406668189298,34.33406668189298 0 0,0 0.12868017928149067,0.5768480120713847 l -13.038694990414884 2.791015446768109" fill="#ff950d" stroke="none" /><path d="M 120.53481517161879 95.60439243477599 l 12.935322672837597 -2.768887945868784 a34.22835262257564,34.22835262257564 0 0,0 0.1183660508152955,0.5771949006227125 l -12.98106801956789 2.54581738908266" fill="#ff940d" stroke="none" /><path d="M 120.6074358757038 95.95851677861258 l 8.833281368136964 -1.7323629516280374 a30.00155215087093,30.00155215087093 0 0,0 0.09502531061408494,0.5076290090168878 l -8.861792402660909 1.580055865148587" fill="#ff5908" stroke="none" /><path d="M 120.67395015179393 96.31383870115 l 6.772532479191527 -1.207541226359886 a27.879342410075463,27.879342410075463 0 0,0 0.08017055191355982,0.47317113558856544 l -6.792314892625311 1.0907843024554826" fill="#ff3a05" stroke="none" /><path d="M 120.73433829027371 96.67025291283417 l 4.477181310962566 -0.7189948008075109 a25.534545844384056,25.534545844384056 0 0,0 0.065957077417231,0.434574730926092 l -4.488894281819096 0.6418209574893368" fill="#ff1802" stroke="none" /><path d="M 120.78858239683441 97.02765380044208 l 8.864708659763851 -1.2674737792149549 a29.95486177467244,29.95486177467244 0 0,0 0.06858807627598744,0.5110608352311168 l -8.885212735097676 1.1146946019191737" fill="#ff5808" stroke="none" /><path d="M 120.83666639777658 97.38593545837742 l 11.669508288355372 -1.4639984752078976 a32.7609827492181,32.7609827492181 0 0,0 0.06538101058453542,0.5601445711780114 l -11.692979651943496 1.2629101657050334" fill="#ff800b" stroke="none" /><path d="M 120.87857604477298 97.74499172005257 l 8.904835643652556 -0.9617743118566132 a29.956623675661064,29.956623675661064 0 0,0 0.050958890597638716,0.5131490739816255 l -8.920071659932423 0.8083497071705529" fill="#ff5808" stroke="none" /><path d="M 120.91429891909075 98.10471618934814 l 4.933076579775748 -0.4470424858382637 a25.953290979346605,25.953290979346605 0 0,0 0.03648972917847901,0.44526712107217803 l -4.940040792773722 0.36206144755831693" fill="#ff1e03" stroke="none" /><path d="M 120.94382443527127 98.46500227214037 l 14.759792261928508 -1.0817626769056237 a35.79938100409712,35.79938100409712 0 0,0 0.039753352734442804,0.6149667715514339 l -14.776226205667367 0.8275368411011547" fill="#ffa90f" stroke="none" /><path d="M 120.96714384426684 98.82574320788733 l 14.697651091116812 -0.8231362721616112 a35.72068275993866,35.72068275993866 0 0,0 0.029097713974214245,0.6142067527836734 l -14.709642413324522 0.570018412754938" fill="#ffa80f" stroke="none" /><path d="M 120.98425023603335 99.18683210126433 l 6.675824347607146 -0.2586971655413444 a27.680834898690694,27.680834898690694 0 0,0 0.014352256576180358,0.4762815234808023 l -6.679288298638971 0.143745494635543" fill="#ff3705" stroke="none" /><line stroke="#e1ed5e" stroke-width="0.3" x1="184.98032266829074" x2="189.97916517819016" y1="98.17113171792111" y2="98.06355123074" /><path d="M 185.9800911702706 98.14961562048488 a86.0,86.0 0 0,1 -9.607161424134198,41.387399972396054" fill="none" id="id160" stroke="none" /><text fill="#e1ed5e" style="font-size:6.75px; font-family:Arial;" text-anchor="middle"><textPath startOffset="21.466115282336823" xlink:href="#id160">April</textPath></text><path d="M 120.99513854157772 99.54816195383933 l 4.472137429263216 -0.09624522525529543 a25.47317295994705,25.47317295994705 0 0,0 0.005661100804441598,0.43845849605597614 l -4.473131537185373 0.01925047113885655" fill="#ff1702" stroke="none" /><path d="M 120.99980553446 99.90962569577887 l 12.536690390406035 -0.05395262681882771 a33.536806484541415,33.536806484541415 0 0,0 -0.002484442892829238,0.5772970321656632 l -12.535761650223703 -0.16185388355052016" fill="#ff8a0c" stroke="none" /><path d="M 120.99824983174949 100.27111621757518 l 7.366774975814831 0.09511517308221493 a28.36738898392382,28.36738898392382 0 0,0 -0.010506655871760454,0.48820301324920834 l -7.364046257258063 -0.2219080021215381" fill="#ff4106" stroke="none" /><path d="M 120.9904718944345 100.63252640178507 l 10.436287963771678 0.31448686370255513 a31.441025258575284,31.441025258575284 0 0,0 -0.020957490218642932,0.5408197000287968 l -10.429328340701831 -0.4940838107453581" fill="#ff6d0a" stroke="none" /><path d="M 120.9764740272857 100.99374915477107 l 15.489998884692401 0.7338303510420637 a36.50737155135848,36.50737155135848 0 0,0 -0.03514034278846454,0.6274544264350862 l -15.475072191016409 -1.0003564938125733" fill="#ffb310" stroke="none" /><path d="M 120.95626037817324 101.35467743843564 l 17.990808045887277 1.162981434625331 a39.02835821591211,39.02835821591211 0 0,0 -0.04910778732120801,0.6700367416792047 l -17.96812369990173 -1.4724913128013062" fill="#ffd413" stroke="none" /><path d="M 120.92983693683757 101.71520430193887 l 10.466430591847507 0.8577260697853262 a31.50151719251798,31.50151719251798 0 0,0 -0.04894046268050244,0.5400539275363645 l -10.450115532889928 -1.0377613858702612" fill="#ff6e0a" stroke="none" /><path d="M 120.89721153311464 102.0752229133903 l 8.788008907111788 0.8727038733477502 a29.831235055304116,29.831235055304116 0 0,0 -0.05514189943943081,0.510545504837888 l -8.771684706171307 -1.0238457000704297" fill="#ff5608" stroke="none" /><path d="M 120.8583938346157 102.4346265915055 l 11.689260090750393 1.3643899754513067 a32.768617653502126,32.768617653502126 0 0,0 -0.07021611135593737,0.5596914937550409 l -11.664042470147606 -1.5653992234937424" fill="#ff800b" stroke="none" /><path d="M 120.81339534386255 102.79330883721812 l 14.642263060436816 1.9650980595845549 a35.77353978959733,35.77353978959733 0 0,0 -0.08716129103952946,0.609605866523638 l -14.606267718380685 -2.2168493980886024" fill="#ffa90f" stroke="none" /><path d="M 120.70491114924044 103.5080841355445 l 3.502659376298856 0.5934642125069434 a24.55257969339194,24.55257969339194 0 0,0 -0.07418802529982428,0.4160858444765019 l -3.491924908659843 -0.6536688077166636" fill="#ff0901" stroke="none" /><path d="M 120.64145759157962 103.86396538481128 l 14.504274969835153 2.715119131804434 a35.756214429875875,35.756214429875875 0 0,0 -0.11845534449633288,0.604001249572073 l -14.455389692363157 -2.964384108444452" fill="#ffa80f" stroke="none" /><path d="M 120.5718875245553 104.21870165774334 l 11.534739923272724 2.365442955969147 a32.7747843069623,32.7747843069623 0 0,0 -0.11809216953263524,0.5516873011489041 l -11.492313715015646 -2.5636440765342203" fill="#ff800b" stroke="none" /><path d="M 120.49622156327973 104.57218783832717 l 12.815285437009566 2.858765555343187 a34.13027346754233,34.13027346754233 0 0,0 -0.13284710656535134,0.5723018581517301 l -12.764177764513661 -3.078936070843482" fill="#ff920d" stroke="none" /><path d="M 120.41448212921028 104.9243191809786 l 14.291403041611396 3.4473286990810053 a35.70130184906381,35.70130184906381 0 0,0 -0.14924620796593455,0.59616441217795 l -14.2299455193504 -3.692820950656351" fill="#ffa80f" stroke="none" /><path d="M 120.32669344350535 105.2749913415812 l 5.725915877423176 1.4859355634981668 a26.915582569299108,26.915582569299108 0 0,0 -0.12023821796227045,0.4474511387525948 l -5.699489583119129 -1.5842776354263097" fill="#ff2c04" stroke="none" /><path d="M 120.23288151984713 105.62410040840565 l 11.331926347613331 3.1499167104358405 a32.76157004954764,32.76157004954764 0 0,0 -0.15570694848174724,0.5420363144975385 l -11.276026762245484 -3.3445105004379614" fill="#ff800b" stroke="none" /><path d="M 120.13307415673323 105.97154293290107 l 12.67521915753073 3.759516047767166 a34.22101136845638,34.22101136845638 0 0,0 -0.17236508669266457,0.5632990762887994 l -12.608627298331932 -3.9771420966080226" fill="#ff940d" stroke="none" /><path d="M 120.02730092923936 106.31721596034902 l 19.619363495085626 6.1885401652948095 a41.57224959331783,41.57224959331783 0 0,0 -0.22114011534572744,0.6805992924085869 l -19.50993112872365 -6.525338357681192" fill="#fff417" stroke="none" /><path d="M 119.9155931802556 106.66101706037122 l 8.37464705743862 2.801004540476879 a29.83064775497457,29.83064775497457 0 0,0 -0.1670646521375113,0.4855680803418185 l -8.325191574357879 -2.944745323907998" fill="#ff5608" stroke="none" /><path d="M 119.79798401119884 107.00284435728193 l 9.408474183777356 3.3279186563252647 a30.979700849721034,30.979700849721034 0 0,0 -0.18215435505982427,0.5012105529420835 l -9.349795567712304 -3.4893770062734792" fill="#ff6709" stroke="none" /><path d="M 119.67450827220406 107.3425965602758 l 13.775576391540104 5.141094172668107 a35.70365105038198,35.70365105038198 0 0,0 -0.21984220572436622,0.5739386272677155 l -13.685039906222231 -5.377456366768967" fill="#ffa80f" stroke="none" /><path d="M 119.54520255179757 107.68017299344265 l 13.818413837246284 5.429864872660148 a35.84695233078992,35.84695233078992 0 0,0 -0.23061093079664716,0.5723574179724947 l -13.722900292192245 -5.666921658475457" fill="#ffaa0f" stroke="none" /><path d="M 119.41010516605496 108.01547362559984 l 17.72848894947415 7.321044084024919 a40.180641462471044,40.180641462471044 0 0,0 -0.2694954250025084,0.6370075770443329 l -17.599842543279333 -7.625126186735415" fill="#ffe315" stroke="none" /><path d="M 119.26925614724726 108.34839909993367 l 8.10851620770546 3.5130120692217908 a29.836814408434755,29.836814408434755 0 0,0 -0.2082310073702155,0.4695059502393433 l -8.046844115603971 -3.6520663559538216" fill="#ff5608" stroke="none" /><path d="M 119.12269723197855 108.67885076344098 l 26.803560976303807 12.164816647994517 a50.43490521625237,50.43490521625237 0 0,0 -0.3655939414852764,0.7874568251953991 l -26.5901924179787 -12.624393540468747" fill="#9fff22" stroke="none" /><path d="M 118.97047184881838 109.00673069616215 l 5.3489159791308944 2.5395386116045002 a26.921161922429746,26.921161922429746 0 0,0 -0.20235322560016633,0.4169075797819643 l -5.304409496916014 -2.63123514735174" fill="#ff2c04" stroke="none" /><path d="M 118.81262510543309 109.33194174019688 l 10.633810012588572 5.274867008599452 a32.870220610512675,32.870220610512675 0 0,0 -0.2557950084089894,0.5047078188696716 l -10.541436334393314 -5.457129039171818" fill="#ff810b" stroke="none" /><path d="M 118.64920377521936 109.65438752849418 l 2.6312518272772554 1.3621560004265796 a23.962930162533034,23.962930162533034 0 0,0 -0.19278461650200054,0.36467584164214933 l -2.607414702550362 -1.407246857154863" fill="#ff0000" stroke="none" /><line stroke="#e1ed5e" stroke-width="0.3" x1="174.80103733775053" x2="179.2010983576182" y1="140.37084112569926" y2="142.7455964860345" /><path d="M 175.68104954172406 140.8457921977663 a86.0,86.0 0 0,1 -30.038265399797805,32.042727171017184" fill="none" id="id161" stroke="none" /><text fill="#e1ed5e" style="font-size:6.75px; font-family:Arial;" text-anchor="middle"><textPath startOffset="22.206326154141568" xlink:href="#id161">May</textPath></text><path d="M 118.48025628344425 109.97397251340804 l 12.941718108862709 6.9847700548238585 a35.70629390186491,35.70629390186491 0 0,0 -0.2965723803591879,0.5383650156230049 l -12.819569319052011 -7.206505588844668" fill="#ffa80f" stroke="none" /><path d="M 118.30583269289576 110.29060199501025 l 22.46835520416506 12.630559055546831 a46.77514321271925,46.77514321271925 0 0,0 -0.40059124459495854,0.6984646008878042 l -22.247611963417725 -13.015443502292952" fill="#caff1d" stroke="none" /><path d="M 118.12598468904814 110.60418214915192 l 12.897151662165165 7.54517604295841 a35.94209498417552,35.94209498417552 0 0,0 -0.3170077789781014,0.5313232718206765 l -12.765363007488837 -7.76606140866519" fill="#ffab0f" stroke="none" /><path d="M 117.94076556474637 110.91462005526583 l 7.538698969716209 4.586316825139317 a29.824187451349626,29.824187451349626 0 0,0 -0.2705982048882438,0.436290466624018 l -7.458636125160002 -4.7154036231286085" fill="#ff5608" stroke="none" /><path d="M 117.75023020441432 111.22182372390056 l 26.075937950114287 16.48539628735515 a51.85000536028079,51.85000536028079 0 0,0 -0.48342756587699287,0.7502903177593435 l -25.788305520860245 -16.931808205035946" fill="#8fff24" stroke="none" /><path d="M 117.55443506779139 111.5257021239791 l 2.487344011754352 1.6331135720763899 a23.975557119618163,23.975557119618163 0 0,0 -0.22947678700433943,0.3430366607521624 l -2.458864119339291 -1.675687147034359" fill="#ff0000" stroke="none" /><path d="M 117.35343817320211 111.8261652097733 l 7.303309325940453 4.977119911604962 a29.837989009093832,29.837989009093832 0 0,0 -0.29289409459241683,0.4219357883341946 l -7.2165543241859 -5.102096962126176" fill="#ff5608" stroke="none" /><path d="M 117.14729908036423 112.12312394758627 l 2.4191054449517093 1.7103052214802479 a23.962636512368267,23.962636512368267 0 0,0 -0.24101871711287554,0.3347539179770742 l -2.389306935463231 -1.7516927449084534" fill="#ff0000" stroke="none" /><path d="M 116.93607887273984 112.41649034213515 l 2.392859280000047 1.754297105219051 a23.96704126483982,23.96704126483982 0 0,0 -0.24679060210359152,0.3306163414615654 l -2.3623074112013636 -1.7952263261899315" fill="#ff0000" stroke="none" /><path d="M 116.71984013943494 112.70617746262583 l 5.391644023130903 4.097358898284442 a27.771866449769508,27.771866449769508 0 0,0 -0.29252131103901235,0.3781232267874742 l -5.320315894873822 -4.189560119185169" fill="#ff3905" stroke="none" /><path d="M 116.498646956653 112.99209946851258 l 49.495940869959 38.97629840553772 a84.0,84.0 0 0,0 -0.9043283517805842,1.1282886656869988 l -48.81769460612357 -39.822514904802965" fill="#4dd2ff" stroke="none" /><line stroke="#e1ed5e" stroke-width="0.3" x1="143.8653032363475" x2="146.44561519142675" y1="172.8068346515853" y2="177.08958963109032" /><path d="M 144.38136562736335 173.6633856474863 a86.0,86.0 0 0,1 -40.68145358897372,12.25698825130547" fill="none" id="id162" stroke="none" /><text fill="#e1ed5e" style="font-size:6.75px; font-family:Arial;" text-anchor="middle"><textPath startOffset="21.466115282336833" xlink:href="#id162">June</textPath></text><line stroke="#e1ed5e" stroke-width="0.3" x1="102.19456741930631" x2="102.32365962044197" y1="184.97166512339345" y2="189.96999836594603" /><path d="M 102.22038585953345 185.97133177190398 a86.0,86.0 0 0,1 -42.740103519485714,-10.115201625700543" fill="none" id="id163" stroke="none" /><text fill="#e1ed5e" style="font-size:6.75px; font-family:Arial;" text-anchor="middle"><textPath startOffset="22.20632615414155" xlink:href="#id163">July</textPath></text><line stroke="#e1ed5e" stroke-width="0.3" x1="58.666819895761336" x2="56.23545636021788" y1="174.27360380694188" y2="178.64263932499728" /><path d="M 58.180547188652646 175.14741091055294 a86.0,86.0 0 0,1 -31.652253787137756,-30.449443065178592" fill="none" id="id164" stroke="none" /><text fill="#e1ed5e" style="font-size:6.75px; font-family:Arial;" text-anchor="middle"><textPath startOffset="22.20632615414155" xlink:href="#id164">August</textPath></text><line stroke="#e1ed5e" stroke-width="0.3" x1="26.63291911575756" x2="22.317208475507996" y1="142.92168965132927" y2="145.44649492493687" /><path d="M 25.769776987707644 143.4266507060508 a86.0,86.0 0 0,1 -11.730757126820373,-40.83630448921669" fill="none" id="id165" stroke="none" /><text fill="#e1ed5e" style="font-size:6.75px; font-family:Arial;" text-anchor="middle"><textPath startOffset="21.46611528233685" xlink:href="#id165">September</textPath></text><line stroke="#e1ed5e" stroke-width="0.3" x1="15.007084014347285" x2="10.007500721073583" y1="101.09737516637583" y2="101.16192664675087" /><path d="M 14.007167355692545 101.11028546245083 a86.0,86.0 0 0,1 10.666146001902534,-42.60595125391555" fill="none" id="id166" stroke="none" /><text fill="#e1ed5e" style="font-size:6.75px; font-family:Arial;" text-anchor="middle"><textPath startOffset="22.20632615414155" xlink:href="#id166">October</textPath></text><line stroke="#e1ed5e" stroke-width="0.3" x1="26.266209847984243" x2="21.928928074336255" y1="57.711370442889674" y2="55.22380399835377" /><path d="M 25.398753493254645 57.213857153982495 a86.0,86.0 0 0,1 29.58750427330803,-30.492523968695096" fill="none" id="id167" stroke="none" /><text fill="#e1ed5e" style="font-size:6.75px; font-family:Arial;" text-anchor="middle"><textPath startOffset="21.46611528233685" xlink:href="#id167">November</textPath></text><line stroke="#e1ed5e" stroke-width="0.3" x1="56.762969772571076" x2="54.21961505331055" y1="26.818313649435495" y2="22.513508569990535" /><path d="M 56.25429882871897 25.957352633546506 a86.0,86.0 0 0,1 42.265352541879196,-11.944610805530505" fill="none" id="id168" stroke="none" /><text fill="#e1ed5e" style="font-size:6.75px; font-family:Arial;" text-anchor="middle"><textPath startOffset="22.20632615414155" xlink:href="#id168">December</textPath></text></svg>