<?xml version="1.0" encoding="utf-8" ?>
<svg baseProfile="full" height="200mm" version="1.1" viewBox="0,0,200,200" width="200mm" xmlns="http://www.w3.org/2000/svg" xmlns:ev="http://www.w3.org/2001/xml-events" xmlns:xlink="http://www.w3.org/1999/xlink"><defs /><rect fill="#1a1a1a" height="200" width="200" x="0" y="0" /><text alignment-baseline="middle" fill="#e1ed5e" style="dominant-baseline: central; font-size:9.0px; font-family:Arial;" text-anchor="middle" x="100.0" y="100.0">2025</text><line stroke="#e1ed5e" stroke-width="0.3" x1="100.0" x2="100.0" y1="15.0" y2="10.0" /><path d="M 100.0 14.0 a86.0,86.0 0 0,1 42.46469731375804,11.215312516191453" fill="none" id="id157" stroke="none" /><text fill="#e1ed5e" style="font-size:6.75px; font-family:Arial;" text-anchor="middle"><textPath startOffset="22.20632615414155" xlink:href="#id157">January</textPath></text><path d="M 100.0 79.0 l 0.0 -31.44382341512987 a52.44382341512987,52.44382341512987 0 0,0 0.9027342106183329,0.007770118354153666 l -0.5412537313458046 31.439164673384276" fill="#bdff1f" stroke="none" /><path d="M 100.36148047927253 79.00311137660856 l 0.44625125490609563 -25.920868302954144 a46.92470932839167,46.92470932839167 0 0,0 0.8074923858335082,0.020855145991487377 l -0.8923702759344717 25.909346364820298" fill="#fff417" stroke="none" /><path d="M 100.72285384407766 79.0124445844662 l 1.0821310229391075 -31.41891683481562 a52.437546701736565,52.437546701736565 0 0,0 0.9018238437307015,0.03883443174789123 l -1.6227956990591403 31.395634676543533" fill="#bdff1f" stroke="none" /><path d="M 101.08401301168833 79.027996857942 l 1.2161409688173306 -23.528234388532947 a44.55964372179215,44.55964372179215 0 0,0 0.7656576450003967,0.04618656006675591 l -1.620960662657339 23.503814559085885" fill="#ffd113" stroke="none" /><path d="M 101.44485096284872 79.0497635885617 l 1.301389358443557 -18.87005332990684 a39.914875810742146,39.914875810742146 0 0,0 0.685033944408345,0.05317181836121481 l -1.6260134922142433 18.84485624935716" fill="#ff8a0c" stroke="none" /><path d="M 101.80526077348638 79.07773832637324 l 5.415782320459128 -62.76678502088029 a84.0,84.0 0 0,0 1.4394994916390231,0.13669782193928715 l -6.4954069391883955 62.66426165442583" fill="#4dd2ff" stroke="none" /><path d="M 102.16513564639614 79.11191278185805 l 1.947114246010306 -18.784731692006297 a39.885375257793584,39.885375257793584 0 0,0 0.6822930874099443,0.07666357822610129 l -2.2701740369299754 18.748432160309594" fill="#ff8a0c" stroke="none" /><path d="M 102.52436894288641 79.15227682838746 l 3.0599211668337927 -25.27062836550637 a46.45521116657201,46.45521116657201 0 0,0 0.7930242374892337,0.10295730597411347 l -3.494460132830872 25.21421273636812" fill="#ffed16" stroke="none" /><path d="M 102.88285421437855 79.19881850522331 l 4.316569468975352 -31.146127511801197 a52.44382341512987,52.44382341512987 0 0,0 0.8931208589605919,0.1316227983650226 l -4.8520593083646 31.067210229275204" fill="#bdff1f" stroke="none" /><path d="M 103.2404852339499 79.25152402106235 l 3.205036221915781 -20.521499794333792 a41.77027228980482,41.77027228980482 0 0,0 0.70943981797143,0.11706364868021214 l -3.5578052460260863 20.463289882713955" fill="#ffa70f" stroke="none" /><path d="M 103.59715602781102 79.31037775812273 l 9.213028664349077 -52.99021818771747 a74.78515706728038,74.78515706728038 0 0,0 1.2663793677243227,0.23142273495841095 l -10.1238031531763 52.823779971408314" fill="#3fffc2" stroke="none" /><path d="M 103.95276090670814 79.375362276772 l 4.819350895371312 -25.146313835846524 a46.603969273993485,46.603969273993485 0 0,0 0.7865720077554894,0.15777894507048926 l -5.251489312593927 25.059630934698824" fill="#ffef16" stroke="none" /><path d="M 104.307194497241 79.44645832069477 l 6.451200748759422 -30.784545150242526 a52.45323848521984,52.45323848521984 0 0,0 0.8821068006078842,0.19279438058177037 l -6.980150273520834 30.668937271564882" fill="#bdff1f" stroke="none" /><path d="M 104.66035177308747 79.52364482259891 l 5.6206430461742745 -24.69562147721886 a46.32716621334848,46.32716621334848 0 0,0 0.7760380820955275,0.18366314124717598 l -6.044904815232326 24.595212423830816" fill="#ffeb16" stroke="none" /><path d="M 105.01212808612495 79.60689891045804 l 7.507480853276318 -30.546070119894356 a52.45512149923782,52.45512149923782 0 0,0 0.87497918114905,0.22305167549904487 l -8.032168923110392 30.412315448226444" fill="#bdff1f" stroke="none" /><path d="M 105.36241919743992 79.69619591428918 l 9.631582533752503 -36.46819795327198 a58.71865379442269,58.71865379442269 0 0,0 0.9750151676217788,0.26650847672236694 l -10.257895590597993 36.29700293572333" fill="#6cff28" stroke="none" /><path d="M 105.71112130821622 79.79150937346287 l 6.8466199764247895 -24.226390607041196 a46.17526974923035,46.17526974923035 0 0,0 0.7630128715353546,0.22274438039174638 l -7.262623065683571 24.104947897730746" fill="#ffe915" stroke="none" /><path d="M 106.0581310904928 79.89281104454417 l 3.0470822246708504 -10.113392585779078 a31.562453298263442,31.562453298263442 0 0,0 0.5188485976997798,0.16120878493088 l -3.2207161950813483 10.059443665965677" fill="#ff0000" stroke="none" /><path d="M 106.40334571778207 80.00007090966166 l 9.597267268977552 -29.97568354111296 a52.47457931075709,52.47457931075709 0 0,0 0.857877355856455,0.2828286763451396 l -10.111827447076424 29.806041140508587" fill="#bcff1f" stroke="none" /><path d="M 106.74666289553966 80.11325718540242 l 10.110214233005694 -29.80128596393815 a52.469557940042435,52.469557940042435 0 0,0 0.8528002077991063,0.29752524733008 l -10.621696444868073 29.622839863435864" fill="#bcff1f" stroke="none" /><path d="M 107.08798089147638 80.2323363322302 l 10.884606576868022 -30.35606969909664 a53.248498072152316,53.248498072152316 0 0,0 0.8601348415304264,0.3167949211121871 l -11.405523744171026 30.164211510178127" fill="#b2ff20" stroke="none" /><path d="M 107.4271985657038 80.35727306442388 l 7.812355319492129 -20.66135177442073 a43.08900977373942,43.08900977373942 0 0,0 0.6915105570116226,0.26829535285942707 l -8.166849041503419 20.523813717670755" fill="#ffbb11" stroke="none" /><path d="M 107.76421540070413 80.48803036053334 l 12.923959705909498 -32.478736921766384 a55.955644558687275,55.955644558687275 0 0,0 0.8918693724462574,0.3638159105271325 l -13.481112947944144 32.25146012505567" fill="#8fff24" stroke="none" /><path d="M 108.09893153111575 80.62456947434976 l 9.709180284589817 -23.227699523367466 a46.17526974923035,46.17526974923035 0 0,0 0.730704386956322,0.3128494845888552 l -10.107568429336455 23.05713051081582" fill="#ffe915" stroke="none" /><path d="M 108.43124777332544 80.76684994638697 l 7.849121989292741 -17.90521937770526 a40.5500792061452,40.5500792061452 0 0,0 0.6368638676083369,0.2857422532597069 l -8.156167975367858 17.767456793929025" fill="#ff940d" stroke="none" /><path d="M 108.76106565485865 80.91482961587045 l 5.360545626344606 -11.677452339824738 a33.84905998744657,33.84905998744657 0 0,0 0.5274357121390226,0.2476381389900446 l -5.560759549783227 11.58344921819469" fill="#ff2703" stroke="none" /><path d="M 109.08828744355905 81.06846463323043 l 8.22718599405425 -17.137801107491697 a40.01028185432047,40.01028185432047 0 0,0 0.6183088607970539,0.3034014727072143 l -8.520966121861736 16.99364447464965" fill="#ff8c0c" stroke="none" /><path d="M 109.41281617654863 81.2277094730956 l 6.632607267900104 -13.22762797536453 a35.79735182473025,35.79735182473025 0 0,0 0.5484486915096419,0.28093672165398775 l -6.859316446998501 13.111498728398043" fill="#ff4806" stroke="none" /><path d="M 109.73455568895987 81.39251694778311 l 11.703463192537338 -22.371025444372552 a46.24745195325343,46.24745195325343 0 0,0 0.702201387654228,0.37509166251081255 l -12.086809626719878 22.166255055359986" fill="#ffea16" stroke="none" /><path d="M 110.05341064243156 81.56283822128135 l 15.063138419297948 -27.62460719148122 a52.46453656932779,52.46453656932779 0 0,0 0.7891563466785687,0.4391646525251756 l -15.536418855048552 27.361227141395865" fill="#bcff1f" stroke="none" /><path d="M 110.36928655335952 81.73862282372117 l 12.42938302704756 -21.88941836618604 a46.1721313925337,46.1721313925337 0 0,0 0.6877520746964159,0.3983903929889281 l -12.804331834209306 21.672223815807058" fill="#ffe915" stroke="none" /><line stroke="#e1ed5e" stroke-width="0.3" x1="143.23703022742887" x2="145.7803849466894" y1="26.81831364943548" y2="22.513508569990506" /><path d="M 143.74570117128098 25.957352633546492 a86.0,86.0 0 0,1 28.547481713284135,27.462654790039103" fill="none" id="id158" stroke="none" /><text fill="#e1ed5e" style="font-size:6.75px; font-family:Arial;" text-anchor="middle"><textPath startOffset="19.985693538727396" xlink:href="#id158">February</textPath></text><path d="M 110.68208982089419 81.91981866633111 l 12.802735443346274 -21.66952181303729 a46.16899303583705,46.16899303583705 0 0,0 0.6807462670680413,0.4101420089865244 l -13.173843776631953 21.445933194592147" fill="#ffe915" stroke="none" /><path d="M 110.99172775467656 82.1063720568725 l 9.931551843377239 -16.167748833450226 a39.9745045879786,39.9745045879786 0 0,0 0.5832105999601779,0.3652064241912201 l -10.20838159570968 15.994398067936062" fill="#ff8b0c" stroke="none" /><path d="M 111.2981086023043 82.29822771554956 l 13.649109352199456 -21.385298561293673 a46.369847864422994,46.369847864422994 0 0,0 0.669123472013645,0.4352165190779421 l -14.015199849997382 21.1471831180562" fill="#ffec16" stroke="none" /><path d="M 111.60114157652 82.49532879139004 l 17.3779601395957 -26.22116767677633 a52.45700451325582,52.45700451325582 0 0,0 0.7483748713174424,0.5053060537869786 l -17.826739705319685 25.91814971069068" fill="#bdff1f" stroke="none" /><path d="M 111.90073688211348 82.69761687909136 l 14.298882802525014 -20.78902767963076 a46.231760169770155,46.231760169770155 0 0,0 0.6517992642145621,0.45662703832918555 l -14.654613206323228 20.53981579853764" fill="#ffea16" stroke="none" /><path d="M 112.19680574252982 82.90503203632743 l 10.96717290726207 -15.371522139436461 a39.88286457243626,39.88286457243626 0 0,0 0.5554252638779302,0.4035400753359137 l -11.23014348749379 15.180462829283874" fill="#ff8a0c" stroke="none" /><line stroke="#e1ed5e" stroke-width="0.3" x1="172.23445277983987" x2="176.4835382374775" y1="55.19839476539836" y2="52.563006222186495" /><path d="M 173.08426987136738 54.67131705675599 a86.0,86.0 0 0,1 12.851231095245387,41.99856678651699" fill="none" id="id159" stroke="none" /><text fill="#e1ed5e" style="font-size:6.75px; font-family:Arial;" text-anchor="middle"><textPath startOffset="22.20632615414155" xlink:href="#id159">March</textPath></text><line stroke="#e1ed5e" stroke-width="0.3" x1="184.98032266829074" x2="189.97916517819016" y1="98.17113171792111" y2="98.06355123074" /><path d="M 185.9800911702706 98.14961562048488 a86.0,86.0 0 0,1 -9.607161424134198,41.387399972396054" fill="none" id="id160" stroke="none" /><text fill="#e1ed5e" style="font-size:6.75px; font-family:Arial;" text-anchor="middle"><textPath startOffset="21.466115282336823" xlink:href="#id160">April</textPath></text><line stroke="#e1ed5e" stroke-width="0.3" x1="174.80103733775053" x2="179.2010983576182" y1="140.37084112569926" y2="142.7455964860345" /><path d="M 175.68104954172406 140.8457921977663 a86.0,86.0 0 0,1 -30.038265399797805,32.042727171017184" fill="none" id="id161" stroke="none" /><text fill="#e1ed5e" style="font-size:6.75px; font-family:Arial;" text-anchor="middle"><textPath startOffset="22.206326154141568" xlink:href="#id161">May</textPath></text><line stroke="#e1ed5e" stroke-width="0.3" x1="143.8653032363475" x2="146.44561519142675" y1="172.8068346515853" y2="177.08958963109032" /><path d="M 144.38136562736335 173.6633856474863 a86.0,86.0 0 0,1 -40.68145358897372,12.25698825130547" fill="none" id="id162" stroke="none" /><text fill="#e1ed5e" style="font-size:6.75px; font-family:Arial;" text-anchor="middle"><textPath startOffset="21.466115282336833" xlink:href="#id162">June</textPath></text><line stroke="#e1ed5e" stroke-width="0.3" x1="102.19456741930631" x2="102.32365962044197" y1="184.97166512339345" y2="189.96999836594603" /><path d="M 102.22038585953345 185.97133177190398 a86.0,86.0 0 0,1 -42.740103519485714,-10.115201625700543" fill="none" id="id163" stroke="none" /><text fill="#e1ed5e" style="font-size:6.75px; font-family:Arial;" text-anchor="middle"><textPath startOffset="22.20632615414155" xlink:href="#id163">July</textPath></text><line stroke="#e1ed5e" stroke-width="0.3" x1="58.666819895761336" x2="56.23545636021788" y1="174.27360380694188" y2="178.64263932499728" /><path d="M 58.180547188652646 175.14741091055294 a86.0,86.0 0 0,1 -31.652253787137756,-30.449443065178592" fill="none" id="id164" stroke="none" /><text fill="#e1ed5e" style="font-size:6.75px; font-family:Arial;" text-anchor="middle"><textPath startOffset="22.20632615414155" xlink:href="#id164">August</textPath></text><line stroke="#e1ed5e" stroke-width="0.3" x1="26.63291911575756" x2="22.317208475507996" y1="142.92168965132927" y2="145.44649492493687" /><path d="M 25.769776987707644 143.4266507060508 a86.0,86.0 0 0,1 -11.730757126820373,-40.83630448921669" fill="none" id="id165" stroke="none" /><text fill="#e1ed5e" style="font-size:6.75px; font-family:Arial;" text-anchor="middle"><textPath startOffset="21.46611528233685" xlink:href="#id165">September</textPath></text><line stroke="#e1ed5e" stroke-width="0.3" x1="15.007084014347285" x2="10.007500721073583" y1="101.09737516637583" y2="101.16192664675087" /><path d="M 14.007167355692545 101.11028546245083 a86.0,86.0 0 0,1 10.666146001902534,-42.60595125391555" fill="none" id="id166" stroke="none" /><text fill="#e1ed5e" style="font-size:6.75px; font-family:Arial;" text-anchor="middle"><textPath startOffset="22.20632615414155" xlink:href="#id166">October</textPath></text><line stroke="#e1ed5e" stroke-width="0.3" x1="26.266209847984243" x2="21.928928074336255" y1="57.711370442889674" y2="55.22380399835377" /><path d="M 25.398753493254645 57.213857153982495 a86.0,86.0 0 0,1 29.58750427330803,-30.492523968695096" fill="none" id="id167" stroke="none" /><text fill="#e1ed5e" style="font-size:6.75px; font-family:Arial;" text-anchor="middle"><textPath startOffset="21.46611528233685" xlink:href="#id167">November</textPath></text><line stroke="#e1ed5e" stroke-width="0.3" x1="56.762969772571076" x2="54.21961505331055" y1="26.818313649435495" y2="22.513508569990535" /><path d="M 56.25429882871897 25.957352633546506 a86.0,86.0 0 0,1 42.265352541879196,-11.944610805530505" fill="none" id="id168" stroke="none" /><text fill="#e1ed5e" style="font-size:6.75px; font-family:Arial;" text-anchor="middle"><textPath startOffset="22.20632615414155" xlink:href="#id168">December</textPath></text></svg>