<?xml version="1.0" encoding="utf-8" ?>
<svg baseProfile="full" height="200mm" version="1.1" viewBox="0,0,200,200" width="200mm" xmlns="http://www.w3.org/2000/svg" xmlns:ev="http://www.w3.org/2001/xml-events" xmlns:xlink="http://www.w3.org/1999/xlink"><defs /><rect fill="#1a1a1a" height="200" width="200" x="0" y="0" /><text alignment-baseline="middle" fill="#e1ed5e" style="dominant-baseline: central; font-size:9.0px; font-family:Arial;" text-anchor="middle" x="100.0" y="100.0">2023</text><line stroke="#e1ed5e" stroke-width="0.3" x1="100.0" x2="100.0" y1="15.0" y2="10.0" /><path d="M 100.0 14.0 a86.0,86.0 0 0,1 42.46469731375804,11.215312516191453" fill="none" id="id133" stroke="none" /><text fill="#e1ed5e" style="font-size:6.75px; font-family:Arial;" text-anchor="middle"><textPath startOffset="22.20632615414155" xlink:href="#id133">January</textPath></text><path d="M 100.0 79.0 l 0.0 -16.8233703424426 a37.8233703424426,37.8233703424426 0 0,0 0.6510671447184994,0.005603940463825484 l -0.289586665445971 16.820877778587334" fill="#ff0000" stroke="none" /><path d="M 100.72285384407766 79.0124445844662 l 0.880472407650173 -25.56390008686343 a46.57905821784237,46.57905821784237 0 0,0 0.8010692330497532,0.034495726269016085 l -1.3203824730892577 25.54495663407022" fill="#ffa30f" stroke="none" /><path d="M 101.08401301168833 79.027996857942 l 1.3195368871314679 -25.52859739190944 a46.56267713669102,46.56267713669102 0 0,0 0.8000752865974398,0.04826272619839179 l -1.7587742225685195 25.50210139633074" fill="#ffa30f" stroke="none" /><path d="M 101.44485096284872 79.0497635885617 l 2.3408997502562094 -33.94288023080997 a55.02350555136639,55.02350555136639 0 0,0 0.9443338674470538,0.07329848291766865 l -2.9248238070656045 33.89755648570383" fill="#cfff1d" stroke="none" /><path d="M 101.80526077348638 79.07773832637324 l 3.2542009319922514 -37.714907695143474 a58.85504043266856,58.85504043266856 0 0,0 1.0085928664669113,0.09577804568207705 l -3.902918925549407 37.653304104946216" fill="#95ff23" stroke="none" /><path d="M 102.16513564639614 79.11191278185805 l 4.346766384822582 -41.935310387684474 a63.1599885592449,63.1599885592449 0 0,0 1.0804367093535991,0.12139965319055623 l -5.067969797685906 41.854274781023314" fill="#58ff2a" stroke="none" /><path d="M 102.52436894288641 79.15227682838746 l 4.063709551029415 -33.560503114425856 a54.80563717205335,54.80563717205335 0 0,0 0.9355720819487632,0.12146410733548972 l -4.640796361486025 33.48558068392623" fill="#d3ff1c" stroke="none" /><path d="M 102.88285421437855 79.19881850522331 l 7.579495147738842 -54.68970765865841 a76.21243402064536,76.21243402064536 0 0,0 1.2979014515627239,0.19127693563839204 l -8.51976557973022 54.55113623885905" fill="#40ffc7" stroke="none" /><path d="M 103.2404852339499 79.25152402106235 l 7.761947534691468 -49.69890937506735 a71.30138589146884,71.30138589146884 0 0,0 1.2110058052051713,0.19982633415699347 l -8.616282546035515 49.55793677797073" fill="#38ff7f" stroke="none" /><path d="M 103.59715602781102 79.31037775812273 l 5.751390345722146 -33.080047876316996 a54.57630203593437,54.57630203593437 0 0,0 0.9241713941019022,0.1688864151172335 l -6.319956860926949 32.97614597984902" fill="#d6ff1c" stroke="none" /><path d="M 103.95276090670814 79.375362276772 l 9.693457764249473 -50.57833230787402 a72.49884292363296,72.49884292363296 0 0,0 1.22362024794772,0.2454467105166754 l -10.562644421664318 50.40398164128013" fill="#3aff91" stroke="none" /><path d="M 104.307194497241 79.44645832069477 l 3.4891870449450955 -16.65008427204956 a38.01175277568319,38.01175277568319 0 0,0 0.6392441457338023,0.13971401085712232 l -3.7752739148324257 16.58755676309657" fill="#ff0400" stroke="none" /><path d="M 106.0581310904928 79.89281104454417 l 6.217543156942221 -20.63628423154 a42.552588470839076,42.552588470839076 0 0,0 0.6995131413883285,0.21734213808484806 l -6.571841671041268 20.52620195857263" fill="#ff5a08" stroke="none" /><path d="M 106.40334571778207 80.00007090966166 l 10.2516134724064 -32.01943976573267 a54.62053095504304,54.62053095504304 0 0,0 0.8929603111955261,0.29439497513259166 l -10.801256605844342 31.838231066340843" fill="#d5ff1c" stroke="none" /><line stroke="#e1ed5e" stroke-width="0.3" x1="143.23703022742887" x2="145.7803849466894" y1="26.81831364943548" y2="22.513508569990506" /><path d="M 143.74570117128098 25.957352633546492 a86.0,86.0 0 0,1 28.547481713284135,27.462654790039103" fill="none" id="id134" stroke="none" /><text fill="#e1ed5e" style="font-size:6.75px; font-family:Arial;" text-anchor="middle"><textPath startOffset="19.985693538727396" xlink:href="#id134">February</textPath></text><path d="M 110.99172775467656 82.1063720568725 l 8.85362964154997 -14.412980223672053 a37.91510439689019,37.91510439689019 0 0,0 0.5531648487149212,0.34639177751784295 l -9.100413642637154 14.258444104831266" fill="#ff0200" stroke="none" /><path d="M 112.19680574252982 82.90503203632743 l 11.437894794718542 -16.03128304370407 a40.69333576016017,40.69333576016017 0 0,0 0.5667122207736524,0.4117405295324191 l -11.712152331845983 15.832023279354978" fill="#ff3705" stroke="none" /><path d="M 112.48926042617603 83.11751280151076 l 10.69018861565014 -14.450573236097338 a38.974960347382925,38.974960347382925 0 0,0 0.5359128432105396,0.40363844286777156 l -10.937347612619062 14.264418203723718" fill="#ff1602" stroke="none" /><path d="M 112.77801427241765 83.33499621200491 l 20.87993782822785 -27.23148022706685 a55.31508879586053,55.31508879586053 0 0,0 0.7506190245374096,0.585870054773128 l -21.345589407924688 26.868031783070496" fill="#cbff1d" stroke="none" /><path d="M 113.06298171725822 83.55741782278167 l 25.060789855761872 -31.544413484477552 a61.287630983644924,61.287630983644924 0 0,0 0.8203687990255324,0.6633478493194526 l -25.600062053351895 31.108359537893968" fill="#72ff27" stroke="none" /><path d="M 113.34407831869373 83.78471172551755 l 25.159758473268628 -30.573317003758437 a60.59471125094256,60.59471125094256 0 0,0 0.7996841677779668,0.6697124928285466 l -25.68230017800571 30.135703353536073" fill="#7cff26" stroke="none" /><path d="M 113.6212207817346 84.01681056812373 l 24.91090677561309 -29.23054756210555 a59.40544475935412,59.40544475935412 0 0,0 0.7725712075203187,0.6699661381185232 l -25.41037178178017 28.797416430567356" fill="#8dff24" stroke="none" /><path d="M 113.89432698308785 84.25364557470407 l 17.160265149111765 -19.447621853067727 a46.936165786941935,46.936165786941935 0 0,0 0.6012053752885901,0.5397681220054793 l -17.492481511996345 19.14935472229295" fill="#ffa90f" stroke="none" /><path d="M 114.16331599549186 84.49514656593476 l 22.616597551448066 -24.758822744903622 a54.533711224940845,54.533711224940845 0 0,0 0.6876236571320382,0.6390712493708496 l -23.039429092374952 24.36584690945813" fill="#d7ff1c" stroke="none" /><path d="M 114.42810811169701 84.74124197986012 l 43.28432433509102 -45.77627406041963 a84.0,84.0 0 0,0 1.042067025550327,1.0024676529507923 l -44.06587460425377 45.02442332070654" fill="#4dd2ff" stroke="none" /><line stroke="#e1ed5e" stroke-width="0.3" x1="172.23445277983987" x2="176.4835382374775" y1="55.19839476539836" y2="52.563006222186495" /><path d="M 173.08426987136738 54.67131705675599 a86.0,86.0 0 0,1 12.851231095245387,41.99856678651699" fill="none" id="id135" stroke="none" /><text fill="#e1ed5e" style="font-size:6.75px; font-family:Arial;" text-anchor="middle"><textPath startOffset="22.20632615414155" xlink:href="#id135">March</textPath></text><line stroke="#e1ed5e" stroke-width="0.3" x1="184.98032266829074" x2="189.97916517819016" y1="98.17113171792111" y2="98.06355123074" /><path d="M 185.9800911702706 98.14961562048488 a86.0,86.0 0 0,1 -9.607161424134198,41.387399972396054" fill="none" id="id136" stroke="none" /><text fill="#e1ed5e" style="font-size:6.75px; font-family:Arial;" text-anchor="middle"><textPath startOffset="21.466115282336823" xlink:href="#id136">April</textPath></text><line stroke="#e1ed5e" stroke-width="0.3" x1="174.80103733775053" x2="179.2010983576182" y1="140.37084112569926" y2="142.7455964860345" /><path d="M 175.68104954172406 140.8457921977663 a86.0,86.0 0 0,1 -30.038265399797805,32.042727171017184" fill="none" id="id137" stroke="none" /><text fill="#e1ed5e" style="font-size:6.75px; font-family:Arial;" text-anchor="middle"><textPath startOffset="22.206326154141568" xlink:href="#id137">May</textPath></text><line stroke="#e1ed5e" stroke-width="0.3" x1="143.8653032363475" x2="146.44561519142675" y1="172.8068346515853" y2="177.08958963109032" /><path d="M 144.38136562736335 173.6633856474863 a86.0,86.0 0 0,1 -40.68145358897372,12.25698825130547" fill="none" id="id138" stroke="none" /><text fill="#e1ed5e" style="font-size:6.75px; font-family:Arial;" text-anchor="middle"><textPath startOffset="21.466115282336833" xlink:href="#id138">June</textPath></text><line stroke="#e1ed5e" stroke-width="0.3" x1="102.19456741930631" x2="102.32365962044197" y1="184.97166512339345" y2="189.96999836594603" /><path d="M 102.22038585953345 185.97133177190398 a86.0,86.0 0 0,1 -42.740103519485714,-10.115201625700543" fill="none" id="id139" stroke="none" /><text fill="#e1ed5e" style="font-size:6.75px; font-family:Arial;" text-anchor="middle"><textPath startOffset="22.20632615414155" xlink:href="#id139">July</textPath></text><line stroke="#e1ed5e" stroke-width="0.3" x1="58.666819895761336" x2="56.23545636021788" y1="174.27360380694188" y2="178.64263932499728" /><path d="M 58.180547188652646 175.14741091055294 a86.0,86.0 0 0,1 -31.652253787137756,-30.449443065178592" fill="none" id="id140" stroke="none" /><text fill="#e1ed5e" style="font-size:6.75px; font-family:Arial;" text-anchor="middle"><textPath startOffset="22.20632615414155" xlink:href="#id140">August</textPath></text><line stroke="#e1ed5e" stroke-width="0.3" x1="26.63291911575756" x2="22.317208475507996" y1="142.92168965132927" y2="145.44649492493687" /><path d="M 25.769776987707644 143.4266507060508 a86.0,86.0 0 0,1 -11.730757126820373,-40.83630448921669" fill="none" id="id141" stroke="none" /><text fill="#e1ed5e" style="font-size:6.75px; font-family:Arial;" text-anchor="middle"><textPath startOffset="21.46611528233685" xlink:href="#id141">September</textPath></text><line stroke="#e1ed5e" stroke-width="0.3" x1="15.007084014347285" x2="10.007500721073583" y1="101.09737516637583" y2="101.16192664675087" /><path d="M 14.007167355692545 101.11028546245083 a86.0,86.0 0 0,1 10.666146001902534,-42.60595125391555" fill="none" id="id142" stroke="none" /><text fill="#e1ed5e" style="font-size:6.75px; font-family:Arial;" text-anchor="middle"><textPath startOffset="22.20632615414155" xlink:href="#id142">October</textPath></text><line stroke="#e1ed5e" stroke-width="0.3" x1="26.266209847984243" x2="21.928928074336255" y1="57.711370442889674" y2="55.22380399835377" /><path d="M 25.398753493254645 57.213857153982495 a86.0,86.0 0 0,1 29.58750427330803,-30.492523968695096" fill="none" id="id143" stroke="none" /><text fill="#e1ed5e" style="font-size:6.75px; font-family:Arial;" text-anchor="middle"><textPath startOffset="21.46611528233685" xlink:href="#id143">November</textPath></text><line stroke="#e1ed5e" stroke-width="0.3" x1="56.762969772571076" x2="54.21961505331055" y1="26.818313649435495" y2="22.513508569990535" /><path d="M 56.25429882871897 25.957352633546506 a86.0,86.0 0 0,1 42.265352541879196,-11.944610805530505" fill="none" id="id144" stroke="none" /><text fill="#e1ed5e" style="font-size:6.75px; font-family:Arial;" text-anchor="middle"><textPath startOffset="22.20632615414155" xlink:href="#id144">December</textPath></text></svg>