<?xml version="1.0" encoding="utf-8" ?>
<svg baseProfile="full" height="200mm" version="1.1" viewBox="0,0,200,200" width="200mm" xmlns="http://www.w3.org/2000/svg" xmlns:ev="http://www.w3.org/2001/xml-events" xmlns:xlink="http://www.w3.org/1999/xlink"><defs /><rect fill="#1a1a1a" height="200" width="200" x="0" y="0" /><text alignment-baseline="middle" fill="#e1ed5e" style="dominant-baseline: central; font-size:9.0px; font-family:Arial;" text-anchor="middle" x="100.0" y="100.0">2017</text><line stroke="#e1ed5e" stroke-width="0.3" x1="100.0" x2="100.0" y1="15.0" y2="10.0" /><path d="M 100.0 14.0 a86.0,86.0 0 0,1 42.46469731375804,11.215312516191453" fill="none" id="id61" stroke="none" /><text fill="#e1ed5e" style="font-size:6.75px; font-family:Arial;" text-anchor="middle"><textPath startOffset="22.20632615414155" xlink:href="#id61">January</textPath></text><path d="M 100.0 79.0 l 0.0 -5.001128145692427 a26.001128145692427,26.001128145692427 0 0,0 0.4475666792253012,0.003852347709935669 l -0.08608619995277283 5.00038717459105" fill="#ff2f04" stroke="none" /><path d="M 100.36148047927253 79.00311137660856 l 0.1283679178117649 -7.456355260274583 a28.457460163470387,28.457460163470387 0 0,0 0.4897032444324429,0.012647590038389965 l -0.2566977974390756 7.453040878093833" fill="#ff5107" stroke="none" /><path d="M 100.72285384407766 79.0124445844662 l 0.20264876037576943 -5.88376491751596 a26.887253699703574,26.887253699703574 0 0,0 0.4624084840724671,0.01991228202624505 l -0.3038980768375681 5.87940490896552" fill="#ff3b05" stroke="none" /><path d="M 101.08401301168833 79.027996857942 l 0.39159795864775365 -7.576102436624107 a28.586216256569465,28.586216256569465 0 0,0 0.491190081211824,0.02962992708062475 l -0.5219500886991896 7.568239240163178" fill="#ff5307" stroke="none" /><path d="M 101.44485096284872 79.0497635885617 l 0.7241678599381619 -10.500382570502088 a31.52532437582194,31.52532437582194 0 0,0 0.5410493423133693,0.041995842087487 l -0.9048073916138724 10.486361466226137" fill="#ff7c0b" stroke="none" /><path d="M 101.80526077348638 79.07773832637324 l 0.303206635900576 -3.514045544367888 a24.527102259921868,24.527102259921868 0 0,0 0.42031846707780796,0.03991430306444627 l -0.3636502300686282 3.5083056967882635" fill="#ff1902" stroke="none" /><path d="M 102.16513564639614 79.11191278185805 l 2.665761055587532 -25.71785722733921 a46.85564662450527,46.85564662450527 0 0,0 0.8015289712430687,0.09006111907221982 l -3.1080567303403264 25.668160154796386" fill="#c0ff1e" stroke="none" /><path d="M 102.88285421437855 79.19881850522331 l 0.9936010879692354 -7.169310352625976 a28.23783490101036,28.23783490101036 0 0,0 0.48089169933979153,0.07087093593500692 l -1.1168617677376829 7.151144932529999" fill="#ff4e07" stroke="none" /><path d="M 103.2404852339499 79.25152402106235 l 0.7921186550919068 -5.071849954893793 a26.133333607773878,26.133333607773878 0 0,0 0.4438569925772534,0.07324020688871398 l -0.8793048538080354 5.057463485065454" fill="#ff3004" stroke="none" /><path d="M 103.59715602781102 79.31037775812273 l 1.3419588247742593 -7.718492312836526 a28.8342821669063,28.8342821669063 0 0,0 0.48826721038321425,0.08922771177206618 l -1.4746211562603744 7.694249119713721" fill="#ff5708" stroke="none" /><path d="M 103.95276090670814 79.375362276772 l 1.302111597810635 -6.79413215569958 a27.91778334166834,27.91778334166834 0 0,0 0.4711904852145898,0.09451637860410639 l -1.41886849249235 6.770711821018265" fill="#ff4a06" stroke="none" /><path d="M 104.307194497241 79.44645832069477 l 1.2099837768738069 -5.773932894181863 a26.899352659980003,26.899352659980003 0 0,0 0.4523667670205757,0.0988698540623522 l -1.3091932680479106 5.75224954202364" fill="#ff3b05" stroke="none" /><path d="M 104.66035177308747 79.52364482259891 l 4.452787531350235 -19.56437270421453 a41.0646952657837,41.0646952657837 0 0,0 0.6878850998383288,0.16280017845552436 l -4.788896318151087 19.48482661361814" fill="#fff817" stroke="none" /><path d="M 105.01212808612495 79.60689891045804 l 2.2548195881975155 -9.174299421454363 a30.447326672123552,30.447326672123552 0 0,0 0.5078775188832494,0.12946928792801662 l -2.41240599576579 9.134127137357478" fill="#ff6d0a" stroke="none" /><path d="M 105.36241919743992 79.69619591428918 l 2.874413650569757 -10.883433292630981 a32.25661468069909,32.25661468069909 0 0,0 0.5356166488408194,0.14640426316432334 l -3.0613281886342874 10.832342488640364" fill="#ff860c" stroke="none" /><path d="M 105.71112130821622 79.79150937346287 l 2.81581673393227 -9.963613623799839 a31.353860165342333,31.353860165342333 0 0,0 0.5180998185478836,0.151247544266594 l -2.9869067702035808 9.913667750614541" fill="#ff7a0b" stroke="none" /><path d="M 106.0581310904928 79.89281104454417 l 2.493085407255234 -8.274654116422045 a29.642070098899296,29.642070098899296 0 0,0 0.48727981815591825,0.15140021145765756 l -2.6351505981218706 8.230513770081867" fill="#ff6209" stroke="none" /><path d="M 106.40334571778207 80.00007090966166 l 1.3242524732240832 -4.136112077884254 a25.34293307957423,25.34293307957423 0 0,0 0.4143173457608907,0.13659391483925776 l -1.3952526412273913 4.1127044387857605" fill="#ff2503" stroke="none" /><path d="M 106.74666289553966 80.11325718540242 l 3.083251370271481 -9.088319363619247 a30.597082258031215,30.597082258031215 0 0,0 0.49730165703916096,0.17349878336695926 l -3.2392350313739158 9.03389972708008" fill="#ff6f0a" stroke="none" /><path d="M 107.08798089147638 80.2323363322302 l 7.7121337235662315 -21.508362951662505 a43.84921625418727,43.84921625418727 0 0,0 0.7083061502114639,0.2608751327643785 l -8.081222199550272 21.3724245510918" fill="#e4ff1a" stroke="none" /><path d="M 107.4271985657038 80.35727306442388 l 1.844111011401606 -4.877124088632509 a26.214123588705213,26.214123588705213 0 0,0 0.42069528400823814,0.16322323430181568 l -1.9277894604095112 4.8446581504401465" fill="#ff3204" stroke="none" /><path d="M 107.76421540070413 80.48803036053334 l 4.998082911858218 -12.56050186640499 a34.5183963520002,34.5183963520002 0 0,0 0.5501840026169442,0.22443386896505127 l -5.21355078406355 12.47260711125636" fill="#ffa40f" stroke="none" /><path d="M 108.09893153111575 80.62456947434976 l 4.034374201735292 -9.651611050158985 a31.460868561605118,31.460868561605118 0 0,0 0.4978551246212106,0.2131555823640843 l -4.199913084146818 9.580735939832111" fill="#ff7b0b" stroke="none" /><path d="M 108.43124777332544 80.76684994638697 l 3.053155267937162 -6.964780894115939 a28.60459926578481,28.60459926578481 0 0,0 0.4492527777118019,0.20156662595513852 l -3.172590164115744 6.91119393764427" fill="#ff5407" stroke="none" /><path d="M 108.76106565485865 80.91482961587045 l 3.1314793992308214 -6.821637942590686 a28.506058049842135,28.506058049842135 0 0,0 0.44418110970794467,0.20854898682631337 l -3.248438720238364 6.76672397312437" fill="#ff5207" stroke="none" /><path d="M 109.08828744355905 81.06846463323043 l 5.00618531931259 -10.428232493057484 a32.56762397299293,32.56762397299293 0 0,0 0.5032918925921944,0.24696314592229843 l -5.184948478915216 10.340514187000355" fill="#ff8a0c" stroke="none" /><path d="M 109.41281617654863 81.2277094730956 l 2.986133255934725 -5.95534428602979 a27.662065549613498,27.662065549613498 0 0,0 0.42380854677240615,0.2170911984700894 l -3.0882022902958868 5.903060562247201" fill="#ff4606" stroke="none" /><path d="M 109.73455568895987 81.39251694778311 l 2.0510431986002433 -3.920543759444726 a25.424640276027567,25.424640276027567 0 0,0 0.3860367853451046,0.20620748143084805 l -2.1182250304736594 3.884657551512124" fill="#ff2603" stroke="none" /><path d="M 110.05341064243156 81.56283822128135 l 3.566365420746834 -6.5404327509329665 a28.449578705119862,28.449578705119862 0 0,0 0.42793031376174134,0.23814275629808887 l -3.6784198235806103 6.478074597074698" fill="#ff5107" stroke="none" /><path d="M 110.36928655335952 81.73862282372117 l 6.569035262367027 -11.568744869095609 a34.30368678691916,34.30368678691916 0 0,0 0.5109669197825836,0.29598502057064957 l -6.767198914614939 11.45395569113491" fill="#ffa10e" stroke="none" /><line stroke="#e1ed5e" stroke-width="0.3" x1="143.23703022742887" x2="145.7803849466894" y1="26.81831364943548" y2="22.513508569990506" /><path d="M 143.74570117128098 25.957352633546492 a86.0,86.0 0 0,1 28.547481713284135,27.462654790039103" fill="none" id="id62" stroke="none" /><text fill="#e1ed5e" style="font-size:6.75px; font-family:Arial;" text-anchor="middle"><textPath startOffset="19.985693538727396" xlink:href="#id62">February</textPath></text><path d="M 110.68208982089419 81.91981866633111 l 2.7805888860568366 -4.706340436864403 a26.466380416777433,26.466380416777433 0 0,0 0.3902378736642355,0.2351139524813312 l -2.8611888259387097 4.657779874924457" fill="#ff3505" stroke="none" /><path d="M 110.99172775467656 82.1063720568725 l 4.562618219751046 -7.427566866002892 a29.717008349666084,29.717008349666084 0 0,0 0.4335582003395822,0.2714941052779406 l -4.6897955724628915 7.347928419402008" fill="#ff6309" stroke="none" /><path d="M 111.2981086023043 82.29822771554956 l 6.214447896302844 -9.736739608919915 a32.5509073612324,32.5509073612324 0 0,0 0.4697142033854582,0.3055151838324974 l -6.381129125472582 9.62832550092789" fill="#ff8a0c" stroke="none" /><path d="M 111.60114157652 82.49532879139004 l 4.412063639159316 -6.657252033822188 a28.98657061559099,28.98657061559099 0 0,0 0.4135352610325875,0.27922085423083154 l -4.526003594598445 6.580319267292687" fill="#ff5908" stroke="none" /><path d="M 111.90073688211348 82.69761687909136 l 6.143940220560009 -8.932623972878758 a31.841576106575246,31.841576106575246 0 0,0 0.4489190072254372,0.3144964530852103 l -6.2967903673690975 8.825542677029613" fill="#ff800b" stroke="none" /><path d="M 112.19680574252982 82.90503203632743 l 1.2204839785767385 -1.7106228429294816 a23.10138327125602,23.10138327125602 0 0,0 0.32171941601833604,0.23374283782236885 l -1.2497487109488632 1.6893607702904379" fill="#ff0400" stroke="none" /><path d="M 112.48926042617603 83.11751280151076 l 2.593098820896702 -3.505248201603087 a25.36015211314669,25.36015211314669 0 0,0 0.34870673637826566,0.26263868439131594 l -2.653051711033351 3.460092927705924" fill="#ff2503" stroke="none" /><path d="M 112.77801427241765 83.33499621200491 l 4.489519187473163 -5.855201964128116 a28.378290626928397,28.378290626928397 0 0,0 0.38508995089994635,0.300568814872995 l -4.589641693532539 5.7770547600318976" fill="#ff5007" stroke="none" /><path d="M 113.06298171725822 83.55741782278167 l 1.2707401651062178 -1.5995007910825159 a23.042837083050866,23.042837083050866 0 0,0 0.3084411043560816,0.24940458908159382 l -1.2980846680267903 1.5773901047367924" fill="#ff0300" stroke="none" /><path d="M 113.34407831869373 83.78471172551755 l 4.817255503325795 -5.853771599109696 a28.581068032860934,28.581068032860934 0 0,0 0.3771917900460054,0.3158872767083586 l -4.9173048303309175 5.769983165007519" fill="#ff5307" stroke="none" /><path d="M 113.6212207817346 84.01681056812373 l 7.40541799847859 -8.68954410096834 a32.417022046701334,32.417022046701334 0 0,0 0.4215852262075571,0.36559455379738914 l -7.553897023332912 8.56078455375128" fill="#ff880c" stroke="none" /><path d="M 113.89432698308785 84.25364557470407 l 8.483499078214741 -9.614296785647783 a33.82203023286826,33.82203023286826 0 0,0 0.4332264052303714,0.38895494412726067 l -8.647736471041101 9.466842832751224" fill="#ff9b0e" stroke="none" /><path d="M 114.16331599549186 84.49514656593476 l 1.4556369894502825 -1.5935137069464798 a23.158278244175712,23.158278244175712 0 0,0 0.29200616685443076,0.2713879081094795 l -1.48285104009956 1.5682212127623598" fill="#ff0500" stroke="none" /><path d="M 114.42810811169701 84.74124197986012 l 5.265741037463219 -5.568898407562675 a28.66424543887905,28.66424543887905 0 0,0 0.3555960117159193,0.3420830815323635 l -5.360820292791557 5.477432239268009" fill="#ff5407" stroke="none" /><path d="M 114.68862486808459 84.99185889309783 l 4.919903488967764 -5.026924334843958 a28.033876499413644,28.033876499413644 0 0,0 0.3419655019847808,0.3404969934429795 l -5.005704791119867 4.94149149075086" fill="#ff4c07" stroke="none" /><path d="M 114.94478906791727 85.2469230424477 l 8.271525999834802 -8.165418667161152 a32.62291720593272,32.62291720593272 0 0,0 0.39106448014228506,0.403026322324913 l -8.410854743680197 8.021828149286124" fill="#ff8b0c" stroke="none" /><path d="M 115.19652480421416 85.50635884689758 l 4.266571288053468 -4.069229906170952 a26.89595306844604,26.89595306844604 0 0,0 0.3166456431080314,0.3377754945886545 l -4.335984253131962 3.9951849947042417" fill="#ff3b05" stroke="none" /><path d="M 115.4437574822437 85.77008943001954 l 15.717328695015002 -14.481979659820334 a42.37199467000195,42.37199467000195 0 0,0 0.4896111412599722,0.5406408509360261 l -15.96428347689101 14.209286021614759" fill="#f6ff19" stroke="none" /><path d="M 115.68641384162765 86.03803664274999 l 6.7229585992511804 -5.98388532667414 a30.000280880618753,30.000280880618753 0 0,0 0.3400148068827229,0.38869570176945206 l -6.824965269711751 5.86727406870174" fill="#ff6709" stroke="none" /><path d="M 116.15771136456269 86.58626213691792 l 6.040600877760226 -5.014759509040909 a28.850902616764127,28.850902616764127 0 0,0 0.3139273691851088,0.38483783543098565 l -6.126026739021743 4.9100375040018225" fill="#ff5708" stroke="none" /><path d="M 116.38621287248628 86.86637796730983 l 5.618818804175747 -4.503508102724863 a28.20088258378565,28.20088258378565 0 0,0 0.30033391969106704,0.38139357862059126 l -5.695506804460779 4.406122130151234" fill="#ff4e07" stroke="none" /><path d="M 116.60985879189232 87.15038557335679 l 14.504577709276258 -11.220940124816686 a39.338273414069135,39.338273414069135 0 0,0 0.40972508884281067,0.5391501894820708 l -14.695578738343183 10.96960515945358" fill="#ffe315" stroke="none" /><path d="M 116.82858285166822 87.43820079747576 l 2.737376342412932 -2.0433314116953585 a24.415908736781905,24.415908736781905 0 0,0 0.24850440697645185,0.33895973184101064 l -2.77214336190301 1.995909236182854" fill="#ff1802" stroke="none" /><path d="M 117.04232023915458 87.72973835380427 l 15.83786830455688 -11.403071018957906 a40.51584231069428,40.51584231069428 0 0,0 0.4026259518217993,0.5694858555644209 l -16.03180687618256 11.128758663061692" fill="#fff116" stroke="none" /><path d="M 117.2510076193507 88.02491185347247 l 2.122730461555068 -1.4735304133729077 a23.584042664421144,23.584042664421144 0 0,0 0.22862543271909158,0.3354796116186169 l -2.1477803599428933 1.4367727784838842" fill="#ff0b01" stroke="none" /><path d="M 117.45458315368197 88.32363383020206 l 5.201155874253382 -3.479349805106469 a27.25762714569787,27.25762714569787 0 0,0 0.25752404466026757,0.3922267877267472 l -5.260276554271575 3.3893049534020476" fill="#ff4106" stroke="none" /><path d="M 117.65298651832404 88.62581576622439 l 5.4447412525421095 -3.5081593727706344 a27.477066426391833,27.477066426391833 0 0,0 0.25275290331884087,0.39979439430938263 l -5.504321752106906 3.4139173307470454" fill="#ff4406" stroke="none" /><line stroke="#e1ed5e" stroke-width="0.3" x1="172.23445277983987" x2="176.4835382374775" y1="55.19839476539836" y2="52.563006222186495" /><path d="M 173.08426987136738 54.67131705675599 a86.0,86.0 0 0,1 12.851231095245387,41.99856678651699" fill="none" id="id63" stroke="none" /><text fill="#e1ed5e" style="font-size:6.75px; font-family:Arial;" text-anchor="middle"><textPath startOffset="22.20632615414155" xlink:href="#id63">March</textPath></text><path d="M 117.84615892207809 88.93136811851018 l 9.634093382987114 -5.975304469370043 a32.3366670063908,32.3366670063908 0 0,0 0.28931185078952076,0.47555261326879855 l -9.735521032062858 5.808584082894163" fill="#ff870c" stroke="none" /><path d="M 118.03404312379186 89.2402003453031 l 4.289933183170923 -2.5595381615816972 a25.99547418336478,25.99547418336478 0 0,0 0.22596296760617188,0.38624395861107724 l -4.3333558252474225 2.485314790616725" fill="#ff2e04" stroke="none" /><path d="M 118.21658344932153 89.55222093294921 l 6.3578231976769475 -3.646410003362794 a28.32927156854918,28.32927156854918 0 0,0 0.23896733267238182,0.4250962201326311 l -6.419648171641762 3.536430273295369" fill="#ff5007" stroke="none" /><path d="M 118.3937258080291 89.86733742301442 l 12.64132774966633 -6.96380439446044 a35.43252365038043,35.43252365038043 0 0,0 0.28968939690573886,0.5367504562718297 l -12.759325245790533 6.745172954856151" fill="#ffb010" stroke="none" /><path d="M 118.56541770881063 90.18545643968196 l 4.344441723778533 -2.2966740211319068 a25.91415154941827,25.91415154941827 0 0,0 0.20508035881773673,0.39614997746869596 l -4.383331515756386 2.221551321402866" fill="#ff2d04" stroke="none" /><path d="M 118.73160827565052 90.50648371742162 l 4.905209290383235 -2.486048372485027 a26.49922855433355,26.49922855433355 0 0,0 0.20270646341489615,0.40864386092836924 l -4.947275766751539 2.401244923057708" fill="#ff3605" stroke="none" /><path d="M 118.89224826269711 90.83032412892265 l 4.118438812351472 -1.9989547288924048 a25.577920735360575,25.577920735360575 0 0,0 0.18884033469441425,0.39774590515605157 l -4.152237340887642 1.927766408095813" fill="#ff2803" stroke="none" /><path d="M 119.04729006885535 91.15688171328212 l 11.21883449986809 -5.208587686899596 a33.36897866549832,33.36897866549832 0 0,0 0.237392766567855,0.5230634935286096 l -11.30682958339929 5.0147021845289235" fill="#ff950d" stroke="none" /><path d="M 119.196687751892 91.48605970444005 l 10.721380838360412 -4.755049283685119 a32.72853361556491,32.72853361556491 0 0,0 0.22397115875156168,0.5169563141290003 l -10.801642706954654 4.569793824969515" fill="#ff8c0c" stroke="none" /><path d="M 119.34039704204932 91.81776055985345 l 4.189184398963656 -1.7722960773102627 a25.548659067700044,25.548659067700044 0 0,0 0.16786480383242422,0.40649793739701856 l -4.2190708896822775 1.6999235694599413" fill="#ff2803" stroke="none" /><path d="M 119.47837535516314 92.15188598940014 l 9.301227176874244 -3.7475965008164565 a31.0278266104254,31.0278266104254 0 0,0 0.19533708624049778,0.4971115780475565 l -9.364357812996444 3.5869359178731157" fill="#ff750a" stroke="none" /><path d="M 119.61058180528143 92.48833698450437 l 12.010755446682367 -4.600615543834037 a33.86172265997745,33.86172265997745 0 0,0 0.20380792236436623,0.5461039050125669 l -12.088167957548357 4.393188501792136" fill="#ff9b0e" stroke="none" /><path d="M 119.7369772167798 92.82701384747503 l 4.053822868754558 -1.4732760231209168 a25.313238005436336,25.313238005436336 0 0,0 0.1453063264896853,0.4108005521467015 l -4.078582276054053 1.4032778445476006" fill="#ff2503" stroke="none" /><path d="M 119.85752413597 93.16781622104841 l 6.125388811623218 -2.107502516022972 a27.47780479395621,27.47780479395621 0 0,0 0.15003235518504995,0.4485776455246844 l -6.160758460580038 2.001751767575974" fill="#ff4406" stroke="none" /><path d="M 119.97218684219823 93.5106431181261 l 11.370186287074915 -3.694397474507939 a32.95532136341124,32.95532136341124 0 0,0 0.17065287994892642,0.5410162645428522 l -11.432094650792049 3.4981310435386677" fill="#ff8f0d" stroke="none" /><path d="M 120.08093135843002 93.85539295169968 l 9.87258557047729 -3.0209335313442134 a31.324436316196454,31.324436316196454 0 0,0 0.15333177760023942,0.5169585287582608 l -9.923123245189231 2.850545615839423" fill="#ff790b" stroke="none" /><path d="M 120.18372546131832 94.20196356495316 l 8.48897399255657 -2.438567676682681 a29.832286892988893,29.832286892988893 0 0,0 0.137531430261953,0.49477372942814224 l -8.529692193384886 2.292082643835587" fill="#ff6509" stroke="none" /><path d="M 120.28053869075195 94.5502522615342 l 9.42610686938059 -2.532965488602567 a30.760502286226647,30.760502286226647 0 0,0 0.1330079257667295,0.5125337953268315 l -9.468311127017623 2.3703352677268854" fill="#ff710a" stroke="none" /><path d="M 120.37134235888165 94.90015583598534 l 23.045048375944816 -5.769190532417588 a44.756216324342844,44.756216324342844 0 0,0 0.18065995851121636,0.7489521614962117 l -23.14094113471685 5.371653139261971" fill="#d9ff1c" stroke="none" /><path d="M 120.45610955862082 95.25157060432595 l 7.277612711169189 -1.6893354051031395 a28.47111108769682,28.47111108769682 0 0,0 0.10670648813763155,0.47834426328131 l -7.3056135863088585 1.5638129722718657" fill="#ff5207" stroke="none" /><path d="M 120.6074358757038 95.95851677861258 l 3.5908089634515115 -0.7042212463757693 a24.659212562266745,24.659212562266745 0 0,0 0.07810427012057507,0.4172361340897116 l -3.6023989574819457 0.6423070348234949" fill="#ff1b02" stroke="none" /><path d="M 120.67395015179393 96.31383870115 l 2.9095934281448206 -0.5187799434296815 a23.955480764073492,23.955480764073492 0 0,0 0.0688869947490716,0.4065749424782078 l -2.918092284414115 0.46861921263563583" fill="#ff1101" stroke="none" /><path d="M 120.73433829027371 96.67025291283417 l 7.719111475927357 -1.2396194463815777 a28.818013708714048,28.818013708714048 0 0,0 0.0744384479277715,0.49045636564721645 l -7.739305817294428 1.106563968342279" fill="#ff5708" stroke="none" /><path d="M 120.78858239683441 97.02765380044208 l 2.4787980078496408 -0.35441790582245497 a23.50400711174847,23.50400711174847 0 0,0 0.05381746190980659,0.40100260172005536 l -2.4845314688172837 0.3116969620377353" fill="#ff0a01" stroke="none" /><path d="M 120.83666639777658 97.38593545837742 l 18.431246240960416 -2.3122924913531384 a39.57572433474629,39.57572433474629 0 0,0 0.07898117316649966,0.6766624587009599 l -18.468317767130504 1.9946862943273258" fill="#ffe615" stroke="none" /><path d="M 120.87857604477298 97.74499172005257 l 10.975022794343996 -1.1853666275317378 a32.038850455461215,32.038850455461215 0 0,0 0.05450094419553864,0.5488170703300361 l -10.993800864221765 0.9962740264972668" fill="#ff830c" stroke="none" /><path d="M 120.91429891909075 98.10471618934814 l 14.619136891823976 -1.3248071849774425 a35.67904211926843,35.67904211926843 0 0,0 0.05016391120939945,0.612126777282393 l -14.639775286852869 1.0729664904872809" fill="#ffb410" stroke="none" /><path d="M 120.94382443527127 98.46500227214037 l 13.84686670883151 -1.0148532805802366 a34.8840068003891,34.8840068003891 0 0,0 0.03873687723728687,0.5992423455131356 l -13.862284177073212 0.7763518708140658" fill="#ffa90f" stroke="none" /><path d="M 120.96714384426684 98.82574320788733 l 14.665774941973373 -0.8213510607414914 a35.68875665989451,35.68875665989451 0 0,0 0.02907170728969368,0.613657792777255 l -14.677740257496563 0.5687821613412367" fill="#ffb410" stroke="none" /><path d="M 120.98425023603335 99.18683210126433 l 5.924960708635424 -0.22960019039704352 a26.92940769776408,26.92940769776408 0 0,0 0.01396264853055996,0.46335232920786623 l -5.928035051621628 0.12757771376417823" fill="#ff3c05" stroke="none" /><line stroke="#e1ed5e" stroke-width="0.3" x1="184.98032266829074" x2="189.97916517819016" y1="98.17113171792111" y2="98.06355123074" /><path d="M 185.9800911702706 98.14961562048488 a86.0,86.0 0 0,1 -9.607161424134198,41.387399972396054" fill="none" id="id64" stroke="none" /><text fill="#e1ed5e" style="font-size:6.75px; font-family:Arial;" text-anchor="middle"><textPath startOffset="21.466115282336823" xlink:href="#id64">April</textPath></text><path d="M 120.99513854157772 99.54816195383933 l 8.318697625480917 -0.17902735313011311 a29.320623833424428,29.320623833424428 0 0,0 0.006516149654034836,0.5046829717538655 l -8.320546782252668 0.035808123315784986" fill="#ff5e08" stroke="none" /><path d="M 120.99980553446 99.90962569577887 l 27.46324681325033 -0.11819022887273081 a48.46350113251596,48.46350113251596 0 0,0 -0.003590228574858517,0.8342426815461672 l -27.461212287385965 -0.35456193087712107" fill="#aeff20" stroke="none" /><path d="M 120.99824983174949 100.27111621757518 l 14.606628790899041 0.18859161982755632 a35.6078462284551,35.6078462284551 0 0,0 -0.013188361708896071,0.6128113459401535 l -14.601218366505137 -0.4399927815578246" fill="#ffb310" stroke="none" /><path d="M 120.9904718944345 100.63252640178507 l 14.603938693450004 0.44007475582799677 a35.610567790225105,35.610567790225105 0 0,0 -0.023736761762894937,0.612540349170451 l -14.594199798835906 -0.691392352012454" fill="#ffb310" stroke="none" /><path d="M 120.9764740272857 100.99374915477107 l 6.806153914884974 0.32243787451412315 a27.813787294598008,27.813787294598008 0 0,0 -0.02677229223151904,0.4780372624024223 l -6.799595271765925 -0.4395468532519688" fill="#ff4806" stroke="none" /><path d="M 120.95626037817324 101.35467743843564 l 7.237385399814639 0.4678469601668047 a28.252491172251602,28.252491172251602 0 0,0 -0.03554895443220513,0.48503723945164556 l -7.228259886718096 -0.5923573361152206" fill="#ff4f07" stroke="none" /><path d="M 120.92983693683757 101.71520430193887 l 1.9275234050929206 0.15796092661784386 a22.933985039114567,22.933985039114567 0 0,0 -0.0356300248036489,0.39317435470618495 l -1.9245187840121964 -0.19111666987259934" fill="#ff0200" stroke="none" /><path d="M 120.89721153311464 102.0752229133903 l 13.168901450224002 1.307753715866722 a34.23367617810996,34.23367617810996 0 0,0 -0.06327964382821404,0.5858909111341769 l -13.144439504894736 -1.5342409488856903" fill="#ffa00e" stroke="none" /><path d="M 120.8583938346157 102.4346265915055 l 3.912138466650239 0.45663134065249283 a24.938697698924173,24.938697698924173 0 0,0 -0.05343827418098521,0.4259556236094238 l -3.9036986832224057 -0.5239047185493115" fill="#ff1f03" stroke="none" /><path d="M 120.81339534386255 102.79330883721812 l 5.697328013925905 0.7646228030988894 a26.748407999549414,26.748407999549414 0 0,0 -0.0651717942424799,0.45581137714067615 l -5.683322168666824 -0.8625796522199749" fill="#ff3905" stroke="none" /><path d="M 120.70491114924044 103.5080841355445 l 7.580778430708476 1.2844299768377385 a28.688820584517124,28.688820584517124 0 0,0 -0.08668608243715843,0.48618158617183405 l -7.557545905932129 -1.414730313742791" fill="#ff5507" stroke="none" /><path d="M 120.64145759157962 103.86396538481128 l 16.64140220042909 3.115177393451674 a37.93046359049623,37.93046359049623 0 0,0 -0.12565832829785498,0.6407291087941738 l -16.585313939155572 -3.401170229313793" fill="#ffd113" stroke="none" /><path d="M 120.5718875245553 104.21870165774334 l 3.0377785587234003 0.6229608939017669 a24.10099642811315,24.10099642811315 0 0,0 -0.08683928868723548,0.4056842464589652 l -3.0266052313117218 -0.6751589597769012" fill="#ff1302" stroke="none" /><path d="M 120.49622156327973 104.57218783832717 l 12.09622114647303 2.698360526835073 a33.39353523241706,33.39353523241706 0 0,0 -0.12997946054647216,0.5599481141556677 l -12.047981119996004 -2.9061772983393057" fill="#ff950d" stroke="none" /><path d="M 120.41448212921028 104.9243191809786 l 7.120368393165584 1.717553569675365 a28.32459120491349,28.32459120491349 0 0,0 -0.11840850642900161,0.47298312361964423 l -7.089748572441521 -1.8398645326924052" fill="#ff5007" stroke="none" /><path d="M 120.32669344350535 105.2749913415812 l 8.23552417161936 2.137205385588932 a29.5083197660594,29.5083197660594 0 0,0 -0.13182058291314241,0.49055342748031056 l -8.197515512364442 -2.278649746244791" fill="#ff6008" stroke="none" /><path d="M 120.23288151984713 105.62410040840565 l 11.031562954724876 3.0664251979215704 a32.449818545221866,32.449818545221866 0 0,0 -0.15422527726300686,0.5368784226081008 l -10.97714504057577 -3.2558610960342533" fill="#ff890c" stroke="none" /><path d="M 120.02730092923936 106.31721596034902 l 6.112800360058213 1.9281619691752248 a27.409690852240963,27.409690852240963 0 0,0 -0.14580356502116215,0.44873723172709556 l -6.078704544020803 -2.0330981008801157" fill="#ff4306" stroke="none" /><path d="M 119.9155931802556 106.66101706037122 l 4.161176004398273 1.391756906542139 a25.38775261682877,25.38775261682877 0 0,0 -0.14218249949924047,0.4132488976975295 l -4.136602673955802 -1.463178507328969" fill="#ff2603" stroke="none" /><path d="M 119.79798401119884 107.00284435728193 l 6.439086206852456 2.277601521660089 a27.830029273051903,27.830029273051903 0 0,0 -0.16363492527315507,0.4502530359477735 l -6.398927020574074 -2.3881023546139937" fill="#ff4906" stroke="none" /><path d="M 119.67450827220406 107.3425965602758 l 37.76919946464909 14.095599759680049 a61.31374902915309,61.31374902915309 0 0,0 -0.3775342137636936,0.9856227000642518 l -37.52097097129189 -14.743646026577444" fill="#30ff3a" stroke="none" /><path d="M 119.41010516605496 108.01547362559984 l 10.055425326257506 4.152424513276716 a31.87907201145402,31.87907201145402 0 0,0 -0.2138160006339536,0.5053978652731362 l -9.982458344431244 -4.324896904216017" fill="#ff810b" stroke="none" /><path d="M 119.26925614724726 108.34839909993367 l 12.538047213235876 5.432104969182081 a34.66420112255175,34.66420112255175 0 0,0 -0.2419213197703894,0.5454687107190128 l -12.442684808734214 -5.647122016393782" fill="#ffa60f" stroke="none" /><path d="M 118.97047184881838 109.00673069616215 l 3.4393180432078707 1.6329067426730433 a24.807268447667212,24.807268447667212 0 0,0 -0.18646412079756292,0.38417131769121593 l -3.410700665795593 -1.6918670163295348" fill="#ff1d03" stroke="none" /><line stroke="#e1ed5e" stroke-width="0.3" x1="174.80103733775053" x2="179.2010983576182" y1="140.37084112569926" y2="142.7455964860345" /><path d="M 175.68104954172406 140.8457921977663 a86.0,86.0 0 0,1 -30.038265399797805,32.042727171017184" fill="none" id="id65" stroke="none" /><text fill="#e1ed5e" style="font-size:6.75px; font-family:Arial;" text-anchor="middle"><textPath startOffset="22.206326154141568" xlink:href="#id65">May</textPath></text><path d="M 118.48025628344425 109.97397251340804 l 10.227447956684538 5.519852281143319 a32.621938775967365,32.621938775967365 0 0,0 -0.2709540805693931,0.49186036016633755 l -10.130917466663634 -5.695083159707461" fill="#ff8b0c" stroke="none" /><path d="M 118.12598468904814 110.60418214915192 l 6.5831832802789 3.85133695205581 a28.626997995280593,28.626997995280593 0 0,0 -0.25248892857497507,0.4231859674276954 l -6.515913476005697 -3.9640850133696097" fill="#ff5407" stroke="none" /><path d="M 117.94076556474637 110.91462005526583 l 8.9466239453201 5.442855868558511 a31.472189839039245,31.472189839039245 0 0,0 -0.2855507157818866,0.46039867516768657 l -8.851608589870251 -5.596050875091471" fill="#ff7b0b" stroke="none" /><path d="M 117.55443506779139 111.5257021239791 l 3.659878834056544 2.402963871425735 a25.37823576881744,25.37823576881744 0 0,0 -0.24290221808032703,0.363105858624355 l -3.6179735105654958 -2.4656066442558964" fill="#ff2603" stroke="none" /><path d="M 117.35343817320211 111.8261652097733 l 27.62848690762808 18.828490781165893 a54.434194380924225,54.434194380924225 0 0,0 -0.5343340690020791,0.769748078915509 l -27.300291931463864 -19.30128012226842" fill="#6cff28" stroke="none" /><path d="M 116.498646956653 112.99209946851258 l 5.724596678706786 4.507916901445309 a28.286447826218,28.286447826218 0 0,0 -0.30452662786203827,0.37994379136748113 l -5.646152138789893 -4.6057885263910405" fill="#ff4f07" stroke="none" /><path d="M 116.27256486870786 113.27417163493432 l 2.5417170396429913 2.0733786286228733 a24.280125675525497,24.280125675525497 0 0,0 -0.26697038769363424,0.32158303011953937 l -2.505650652055814 -2.116822915856183" fill="#ff1602" stroke="none" /><path d="M 116.0416608686014 113.55231037782055 l 48.12498260580419 40.656931133461654 a84.0,84.0 0 0,0 -0.942629961716885,1.096491603353888 l -47.41801013451653 -41.47929983597707" fill="#4dd2ff" stroke="none" /><path d="M 115.56566222782051 114.09645910891815 l 7.941879875513532 7.192266109502492 a31.714576414725173,31.714576414725173 0 0,0 -0.36993330531814705,0.40148954020770805 l -7.816900162199663 -7.327906904511534" fill="#ff7f0b" stroke="none" /><path d="M 115.32070863581623 114.36230785411682 l 6.491139089353034 6.0850800143300905 a29.897363961203702,29.897363961203702 0 0,0 -0.35519983044566544,0.37242560215207204 l -6.3854327075284045 -6.195912733064669" fill="#ff6609" stroke="none" /><path d="M 115.07121518719521 114.62390073753431 l 2.75180484494188 2.6701311341959046 a24.834322649236487,24.834322649236487 0 0,0 -0.3003290027223454,0.3042316941460652 l -2.7054352171639993 -2.717103322322634" fill="#ff1e03" stroke="none" /><path d="M 114.81725581225074 114.88116024355365 l 2.1471206041994555 2.156380788601259 a24.043042062546363,24.043042062546363 0 0,0 -0.2957867172328398,0.2894895576639581 l -2.109683934590821 -2.193020449187789" fill="#ff1202" stroke="none" /><path d="M 114.29624159901734 115.38237550388516 l 1.5180816743323764 1.633415481853105 a23.229936794239066,23.229936794239066 0 0,0 -0.29524193315422287,0.2696965058177128 l -1.4897401917112896 -1.6593047542574009" fill="#ff0601" stroke="none" /><path d="M 114.0293411484842 115.62618273729858 l 2.918073842032034 3.250213578379635 a25.367956416064033,25.367956416064033 0 0,0 -0.32743707512888326,0.2889251483453192 l -2.861694413996563 -3.299961868497243" fill="#ff2503" stroke="none" /><path d="M 113.48314897796784 116.09983520530334 l 4.759878125670521 5.683631735127026 a28.41350858040778,28.41350858040778 0 0,0 -0.3776694760782638,0.3107962672053862 l -4.661338521047566 -5.76472312118959" fill="#ff5107" stroke="none" /><path d="M 112.92097659922987 116.55440617244103 l 2.3778135778393072 3.0464641327686697 a24.864575154296126,24.864575154296126 0 0,0 -0.3396634423800959,0.2604394436248459 l -2.3250214069657176 -3.086942918220887" fill="#ff1e03" stroke="none" /><path d="M 112.63410532772338 116.77436683061366 l 2.634630807719397 3.4980129170638157 a25.379197855878342,25.379197855878342 0 0,0 -0.3512179207447235,0.25982262133232514 l -2.5740279165561093 -3.54284548713591" fill="#ff2603" stroke="none" /><path d="M 112.04921762599082 117.19931262002967 l 5.046529316572036 7.203524581931495 a29.79535244009655,29.79535244009655 0 0,0 -0.42258764735797777,0.2906596372127141 l -4.921784784591175 -7.289325008509303" fill="#ff6409" stroke="none" /><path d="M 111.1453310114006 117.79835938074945 l 1.6977412842278297 2.7111809852316564 a24.198879147897472,24.198879147897472 0 0,0 -0.35494086266079766,0.21803366783849865 l -1.6508212216347233 -2.740003119898533" fill="#ff1402" stroke="none" /><line stroke="#e1ed5e" stroke-width="0.3" x1="143.8653032363475" x2="146.44561519142675" y1="172.8068346515853" y2="177.08958963109032" /><path d="M 144.38136562736335 173.6633856474863 a86.0,86.0 0 0,1 -40.68145358897372,12.25698825130547" fill="none" id="id66" stroke="none" /><text fill="#e1ed5e" style="font-size:6.75px; font-family:Arial;" text-anchor="middle"><textPath startOffset="21.466115282336833" xlink:href="#id66">June</textPath></text><path d="M 110.8373102113329 117.98757091392108 l 1.5164136705897115 2.5169159046538883 a23.938430889344016,23.938430889344016 0 0,0 -0.35478137190145137,0.20961108804666595 l -1.4728644276598781 -2.5426455649943036" fill="#ff1101" stroke="none" /><path d="M 108.92500713936063 119.00905698771935 l 1.8714917588590096 3.986024093953451 a25.40350649835499,25.40350649835499 0 0,0 -0.39742213830666423,0.18243701137163312 l -1.802601624784926 -4.017648175659159" fill="#ff2603" stroke="none" /><path d="M 108.2653958097858 119.30500536409082 l 1.181322156469581 2.7591456104696337 a24.0014007625007,24.0014007625007 0 0,0 -0.38119772220635156,0.15934067879830563 l -1.1336529747657684 -2.7790713322879124" fill="#ff1101" stroke="none" /><path d="M 107.59598834532513 119.57807347666477 l 2.852772041963618 7.352799676701995 a28.886822643442557,28.886822643442557 0 0,0 -0.4651188077792537,0.17586813446778712 l -2.7257830134240897 -7.400816061276413" fill="#ff5708" stroke="none" /><path d="M 106.57524785965236 119.94407469862006 l 0.9233764124481594 2.800789953153728 a23.949075848592656,23.949075848592656 0 0,0 -0.3926264580699298,0.12570659313910193 l -0.8750286092872892 -2.8162693929525364" fill="#ff1101" stroke="none" /><path d="M 105.53697534728816 120.25689768951611 l 0.7688669652544542 2.812882210074551 a23.91606974162373,23.91606974162373 0 0,0 -0.3980426164325836,0.10512667275288903 l -0.7203339060103732 -2.825700232131024" fill="#ff1001" stroke="none" /><path d="M 104.83641907484287 120.43548508189849 l 1.0039293258051372 4.241936532647938 a25.35911684154311,25.35911684154311 0 0,0 -0.42564655789695577,0.09687577079113062 l -0.9307626185153193 -4.258589037016753" fill="#ff2503" stroke="none" /><path d="M 103.7750983002368 120.6578951692458 l 0.521475979617518 2.8535935394166265 a23.9008504417702,23.9008504417702 0 0,0 -0.40534821273948407,0.07047498256720229 l -0.47227879540598405 -2.862147100504835" fill="#ff1001" stroke="none" /><path d="M 101.98527174616119 120.90594882070398 l 0.40680927096336633 4.28391418705936 a25.303186557079556,25.303186557079556 0 0,0 -0.4339564960846685,0.03744359247589141 l -0.33300845713715616 -4.290282031813915" fill="#ff2403" stroke="none" /><line stroke="#e1ed5e" stroke-width="0.3" x1="102.19456741930631" x2="102.32365962044197" y1="184.97166512339345" y2="189.96999836594603" /><path d="M 102.22038585953345 185.97133177190398 a86.0,86.0 0 0,1 -42.740103519485714,-10.115201625700543" fill="none" id="id67" stroke="none" /><text fill="#e1ed5e" style="font-size:6.75px; font-family:Arial;" text-anchor="middle"><textPath startOffset="22.20632615414155" xlink:href="#id67">July</textPath></text><path d="M 91.07499286063937 119.00905698771935 l -1.2344178906863046 2.6291429983547627 a23.90451036056756,23.90451036056756 0 0,0 -0.37096081448409207,-0.17808373420393803 l 1.2794913731706388 -2.607504987651262" fill="#ff1001" stroke="none" /><line stroke="#e1ed5e" stroke-width="0.3" x1="58.666819895761336" x2="56.23545636021788" y1="174.27360380694188" y2="178.64263932499728" /><path d="M 58.180547188652646 175.14741091055294 a86.0,86.0 0 0,1 -31.652253787137756,-30.449443065178592" fill="none" id="id68" stroke="none" /><text fill="#e1ed5e" style="font-size:6.75px; font-family:Arial;" text-anchor="middle"><textPath startOffset="22.20632615414155" xlink:href="#id68">August</textPath></text><path d="M 84.43433777217949 114.09645910891817 l -2.141502208587218 1.9393712823251026 a23.889150857966964,23.889150857966964 0 0,0 -0.27340695229181744,-0.3071756092670608 l 2.174568010527374 -1.9022215033171777" fill="#ff1001" stroke="none" /><path d="M 84.19399662182784 113.82643327865904 l -3.1942413157821514 2.7941892312631698 a25.243898095331314,25.243898095331314 0 0,0 -0.2832816035141322,-0.32952050354109236 l 3.241865428867062 -2.738791628560547" fill="#ff2403" stroke="none" /><line stroke="#e1ed5e" stroke-width="0.3" x1="26.63291911575756" x2="22.317208475507996" y1="142.92168965132927" y2="145.44649492493687" /><path d="M 25.769776987707644 143.4266507060508 a86.0,86.0 0 0,1 -11.730757126820373,-40.83630448921669" fill="none" id="id69" stroke="none" /><text fill="#e1ed5e" style="font-size:6.75px; font-family:Arial;" text-anchor="middle"><textPath startOffset="21.46611528233685" xlink:href="#id69">September</textPath></text><line stroke="#e1ed5e" stroke-width="0.3" x1="15.007084014347285" x2="10.007500721073583" y1="101.09737516637583" y2="101.16192664675087" /><path d="M 14.007167355692545 101.11028546245083 a86.0,86.0 0 0,1 10.666146001902534,-42.60595125391555" fill="none" id="id70" stroke="none" /><text fill="#e1ed5e" style="font-size:6.75px; font-family:Arial;" text-anchor="middle"><textPath startOffset="22.20632615414155" xlink:href="#id70">October</textPath></text><path d="M 79.54389044137918 95.25157060432595 l -1.9664570993670796 -0.45646913794668353 a23.0187415876107,23.0187415876107 0 0,0 0.09291591742388981,-0.38519646392868684 l 1.958308381682375 0.49025083353476717" fill="#ff0300" stroke="none" /><path d="M 79.62865764111835 94.90015583598534 l -2.8318647213608923 -0.7089404575351789 a23.919255790851256,23.919255790851256 0 0,0 0.10342648403531841,-0.3985444333061854 l 2.8192419054552667 0.7575813163902281" fill="#ff1001" stroke="none" /><line stroke="#e1ed5e" stroke-width="0.3" x1="26.266209847984243" x2="21.928928074336255" y1="57.711370442889674" y2="55.22380399835377" /><path d="M 25.398753493254645 57.213857153982495 a86.0,86.0 0 0,1 29.58750427330803,-30.492523968695096" fill="none" id="id71" stroke="none" /><text fill="#e1ed5e" style="font-size:6.75px; font-family:Arial;" text-anchor="middle"><textPath startOffset="21.46611528233685" xlink:href="#id71">November</textPath></text><path d="M 82.34701348167596 88.62581576622439 l -1.5254470928428612 -0.9828771043846783 a22.81467248708585,22.81467248708585 0 0,0 0.21554798974499612,-0.3282943762791932 l 1.5083024677399448 1.0089895446415384" fill="#ff0000" stroke="none" /><line stroke="#e1ed5e" stroke-width="0.3" x1="56.762969772571076" x2="54.21961505331055" y1="26.818313649435495" y2="22.513508569990535" /><path d="M 56.25429882871897 25.957352633546506 a86.0,86.0 0 0,1 42.265352541879196,-11.944610805530505" fill="none" id="id72" stroke="none" /><text fill="#e1ed5e" style="font-size:6.75px; font-family:Arial;" text-anchor="middle"><textPath startOffset="22.20632615414155" xlink:href="#id72">December</textPath></text><path d="M 97.47563105711357 79.15227682838746 l -0.2621975551004094 -2.165381593847667 a23.181198066401787,23.181198066401787 0 0,0 0.3965456284756031,-0.04455652177902448 l 0.2248852231150883 2.16957406909729" fill="#ff0500" stroke="none" /><path d="M 98.19473922651362 79.07773832637324 l -0.2496828423490266 -2.893725848234437 a23.904477716647797,23.904477716647797 0 0,0 0.41025753748806354,-0.03184388079261762 l 0.19983511549862887 2.8975949912155166" fill="#ff1001" stroke="none" /><path d="M 98.55514903715128 79.0497635885617 l -0.3028498960493582 -4.3913019976150345 a25.401732760379133,25.401732760379133 0 0,0 0.4364718669132683,-0.026329174965172293 l 0.22721598029646686 4.395864441960513" fill="#ff2603" stroke="none" /><path d="M 99.27714615592234 79.0124445844662 l -0.09442756418941219 -2.7416382335323686 a23.74326388968419,23.74326388968419 0 0,0 0.4085801506319572,-0.010552419861963288 l 0.047220778362575995 2.742857445536692" fill="#ff0e01" stroke="none" /></svg>