<?xml version="1.0" encoding="utf-8" ?>
<svg baseProfile="full" height="200mm" version="1.1" viewBox="0,0,200,200" width="200mm" xmlns="http://www.w3.org/2000/svg" xmlns:ev="http://www.w3.org/2001/xml-events" xmlns:xlink="http://www.w3.org/1999/xlink"><defs /><rect fill="#1a1a1a" height="200" width="200" x="0" y="0" /><rect fill="#1a1a1a" height="200" width="180" x="10" y="0" /><text alignment-baseline="middle" fill="#e1ed5e" style="dominant-baseline: central; font-size:9.0px; font-family:Arial;" text-anchor="middle" x="100.0" y="100.0">2026</text><line stroke="#e1ed5e" stroke-width="0.3" x1="100.0" x2="100.0" y1="15.0" y2="10.0" /><path d="M 100.0 14.0 a86.0,86.0 0 0,1 42.46469731375804,11.215312516191453" fill="none" id="id169" stroke="none" /><text fill="#e1ed5e" style="font-size:6.75px; font-family:Arial;" text-anchor="middle"><textPath startOffset="22.20632615414155" xlink:href="#id169">January</textPath></text><path d="M 100.0 79.0 l 0.0 -63.0 a84.0,84.0 0 0,0 1.4459219170901134,0.012445506434235476 l -1.084441437817585 62.990665870174325" fill="red" stroke="none" /><path d="M 100.36148047927253 79.00311137660856 l 0.6582984912963599 -38.2378050690682 a59.24347125201504,59.24347125201504 0 0,0 1.0194767880512758,0.026330077685866544 l -1.3164019145425037 38.220808199239976" fill="red" stroke="none" /><path d="M 100.72285384407766 79.0124445844662 l 1.1684907142067849 -33.92631002501362 a54.94642665233746,54.94642665233746 0 0,0 0.9449717006161354,0.04069246922930598 l -1.752303247212252 33.90116982926012" fill="red" stroke="none" /><path d="M 101.08401301168833 79.027996857942 l 1.7597008642184 -34.044288818999036 a55.08973670069855,55.08973670069855 0 0,0 0.9465937010021573,0.05710111707971815 l -2.3454566140601694 34.008954432539014" fill="red" stroke="none" /><path d="M 101.44485096284872 79.0497635885617 l 2.3392455406035384 -33.91889430825556 a54.999462654486834,54.999462654486834 0 0,0 0.943921234308409,0.07326645464450506 l -2.922756964274288 33.87360259142259" fill="red" stroke="none" /><path d="M 101.80526077348638 79.07773832637324 l 3.8872764629725722 -45.052003871426415 a66.21939817302527,66.21939817302527 0 0,0 1.134795119127523,0.10776247024265434 l -4.662196709190339 44.97841585666858" fill="red" stroke="none" /><path d="M 102.16513564639614 79.11191278185805 l 3.5027264323507974 -33.792457919215444 a54.973508866200966,54.973508866200966 0 0,0 0.9403959433163199,0.10566444141712733 l -4.083889079176842 33.727157524327716" fill="red" stroke="none" /><path d="M 102.52436894288641 79.15227682838746 l 4.4232749521000985 -36.530005636921736 a57.79682966147233,57.79682966147233 0 0,0 0.9866339129799372,0.1280933984876992 l -5.051423593587882 36.4484539152699" fill="red" stroke="none" /><path d="M 102.88285421437855 79.19881850522331 l 2.6270996572620104 -18.95578919773873 a40.13696937130575,40.13696937130575 0 0,0 0.6835345370839948,0.10073522261571712 l -2.9530031747746612 18.907759490962043" fill="red" stroke="none" /><path d="M 103.59715602781102 79.31037775812273 l 5.864272795688277 -33.729309467829914 a55.23530360021494,55.23530360021494 0 0,0 0.9353306403618542,0.1709256960431327 l -6.443998557153032 33.62336829043604" fill="red" stroke="none" /><path d="M 103.95276090670814 79.375362276772 l 4.569357624181192 -23.841903887146927 a45.27581945190758,45.27581945190758 0 0,0 0.7641557739360844,0.15328245944729557 l -4.979079807584402 23.759717471622423" fill="red" stroke="none" /><path d="M 104.307194497241 79.44645832069477 l 6.953538499468496 -33.18165535803579 a54.902418054809246,54.902418054809246 0 0,0 0.9232946856009808,0.20179645693946882 l -7.523675909223005 33.05704540300045" fill="red" stroke="none" /><path d="M 104.66035177308747 79.52364482259891 l 10.583080402066086 -46.499260943156784 a68.68839333691565,68.68839333691565 0 0,0 1.1506166550727692,0.2723137873225785 l -11.381920744101379 46.31020124369334" fill="red" stroke="none" /><path d="M 105.01212808612495 79.60689891045804 l 5.679244758308267 -23.107432706887224 a44.795110155830194,44.795110155830194 0 0,0 0.7472061389505943,0.1904794820571979 l -6.076159785943886 23.00625022866116" fill="red" stroke="none" /><path d="M 105.71112130821622 79.79150937346287 l 6.161014045338459 -21.800411489433593 a43.654271896829655,43.654271896829655 0 0,0 0.7213552088743416,0.21058336633267255 l -6.535359471936228 21.691129794182217" fill="red" stroke="none" /><path d="M 106.0581310904928 79.89281104454417 l 10.617192128770677 -35.23890208394367 a57.80360021493821,57.80360021493821 0 0,0 0.9502213478180257,0.2952383982075703 l -11.222198849299422 35.05092355085358" fill="red" stroke="none" /><path d="M 106.40334571778207 80.00007090966166 l 8.183620341307295 -25.560360746083138 a47.83847393874261,47.83847393874261 0 0,0 0.7820842790894655,0.25784089058323156 l -8.622387442639177 25.41570613124067" fill="red" stroke="none" /><path d="M 106.74666289553966 80.11325718540242 l 10.916107815561228 -32.176771246122925 a54.97802256851155,54.97802256851155 0 0,0 0.8935708801737369,0.3117493343684513 l -11.46836069979824 31.98410105858227" fill="red" stroke="none" /><path d="M 107.4271985657038 80.35727306442388 l 12.024798107719267 -31.802007660876317 a54.999462654486834,54.999462654486834 0 0,0 0.8826545157397221,0.3424562392463594 l -12.570435788458656 31.59030871773941" fill="red" stroke="none" /><path d="M 107.76421540070413 80.48803036053334 l 8.37876076799254 -21.056361433068723 a43.66217087587319,43.66217087587319 0 0,0 0.6959253752829943,0.28388543422346946 l -8.739970012863921 20.909015112661674" fill="red" stroke="none" /><path d="M 108.09893153111575 80.62456947434976 l 17.44425424466651 -41.732657559922856 a66.23181085437938,66.23181085437938 0 0,0 1.0480907856128554,0.4487377767733453 l -18.16002878806968 41.42620025518672" fill="red" stroke="none" /><path d="M 108.43124777332544 80.76684994638697 l 7.0761772687571165 -16.141997350208594 a38.62487909725954,38.62487909725954 0 0,0 0.6066274189683277,0.27217604012625746 l -7.3529868061922246 16.017800979565806" fill="red" stroke="none" /><path d="M 108.76106565485865 80.91482961587045 l 18.867597491425315 -41.10131427486 a66.22504030091349,66.22504030091349 0 0,0 1.0319179116200534,0.48449929601415953 l -19.572293614344968 40.77044999620584" fill="red" stroke="none" /><path d="M 109.08828744355905 81.06846463323043 l 27.145703698961505 -56.54639037599425 a83.72466415905427,83.72466415905427 0 0,0 1.2938599609292853,0.6348914636558842 l -28.115034926901224 56.07074375220353" fill="red" stroke="none" /><path d="M 109.41281617654863 81.2277094730956 l 10.159367314462957 -20.261162145266074 a43.66555615260612,43.66555615260612 0 0,0 0.6689968926526337,0.34268619239696285 l -10.506624694704346 20.083283427556612" fill="red" stroke="none" /><path d="M 109.73455568895987 81.39251694778311 l 6.918805378714251 -13.22521108713987 a35.92568511552929,35.92568511552929 0 0,0 0.5454801264738398,0.2913765923892346 l -7.1454305517164025 13.104155768248882" fill="red" stroke="none" /><line stroke="#e1ed5e" stroke-width="0.3" x1="143.23703022742887" x2="145.7803849466894" y1="26.81831364943548" y2="22.513508569990506" /><path d="M 143.74570117128098 25.957352633546492 a86.0,86.0 0 0,1 28.547481713284135,27.462654790039103" fill="none" id="id170" stroke="none" /><text fill="#e1ed5e" style="font-size:6.75px; font-family:Arial;" text-anchor="middle"><textPath startOffset="19.985693538727396" xlink:href="#id170">February</textPath></text><path d="M 110.68208982089419 81.91981866633111 l 5.783022834256258 -9.788169099232343 a32.368887694787745,32.368887694787745 0 0,0 0.4772683573641626,0.2875488451198087 l -5.9506532578380575 9.687173644653921" fill="red" stroke="none" /><path d="M 110.99172775467656 82.1063720568725 l 12.017661720816976 -19.563763984890663 a43.96007522837185,43.96007522837185 0 0,0 0.641358338583221,0.40161853278248594 l -12.35263921177246 19.354001110785234" fill="red" stroke="none" /><path d="M 111.2981086023043 82.29822771554956 l 18.254246612256072 -28.600585118154534 a54.92950026867276,54.92950026867276 0 0,0 0.7926404685047185,0.5155554094445188 l -18.743854106545072 28.28213078455049" fill="red" stroke="none" /><path d="M 111.60114157652 82.49532879139004 l 24.983909301653362 -37.69759337445837 a66.22504030091349,66.22504030091349 0 0,0 0.9447957708043456,0.6379303219245378 l -25.62910976686425 37.26195114023517" fill="red" stroke="none" /><path d="M 111.90073688211348 82.69761687909136 l 6.46898733473723 -9.405207289151626 a32.41515314347125,32.41515314347125 0 0,0 0.4570055929242366,0.3201616231468665 l -6.629924067245118 9.292460823240823" fill="red" stroke="none" /><path d="M 112.19680574252982 82.90503203632743 l 13.147121074430316 -18.426924091954422 a43.63621708758732,43.63621708758732 0 0,0 0.6076960030413214,0.4415169903083925 l -13.462362393825426 18.197887866829355" fill="red" stroke="none" /><path d="M 112.48926042617603 83.11751280151076 l 20.184148123464283 -27.28413137999799 a54.938527673293926,54.938527673293926 0 0,0 0.755414817738816,0.5689627793293023 l -20.65080909496148 26.93265201116284" fill="red" stroke="none" /><path d="M 112.77801427241765 83.33499621200491 l 6.886807262350831 -8.981729607393378 a32.318108543793656,32.318108543793656 0 0,0 0.43855280065738395,0.3422974171223461 l -7.040392618167646 8.861853801047808" fill="red" stroke="none" /><path d="M 113.06298171725822 83.55741782278167 l 17.60378927926485 -22.158168641722636 a49.299785061794736,49.299785061794736 0 0,0 0.6599048586843604,0.5335971690826137 l -17.9825975365137 21.851865375375894" fill="red" stroke="none" /><path d="M 113.34407831869373 83.78471172551755 l 10.356897755787866 -12.585363989071709 a37.29897904352499,37.29897904352499 0 0,0 0.4922443295729895,0.4122404698283017 l -10.571999622319973 12.405222361849589" fill="red" stroke="none" /><path d="M 113.6212207817346 84.01681056812373 l 29.741251222192588 -34.89849110020743 a66.8524449220849,66.8524449220849 0 0,0 0.8694198706593822,0.7539523444301448 l -30.337564891498737 34.38137376235761" fill="red" stroke="none" /><path d="M 113.89432698308785 84.25364557470407 l 17.122648846326523 -19.404991530883237 a46.87931219774315,46.87931219774315 0 0,0 0.6004771376309613,0.5391143030461207 l -17.454136971553474 19.10737821906782" fill="red" stroke="none" /><path d="M 114.16331599549186 84.49514656593476 l 7.658541045815934 -8.38395164465333 a32.35534658785599,32.35534658785599 0 0,0 0.4079733663595034,0.37916678148747085 l -7.801722295970284 8.250880277091218" fill="red" stroke="none" /><path d="M 114.68862486808459 84.99185889309783 l 7.932331000765725 -8.104880071164262 a32.34067705534659,32.34067705534659 0 0,0 0.39450112666332815,0.3928070134533906 l -8.070667927596375 7.967137207060753" fill="red" stroke="none" /><path d="M 114.94478906791727 85.2469230424477 l 16.101183278438537 -15.894636915578912 a43.62493283181085,43.62493283181085 0 0,0 0.5229502184437294,0.5389461687282417 l -16.372397760585375 15.615126551300555" fill="red" stroke="none" /><path d="M 115.19652480421416 85.50635884689758 l 8.215595704201966 -7.83560041060523 a32.353089736700696,32.353089736700696 0 0,0 0.38089242943497353,0.4063094867646045 l -8.349255455607404 7.693021506962571" fill="red" stroke="none" /><path d="M 115.4437574822437 85.77008943001954 l 24.988846066916825 -23.02477523284534 a54.979150994089196,54.979150994089196 0 0,0 0.6352876486784261,0.7015004889120382 l -25.381477356211285 22.59122195666375" fill="red" stroke="none" /><path d="M 115.68641384162765 86.03803664274999 l 42.23952554710613 -37.596018686647646 a77.54766254701772,77.54766254701772 0 0,0 0.8789035546052184,1.0047386967555625 l -42.8804209652892 36.863364433689135" fill="red" stroke="none" /><path d="M 115.9244219780498 86.31012108654704 l 17.191701341268065 -14.779331394421463 a43.67119828049435,43.67119828049435 0 0,0 0.485144145482809,0.5742576459110126 l -17.44355610023799 14.481214798881345" fill="red" stroke="none" /><path d="M 116.15771136456269 86.58626213691792 l 13.32902659155113 -11.065432760560775 a38.32358946802795,38.32358946802795 0 0,0 0.41699990392804964,0.5111925755921376 l -13.51752498755559 10.834356015360536" fill="red" stroke="none" /><line stroke="#e1ed5e" stroke-width="0.3" x1="172.23445277983987" x2="176.4835382374775" y1="55.19839476539836" y2="52.563006222186495" /><path d="M 173.08426987136738 54.67131705675599 a86.0,86.0 0 0,1 12.851231095245387,41.99856678651699" fill="none" id="id171" stroke="none" /><text fill="#e1ed5e" style="font-size:6.75px; font-family:Arial;" text-anchor="middle"><textPath startOffset="22.20632615414155" xlink:href="#id171">March</textPath></text><line stroke="#e1ed5e" stroke-width="0.3" x1="184.98032266829074" x2="189.97916517819016" y1="98.17113171792111" y2="98.06355123074" /><path d="M 185.9800911702706 98.14961562048488 a86.0,86.0 0 0,1 -9.607161424134198,41.387399972396054" fill="none" id="id172" stroke="none" /><text fill="#e1ed5e" style="font-size:6.75px; font-family:Arial;" text-anchor="middle"><textPath startOffset="21.466115282336823" xlink:href="#id172">April</textPath></text><line stroke="#e1ed5e" stroke-width="0.3" x1="174.80103733775053" x2="179.2010983576182" y1="140.37084112569926" y2="142.7455964860345" /><path d="M 175.68104954172406 140.8457921977663 a86.0,86.0 0 0,1 -30.038265399797805,32.042727171017184" fill="none" id="id173" stroke="none" /><text fill="#e1ed5e" style="font-size:6.75px; font-family:Arial;" text-anchor="middle"><textPath startOffset="22.206326154141568" xlink:href="#id173">May</textPath></text><line stroke="#e1ed5e" stroke-width="0.3" x1="143.8653032363475" x2="146.44561519142675" y1="172.8068346515853" y2="177.08958963109032" /><path d="M 144.38136562736335 173.6633856474863 a86.0,86.0 0 0,1 -40.68145358897372,12.25698825130547" fill="none" id="id174" stroke="none" /><text fill="#e1ed5e" style="font-size:6.75px; font-family:Arial;" text-anchor="middle"><textPath startOffset="21.466115282336833" xlink:href="#id174">June</textPath></text><line stroke="#e1ed5e" stroke-width="0.3" x1="102.19456741930631" x2="102.32365962044197" y1="184.97166512339345" y2="189.96999836594603" /><path d="M 102.22038585953345 185.97133177190398 a86.0,86.0 0 0,1 -42.740103519485714,-10.115201625700543" fill="none" id="id175" stroke="none" /><text fill="#e1ed5e" style="font-size:6.75px; font-family:Arial;" text-anchor="middle"><textPath startOffset="22.20632615414155" xlink:href="#id175">July</textPath></text><line stroke="#e1ed5e" stroke-width="0.3" x1="58.666819895761336" x2="56.23545636021788" y1="174.27360380694188" y2="178.64263932499728" /><path d="M 58.180547188652646 175.14741091055294 a86.0,86.0 0 0,1 -31.652253787137756,-30.449443065178592" fill="none" id="id176" stroke="none" /><text fill="#e1ed5e" style="font-size:6.75px; font-family:Arial;" text-anchor="middle"><textPath startOffset="22.20632615414155" xlink:href="#id176">August</textPath></text><line stroke="#e1ed5e" stroke-width="0.3" x1="26.63291911575756" x2="22.317208475507996" y1="142.92168965132927" y2="145.44649492493687" /><path d="M 25.769776987707644 143.4266507060508 a86.0,86.0 0 0,1 -11.730757126820373,-40.83630448921669" fill="none" id="id177" stroke="none" /><text fill="#e1ed5e" style="font-size:6.75px; font-family:Arial;" text-anchor="middle"><textPath startOffset="21.46611528233685" xlink:href="#id177">September</textPath></text><line stroke="#e1ed5e" stroke-width="0.3" x1="15.007084014347285" x2="10.007500721073583" y1="101.09737516637583" y2="101.16192664675087" /><path d="M 14.007167355692545 101.11028546245083 a86.0,86.0 0 0,1 10.666146001902534,-42.60595125391555" fill="none" id="id178" stroke="none" /><text fill="#e1ed5e" style="font-size:6.75px; font-family:Arial;" text-anchor="middle"><textPath startOffset="22.20632615414155" xlink:href="#id178">October</textPath></text><line stroke="#e1ed5e" stroke-width="0.3" x1="26.266209847984243" x2="21.928928074336255" y1="57.711370442889674" y2="55.22380399835377" /><path d="M 25.398753493254645 57.213857153982495 a86.0,86.0 0 0,1 29.58750427330803,-30.492523968695096" fill="none" id="id179" stroke="none" /><text fill="#e1ed5e" style="font-size:6.75px; font-family:Arial;" text-anchor="middle"><textPath startOffset="21.46611528233685" xlink:href="#id179">November</textPath></text><line stroke="#e1ed5e" stroke-width="0.3" x1="56.762969772571076" x2="54.21961505331055" y1="26.818313649435495" y2="22.513508569990535" /><path d="M 56.25429882871897 25.957352633546506 a86.0,86.0 0 0,1 42.265352541879196,-11.944610805530505" fill="none" id="id180" stroke="none" /><text fill="#e1ed5e" style="font-size:6.75px; font-family:Arial;" text-anchor="middle"><textPath startOffset="22.20632615414155" xlink:href="#id180">December</textPath></text></svg>