<?xml version="1.0" encoding="utf-8" ?>
<svg baseProfile="full" height="200mm" version="1.1" viewBox="0,0,200,200" width="200mm" xmlns="http://www.w3.org/2000/svg" xmlns:ev="http://www.w3.org/2001/xml-events" xmlns:xlink="http://www.w3.org/1999/xlink"><defs /><rect fill="#1a1a1a" height="200" width="200" x="0" y="0" /><text alignment-baseline="middle" fill="#e1ed5e" style="dominant-baseline: central; font-size:9.0px; font-family:Arial;" text-anchor="middle" x="100.0" y="100.0">2024</text><line stroke="#e1ed5e" stroke-width="0.3" x1="100.0" x2="100.0" y1="15.0" y2="10.0" /><path d="M 100.0 14.0 a86.0,86.0 0 0,1 42.35913384403234,11.155469271406648" fill="none" id="id145" stroke="none" /><text fill="#e1ed5e" style="font-size:6.75px; font-family:Arial;" text-anchor="middle"><textPath startOffset="22.145653131862478" xlink:href="#id145">January</textPath></text><path d="M 100.0 79.0 l 0.0 -32.302157360406085 a53.302157360406085,53.302157360406085 0 0,0 0.9150024098860334,0.00785419521407267 l -0.5545094850371787 32.29739756338645" fill="#ff0000" stroke="none" /><path d="M 100.36049292484886 79.00309439819443 l 0.870741381359223 -50.71632014872667 a71.72379441624365,71.72379441624365 0 0,0 1.2308714558067388,0.03170288249994431 l -1.741226151236703 50.693899548876686" fill="#38ff2e" stroke="none" /><path d="M 100.72087961077811 79.0123766808444 l 1.5182383274712654 -44.20185236100337 a65.22791878172589,65.22791878172589 0 0,0 1.1187340968951691,0.04804325573722872 l -2.2767981849672707 44.16927653684031" fill="#c4ff1e" stroke="none" /><path d="M 101.08105385017728 79.02784411241856 l 3.2431615505318314 -62.916467662744324 a84.0,84.0 0 0,0 1.4394225914701506,0.08659208870123303 l -4.322728494134444 62.8515235962184" fill="#4dd2ff" stroke="none" /><path d="M 101.44090949804482 79.04949213459386 l 2.6773853896411395 -38.928595960060484 a60.02055837563452,60.02055837563452 0 0,0 1.0272976014812427,0.07951933143875657 l -3.3452519858976157 38.87689886162668" fill="#ffba11" stroke="none" /><path d="M 101.80034050326958 79.07731436759882 l 3.501525197095127 -40.69303045712951 a61.84340101522842,61.84340101522842 0 0,0 1.0569344583867246,0.10009279209983592 l -4.199559218866865 40.626925909524495" fill="#ffe915" stroke="none" /><path d="M 102.15924093988457 79.11130261209362 l 3.793057450552302 -36.69439004975811 a57.88991116751269,57.88991116751269 0 0,0 0.9876131824209003,0.11066411705422914 l -4.422406534573999 36.623870172196916" fill="#ff820c" stroke="none" /><path d="M 102.51750503828377 79.15144685158666 l 5.289795643576594 -43.80709628868705 a65.12531725888326,65.12531725888326 0 0,0 1.1087497750690074,0.1435498563264972 l -6.041023240536393 43.709834836160155" fill="#c6ff1e" stroke="none" /><path d="M 102.87502721639298 79.19773525538626 l 6.718734288055422 -48.613414374627155 a70.0755076142132,70.0755076142132 0 0,0 1.1901987751327412,0.1749182331987166 l -7.552258168795845 48.49091506812955" fill="#59ff2a" stroke="none" /><path d="M 103.23170211078529 79.25015418208739 l 8.096685142408472 -51.98652678428172 a73.6132614213198,73.6132614213198 0 0,0 1.2469472933904264,0.20518470260829957 l -8.987909938851969 51.83987608317776" fill="#33ff52" stroke="none" /><path d="M 103.58742460773223 79.30868818359171 l 5.588051186244826 -32.23039427544461 a53.711230964467006,53.711230964467006 0 0,0 0.9071194305387422,0.16530737798226966 l -6.140505350334622 32.12971872353098" fill="#ff0c01" stroke="none" /><line stroke="#e1ed5e" stroke-width="0.3" x1="143.13028292997686" x2="145.6673583964461" y1="26.7553504044142" y2="22.446841604673864" /><path d="M 143.63769802327073 25.89364864446614 a86.0,86.0 0 0,1 29.32050498858742,28.57503671076993" fill="none" id="id146" stroke="none" /><text fill="#e1ed5e" style="font-size:6.75px; font-family:Arial;" text-anchor="middle"><textPath startOffset="20.669276256404974" xlink:href="#id146">February</textPath></text><line stroke="#e1ed5e" stroke-width="0.3" x1="172.87174338648825" x2="177.1583165268699" y1="56.24261187166439" y2="53.66864786411523" /><path d="M 173.72905801456457 55.72781907015455 a86.0,86.0 0 0,1 12.242430191666344,42.057860355516425" fill="none" id="id147" stroke="none" /><text fill="#e1ed5e" style="font-size:6.75px; font-family:Arial;" text-anchor="middle"><textPath startOffset="22.145653131862474" xlink:href="#id147">March</textPath></text><line stroke="#e1ed5e" stroke-width="0.3" x1="184.99686870605535" x2="189.99668451229388" y1="99.2704041080226" y2="99.22748670261217" /><path d="M 185.99683186730306 99.26182062694052 a86.0,86.0 0 0,1 -10.086455211305974,41.156179273409016" fill="none" id="id148" stroke="none" /><text fill="#e1ed5e" style="font-size:6.75px; font-family:Arial;" text-anchor="middle"><textPath startOffset="21.40746469413373" xlink:href="#id148">April</textPath></text><line stroke="#e1ed5e" stroke-width="0.3" x1="174.33088141563837" x2="178.70328620479359" y1="141.23008692659167" y2="143.65538615756765" /><path d="M 175.20536237346943 141.71514677278685 a86.0,86.0 0 0,1 -30.301960400862466,31.631185727798858" fill="none" id="id149" stroke="none" /><text fill="#e1ed5e" style="font-size:6.75px; font-family:Arial;" text-anchor="middle"><textPath startOffset="22.145653131862474" xlink:href="#id149">May</textPath></text><line stroke="#e1ed5e" stroke-width="0.3" x1="143.1302829299769" x2="145.66735839644613" y1="173.24464959558577" y2="177.55315839532614" /><path d="M 143.63769802327073 174.10635135553383 a86.0,86.0 0 0,1 -40.68552437913181,11.842963189579606" fill="none" id="id150" stroke="none" /><text fill="#e1ed5e" style="font-size:6.75px; font-family:Arial;" text-anchor="middle"><textPath startOffset="21.407464694133747" xlink:href="#id150">June</textPath></text><line stroke="#e1ed5e" stroke-width="0.3" x1="101.45913802915013" x2="101.54496967792366" y1="184.9874750549273" y2="189.98673829345242" /><path d="M 101.47630435890484 185.9873277026323 a86.0,86.0 0 0,1 -42.54439059252881,-10.42667462771756" fill="none" id="id151" stroke="none" /><text fill="#e1ed5e" style="font-size:6.75px; font-family:Arial;" text-anchor="middle"><textPath startOffset="22.145653131862474" xlink:href="#id151">July</textPath></text><line stroke="#e1ed5e" stroke-width="0.3" x1="58.13341422392154" x2="55.67067388415222" y1="173.97424548756322" y2="178.32567169271397" /><path d="M 57.64086615596768 174.84453072859336 a86.0,86.0 0 0,1 -31.369924170532247,-30.572349798747897" fill="none" id="id152" stroke="none" /><text fill="#e1ed5e" style="font-size:6.75px; font-family:Arial;" text-anchor="middle"><textPath startOffset="22.145653131862474" xlink:href="#id152">August</textPath></text><line stroke="#e1ed5e" stroke-width="0.3" x1="26.387840678322732" x2="22.057713659400548" y1="142.50000000000003" y2="145.00000000000006" /><path d="M 25.521815274538298 143.00000000000003 a86.0,86.0 0 0,1 -11.493303480769221,-40.785679425670985" fill="none" id="id153" stroke="none" /><text fill="#e1ed5e" style="font-size:6.75px; font-family:Arial;" text-anchor="middle"><textPath startOffset="21.40746469413373" xlink:href="#id153">September</textPath></text><line stroke="#e1ed5e" stroke-width="0.3" x1="15.003131293944662" x2="10.003315487706104" y1="100.72959589197737" y2="100.7725132973878" /><path d="M 14.003168132696942 100.73817937305945 a86.0,86.0 0 0,1 10.791469493833604,-42.45332614584628" fill="none" id="id154" stroke="none" /><text fill="#e1ed5e" style="font-size:6.75px; font-family:Arial;" text-anchor="middle"><textPath startOffset="22.145653131862435" xlink:href="#id154">October</textPath></text><line stroke="#e1ed5e" stroke-width="0.3" x1="26.387840678322718" x2="22.05771365940052" y1="57.49999999999999" y2="54.99999999999999" /><path d="M 25.521815274538284 56.99999999999999 a86.0,86.0 0 0,1 29.574782752854787,-30.34633250058573" fill="none" id="id155" stroke="none" /><text fill="#e1ed5e" style="font-size:6.75px; font-family:Arial;" text-anchor="middle"><textPath startOffset="21.40746469413373" xlink:href="#id155">November</textPath></text><line stroke="#e1ed5e" stroke-width="0.3" x1="56.869717070023135" x2="54.33264160355391" y1="26.7553504044142" y2="22.446841604673864" /><path d="M 56.362301976729285 25.89364864446614 a86.0,86.0 0 0,1 42.16139366436587,-11.88097634709845" fill="none" id="id156" stroke="none" /><text fill="#e1ed5e" style="font-size:6.75px; font-family:Arial;" text-anchor="middle"><textPath startOffset="22.145653131862474" xlink:href="#id156">December</textPath></text></svg>