<?xml version="1.0" encoding="utf-8" ?>
<svg baseProfile="full" height="200mm" version="1.1" viewBox="0,0,200,200" width="200mm" xmlns="http://www.w3.org/2000/svg" xmlns:ev="http://www.w3.org/2001/xml-events" xmlns:xlink="http://www.w3.org/1999/xlink"><defs /><rect fill="#1a1a1a" height="200" width="200" x="0" y="0" /><text alignment-baseline="middle" fill="#e1ed5e" style="dominant-baseline: central; font-size:9.0px; font-family:Arial;" text-anchor="middle" x="100.0" y="100.0">2024</text><line stroke="#e1ed5e" stroke-width="0.3" x1="100.0" x2="100.0" y1="15.0" y2="10.0" /><path d="M 100.0 14.0 a86.0,86.0 0 0,1 42.35913384403234,11.155469271406648" fill="none" id="id145" stroke="none" /><text fill="#e1ed5e" style="font-size:6.75px; font-family:Arial;" text-anchor="middle"><textPath startOffset="22.145653131862478" xlink:href="#id145">January</textPath></text><path d="M 100.0 79.0 l 0.0 -21.86058428638907 a42.86058428638907,42.86058428638907 0 0,0 0.7357589233395838,0.006315605458487031 l -0.37526599849072906 21.85736307912502" fill="#ffc612" stroke="none" /><path d="M 100.36049292484886 79.00309439819443 l 0.5892769063834085 -34.32242555618564 a55.327483789702704,55.327483789702704 0 0,0 0.9494899297036065,0.024455492516515156 l -1.1783801501577564 34.30725234631908" fill="#8eff24" stroke="none" /><path d="M 100.72087961077811 79.0123766808444 l 1.0274724549882115 -29.913739456196257 a50.931379986545096,50.931379986545096 0 0,0 0.8735319546763652,0.03751322071047098 l -1.540830170265413 29.891693667059954" fill="#c7ff1e" stroke="none" /><path d="M 101.08105385017728 79.02784411241856 l 2.194819548389634 -42.578912888002975 a63.63544365400856,63.63544365400856 0 0,0 1.0904558954024495,0.06559911882655031 l -2.9254197959245456 42.53496179135173" fill="#30ff34" stroke="none" /><path d="M 101.44090949804482 79.04949213459386 l 1.8119287923827074 -26.345046977536892 a47.40728282495742,47.40728282495742 0 0,0 0.8114117771785359,0.06280840328035031 l -2.2639095643364766 26.310060807261486" fill="#f7ff19" stroke="none" /><path d="M 101.80034050326958 79.07731436759882 l 2.369667940378421 -27.539133447076185 a48.640897184489646,48.640897184489646 0 0,0 0.831297106517049,0.07872470028350742 l -2.8420646102804827 27.494396991287495" fill="#e6ff1a" stroke="none" /><path d="M 102.15924093988457 79.11130261209362 l 2.5669632890387306 -24.8330412600742 a45.965360777521724,45.965360777521724 0 0,0 0.7841780255501393,0.08786878340172954 l -2.9928772161896666 24.7853167161655" fill="#fff316" stroke="none" /><path d="M 102.51750503828377 79.15144685158666 l 3.579885461951266 -29.646587070826097 a50.861944090577275,50.861944090577275 0 0,0 0.8659177635300935,0.11211039076654625 l -4.088281047372152 29.580765083859152" fill="#c8ff1d" stroke="none" /><path d="M 102.87502721639298 79.19773525538626 l 4.546924081978449 -32.899277609498185 a54.212000629804045,54.212000629804045 0 0,0 0.9207647428300778,0.13532070892069709 l -5.111013930416209 32.816375827278605" fill="#9cff22" stroke="none" /><path d="M 103.23170211078529 79.25015418208739 l 5.4794565583080095 -35.182041801251586 a56.60618639336988,56.60618639336988 0 0,0 0.9588616174520399,0.15778031426209474 l -6.08259567881312 35.08279548849382" fill="#7eff26" stroke="none" /><path d="M 103.58742460773223 79.30868818359171 l 3.7817308172516984 -21.81201839805078 a43.13742610537767,43.13742610537767 0 0,0 0.7285403201707383,0.13276431529006302 l -4.15560587097349 21.74388590882935" fill="#ffca12" stroke="none" /><path d="M 103.94208987418118 79.37332000966035 l 5.508306450017408 -28.82178693524408 a50.34342928302535,50.34342928302535 0 0,0 0.8474561515225333,0.16951496469825747 l -6.0022590870708985 28.722982573882962" fill="#cfff1d" stroke="none" /><path d="M 104.29559338865022 79.4440306129975 l 9.795635181896131 -46.87566040522603 a68.88822409573022,68.88822409573022 0 0,0 1.1554772180418833,0.25183088169461093 l -10.59887481655715 46.7005980653977" fill="#37ff7b" stroke="none" /><path d="M 104.64783097203109 79.52079915486377 l 6.391856979099129 -28.16370122667219 a49.87992213331807,49.87992213331807 0 0,0 0.8333933738352168,0.19667856701260134 l -6.87438250667423 28.04982651601336" fill="#d5ff1c" stroke="none" /><path d="M 104.9986988182912 79.60360301121754 l 3.655705004407944 -14.916523930376055 a36.35795771724661,36.35795771724661 0 0,0 0.6049179988352804,0.15376778979049516 l -3.911228296468619 14.851570908750293" fill="#ff6309" stroke="none" /><path d="M 105.3480935250658 79.69241777938227 l 8.690087413444456 -32.99767736404856 a55.122783161330034,55.122783161330034 0 0,0 0.9129871055121199,0.2488386954806521 l -9.255255919891269 32.843638174423766" fill="#91ff24" stroke="none" /><path d="M 105.69591212413111 79.78721728523813 l 7.711164201543658 -27.364201393368344 a49.42994145685127,49.42994145685127 0 0,0 0.8147466344691673,0.23716087104929748 l -8.17977084839443 27.22779682801653" fill="#dbff1b" stroke="none" /><path d="M 106.04205211174951 79.88797359093562 l 6.451814688585159 -21.475992759294797 a43.42418733807595,43.42418733807595 0 0,0 0.7120726509430289,0.2206019274737786 l -6.819527972399818 21.362074244014373" fill="#ffce13" stroke="none" /><path d="M 106.38641147887787 79.99465700312896 l 12.825385639008415 -40.17533784412354 a63.17283826918398,63.17283826918398 0 0,0 1.0302505097834316,0.3386638059411354 l -13.513158886439589 39.94925311678038" fill="#31ff2f" stroke="none" /><path d="M 106.72888874123014 80.10723608172694 l 9.5990901996367 -28.378004528675373 a50.95753116814337,50.95753116814337 0 0,0 0.8262259635042329,0.2874042792376098 l -10.084821935185953 28.209041816869174" fill="#c7ff1e" stroke="none" /><path d="M 107.06938296918511 80.22567764915836 l 4.556854461607908 -12.746332943409982 a34.536392654194636,34.536392654194636 0 0,0 0.5565471398529649,0.2043718187351515 l -4.774990753114997 12.66623027566611" fill="#ff4606" stroke="none" /><path d="M 107.40779381753099 80.34994680014964 l 4.65538536219026 -12.348962766262977 a34.197329058299815,34.197329058299815 0 0,0 0.5475281227636453,0.21179564012870425 l -4.8666857474474305 12.267227237996234" fill="#ff4006" stroke="none" /><path d="M 107.74402155503746 80.48000691201159 l 10.550748574992289 -26.594778668065914 a49.611196198273774,49.611196198273774 0 0,0 0.7889256021628259,0.32084917428907045 l -11.005728638345555 26.40974223719755" fill="#d9ff1c" stroke="none" /><path d="M 108.07796709384702 80.6158196554323 l 11.406372126031167 -27.371140758502488 a50.65273463779111,50.65273463779111 0 0,0 0.799746197742446,0.34136409596775014 l -11.874553398944043 27.171302012875337" fill="#cbff1d" stroke="none" /><path d="M 108.4095320186766 80.7573450057729 l 4.987001868424937 -11.411236225338575 a33.453373030073145,33.453373030073145 0 0,0 0.5242407949270457,0.2344862394971555 l -5.1821560662076145 11.323946234931567" fill="#ff3404" stroke="none" /><path d="M 108.73861861582097 80.90454125486305 l 11.0851609233772 -24.223077170609226 a47.63903639981106,47.63903639981106 0 0,0 0.7406991926106903,0.34668462223655466 l -11.499348829859395 24.029216316802138" fill="#f4ff19" stroke="none" /><path d="M 109.06512990194946 81.05736502329252 l 4.309968865109617 -9.006177281054576 a30.98434078124329,30.98434078124329 0 0,0 0.4778076759703332,0.23371967756507078 l -4.463936790342018 8.930863853392284" fill="#ff0b01" stroke="none" /><path d="M 109.3889696526874 81.21577127319529 l 13.198690273250238 -26.406221998600362 a50.52107696491705,50.52107696491705 0 0,0 0.7724258353880015,0.39440613530109087 l -13.650043330351817 26.175757911626437" fill="#ccff1d" stroke="none" /><path d="M 109.71004243097381 81.37971332152246 l 9.077651994534913 -17.40759463280139 a40.632323261239854,40.632323261239854 0 0,0 0.6156980810620217,0.3278245488331943 l -9.375138891383493 17.249199616245622" fill="#ffa50f" stroke="none" /><line stroke="#e1ed5e" stroke-width="0.3" x1="143.13028292997686" x2="145.6673583964461" y1="26.7553504044142" y2="22.446841604673864" /><path d="M 143.63769802327073 25.89364864446614 a86.0,86.0 0 0,1 29.32050498858742,28.57503671076993" fill="none" id="id146" stroke="none" /><text fill="#e1ed5e" style="font-size:6.75px; font-family:Arial;" text-anchor="middle"><textPath startOffset="20.669276256404974" xlink:href="#id146">February</textPath></text><path d="M 110.65571695917076 81.90426304109057 l 6.924850942276608 -11.759910817004796 a34.647309734766615,34.647309734766615 0 0,0 0.5099213577345282,0.30619312408896066 l -7.12570505656857 11.639303692379915" fill="#ff4706" stroke="none" /><path d="M 110.96478420261332 82.08984904055464 l 10.032676314613658 -16.38762277502519 a40.21480612055022,40.21480612055022 0 0,0 0.5856728697824417,0.36550318692240774 l -10.312513313185812 16.212983791261237" fill="#ff9f0e" stroke="none" /><path d="M 111.27062007382361 82.28071324371311 l 6.494444159453745 -10.210344917164187 a33.100782960937835,33.100782960937835 0 0,0 0.47683154424886354,0.3090764460668325 l -6.668761335959616 10.097354629393461" fill="#ff2e04" stroke="none" /><path d="M 111.5731344415666 82.4767994020092 l 5.601282436664494 -8.481055520373628 a31.163791992900393,31.163791992900393 0 0,0 0.44386694581187935,0.29865349029463595 l -5.746045670573374 8.383652356021873" fill="#ff0e01" stroke="none" /><path d="M 111.8722381534696 82.67804972795209 l 13.673559660229653 -19.95013218355626 a45.186235918869784,45.186235918869784 0 0,0 0.6360606261427828,0.44401971600530354 l -14.014015377546198 19.71246765174583" fill="#ffe815" stroke="none" /><path d="M 112.16784306229584 82.88440491214696 l 8.333377996960754 -11.721939770243257 a35.3822481141663,35.3822481141663 0 0,0 0.4920137307141154,0.35617999802005895 l -8.533372738048838 11.577159000850124" fill="#ff5307" stroke="none" /><path d="M 112.45986205192187 83.09580414077388 l 14.48945182262841 -19.657724177191177 a45.42069478837153,45.42069478837153 0 0,0 0.6236629325630125,0.4680082914596248 l -14.82476774410219 19.406096858467535" fill="#ffeb16" stroke="none" /><path d="M 114.13192950727249 84.46653392183569 l 11.31881321313055 -12.441358485461 a37.81971859210169,37.81971859210169 0 0,0 0.47647483794065887,0.44101799664158026 l -11.530717822385174 12.245222742687046" fill="#ff7a0b" stroke="none" /><path d="M 117.81537515405839 88.88188828441811 l 12.63572497972814 -7.885626921529256 a35.89445056753933,35.89445056753933 0 0,0 0.32173740452775557,0.5255338707914408 l -12.769230348711297 7.667555934613261" fill="#ff5b08" stroke="none" /><line stroke="#e1ed5e" stroke-width="0.3" x1="172.87174338648825" x2="177.1583165268699" y1="56.24261187166439" y2="53.66864786411523" /><path d="M 173.72905801456457 55.72781907015455 a86.0,86.0 0 0,1 12.242430191666344,42.057860355516425" fill="none" id="id147" stroke="none" /><text fill="#e1ed5e" style="font-size:6.75px; font-family:Arial;" text-anchor="middle"><textPath startOffset="22.145653131862474" xlink:href="#id147">March</textPath></text><path d="M 118.00360718960297 89.18935116829356 l 11.325859696592632 -6.800853329423277 a34.210855531540304,34.210855531540304 0 0,0 0.29800308931767533,0.5060743953595674 l -11.440936496040075 6.605427765770154" fill="#ff4006" stroke="none" /><path d="M 118.18653347947321 89.5 l 9.0496636256732 -5.2248257303579875 a31.449651460715973,31.449651460715973 0 0,0 0.2659242276728525,0.4698626299305723 l -9.138021218367427 5.068706330328298" fill="#ff1302" stroke="none" /><path d="M 118.36410011445183 89.81374322990088 l 16.59558651540754 -9.205292088519077 a39.97764195640039,39.97764195640039 0 0,0 0.32773033210510344,0.6029868980367965 l -16.751162197127986 8.919050357007675" fill="#ff9b0e" stroke="none" /><path d="M 118.53625476483649 90.13048839642627 l 8.42453317626052 -4.485589402640497 a30.544279518486185,30.544279518486185 0 0,0 0.24245166355740533,0.4649330333214494 l -8.500292908792868 4.34031012621455" fill="#ff0400" stroke="none" /><path d="M 118.70294669586156 90.45014215332178 l 17.164423662766545 -8.764277023569285 a40.27251907304296,40.27251907304296 0 0,0 0.30910133901785913,0.6184097368140057 l -17.312344914996142 8.468335430591528" fill="#ff9f0e" stroke="none" /><path d="M 118.8641267826498 90.77261029715802 l 9.583677367084002 -4.687856844437973 a31.668780327211827,31.668780327211827 0 0,0 0.23468186162024982,0.4903948303455184 l -9.662738486664164 4.522649512027351" fill="#ff1702" stroke="none" /><path d="M 119.0197475246899 91.09779779509293 l 17.772872302282046 -8.31860164239939 a40.623305612412864,40.623305612412864 0 0,0 0.29019652051442424,0.6341317694575711 l -17.913053287651522 8.012280890727135" fill="#ffa50f" stroke="none" /><path d="M 119.16976305983485 91.42560881287824 l 11.358131945361691 -5.080347949554388 a33.44255185148076,33.44255185148076 0 0,0 0.22990339934497422,0.5260639695253329 l -11.443669226723637 4.884621910253205" fill="#ff3404" stroke="none" /><path d="M 119.4528033332814 92.08871423366111 l 8.63059261867355 -3.509986883091768 a30.317034768046035,30.317034768046035 0 0,0 0.1919231796743864,0.4837717862796762 l -8.689574473314062 3.361314079598527" fill="#ff0000" stroke="none" /><path d="M 119.58574465831526 92.42381321644754 l 17.97460178510144 -6.95296210890241 a40.27251907304296,40.27251907304296 0 0,0 0.24387755769470335,0.6469141961820555 l -18.091310026610586 6.643379632526197" fill="#ff9f0e" stroke="none" /><path d="M 119.83427380445688 93.10060997987247 l 23.91764211285336 -8.319797484157043 a46.32336143595322,46.32336143595322 0 0,0 0.2548106460773858,0.7533023982431533 l -24.056938180503114 7.907993411439729" fill="#fff817" stroke="none" /><path d="M 119.94978838288452 93.4421083053983 l 21.12113848160047 -6.942937738018894 a43.233013182943765,43.233013182943765 0 0,0 0.22570779467226795,0.707026452088161 l -21.23721099205 6.579342252239345" fill="#ffcc13" stroke="none" /><path d="M 120.05942366710727 93.78553927170692 l 11.363264547034012 -3.5203684036317764 a32.896082332565165,32.896082332565165 0 0,0 0.16248108176177703,0.5408466770770625 l -11.422021948799417 3.3247841229639903" fill="#ff2b04" stroke="none" /><path d="M 120.16314734710363 94.1308016681162 l 9.11025734879226 -2.651863139920188 a30.488370095758846,30.488370095758846 0 0,0 0.14196184772150092,0.5037725160162215 l -9.154437688588343 2.4950827000009532" fill="#ff0300" stroke="none" /><path d="M 120.26092885502905 94.47779374421319 l 17.722476308358154 -4.830339726194583 a39.36895066057856,39.36895066057856 0 0,0 0.1721182762057464,0.6535611296506227 l -17.80278406536863 4.525398092171161" fill="#ff920d" stroke="none" /><path d="M 120.35273937422433 94.82641323984039 l 10.095236069664852 -2.566169531795242 a31.41628616005611,31.41628616005611 0 0,0 0.12837662966982966,0.5238204576851889 l -10.137800225850972 2.392493249501958" fill="#ff1202" stroke="none" /><path d="M 120.43855184770803 95.1765574152323 l 21.62982309463226 -5.104579355378389 a43.223995534116774,43.223995534116774 0 0,0 0.16422882684297394,0.7236225133223009 l -21.7142627830329 4.732522508117062" fill="#ffcb13" stroke="none" /><path d="M 120.51834098615036 95.52812308129327 l 18.27451914720573 -3.9828463924064086 a39.703505432059885,39.703505432059885 0 0,0 0.13942035137415634,0.6671768520606911 l -18.340197209404256 3.668553089060313" fill="#ff970d" stroke="none" /><path d="M 120.592083275326 95.88100663000786 l 23.48829171560703 -4.698316171096337 a44.95358057913345,44.95358057913345 0 0,0 0.14486549871346593,0.7579975036018743 l -23.565483506602654 4.294416102461149" fill="#ffe515" stroke="none" /><path d="M 120.65975698304385 96.23510406497455 l 9.199791588430129 -1.6765084885939883 a30.351301833588597,30.351301833588597 0 0,0 0.08900906965570651,0.5133806605343172 l -9.22721547557807 1.5183347951390784" fill="#ff0100" stroke="none" /><path d="M 120.7213421655516 96.59031103205396 l 18.11986653275524 -2.9816171425469817 a39.36354007128237,39.36354007128237 0 0,0 0.10399192701477868,0.6677027702098123 l -18.168379951908282 2.670126190405728" fill="#ff920d" stroke="none" /><path d="M 120.77682067341334 96.94652285012252 l 23.235077543093073 -3.4147562549958925 a44.48466284012997,44.48466284012997 0 0,0 0.10455057335014223,0.7564758669517904 l -23.290272632998427 3.0153920798440166" fill="#ffde14" stroke="none" /><path d="M 120.82617615685814 97.30363454192243 l 10.2638889148302 -1.3288659102395952 a31.349555558736384,31.349555558736384 0 0,0 0.06451725656835004,0.5342954361958343 l -10.285188257658215 1.152476797120348" fill="#ff1101" stroke="none" /><path d="M 120.86939407059847 97.66154086499901 l 18.470681813940352 -2.069678423407466 a39.586275997309016,39.586275997309016 0 0,0 0.06987469246574733,0.6759742643949882 l -18.503488898887767 1.7522996367295465" fill="#ff950d" stroke="none" /><path d="M 120.9064616781168 98.02013634271609 l 20.668857644902882 -1.957362308302575 a41.76133289437901,41.76133289437901 0 0,0 0.06146150052756791,0.714275800438065 l -20.69941276812819 1.602265460488848" fill="#ffb610" stroke="none" /><path d="M 120.93736805541906 98.37931529534042 l 18.45442151233979 -1.4284889389738118 a39.5096259822796,39.5096259822796 0 0,0 0.04653864965006582,0.6766617520823635 l -18.47622412315492 1.1114837627371141" fill="#ff940d" stroke="none" /><path d="M 120.96210409425399 98.7389718711861 l 18.69945824488066 -1.1249129731609089 a39.73326367318896,39.73326367318896 0 0,0 0.035113629498918476,0.6811950315975103 l -18.716013463836152 0.803746148186668" fill="#ff970e" stroke="none" /><path d="M 120.98066250479742 99.09900007780936 l 18.4051910586651 -0.7903980967221259 a39.42215478865781,39.42215478865781 0 0,0 0.023231500227063932,0.6763597813208089 l -18.41604724588901 0.47433205083719704" fill="#ff930d" stroke="none" /><path d="M 120.99303781780057 99.45929381324524 l 31.50352944843522 -0.8114191678793635 a52.51397735568183,52.51397735568183 0 0,0 0.015475540042463824,0.9013726234564823 l -31.512816420076348 0.2704996284538148" fill="#b2ff20" stroke="none" /><line stroke="#e1ed5e" stroke-width="0.3" x1="184.99686870605535" x2="189.99668451229388" y1="99.2704041080226" y2="99.22748670261217" /><path d="M 185.99683186730306 99.26182062694052 a86.0,86.0 0 0,1 -10.086455211305974,41.156179273409016" fill="none" id="id148" stroke="none" /><text fill="#e1ed5e" style="font-size:6.75px; font-family:Arial;" text-anchor="middle"><textPath startOffset="21.40746469413373" xlink:href="#id148">April</textPath></text><path d="M 120.99922638620191 99.81974689727618 l 23.261069973739932 -0.1996683096000975 a44.26192691410331,44.26192691410331 0 0,0 0.0,0.7598428246478459 l -23.261069973739932 -0.19966830960009466" fill="#ffdb14" stroke="none" /><path d="M 120.99922638620191 100.18025310272382 l 27.736364216245416 0.23808332822876851 a48.73738602693844,48.73738602693844 0 0,0 -0.01436260224427683,0.8365495762388506 l -27.72819018240247 -0.7141798204366903" fill="#e4ff1a" stroke="none" /><path d="M 120.99303781780057 100.54070618675476 l 18.802776124859417 0.4842928149376926 a39.809011923335675,39.809011923335675 0 0,0 -0.02345947537607507,0.6829970290414508 l -18.791691962486496 -0.8069961085432541" fill="#ff980e" stroke="none" /><path d="M 120.98066250479742 100.90099992219065 l 28.313668774813642 1.215910763409188 a49.33976496858136,49.33976496858136 0 0,0 -0.043603219733483176,0.8458908141358076 l -28.288623965623586 -1.701773370921726" fill="#dcff1b" stroke="none" /><path d="M 120.96210409425399 101.26102812881392 l 18.325001008437493 1.1023865556758363 a39.358129481986175,39.358129481986175 0 0,0 -0.046360200920798456,0.674067146722911 l -18.30337684635163 -1.4167971265530908" fill="#ff920d" stroke="none" /><path d="M 120.93736805541906 101.62068470465957 l 19.40474420251534 1.5020499254541388 a40.46279146329245,40.46279146329245 0 0,0 -0.059550395222245193,0.6920658599067893 l -19.37610018459535 -1.8349368327365854" fill="#ffa20f" stroke="none" /><path d="M 120.9064616781168 101.97986365728391 l 36.753812795131985 3.4806242844940836 a57.918254297696926,57.918254297696926 0 0,0 -0.10223291040257558,0.9890106699248233 l -36.688647492247746 -4.111039476701838" fill="#6eff28" stroke="none" /><path d="M 120.86939407059847 102.33845913500097 l 27.54337031446591 3.0862920937086225 a48.715743669753664,48.715743669753664 0 0,0 -0.10025680036741667,0.8302701282277747 l -27.48633142783883 -3.5586558988598056" fill="#e5ff1a" stroke="none" /><path d="M 120.82617615685814 102.69636545807757 l 19.008360972790445 2.4610128885721543 a40.167012581767175,40.167012581767175 0 0,0 -0.09440296783362254,0.6830528484582545 l -18.963313488401614 -2.786954045230494" fill="#ff9e0e" stroke="none" /><path d="M 120.77682067341334 103.0534771498775 l 27.196362506090164 3.9969287302169447 a48.48849891931352,48.48849891931352 0 0,0 -0.12809855088089248,0.8224845883554078 l -27.123742463071004 -4.4632015005038035" fill="#e8ff1a" stroke="none" /><path d="M 120.7213421655516 103.40968896794604 l 27.244755125045803 4.483114087981037 a48.61113894336059,48.61113894336059 0 0,0 -0.14255837446367703,0.8222388204927146 l -27.16378193308989 -4.95014594139434" fill="#e6ff1a" stroke="none" /><path d="M 120.65975698304385 103.76489593502545 l 32.189511860617046 5.866001350062124 a53.719637003850394,53.719637003850394 0 0,0 -0.17311461968128927,0.9058088414478507 l -32.0840709486536 -6.417712756543289" fill="#a2ff22" stroke="none" /><path d="M 120.592083275326 104.11899336999214 l 51.57025415600339 10.315495140402415 a73.5918297238882,73.5918297238882 0 0,0 -0.25842047564109966,1.2366355252078847 l -51.38557596953792 -11.19924711689571" fill="#3effb6" stroke="none" /><path d="M 120.51834098615036 104.47187691870673 l 12.826789920689508 2.795539163041918 a34.12789316233199,34.12789316233199 0 0,0 -0.12966834248926462,0.5713426424225388 l -12.77691071664258 -3.015316139403474" fill="#ff3f05" stroke="none" /><path d="M 120.43855184770803 104.8234425847677 l 27.547855033244772 6.50121877892542 a49.304596138156114,49.304596138156114 0 0,0 -0.2014737785109649,0.8220817694202548 l -27.432193728217513 -6.973156372953774" fill="#ddff1b" stroke="none" /><path d="M 120.35273937422433 105.17358676015961 l 27.11144646498774 6.891623672913182 a48.97364842620557,48.97364842620557 0 0,0 -0.21410933756650177,0.8130080292079735 l -26.989147646616505 -7.356012206493959" fill="#e1ff1b" stroke="none" /><path d="M 120.26092885502905 105.52220625578681 l 30.93994612065943 8.432819899014802 a53.06856275854172,53.06856275854172 0 0,0 -0.247101147141191,0.8768747984318989 l -30.790626481443663 -8.96270262134971" fill="#abff21" stroke="none" /><path d="M 120.16314734710363 105.8691983318838 l 31.687625779423975 9.223806043983936 a54.00279117701788,54.00279117701788 0 0,0 -0.2667318205217054,0.8878634806936633 l -31.52461763889864 -9.766407128268323" fill="#9fff22" stroke="none" /><path d="M 120.05942366710727 106.21446072829308 l 27.84826734426999 8.627464409446278 a50.15405865765857,50.15405865765857 0 0,0 -0.26184068932650617,0.8202122299570815 l -27.696061939166228 -9.104245673094743" fill="#d1ff1c" stroke="none" /><path d="M 119.94978838288452 106.5578916946017 l 57.79421969266656 18.998107952046507 a81.8366660464051,81.8366660464051 0 0,0 -0.4501584751558875,1.3308135438792699 l -57.459575795938306 -19.987423170399936" fill="#4ae9ff" stroke="none" /><path d="M 119.83427380445688 106.89939002012753 l 28.452983051922672 9.89742449089219 a51.12525943632538,51.12525943632538 0 0,0 -0.2954548948405588,0.8264399249804238 l -28.278887987038168 -10.384399372253537" fill="#c4ff1e" stroke="none" /><path d="M 119.71291397450082 107.23885506374661 l 22.543031879031748 8.278113559508006 a45.01490059115698,45.01490059115698 0 0,0 -0.2725959107780174,0.7230930396811408 l -22.397605284439287 -8.663874879383306" fill="#ffe515" stroke="none" /><path d="M 119.58574465831526 107.57618678355244 l 21.65160716618246 8.375306781376734 a44.21503514020297,44.21503514020297 0 0,0 -0.2799050170456168,0.7055434904451682 l -21.504643474170717 -8.745751289035468" fill="#ffda14" stroke="none" /><path d="M 119.4528033332814 107.91128576633889 l 34.471415562795336 14.019224613293453 a58.2131314143395,58.2131314143395 0 0,0 -0.38441223027476734,0.9224494123007082 l -34.22567748798408 -14.60890653503544" fill="#6bff28" stroke="none" /><path d="M 119.31412917781788 108.2440532568976 l 23.874290647953803 10.190515024536072 a46.95820391337332,46.95820391337332 0 0,0 -0.3228177907823541,0.7386702803708367 l -23.695838975154484 -10.598847374682753" fill="#fdff18" stroke="none" /><path d="M 119.16976305983485 108.57439118712176 l 30.732316136261286 13.7461741084696 a54.66649013068434,54.66649013068434 0 0,0 -0.39051537006906695,0.8533465604042999 l -30.491816301337163 -14.271709651088587" fill="#96ff23" stroke="none" /><path d="M 119.0197475246899 108.90220220490707 l 50.89701098909117 23.82237108363794 a77.19618396003608,77.19618396003608 0 0,0 -0.5720632109773313,1.1953920910517202 l -50.48056852015393 -24.692575676754764" fill="#43ffe1" stroke="none" /><path d="M 118.8641267826498 109.22738970284198 l 49.36270234091499 24.1457713115004 a75.95174842191147,75.95174842191147 0 0,0 -0.5829480667792554,1.1662866349872354 l -48.94093436092401 -24.98958980265138" fill="#41ffd2" stroke="none" /><path d="M 118.70294669586154 109.54985784667822 l 37.80638590216508 19.304210022810246 a63.44968008817256,63.44968008817256 0 0,0 -0.503645223658057,0.9658061244762751 l -37.46943260953208 -19.95036239039102" fill="#30ff31" stroke="none" /><path d="M 118.5362547648365 109.86951160357373 l 46.18369840825658 24.59021809523873 a73.32220202396118,73.32220202396118 0 0,0 -0.6010837168985012,1.1059263376232553 l -45.754769341742744 -25.379399266336588" fill="#3effb3" stroke="none" /><line stroke="#e1ed5e" stroke-width="0.3" x1="174.33088141563837" x2="178.70328620479359" y1="141.23008692659167" y2="143.65538615756765" /><path d="M 175.20536237346943 141.71514677278685 a86.0,86.0 0 0,1 -30.301960400862466,31.631185727798858" fill="none" id="id149" stroke="none" /><text fill="#e1ed5e" style="font-size:6.75px; font-family:Arial;" text-anchor="middle"><textPath startOffset="22.145653131862474" xlink:href="#id149">May</textPath></text><path d="M 118.36410011445183 110.18625677009912 l 25.718624785626105 14.265687630076549 a50.41015988434508,50.41015988434508 0 0,0 -0.42624583139987904,0.75313554199686 l -25.469945589204848 -14.705079942172532" fill="#ceff1d" stroke="none" /><path d="M 118.18653347947321 110.5 l 8.157036293593078 4.709467099895509 a30.41893419979102,30.41893419979102 0 0,0 -0.264972513094027,0.44998125575811776 l -8.074990070369285 -4.848799523947176" fill="#ff0200" stroke="none" /><path d="M 118.00360718960297 110.81064883170644 l 40.15461792771476 24.111694329709554 a67.83766800738589,67.83766800738589 0 0,0 -0.6080582064585104,0.9932173829017018 l -39.734791756800846 -24.797448828735813" fill="#36ff6d" stroke="none" /><path d="M 117.81537515405839 111.11811171558189 l 46.81345999179658 29.215061343412216 a76.1816984669997,76.1816984669997 0 0,0 -0.7018957559645479,1.1034967101625757 l -46.30504654420614 -30.014371728253465" fill="#42ffd5" stroke="none" /><path d="M 117.62189284568427 111.42229804090321 l 18.248696786561784 11.828584782549646 a42.746961911169,42.746961911169 0 0,0 -0.4044179353398013,0.6123402991787326 l -18.042954412301253 -12.14010496006744" fill="#ffc412" stroke="none" /><path d="M 117.423217284605 111.72311816256416 l 31.421794634592317 21.14198574029327 a58.87232154359247,58.87232154359247 0 0,0 -0.5713706356234604,0.833646832992949 l -31.054234262153535 -21.67826730835626" fill="#63ff29" stroke="none" /><path d="M 117.21940702142032 112.02048342749411 l 29.244129841139394 20.414673842694654 a56.66480111074532,56.66480111074532 0 0,0 -0.5636391141351149,0.7928290004911224 l -28.889375628474316 -20.913680069895282" fill="#7dff26" stroke="none" /><path d="M 117.01052211995028 112.31430620078461 l 38.4962800094021 27.86833797834692 a68.52481284800251,68.52481284800251 0 0,0 -0.6979675750754232,0.9469270641438715 l -38.012210414742846 -28.52507135175967" fill="#37ff76" stroke="none" /><path d="M 116.79662413953412 112.60449989151573 l 24.347808185087366 18.271049175009512 a51.44087714527003,51.44087714527003 0 0,0 -0.5360825831620238,0.7017493098411993 l -24.03057362457104 -18.686319398091587" fill="#c0ff1e" stroke="none" /><path d="M 116.57777611688842 112.89097897827486 l 29.972547083240183 23.306833899257878 a58.96790862115855,58.96790862115855 0 0,0 -0.628242889210192,0.793764367441093 l -29.568037763388432 -23.817918210613655" fill="#62ff29" stroke="none" /><path d="M 116.35404254752997 113.17365903436017 l 28.950749496382493 23.320674478257367 a58.17525728926614,58.17525728926614 0 0,0 -0.6331495283368093,0.7723394758976438 l -28.546153148807054 -23.814216235853504" fill="#6bff28" stroke="none" /><path d="M 116.1254893667686 113.45245675266167 l 48.37646810030581 40.35737025798503 a84.0,84.0 0 0,0 -0.933221745971542,1.0993328702017733 l -47.67655179082715 -41.181869910636365" fill="#4dd2ff" stroke="none" /><path d="M 115.89218393027572 113.72728997021213 l 30.548943516831194 26.387449816779082 a61.36750497402059,61.36750497402059 0 0,0 -0.6954660579182558,0.7913127089675797 l -30.091466394954352 -26.907974803557956" fill="#45ff2d" stroke="none" /><path d="M 115.6541949942343 113.99807769240083 l 20.80018417645644 18.599652950887833 a48.90331076535506,48.90331076535506 0 0,0 -0.5649550299104374,0.6209845434260091 l -20.477831445704126 -18.953975069871515" fill="#e2ff1b" stroke="none" /><path d="M 115.41159269507618 114.26474011684316 l 27.7304105367254 25.666854001801898 a58.78575211485336,58.78575211485336 0 0,0 -0.6918359854577298,0.7347058417204334 l -27.285718717531413 -26.139101303466827" fill="#64ff29" stroke="none" /><path d="M 115.16444852881244 114.52719865689866 l 37.95920006684785 36.36405499219588 a73.56658030717261,73.56658030717261 0 0,0 -0.8814439333087495,0.9044391265470684 l -37.329369332388296 -37.010316810810686" fill="#3effb6" stroke="none" /><path d="M 114.91283532996324 114.78537596483092 l 28.302005506908774 28.060109477477386 a60.854400755764864,60.854400755764864 0 0,0 -0.74186753757738,0.7355268274937693 l -27.816146049201432 -28.541816315199817" fill="#4bff2c" stroke="none" /><path d="M 114.65682725009322 115.03919595460226 l 33.93310512812687 34.818355204860126 a69.61865365071641,69.61865365071641 0 0,0 -0.8630310020140389,0.8267641773783719 l -33.330401640247516 -35.395731512544074" fill="#38ff84" stroke="none" /><path d="M 114.39649973595853 115.28858382429668 l 6.3878890874279435 6.783716845388444 a30.317936532928734,30.317936532928734 0 0,0 -0.38196301913359915,0.35353926813328845 l -6.270496296980378 -6.8923738596541115" fill="#ff0000" stroke="none" /><line stroke="#e1ed5e" stroke-width="0.3" x1="143.1302829299769" x2="145.66735839644613" y1="173.24464959558577" y2="177.55315839532614" /><path d="M 143.63769802327073 174.10635135553383 a86.0,86.0 0 0,1 -40.68552437913181,11.842963189579606" fill="none" id="id150" stroke="none" /><text fill="#e1ed5e" style="font-size:6.75px; font-family:Arial;" text-anchor="middle"><textPath startOffset="21.407464694133747" xlink:href="#id150">June</textPath></text><line stroke="#e1ed5e" stroke-width="0.3" x1="101.45913802915013" x2="101.54496967792366" y1="184.9874750549273" y2="189.98673829345242" /><path d="M 101.47630435890484 185.9873277026323 a86.0,86.0 0 0,1 -42.54439059252881,-10.42667462771756" fill="none" id="id151" stroke="none" /><text fill="#e1ed5e" style="font-size:6.75px; font-family:Arial;" text-anchor="middle"><textPath startOffset="22.145653131862474" xlink:href="#id151">July</textPath></text><line stroke="#e1ed5e" stroke-width="0.3" x1="58.13341422392154" x2="55.67067388415222" y1="173.97424548756322" y2="178.32567169271397" /><path d="M 57.64086615596768 174.84453072859336 a86.0,86.0 0 0,1 -31.369924170532247,-30.572349798747897" fill="none" id="id152" stroke="none" /><text fill="#e1ed5e" style="font-size:6.75px; font-family:Arial;" text-anchor="middle"><textPath startOffset="22.145653131862474" xlink:href="#id152">August</textPath></text><line stroke="#e1ed5e" stroke-width="0.3" x1="26.387840678322732" x2="22.057713659400548" y1="142.50000000000003" y2="145.00000000000006" /><path d="M 25.521815274538298 143.00000000000003 a86.0,86.0 0 0,1 -11.493303480769221,-40.785679425670985" fill="none" id="id153" stroke="none" /><text fill="#e1ed5e" style="font-size:6.75px; font-family:Arial;" text-anchor="middle"><textPath startOffset="21.40746469413373" xlink:href="#id153">September</textPath></text><line stroke="#e1ed5e" stroke-width="0.3" x1="15.003131293944662" x2="10.003315487706104" y1="100.72959589197737" y2="100.7725132973878" /><path d="M 14.003168132696942 100.73817937305945 a86.0,86.0 0 0,1 10.791469493833604,-42.45332614584628" fill="none" id="id154" stroke="none" /><text fill="#e1ed5e" style="font-size:6.75px; font-family:Arial;" text-anchor="middle"><textPath startOffset="22.145653131862435" xlink:href="#id154">October</textPath></text><line stroke="#e1ed5e" stroke-width="0.3" x1="26.387840678322718" x2="22.05771365940052" y1="57.49999999999999" y2="54.99999999999999" /><path d="M 25.521815274538284 56.99999999999999 a86.0,86.0 0 0,1 29.574782752854787,-30.34633250058573" fill="none" id="id155" stroke="none" /><text fill="#e1ed5e" style="font-size:6.75px; font-family:Arial;" text-anchor="middle"><textPath startOffset="21.40746469413373" xlink:href="#id155">November</textPath></text><line stroke="#e1ed5e" stroke-width="0.3" x1="56.869717070023135" x2="54.33264160355391" y1="26.7553504044142" y2="22.446841604673864" /><path d="M 56.362301976729285 25.89364864446614 a86.0,86.0 0 0,1 42.16139366436587,-11.88097634709845" fill="none" id="id156" stroke="none" /><text fill="#e1ed5e" style="font-size:6.75px; font-family:Arial;" text-anchor="middle"><textPath startOffset="22.145653131862474" xlink:href="#id156">December</textPath></text></svg>