<?xml version="1.0" encoding="utf-8" ?>
<svg baseProfile="full" height="200mm" version="1.1" viewBox="0,0,200,200" width="200mm" xmlns="http://www.w3.org/2000/svg" xmlns:ev="http://www.w3.org/2001/xml-events" xmlns:xlink="http://www.w3.org/1999/xlink"><defs /><rect fill="#1a1a1a" height="200" width="200" x="0" y="0" /><text alignment-baseline="middle" fill="#e1ed5e" style="dominant-baseline: central; font-size:9.0px; font-family:Arial;" text-anchor="middle" x="100.0" y="100.0">2024</text><line stroke="#e1ed5e" stroke-width="0.3" x1="100.0" x2="100.0" y1="15.0" y2="10.0" /><path d="M 100.0 14.0 a86.0,86.0 0 0,1 42.35913384403234,11.155469271406648" fill="none" id="id145" stroke="none" /><text fill="#e1ed5e" style="font-size:6.75px; font-family:Arial;" text-anchor="middle"><textPath startOffset="22.145653131862478" xlink:href="#id145">January</textPath></text><path d="M 100.0 79.0 l 0.0 -11.51265660570791 a32.51265660570791,32.51265660570791 0 0,0 0.5581229844951469,0.004790814566523087 l -0.19763005964629207 11.510960189335822" fill="#ff6409" stroke="none" /><path d="M 100.36049292484886 79.00309439819443 l 0.31033674946602596 -18.0755598353043 a39.07822370305598,39.07822370305598 0 0,0 0.670631977730788,0.017273100850949182 l -0.6205820412675553 18.067569017103306" fill="#ffc111" stroke="none" /><path d="M 100.72087961077811 79.0123766808444 l 0.5411080230580999 -15.753769690695163 a36.76305989838532,36.76305989838532 0 0,0 0.6305289112803253,0.02707762444930258 l -0.8114626949392615 15.74215949782003" fill="#ffa10e" stroke="none" /><path d="M 101.08105385017728 79.02784411241856 l 1.1558796160740021 -22.423755756113852 a43.453527114836646,43.453527114836646 0 0,0 0.7446189120018645,0.04479442469415916 l -1.540642880208329 22.400609353595" fill="#fffb17" stroke="none" /><path d="M 101.44090949804482 79.04949213459386 l 0.9542340546535687 -13.874353729075217 a34.90712961148216,34.90712961148216 0 0,0 0.5974621278936308,0.04624734731354853 l -1.1922651773224329 13.855928614766615" fill="#ff860c" stroke="none" /><path d="M 101.80034050326958 79.07731436759882 l 1.2479617612104634 -14.503207345302085 a35.556800192977434,35.556800192977434 0 0,0 0.6076833863757837,0.05754824849582135 l -1.49674471097126 14.47964734130108" fill="#ff900d" stroke="none" /><path d="M 102.15924093988457 79.11130261209362 l 1.3518653700652266 -13.078071141978349 a34.14775588355018,34.14775588355018 0 0,0 0.5825673797131522,0.06527789001613017 l -1.5761686513791755 13.052937491455246" fill="#ff7c0b" stroke="none" /><path d="M 102.51750503828377 79.15144685158666 l 1.8853106335712981 -15.613076576830068 a36.72649218290642,36.72649218290642 0 0,0 0.6252635942639769,0.0809528904907302 l -2.1530520497260666 15.57841209013894" fill="#ffa00e" stroke="none" /><path d="M 102.87502721639298 79.19773525538626 l 2.3945917859402397 -17.326073298499686 a38.49076572841442,38.49076572841442 0 0,0 0.6537471333934126,0.09607831558988782 l -2.691664024941334 17.282413909610916" fill="#ffb911" stroke="none" /><path d="M 103.23170211078529 79.25015418208739 l 2.8857006251645014 -18.52826807550875 a39.751639554342745,39.751639554342745 0 0,0 0.6733596419050061,0.11080107283207367 l -3.203337770122578 18.476001004181004" fill="#ffca12" stroke="none" /><path d="M 103.58742460773223 79.30868818359171 l 1.9916104576102116 -11.487079869612248 a32.65845256222769,32.65845256222769 0 0,0 0.5515627990377503,0.10051311550822076 l -2.1885079901990157 11.451198580172662" fill="#ff6609" stroke="none" /><path d="M 103.94208987418118 79.37332000966035 l 2.9008941301509616 -15.178703890130693 a36.453421580304244,36.453421580304244 0 0,0 0.6136386972885337,0.12274492541173637 l -3.1610293129704523 15.126669568056098" fill="#ff9c0e" stroke="none" /><path d="M 104.29559338865022 79.4440306129975 l 5.1587726387613975 -24.686594573190508 a46.219851045545695,46.219851045545695 0 0,0 0.7752556493574573,0.16896336047825034 l -5.581790704737989 24.59439975457854" fill="#e0ff1b" stroke="none" /><path d="M 104.64783097203109 79.52079915486377 l 3.366207120044041 -14.832129677810604 a36.209320206847686,36.209320206847686 0 0,0 0.6049850569295004,0.14277482614645565 l -3.620324330713427 14.772158708017923" fill="#ff990e" stroke="none" /><path d="M 104.9986988182912 79.60360301121754 l 1.9252402321982252 -7.855637137208929 a29.088113796378657,29.088113796378657 0 0,0 0.4839634757386705,0.12302162300832012 l -2.05980900116229 7.821430282365341" fill="#ff3104" stroke="none" /><path d="M 105.3480935250658 79.69241777938227 l 4.576547037988438 -17.377894538471296 a38.9704201782026,38.9704201782026 0 0,0 0.6454589024461338,0.17592269408994105 l -4.8741873413692645 17.29677135023721" fill="#ffbf11" stroke="none" /><path d="M 105.69591212413111 79.78721728523813 l 4.061006984972218 -14.411081140563647 a35.97234241432857,35.97234241432857 0 0,0 0.592926959900018,0.1725923966167934 l -4.307793957253841 14.339245049644337" fill="#ff960d" stroke="none" /><path d="M 106.04205211174951 79.88797359093562 l 3.3977832440457783 -11.310115350318956 a32.80947247810158,32.80947247810158 0 0,0 0.5380118656368919,0.16667745124894248 l -3.5914357425543 11.250121311263367" fill="#ff6809" stroke="none" /><path d="M 106.38641147887787 79.99465700312896 l 6.754360211205091 -21.15793716024667 a43.20990064677592,43.20990064677592 0 0,0 0.7046861180962316,0.2316443238630584 l -7.116569066949064 21.03887191498159" fill="#fff817" stroke="none" /><path d="M 106.72888874123014 80.10723608172694 l 5.055264202816406 -14.94499035404459 a36.77683215486439,36.77683215486439 0 0,0 0.5962999557714521,0.2074240783611429 l -5.311069930632876 14.856007843114856" fill="#ffa10e" stroke="none" /><path d="M 107.06938296918511 80.22567764915836 l 2.399821520385603 -6.712727905029865 a28.128804896802304,28.128804896802304 0 0,0 0.4532901299086895,0.1664544144249966 l -2.514700801948417 6.670542641596146" fill="#ff2203" stroke="none" /><path d="M 107.40779381753099 80.34994680014964 l 2.451711827094469 -6.5034569022556505 a27.950240467970268,27.950240467970268 0 0,0 0.4475069578717875,0.1731053048491878 l -2.5629910474597826 6.460411709268425" fill="#ff2003" stroke="none" /><path d="M 107.74402155503746 80.48000691201159 l 5.556445504188862 -14.005872409406809 a36.06779839889038,36.06779839889038 0 0,0 0.5735562080948593,0.23326031665229827 l -5.796056173474161 13.908424836175218" fill="#ff970d" stroke="none" /><path d="M 108.07796709384702 80.6158196554323 l 6.00705103228539 -14.414735687340826 a36.61631413107389,36.61631413107389 0 0,0 0.5781278782097827,0.2467684135991256 l -6.253613985665603 14.309492624082297" fill="#ff9f0e" stroke="none" /><path d="M 108.4095320186766 80.7573450057729 l 2.6263543211398583 -6.009612661210245 a27.55844351641062,27.55844351641062 0 0,0 0.43186259044813585,0.19316664363706357 l -2.729130314443626 5.963642266663329" fill="#ff1a02" stroke="none" /><path d="M 108.73861861582097 80.90454125486305 l 5.837888386602399 -12.756839695836451 a35.029180298210434,35.029180298210434 0 0,0 0.5446391767236012,0.25491863515084473 l -6.056016277197506 12.654744829115073" fill="#ff880c" stroke="none" /><path d="M 109.06512990194946 81.05736502329252 l 2.2698017068186855 -4.743012584136017 a26.258152542628412,26.258152542628412 0 0,0 0.404925408297305,0.19806930826918495 l -2.3508873643780577 4.703349525769611" fill="#ff0500" stroke="none" /><path d="M 109.3889696526874 81.21577127319529 l 6.950957338118179 -13.906570937962407 a36.54697794328273,36.54697794328273 0 0,0 0.5587733212486828,0.28531363924712044 l -7.188657881080441 13.785199347042454" fill="#ff9e0e" stroke="none" /><path d="M 109.71004243097381 81.37971332152246 l 4.780654022329542 -9.167534440677557 a31.33916537261228,31.33916537261228 0 0,0 0.4748796631180857,0.2528466729069824 l -4.9373225012341875 9.084117300048002" fill="#ff5307" stroke="none" /><line stroke="#e1ed5e" stroke-width="0.3" x1="143.13028292997686" x2="145.6673583964461" y1="26.7553504044142" y2="22.446841604673864" /><path d="M 143.63769802327073 25.89364864446614 a86.0,86.0 0 0,1 29.32050498858742,28.57503671076993" fill="none" id="id146" stroke="none" /><text fill="#e1ed5e" style="font-size:6.75px; font-family:Arial;" text-anchor="middle"><textPath startOffset="20.669276256404974" xlink:href="#id146">February</textPath></text><path d="M 110.65571695917076 81.90426304109057 l 3.646903024169449 -6.193238624194593 a28.18721826048938,28.18721826048938 0 0,0 0.4148450403849241,0.2491025272850028 l -3.7526808211118072 6.129722096373669" fill="#ff2303" stroke="none" /><path d="M 110.96478420261332 82.08984904055464 l 5.283607964599603 -8.630376531619541 a31.11928417434305,31.11928417434305 0 0,0 0.45320920890003413,0.2828360655617855 l -5.43098130228935 8.538404669216211" fill="#ff4f07" stroke="none" /><path d="M 111.27062007382361 82.28071324371311 l 3.420233625653312 -5.377175345232415 a27.372755506641138,27.372755506641138 0 0,0 0.3943167535940507,0.25559135567980107 l -3.5120360115043696 5.31767014784872" fill="#ff1702" stroke="none" /><path d="M 111.5731344415666 82.4767994020092 l 2.949858997366849 -4.466462496192183 a26.352658716398558,26.352658716398558 0 0,0 0.37534181145655854,0.2525467217207961 l -3.0260970969204086 4.415166100414268" fill="#ff0701" stroke="none" /><path d="M 111.8722381534696 82.67804972795209 l 7.201042519430601 -10.506536241612201 a33.73743762155317,33.73743762155317 0 0,0 0.4749024843881028,0.33151881688850726 l -7.380340094992464 10.381372608918568" fill="#ff760a" stroke="none" /><path d="M 112.16784306229584 82.88440491214696 l 4.3886896154145925 -6.173241554738533 a28.57426615809073,28.57426615809073 0 0,0 0.39734420632337986,0.2876465630667065 l -4.49401483211194 6.096994220298752" fill="#ff2904" stroke="none" /><path d="M 112.45986205192187 83.09580414077388 l 7.630723911745154 -10.352542509242618 a33.860913024468935,33.860913024468935 0 0,0 0.46493776492181527,0.34889796656967503 l -7.807314665577735 10.220025515408928" fill="#ff770b" stroke="none" /><path d="M 114.13192950727249 84.46653392183569 l 5.960939012414929 -6.55211617746206 a29.857935443018892,29.857935443018892 0 0,0 0.37616765753582765,0.34817516795811965 l -6.072536441264721 6.448823263371565" fill="#ff3c05" stroke="none" /><path d="M 117.81537515405839 88.88188828441811 l 6.654477334640557 -4.152886019831434 a28.844012422922102,28.844012422922102 0 0,0 0.25854129388763286,0.4223077734328952 l -6.724786592983592 4.038041130273984" fill="#ff2d04" stroke="none" /><line stroke="#e1ed5e" stroke-width="0.3" x1="172.87174338648825" x2="177.1583165268699" y1="56.24261187166439" y2="53.66864786411523" /><path d="M 173.72905801456457 55.72781907015455 a86.0,86.0 0 0,1 12.242430191666344,42.057860355516425" fill="none" id="id147" stroke="none" /><text fill="#e1ed5e" style="font-size:6.75px; font-family:Arial;" text-anchor="middle"><textPath startOffset="22.145653131862474" xlink:href="#id147">March</textPath></text><path d="M 118.00360718960297 89.18935116829356 l 5.964649971980965 -3.5816009298609828 a27.957364048907717,27.957364048907717 0 0,0 0.24353032761990973,0.41356773711356704 l -6.025254009730642 3.4786820244538594" fill="#ff2003" stroke="none" /><path d="M 118.18653347947321 89.5 l 4.765914229676362 -2.751601863438316 a26.50320372687663,26.50320372687663 0 0,0 0.2240992715206862,0.39596193999958884 l -4.812446866218424 2.6693831533396093" fill="#ff0901" stroke="none" /><path d="M 118.36410011445183 89.81374322990088 l 8.739898541557364 -4.8478743926503345 a30.99438405523979,30.99438405523979 0 0,0 0.25408701671036416,0.4674914923299537 l -8.82183090788307 4.697128066845778" fill="#ff4d07" stroke="none" /><path d="M 118.53625476483649 90.13048839642627 l 4.436695572774264 -2.3622904946303493 a26.026398709463432,26.026398709463432 0 0,0 0.2065900313575462,0.39616362504477265 l -4.476593673106755 2.2857806264810785" fill="#ff0200" stroke="none" /><path d="M 118.70294669586156 90.45014215332178 l 9.039470897735976 -4.615618249164173 a31.14967811967616,31.14967811967616 0 0,0 0.23908132489313624,0.4783228040166004 l -9.11737213584085 4.459763588983822" fill="#ff5007" stroke="none" /><path d="M 118.8641267826498 90.77261029715802 l 5.047147189740459 -2.4688126062730493 a26.61860573806329,26.61860573806329 0 0,0 0.19725748462047402,0.4121922761179181 l -5.088783932320845 2.3818078280900274" fill="#ff0b01" stroke="none" /><path d="M 119.0197475246899 91.09779779509293 l 9.359904247420666 -4.380907797064245 a31.334416318653982,31.334416318653982 0 0,0 0.22384043964273748,0.48913175738698905 l -9.433729151918454 4.219587057462572" fill="#ff5307" stroke="none" /><path d="M 119.16976305983485 91.42560881287824 l 5.9816458268540424 -2.675514094888496 a27.55274465166066,27.55274465166066 0 0,0 0.18941346595894917,0.43341507810591046 l -6.026693174829962 2.572436947006736" fill="#ff1902" stroke="none" /><path d="M 119.4528033332814 92.08871423366111 l 4.545214703360446 -1.8484992508061342 a25.906722549714303,25.906722549714303 0 0,0 0.16400352490685727,0.4133960177971263 l -4.576276903233428 1.7702022157954425" fill="#ff0000" stroke="none" /><path d="M 119.58574465831526 92.42381321644754 l 9.46614304838413 -3.6617074870286683 a31.14967811967616,31.14967811967616 0 0,0 0.1886325364704523,0.5003702138813702 l -9.527606268669023 3.4986689929531405" fill="#ff5007" stroke="none" /><path d="M 119.83427380445688 93.10060997987247 l 12.59598539801802 -4.381537575085283 a34.33629332569464,34.33629332569464 0 0,0 0.18887344991834448,0.5583707940708924 l -12.669344269508729 4.164665106540229" fill="#ff7e0b" stroke="none" /><path d="M 119.94978838288452 93.4421083053983 l 11.123234917909611 -3.6564282530357293 a32.70879253418565,32.70879253418565 0 0,0 0.17076370314610342,0.5349148679430153 l -11.184363336832972 3.464944351401327" fill="#ff6709" stroke="none" /><path d="M 120.05942366710727 93.78553927170692 l 5.984348859845899 -1.8539665740696138 a27.264951981787757,27.264951981787757 0 0,0 0.13466767402263904,0.4482648885340902 l -6.0152928538721655 1.7509640819448002" fill="#ff1502" stroke="none" /><path d="M 120.16314734710363 94.1308016681162 l 4.79782530385407 -1.3965770216967237 a25.99695457492198,25.99695457492198 0 0,0 0.12104863903830781,0.429558916197678 l -4.82109243496696 1.3140101815960326" fill="#ff0100" stroke="none" /><path d="M 120.26092885502905 94.47779374421319 l 9.333363704645219 -2.5438497813259064 a30.67382291305462,30.67382291305462 0 0,0 0.13410379082625265,0.5092139368051046 l -9.375656976276202 2.383255340148003" fill="#ff4906" stroke="none" /><path d="M 120.35273937422433 94.82641323984039 l 5.31655442969889 -1.3514473458050849 a26.485632227230923,26.485632227230923 0 0,0 0.10822845777135794,0.44160904075890656 l -5.338970413986539 1.2599824804380833" fill="#ff0901" stroke="none" /><path d="M 120.43855184770803 95.1765574152323 l 11.391128547545522 -2.6882753207857832 a32.704043480227355,32.704043480227355 0 0,0 0.12425845013656943,0.5475056585244369 l -11.435597859239758 2.49233532832232" fill="#ff6709" stroke="none" /><path d="M 120.51834098615036 95.52812308129327 l 9.624091507343955 -2.097525950283353 a30.850012814907508,30.850012814907508 0 0,0 0.10833097933661424,0.5184029523816814 l -9.658680197504937 1.932006546616267" fill="#ff4b07" stroke="none" /><path d="M 120.592083275326 95.88100663000786 l 12.369872334329285 -2.4743209053453508 a33.614912029429064,33.614912029429064 0 0,0 0.10832598722098048,0.5668073393453148 l -12.410524613832424 2.261611000966721" fill="#ff740a" stroke="none" /><path d="M 120.65975698304385 96.23510406497455 l 4.84497760966164 -0.8829163151761805 a25.924768954755837,25.924768954755837 0 0,0 0.0760276965500141,0.43850755012634274 l -4.859420123703888 0.7996157321292451" fill="#ff0000" stroke="none" /><path d="M 120.7213421655516 96.59031103205396 l 9.542645265101832 -1.5702386469701013 a30.670973480679642,30.670973480679642 0 0,0 0.08102761158928311,0.5202553916897832 l -9.56819436882938 1.4061950733488768" fill="#ff4906" stroke="none" /><path d="M 120.77682067341334 96.94652285012252 l 12.236519639924555 -1.7983469993726584 a33.367961223597526,33.367961223597526 0 0,0 0.07842342179797988,0.5674328135463264 l -12.265587578277747 1.5880258776262464" fill="#ff700a" stroke="none" /><path d="M 120.82617615685814 97.30363454192243 l 5.405373752482189 -0.6998338516114282 a26.450489227939514,26.450489227939514 0 0,0 0.05443499818298979,0.45079987348327166 l -5.416590836924843 0.6069403012047435" fill="#ff0801" stroke="none" /><path d="M 120.86939407059847 97.66154086499901 l 9.727398600667241 -1.089975302616622 a30.78827511344962,30.78827511344962 0 0,0 0.05434512847961137,0.5257398201139049 l -9.744676121628519 0.9228309602197856" fill="#ff4a06" stroke="none" /><path d="M 120.9064616781168 98.02013634271609 l 10.885045769164691 -1.0308251514793134 a31.93374692819129,31.93374692819129 0 0,0 0.046997925297025754,0.5461871321446866 l -10.901137317159458 0.8438169719589648" fill="#ff5b08" stroke="none" /><path d="M 120.93736805541906 98.37931529534042 l 9.71883527655019 -0.7522993166151113 a30.747908154804083,30.747908154804083 0 0,0 0.036218164295724525,0.526604160065422 l -9.73031740201098 0.5853517323953552" fill="#ff4a06" stroke="none" /><path d="M 120.96210409425399 98.7389718711861 l 9.847881404529675 -0.5924240908497082 a30.865684692969893,30.865684692969893 0 0,0 0.027277049916005523,0.5291674812480593 l -9.856600043902253 0.4232848162249181" fill="#ff4c07" stroke="none" /><path d="M 120.98066250479742 99.09900007780936 l 9.692908553811453 -0.41625519931928623 a30.701842331408585,30.701842331408585 0 0,0 0.01809261469640948,0.5267467361117442 l -9.69862585550471 0.2498021986434221" fill="#ff4906" stroke="none" /><path d="M 120.99303781780057 99.45929381324524 l 16.591016582912673 -0.4273257347883728 a37.59651886806675,37.59651886806675 0 0,0 0.011079458507955922,0.6453229130867546 l -16.595907473019295 0.14245590573255182" fill="#ffac0f" stroke="none" /><line stroke="#e1ed5e" stroke-width="0.3" x1="184.99686870605535" x2="189.99668451229388" y1="99.2704041080226" y2="99.22748670261217" /><path d="M 185.99683186730306 99.26182062694052 a86.0,86.0 0 0,1 -10.086455211305974,41.156179273409016" fill="none" id="id148" stroke="none" /><text fill="#e1ed5e" style="font-size:6.75px; font-family:Arial;" text-anchor="middle"><textPath startOffset="21.40746469413373" xlink:href="#id148">April</textPath></text><path d="M 120.99922638620191 99.81974689727618 l 12.250208291813482 -0.10515330484095652 a33.25065959082754,33.25065959082754 0 0,0 0.0,0.5708128151295653 l -12.250208291813482 -0.10515330484095503" fill="#ff6f0a" stroke="none" /><path d="M 120.99922638620191 100.18025310272382 l 14.607076944018102 0.12538418761059608 a35.60761507033123,35.60761507033123 0 0,0 -0.010493341022430103,0.6111845079565273 l -14.602772171397005 -0.3761156115361945" fill="#ff900d" stroke="none" /><path d="M 120.99303781780057 100.54070618675476 l 9.90229272573877 0.2550479347645225 a30.905576746219605,30.905576746219605 0 0,0 -0.018212675513212928,0.5302421757950485 l -9.89645536322871 -0.4249963751236817" fill="#ff4c07" stroke="none" /><path d="M 120.98066250479742 100.90099992219065 l 14.911108577053819 0.6403471608501266 a35.924851874745585,35.924851874745585 0 0,0 -0.031748007133492545,0.615902856841488 l -14.897918980463754 -0.8962218110683452" fill="#ff950d" stroke="none" /><path d="M 120.96210409425399 101.26102812881392 l 9.650677271272508 0.5805607798940202 a30.668124048304662,30.668124048304662 0 0,0 -0.03612418606921118,0.52523773727729 l -9.63928912403823 -0.7461419413256536" fill="#ff4906" stroke="none" /><path d="M 120.93736805541906 101.62068470465957 l 10.219313152771257 0.7910394694779247 a31.24988315819627,31.24988315819627 0 0,0 -0.04599146093041568,0.5344904905901915 l -10.2042280691431 -0.9663510074437736" fill="#ff5107" stroke="none" /><path d="M 120.9064616781168 101.97986365728391 l 19.356025443669477 1.8330357338992758 a40.44262690527522,40.44262690527522 0 0,0 -0.07138625814929304,0.6905972912014446 l -19.32170679303852 -2.165037547383652" fill="#ffd313" stroke="none" /><path d="M 120.86939407059847 102.33845913500097 l 14.505438648852927 1.6253646560536525 a35.59621734083131,35.59621734083131 0 0,0 -0.07325686907230058,0.6066719649472446 l -14.475399693520963 -1.8741302979243057" fill="#ff900d" stroke="none" /><path d="M 120.82617615685814 102.69636545807757 l 10.010561915919576 1.2960676584474096 a31.094114188364067,31.094114188364067 0 0,0 -0.07307928752639077,0.528765320134592 l -9.986838111837976 -1.4677212867820866" fill="#ff4f07" stroke="none" /><path d="M 120.77682067341334 103.0534771498775 l 14.32269048050609 2.1049422716997572 a35.47654118108218,35.47654118108218 0 0,0 -0.09372312232484493,0.6017696777570023 l -14.284445866042978 -2.35050013138821" fill="#ff8f0d" stroke="none" /><path d="M 120.7213421655516 103.40968896794604 l 14.348175966025975 2.360986895088265 a35.54112831491504,35.54112831491504 0 0,0 -0.10422889875266482,0.6011645902533898 l -14.305532249781075 -2.606944518262243" fill="#ff8f0d" stroke="none" /><path d="M 120.65975698304385 103.76489593502545 l 16.95228231330405 3.089270547719626 a38.23146738229131,38.23146738229131 0 0,0 -0.12320310234539736,0.6446506921467549 l -16.896752918676494 -3.379823804899696" fill="#ffb510" stroke="none" /><path d="M 120.592083275326 104.11899336999214 l 27.158955103354977 5.432551651569706 a48.696957590194344,48.696957590194344 0 0,0 -0.17100119659951288,0.818302628858653 l -27.061696195931102 -5.897970731713768" fill="#c1ff1e" stroke="none" /><path d="M 120.51834098615036 104.47187691870673 l 6.75509976201308 1.4722425526360832 a27.91367275249137,27.91367275249137 0 0,0 -0.10605751903250447,0.46730899778275914 l -6.7288313814229115 -1.5879858843578591" fill="#ff1f03" stroke="none" /><path d="M 120.43855184770803 104.8234425847677 l 14.507800480842308 3.42380141078613 a35.90633056430822,35.90633056430822 0 0,0 -0.14672433521175307,0.5986853574661282 l -14.44688861911426 -3.6723425928603577" fill="#ff950d" stroke="none" /><path d="M 120.35273937422433 105.17358676015961 l 14.277970302457735 3.6294042173162087 a35.73204028403865,35.73204028403865 0 0,0 -0.15621796049447056,0.5931850410262968 l -14.213562861158534 -3.8739697627153085" fill="#ff920d" stroke="none" /><path d="M 120.26092885502905 105.52220625578681 l 16.29421109791818 4.441059691875885 a37.88858568650213,37.88858568650213 0 0,0 -0.1764191924565559,0.6260494765589586 l -16.215573413387045 -4.720117092337851" fill="#ffb010" stroke="none" /><path d="M 120.16314734710363 105.8691983318838 l 16.6879690620083 4.857624580883548 a38.38058767658189,38.38058767658189 0 0,0 -0.18957027591611497,0.6310177941339529 l -16.602122466088556 -5.143379978608224" fill="#ffb711" stroke="none" /><path d="M 120.05942366710727 106.21446072829308 l 14.666009599667824 4.543567263468056 a36.35369144717997,36.35369144717997 0 0,0 -0.18979272830274074,0.5945230182185859 l -14.585852155587828 -4.794659315378024" fill="#ff9b0e" stroke="none" /><path d="M 119.94978838288452 106.5578916946017 l 30.436743885696785 10.005162265779864 a53.03901762426691,53.03901762426691 0 0,0 -0.29175141719443315,0.8625112241058401 l -30.260507046929987 -10.526175164359865" fill="#8dff24" stroke="none" /><path d="M 119.83427380445688 106.89939002012753 l 14.984477038372908 5.212378953453248 a36.86516455848874,36.86516455848874 0 0,0 -0.21304524295810687,0.5959254616605661 l -14.892791625370858 -5.468839371494736" fill="#ffa20f" stroke="none" /><path d="M 119.71291397450082 107.23885506374661 l 11.872060758980192 4.359585155873808 a33.647205596345486,33.647205596345486 0 0,0 -0.20375676796391343,0.5404890347845688 l -11.795473307201839 -4.562742470852536" fill="#ff740a" stroke="none" /><path d="M 119.58574465831526 107.57618678355244 l 11.4026009094891 4.410770987556896 a33.22596451024439,33.22596451024439 0 0,0 -0.21033827369144825,0.5301898528324339 l -11.325203960831526 -4.6058618576028945" fill="#ff6e0a" stroke="none" /><path d="M 119.4528033332814 107.91128576633889 l 18.154023922142432 7.383083486548271 a40.597920969711595,40.597920969711595 0 0,0 -0.26808963828806,0.6433175372853454 l -18.024608439317884 -7.693633533274895" fill="#ffd513" stroke="none" /><path d="M 119.31412917781788 108.2440532568976 l 12.573154785523649 5.366732131942012 a34.670626724358875,34.670626724358875 0 0,0 -0.23834589467783507,0.5453820510332855 l -12.479175008828848 -5.581776252751142" fill="#ff830c" stroke="none" /><path d="M 119.16976305983485 108.57439118712176 l 16.18486485720893 7.239284187459569 a38.730118047912676,38.730118047912676 0 0,0 -0.276672351675451,0.6045790198205477 l -16.058208040678423 -7.516052189494806" fill="#ffbc11" stroke="none" /><path d="M 119.0197475246899 108.90220220490707 l 26.80439836821659 12.54581186974172 a50.59515445732636,50.59515445732636 0 0,0 -0.37493597525152356,0.7834719850289326 l -26.585083135005153 -13.004096356835756" fill="#aaff21" stroke="none" /><path d="M 118.8641267826498 109.22738970284198 l 25.996370167222054 12.716127343510019 a49.93978501108113,49.93978501108113 0 0,0 -0.38329994677492785,0.7668566560049963 l -25.774250307235395 -13.16051585567876" fill="#b2ff20" stroke="none" /><path d="M 118.70294669586154 109.54985784667822 l 19.910352472394873 10.166367839282909 a43.35569660329569,43.35569660329569 0 0,0 -0.34414498989236153,0.6599433953364195 l -19.732899413527562 -10.50665747772383" fill="#fffa17" stroke="none" /><path d="M 118.5362547648365 109.86951160357373 l 24.322179754677663 12.950190767143054 a48.5549608768412,48.5549608768412 0 0,0 -0.3980458244854044,0.7323594842175803 l -24.096288580576918 -13.365805084835237" fill="#c3ff1e" stroke="none" /><line stroke="#e1ed5e" stroke-width="0.3" x1="174.33088141563837" x2="178.70328620479359" y1="141.23008692659167" y2="143.65538615756765" /><path d="M 175.20536237346943 141.71514677278685 a86.0,86.0 0 0,1 -30.301960400862466,31.631185727798858" fill="none" id="id149" stroke="none" /><text fill="#e1ed5e" style="font-size:6.75px; font-family:Arial;" text-anchor="middle"><textPath startOffset="22.145653131862474" xlink:href="#id149">May</textPath></text><path d="M 118.36410011445183 110.18625677009912 l 13.544454788992722 7.51288075276303 a36.48856457959565,36.48856457959565 0 0,0 -0.3085310298856631,0.5451447669356708 l -13.413490394085681 -7.744282289797823" fill="#ff9d0e" stroke="none" /><path d="M 118.18653347947321 110.5 l 4.295821032876217 2.480193429721539 a25.96038685944308,25.96038685944308 0 0,0 -0.22613510722828165,0.38402684993016584 l -4.2526122155181705 -2.553571447945254" fill="#ff0100" stroke="none" /><path d="M 118.00360718960297 110.81064883170644 l 21.14702522489361 12.698181044162423 a45.666586259403886,45.666586259403886 0 0,0 -0.40932926133240194,0.6686085860982379 l -20.925927999105806 -13.059326746385219" fill="#e7ff1a" stroke="none" /><path d="M 117.81537515405839 111.11811171558189 l 24.653837351738186 15.385817897411448 a50.06088588701775,50.06088588701775 0 0,0 -0.46123313146062395,0.7251350914429648 l -24.38608652865167 -15.806766663533084" fill="#b0ff20" stroke="none" /><path d="M 117.62189284568427 111.42229804090321 l 9.610492421109662 6.229405076687917 a32.452818525833344,32.452818525833344 0 0,0 -0.30702771091541786,0.46487908653245524 l -9.502140271273518 -6.393464041559434" fill="#ff6309" stroke="none" /><path d="M 117.423217284605 111.72311816256416 l 16.54797176616957 11.134213916794378 a40.945076814063235,40.945076814063235 0 0,0 -0.39738223245672155,0.5797925530662529 l -16.35439979689753 -11.416641204930675" fill="#ffda14" stroke="none" /><path d="M 117.21940702142032 112.02048342749411 l 15.401126529056077 10.751182429044432 a39.78250840507169,39.78250840507169 0 0,0 -0.39571263563925774,0.5566193784776491 l -15.214298794886858 -11.013979034231586" fill="#ffca12" stroke="none" /><path d="M 117.01052211995028 112.31430620078461 l 20.27367825760119 14.676579597018279 a46.02846417102624,46.02846417102624 0 0,0 -0.468828358468602,0.636055709355969 l -20.01874787954876 -15.022441615643125" fill="#e2ff1b" stroke="none" /><path d="M 116.79662413953412 112.60449989151573 l 12.82252802872619 9.62226408142509 a37.031381447029204,37.031381447029204 0 0,0 -0.3859164097867066,0.5051769684939832 l -12.655459641585178 -9.840961963159952" fill="#ffa40f" stroke="none" /><path d="M 116.57777611688842 112.89097897827486 l 15.784740135358659 12.274309402402064 a40.995416786021195,40.995416786021195 0 0,0 -0.4367643297558743,0.5518374626815915 l -15.571709374961223 -12.543466808998339" fill="#ffdb14" stroke="none" /><path d="M 116.35404254752997 113.17365903436017 l 15.246620724462678 12.28159840397484 a40.57797494308674,40.57797494308674 0 0,0 -0.4416297734332259,0.5387165155918243 l -15.033544131790824 -12.541517201265156" fill="#ffd513" stroke="none" /><path d="M 116.1254893667686 113.45245675266167 l 25.476979834549475 21.253802698168283 a54.17831566886279,54.17831566886279 0 0,0 -0.6019093135987319,0.7090476579398647 l -25.108375957443627 -21.688017138557704" fill="#80ff25" stroke="none" /><path d="M 115.89218393027572 113.72728997021213 l 16.088293513518803 13.896684757418601 a42.2591400443245,42.2591400443245 0 0,0 -0.478914656055901,0.5449169654407714 l -15.847367793504317 -14.170814000670665" fill="#ffeb16" stroke="none" /><path d="M 115.6541949942343 113.99807769240083 l 10.954207564713599 9.79531995136273 a35.69499766316393,35.69499766316393 0 0,0 -0.41236611912034743,0.4532626008248826 l -10.784443744751373 -9.981920127745283" fill="#ff920d" stroke="none" /><path d="M 115.41159269507618 114.26474011684316 l 14.603941498644984 13.517190226958688 a40.89948589606356,40.89948589606356 0 0,0 -0.4813366353522963,0.5111628265381652 l -14.369749029556427 -13.76589451344135" fill="#ffd914" stroke="none" /><path d="M 115.16444852881244 114.52719865689866 l 19.99083051357771 19.150763421126364 a48.683660239111106,48.683660239111106 0 0,0 -0.5833072135452384,0.598524587658221 l -19.659136498881665 -19.491110700852325" fill="#c1ff1e" stroke="none" /><path d="M 114.91283532996324 114.78537596483092 l 14.90496623444623 14.7775741261364 a41.98891887409731,41.98891887409731 0 0,0 -0.5118810712750633,0.5075060456729966 l -14.6490932430412 -15.031260182038059" fill="#ffe815" stroke="none" /><path d="M 114.65682725009322 115.03919595460226 l 17.870528151836503 18.33673619138795 a46.60452441616789,46.60452441616789 0 0,0 -0.5777352375566835,0.5534572886795088 l -17.55312042841451 -18.64080561037304" fill="#dbff1b" stroke="none" /><path d="M 114.39649973595853 115.28858382429668 l 26.70750492634939 28.36244471178209 a59.95791433611241,59.95791433611241 0 0,0 -0.7553847194020391,0.6991728190394723 l -26.216690435633385 -28.816735276953942" fill="#41ff2d" stroke="none" /><path d="M 114.13192950727249 115.5334660781643 l 18.168208337807005 19.970043564901374 a47.99789684753275,47.99789684753275 0 0,0 -0.6142244534217137,0.549243293745629 l -17.822718857561913 -20.27898238853039" fill="#caff1d" stroke="none" /><path d="M 113.86319453409587 115.77377054828091 l 19.341673858791268 22.007274349205684 a50.29881349032851,50.29881349032851 0 0,0 -0.653454688749644,0.5644385966218443 l -18.961039690278767 -22.336057078292246" fill="#aeff20" stroke="none" /><path d="M 113.59037401385872 116.0094264158162 l 21.030975215840858 24.774435922625543 a53.497301331242745,53.497301331242745 0 0,0 -0.7052107648363339,0.5883119017164666 l -20.60259011684263 -25.13181000825388" fill="#88ff25" stroke="none" /><path d="M 113.31354834802062 116.24036423190432 l 17.298841394047994 21.10177374847265 a48.28616442280149,48.28616442280149 0 0,0 -0.6455382602000539,0.519999927161372 l -16.934052363492686 -21.395621969427427" fill="#c6ff1e" stroke="none" /><path d="M 113.03279911837588 116.46651593811092 l 15.422378133258176 19.485670962027097 a45.850374647590044,45.850374647590044 0 0,0 -0.621360031402527,0.4831733186811582 l -15.085608157220419 -19.747545332329047" fill="#e4ff1a" stroke="none" /><path d="M 112.7482090630111 116.68781488649013 l 34.58328173455093 45.270625928784895 a77.96870147296053,77.96870147296053 0 0,0 -1.0705734299160428,0.8033782603657541 l -33.80105531572412 -45.857623216414666" fill="#45ffef" stroke="none" /><path d="M 112.45986205192187 116.90419585922612 l 14.492486354004228 19.661841101801098 a45.42580922371813,45.42580922371813 0 0,0 -0.6316761386883362,0.45728481093560835 l -14.152829204941924 -19.907726684109782" fill="#eaff1a" stroke="none" /><path d="M 112.16784306229584 117.11559508785304 l 14.235105096534438 20.023458029326843 a45.56780593707127,45.56780593707127 0 0,0 -0.6414317675923725,0.4477691898809903 l -13.889278237768307 -20.264872035012957" fill="#e8ff1a" stroke="none" /><path d="M 111.8722381534696 117.32195027204791 l 16.629438558163095 24.26284783315225 a50.41469040691101,50.41469040691101 0 0,0 -0.7180581445308324,0.4831415655571508 l -16.21048412553526 -24.544739072766525" fill="#acff20" stroke="none" /><path d="M 111.5731344415666 117.5232005979908 l 15.178255939428004 22.981814036391576 a48.54166352575796,48.54166352575796 0 0,0 -0.6992643166994117,0.4532546818127646 l -14.781505990471583 -23.238982559908237" fill="#c3ff1e" stroke="none" /><path d="M 111.27062007382361 117.71928675628689 l 9.468788970342096 14.88650898542248 a38.642735455079986,38.642735455079986 0 0,0 -0.5627778411358553,0.3512149957379388 l -9.211847000416526 -15.046859778001968" fill="#ffbb11" stroke="none" /><path d="M 110.96478420261333 117.91015095944535 l 15.653196920465513 25.56832078616231 a50.97935292255273,50.97935292255273 0 0,0 -0.7502880038218553,0.4505263887697068 l -15.211976160086222 -25.83326117546794" fill="#a5ff21" stroke="none" /><line stroke="#e1ed5e" stroke-width="0.3" x1="143.1302829299769" x2="145.66735839644613" y1="173.24464959558577" y2="177.55315839532614" /><path d="M 143.63769802327073 174.10635135553383 a86.0,86.0 0 0,1 -40.68552437913181,11.842963189579606" fill="none" id="id150" stroke="none" /><text fill="#e1ed5e" style="font-size:6.75px; font-family:Arial;" text-anchor="middle"><textPath startOffset="21.407464694133747" xlink:href="#id150">June</textPath></text><path d="M 110.65571695917076 118.09573695890943 l 13.52106043915342 22.96171661183814 a47.64694176001447,47.64694176001447 0 0,0 -0.7083682905187351,0.4089766232163883 l -13.124899680774286 -23.190440132330696" fill="#ceff1d" stroke="none" /><path d="M 110.34350942703117 118.27599006163325 l 17.949838296267625 31.715644349218692 a57.44281535979737,57.44281535979737 0 0,0 -0.8623419709929756,0.4783265548228571 l -17.402752137118554 -32.019103819474694" fill="#5cff2a" stroke="none" /><path d="M 110.02825361518725 118.45085714620011 l 9.684599701102606 17.818572650831374 a41.28036002351912,41.28036002351912 0 0,0 -0.6255177260876871,0.33305295671565843 l -9.377293159228365 -17.982196075269602" fill="#ffde14" stroke="none" /><path d="M 109.71004243097381 118.62028667847754 l 13.718990432183203 26.30797307040427 a50.670189509867484,50.670189509867484 0 0,0 -0.774705643915831,0.3955702217796781 l -13.26535756655379 -26.539601243856783" fill="#a9ff21" stroke="none" /><path d="M 109.3889696526874 118.78422872680471 l 17.705757444736438 35.42337550617794 a60.60188605285772,60.60188605285772 0 0,0 -0.9345380796955198,0.4571294050794556 l -17.09505911577885 -35.722098661354615" fill="#3aff2e" stroke="none" /><path d="M 109.06512990194946 118.94263497670748 l 9.664492581697374 20.19507245790501 a43.388465075607954,43.388465075607954 0 0,0 -0.6746106445227613,0.3157518447249858 l -9.316393223303107 -20.358000534200528" fill="#fffa17" stroke="none" /><path d="M 108.73861861582097 119.09545874513695 l 11.101493449977207 24.25876668878199 a47.678285516139255,47.678285516139255 0 0,0 -0.7471564161040055,0.3341935614773767 l -10.683423631017575 -24.445764001169216" fill="#cdff1d" stroke="none" /><path d="M 108.4095320186766 119.2426549942271 l 5.932974348776261 13.575806386080815 a35.81562363370472,35.81562363370472 0 0,0 -0.5654859313254016,0.24137231821080923 l -5.699053342280428 -13.675653353951029" fill="#ff930d" stroke="none" /><path d="M 108.07796709384702 119.3841803445677 l 6.661774472960233 15.985833601260767 a38.31837506972818,38.31837506972818 0 0,0 -0.6093452575698645,0.2478154115068321 l -6.386374754199927 -16.097836269346892" fill="#ffb610" stroke="none" /><path d="M 107.74402155503746 119.51999308798841 l 17.521682083320723 44.166084859857556 a68.51475975817516,68.51475975817516 0 0,0 -1.096979174251934,0.4243351103973113 l -16.76093064657526 -44.46035985839291" fill="#38ff85" stroke="none" /><path d="M 107.407793817531 119.65005319985036 l 10.557354242807897 28.004636418185935 a50.928538045198934,50.928538045198934 0 0,0 -0.820703322137659,0.30137362781447036 l -10.075061769016111 -28.181740895009128" fill="#a6ff21" stroke="none" /><path d="M 107.06938296918513 119.77432235084164 l 7.531036730451315 21.065650084753965 a43.371368481358076,43.371368481358076 0 0,0 -0.7032238393528997,0.2446177554560611 l -7.168307119053393 -21.191826272778616" fill="#fffa17" stroke="none" /><path d="M 106.72888874123015 119.89276391827305 l 9.489215268156547 28.053178817250124 a50.614625578555376,50.614625578555376 0 0,0 -0.8254456382442196,0.2713403767245502 l -9.006246892264594 -28.21194011537669" fill="#aaff21" stroke="none" /><path d="M 106.38641147887787 120.00534299687104 l 14.985329544213183 46.94133136341595 a70.27523406051651,70.27523406051651 0 0,0 -1.1523778631370445,0.35700960772679186 l -14.177311048204514 -47.19165755894939" fill="#3bff9a" stroke="none" /><path d="M 106.0420521117495 120.11202640906438 l 9.583943158427427 31.901829765823063 a54.3103393689035,54.3103393689035 0 0,0 -0.8951895331763329,0.26057662647558183 l -9.034893612869489 -32.06165008660116" fill="#7fff26" stroke="none" /><path d="M 105.69591212413111 120.21278271476187 l 13.472928778290644 47.810671230921265 a70.67272987682612,70.67272987682612 0 0,0 -1.1705376141846848,0.3190352318956021 l -12.650209763171263 -48.03490695696101" fill="#3bff9e" stroke="none" /><path d="M 105.3480935250658 120.30758222061773 l 6.268563239401183 23.80275565351393 a45.6143466658626,45.6143466658626 0 0,0 -0.7589243465730542,0.19291560114829578 l -5.859033599602731 -23.906856486497496" fill="#e7ff1a" stroke="none" /><path d="M 104.9986988182912 120.39639698878246 l 3.5492201027730457 14.482029193643873 a35.91060471287069,35.91060471287069 0 0,0 -0.5999941206430232,0.14159697877246358 l -3.3000938283901435 -14.540822316062561" fill="#ff950d" stroke="none" /><path d="M 104.64783097203109 120.47920084513623 l 7.60796864307212 33.52211360579801 a55.37460236095826,55.37460236095826 0 0,0 -0.9288102912523919,0.20242987998456666 l -7.0313959352005915 -33.647774943916296" fill="#73ff27" stroke="none" /><path d="M 104.29559338865022 120.5559693870025 l 6.475155804712921 30.985964558338882 a52.655294064436376,52.655294064436376 0 0,0 -0.886372928913291,0.17729941010432118 l -5.942286390268672 -31.092553365106063" fill="#92ff23" stroke="none" /><path d="M 103.94208987418118 120.62667999033965 l 2.757364949157015 14.42769856551144 a35.68882389301814,35.68882389301814 0 0,0 -0.6027422016793655,0.1098397075451306 l -2.5092880139265925 -14.472906446987935" fill="#ff920d" stroke="none" /><path d="M 103.58742460773223 120.69131181640829 l 8.195466080790508 47.26927049363964 a68.97446818133848,68.97446818133848 0 0,0 -1.168370002240578,0.19225483925175144 l -7.382818575496858 -47.40299133138706" fill="#39ff8b" stroke="none" /><path d="M 103.2317021107853 120.74984581791261 l 4.5985578000912035 29.526039859368403 a50.881997316407606,50.881997316407606 0 0,0 -0.8642062390142721,0.12700855655882057 l -4.091026455469247 -29.600629489226105" fill="#a7ff21" stroke="none" /><path d="M 102.875027216393 120.80226474461374 l 4.7540741620404825 34.39811239712998 a55.7250825430807,55.7250825430807 0 0,0 -0.948712042196121,0.12282976773906934 l -4.162884297953586 -34.47465376106945" fill="#6fff28" stroke="none" /><path d="M 102.51750503828377 120.84855314841334 l 4.718315085847942 39.07441746584234 a60.358259584797004,60.358259584797004 0 0,0 -1.0297236881472482,0.1153826870549768 l -4.046855496099894 -39.14965591340429" fill="#3dff2e" stroke="none" /><path d="M 102.15924093988457 120.88869738790638 l 3.5440992797303235 34.28594558370195 a55.46863362933257,55.46863362933257 0 0,0 -0.9479865156192422,0.0897753086470069 l -2.955013200726066 -34.341732647854144" fill="#72ff27" stroke="none" /><path d="M 101.80034050326958 120.92268563240118 l 1.2704358213758082 14.764389990956746 a35.818947971475524,35.818947971475524 0 0,0 -0.6130685940705226,0.04745538649783059 l -1.0167982325300498 -14.784023144449629" fill="#ff930d" stroke="none" /><path d="M 101.44090949804482 120.95050786540614 l 1.6646307431354186 24.20336566895941 a45.26054214596934,45.26054214596934 0 0,0 -0.7755838912749363,0.04665720095440087 l -1.2489024997280171 -24.228374847738504" fill="#ecff1a" stroke="none" /><path d="M 101.08105385017728 120.97215588758144 l 2.0916335962950026 40.57713298371567 a61.63100604562107,61.63100604562107 0 0,0 -1.0570428917089163,0.04539396994561165 l -1.3947649439852567 -40.60705952208711" fill="#2fff2f" stroke="none" /><path d="M 100.72087961077811 120.9876233191556 l 1.363660035935279 39.701474062643676 a60.72488655037766,60.72488655037766 0 0,0 -1.0421162198724128,0.026841217183192864 l -0.6819305019921227 -39.71903299717692" fill="#39ff2e" stroke="none" /><line stroke="#e1ed5e" stroke-width="0.3" x1="101.45913802915013" x2="101.54496967792366" y1="184.9874750549273" y2="189.98673829345242" /><path d="M 101.47630435890484 185.9873277026323 a86.0,86.0 0 0,1 -42.54439059252881,-10.42667462771756" fill="none" id="id151" stroke="none" /><text fill="#e1ed5e" style="font-size:6.75px; font-family:Arial;" text-anchor="middle"><textPath startOffset="22.145653131862474" xlink:href="#id151">July</textPath></text><path d="M 100.36049292484886 120.99690560180557 l 0.50379278920724 29.34340429091601 a50.347728746098994,50.347728746098994 0 0,0 -0.8642857140560887,0.0074188533774203515 l -3.59406020711549e-15 -29.347728746098994" fill="#adff20" stroke="none" /><path d="M 100.0 121.0 l 1.7938604305754352e-15 14.64798202897677 a35.64798202897677,35.64798202897677 0 0,0 -0.6119450145992931,-0.005252811963129231 l 0.25145208975043915 -14.645823615208077" fill="#ff910d" stroke="none" /><path d="M 99.63950707515114 120.99690560180557 l -0.6042301431731714 35.19337663365247 a56.198563222723095,56.198563222723095 0 0,0 -0.9644387597058548,-0.02484052135021643 l 1.20828221694977 -35.177818394952205" fill="#69ff28" stroke="none" /><path d="M 99.27912038922189 120.98762331915562 l -0.9248330365174042 26.925504776847937 a47.941383105429,47.941383105429 0 0,0 -0.8222500569400805,-0.03531095536925525 l 1.3869088540583234 -26.905661253052852" fill="#caff1d" stroke="none" /><path d="M 98.91894614982273 120.97215588758144 l -1.5367478169795903 29.81249710392472 a50.85207827647032,50.85207827647032 0 0,0 -0.87140036064718,-0.05242128181854956 l 2.0482925297592165 -29.78172384428148" fill="#a7ff21" stroke="none" /><path d="M 98.55909050195518 120.95050786540614 l -2.1464074982936348 31.208293953496252 a52.282018423314085,52.282018423314085 0 0,0 -0.8948465922414955,-0.06926678564487344 l 2.6818230853103664 -31.166849400856325" fill="#96ff23" stroke="none" /><path d="M 98.19965949673042 120.92268563240118 l -4.144957687053172 48.17069131551511 a69.34869363325242,69.34869363325242 0 0,0 -1.1852036392215766,-0.11224001688586162 l 4.9712608896597645 -48.09243954312406" fill="#3aff8f" stroke="none" /><path d="M 97.84075906011543 120.88869738790638 l -3.0465190694733444 29.472308417844655 a50.629347645826115,50.629347645826115 0 0,0 -0.86374655175579,-0.0967846027271369 l 3.5520015228299333 -29.415668054610546" fill="#aaff21" stroke="none" /><path d="M 97.48249496171623 120.84855314841334 l -2.323973427823656 19.245833787292877 a40.38563825777564,40.38563825777564 0 0,0 -0.6875600644881155,-0.0890184157800292 l 2.6540113142025654 -19.20310377531245" fill="#ffd213" stroke="none" /><path d="M 97.12497278360702 120.80226474461374 l -4.715323776365184 34.117733909866736 a55.4420389271661,55.4420389271661 0 0,0 -0.9416563513924567,-0.1383910559373156 l 5.300305233365326 -34.03176178063053" fill="#72ff27" stroke="none" /><path d="M 96.76829788921471 120.74984581791261 l -5.942343475535012 38.154107862518444 a59.614082829531576,59.614082829531576 0 0,0 -1.0098128760629745,-0.16616432447729296 l 6.596433854651051 -38.04647753954548" fill="#44ff2d" stroke="none" /><path d="M 96.41257539226777 120.69131181640829 l -6.044844808201426 34.86505849870905 a56.38520104328423,56.38520104328423 0 0,0 -0.9522796357996958,-0.1735370717464052 l 6.642459177552179 -34.75615325303127" fill="#67ff28" stroke="none" /><path d="M 96.05791012581884 120.62667999033965 l -4.6901948703556275 24.541081449405837 a45.985247780005736,45.985247780005736 0 0,0 -0.7740927001886541,-0.1548402197681912 l 5.110784056075239 -24.456951832974784" fill="#e3ff1b" stroke="none" /><path d="M 95.70440661134978 120.55596938700252 l -7.067241657895301 33.819309703308214 a55.54984245201948,55.54984245201948 0 0,0 -0.9317496315470022,-0.203070495521104 l 7.64675370606144 -33.69300774965339" fill="#71ff27" stroke="none" /><path d="M 95.35216902796893 120.47920084513623 l -10.530302264460493 46.39845474837493 a68.57839708121637,68.57839708121637 0 0,0 -1.1458073563741498,-0.27040741623261966 l 11.32524177457453 -46.210851188496086" fill="#39ff86" stroke="none" /><path d="M 95.00130118170881 120.39639698878247 l -10.453451940113094 42.65365116488294 a64.91592666857633,64.91592666857633 0 0,0 -1.080061007779526,-0.27454728463184164 l 11.184118241117998 -42.46791864841584" fill="#34ff59" stroke="none" /><path d="M 94.6519064749342 120.30758222061772 l -12.315918642320323 46.765549121222776 a69.36009136275234,69.36009136275234 0 0,0 -1.1487966575635273,-0.31310963749075815 l 13.116896700818545 -46.547238989587875" fill="#3aff8f" stroke="none" /><path d="M 94.30408787586889 120.21278271476187 l -7.96125853120161 28.25169794061208 a50.35200289466147,50.35200289466147 0 0,0 -0.8299448408818771,-0.24158484743500538 l 8.445063384465094 -28.11086939887456" fill="#adff20" stroke="none" /><path d="M 93.95794788825049 120.11202640906438 l -9.869243814460232 32.851502860746685 a55.30194183539628,55.30194183539628 0 0,0 -0.9068448424479423,-0.2809428502818239 l 10.431729289779806 -32.677243422658215" fill="#73ff27" stroke="none" /><path d="M 93.61358852112213 120.00534299687104 l -4.5150385725552935 14.143294021503012 a35.846492484433654,35.846492484433654 0 0,0 -0.5846004100475988,-0.19216976642223332 l 4.757161720250636 -14.063703333678756" fill="#ff940d" stroke="none" /><path d="M 93.27111125876986 119.89276391827306 l -13.47274093870612 39.82976463610507 a63.04669903058995,63.04669903058995 0 0,0 -1.022239862453838,-0.3555880883123525 l 14.15448657320498 -39.59261811522413" fill="#31ff42" stroke="none" /><path d="M 92.93061703081489 119.77432235084164 l -13.518999893867642 37.81504877124346 a61.15895008216618,61.15895008216618 0 0,0 -0.9855643895832978,-0.361912895344233 l 14.166153435105059 -37.57740502689051" fill="#34ff2f" stroke="none" /><path d="M 92.59220618246901 119.65005319985036 l -12.000404852892737 31.832499606162035 a55.019373124877504,55.019373124877504 0 0,0 -0.8809066354667591,-0.3407536106284025 l 12.545083750853024 -31.621806107395592" fill="#77ff27" stroke="none" /><path d="M 92.25597844496254 119.51999308798841 l -11.796413663535594 29.73466841985732 a52.98915255770477,52.98915255770477 0 0,0 -0.8426424334259356,-0.3426953419238261 l 12.30511055815197 -29.527785821354207" fill="#8eff24" stroke="none" /><path d="M 91.92203290615298 119.3841803445677 l -15.134085782005377 36.316296506333074 a60.34353751752627,60.34353751752627 0 0,0 -0.9527524038547078,-0.40667334704565766 l 15.755273261030515 -36.051148509628014" fill="#3dff2e" stroke="none" /><path d="M 91.59046798132341 119.24265499422711 l -12.860387998438851 29.42708450318758 a53.11452758220386,53.11452758220386 0 0,0 -0.8323466257599038,-0.3722980586807362 l 13.363648027054388 -29.20198269359699" fill="#8cff24" stroke="none" /><path d="M 91.26138138417905 119.09545874513695 l -2.4534506049107585 5.3612323490677225 a26.89595048922794,26.89595048922794 0 0,0 -0.4181824469469783,-0.19573050044077872 l 2.5451217657292267 -5.318325617056417" fill="#ff0f01" stroke="none" /><path d="M 90.93487009805054 118.94263497670748 l -22.944841603502056 47.94589418956283 a74.1533115228633,74.1533115228633 0 0,0 -1.1435138057121985,-0.559349904581395 l 23.764515658476324 -47.54495053488421" fill="#40ffc6" stroke="none" /><path d="M 90.6110303473126 118.78422872680471 l -13.408466136242271 26.82591424786407 a50.99027574665682,50.99027574665682 0 0,0 -0.779599499979507,-0.3980690595558961 l 13.86699285793536 -26.591787236635337" fill="#a5ff21" stroke="none" /><path d="M 90.28995756902619 118.62028667847754 l -13.734361603997229 26.337449319122626 a50.70343288757557,50.70343288757557 0 0,0 -0.768304734421048,-0.40907899614294435 l 14.184455154204839 -26.097799855257108" fill="#a9ff21" stroke="none" /><path d="M 89.97174638481275 118.45085714620012 l -16.23866797016089 29.87732006580484 a55.005125963002605,55.005125963002605 0 0,0 -0.825746935287725,-0.4580279053991763 l 16.749159093604717 -29.594159244972516" fill="#77ff27" stroke="none" /><line stroke="#e1ed5e" stroke-width="0.3" x1="58.13341422392154" x2="55.67067388415222" y1="173.97424548756322" y2="178.32567169271397" /><path d="M 57.64086615596768 174.84453072859336 a86.0,86.0 0 0,1 -31.369924170532247,-30.572349798747897" fill="none" id="id152" stroke="none" /><text fill="#e1ed5e" style="font-size:6.75px; font-family:Arial;" text-anchor="middle"><textPath startOffset="22.145653131862474" xlink:href="#id152">August</textPath></text><path d="M 89.65649057296885 118.27599006163327 l -15.825199839656076 27.961611775311027 a53.12924964947459,53.12924964947459 0 0,0 -0.7898739008329135,-0.45603390927174586 l 16.30286620834939 -27.68583096876311" fill="#8cff24" stroke="none" /><path d="M 89.34428304082925 118.09573695890944 l -17.72389086366373 30.09904149915002 a55.92976676868338,55.92976676868338 0 0,0 -0.8231456591229991,-0.49427531740757447 l 18.237969279344156 -29.790352181206526" fill="#6cff28" stroke="none" /><path d="M 89.03521579738668 117.91015095944536 l -7.8331694951051904 12.794893684712841 a36.002261454265856,36.002261454265856 0 0,0 -0.5243229998764737,-0.32721633068431977 l 8.051656623771377 -12.658541557186973" fill="#ff960d" stroke="none" /><path d="M 88.72937992617639 117.7192867562869 l -15.447252337457682 24.28564639489946 a49.78211641966561,49.78211641966561 0 0,0 -0.7171335939810991,-0.4648373314562712 l 15.861871563695791 -24.016895221739293" fill="#b4ff20" stroke="none" /><path d="M 88.4268655584334 117.5232005979908 l -26.826417108517617 40.61861466238124 a69.67780307256254,69.67780307256254 0 0,0 -0.9924233112499676,-0.6677466942541398 l 27.51973670786459 -40.15211829406998" fill="#3aff93" stroke="none" /><path d="M 88.1277618465304 117.32195027204791 l -21.31155259180651 31.094192134911143 a58.696565604788255,58.696565604788255 0 0,0 -0.8262377582865014,-0.5767781241420195 l 21.842185441266775 -30.723769194963996" fill="#4eff2b" stroke="none" /><path d="M 87.83215693770417 117.11559508785305 l -22.611010996816866 31.805218621507322 a60.023451280736936,60.023451280736936 0 0,0 -0.8346660760413811,-0.6042338714416275 l 23.153658083232198 -31.412383978692628" fill="#40ff2d" stroke="none" /><path d="M 87.54013794807813 116.9041958592261 l -37.253069592995644 50.54094356207145 a83.78676747727238,83.78676747727238 0 0,0 -1.150460189090481,-0.8633267737683809 l 38.115182770996896 -49.89399776103905" fill="#4dd4ff" stroke="none" /><path d="M 87.2517909369889 116.68781488649013 l -23.78404241333399 31.134074997072528 a60.17922025056914,60.17922025056914 0 0,0 -0.8155432201389647,-0.6341713407491246 l 24.314995578108185 -30.721202604702608" fill="#3eff2d" stroke="none" /><path d="M 86.96720088162412 116.46651593811092 l -18.458694748558614 23.321957816821044 a50.74285003542945,50.74285003542945 0 0,0 -0.678381717020252,-0.5464562911094032 l 18.856327235934128 -23.00165323191823" fill="#a8ff21" stroke="none" /><path d="M 86.68645165197938 116.24036423190432 l -32.43592977345409 39.56656031520566 a72.16250810354447,72.16250810354447 0 0,0 -0.9512587787767386,-0.7935739059464061 l 33.11036288639272 -39.00392422534739" fill="#3dffb0" stroke="none" /><path d="M 86.40962598614128 116.0094264158162 l -22.78219906508403 26.837373213644277 a56.203312276681395,56.203312276681395 0 0,0 -0.7301627092559291,-0.6306971577579751 l 23.23954125410282 -26.44233192342158" fill="#69ff28" stroke="none" /><path d="M 86.13680546590413 115.77377054828092 l -23.069618940239806 26.248991522454393 a55.9459135521416,55.9459135521416 0 0,0 -0.7159344560846087,-0.6401930053017851 l 23.516818423147786 -25.849102987269227" fill="#6cff28" stroke="none" /><path d="M 85.86807049272751 115.53346607816431 l -10.00563363718028 10.997944096288984 a35.86833813264183,35.86833813264183 0 0,0 -0.4518902105876666,-0.41826283259082525 l 10.192953619081914 -10.824563517565782" fill="#ff940d" stroke="none" /><path d="M 85.60350026404147 115.28858382429668 l -27.465758055863947 29.167683258875837 a61.0639690030002,61.0639690030002 0 0,0 -0.7569824406546922,-0.7251720545116269 l 27.962412982383956 -28.691899074058625" fill="#35ff2f" stroke="none" /><path d="M 85.34317274990678 115.03919595460226 l -16.952391028947005 17.394646619837467 a45.28903646971913,45.28903646971913 0 0,0 -0.552112345989376,-0.5473934654046657 l 17.24849529506634 -17.10107314420414" fill="#ebff1a" stroke="none" /><path d="M 85.08716467003676 114.78537596483092 l -21.738938444031216 21.553136667815018 a51.61240181519396,51.61240181519396 0 0,0 -0.6183981676671771,-0.6345309979316669 l 22.105723412849205 -21.176782977815613" fill="#9eff22" stroke="none" /><path d="M 84.83555147118756 114.52719865689866 l -42.70492428532226 40.91035144086945 a80.13854422650726,80.13854422650726 0 0,0 -0.9431320808785979,-1.001573586660143 l 43.4009121999371 -40.17123639426482" fill="#48f8ff" stroke="none" /><path d="M 84.58840730492382 114.26474011684316 l -21.661943963660015 20.049971938718034 a50.51679506701443,50.51679506701443 0 0,0 -0.5835947918741563,-0.6414729070298189 l 22.00293645637605 -19.675161456130542" fill="#abff21" stroke="none" /><path d="M 84.3458050057657 113.99807769240083 l -18.149510824022773 16.229404494278644 a45.3474498334062,45.3474498334062 0 0,0 -0.5139138732401639,-0.584739649878781 l 18.42543576122153 -15.915452566588563" fill="#ebff1a" stroke="none" /><path d="M 84.1078160697243 113.72728997021213 l -24.281049884214088 20.973392581167396 a53.08508344766241,53.08508344766241 0 0,0 -0.5897637411913454,-0.6947402041835697 l 24.637508188912545 -20.553485594534273" fill="#8dff24" stroke="none" /><path d="M 83.8745106332314 113.45245675266167 l -26.478365212012122 22.089193995552744 a55.48240588581164,55.48240588581164 0 0,0 -0.6038419210236006,-0.7365889603258221 l 26.853653952274353 -21.631402753528427" fill="#71ff27" stroke="none" /><path d="M 83.64595745247003 113.17365903436017 l -27.698366668700615 22.31184352380565 a56.56708980988708,56.56708980988708 0 0,0 -0.6026646148278754,-0.7614470533353419 l 28.07729771417005 -21.833076526555626" fill="#65ff29" stroke="none" /><path d="M 83.4222238831116 112.89097897827486 l -13.707050846213736 10.65868564437166 a38.36349108233201,38.36349108233201 0 0,0 -0.39979876976926165,-0.5233494233408805 l 13.888001593337293 -10.42181530778991" fill="#ffb711" stroke="none" /><path d="M 83.20337586046588 112.60449989151573 l -22.304672981805318 16.737842428571295 a48.88644484313046,48.88644484313046 0 0,0 -0.49793865817486066,-0.6755494217024464 l 22.58871365956401 -16.352486697599968" fill="#bfff1e" stroke="none" /><path d="M 82.98947788004972 112.3143062007846 l -23.048027762246555 16.684994686648572 a49.45348188575133,49.45348188575133 0 0,0 -0.4919088424312163,-0.6919313903115601 l 23.331051703207734 -16.28688606962751" fill="#b8ff1f" stroke="none" /><path d="M 82.78059297857968 112.02048342749411 l -37.78747196274447 26.37859015296115 a67.08386980053973,67.08386980053973 0 0,0 -0.6510657694997368,-0.9499244150363667 l 38.23472746905953 -25.72603100285473" fill="#37ff74" stroke="none" /><path d="M 82.576782715395 111.72311816256416 l -27.120265171328427 18.247724746248803 a53.68773839497053,53.68773839497053 0 0,0 -0.5079257880332387,-0.7690643807464619 l 27.42951539828239 -17.77948048716328" fill="#86ff25" stroke="none" /><path d="M 82.37810715431573 111.42229804090323 l -19.68764127882239 12.761291217598833 a44.461751270183484,44.461751270183484 0 0,0 -0.40964582238622005,-0.6440312731537144 l 19.9038047928345 -12.421446269766445" fill="#f6ff19" stroke="none" /><path d="M 81.99639281039703 110.81064883170644 l -15.724283042175895 9.441980171478573 a39.34132129234573,39.34132129234573 0 0,0 -0.342693425838166,-0.58196835701214 l 15.88405017814383 -9.170660646172875" fill="#ffc412" stroke="none" /><line stroke="#e1ed5e" stroke-width="0.3" x1="26.387840678322732" x2="22.057713659400548" y1="142.50000000000003" y2="145.00000000000006" /><path d="M 25.521815274538298 143.00000000000003 a86.0,86.0 0 0,1 -11.493303480769221,-40.785679425670985" fill="none" id="id153" stroke="none" /><text fill="#e1ed5e" style="font-size:6.75px; font-family:Arial;" text-anchor="middle"><textPath startOffset="21.40746469413373" xlink:href="#id153">September</textPath></text><path d="M 81.81346652052679 110.50000000000001 l -29.189373896150382 16.852492876419078 a54.70498575283813,54.70498575283813 0 0,0 -0.46256096365166227,-0.8173009010369987 l 29.474368224823422 -16.34893520528296" fill="#7aff26" stroke="none" /><path d="M 81.63589988554817 110.18625677009913 l -33.01144191826339 18.310890358630687 a58.7497550091212,58.7497550091212 0 0,0 -0.48162112065620466,-0.8861286158900625 l 33.32090838853492 -17.741506909266036" fill="#4eff2c" stroke="none" /><path d="M 81.4637452351635 109.86951160357371 l -33.06729908944871 17.606474242103207 a58.46243724464412,58.46243724464412 0 0,0 -0.46405793127336076,-0.8898922715484633 l 33.36466508969702 -17.036235727450244" fill="#51ff2b" stroke="none" /><path d="M 81.29705330413844 109.54985784667822 l -29.967884686378774 15.30181545049734 a54.64847201073437,54.64847201073437 0 0,0 -0.41944026007314894,-0.8391614920375534 l 30.22614485966366 -14.785122102296034" fill="#7bff26" stroke="none" /><path d="M 81.1358732173502 109.22738970284198 l -42.58015850751203 20.828089244977235 a68.40125736857183,68.40125736857183 0 0,0 -0.5068883061034375,-1.0592016066327 l 42.93142607157538 -20.094075136279432" fill="#38ff84" stroke="none" /><path d="M 80.9802524753101 108.90220220490708 l -29.3515861331734 13.738024358791609 a53.4075442114309,53.4075442114309 0 0,0 -0.38152196788833614,-0.8336943535887222 l 29.583092565916793 -13.232141022988198" fill="#89ff24" stroke="none" /><path d="M 80.83023694016515 108.57439118712176 l -21.836605446040366 9.767235865605782 a44.921459693346804,44.921459693346804 0 0,0 -0.3088160357171296,-0.7066315246546567 l 22.001055363774466 -9.390942271175275" fill="#f0ff19" stroke="none" /><path d="M 80.68587082218212 108.24405325689762 l -12.862740056933436 5.490338864502206 a34.985489001794086,34.985489001794086 0 0,0 -0.2310277686096128,-0.5543825419569843 l 12.955093670079535 -5.26872381310394" fill="#ff880c" stroke="none" /><path d="M 80.5471966667186 107.91128576633889 l -29.50254344426683 11.998427579951873 a52.84905546593496,52.84905546593496 0 0,0 -0.33456302192524656,-0.8433173679932701 l 29.704165141158203 -11.490209194745036" fill="#8fff24" stroke="none" /><path d="M 80.41425534168474 107.57618678355246 l -31.0103440598221 11.995467260403261 a54.24955147823727,54.24955147823727 0 0,0 -0.3285180173743328,-0.8714330713738118 l 31.21169276101087 -11.461365908835305" fill="#7fff26" stroke="none" /><path d="M 80.28708602549918 107.23885506374661 l -43.8630093574248 16.107104602032816 a67.7268917064934,67.7268917064934 0 0,0 -0.3913963838548719,-1.0948053451109234 l 44.13304591132361 -15.351764300540973" fill="#37ff7c" stroke="none" /><path d="M 80.16572619554312 106.89939002012753 l -26.826013058160523 9.331479871559207 a49.40266700839753,49.40266700839753 0 0,0 -0.27174896441313134,-0.803377526660873 l 26.98224744414602 -8.869600670424171" fill="#b8ff1f" stroke="none" /><path d="M 80.05021161711548 106.5578916946017 l -36.00715887378967 11.836268314866551 a58.902674546578424,58.902674546578424 0 0,0 -0.3075148316854277,-0.9632858303663283 l 36.20503842125235 -11.216413450808831" fill="#4cff2c" stroke="none" /><path d="M 79.94057633289273 106.21446072829308 l -37.29058623974926 11.552718939874065 a60.03912315879932,60.03912315879932 0 0,0 -0.2965466094183794,-0.9871072161961307 l 37.48340916917127 -10.910874120087211" fill="#40ff2d" stroke="none" /><path d="M 79.83685265289637 105.86919833188381 l -46.005682019297915 13.391583541823744 a68.91510500685975,68.91510500685975 0 0,0 -0.32088680411474996,-1.1387140647987295 l 46.22878731548724 -12.59986155312202" fill="#39ff8a" stroke="none" /><path d="M 79.73907114497094 105.5222062557868 l -40.31078409461351 10.9868834590815 a62.78122691432103,62.78122691432103 0 0,0 -0.2744750970818909,-1.0422266505584392 l 40.493448672500136 -10.293276304150258" fill="#31ff3e" stroke="none" /><path d="M 79.64726062577567 105.17358676015961 l -37.98360785307775 9.655284582509266 a60.19156779086071,60.19156779086071 0 0,0 -0.24596130071409308,-1.0036060414131711 l 38.14375668030814 -9.001822716487995" fill="#3eff2d" stroke="none" /><path d="M 79.56144815229197 104.8234425847677 l -41.251646652054774 9.735276287474546 a63.38483167242081,63.38483167242081 0 0,0 -0.24082957664070453,-1.061139550717968 l 41.41268709025315 -9.025702402817553" fill="#32ff46" stroke="none" /><path d="M 79.48165901384964 104.47187691870673 l -61.555022958451104 13.41563075612019 a84.0,84.0 0 0,0 -0.29496915670253276,-1.4115341948583637 l 61.776249825978 -12.35698010997642" fill="#4dd2ff" stroke="none" /><path d="M 79.407916724674 104.11899336999214 l -9.296846413528206 1.8596296560747878 a30.48101132234769,30.48101132234769 0 0,0 -0.09822681196061064,-0.5139641868778007 l 9.327399517770973 -1.6997629041636726" fill="#ff4606" stroke="none" /><path d="M 79.34024301695615 103.76489593502545 l -23.29887593429187 4.245831321620618 a44.68258227924437,44.68258227924437 0 0,0 -0.13103738021835815,-0.755788787270784 l 23.368328132002464 -3.8452495014292416" fill="#f3ff19" stroke="none" /><path d="M 79.2786578344484 103.40968896794605 l -43.36364700166929 7.135471612321713 a64.94679551930528,64.94679551930528 0 0,0 -0.17157863361010045,-1.1016579099837187 l 43.47974712741766 -6.390025520406545" fill="#34ff5a" stroke="none" /><path d="M 79.22317932658666 103.0534771498775 l -46.66679595887364 6.858411946576524 a68.16807881921935,68.16807881921935 0 0,0 -0.16021278502975939,-1.1592199025657777 l 46.777653260458614 -6.056303735810661" fill="#38ff81" stroke="none" /><line stroke="#e1ed5e" stroke-width="0.3" x1="15.003131293944662" x2="10.003315487706104" y1="100.72959589197737" y2="100.7725132973878" /><path d="M 14.003168132696942 100.73817937305945 a86.0,86.0 0 0,1 10.791469493833604,-42.45332614584628" fill="none" id="id154" stroke="none" /><text fill="#e1ed5e" style="font-size:6.75px; font-family:Arial;" text-anchor="middle"><textPath startOffset="22.145653131862435" xlink:href="#id154">October</textPath></text><line stroke="#e1ed5e" stroke-width="0.3" x1="26.387840678322718" x2="22.05771365940052" y1="57.49999999999999" y2="54.99999999999999" /><path d="M 25.521815274538284 56.99999999999999 a86.0,86.0 0 0,1 29.574782752854787,-30.34633250058573" fill="none" id="id155" stroke="none" /><text fill="#e1ed5e" style="font-size:6.75px; font-family:Arial;" text-anchor="middle"><textPath startOffset="21.40746469413373" xlink:href="#id155">November</textPath></text><line stroke="#e1ed5e" stroke-width="0.3" x1="56.869717070023135" x2="54.33264160355391" y1="26.7553504044142" y2="22.446841604673864" /><path d="M 56.362301976729285 25.89364864446614 a86.0,86.0 0 0,1 42.16139366436587,-11.88097634709845" fill="none" id="id156" stroke="none" /><text fill="#e1ed5e" style="font-size:6.75px; font-family:Arial;" text-anchor="middle"><textPath startOffset="22.145653131862474" xlink:href="#id156">December</textPath></text></svg>