<?xml version="1.0" encoding="utf-8" ?>
<svg baseProfile="full" height="200mm" version="1.1" viewBox="0,0,200,200" width="200mm" xmlns="http://www.w3.org/2000/svg" xmlns:ev="http://www.w3.org/2001/xml-events" xmlns:xlink="http://www.w3.org/1999/xlink"><defs /><rect fill="#1a1a1a" height="200" width="200" x="0" y="0" /><text alignment-baseline="middle" fill="#e1ed5e" style="dominant-baseline: central; font-size:9.0px; font-family:Arial;" text-anchor="middle" x="100.0" y="100.0">2022</text><line stroke="#e1ed5e" stroke-width="0.3" x1="100.0" x2="100.0" y1="15.0" y2="10.0" /><path d="M 100.0 14.0 a86.0,86.0 0 0,1 42.46469731375804,11.215312516191453" fill="none" id="id121" stroke="none" /><text fill="#e1ed5e" style="font-size:6.75px; font-family:Arial;" text-anchor="middle"><textPath startOffset="22.20632615414155" xlink:href="#id121">January</textPath></text><path d="M 100.0 79.0 l 0.0 -12.97855998553009 a33.97855998553009,33.97855998553009 0 0,0 0.5848850546933224,0.005034290320547271 l -0.2234045754207941 12.976637071818102" fill="#ff820c" stroke="none" /><path d="M 100.36148047927253 79.00311137660856 l 0.30523295475948825 -17.729705261461174 a38.73233249786827,38.73233249786827 0 0,0 0.6665158724526584,0.017214138572087766 l -0.6103754624070145 17.721824330746724" fill="#ffc312" stroke="none" /><path d="M 100.72285384407766 79.0124445844662 l 0.4401169622212335 -12.778487946924647 a33.78606495956177,33.78606495956177 0 0,0 0.5810546236969192,0.02502143437725834 l -0.6600124183074841 12.769018786023194" fill="#ff7f0b" stroke="none" /><path d="M 101.08401301168833 79.027996857942 l 0.6689405893489471 -12.94174884471757 a33.959025606573476,33.959025606573476 0 0,0 0.5835097725371013,0.03519890297550669 l -0.8916124107256603 12.92831667236176" fill="#ff820b" stroke="none" /><path d="M 101.44485096284872 79.0497635885617 l 0.902280511359598 -13.083003374373812 a34.114079739541616,34.114079739541616 0 0,0 0.5854785247145804,0.04544440173311863 l -1.1273492254365194 13.065533710452229" fill="#ff840c" stroke="none" /><path d="M 101.80526077348638 79.07773832637324 l 1.1158392361375928 -12.932137465704875 a33.980187850443144,33.980187850443144 0 0,0 0.5823150373394217,0.05529782938385006 l -1.3382794005672587 12.911014091805846" fill="#ff820c" stroke="none" /><path d="M 102.16513564639614 79.11191278185805 l 2.152995535410163 -20.770965827833248 a41.88225110462262,41.88225110462262 0 0,0 0.7164523394641444,0.08050176820680797 l -2.510214578384033 20.730828106155837" fill="#ffed16" stroke="none" /><path d="M 102.52436894288641 79.15227682838746 l 1.5702049680852879 -12.967675976833563 a34.06239502855223,34.06239502855223 0 0,0 0.5814698537849304,0.07549147531782831 l -1.7931895503780646 12.9387261783516" fill="#ff830c" stroke="none" /><path d="M 102.88285421437855 79.19881850522331 l 2.3907517970317635 -17.250425564700752 a38.41530580605152,38.41530580605152 0 0,0 0.6542145229791992,0.09641421469628904 l -2.6873353004396185 17.206716865843493" fill="#ffbf11" stroke="none" /><path d="M 103.2404852339499 79.25152402106235 l 1.9665343615373232 -12.591506523354031 a33.744147438050696,33.744147438050696 0 0,0 0.5731215168998278,0.09456996098312255 l -2.182985084576026 12.555790299431283" fill="#ff7f0b" stroke="none" /><path d="M 103.59715602781102 79.31037775812273 l 1.093270160670791 -6.2881194081424505 a27.38245135784605,27.38245135784605 0 0,0 0.4636825380482168,0.08473502004411627 l -1.2013478198219087 6.268368906747596" fill="#ff2103" stroke="none" /><path d="M 103.95276090670814 79.375362276772 l 3.0284566764432297 -15.80182138164039 a37.08940983437121,37.08940983437121 0 0,0 0.6259872713495952,0.12556715765023224 l -3.3000103572599504 15.747350267912951" fill="#ffad10" stroke="none" /><path d="M 104.307194497241 79.44645832069477 l 5.068335118068144 -24.185635721959628 a45.71098938011937,45.71098938011937 0 0,0 0.7687223088442844,0.16801292232515358 l -5.483900151065956 24.094809301538604" fill="#e0ff1b" stroke="none" /><path d="M 104.66035177308747 79.52364482259891 l 1.3827159307117887 -6.075288708935377 a27.230652954704013,27.230652954704013 0 0,0 0.4561475570480401,0.10795538921678298 l -1.4870871747223524 6.0505874075777255" fill="#ff1f03" stroke="none" /><path d="M 105.01212808612495 79.60689891045804 l 3.972300267631961 -16.162300628366992 a37.643290871036925,37.643290871036925 0 0,0 0.6279100091794465,0.16006824233940029 l -4.249919165496433 16.091529389858724" fill="#ffb510" stroke="none" /><path d="M 105.36241919743992 79.69619591428918 l 3.7975546768568114 -14.378735291803782 a35.8717668794088,35.8717668794088 0 0,0 0.59564575372023,0.16281248514044017 l -4.044498319800752 14.311236265837048" fill="#ff9c0e" stroke="none" /><path d="M 105.71112130821622 79.79150937346287 l 3.40710495243265 -12.055854670047003 a33.52804837084313,33.52804837084313 0 0,0 0.554026703110699,0.16173558705052143 l -3.614121873266776 11.995420754077777" fill="#ff7c0b" stroke="none" /><path d="M 106.0581310904928 79.89281104454417 l 8.481399180370921 -28.150116492856252 a50.40005426216377,50.40005426216377 0 0,0 0.8285159974986878,0.2574239534320633 l -8.964700550580329 27.99995240454167" fill="#a7ff21" stroke="none" /><path d="M 106.74666289553966 80.11325718540242 l 10.124439703993605 -29.843217551055112 a52.51383685176094,52.51383685176094 0 0,0 0.8535198834852977,0.2977763280457897 l -10.636641591542176 29.664520369837117" fill="#8fff24" stroke="none" /><path d="M 107.08798089147638 80.2323363322302 l 3.428928199411996 -9.562934836409989 a31.159097956125166,31.159097956125166 0 0,0 0.5033198447476783,0.18537694651147166 l -3.593030369932251 9.502494622092192" fill="#ff5908" stroke="none" /><path d="M 107.4271985657038 80.35727306442388 l 6.150166032801951 -16.2653564358201 a38.3892599674427,38.3892599674427 0 0,0 0.6160869948682154,0.23903218252312772 l -6.429236192669833 16.157081549406424" fill="#ffbf11" stroke="none" /><path d="M 107.76421540070413 80.48803036053334 l 12.280835704311338 -30.862525193217795 a54.216176584584375,54.216176584584375 0 0,0 0.8641442301002266,0.3525061288273204 l -12.810263803999952 30.646558178206895" fill="#7cff26" stroke="none" /><path d="M 108.09893153111575 80.62456947434976 l 3.2274036021226804 -7.721059751019596 a29.368446551768688,29.368446551768688 0 0,0 0.46474341893427357,0.19897887801834271 l -3.359830778847269 7.664361345038463" fill="#ff3f05" stroke="none" /><path d="M 108.43124777332544 80.76684994638697 l 16.96973519721337 -38.71093249692894 a63.26710550114984,63.26710550114984 0 0,0 0.9936487003394265,0.44582120767790007 l -17.63356601601958 38.41309095873451" fill="#32ff48" stroke="none" /><path d="M 108.76106565485865 80.91482961587045 l 7.07828274109953 -15.419383607291053 a37.966422056277615,37.966422056277615 0 0,0 0.5915924064671217,0.2777605672244375 l -7.34265335886625 15.295258057426613" fill="#ffb911" stroke="none" /><path d="M 109.08828744355905 81.06846463323043 l 3.735260072795285 -7.780806737392747 a29.630939768998218,29.630939768998218 0 0,0 0.45790911145348573,0.22469401231278857 l -3.868640451259203 7.715357564945127" fill="#ff4306" stroke="none" /><path d="M 109.41281617654863 81.2277094730956 l 8.674707499982619 -17.300255988351825 a40.35327898503915,40.35327898503915 0 0,0 0.6182497288019719,0.3166915240421163 l -8.971217716373346 17.148371938997208" fill="#ffd914" stroke="none" /><path d="M 109.73455568895987 81.39251694778311 l 2.548086167491427 -4.870635259805179 a26.49689284514612,26.49689284514612 0 0,0 0.40231740644206626,0.2149040253872308 l -2.631548620461804 4.826052507916194" fill="#ff1402" stroke="none" /><path d="M 110.05341064243156 81.56283822128135 l 22.06627650503471 -40.467809805773896 a67.09299501304875,67.09299501304875 0 0,0 1.0091933769824848,0.5616150216602669 l -22.75959397108923 40.08197938655345" fill="#37ff76" stroke="none" /><path d="M 110.36928655335952 81.73862282372117 l 4.163080595965528 -7.331611927875931 a29.431119350921165,29.431119350921165 0 0,0 0.43838810953195456,0.2539426890354371 l -4.288665437962811 7.258865081450445" fill="#ff4006" stroke="none" /><line stroke="#e1ed5e" stroke-width="0.3" x1="143.23703022742887" x2="145.7803849466894" y1="26.81831364943548" y2="22.513508569990506" /><path d="M 143.74570117128098 25.957352633546492 a86.0,86.0 0 0,1 28.547481713284135,27.462654790039103" fill="none" id="id122" stroke="none" /><text fill="#e1ed5e" style="font-size:6.75px; font-family:Arial;" text-anchor="middle"><textPath startOffset="19.985693538727396" xlink:href="#id122">February</textPath></text><path d="M 110.68208982089419 81.91981866633111 l 8.462439273952876 -14.323268121089573 a37.636372445156454,37.636372445156454 0 0,0 0.5549356475705565,0.3343425184439195 l -8.70773698774107 14.175478993187038" fill="#ffb510" stroke="none" /><path d="M 110.99172775467656 82.1063720568725 l 9.083917019550821 -14.787869117749 a38.355074804268625,38.355074804268625 0 0,0 0.5595838252074796,0.3504113400086049 l -9.337119997130564 14.629313436417451" fill="#ffbe11" stroke="none" /><path d="M 111.2981086023043 82.29822771554956 l 18.275751111747873 -28.6342781694868 a54.96947107309889,54.96947107309889 0 0,0 0.7932172528736253,0.5159305660423569 l -18.76593539040578 28.315448679284916" fill="#73ff27" stroke="none" /><path d="M 111.60114157652 82.49532879139004 l 3.55399432911866 -5.362532798875476 a27.433322136378905,27.433322136378905 0 0,0 0.3913759299472485,0.26425877496488814 l -3.6457749534724506 5.300562111611917" fill="#ff2203" stroke="none" /><path d="M 112.19680574252982 82.90503203632743 l 4.845268615464436 -6.791098711027961 a29.34240071315987,29.34240071315987 0 0,0 0.408634405618454,0.29689027408799784 l -4.9614483374366785 6.706689202123289" fill="#ff3f05" stroke="none" /><path d="M 112.48926042617603 83.11751280151076 l 11.466829498157836 -15.500405596809356 a40.28083899640836,40.28083899640836 0 0,0 0.5538689138120111,0.4171625829764168 l -11.731944565728229 15.300726424327092" fill="#ffd814" stroke="none" /><path d="M 112.77801427241765 83.33499621200491 l 8.18093700778782 -10.669525273455351 a34.4449432831193,34.4449432831193 0 0,0 0.4674136892889929,0.36482379848314683 l -8.363383252236243 10.527123085748979" fill="#ff880c" stroke="none" /><path d="M 113.34407831869373 83.78471172551755 l 7.947279428634187 -9.65727447452381 a33.50688612697346,33.50688612697346 0 0,0 0.44219909285999076,0.3703290233051253 l -8.112336058453295 9.519044293824864" fill="#ff7b0b" stroke="none" /><path d="M 113.6212207817346 84.01681056812373 l 4.163867922232276 -4.885897588532912 a27.41948528461797,27.41948528461797 0 0,0 0.35659197472109344,0.30923304656246303 l -4.247353695600134 4.813499548550778" fill="#ff2203" stroke="none" /><path d="M 113.89432698308785 84.25364557470407 l 17.1555500195113 -19.442278225993128 a46.92903930131004,46.92903930131004 0 0,0 0.6011140921299218,0.539686167084332 l -17.48767509923721 19.1440930501395" fill="#d1ff1c" stroke="none" /><path d="M 114.16331599549186 84.49514656593476 l 22.681580203421063 -24.829960499291 a54.63006123872768,54.63006123872768 0 0,0 0.6888385487533245,0.6402003587291631 l -23.105626635969234 24.435855554487198" fill="#77ff27" stroke="none" /><path d="M 114.42810811169701 84.74124197986012 l 14.033489046653953 -14.841420086641568 a41.42563499651172,41.42563499651172 0 0,0 0.5139081933612917,0.4943792748446346 l -14.286880483627662 14.597657725034631" fill="#ffe715" stroke="none" /><path d="M 114.68862486808459 84.99185889309783 l 14.825734134863112 -15.148232860987822 a42.19602206661327,42.19602206661327 0 0,0 0.5147195347055232,0.5125091654461683 l -15.084289469735957 14.890787844891536" fill="#fff116" stroke="none" /><path d="M 114.94478906791727 85.2469230424477 l 14.631323459124681 -14.443632493060603 a41.55952688561019,41.55952688561019 0 0,0 0.4981913381285484,0.5134299661964253 l -14.877779060956339 14.189638331314063" fill="#ffe915" stroke="none" /><path d="M 115.19652480421416 85.50635884689758 l 18.825533931641026 -17.954798010469727 a47.0149091754735,47.0149091754735 0 0,0 0.5535058048937033,0.5904414005844246 l -19.13180705850519 17.628087193007246" fill="#d0ff1d" stroke="none" /><path d="M 115.4437574822437 85.77008943001954 l 18.379990849710918 -16.935362159704667 a45.99261001007726,45.99261001007726 0 0,0 0.5314475858862773,0.5868376980189923 l -18.668782076213233 16.616471674416125" fill="#ddff1b" stroke="none" /><path d="M 115.68641384162765 86.03803664274999 l 16.72353462448249 -14.885070608751619 a43.388433115423375,43.388433115423375 0 0,0 0.4917523860990045,0.5621579853064558 l -16.977278874159342 14.594997067242215" fill="#fdff18" stroke="none" /><path d="M 115.9244219780498 86.31012108654704 l 18.280517175753054 -15.715362664736695 a45.10705149737733,45.10705149737733 0 0,0 0.5010950652965794,0.593138503791417 l -18.54832285453675 15.39836521131617" fill="#e8ff1a" stroke="none" /><path d="M 116.15771136456269 86.58626213691792 l 22.901085296310594 -19.011922419812795 a50.764289036459004,50.764289036459004 0 0,0 0.552367456833329,0.6771371894143855 l -23.224951245220332 18.61490106079031" fill="#a3ff21" stroke="none" /><path d="M 116.38621287248628 86.86637796730983 l 13.782481287789391 -11.046719660916102 a38.66314823906359,38.66314823906359 0 0,0 0.4117550159551065,0.5228870558864405 l -13.970590384338463 10.807840211076623" fill="#ffc312" stroke="none" /><path d="M 116.60985879189232 87.15038557335679 l 49.829576375676965 -38.54884327992963 a84.0,84.0 0 0,0 0.874896239103546,1.1512608964758657 l -50.48574855500462 37.68539760757273" fill="#4dd2ff" stroke="none" /><path d="M 116.82858285166822 87.43820079747576 l 3.3564980499735646 -2.5054786192678398 a25.188496421281105,25.188496421281105 0 0,0 0.25636778189497594,0.34968536639283904 l -3.3991284443821668 2.447330809203507" fill="#ff0000" stroke="none" /><line stroke="#e1ed5e" stroke-width="0.3" x1="172.23445277983987" x2="176.4835382374775" y1="55.19839476539836" y2="52.563006222186495" /><path d="M 173.08426987136738 54.67131705675599 a86.0,86.0 0 0,1 12.851231095245387,41.99856678651699" fill="none" id="id123" stroke="none" /><text fill="#e1ed5e" style="font-size:6.75px; font-family:Arial;" text-anchor="middle"><textPath startOffset="22.20632615414155" xlink:href="#id123">March</textPath></text><line stroke="#e1ed5e" stroke-width="0.3" x1="184.98032266829074" x2="189.97916517819016" y1="98.17113171792111" y2="98.06355123074" /><path d="M 185.9800911702706 98.14961562048488 a86.0,86.0 0 0,1 -9.607161424134198,41.387399972396054" fill="none" id="id124" stroke="none" /><text fill="#e1ed5e" style="font-size:6.75px; font-family:Arial;" text-anchor="middle"><textPath startOffset="21.466115282336823" xlink:href="#id124">April</textPath></text><line stroke="#e1ed5e" stroke-width="0.3" x1="174.80103733775053" x2="179.2010983576182" y1="140.37084112569926" y2="142.7455964860345" /><path d="M 175.68104954172406 140.8457921977663 a86.0,86.0 0 0,1 -30.038265399797805,32.042727171017184" fill="none" id="id125" stroke="none" /><text fill="#e1ed5e" style="font-size:6.75px; font-family:Arial;" text-anchor="middle"><textPath startOffset="22.206326154141568" xlink:href="#id125">May</textPath></text><line stroke="#e1ed5e" stroke-width="0.3" x1="143.8653032363475" x2="146.44561519142675" y1="172.8068346515853" y2="177.08958963109032" /><path d="M 144.38136562736335 173.6633856474863 a86.0,86.0 0 0,1 -40.68145358897372,12.25698825130547" fill="none" id="id126" stroke="none" /><text fill="#e1ed5e" style="font-size:6.75px; font-family:Arial;" text-anchor="middle"><textPath startOffset="21.466115282336833" xlink:href="#id126">June</textPath></text><line stroke="#e1ed5e" stroke-width="0.3" x1="102.19456741930631" x2="102.32365962044197" y1="184.97166512339345" y2="189.96999836594603" /><path d="M 102.22038585953345 185.97133177190398 a86.0,86.0 0 0,1 -42.740103519485714,-10.115201625700543" fill="none" id="id127" stroke="none" /><text fill="#e1ed5e" style="font-size:6.75px; font-family:Arial;" text-anchor="middle"><textPath startOffset="22.20632615414155" xlink:href="#id127">July</textPath></text><line stroke="#e1ed5e" stroke-width="0.3" x1="58.666819895761336" x2="56.23545636021788" y1="174.27360380694188" y2="178.64263932499728" /><path d="M 58.180547188652646 175.14741091055294 a86.0,86.0 0 0,1 -31.652253787137756,-30.449443065178592" fill="none" id="id128" stroke="none" /><text fill="#e1ed5e" style="font-size:6.75px; font-family:Arial;" text-anchor="middle"><textPath startOffset="22.20632615414155" xlink:href="#id128">August</textPath></text><line stroke="#e1ed5e" stroke-width="0.3" x1="26.63291911575756" x2="22.317208475507996" y1="142.92168965132927" y2="145.44649492493687" /><path d="M 25.769776987707644 143.4266507060508 a86.0,86.0 0 0,1 -11.730757126820373,-40.83630448921669" fill="none" id="id129" stroke="none" /><text fill="#e1ed5e" style="font-size:6.75px; font-family:Arial;" text-anchor="middle"><textPath startOffset="21.46611528233685" xlink:href="#id129">September</textPath></text><line stroke="#e1ed5e" stroke-width="0.3" x1="15.007084014347285" x2="10.007500721073583" y1="101.09737516637583" y2="101.16192664675087" /><path d="M 14.007167355692545 101.11028546245083 a86.0,86.0 0 0,1 10.666146001902534,-42.60595125391555" fill="none" id="id130" stroke="none" /><text fill="#e1ed5e" style="font-size:6.75px; font-family:Arial;" text-anchor="middle"><textPath startOffset="22.20632615414155" xlink:href="#id130">October</textPath></text><line stroke="#e1ed5e" stroke-width="0.3" x1="26.266209847984243" x2="21.928928074336255" y1="57.711370442889674" y2="55.22380399835377" /><path d="M 25.398753493254645 57.213857153982495 a86.0,86.0 0 0,1 29.58750427330803,-30.492523968695096" fill="none" id="id131" stroke="none" /><text fill="#e1ed5e" style="font-size:6.75px; font-family:Arial;" text-anchor="middle"><textPath startOffset="21.46611528233685" xlink:href="#id131">November</textPath></text><line stroke="#e1ed5e" stroke-width="0.3" x1="56.762969772571076" x2="54.21961505331055" y1="26.818313649435495" y2="22.513508569990535" /><path d="M 56.25429882871897 25.957352633546506 a86.0,86.0 0 0,1 42.265352541879196,-11.944610805530505" fill="none" id="id132" stroke="none" /><text fill="#e1ed5e" style="font-size:6.75px; font-family:Arial;" text-anchor="middle"><textPath startOffset="22.20632615414155" xlink:href="#id132">December</textPath></text></svg>